<?xml version="1.0" encoding="utf-8"?>
<!-- Generator: Adobe Illustrator 23.0.1, SVG Export Plug-In . SVG Version: 6.00 Build 0)  -->
<svg version="1.1" id="Layer_1" xmlns="http://www.w3.org/2000/svg" xmlns:xlink="http://www.w3.org/1999/xlink" x="0px" y="0px"
	 viewBox="0 0 600 500" style="enable-background:new 0 0 600 500;" xml:space="preserve">
<style type="text/css">
	.st0{fill:#29783C;}
	.st1{fill:#765045;}
</style>
<title>b32</title>
<g>
	<g id="Layer_1-2">
		<g>
			<g>
				<path class="st0" d="M452.1,225.4c-13.4-36.1-31.5-50.3-64.8-73.7c0,0-5.1,0-5.1,2.4c-0.5,15.3,3.1,22,9.6,28.7
					c44.7,46,61.1,86.5,63.8,140.2c3.4,66.8-8.2,124-8.3,124.5l5.9-0.7c0.1-0.5,7.8-38.7,8.9-89.1c-3.2-17.4-5.5-34.9-6.9-52.5
					C453.3,282.1,448.8,253.5,452.1,225.4z"/>
				<path class="st0" d="M461,303.9c0.1,0.8,0.1,1.6,0.2,2.4c0-10.2,0.3-20.9-0.1-31.7C460.3,284.3,460.3,294.1,461,303.9z"/>
				<path class="st0" d="M509.5,106c-0.4-2.3-5.4-0.3-5.4-0.3c-35.1,43.3-46.1,72.5-51.7,119.7v0c-3.3,28.3,1.2,57.2,3,80.4
					c1.4,17.7,3.7,35.4,7,52.9v-43.1c-0.3-2.9-0.6-5.8-0.8-8.8c-0.1-0.8-0.1-1.6-0.2-2.4c-0.8-9.9-0.7-19.8,0.1-29.6
					c3.5-41.4,20.7-82.2,49.1-132.5C517,131.1,512.5,123.8,509.5,106z"/>
			</g>
			<path class="st1" d="M141.6,500.1h413c0,0-24.6-71-113.1-67.3c0,0-12.3-31-78.7-34.1c0,0-32-14.9-108.2,0s-81.1,14.1-93.4,34.9
				c0,0-54.1,3.2-78.7,24.3s-46.7,12.9-46.7,34.1L141.6,500.1z"/>
			<polygon class="st1" points="35.5,500.1 141.2,500.1 35.5,492.1 			"/>
			<g>
				<path class="st0" d="M307.3,198.8c-13.4-31.7-40.3-60.9-73.6-81.5c0,0-5.1,0-5.1,2.1c-0.5,13.4,11.9,36.1,18.4,42
					c44.7,40.4,61.1,75.9,63.8,123c3.4,58.7-8.2,108.8-8.3,109.3l5.9-0.6c0.1-0.4,7.8-34,8.9-78.2c-3.2-15.2-5.5-30.6-6.9-46.1
					C308.6,248.5,304,223.4,307.3,198.8z"/>
				<path class="st0" d="M316.3,267.6c0.1,0.7,0.1,1.4,0.2,2.1c0-9,0.3-18.3-0.1-27.8C315.5,250.4,315.5,259.1,316.3,267.6z"/>
				<path class="st0" d="M373.4,76.7c-0.4-2-5.4-0.2-5.4-0.2c-35.1,38-55,81-60.6,122.4v0c-3.3,24.8,1.2,50.2,3,70.6
					c1.4,15.6,3.7,31.1,7,46.4V278c-0.3-2.5-0.6-5.1-0.8-7.7c-0.1-0.7-0.1-1.4-0.2-2.1c-0.8-8.6-0.7-17.3,0.1-26
					c3.5-36.4,20.7-72.2,49.1-116.3C372,116,376.3,92.3,373.4,76.7z"/>
			</g>
			<g>
				<path class="st0" d="M138.4,217c13.4-36.1,32.8-47.1,66.1-70.5c0,0,5.1,0,5.1,2.4c0.5,15.3-4.4,18.7-10.9,25.5
					c-44.7,46-61.1,86.5-63.8,140.2c-3.4,66.8,8.2,124,8.3,124.5l-5.9-0.7c-0.1-0.5-7.8-38.7-8.9-89.1c3.2-17.4,5.5-34.9,6.9-52.5
					C137.1,273.7,141.7,245.1,138.4,217z"/>
				<path class="st0" d="M129.4,295.4c-0.1,0.8-0.1,1.6-0.2,2.4c0-10.2-0.3-20.9,0.1-31.7C130.2,275.8,130.2,285.7,129.4,295.4z"/>
				<path class="st0" d="M75,103.6c0.4-2.3,5.4-0.3,5.4-0.3c35.1,43.3,52.6,66.4,58.2,113.6v0c3.3,28.3-1.2,57.2-3,80.4
					c-1.4,17.7-3.7,35.4-7,52.9v-43.1c0.3-2.9,0.6-5.8,0.8-8.8c0.1-0.8,0.1-1.6,0.2-2.4c0.8-9.9,0.7-19.8-0.1-29.6
					c-3.5-41.4-20.7-82.2-49.1-132.5C74,122.6,72.1,121.4,75,103.6z"/>
			</g>
			<path class="st0" d="M134.6,306.2c0,0-26.4-29.7-69.9-43.3c0,0-1.7-7.4,6.4-8.4c7.2-0.9,21.5,4.5,27.5,8.2
				C121.6,276.9,134.6,306.2,134.6,306.2z"/>
			<path class="st0" d="M310,374.5c0,0-21.6-24.2-56.9-35.3c0,0-1.4-6.1,5.3-6.9c5.8-0.7,17.5,3.6,22.4,6.7
				C299.5,350.7,310,374.5,310,374.5z"/>
			<path class="st0" d="M462,336c0,0-21.6-24.2-56.9-35.3c0,0-1.4-6.1,5.3-6.9c5.8-0.7,17.5,3.6,22.4,6.7
				C451.5,312.1,462,336,462,336z"/>
			<path class="st0" d="M315.7,317c0,0-27.2-30.6-71.9-44.5c0,0-1.8-7.7,6.6-8.7c7.4-0.9,22.1,4.6,28.3,8.4
				C302.4,286.9,315.7,317,315.7,317z"/>
			<path class="st0" d="M135.6,406.7c0,0-27.2-30.6-71.9-44.5c0,0-1.8-7.7,6.6-8.7c7.4-0.9,22.1,4.6,28.3,8.4
				C122.3,376.6,135.6,406.7,135.6,406.7z"/>
			<path class="st0" d="M313.2,338.2c0,0,21.6-24.2,56.9-35.3c0,0,1.4-6.1-5.3-6.9c-5.8-0.7-17.5,3.6-22.4,6.7
				C323.7,314.3,313.2,338.2,313.2,338.2z"/>
			<path class="st0" d="M130,317c0,0,21.6-24.2,56.9-35.3c0,0,1.4-6.1-5.3-6.9c-5.8-0.7-17.5,3.6-22.4,6.7
				C140.5,293.2,130,317,130,317z"/>
			<path class="st0" d="M130,379c0,0,26.1-29.3,68.9-42.7c0,0,1.7-7.3-6.4-8.3c-7.1-0.9-21.2,4.4-27.1,8.1
				C142.7,350.1,130,379,130,379z"/>
			<path class="st0" d="M456.9,393.7c0,0,26.1-29.3,68.9-42.7c0,0,1.7-7.3-6.4-8.3c-7.1-0.9-21.2,4.4-27.1,8.1
				C469.7,364.8,456.9,393.7,456.9,393.7z"/>
		</g>
	</g>
</g>
</svg>
