<svg id="Layer_1" data-name="Layer 1" xmlns="http://www.w3.org/2000/svg" viewBox="0 0 190 360">
  <defs>
    <style>
      .cls-1 {
        fill: #23291e;
      }

      .cls-1, .cls-10, .cls-11, .cls-12, .cls-13, .cls-14, .cls-15, .cls-16, .cls-18, .cls-19, .cls-2, .cls-20, .cls-21, .cls-22, .cls-23, .cls-24, .cls-25, .cls-26, .cls-3, .cls-4, .cls-5, .cls-6, .cls-7, .cls-8, .cls-9 {
        fill-rule: evenodd;
      }

      .cls-2 {
        fill: #10120f;
      }

      .cls-3 {
        fill: #010101;
      }

      .cls-4 {
        fill: #00037f;
      }

      .cls-5 {
        fill: #384631;
      }

      .cls-6 {
        fill: #151d11;
      }

      .cls-7 {
        fill: #cb922e;
      }

      .cls-8 {
        fill: #d2993a;
      }

      .cls-9 {
        fill: #c68a2f;
      }

      .cls-10 {
        fill: #2b3b22;
      }

      .cls-11 {
        fill: #1c2818;
      }

      .cls-12 {
        fill: #0f0f0d;
      }

      .cls-13 {
        fill: #172014;
      }

      .cls-14 {
        fill: #3c5330;
      }

      .cls-15 {
        fill: #69835c;
      }

      .cls-16 {
        fill: #809576;
      }

      .cls-17, .cls-21 {
        fill: #523e2e;
      }

      .cls-18 {
        fill: #36291e;
      }

      .cls-19 {
        fill: #a05525;
      }

      .cls-20 {
        fill: #17120f;
      }

      .cls-22 {
        fill: #35271a;
      }

      .cls-23 {
        fill: #e2ac4c;
      }

      .cls-24 {
        fill: #090c09;
      }

      .cls-25 {
        fill: #a3a39e;
      }

      .cls-26 {
        fill: #4c5245;
      }
    </style>
  </defs>
  <title>bluesoldier</title>
  <g>
    <path class="cls-1" d="M95.04794,276.50659a60.32331,60.32331,0,0,0-3.28878-7.84406q-4.83358.77368-4.83612.77624a6.655,6.655,0,0,0-4.28973,7.1291l12.41463-.06128"/>
    <path class="cls-2" d="M122.5174,276.56787c2.76787-21.11149,3.9169-32.658,3.91182-32.66306q-18.80577.27576-18.80323.27575l1.5167,17.09755q-10.48681,6.22774-10.48935,6.2303-8.41855,1.40184-8.42111,1.40437,1.04945,8.77094,1.052,8.77348s10.57105.29109,31.23317-1.11839"/>
    <path class="cls-3" d="M120.17339,276.7211s1.38392-10.2698,4.14672-30.81955t-5.17319-1.149q-4.61907,32.303-4.62165,32.30561s1.88441-.11233,5.64812-.337"/>
    <path class="cls-2" d="M161.34949,291.59209s-.61282-6.17413-1.84864-18.52748t1.90994-22.138q-17.53421,1.20266-17.53165,1.20519,1.1567,20.98129,1.15925,20.98385-2.344,16.65327-2.344,16.65326,2.93387,2.50491,18.65513,1.82313"/>
    <path class="cls-3" d="M154.16934,282.20068s.94476-10.01953,2.83426-30.05349q-8.94709-.59752-9.43225.84771,1.58567,28.59553,1.58822,28.59807a5.70686,5.70686,0,0,0,5.00977.60771"/>
    <path class="cls-4" d="M128.22168,241.83656c.12259,4.397-1.624,4.69315-5.61748,4.69318t-13.07339-.56173c-2.80874-.143-3.40111-1.70569-4.208-9.65187q-4.00631-38.99037-4.60634-45.92543s-.383-5.45406.61282-30.90124q27.66864-45.0803,26.12637,39.94536.09958,31.73619.766,42.40173"/>
    <path class="cls-4" d="M144.47663,253.66389c-3.0845-.01533-3.636-1.31245-4.57059-4.397-4.09566-16.0813-8.24238-24.57391-10.08593-34.38408L119.79035,149.4954c17.39379,2.5534,30.47739,7.19549,38.061,13.93136l-2.42061,40.11389c-.46984,7.84407,1.08775,11.89376,7.49677,42.56007,1.45543,6.34264.26555,7.83382-4.96892,7.68062q-9.1233-.27576-13.48194-.11745"/>
    <path class="cls-4" d="M110.21,146.16067a37.93236,37.93236,0,0,0,24.84967,10.70387Q129.92739,118.3567,110.21,146.16067"/>
    <path class="cls-4" d="M108.85157,68.951,102.371,118.95167q-3.65388,22.8963-6.50095,44.4802h4.38165q7.06272-4.02927,23.53724-26.30512-.78135,6.05919,13.84453,33.853a39.82517,39.82517,0,0,0,28.14868-15.31017s-3.07429-8.988-9.22287-26.95878q-1.47078-7.89-21.82136-9.754h19.63563l4.62676-38.14268q3.07174-4.757,6.84822-10.82642a149.53891,149.53891,0,0,0-18.06786-6.33244l-5.03529,12.26143Z"/>
    <polygon class="cls-5" points="123.508 67.848 106.681 69.482 108.826 65.049 125.648 63.41 123.508 67.848"/>
    <path class="cls-6" d="M80.50376,85.10891S85.73822,80.5179,98.7912,73.256c23.79259-10.70386,17.29161.93455,11.43413,16.34175-10.80089,8.1249-18.9258,13.62494-23.24616,13.84964-.22981-3.00788-2.01208-10.0042-6.47541-18.3385"/>
    <path class="cls-5" d="M101.42632,74.26718c-.00511,0-.04086.59749-.097,1.78738q-9.72078,5.30852-9.71825,5.306-2.99511-4.08289-2.99257-4.08032,4.71865-2.62744,4.71867-2.6249s2.69641-.12767,8.08918-.38813"/>
    <path class="cls-5" d="M77.16392,84.7412c9.47311-8.00746,12.96617-.69963,13.06317,12.91508-.10214,3.52882-1.10306,5.65323-2.487,6.42948q-5.38509,2.88786-5.38767,2.89043-3.98331,1.92271-5.99537.61282s.0715-7.50189.80688-22.84781"/>
    <path class="cls-7" d="M69.38628,111.82257c-3.24284.25534-6.27117-2.55851-5.78087-8.55389l2.53806-31.32,10.183-4.66762a.98939.98939,0,0,0,.91922.66387h.28086l2.90066,28.92492q1.532,13.819-11.04089,14.95272"/>
    <path class="cls-8" d="M75.83105,65.7133q2.76532,2.25972,1.68013,4.2795-2.9032,4.51953-8.00235,3.00791s2.104-2.43084,6.32222-7.28741"/>
    <path class="cls-9" d="M142.62286,65.075s-2.39509-3.253-2.03253-21.46389c-13.97222,4.26929-19.13008,14.14072-19.13008,14.14072a22.25434,22.25434,0,0,1,.67922,11.54647,11.78635,11.78635,0,0,0,11.72522,4.22844,11.04916,11.04916,0,0,0,8.75817-8.45174"/>
    <path class="cls-5" d="M128.8192,118.95678h-1.93039V81.92738h1.93039Zm12.84358-60.37259c2.45637,1.61888,3.72795,2.90066,6.19966,4.50932-2.16017,12.00608-4.99955,18.5632-10.90812,19.0126t-5.82176-9.47822Q138.96132,70.05407,141.66278,58.58419Z"/>
    <path class="cls-10" d="M108.50945,44.372q2.32869,22.82736,5.52556,26.70857a3.45627,3.45627,0,0,0,2.201-1.76186q-2.8802-1.90737-5.03018-25.71784s-.89881.26045-2.69641.77113"/>
    <path class="cls-11" d="M110.43472,38.60129q-2.78832-1.74652-9.50885,3.74839,1.88442,1.60865,11.17368,4.22843s-.55155-2.66064-1.66483-7.97682"/>
    <path class="cls-8" d="M138.04208,56.86832c1.71076-5.24981,1.99674-6.32733.26042-11.45456a17.44494,17.44494,0,0,0-4.24886-12.85382,5.04914,5.04914,0,0,1-2.51254,2.01719,9.46533,9.46533,0,0,1-1.51162.48515,10.58529,10.58529,0,0,1-1.31757.21959l-.82218.06128a12.66653,12.66653,0,0,1-1.51671.13278h-.14808l-.07662.02553a5.04054,5.04054,0,0,1-1.481.30641l.31662-.01021-.286.10724a5.12473,5.12473,0,0,1-1.18478.28087,4.77524,4.77524,0,0,1-.69452.13788,5.0663,5.0663,0,0,1-1.21542.21449l.31662-.01021-.63324.23491a5.37815,5.37815,0,0,1-1.30223.29109l-.21447.02553-.1379.02553a8.38439,8.38439,0,0,1-1.11839.35748c-.4494.097-.92433.21959-1.37884.27066l-.96008.10214-1.07753.143a10.4351,10.4351,0,0,1-1.20008.06639l-.79666.06128-.68433.05107a4.89907,4.89907,0,0,1-1.31756.21449,5.05685,5.05685,0,0,1-2.22144.13279c-.50557,3.85053.06639,6.3784,1.80271,7.55295,2.4717,1.69545,2.916,3.23771,2.75257,5.786q-.17622,4.19013,1.71077,6.36307c4.24886,4.94337,5.62259,7.33335,6.34774,9.4731.83753,2.43084,6.61331,1.91,10.77026-2.09377a24.21313,24.21313,0,0,0,5.7809-8.71731"/>
    <path class="cls-12" d="M126.31685,21.4884l-.12767.00512.07662-.04085Zm7.14952,16.9648c-3.10494-.83241-4.494-1.95591-3.92713-3.49816a4.31337,4.31337,0,0,0-.26556-3.65647l.69963.02044a5.60846,5.60846,0,0,0,.715-.02553l.03064.00511.68433.12767a5.5161,5.5161,0,0,0,.70474.08171,5.17662,5.17662,0,0,0,.73538.18895q.17616.07659.35237.13788a5.04056,5.04056,0,0,0,1.59843.60771l.12767.02553a5.02731,5.02731,0,0,0,2.19592.55152,5.18244,5.18244,0,0,0,1.17455.35749,5.09906,5.09906,0,0,0,1.08264.33193,76.43337,76.43337,0,0,1-.25023,14.442c-.38812,2.18571-3.30408-.54132-3.41133-3.09472C135.61123,40.81764,135.3712,39.03026,133.46637,38.4532Z"/>
    <path class="cls-8" d="M142.21432,46.144a1.654,1.654,0,0,1-1.04689,1.338,1.67138,1.67138,0,0,1-1.68012-.28087,8.37483,8.37483,0,0,1-1.22053-10.93366,3.97746,3.97746,0,0,1,6.96568.65877,3.70319,3.70319,0,0,1-.55155,4.03436,8.76074,8.76074,0,0,0-2.46659,5.1834"/>
    <path class="cls-13" d="M144.43577,40.6338q7.3155,24.65051,4.87189,30.222a5.19668,5.19668,0,0,1-3.69223-.73026q2.91853-3.37814-5.07615-28.95043s1.29711-.17874,3.89649-.54132"/>
    <path class="cls-4" d="M126.09727,40.02609s2.487-.42387,7.45594-1.27159q1.10307-1.44012,15.13143,2.51765s-.3728-2.82406-1.10818-8.47218C145.81464,21.519,142.4186,17.54086,135.2027,13.93035a22.46248,22.46248,0,0,0-32.45881,21.663,6.61341,6.61341,0,0,1-2.08359,5.17319,165.23259,165.23259,0,0,1,25.437-.74049"/>
    <path class="cls-14" d="M133.24167,38.25914s4.99447,1.17967,14.98336,3.539c-1.07244,1.149-1.77715,1.60863-2.71682,1.42989q-15.15951-3.133-15.16208-3.13047s.96516-.61282,2.89554-1.83845"/>
    <path class="cls-15" d="M149.74685,40.62869q-6.88651-2.02995-13.8905-3.65136a4.99064,4.99064,0,0,0-3.41134.27066,102.21288,102.21288,0,0,0-31.0953,1.292.48955.48955,0,0,0,.05617.9754A105.59942,105.59942,0,0,1,130.53,38.16721c-2.74746,1.34819-2.21122.73027-8.48238.77623a105.77444,105.77444,0,0,0-21.38728,1.82313,1.51443,1.51443,0,0,0-.429,2.01719q8.26539-2.03,22.0001-1.77717c6.71034.18895,6.0056.69963,10.4434-1.49629a3.65482,3.65482,0,0,1,2.60446-.22981,122.53136,122.53136,0,0,1,13.14489,2.97216,1.48765,1.48765,0,0,0,1.32268-1.624"/>
    <polygon class="cls-16" points="143.34 30.655 145.838 30.895 143.57 31.968 144.117 34.419 142.391 32.596 140.23 33.872 141.436 31.666 139.551 30.007 142.018 30.471 143.019 28.168 143.34 30.655"/>
    <rect class="cls-17" x="70.46892" y="58.11436" width="14.81994" height="7.77255"/>
    <path class="cls-18" d="M110.7207,54.65707a.52306.52306,0,0,1,.52088.52088v1.27159h.42387a.76826.76826,0,0,1,.766.766v2.66575a.76826.76826,0,0,1-.766.766h-12.435a.76826.76826,0,0,1-.766-.766V57.21556a.76827.76827,0,0,1,.766-.766h8.93689V55.178a.52309.52309,0,0,1,.52091-.52088h2.03249"/>
    <path class="cls-19" d="M112.74809,63.80333l33.521,13.17553c.72519.31154.85286.94989.32684,2.18573q-4.26674,10.32592-4.26928,10.32593c-.73026,1.71587-1.62395,1.98652-4.20288.43406L108.03449,70.8507a7.918,7.918,0,0,1-3.81987-6.51628s2.84449-.17872,8.53347-.53109"/>
    <path class="cls-20" d="M86.586,56.1789a1.02679,1.02679,0,0,1,.97542,1.07752v1.70567a1.04454,1.04454,0,0,1-.98561,1.08775h-1.1899l.9805,7.87979h26.35107v2.12953c-.03064,1.75674-.70982,1.82824-3.37048,1.76185h-3.32964v4.91273h-18.553l1.49629,12.03673a.87054.87054,0,0,1-.87835,1.006H82.475a1.175,1.175,0,0,1-1.12861-1.006L77.78182,60.04984H20.86147a1.93547,1.93547,0,1,1,0-3.87094h9.07476V51.66449a.867.867,0,1,1,1.7261,0V56.1789H86.586"/>
    <path class="cls-21" d="M114.87761,58.15011a1.97569,1.97569,0,0,1,1.97122,1.97124v6.86353a1.97569,1.97569,0,0,1-1.97122,1.97122H87.02a1.979,1.979,0,0,1-1.97122-1.97122V60.12135A1.97571,1.97571,0,0,1,87.02,58.15011h27.85757"/>
    <path class="cls-22" d="M126.11768,86.20688C94.40959,106.38381,75.02928,107.7116,50.8588,67.133a50.36873,50.36873,0,0,1-5.42853.32173c25.93745,43.72441,48.54522,43.96955,82.35735,20.69276a5.2237,5.2237,0,0,0-1.66994-1.94058"/>
    <path class="cls-19" d="M75.111,59.7945a.98948.98948,0,0,1,.98561.98561v6.99121a.9895.9895,0,0,1-.98561.98561H36.8866a.98949.98949,0,0,1-.9856-.98561V60.78011a.98949.98949,0,0,1,.9856-.98561H75.111"/>
    <path class="cls-6" d="M170.43959,101.14935s1.31245-8.56919,3.93734-25.71275c.715-4.57059-4.08544-8.38024-8.81434-9.28927-4.734-.909-10.38723,1.11328-11.59754,5.36725q-6.65671,19.89356-6.65415,19.8961s7.71126,3.24283,23.12869,9.73867"/>
    <path class="cls-5" d="M145.26818,91.186c1.93549-4.8004,3.3756-4.32548,7.04739-3.6054a30.84842,30.84842,0,0,1,16.09662,8.4875c2.50742,2.59426,3.85051,5.18341.66388,9.62122-4.40206,6.12305-9.38119,11.27582-14.03859,7.36911,1.90994-3.71266,2.50233-12.6138-9.7693-21.87243"/>
    <path class="cls-23" d="M73.30318,70.9069S73.65044,69.38,74.345,66.321c.20936-2.26231-1.37884-5.546-4.923-7.20569-4.065-2.04272-9.29438-1.81292-10.2136,1.338-1.39414,4.831-1.23075,7.54786,1.24095,8.942,7.221,4.1263,12.13376,4.86679,12.8538,1.51162"/>
    <polygon class="cls-5" points="165.506 68.844 149.083 66.015 153.597 62.46 170.021 65.289 165.506 68.844"/>
    <path class="cls-24" d="M153.3114,115.78034a1.76725,1.76725,0,0,1,1.78741,1.99166l-.50557,5.0353a2.26114,2.26114,0,0,1-2.19082,1.99166H103.275a1.77235,1.77235,0,0,1-1.78738-1.99166l.50557-5.0353a2.26112,2.26112,0,0,1,2.19081-1.99166H153.3114"/>
    <path class="cls-8" d="M104.1227,87.841s2.85982-.55151,8.57436-1.64437t2.35934,1.66993s17.6644,12.44015,32.82649,22.53119c7.80318,5.12722,10.22891,4.17736,13.85474-.18895s4.15183-12.43507-.8273-14.72291q-40.34625-18.913-40.3437-18.91045a102.62412,102.62412,0,0,0-12.5423-4.65229,14.36441,14.36441,0,0,0-7.0729-.48515c-7.11888,1.86907-8.605,2.28783-9.77442,2.64532-.79155.27575-.669,1.54223-.42388,2.34911s.83753,1.94569,1.65971,1.71588q7.147-1.80018,7.14952-1.80272c1.4299-.36256,1.66482-.00511.50046.80689-2.6249,1.93035-4.49909,2.50231-2.94663,5.32638,2.40528,4.254,4.45822,5.93921,7.00651,5.36214"/>
    <path class="cls-25" d="M121.85352,275.57207a1.00041,1.00041,0,0,1,.99583.99583v2.533a1.00042,1.00042,0,0,1-.99583.99584H83.16441a1.00042,1.00042,0,0,1-.99583-.99584v-2.533a1.00041,1.00041,0,0,1,.99583-.99583h38.68911"/>
    <path class="cls-26" d="M156.70231,259.026a.672.672,0,0,1,.64349.67921h0a.63043.63043,0,0,1-.65878.623l-9.9123-.41365a.67877.67877,0,0,1-.64346-.67921h0a.63039.63039,0,0,1,.65876-.623l9.91229.41365"/>
    <path class="cls-26" d="M156.30909,261.80413a.67878.67878,0,0,1,.64346.67921h0a.63043.63043,0,0,1-.65878.623l-9.18713-.383a.67878.67878,0,0,1-.64346-.67922h0a.63038.63038,0,0,1,.65877-.623l9.18714.383"/>
    <path class="cls-26" d="M155.91076,264.42392a.67878.67878,0,0,1,.64347.67921h0a.63042.63042,0,0,1-.65878.623l-8.45174-.35237a.67877.67877,0,0,1-.64346-.67922h0a.63038.63038,0,0,1,.65876-.623l8.45175.35237"/>
    <path class="cls-26" d="M155.42561,267.0386a.68245.68245,0,0,1,.64347.67921h0a.63043.63043,0,0,1-.65878.623l-7.53764-.31151a.67877.67877,0,0,1-.64346-.67921h0a.63039.63039,0,0,1,.65877-.623l7.53764.31151"/>
    <path class="cls-26" d="M154.95579,269.66861a.67878.67878,0,0,1,.64348.67921h0a.63043.63043,0,0,1-.65879.623l-6.66436-.27576a.67877.67877,0,0,1-.64346-.67921h0a.63038.63038,0,0,1,.65876-.623l6.66437.27575"/>
    <path class="cls-26" d="M154.6647,272.19645a.679.679,0,0,1,.64347.67921h0a.63042.63042,0,0,1-.65878.623l-6.12815-.25534a.67878.67878,0,0,1-.64347-.67921h0a.6304.6304,0,0,1,.65877-.623l6.12816.25534"/>
    <path class="cls-26" d="M154.23573,274.65793a.67536.67536,0,0,1,.64346.67922h0a.63041.63041,0,0,1-.65878.623l-5.3315-.21959a.67877.67877,0,0,1-.64346-.67921h0a.63043.63043,0,0,1,.65878-.623l5.3315.21959"/>
    <path class="cls-26" d="M153.75058,277.08877a.67879.67879,0,0,1,.64346.67922h0a.63041.63041,0,0,1-.65878.623l-4.41738-.18384a.67877.67877,0,0,1-.64346-.67921h0a.63041.63041,0,0,1,.65878-.623l4.41738.18383"/>
    <path class="cls-26" d="M153.49012,279.73409a.67878.67878,0,0,1,.64347.67921h0a.63043.63043,0,0,1-.65879.623l-3.95265-.16342a.67877.67877,0,0,1-.64346-.67922h0a.63041.63041,0,0,1,.65878-.623l3.95265.16342"/>
    <path class="cls-26" d="M112.14038,249.12905a.71754.71754,0,0,1,.64346.70474h0a.59018.59018,0,0,1-.64857.59749l-3.95777-.32684a.71753.71753,0,0,1-.64346-.70474h0a.59018.59018,0,0,1,.64857-.59749l3.95777.32684"/>
    <path class="cls-26" d="M112.028,251.48839a.71.71,0,0,1,.64346.70474h0a.59018.59018,0,0,1-.64857.59749l-3.95777-.32684a.71754.71754,0,0,1-.64346-.70474h0a.59018.59018,0,0,1,.64857-.59749l3.95777.32684"/>
    <path class="cls-26" d="M112.25274,253.75581a.71753.71753,0,0,1,.64346.70474h0a.59018.59018,0,0,1-.64857.59749l-3.95777-.32684a.71754.71754,0,0,1-.64346-.70475h0a.59017.59017,0,0,1,.64857-.59748l3.95777.32684"/>
    <path class="cls-26" d="M112.14038,256.11515a.71754.71754,0,0,1,.64346.70474h0a.59018.59018,0,0,1-.64857.59749l-3.95777-.32685a.71753.71753,0,0,1-.64346-.70474h0a.59017.59017,0,0,1,.64857-.59748l3.95777.32684"/>
    <path class="cls-26" d="M112.20677,258.51535a.7134.7134,0,0,1,.64346.70474h0a.59018.59018,0,0,1-.64857.59749l-3.95777-.32684a.71754.71754,0,0,1-.64346-.70475h0a.59017.59017,0,0,1,.64857-.59748l3.95777.32684"/>
    <path class="cls-26" d="M112.09443,260.87469a.71346.71346,0,0,1,.64347.70474h0a.59019.59019,0,0,1-.64858.59749l-3.95777-.32685a.71753.71753,0,0,1-.64346-.70474h0a.59018.59018,0,0,1,.64858-.59748l3.95776.32684"/>
    <path class="cls-26" d="M110.45,264.94482a.71757.71757,0,0,1,.02553.955h0a.5935.5935,0,0,1-.88347.02553l-2.78321-2.83938a.71774.71774,0,0,1-.02553-.955h0a.59351.59351,0,0,1,.88347-.02553l2.78321,2.83938"/>
    <path class="cls-26" d="M108.11622,266.0581a.71774.71774,0,0,1,.02553.955h0a.59351.59351,0,0,1-.88347.02553l-2.78321-2.83938a.71774.71774,0,0,1-.02553-.955h0a.59351.59351,0,0,1,.88347-.02553l2.78321,2.83938"/>
    <path class="cls-26" d="M106.02244,267.37055a.712.712,0,0,1,.02553.955h0a.5935.5935,0,0,1-.88347.02553l-2.78321-2.83938a.71774.71774,0,0,1-.02552-.955h0a.5935.5935,0,0,1,.88346-.02553l2.78321,2.83938"/>
    <path class="cls-26" d="M103.65288,268.94854a.71866.71866,0,0,1,.02553.96008h0a.59351.59351,0,0,1-.88347.02552l-2.78321-2.83937a.71774.71774,0,0,1-.02553-.955h0a.5935.5935,0,0,1,.88347-.02553l2.78321,2.83427"/>
  </g>
</svg>
