<svg id="Layer_1" data-name="Layer 1" xmlns="http://www.w3.org/2000/svg" viewBox="0 0 190 360">
  <defs>
    <style>
      .cls-1 {
        fill: #010101;
      }

      .cls-1, .cls-10, .cls-11, .cls-12, .cls-13, .cls-14, .cls-15, .cls-16, .cls-17, .cls-18, .cls-2, .cls-20, .cls-21, .cls-22, .cls-23, .cls-24, .cls-25, .cls-26, .cls-3, .cls-4, .cls-5, .cls-6, .cls-7, .cls-8, .cls-9 {
        fill-rule: evenodd;
      }

      .cls-2 {
        fill: #151d11;
      }

      .cls-3 {
        fill: #384631;
      }

      .cls-4 {
        fill: #4c5245;
      }

      .cls-5 {
        fill: #23291e;
      }

      .cls-6 {
        fill: #10120f;
      }

      .cls-7 {
        fill: #d40047;
      }

      .cls-8 {
        fill: #cb922e;
      }

      .cls-9 {
        fill: #d2993a;
      }

      .cls-10 {
        fill: #c68a2f;
      }

      .cls-11 {
        fill: #2b3b22;
      }

      .cls-12 {
        fill: #1c2818;
      }

      .cls-13 {
        fill: #0f0f0d;
      }

      .cls-14 {
        fill: #172014;
      }

      .cls-15 {
        fill: #33452a;
      }

      .cls-16 {
        fill: #3c5330;
      }

      .cls-17 {
        fill: #69835c;
      }

      .cls-18 {
        fill: #809576;
      }

      .cls-19, .cls-23 {
        fill: #523e2e;
      }

      .cls-20 {
        fill: #36291e;
      }

      .cls-21 {
        fill: #a05525;
      }

      .cls-22 {
        fill: #17120f;
      }

      .cls-24 {
        fill: #35271a;
      }

      .cls-25 {
        fill: #e2ac4c;
      }

      .cls-26 {
        fill: #090c09;
      }
    </style>
  </defs>
  <title>pinksoldier</title>
  <path class="cls-1" d="M146.177,260.67648s.88814-9.42019,2.66441-28.24878q-8.41068-.56836-8.86363.79343,1.49206,26.88395,1.49207,26.88692a5.37512,5.37512,0,0,0,4.70715.56843"/>
  <path class="cls-2" d="M161.47079,90.47344s1.23747-8.05842,3.69466-24.17517c.675-4.2986-3.83676-7.88076-8.28338-8.73337-4.44662-.85851-9.76361,1.04208-10.90044,5.04464q-6.25251,18.70422-6.2525,18.70423s7.24722,3.05519,21.74166,9.15967"/>
  <polygon class="cls-3" points="156.835 60.099 141.399 57.441 145.638 54.101 161.08 56.76 156.835 60.099"/>
  <path class="cls-4" d="M147.3553,246.42479a.62975.62975,0,0,1,.60392.63947h0a.58708.58708,0,0,1-.61578.58617l-7.08735-.29605a.63761.63761,0,0,1-.60393-.63947h0a.58707.58707,0,0,1,.61578-.58616l7.08736.296"/>
  <g>
    <polygon class="cls-3" points="64.555 57.388 48.765 54.668 53.107 51.252 68.898 53.972 64.555 57.388"/>
    <path class="cls-5" d="M92.24185,261.04882a58.41307,58.41307,0,0,0-3.16177-7.547q-4.65178.75411-4.65178.75106a6.39857,6.39857,0,0,0-4.12483,6.85655s3.97945-.01815,11.93838-.06056"/>
    <path class="cls-6" d="M118.66257,261.10938c2.659-20.3031,3.7614-31.41168,3.76138-31.40562q-18.08925.26346-18.08624.26045,1.46278,16.44483,1.45974,16.44481-10.08493,5.98739-10.08493,5.9904-8.0952,1.35374-8.09822,1.3507,1.00849,8.44044,1.01153,8.43742s10.16367.2786,30.03674-1.07816"/>
    <path class="cls-1" d="M116.40936,261.25478s1.32647-9.879,3.98551-29.637t-4.97887-1.10844q-4.4428,31.0725-4.43979,31.07248l5.43315-.32706"/>
    <path class="cls-6" d="M156.00407,275.55538s-.59359-5.93587-1.7747-17.81973t1.83527-21.29043q-16.86273,1.15383-16.86273,1.15688,1.11753,20.179,1.11449,20.182-2.25322,16.01778-2.25321,16.01475,2.82558,2.41678,17.94088,1.75655"/>
    <path class="cls-7" d="M124.14416,227.705c.12115,4.22779-1.56272,4.51851-5.40287,4.51249t-12.56831-.53908c-2.70142-.1393-3.27078-1.63541-4.04608-9.27936q-3.85226-37.49592-4.42767-44.16775s-.36947-5.24536.58753-29.71572q26.6115-43.35615,25.12451,38.41359.09086,30.51829.73289,40.77583"/>
    <path class="cls-7" d="M139.77732,239.08c-2.96189-.01209-3.49489-1.25983-4.3913-4.22778-3.93706-15.46358-7.92863-23.62843-9.69729-33.06527L116.046,138.903c16.72948,2.45308,29.30989,6.9171,36.60255,13.39812l-2.332,38.57714c-.45427,7.541,1.04785,11.43565,7.20785,40.92726,1.39917,6.09942.25438,7.53493-4.779,7.38957q-8.77662-.27257-12.96807-.11509"/>
    <path class="cls-7" d="M106.82109,135.6928a36.51764,36.51764,0,0,0,23.901,10.29693q-4.94253-37.04171-23.901-10.29693"/>
    <path class="cls-7" d="M105.50067,61.44592,99.268,109.53258q-3.507,22.01421-6.25085,42.77465h4.21568q6.796-3.87954,22.63507-25.30017-.75408,5.82379,13.31333,32.55646a38.28538,38.28538,0,0,0,27.07487-14.7246l-8.86748-25.93009q-1.40824-7.59549-20.9815-9.38231h18.88578l4.44584-36.68129q2.95279-4.57908,6.584-10.412a143.8627,143.8627,0,0,0-17.37152-6.0873l-4.83955,11.793Z"/>
    <polygon class="cls-3" points="119.607 60.38 103.429 61.955 105.489 57.691 121.673 56.116 119.607 60.38"/>
    <path class="cls-2" d="M78.2562,76.98214s5.03338-4.41555,17.58352-11.39931c22.88947-10.29692,16.63256.89643,10.99954,15.71191C96.45148,89.10827,88.63792,94.39607,84.48281,94.61411c-.218-2.88917-1.93825-9.61248-6.22661-17.632"/>
    <path class="cls-3" d="M98.37761,66.552c-.00605,0-.03634.57542-.09692,1.72623q-9.349,5.097-9.346,5.1-2.88012-3.92495-2.87708-3.92493,4.54276-2.52575,4.54276-2.52577s2.5924-.12721,7.77721-.37553"/>
    <path class="cls-3" d="M75.03992,76.63086c9.10976-7.70454,12.4714-.67235,12.56225,12.41082-.09691,3.398-1.06,5.43923-2.39253,6.18423L80.0309,98.0061q-3.83409,1.85343-5.76627.59357s.06662-7.21392.77529-21.96881"/>
    <path class="cls-8" d="M67.55951,102.676c-3.11936.24226-6.02672-2.46521-5.5664-8.22543l2.441-30.12154,9.79421-4.48823a.94753.94753,0,0,0,.88432.636h.27257l2.79227,27.81987q1.47186,13.29213-10.61794,14.37935"/>
    <path class="cls-9" d="M73.7619,58.3326Q76.424,60.495,75.37307,62.4453a6.24112,6.24112,0,0,1-7.69242,2.89528s2.02911-2.338,6.08125-7.008"/>
    <path class="cls-10" d="M137.99655,57.71478s-2.30165-3.13147-1.95036-20.6363c-13.43445,4.10668-18.39515,13.598-18.39515,13.598a21.398,21.398,0,0,1,.65415,11.10252,11.32275,11.32275,0,0,0,11.27211,4.06427,10.63526,10.63526,0,0,0,8.41925-8.1285"/>
    <path class="cls-3" d="M124.71958,109.53254h-1.8595V73.91729h1.8595ZM137.06983,51.47c2.3683,1.55662,3.59181,2.79228,5.96617,4.33681-2.07756,11.55074-4.80928,17.85607-10.49076,18.28614t-5.59668-9.11581Q134.47138,62.50589,137.06983,51.47Z"/>
    <path class="cls-11" d="M105.18571,37.80537q2.24409,21.95065,5.31806,25.68782a3.32624,3.32624,0,0,0,2.11389-1.69595q-2.77107-1.8353-4.83955-24.73081s-.86011.24832-2.5924.73894"/>
    <path class="cls-12" d="M107.03915,32.25716q-2.68023-1.68085-9.14,3.60995,1.808,1.54455,10.74514,4.06428s-.53907-2.56211-1.60511-7.67423"/>
    <path class="cls-9" d="M133.58705,49.8225c1.64751-5.05156,1.92612-6.08733.26044-11.00551a16.7848,16.7848,0,0,0-4.08242-12.36236,4.88072,4.88072,0,0,1-2.41674,1.93826,8.82664,8.82664,0,0,1-1.45368.4664,11.242,11.242,0,0,1-1.26592.20595l-.79346.06056a13.18444,13.18444,0,0,1-1.45975.12721h-.14536l-.07268.02422a4.70366,4.70366,0,0,1-1.4234.29678l.30285-.01212-.27258.103a4.79366,4.79366,0,0,1-1.13872.27257,5.19024,5.19024,0,0,1-.66627.13324,4.93924,4.93924,0,0,1-1.169.206l.30285-.01213-.61177.22411a4.63481,4.63481,0,0,1-1.2538.28466l-.20594.02422-.13326.02421a7.4437,7.4437,0,0,1-1.07814.34526,12.52,12.52,0,0,1-1.32649.26044l-.92066.0969-1.03575.1393c-.38159.04843-.77529.04843-1.15689.06056l-.76923.05452-.66022.04847a4.80745,4.80745,0,0,1-1.26591.206,4.84724,4.84724,0,0,1-2.13813.12721c-.48457,3.70689.06662,6.13576,1.7323,7.26235,2.3804,1.62934,2.8044,3.11332,2.64692,5.5664q-.16355,4.034,1.6475,6.12364c4.08243,4.75474,5.40892,7.0564,6.10547,9.10974.80559,2.338,6.35987,1.82919,10.3575-2.017a23.3019,23.3019,0,0,0,5.56034-8.38293"/>
    <path class="cls-13" d="M122.30282,15.80022l-.12115.00606.07875-.0424Zm6.89289,16.32363c-2.9861-.79954-4.3247-1.88373-3.77957-3.3677a4.13946,4.13946,0,0,0-.25441-3.51307l.67232.01819a6.51053,6.51053,0,0,0,.68445-.02421l.03028.00606.66021.12721a5.29866,5.29866,0,0,0,.67838.07875,5.79482,5.79482,0,0,0,.70868.1817c.109.04843.22411.09083.33919.13324a4.76713,4.76713,0,0,0,1.53243.58148l.12115.02422a4.82236,4.82236,0,0,0,2.10784.52695,4.87276,4.87276,0,0,0,1.13266.34526,4.91248,4.91248,0,0,0,1.04181.315,73.71711,73.71711,0,0,1-.24228,13.88873c-.36948,2.09574-3.17387-.5209-3.27684-2.98C131.24905,34.38317,131.01888,32.663,129.19571,32.12385Z"/>
    <path class="cls-9" d="M137.60285,39.50739a1.59474,1.59474,0,0,1-2.61662,1.01761,8.05242,8.05242,0,0,1-1.17506-10.515,3.8227,3.8227,0,0,1,6.69906.62991,3.56969,3.56969,0,0,1-.533,3.88253,8.447,8.447,0,0,0-2.37436,4.98492"/>
    <path class="cls-14" d="M139.741,34.2075q7.03218,23.70415,4.68206,29.06758a4.98405,4.98405,0,0,1-3.5494-.7026q2.80742-3.25259-4.882-27.84409s1.25381-.17564,3.7493-.52089"/>
    <path class="cls-15" d="M122.103,33.62605s2.38646-.41191,7.1715-1.22952q1.063-1.381,14.555,2.42281s-.35736-2.71357-1.066-8.1467c-1.68989-10.84814-4.96068-14.67617-11.896-18.14683A21.60343,21.60343,0,0,0,99.64959,29.35586a6.39785,6.39785,0,0,1-2.00488,4.97885,158.27063,158.27063,0,0,1,24.45824-.70866"/>
    <path class="cls-16" d="M128.9716,31.924s4.80321,1.1327,14.40963,3.404c-1.0297,1.10239-1.70808,1.54457-2.61057,1.375q-14.59135-3.00731-14.58529-3.01032s.92672-.59358,2.78623-1.76864"/>
    <path class="cls-17" d="M144.847,34.20143q-6.62336-1.94426-13.36784-3.513a4.782,4.782,0,0,0-3.27685.26045,98.24568,98.24568,0,0,0-29.90349,1.24168.46709.46709,0,0,0-.41187.49061.47563.47563,0,0,0,.46638.44822A101.60537,101.60537,0,0,1,126.361,31.83316c-2.64085,1.29617-2.11995.70259-8.15274.745a101.63091,101.63091,0,0,0-20.56962,1.75655,1.45279,1.45279,0,0,0-.41187,1.93825q7.94073-1.95341,21.15715-1.70808c6.45072.18776,5.77234.67838,10.04253-1.43551a3.49644,3.49644,0,0,1,2.50761-.22411,119.12726,119.12726,0,0,1,12.641,2.8589,1.43191,1.43191,0,0,0,1.272-1.56273"/>
    <polygon class="cls-18" points="138.136 26.442 140.541 26.673 138.36 27.702 138.881 30.058 137.227 28.308 135.15 29.531 136.307 27.412 134.496 25.819 136.864 26.261 137.827 24.05 138.136 26.442"/>
    <rect class="cls-19" x="68.60738" y="51.02178" width="14.25216" height="7.47437"/>
    <path class="cls-20" d="M107.31171,47.69648a.4926.4926,0,0,1,.49666.50275v1.22353h.40583a.73545.73545,0,0,1,.73289.73291v2.5621a.73543.73543,0,0,1-.73289.73292H96.25765a.73546.73546,0,0,1-.73289-.73292v-2.5621a.73542.73542,0,0,1,.73289-.73291h8.59491V48.19923a.50537.50537,0,0,1,.50272-.50275h1.95643"/>
    <path class="cls-21" d="M109.26813,56.49128s10.73908,4.22779,32.2294,12.66525c.69655.29678.81768.91457.315,2.10176q-4.10665,9.93053-4.10666,9.93352c-.70262,1.64753-1.56272,1.914-4.04.41794q-28.93737-18.34368-28.93436-18.34066a7.62077,7.62077,0,0,1-3.67055-6.269s2.73776-.16961,8.20725-.50881"/>
    <path class="cls-22" d="M84.10728,49.15621a1.00493,1.00493,0,0,1,.94491,1.054v1.64147a1.00138,1.00138,0,0,1-.94489,1.04178H82.96251l.93883,7.57734h25.34258V62.518c-.0303,1.68383-.68445,1.75045-3.24051,1.6899h-3.20417v4.72446H84.94916l1.43551,11.575a.83939.83939,0,0,1-.848.96911H80.15806a1.133,1.133,0,0,1-1.08422-.96911l-3.42827-27.62H20.90834a1.86557,1.86557,0,1,1,0-3.73114h8.72211V44.81334a.83374.83374,0,1,1,1.65962,0v4.34287H84.10728"/>
    <path class="cls-23" d="M111.3154,51.05812a1.8987,1.8987,0,0,1,1.89585,1.89585v6.60216A1.90259,1.90259,0,0,1,111.3154,61.452H84.52521a1.90261,1.90261,0,0,1-1.89584-1.89585V52.954a1.90258,1.90258,0,0,1,1.89584-1.89585H111.3154"/>
    <path class="cls-24" d="M122.12112,78.04212C91.6301,97.44276,72.99265,98.72078,49.74582,59.7015a48.49888,48.49888,0,0,1-5.22115.30891c24.94279,42.0478,46.6875,42.284,79.20155,19.89728a4.95427,4.95427,0,0,0-1.6051-1.86557"/>
    <path class="cls-21" d="M73.07139,52.639a.95.95,0,0,1,.9449.9449v6.72327a.94612.94612,0,0,1-.9449.94489h-36.76a.94612.94612,0,0,1-.94489-.94489V53.58389a.94612.94612,0,0,1,.94489-.9449h36.76"/>
    <path class="cls-3" d="M140.54051,82.82718c1.85949-4.61544,3.24655-4.16117,6.77782-3.46463a29.67411,29.67411,0,0,1,15.48173,8.16484c2.41068,2.49549,3.70083,4.98495.636,9.24908-4.23387,5.88744-9.02495,10.84207-13.50109,7.08672,1.84132-3.57362,2.40463-12.13219-9.39444-21.036"/>
    <path class="cls-25" d="M71.333,63.32358s.33313-1.46579,1.00547-4.40953c.19987-2.17448-1.32649-5.33016-4.73659-6.92922-3.91283-1.96853-8.94016-1.74443-9.82448,1.28408-1.3386,4.64572-1.18113,7.25633,1.19323,8.601,6.9474,3.96738,11.67186,4.6821,12.36237,1.4537"/>
    <path class="cls-26" d="M148.27531,106.47982a1.70082,1.70082,0,0,1,1.72019,1.914l-.49062,4.84561a2.17444,2.17444,0,0,1-2.10784,1.914H100.14625a1.704,1.704,0,0,1-1.72019-1.914l.49061-4.84561a2.17445,2.17445,0,0,1,2.10785-1.914h47.25079"/>
    <path class="cls-9" d="M100.97,79.60484s2.74989-.527,8.24965-1.593c0,0,.75107.533,2.26532,1.60512,0,0,16.98993,11.96867,31.56917,21.672,7.50465,4.93042,9.84265,4.01581,13.32543-.1817s3.98551-11.95654-.79953-14.16131q-38.79517-18.18013-38.79518-18.18317a98.77814,98.77814,0,0,0-12.05952-4.47615,13.80517,13.80517,0,0,0-6.802-.4664c-6.84442,1.799-8.27388,2.1987-9.40048,2.544-.75713.26651-.64206,1.48394-.40583,2.25925s.79953,1.87766,1.593,1.65356q6.87776-1.73532,6.87472-1.7323c1.36889-.35128,1.59906-.006.47851.77531-2.52577,1.85951-4.3247,2.41072-2.83468,5.12425,2.31378,4.09455,4.28838,5.71176,6.74146,5.16059"/>
    <path class="cls-4" d="M151.534,244.23454a.6482.6482,0,0,1,.61781.65417h0a.60058.60058,0,0,1-.62994.59964l-9.52769-.39373a.65225.65225,0,0,1-.61781-.65416h0a.60057.60057,0,0,1,.62994-.59964l9.52769.39372"/>
    <path class="cls-4" d="M151.15846,246.91173a.64424.64424,0,0,1,.61781.65417h0a.60058.60058,0,0,1-.62994.59964l-8.83718-.36947a.65226.65226,0,0,1-.61781-.65417h0a.60056.60056,0,0,1,.62993-.59964l8.83719.36947"/>
    <path class="cls-4" d="M150.77686,249.43147a.65268.65268,0,0,1,.61781.65417h0a.60057.60057,0,0,1-.62993.59964l-8.12853-.3392a.65226.65226,0,0,1-.61781-.65416h0a.60057.60057,0,0,1,.62994-.59964l8.12852.33919"/>
    <path class="cls-4" d="M108.6806,234.719a.68811.68811,0,0,1,.61781.67838h0a.56939.56939,0,0,1-.62387.57543l-3.80987-.315a.69308.69308,0,0,1-.61781-.67838h0a.56939.56939,0,0,1,.62387-.57543l3.80987.315"/>
    <path class="cls-4" d="M108.57158,236.98431a.68326.68326,0,0,1,.61781.67838h0a.56938.56938,0,0,1-.62388.57542l-3.80986-.315a.69307.69307,0,0,1-.61781-.67838h0a.56938.56938,0,0,1,.62387-.57543l3.80987.315"/>
    <path class="cls-4" d="M108.78962,239.17088a.68853.68853,0,0,1,.61781.67838h0a.56938.56938,0,0,1-.62387.57543l-3.80987-.315a.69308.69308,0,0,1-.61781-.67838h0a.56938.56938,0,0,1,.62387-.57542l3.80987.315"/>
    <path class="cls-4" d="M108.6806,241.4362a.68811.68811,0,0,1,.61781.67838h0a.56939.56939,0,0,1-.62387.57543l-3.80987-.315a.69308.69308,0,0,1-.61781-.67838h0a.56939.56939,0,0,1,.62387-.57543l3.80987.315"/>
    <path class="cls-4" d="M108.74722,243.75a.68852.68852,0,0,1,.61781.67839h0a.56939.56939,0,0,1-.62388.57542l-3.80986-.315a.69306.69306,0,0,1-.61781-.67838h0a.56938.56938,0,0,1,.62387-.57542l3.80987.315"/>
    <path class="cls-4" d="M108.6382,246.0153a.69307.69307,0,0,1,.6178.67839h0a.56938.56938,0,0,1-.62387.57542l-3.80987-.315a.69307.69307,0,0,1-.61781-.67838h0a.56939.56939,0,0,1,.62388-.57542l3.80987.315"/>
    <path class="cls-4" d="M107.05126,249.92815a.67885.67885,0,0,1,.02423.91461h0a.57118.57118,0,0,1-.848.02422l-2.6772-2.72566a.68538.68538,0,0,1-.02424-.91461h0a.57118.57118,0,0,1,.848-.02422l2.67721,2.72566"/>
    <path class="cls-4" d="M104.81016,251.00022a.68536.68536,0,0,1,.02423.91461h0a.57118.57118,0,0,1-.848.02422l-2.67721-2.72566a.68539.68539,0,0,1-.02423-.91462h0a.57118.57118,0,0,1,.848-.02421l2.67721,2.72566"/>
    <path class="cls-4" d="M102.79924,252.26009a.69249.69249,0,0,1,.02423.91461h0a.57117.57117,0,0,1-.848.02422l-2.67721-2.72566a.6854.6854,0,0,1-.02424-.91462h0a.57118.57118,0,0,1,.848-.02421l2.67721,2.72566"/>
    <path class="cls-4" d="M100.5218,253.7804a.69212.69212,0,0,1,.02423.91462h0a.57118.57118,0,0,1-.848.02421l-2.67721-2.72565a.6854.6854,0,0,1-.02423-.91462h0a.57118.57118,0,0,1,.848-.02422l2.67721,2.72566"/>
  </g>
</svg>
