<?xml version="1.0" encoding="utf-8"?>
<!-- Generator: Adobe Illustrator 23.0.2, SVG Export Plug-In . SVG Version: 6.00 Build 0)  -->
<svg version="1.1" id="Layer_1" xmlns="http://www.w3.org/2000/svg" xmlns:xlink="http://www.w3.org/1999/xlink" x="0px" y="0px"
	 viewBox="0 0 675 1200" style="enable-background:new 0 0 675 1200;" xml:space="preserve">
<style type="text/css">
	.st0{fill-rule:evenodd;clip-rule:evenodd;fill:#354053;}
	.st1{fill-rule:evenodd;clip-rule:evenodd;fill:#130F22;}
	.st2{fill-rule:evenodd;clip-rule:evenodd;fill:#3B70B7;}
	.st3{fill-rule:evenodd;clip-rule:evenodd;fill:#EAD7B9;}
	.st4{fill-rule:evenodd;clip-rule:evenodd;fill:#B9D0EC;}
	.st5{fill-rule:evenodd;clip-rule:evenodd;fill:#D3C2A9;}
	.st6{fill-rule:evenodd;clip-rule:evenodd;fill:#1C1C1C;}
	.st7{fill-rule:evenodd;clip-rule:evenodd;}
	.st8{fill-rule:evenodd;clip-rule:evenodd;fill:#DAE9F6;}
	.st9{fill-rule:evenodd;clip-rule:evenodd;fill:#F7F9FD;}
	.st10{fill-rule:evenodd;clip-rule:evenodd;fill:#D2DCEA;}
	.st11{fill:#375480;}
	.st12{fill-rule:evenodd;clip-rule:evenodd;fill:#5BC0EE;}
	.st13{fill-rule:evenodd;clip-rule:evenodd;fill:#6886AC;}
</style>
<g>
	<path class="st0" d="M268.09,910.87l19.6-418.7l102.08,8.14l46.14,410.55c-22.24-0.17-41.68,0.65-60.12-0.5
		c-26.54-1.65-51.07-6.81-79.12,0.05C287.71,912.62,278.11,910.68,268.09,910.87z"/>
	<path class="st1" d="M388.91,1077.98l-25.91-4.39c0,0-2.78-127.95-4.17-170.59c-1.73-52.9-11.91-215.66-11.91-215.66l53.61-19.31
		c0,0-5.48,155.6-5.96,204.53C394.08,923.48,388.91,1077.98,388.91,1077.98z"/>
	<rect x="307.84" y="487.85" class="st2" width="78.1" height="178.42"/>
	<path class="st3" d="M298.22,296.98c0.9,4.71,0.05,11.27-4.36,12.08c-4.41,0.82-10.69-4.42-11.6-9.12
		c-0.9-4.7,1.69-9.84,6.09-10.66C292.76,288.46,297.31,292.28,298.22,296.98z"/>
	<path class="st3" d="M371.55,292.37c1.03,4.68,2.74,9.8,7.13,8.87c4.38-0.93,8.11-8.15,7.09-12.83c-1.02-4.68-5.44-8.43-9.82-7.5
		C371.56,281.83,370.53,287.69,371.55,292.37z"/>
	<path class="st0" d="M495.31,401.14c2.79,21.85,5.69,53.33,4.05,57.48l-12.01-17.07l-10.22-29.7L495.31,401.14z"/>
	<path class="st0" d="M185.05,313.85c-3.11,21.81-9.66,80.48-6.62,85.48c10.04-12.87,22.03-26.88,27.57-56.3L185.05,313.85z"/>
	<path class="st4" d="M342.4,454.34c0,0,31.76-69.38,28.99-69.89c-4.77-0.88-20-11.4-33.4-10.23
		c-13.61,1.19-30.14,14.21-30.14,14.21L342.4,454.34z"/>
	<path class="st5" d="M319.5,342.66c0,0,0.92,29.34,1.66,39.11c5.79,7.42,13.1,12.95,18.63,12.57c9.72-0.68,17.68-12.7,17.68-12.7
		l-2.45-47.18L319.5,342.66z"/>
	<path class="st3" d="M379.67,308.4c0.59,22.22,0.01,19.36,0.17,27.27c-3.99,13.04-18.71,33.53-29.19,34.15
		c-14.53,0.86-32.44-13.15-40.37-17.44c-8.48-9.3-6.87-10.51-16.35-43.74c-6.77-23.74-8.42-42.43-2.63-57.53
		c6.61-17.26,22.58-17.68,38.94-19.62c14.4-1.71,23.89-7.72,35.47,7.34C378.81,255.85,379.14,288.64,379.67,308.4z"/>
	<path class="st6" d="M287.53,291.48c0,0-4.73-19.03-8.06-31.12c-1.61-5.84,0.03-8.76,4.4-14.34c2.3-2.93,10.94-10.29,17.37-15.04
		c9.64-7.12,34.51-13.67,53.33-5.55c4.3,1.86,11.69,5.06,14.86,8.88c3.92,4.71,3.83,4.01,5.11,8.22c2.55,8.4,3.67,39.57,3.67,39.57
		l-1.69,1.44c0,0-5.63-32.32-10.79-35.92c-8.35-5.81-19.19-4.17-30.68,0.96c-9.65-1.35-31.19-6.05-44.27,13.41
		c-2.76,11.41,3.36,29.75,3.36,29.75L287.53,291.48z"/>
	<polygon class="st1" points="299.57,1075.34 275.44,1076.22 278.42,900.66 282.59,666.27 331.73,689.98 312.67,902.7 	"/>
	<path class="st2" d="M236.15,916.48c8.69,13.17,40.54,12.67,62.34,9.19c12.32-1.97,33.6,3.36,40.21,6.12
		c2.09-83.19,7.7-194.61,10.65-275.03c1.16-31.5-0.22-89.19-2-133.16c-0.96-23.65-1.89-57.55-4.34-73.99
		c-11.65-22.58-23.27-40.76-32.24-65.48c-8.43,2.33-35.59,5.12-52.08,7.93c-0.58,1.65,4.7,29.71,5.92,62.43
		c-2.52,74.66-6.76,151.82-12.4,227.47C245.91,766.64,239.04,857.39,236.15,916.48L236.15,916.48z M369.12,930.58
		c-5.55-57.45-7.86-128.95-19.23-260.05c-3.9-44.96-1.56-149.51-5.71-191.73l-1.29-29.34c10.06-20.86,18.29-44.28,26.89-67.38
		c20.03,0.85,38.83,3.3,52.08,4.89c-0.13,21.73-6.31,46.61-6.53,73.2c4.16,55.02,7.31,112.01,11.71,168.98
		c7.37,95.59,15.63,191.87,24.17,284.16C430.47,936.4,395.46,926.31,369.12,930.58z"/>
	<path class="st7" d="M332.89,432.35l4.82-22.04l5.8-0.06l7.02,21.3c-3.85,9.44-4.67,10.82-8.12,18.77
		C338.03,441.87,337.5,441.48,332.89,432.35L332.89,432.35z M339.74,394.28l-8.32,7.37l5.06,8.91l8.31-0.28l3.51-9.42L339.74,394.28
		z"/>
	<path class="st8" d="M321.3,381.37l18.72,12.61L322,410.41c-4.23-8.69-7.94-17.46-11.23-26.28l10.05-7.76L321.3,381.37
		L321.3,381.37z M357.38,380.43l-18.11,13.64l19.91,15.13c3.94-9.93,6.57-16.17,10.11-27l-12.15-6.82L357.38,380.43z"/>
	<path class="st0" d="M342.78,445.53c11.35-22.62,19.07-39.77,27.01-63.45l26.23,1.93c-12.95,35.59-27.28,70.88-46.6,103.64
		l-4.91,8.33l-5.44-8.01c-22.48-33.11-38.84-63.33-54.17-100.22l13.41-2.3l12.46-1.32C320.38,409.19,329.01,422.82,342.78,445.53z"
		/>
	<path class="st9" d="M389.34,381.11c-5.15,14.15-7.96,21.44-14.25,36.8c-9.28,22.67-19.69,45.4-30.93,64.47
		c-21.55-31.73-38.99-58.21-55.44-97.8l17.03-2.48c12.02,31.36,21.31,48.16,37.48,73.33c13.5-24.42,22.03-48.46,31.15-75.63
		L389.34,381.11z"/>
	<path class="st3" d="M483.92,300.53l-8.18-41.79l2.64-14.11l-1.43-17.55l-11.61-6.68l-3.37-5.12l-13.29-4.92l-4.61,3.9l1.44,2.88
		l2.75,3.9l3.58,5.08L449.96,240c-0.45,0.79-2,1.08-3.23,0.05c-1.88-1.57-4.25-4.43-5.67-6.47c-1.79-1.17-3.45-0.33-4.55-0.21
		l5.44,16.7l2.91,4.78l9.35,7.8l6.02,35.16L483.92,300.53z"/>
	<path class="st10" d="M458.17,294.37l26.12-0.65c11.15,38.64,15.78,60.97,21.75,100.52c-11.03,12.17-27.95,20.85-49.78,26.6
		l-7.26-26.9l16.96-17.36L458.17,294.37z"/>
	<path class="st2" d="M462.42,336.75c0.07,1.79,2.11,5.35,3.39,11.72c6.06,30.11,26.1,105.51,34.02,109.28
		c-6.74,23.05-11.86,4.31-18.46,7.19c-7.18,3.13-9.89,2.42-21.85-0.85c-11.58-3.17-29.13-1.59-46.16,2.08
		c-0.55-12.9-1.19-44.62,1.76-77.96c14.79-2.62,31.21-8.27,43.33-12.19C459.97,363.63,460.24,341.65,462.42,336.75z"/>
	<path class="st3" d="M232.76,147.91l5.16,13.81l-6.46-1.29l1.34,5.09l8.56,17.32c-13.1,22.89-23.51,45.03-34.28,69.09
		c0,0,3.66,3.85,15.01,7.02c3.6-0.62,10.64-4.29,10.64-4.29l27.75-68.48l0.89-32.5l2.68-10.2l-6.84-4.2l-8.09,1.55l-4.63,5.47
		l-1.83-13.85l-4.68-0.98L232.76,147.91z"/>
	<path class="st10" d="M242.53,233.91l-24.14-10.12c-19.11,35.5-23.75,51.84-37.98,89.3c8.21,14.16,20.38,40.61,34.19,61.05
		l25.03-22.75l-20.9-42.8L242.53,233.91z"/>
	<path class="st2" d="M225.53,286.15c-2.1,5.93-2.4,6.77-8.09,21.5c-11.09,28.69-31.5,87.97-39.61,89.58c0.26,1.41,0.55,3,0.97,4.02
		c1.99,4.9,5.65,6.7,8.71,6.73c5.26,0.07,5.52,0.33,11.53,5.88c0.96,0.89,2.11,1.41,3.29,1.66c6.33,1.35,6.99-0.88,10-0.15
		c11.62,2.79,43.81,42.45,53.67,53.91c0.74-12.89,3.99-43.2,9.12-75.33c-10.12-7.8-40.25-56.42-48.84-72.83
		C226.63,311.93,226.9,292.53,225.53,286.15z"/>
	<path class="st11" d="M301.86,100.95l-0.34-2.49c1.14-0.15,2.26-0.3,3.36-0.45c9.05-1.24,17.59-2.41,30.66-0.1l-0.45,2.47
		c-12.67-2.24-21.02-1.1-29.86,0.11C304.12,100.65,303,100.8,301.86,100.95z"/>
	<path class="st12" d="M300.92,97.79l-0.13,3.83c-8.69-0.27-24.34,2.78-30.28,1.7c-6.35-1.16-15.63-3.47-19.5-6.44L300.92,97.79z"/>
	<path class="st12" d="M307.8,101.35c1.54-3.41-0.25-6.85-4.49-6.31c-3.48,0.45-4.36,4-3.69,5.89c0.46,1.28,1.89,2.87,4.79,2.64
		C305.48,103.48,307.18,102.72,307.8,101.35z"/>
	<path class="st12" d="M301.83,96.89l-1.44,3.27c-13-1.55-21.05-0.61-29.64,0.2c-6.6-1.12-13.2-2.24-19.8-3.36l1.45-1.77l20.08-2.85
		L301.83,96.89z"/>
	<path class="st12" d="M306.83,100.81c1.19-1.27,0.98-3.76,0.11-4.8c-0.71-0.85-2.57-2.12-4.64-1.24c-2.79,1.18-2.66,3.61-2.21,5.19
		C300.54,101.53,304.26,103.55,306.83,100.81z"/>
	<polygon class="st13" points="329.19,91.14 327.38,94.36 380.2,155.88 473.39,184.49 475.23,181.29 414.61,99.22 	"/>
	<polygon class="st0" points="327.35,94.34 377.55,155.06 473.4,184.49 412.77,102.42 	"/>
	<path class="st13" d="M360.6,118.07l-17.37,15.94c12.44,2.2,26.46,6.99,37.32,12.68c19.2,10.06,30.02,21.15,39.77,31.63l5.6-18.66
		C419.84,134.24,386.57,116.63,360.6,118.07z"/>
	<path class="st0" d="M381.03,146.1c-8.3-4.35-23.71-10.51-34.22-11.96c-2.57-0.35-4.32,0.17-4.67,2.4
		c-0.88,5.57,11.25,16.89,19.3,22.49c5.34,3.72,10.67,6.98,15.86,9.8c12.94,7.04,25.36,11.34,34.09,12.78c4.05,0.67,9.86-1.1,8.25-4
		C413.66,166.76,393.31,152.55,381.03,146.1z"/>
	<path d="M299.94,1073.7l-3.24,17.44h-8.51c0,0-0.95-2.48-2.41-2.48c-1.24,0-2.82,2.48-4.5,2.48c-3.63,0-7.65,0-9.27,0
		c-3.23,0-34.62,0-34.62,0s-0.78-3.67,0.17-4.93c0.48-0.65,3.38-1.78,5.3-2.34c8.91-2.58,34.42-10.65,38.86-19.43
		C287.12,1053.77,299.94,1073.7,299.94,1073.7z"/>
	<path d="M363.52,1073.7l3.24,17.44h8.51c0,0,0.95-2.48,2.41-2.48c1.24,0,2.82,2.48,4.5,2.48c3.63,0,7.65,0,9.27,0
		c3.23,0,34.62,0,34.62,0s0.78-3.67-0.17-4.93c-0.48-0.65-3.38-1.78-5.3-2.34c-8.91-2.58-34.42-10.65-38.86-19.43
		C376.34,1053.77,363.52,1073.7,363.52,1073.7z"/>
</g>
</svg>
