<?xml version="1.0" encoding="utf-8"?>
<!-- Generator: Adobe Illustrator 23.0.1, SVG Export Plug-In . SVG Version: 6.00 Build 0)  -->
<svg version="1.1" id="Layer_1" xmlns="http://www.w3.org/2000/svg" xmlns:xlink="http://www.w3.org/1999/xlink" x="0px" y="0px"
	 viewBox="0 0 235 235" style="enable-background:new 0 0 235 235;" xml:space="preserve">
<style type="text/css">
	.st0{clip-path:url(#SVGID_2_);}
	.st1{fill-rule:evenodd;clip-rule:evenodd;fill:#354053;}
	.st2{fill-rule:evenodd;clip-rule:evenodd;fill:#130F22;}
	.st3{fill:#3B70B7;}
	.st4{fill-rule:evenodd;clip-rule:evenodd;fill:#EAD7B9;}
	.st5{fill-rule:evenodd;clip-rule:evenodd;fill:#B9D0EC;}
	.st6{fill-rule:evenodd;clip-rule:evenodd;fill:#D3C2A9;}
	.st7{fill-rule:evenodd;clip-rule:evenodd;fill:#1C1C1C;}
	.st8{fill-rule:evenodd;clip-rule:evenodd;fill:#3B70B7;}
	.st9{fill-rule:evenodd;clip-rule:evenodd;}
	.st10{fill-rule:evenodd;clip-rule:evenodd;fill:#DAE9F6;}
	.st11{fill-rule:evenodd;clip-rule:evenodd;fill:#F7F9FD;}
	.st12{fill-rule:evenodd;clip-rule:evenodd;fill:#D2DCEA;}
	.st13{fill:#375480;}
	.st14{fill-rule:evenodd;clip-rule:evenodd;fill:#5BC0EE;}
	.st15{fill-rule:evenodd;clip-rule:evenodd;fill:#6886AC;}
</style>
<title>a11</title>
<g>
	<g id="Layer_1-2">
		<g>
			<defs>
				<rect id="SVGID_1_" x="3.5" y="-7.4" width="234.7" height="256.2"/>
			</defs>
			<clipPath id="SVGID_2_">
				<use xlink:href="#SVGID_1_"  style="overflow:visible;"/>
			</clipPath>
			<g class="st0">
				<g>
					<path class="st1" d="M85.2,396.2l9.5-202.4l49.4,3.9l22.3,198.5c-10.8-0.1-20.2,0.3-29.1-0.2c-12.8-0.8-24.7-3.3-38.3,0
						C94.7,397.1,90,396.1,85.2,396.2z"/>
					<path class="st2" d="M143.6,477l-12.5-2.1c0,0-1.3-61.9-2-82.5c-0.8-25.6-5.8-104.3-5.8-104.3l25.9-9.3c0,0-2.7,75.2-2.9,98.9
						C146.1,402.3,143.6,477,143.6,477z"/>
					<rect x="104.4" y="191.7" class="st3" width="37.8" height="86.3"/>
					<path class="st4" d="M99.7,99.4c0.4,2.3,0,5.4-2.1,5.8c-2.1,0.4-5.2-2.1-5.6-4.4c-0.4-2.3,0.8-4.8,2.9-5.2
						C97.1,95.3,99.3,97.2,99.7,99.4z"/>
					<path class="st4" d="M135.2,97.2c0.5,2.3,1.3,4.7,3.4,4.3c2.1-0.4,3.9-3.9,3.4-6.2c-0.5-2.3-2.6-4.1-4.7-3.6
						C135.2,92.1,134.7,94.9,135.2,97.2z"/>
					<path class="st1" d="M195,149.8c1.3,10.6,2.8,25.8,2,27.8l-5.8-8.3l-4.9-14.4L195,149.8z"/>
					<path class="st1" d="M45,107.6c-1.5,10.5-4.7,38.9-3.2,41.3c4.9-6.2,10.6-13,13.3-27.2L45,107.6z"/>
					<path class="st5" d="M121.1,175.5c0,0,15.4-33.5,14-33.8c-2.3-0.4-9.7-5.5-16.2-4.9c-6.6,0.6-14.6,6.9-14.6,6.9L121.1,175.5z"
						/>
					<path class="st6" d="M110,121.5c0,0,0.4,14.2,0.8,18.9c2.8,3.6,6.3,6.3,9,6.1c4.7-0.3,8.5-6.1,8.5-6.1l-1.2-22.8L110,121.5z"/>
					<path class="st4" d="M139.1,104.9c0.3,10.7,0,9.4,0.1,13.2c-1.9,6.3-9,16.2-14.1,16.5c-7,0.4-15.7-6.4-19.5-8.4
						c-4.1-4.5-3.3-5.1-7.9-21.1c-3.3-11.5-4.1-20.5-1.3-27.8c3.2-8.3,10.9-8.5,18.8-9.5c7-0.8,11.5-3.7,17.1,3.5
						C138.7,79.5,138.9,95.4,139.1,104.9z"/>
					<path class="st7" d="M94.6,96.8c0,0-2.3-9.2-3.9-15c-0.8-2.8,0-4.2,2.1-6.9c2.6-2.7,5.4-5.1,8.4-7.3c4.7-3.4,16.7-6.6,25.8-2.7
						c2.1,0.9,5.7,2.4,7.2,4.3c1.9,2.3,1.9,1.9,2.5,4c1.2,4.1,1.8,19.1,1.8,19.1l-0.8,0.7c0,0-2.7-15.6-5.2-17.4
						c-4-2.8-9.3-2-14.8,0.5c-4.7-0.7-15.1-2.9-21.4,6.5c-1.3,5.5,1.6,14.4,1.6,14.4L94.6,96.8z"/>
					<polygon class="st2" points="100.4,475.8 88.7,476.2 90.2,391.3 92.2,278 115.9,289.4 106.7,392.3 					"/>
					<path class="st8" d="M69.7,399c4.2,6.4,19.6,6.1,30.1,4.4c6-1,16.2,1.6,19.4,3c1-40.2,3.7-94.1,5.2-133
						c0.6-15.2-0.1-43.1-1-64.4c-0.5-11.4-0.9-27.8-2.1-35.8c-5.6-10.9-11.2-19.7-15.6-31.7c-4.1,1.1-17.2,2.5-25.2,3.8
						c-0.3,0.8,2.3,14.4,2.9,30.2c-1.2,36.1-3.3,73.4-6,110C74.5,326.5,71.1,370.4,69.7,399L69.7,399z M134,405.8
						c-2.7-27.8-3.8-62.3-9.3-125.7c-1.9-21.7-0.8-72.3-2.8-92.7l-0.6-14.2c4.9-10.1,8.8-21.4,13-32.6c9.7,0.4,18.8,1.6,25.2,2.4
						c-0.1,10.5-3.1,22.5-3.2,35.4c2,26.6,3.5,54.2,5.7,81.7c3.6,46.2,7.6,92.8,11.7,137.4C163.7,408.6,146.8,403.7,134,405.8z"/>
					<path class="st9" d="M116.5,164.9l2.3-10.7l2.8,0l3.4,10.3c-1.9,4.6-2.3,5.2-3.9,9.1C119,169.5,118.7,169.3,116.5,164.9
						L116.5,164.9z M119.8,146.5l-4,3.6l2.4,4.3l4-0.1l1.7-4.6L119.8,146.5z"/>
					<path class="st10" d="M110.9,140.2l9.1,6.1l-8.7,7.9c-2-4.2-3.8-8.4-5.4-12.7l4.9-3.8L110.9,140.2z M128.4,139.8l-8.8,6.6
						l9.6,7.3c1.9-4.8,3.2-7.8,4.9-13.1l-5.9-3.3L128.4,139.8z"/>
					<path class="st1" d="M121.3,171.2c5.1-9.9,9.5-20.1,13.1-30.7l12.7,0.9c-6.3,17.2-13.2,34.3-22.5,50.1l-2.4,4l-2.6-3.9
						c-10.4-15.2-19.2-31.4-26.2-48.5l6.5-1.1l6-0.6C110.5,153.7,114.6,160.3,121.3,171.2z"/>
					<path class="st11" d="M143.8,140.1c-2.5,6.8-3.9,10.4-6.9,17.8c-4.3,10.7-9.3,21.1-15,31.2c-10.4-15.3-18.8-28.1-26.8-47.3
						l8.2-1.2c5.8,15.2,10.3,23.3,18.1,35.5c6.5-11.8,10.7-23.4,15.1-36.6L143.8,140.1z"/>
					<path class="st4" d="M189.5,101.1l-4-20.2l1.3-6.8l-0.7-8.5l-5.6-3.2l-1.6-2.5l-6.4-2.4l-2.2,1.9l0.7,1.4l1.3,1.9l1.7,2.5
						l-0.9,6.7c-0.4,0.4-1.1,0.5-1.5,0.1c0,0,0,0-0.1-0.1c-1-0.9-1.9-2-2.7-3.1c-0.7-0.3-1.5-0.4-2.2-0.1l2.6,8.1l1.4,2.3l4.5,3.8
						l2.9,17L189.5,101.1z"/>
					<path class="st12" d="M177.1,98.2l12.6-0.3c4.7,15.9,8.3,32.2,10.5,48.6c-5.3,5.9-13.5,10.1-24.1,12.9l-3.5-13l8.2-8.4
						L177.1,98.2z"/>
					<path class="st8" d="M179.1,118.7c0,0.9,1,2.6,1.6,5.7c2.9,14.6,12.6,51,16.4,52.8c-3.3,11.1-5.7,2.1-8.9,3.5
						c-3.5,1.5-4.8,1.2-10.6-0.4c-5.6-1.5-14.1-0.8-22.3,1c-0.5-12.6-0.2-25.2,0.9-37.7c7.2-1.3,15.1-4,21-5.9
						C177.9,131.7,178.1,121,179.1,118.7z"/>
					<path class="st4" d="M68.1,27.4l2.5,6.7l-3.1-0.6l0.6,2.5l4.1,8.4c-6.1,10.8-11.6,22-16.6,33.4c0,0,1.8,1.9,7.3,3.4
						c1.8-0.5,3.5-1.2,5.1-2.1l13.4-33.1l0.4-15.7l1.3-4.9l-3.3-2L76,23.9l-2.2,2.6l-0.9-6.7l-2.3-0.5L68.1,27.4z"/>
					<path class="st12" d="M72.8,68.9L61.1,64c-9.2,17.2-11.5,25.1-18.4,43.2c4,6.8,9.9,19.6,16.5,29.5l12.1-11L61.3,105L72.8,68.9z
						"/>
					<path class="st8" d="M64.6,94.2c-1,2.9-1.2,3.3-3.9,10.4c-5.4,13.9-15.2,42.5-19.2,43.3c0.1,0.7,0.3,1.3,0.5,1.9
						c0.6,1.9,2.3,3.2,4.2,3.3c2.5,0,2.7,0.2,5.6,2.8c0.4,0.4,1,0.7,1.6,0.8c3.1,0.7,3.4-0.4,4.8-0.1c5.6,1.4,21.2,20.5,25.9,26.1
						c0.4-6.2,1.9-20.9,4.4-36.4c-4.9-3.8-19.5-27.3-23.6-35.2C65.1,106.7,65.3,97.3,64.6,94.2z"/>
					<path class="st13" d="M101.5,4.6l-0.2-1.2c0.5-0.1,1.1-0.1,1.6-0.2c4.9-0.9,9.9-0.9,14.8,0l-0.2,1.2c-4.8-0.8-9.7-0.8-14.4,0.1
						C102.6,4.5,102.1,4.6,101.5,4.6z"/>
					<path class="st14" d="M101,3.1L101,5c-4.2-0.1-11.8,1.3-14.6,0.8c-3.1-0.6-7.6-1.7-9.4-3.1L101,3.1z"/>
					<path class="st14" d="M104.4,4.8c0.7-1.6-0.1-3.3-2.2-3.1c-1.2,0.2-2,1.3-1.9,2.5c0,0.1,0,0.3,0.1,0.4c0.5,1.1,1.9,1.6,3,1.1
						C103.8,5.5,104.1,5.2,104.4,4.8z"/>
					<path class="st14" d="M101.5,2.7l-0.7,1.6C96,3.7,91.2,3.7,86.5,4.4c-3.2-0.5-6.4-1.1-9.6-1.6l0.7-0.9l9.7-1.4L101.5,2.7z"/>
					<path class="st14" d="M103.9,4.6c0.5-0.7,0.5-1.6,0.1-2.3c-0.5-0.7-1.4-0.9-2.2-0.6c-1,0.4-1.5,1.5-1.1,2.5c0,0,0,0,0,0
						c0.5,1,1.7,1.3,2.7,0.8C103.6,4.9,103.8,4.7,103.9,4.6z"/>
					<polygon class="st15" points="114.7,-0.1 113.8,1.5 139.4,31.2 184.4,45 185.3,43.5 156,3.8 					"/>
					<polygon class="st1" points="113.8,1.5 138.1,30.8 184.4,45 155.1,5.4 					"/>
					<path class="st15" d="M129.9,12.9l-8.4,7.7c6.3,1.2,12.4,3.2,18,6.1c9.3,4.9,14.5,10.2,19.2,15.3l2.7-9
						C158.5,20.7,142.5,12.2,129.9,12.9z"/>
					<path class="st1" d="M139.8,26.5c-4-2.1-11.5-5.1-16.5-5.8c-1.2-0.2-2.1,0.1-2.3,1.2c-0.4,2.7,5.4,8.2,9.3,10.9
						c2.5,1.7,5,3.3,7.7,4.7c5.1,2.9,10.7,5,16.5,6.2c2,0.3,4.8-0.5,4-1.9C155.6,36.5,145.7,29.6,139.8,26.5z"/>
					<path d="M100.6,475l-1.6,8.4h-4.1c0,0-0.5-1.2-1.2-1.2c-0.6,0-1.4,1.2-2.2,1.2H70.3c0,0-0.4-1.8,0.1-2.4
						c0.8-0.5,1.6-0.9,2.6-1.1c4.3-1.2,16.6-5.1,18.8-9.4C94.4,465.3,100.6,475,100.6,475z"/>
					<path d="M131.3,475l1.6,8.4h4.1c0,0,0.5-1.2,1.2-1.2c0.6,0,1.4,1.2,2.2,1.2h21.2c0,0,0.4-1.8-0.1-2.4c-0.8-0.5-1.6-0.9-2.6-1.1
						c-4.3-1.2-16.6-5.1-18.8-9.4C137.5,465.3,131.3,475,131.3,475z"/>
				</g>
			</g>
		</g>
	</g>
</g>
</svg>
