<?xml version="1.0" encoding="utf-8"?>
<!-- Generator: Adobe Illustrator 23.0.2, SVG Export Plug-In . SVG Version: 6.00 Build 0)  -->
<svg version="1.1" id="Layer_1" xmlns="http://www.w3.org/2000/svg" xmlns:xlink="http://www.w3.org/1999/xlink" x="0px" y="0px"
	 viewBox="0 0 1138.11 1200" style="enable-background:new 0 0 1138.11 1200;" xml:space="preserve">
<style type="text/css">
	.st0{fill-rule:evenodd;clip-rule:evenodd;fill:#354053;}
	.st1{fill:#354053;}
	.st2{fill-rule:evenodd;clip-rule:evenodd;fill:#3B70B7;}
	.st3{fill:#3B70B7;}
	.st4{fill-rule:evenodd;clip-rule:evenodd;fill:#D2DCEA;}
	.st5{fill-rule:evenodd;clip-rule:evenodd;fill:#3D2324;}
	.st6{fill-rule:evenodd;clip-rule:evenodd;fill:#D71F29;}
	.st7{fill:#D71F29;}
	.st8{fill-rule:evenodd;clip-rule:evenodd;fill:#8B8B8B;}
	.st9{fill:#8B8B8B;}
	.st10{fill-rule:evenodd;clip-rule:evenodd;fill:#270F0F;}
	.st11{fill:none;stroke:#000000;stroke-width:4;stroke-miterlimit:10;}
	.st12{fill:#FFFFFF;stroke:#000000;stroke-width:4;stroke-miterlimit:10;}
</style>
<path d="M922.41,377.84c-89.4,0-161.87,72.47-161.87,161.87c0,89.4,72.47,161.87,161.87,161.87s161.87-72.47,161.87-161.87
	C1084.29,450.31,1011.81,377.84,922.41,377.84z M1021.93,639.23c-25.47,25.47-60.65,41.22-99.52,41.22
	c-38.86,0-74.05-15.75-99.52-41.22c-25.47-25.47-41.22-60.65-41.22-99.52c0-38.86,15.75-74.05,41.22-99.52
	c25.47-25.47,60.66-41.22,99.52-41.22c38.86,0,74.05,15.75,99.52,41.22c25.47,25.47,41.22,60.66,41.22,99.52
	C1063.16,578.58,1047.4,613.76,1021.93,639.23z"/>
<path d="M1033.14,428.98c-28.34-28.34-67.49-45.86-110.73-45.86c-43.24,0-82.39,17.53-110.73,45.86
	c-28.34,28.34-45.86,67.49-45.86,110.73c0,43.24,17.53,82.39,45.86,110.73c28.34,28.34,67.48,45.86,110.73,45.86
	c43.24,0,82.39-17.53,110.73-45.86c28.34-28.34,45.86-67.49,45.86-110.73C1079.01,496.47,1061.48,457.32,1033.14,428.98
	 M922.41,372.56c46.16,0,87.95,18.71,118.19,48.96c30.25,30.25,48.96,72.04,48.96,118.19c0,46.16-18.71,87.95-48.96,118.19
	c-30.25,30.25-72.04,48.96-118.19,48.96c-46.16,0-87.94-18.71-118.19-48.96c-30.25-30.25-48.96-72.04-48.96-118.19
	c0-46.16,18.71-87.94,48.96-118.19C834.47,391.27,876.26,372.56,922.41,372.56z"/>
<path d="M1014.47,447.66c-23.56-23.56-56.1-38.13-92.05-38.13c-35.95,0-68.5,14.57-92.05,38.13c-23.56,23.56-38.13,56.1-38.13,92.05
	c0,35.95,14.57,68.5,38.13,92.05c23.56,23.56,56.1,38.13,92.05,38.13c35.95,0,68.5-14.57,92.05-38.13
	c23.56-23.56,38.13-56.1,38.13-92.05C1052.6,503.76,1038.02,471.22,1014.47,447.66 M922.41,398.97c38.86,0,74.05,15.75,99.52,41.22
	c25.47,25.47,41.22,60.66,41.22,99.52c0,38.86-15.75,74.05-41.22,99.52c-25.47,25.47-60.65,41.22-99.52,41.22
	c-38.86,0-74.05-15.75-99.52-41.22c-25.47-25.47-41.22-60.65-41.22-99.52c0-38.86,15.75-74.05,41.22-99.52
	C848.37,414.72,883.55,398.97,922.41,398.97z"/>
<g>
	<path d="M400.39,376.46c-89.4,0-161.87,72.47-161.87,161.87c0,89.4,72.47,161.87,161.87,161.87c89.4,0,161.87-72.47,161.87-161.87
		C562.26,448.94,489.79,376.46,400.39,376.46z M499.91,637.85c-25.47,25.47-60.65,41.22-99.52,41.22
		c-38.86,0-74.05-15.75-99.52-41.22c-25.47-25.47-41.22-60.65-41.22-99.52c0-38.86,15.75-74.05,41.22-99.52
		c25.47-25.47,60.65-41.22,99.52-41.22c38.87,0,74.05,15.75,99.52,41.22c25.47,25.47,41.22,60.66,41.22,99.52
		C541.13,577.2,525.38,612.38,499.91,637.85z"/>
	<path d="M499.91,438.82c-25.47-25.47-60.65-41.22-99.52-41.22c-38.86,0-74.05,15.75-99.52,41.22
		c-25.47,25.47-41.22,60.66-41.22,99.52c0,38.86,15.75,74.05,41.22,99.52c25.47,25.47,60.65,41.22,99.52,41.22
		c38.87,0,74.05-15.75,99.52-41.22c25.47-25.47,41.22-60.65,41.22-99.52C541.13,499.47,525.38,464.29,499.91,438.82z M492.45,630.39
		c-23.56,23.56-56.1,38.13-92.05,38.13c-35.95,0-68.49-14.57-92.05-38.13c-23.56-23.56-38.13-56.1-38.13-92.05
		c0-35.95,14.57-68.5,38.13-92.05c23.56-23.56,56.1-38.13,92.05-38.13c35.95,0,68.5,14.57,92.05,38.13
		c23.56,23.56,38.13,56.1,38.13,92.05C530.58,574.28,516,606.83,492.45,630.39z"/>
</g>
<path d="M511.12,427.61c-28.34-28.34-67.49-45.86-110.73-45.86c-43.24,0-82.39,17.53-110.73,45.86
	c-28.34,28.34-45.86,67.49-45.86,110.73c0,43.24,17.53,82.39,45.86,110.73c28.34,28.34,67.49,45.86,110.73,45.86
	c43.24,0,82.39-17.53,110.73-45.86c28.34-28.34,45.86-67.49,45.86-110.73C556.98,495.09,539.46,455.94,511.12,427.61 M400.39,371.18
	c46.16,0,87.95,18.71,118.19,48.96c30.25,30.25,48.96,72.04,48.96,118.19c0,46.16-18.71,87.95-48.96,118.19
	c-30.25,30.25-72.04,48.96-118.19,48.96c-46.16,0-87.95-18.71-118.19-48.96c-30.25-30.25-48.96-72.04-48.96-118.19
	c0-46.16,18.71-87.94,48.96-118.19C312.45,389.89,354.24,371.18,400.39,371.18z"/>
<path d="M492.45,446.28c-23.56-23.56-56.1-38.13-92.05-38.13c-35.95,0-68.49,14.57-92.05,38.13c-23.56,23.56-38.13,56.1-38.13,92.05
	c0,35.95,14.57,68.5,38.13,92.05c23.56,23.56,56.1,38.13,92.05,38.13c35.95,0,68.5-14.57,92.05-38.13
	c23.56-23.56,38.13-56.1,38.13-92.05C530.58,502.39,516,469.84,492.45,446.28 M400.39,397.59c38.86,0,74.05,15.75,99.52,41.22
	c25.47,25.47,41.22,60.66,41.22,99.52c0,38.86-15.75,74.05-41.22,99.52c-25.47,25.47-60.65,41.22-99.52,41.22
	c-38.86,0-74.05-15.75-99.52-41.22c-25.47-25.47-41.22-60.65-41.22-99.52c0-38.86,15.75-74.05,41.22-99.52
	C326.34,413.35,361.53,397.59,400.39,397.59z"/>
<rect x="503.41" y="232.95" transform="matrix(0.9435 -0.3313 0.3313 0.9435 -61.8693 184.6298)" class="st0" width="14.55" height="81.72"/>
<path class="st1" d="M501.44,238.22l-5.79,2.03l24.28,69.16l5.79-2.03L501.44,238.22z M488.9,233.69l13.73-4.82
	c2.2-0.77,4.6,0.39,5.36,2.59l27.07,77.11c0.77,2.2-0.39,4.6-2.59,5.36l-13.73,4.82c-2.2,0.77-4.6-0.39-5.36-2.59l-27.07-77.11
	C485.55,236.86,486.71,234.46,488.9,233.69z"/>
<path class="st1" d="M463.12,216.51 M468.18,207.09c9.48,1.35,18.97,2.69,28.45,4.03l12.23,1.73c10.18,1.44,20.36,2.89,30.54,4.33
	l10.16,1.44c2.45,0.35,4.8,0.98,6.96,1.82c2.3,0.89,4.41,2.03,6.19,3.31c1.88,1.35,3.44,2.91,4.55,4.6
	c1.26,1.92,1.96,3.98,1.96,6.11v3.75c0,2.16-0.69,4.16-1.91,5.97c-1.12,1.65-2.68,3.09-4.54,4.26c-1.73,1.09-3.75,1.99-5.96,2.59
	c-2.03,0.55-4.25,0.86-6.56,0.86h-37.22h-37.21c-2.53,0-5.07-0.53-7.51-1.51c-2.41-0.96-4.7-2.37-6.75-4.12
	c-2.03-1.74-3.85-3.83-5.31-6.15c-1.42-2.25-2.53-4.74-3.2-7.35l-1.67-6.5c-0.71-2.77-0.84-5.39-0.46-7.76
	c0.43-2.66,1.51-5.01,3.14-6.9c1.65-1.91,3.84-3.29,6.41-4.05C462.78,206.87,465.39,206.69,468.18,207.09z"/>
<polygon class="st2" points="582.43,591.85 601.71,570.22 519.6,330.16 392.55,544.68 379.16,536.75 512.97,310.8 504.99,287.45 
	526.78,280 532.36,296.29 816.21,296.29 816.21,319.33 540.24,319.33 619.31,550.48 817.87,327.76 835.07,343.09 627.87,575.5 
	641.3,614.76 619.5,622.22 610.27,595.24 599.63,607.18 "/>
<path class="st3" d="M526.78,280l5.57,16.29h283.85v23.04H540.24l79.07,231.15l198.56-222.72l17.2,15.33L627.87,575.5l13.43,39.26
	l-21.8,7.46l-9.23-26.97l-10.64,11.94l-17.2-15.33l19.28-21.63L519.6,330.16L392.55,544.68l-13.39-7.93L512.97,310.8l-7.99-23.35
	L526.78,280 M526.79,271.38c-0.92,0-1.86,0.15-2.79,0.47l-21.8,7.46c-4.5,1.54-6.9,6.44-5.36,10.94l6.7,19.59L371.75,532.36
	c-1.16,1.97-1.5,4.31-0.93,6.53c0.57,2.21,1.99,4.11,3.95,5.27l13.39,7.93c1.38,0.82,2.89,1.2,4.38,1.2c2.94,0,5.81-1.51,7.42-4.22
	l117.53-198.45l74.44,217.63L576,586.12c-1.52,1.7-2.3,3.94-2.17,6.22c0.13,2.28,1.16,4.42,2.87,5.94l17.2,15.33
	c1.64,1.46,3.69,2.18,5.73,2.18c2.37,0,4.73-0.97,6.43-2.88l0.84-0.94l4.46,13.03c0.74,2.16,2.31,3.94,4.36,4.95
	c1.19,0.58,2.49,0.88,3.79,0.88c0.94,0,1.88-0.15,2.79-0.46l21.8-7.46c4.5-1.54,6.9-6.44,5.36-10.94l-11.8-34.49L841.5,348.82
	c1.52-1.7,2.3-3.94,2.17-6.22c-0.13-2.28-1.16-4.42-2.87-5.94l-16.41-14.63c0.28-0.85,0.43-1.76,0.43-2.7v-23.04
	c0-4.76-3.86-8.61-8.61-8.61h-277.7l-3.58-10.47C533.71,273.63,530.37,271.38,526.79,271.38L526.79,271.38z M552.29,327.94h253.88
	L622.69,533.75L552.29,327.94L552.29,327.94z"/>
<rect x="815.38" y="246.03" transform="matrix(0.9485 -0.3166 0.3166 0.9485 -38.2485 278.0918)" class="st2" width="42.27" height="21.41"/>
<path class="st3" d="M850.51,245.21l-32.11,10.72l4.11,12.32l32.11-10.72L850.51,245.21z M811.74,249.27l40.09-13.38
	c2.21-0.74,4.59,0.45,5.33,2.66l6.78,20.31c0.74,2.2-0.45,4.59-2.66,5.33l-40.09,13.38c-2.21,0.74-4.59-0.45-5.33-2.66l-6.78-20.31
	C808.35,252.4,809.54,250.01,811.74,249.27z"/>
<rect x="817.37" y="250.69" transform="matrix(0.9436 -0.3312 0.3312 0.9436 -58.3635 292.6002)" class="st2" width="23.81" height="133.68"/>
<path class="st0" d="M883.87,261.84c-23.74,0.31-35.67-0.14-35.67-0.14s-0.32-7.06-0.96-21.16c25.65-0.21,38.48-0.32,38.48-0.32
	c18.67-0.79,35.72,10.55,42.22,28.06c6.5,17.52,0.97,37.23-13.69,48.81c-14.66,11.58-35.12,12.39-50.65,2.01
	c-3.69-2.64-6.74-4.88-7.22-9.03c-0.48-4.14,1.45-8.19,4.96-10.43c3.51-2.24,8-2.28,11.55-0.1c7.79,5.71,18.41,5.59,26.07-0.29
	c7.66-5.88,10.51-16.11,7-25.11C902.45,265.15,895.66,261.8,883.87,261.84"/>
<path class="st1" d="M853.24,256.57c5.51,0.1,15.71,0.21,30.57,0.01v0l0.06,0c6.79-0.02,12.25,0.99,16.66,3.38
	c4.75,2.57,8.1,6.54,10.33,12.26c2.18,5.58,2.38,11.55,0.85,17.04c-1.53,5.5-4.8,10.51-9.56,14.17c-4.74,3.64-10.42,5.5-16.14,5.56
	c-5.61,0.06-11.25-1.62-16.03-5.06c-0.89-0.51-1.87-0.76-2.84-0.75c-1.03,0.01-2.07,0.3-2.98,0.88c-0.9,0.57-1.59,1.38-2.04,2.32
	c-0.45,0.94-0.63,2-0.51,3.08c0.09,0.81,0.49,1.49,1.07,2.12c0.9,0.99,2.37,2.05,3.98,3.21l-0.01,0.01
	c6.78,4.49,14.63,6.56,22.38,6.25c7.81-0.31,15.51-3.03,21.95-8.11c6.43-5.07,10.85-11.95,12.97-19.48
	c2.1-7.51,1.89-15.68-0.97-23.37c-2.86-7.7-8.02-14.03-14.5-18.34c-6.51-4.33-14.36-6.65-22.56-6.3v0l-0.17,0l-33.02,0.28
	L853.24,256.57z M883.94,267.1c-23.92,0.31-35.88-0.13-35.92-0.14c-2.77-0.1-4.96-2.31-5.07-5.03h0l-0.96-21.16
	c-0.13-2.9,2.13-5.36,5.03-5.49c0.14-0.01,0.28-0.01,0.41,0l38.09-0.32v0c10.47-0.44,20.48,2.51,28.79,8.03
	c8.33,5.54,14.94,13.63,18.59,23.45c3.64,9.82,3.91,20.27,1.21,29.89c-2.69,9.6-8.36,18.38-16.6,24.88
	c-8.23,6.5-18.08,9.98-28.05,10.38c-9.97,0.4-20.07-2.29-28.79-8.11l-0.14-0.09l-0.01,0.01c-2.07-1.48-3.97-2.86-5.63-4.69
	c-1.99-2.18-3.36-4.7-3.75-8.02c-0.35-3.06,0.18-6.09,1.46-8.78c1.28-2.68,3.3-5.02,5.92-6.69c2.6-1.66,5.57-2.51,8.55-2.53
	c2.98-0.03,5.96,0.76,8.58,2.37c0.13,0.08,0.25,0.16,0.37,0.25l0,0c2.96,2.17,6.45,3.23,9.92,3.19c3.45-0.04,6.91-1.18,9.83-3.42
	c2.89-2.22,4.88-5.27,5.81-8.6c0.93-3.35,0.81-6.99-0.52-10.4c-1.28-3.27-3.08-5.48-5.55-6.82
	C892.71,267.73,888.9,267.09,883.94,267.1z"/>
<polygon class="st2" points="840.69,372.51 855.06,367.03 930.2,550.54 915.83,556.02 "/>
<path class="st3" d="M852.72,372.43l-6.5,2.48l71.94,175.7l6.5-2.48L852.72,372.43z M839.19,368.56l14.37-5.48
	c2.18-0.83,4.62,0.26,5.44,2.44l0.06,0.17l75.03,183.25c0.88,2.15-0.14,4.61-2.29,5.5l-0.1,0.04l0,0.01l-14.37,5.48
	c-2.18,0.83-4.62-0.26-5.44-2.44l-0.06-0.17L836.8,374.11c-0.88-2.15,0.14-4.61,2.29-5.49L839.19,368.56L839.19,368.56z"/>
<path class="st4" d="M922.41,514.55c13.9,0,25.16,11.27,25.16,25.16c0,13.9-11.27,25.16-25.16,25.16
	c-13.9,0-25.16-11.27-25.16-25.16C897.25,525.81,908.52,514.55,922.41,514.55"/>
<path class="st3" d="M937.22,524.9c-3.79-3.79-9.02-6.13-14.81-6.13c-5.78,0-11.02,2.34-14.81,6.13c-3.79,3.79-6.13,9.03-6.13,14.81
	c0,5.78,2.34,11.02,6.13,14.81c3.79,3.79,9.02,6.13,14.81,6.13c5.78,0,11.02-2.34,14.81-6.13c3.79-3.79,6.13-9.02,6.13-14.81
	C943.36,533.93,941.01,528.69,937.22,524.9 M922.41,510.32c8.11,0,15.46,3.29,20.78,8.61c5.32,5.32,8.61,12.67,8.61,20.78
	c0,8.11-3.29,15.46-8.61,20.78c-5.32,5.32-12.67,8.61-20.78,8.61c-8.11,0-15.46-3.29-20.78-8.61c-5.32-5.32-8.61-12.67-8.61-20.78
	c0-8.11,3.29-15.46,8.61-20.78C906.95,513.61,914.3,510.32,922.41,510.32z"/>
<path class="st5" d="M922.41,528.6c6.14,0,11.12,4.98,11.12,11.11c0,6.14-4.98,11.12-11.12,11.12c-6.14,0-11.11-4.98-11.11-11.12
	C911.3,533.57,916.28,528.6,922.41,528.6"/>
<path class="st3" d="M815.15,257.23l-12.53,4.4l40.79,116.2l12.53-4.4L815.15,257.23z M794.17,253.44l22.47-7.89
	c2.74-0.96,5.75,0.49,6.7,3.24l44.28,126.13c0.96,2.75-0.49,5.75-3.24,6.7l-22.46,7.89c-2.74,0.96-5.75-0.49-6.7-3.24l-44.28-126.13
	C789.98,257.4,791.43,254.4,794.17,253.44z"/>
<path class="st6" d="M802.16,227.33c8.12,0,14.71,6.58,14.71,14.71c0,8.12-6.58,14.71-14.71,14.71c-8.12,0-14.71-6.58-14.71-14.71
	C787.46,233.92,794.04,227.33,802.16,227.33"/>
<path class="st7" d="M809.58,234.63c-1.9-1.9-4.52-3.07-7.41-3.07c-2.9,0-5.52,1.17-7.41,3.07c-1.9,1.9-3.07,4.52-3.07,7.41
	c0,2.9,1.17,5.52,3.07,7.41c1.9,1.9,4.52,3.07,7.41,3.07c2.9,0,5.52-1.17,7.41-3.07c1.9-1.9,3.07-4.52,3.07-7.41
	C812.65,239.15,811.47,236.52,809.58,234.63 M802.16,223.11c5.23,0,9.96,2.12,13.39,5.54c3.43,3.43,5.54,8.16,5.54,13.39
	s-2.12,9.96-5.54,13.39c-3.43,3.43-8.16,5.55-13.39,5.55c-5.23,0-9.96-2.12-13.39-5.55c-3.43-3.43-5.55-8.16-5.55-13.39
	s2.12-9.96,5.55-13.39C792.2,225.23,796.94,223.11,802.16,223.11z"/>
<rect x="785.19" y="244.44" transform="matrix(0.9485 -0.3166 0.3166 0.9485 -39.2998 268.4329)" class="st8" width="42.27" height="21.41"/>
<path class="st9" d="M820.32,243.62l-32.11,10.72l4.11,12.32l32.11-10.72L820.32,243.62z M781.55,247.69l40.09-13.38
	c2.21-0.74,4.59,0.45,5.33,2.66l6.78,20.31c0.74,2.21-0.45,4.59-2.66,5.33l-40.09,13.38c-2.2,0.74-4.59-0.45-5.33-2.66l-6.78-20.31
	C778.16,250.81,779.35,248.43,781.55,247.69z"/>
<rect x="826.43" y="358.95" transform="matrix(0.934 -0.3573 0.3573 0.934 -76.129 327.2078)" class="st2" width="42.27" height="21.41"/>
<path class="st3" d="M861.05,357.55l-31.61,12.09l4.64,12.13l31.61-12.09L861.05,357.55z M822.49,363.28l39.48-15.1
	c2.17-0.83,4.61,0.25,5.44,2.42l7.65,20c0.83,2.17-0.25,4.61-2.42,5.44l-39.48,15.1c-2.17,0.83-4.61-0.25-5.44-2.42l-7.65-20
	C819.24,366.55,820.32,364.11,822.49,363.28z"/>
<path class="st4" d="M620.28,534.45c25.24,0,45.7,20.46,45.7,45.7c0,25.24-20.46,45.7-45.7,45.7c-25.24,0-45.7-20.46-45.7-45.7
	C574.57,554.91,595.04,534.45,620.28,534.45"/>
<path class="st9" d="M405.84,519.41c-2.31-0.2-4.03-2.24-3.83-4.55c0.2-2.31,2.24-4.03,4.55-3.83l214.07,19.23
	c2.31,0.2,4.03,2.24,3.83,4.55c-0.2,2.31-2.24,4.03-4.55,3.83L405.84,519.41z"/>
<path class="st9" d="M399.24,568.93c-2.24-0.64-3.54-2.97-2.9-5.21c0.64-2.24,2.97-3.54,5.21-2.9l204.71,58.4
	c2.24,0.64,3.54,2.97,2.9,5.21c-0.64,2.24-2.97,3.54-5.21,2.9L399.24,568.93z"/>
<path class="st9" d="M648.11,552.32c-7.12-7.12-16.97-11.53-27.84-11.53c-10.87,0-20.71,4.41-27.84,11.53
	c-7.12,7.12-11.53,16.97-11.53,27.84c0,10.87,4.41,20.71,11.53,27.84c7.12,7.12,16.97,11.53,27.84,11.53
	c10.87,0,20.71-4.41,27.84-11.53c7.12-7.12,11.53-16.97,11.53-27.84C659.64,569.28,655.24,559.44,648.11,552.32 M620.28,528.11
	c14.37,0,27.38,5.83,36.8,15.24c9.42,9.42,15.24,22.43,15.24,36.8c0,14.37-5.83,27.38-15.24,36.8c-9.42,9.42-22.43,15.24-36.8,15.24
	c-14.37,0-27.38-5.82-36.8-15.24c-9.42-9.42-15.24-22.43-15.24-36.8c0-14.37,5.83-27.38,15.24-36.8
	C592.9,533.94,605.91,528.11,620.28,528.11z"/>
<rect x="613.83" y="504.7" transform="matrix(0.9905 -0.1375 0.1375 0.9905 -69.299 90.4014)" class="st10" width="11.92" height="84.35"/>
<rect x="607.03" y="471.99" transform="matrix(0.137 -0.9906 0.9906 0.137 36.0443 1040.8844)" class="st10" width="16.74" height="55.53"/>
<path class="st10" d="M620.28,566.31c7.65,0,13.85,6.2,13.85,13.85c0,7.65-6.2,13.85-13.85,13.85c-7.65,0-13.85-6.2-13.85-13.85
	C606.43,572.51,612.63,566.31,620.28,566.31"/>
<path class="st4" d="M400.39,514.55c13.9,0,25.16,11.27,25.16,25.16c0,13.9-11.27,25.16-25.16,25.16
	c-13.9,0-25.16-11.27-25.16-25.16C375.23,525.81,386.5,514.55,400.39,514.55"/>
<path class="st9" d="M415.2,524.9c-3.79-3.79-9.02-6.13-14.81-6.13c-5.78,0-11.02,2.34-14.81,6.13c-3.79,3.79-6.13,9.03-6.13,14.81
	c0,5.78,2.34,11.02,6.13,14.81c3.79,3.79,9.02,6.13,14.81,6.13c5.78,0,11.02-2.34,14.81-6.13c3.79-3.79,6.13-9.02,6.13-14.81
	C421.33,533.93,418.99,528.69,415.2,524.9 M400.39,510.32c8.11,0,15.46,3.29,20.78,8.61c5.32,5.32,8.61,12.67,8.61,20.78
	c0,8.11-3.29,15.46-8.61,20.78c-5.32,5.32-12.67,8.61-20.78,8.61c-8.11,0-15.46-3.29-20.78-8.61c-5.32-5.32-8.61-12.67-8.61-20.78
	c0-8.11,3.29-15.46,8.61-20.78C384.93,513.61,392.28,510.32,400.39,510.32z"/>
<path class="st5" d="M400.39,528.6c6.14,0,11.12,4.98,11.12,11.11c0,6.14-4.98,11.12-11.12,11.12c-6.14,0-11.11-4.98-11.11-11.12
	C389.28,533.57,394.25,528.6,400.39,528.6"/>
<g>
	<line class="st11" x1="223.76" y1="605.4" x2="135.55" y2="592.34"/>
	<line class="st11" x1="222.15" y1="622.42" x2="133.94" y2="631.67"/>
	<path class="st11" d="M178.86,598.87"/>
	<path class="st11" d="M175.33,622.42"/>
	<path class="st11" d="M75.59,592.34c0-21.45,17.39-38.84,38.84-38.84s38.84,17.39,38.84,38.84"/>
	<path class="st11" d="M70.75,631.67c0,21.45,17.39,38.84,38.84,38.84s38.84-17.39,38.84-38.84"/>
	<path class="st12" d="M83.11,645.34c-20.4-1.49-35.84-17.74-34.48-36.29c1.36-18.55,19-32.37,39.4-30.88"/>
</g>
</svg>
