<?xml version="1.0" encoding="utf-8"?>
<!-- Generator: Adobe Illustrator 23.0.1, SVG Export Plug-In . SVG Version: 6.00 Build 0)  -->
<svg version="1.1" id="Layer_1" xmlns="http://www.w3.org/2000/svg" xmlns:xlink="http://www.w3.org/1999/xlink" x="0px" y="0px"
	 viewBox="0 0 500 400" style="enable-background:new 0 0 500 400;" xml:space="preserve">
<style type="text/css">
	.st0{fill:#FFFFFF;}
	.st1{fill-rule:evenodd;clip-rule:evenodd;fill:#354053;}
	.st2{fill:#354053;}
	.st3{fill-rule:evenodd;clip-rule:evenodd;fill:#3B70B7;}
	.st4{fill:#3B70B7;}
	.st5{fill-rule:evenodd;clip-rule:evenodd;fill:#D2DCEA;}
	.st6{fill-rule:evenodd;clip-rule:evenodd;fill:#3D2324;}
	.st7{fill-rule:evenodd;clip-rule:evenodd;fill:#D71F29;}
	.st8{fill:#D71F29;}
	.st9{fill-rule:evenodd;clip-rule:evenodd;fill:#8B8B8B;}
	.st10{fill:#8B8B8B;}
	.st11{fill-rule:evenodd;clip-rule:evenodd;fill:#270F0F;}
	.st12{fill:none;stroke:#F3F3F3;stroke-width:7;stroke-miterlimit:10;}
	.st13{fill:#FFFFFF;stroke:#F3F3F3;stroke-width:7;stroke-miterlimit:10;}
</style>
<path d="M410.5,244.7c-38.8,0-70.3,31.5-70.3,70.3s31.5,70.3,70.3,70.3s70.3-31.5,70.3-70.3S449.3,244.7,410.5,244.7z M453.7,358.2
	c-11.1,11.1-26.3,17.9-43.2,17.9c-16.9,0-32.1-6.8-43.2-17.9s-17.9-26.3-17.9-43.2c0-16.9,6.8-32.1,17.9-43.2s26.3-17.9,43.2-17.9
	s32.1,6.8,43.2,17.9s17.9,26.3,17.9,43.2C471.6,331.9,464.8,347.2,453.7,358.2z"/>
<path class="st0" d="M458.6,266.9c-12.3-12.3-29.3-19.9-48.1-19.9s-35.8,7.6-48.1,19.9c-12.3,12.3-19.9,29.3-19.9,48.1
	c0,18.8,7.6,35.8,19.9,48.1c12.3,12.3,29.3,19.9,48.1,19.9c18.8,0,35.8-7.6,48.1-19.9c12.3-12.3,19.9-29.3,19.9-48.1
	C478.5,296.2,470.9,279.2,458.6,266.9 M410.5,242.4c20,0,38.2,8.1,51.3,21.3c13.1,13.1,21.3,31.3,21.3,51.3s-8.1,38.2-21.3,51.3
	c-13.1,13.1-31.3,21.3-51.3,21.3s-38.2-8.1-51.3-21.3S338,335,338,315s8.1-38.2,21.3-51.3C372.3,250.6,390.5,242.4,410.5,242.4z"/>
<path d="M450.5,275c-10.2-10.2-24.4-16.6-40-16.6s-29.7,6.3-40,16.6c-10.2,10.2-16.6,24.4-16.6,40s6.3,29.7,16.6,40
	c10.2,10.2,24.4,16.6,40,16.6s29.7-6.3,40-16.6c10.2-10.2,16.6-24.4,16.6-40C467,299.4,460.7,285.3,450.5,275 M410.5,253.9
	c16.9,0,32.1,6.8,43.2,17.9s17.9,26.3,17.9,43.2c0,16.9-6.8,32.1-17.9,43.2s-26.3,17.9-43.2,17.9c-16.9,0-32.1-6.8-43.2-17.9
	s-17.9-26.3-17.9-43.2c0-16.9,6.8-32.1,17.9-43.2C378.4,260.8,393.6,253.9,410.5,253.9z"/>
<g>
	<path d="M183.9,244.1c-38.8,0-70.3,31.5-70.3,70.3s31.5,70.3,70.3,70.3s70.3-31.5,70.3-70.3S222.7,244.1,183.9,244.1z M227.1,357.6
		c-11.1,11.1-26.3,17.9-43.2,17.9s-32.1-6.8-43.2-17.9s-17.9-26.3-17.9-43.2c0-16.9,6.8-32.1,17.9-43.2s26.3-17.9,43.2-17.9
		s32.1,6.8,43.2,17.9s17.9,26.3,17.9,43.2C245,331.3,238.2,346.6,227.1,357.6z"/>
	<path d="M227.1,271.2c-11.1-11.1-26.3-17.9-43.2-17.9s-32.1,6.8-43.2,17.9s-17.9,26.3-17.9,43.2c0,16.9,6.8,32.1,17.9,43.2
		s26.3,17.9,43.2,17.9s32.1-6.8,43.2-17.9s17.9-26.3,17.9-43.2S238.2,282.3,227.1,271.2z M223.9,354.4c-10.2,10.2-24.4,16.6-40,16.6
		s-29.7-6.3-40-16.6c-10.2-10.2-16.6-24.4-16.6-40s6.3-29.7,16.6-40c10.2-10.2,24.4-16.6,40-16.6s29.7,6.3,40,16.6
		c10.2,10.2,16.6,24.4,16.6,40C240.4,330,234.1,344.1,223.9,354.4z"/>
</g>
<path class="st0" d="M232,266.3c-12.3-12.3-29.3-19.9-48.1-19.9s-35.8,7.6-48.1,19.9s-19.9,29.3-19.9,48.1s7.6,35.8,19.9,48.1
	c12.3,12.3,29.3,19.9,48.1,19.9s35.8-7.6,48.1-19.9s19.9-29.3,19.9-48.1C251.9,295.6,244.3,278.6,232,266.3 M183.9,241.9
	c20,0,38.2,8.1,51.3,21.3c13.1,13.1,21.3,31.3,21.3,51.3s-8.1,38.2-21.3,51.3c-13.1,13.1-31.3,21.3-51.3,21.3s-38.2-8.1-51.3-21.3
	c-13.1-13.1-21.3-31.3-21.3-51.3s8.1-38.2,21.3-51.3C145.7,250,163.9,241.9,183.9,241.9z"/>
<path d="M223.9,274.4c-10.2-10.2-24.4-16.6-40-16.6s-29.7,6.3-40,16.6c-10.2,10.2-16.6,24.4-16.6,40s6.3,29.7,16.6,40
	c10.2,10.2,24.4,16.6,40,16.6s29.7-6.3,40-16.6c10.2-10.2,16.6-24.4,16.6-40C240.4,298.8,234.1,284.7,223.9,274.4 M183.9,253.3
	c16.9,0,32.1,6.8,43.2,17.9c11.1,11.1,17.9,26.3,17.9,43.2c0,16.9-6.8,32.1-17.9,43.2c-11.1,11.1-26.3,17.9-43.2,17.9
	s-32.1-6.8-43.2-17.9s-17.9-26.3-17.9-43.2c0-16.9,6.8-32.1,17.9-43.2C151.8,260.2,167,253.3,183.9,253.3z"/>
<rect x="228.6" y="181.8" transform="matrix(0.9435 -0.3313 0.3313 0.9435 -53.0274 88.0473)" class="st1" width="6.3" height="35.5"/>
<path class="st2" d="M227.8,184.1l-2.5,0.9l10.5,30l2.5-0.9L227.8,184.1z M222.3,182.2l6-2.1c1-0.3,2,0.2,2.3,1.1l11.8,33.5
	c0.3,1-0.2,2-1.1,2.3l-6,2.1c-1,0.3-2-0.2-2.3-1.1l-11.8-33.5C220.9,183.5,221.4,182.5,222.3,182.2z"/>
<path class="st2" d="M213.3,170.6c4.1,0.6,8.2,1.2,12.3,1.7l5.3,0.8c4.4,0.6,8.8,1.3,13.3,1.9l4.4,0.6c1.1,0.2,2.1,0.4,3,0.8
	c1,0.4,1.9,0.9,2.7,1.4c0.8,0.6,1.5,1.3,2,2c0.5,0.8,0.9,1.7,0.9,2.7v1.6c0,0.9-0.3,1.8-0.8,2.6c-0.5,0.7-1.2,1.3-2,1.8
	s-1.6,0.9-2.6,1.1c-0.9,0.2-1.8,0.4-2.8,0.4h-16.2h-16.2c-1.1,0-2.2-0.2-3.3-0.7c-1-0.4-2-1-2.9-1.8s-1.7-1.7-2.3-2.7
	s-1.1-2.1-1.4-3.2l-0.7-2.8c-0.3-1.2-0.4-2.3-0.2-3.4c0.2-1.2,0.7-2.2,1.4-3s1.7-1.4,2.8-1.8C211,170.5,212.1,170.4,213.3,170.6z"/>
<polygon class="st3" points="262.9,337.6 271.3,328.3 235.7,224 180.5,317.2 174.7,313.7 232.8,215.6 229.3,205.5 238.8,202.3 
	241.2,209.3 364.4,209.3 364.4,219.3 244.6,219.3 278.9,319.7 365.1,223 372.6,229.7 282.7,330.5 288.5,347.6 279,350.8 275,339.1 
	270.4,344.3 "/>
<path class="st4" d="M238.8,202.3l2.4,7.1h123.2v10H244.6l34.3,100.3l86.2-96.7l7.5,6.7l-89.9,100.9l5.8,17l-9.5,3.2l-4-11.7
	l-4.6,5.2l-7.5-6.7l8.4-9.4L235.7,224l-55.2,93.1l-5.8-3.4l58.1-98.1l-3.5-10.1L238.8,202.3 M238.8,198.5c-0.4,0-0.8,0.1-1.2,0.2
	l-9.5,3.2c-2,0.7-3,2.8-2.3,4.7l2.9,8.5l-57.2,96.6c-0.5,0.9-0.7,1.9-0.4,2.8c0.2,1,0.9,1.8,1.7,2.3l5.8,3.4
	c0.6,0.4,1.3,0.5,1.9,0.5c1.3,0,2.5-0.7,3.2-1.8l51-86.1l32.3,94.5l-6.9,7.8c-0.7,0.7-1,1.7-0.9,2.7s0.5,1.9,1.2,2.6l7.5,6.7
	c0.7,0.6,1.6,0.9,2.5,0.9c1,0,2.1-0.4,2.8-1.3l0.4-0.4l1.9,5.7c0.3,0.9,1,1.7,1.9,2.1c0.5,0.3,1.1,0.4,1.6,0.4
	c0.4,0,0.8-0.1,1.2-0.2l9.5-3.2c2-0.7,3-2.8,2.3-4.7l-5.1-15l88.5-99.3c0.7-0.7,1-1.7,0.9-2.7s-0.5-1.9-1.2-2.6l-7.1-6.4
	c0.1-0.4,0.2-0.8,0.2-1.2v-10c0-2.1-1.7-3.7-3.7-3.7H243.9l-1.6-4.5C241.8,199.5,240.3,198.5,238.8,198.5L238.8,198.5z M249.8,223.1
	H360l-79.6,89.3L249.8,223.1L249.8,223.1z"/>
<rect x="364" y="187.5" transform="matrix(0.9486 -0.3166 0.3166 0.9486 -41.6491 128.0219)" class="st3" width="18.3" height="9.3"/>
<path class="st4" d="M379.3,187.2l-13.9,4.7l1.8,5.3l13.9-4.7L379.3,187.2z M362.5,188.9l17.4-5.8c1-0.3,2,0.2,2.3,1.2l2.9,8.8
	c0.3,1-0.2,2-1.2,2.3l-17.4,5.8c-1,0.3-2-0.2-2.3-1.2l-2.9-8.8C361,190.3,361.5,189.3,362.5,188.9z"/>
<rect x="364.9" y="189.6" transform="matrix(0.9436 -0.3312 0.3312 0.9436 -51.5177 134.9021)" class="st3" width="10.3" height="58"/>
<path class="st1" d="M393.8,194.4c-10.3,0.1-15.5-0.1-15.5-0.1s-0.1-3.1-0.4-9.2c11.1-0.1,16.7-0.1,16.7-0.1
	c8.1-0.3,15.5,4.6,18.3,12.2c2.8,7.6,0.4,16.2-5.9,21.2c-6.4,5-15.2,5.4-22,0.9c-1.6-1.1-2.9-2.1-3.1-3.9c-0.2-1.8,0.6-3.6,2.2-4.5
	c1.5-1,3.5-1,5,0c3.4,2.5,8,2.4,11.3-0.1c3.3-2.6,4.6-7,3-10.9C401.8,195.8,398.9,194.4,393.8,194.4"/>
<path class="st2" d="M380.5,192.1c2.4,0,6.8,0.1,13.3,0l0,0l0,0c2.9,0,5.3,0.4,7.2,1.5c2.1,1.1,3.5,2.8,4.5,5.3c0.9,2.4,1,5,0.4,7.4
	c-0.7,2.4-2.1,4.6-4.1,6.2c-2.1,1.6-4.5,2.4-7,2.4c-2.4,0-4.9-0.7-7-2.2c-0.4-0.2-0.8-0.3-1.2-0.3c-0.4,0-0.9,0.1-1.3,0.4
	c-0.4,0.2-0.7,0.6-0.9,1c-0.2,0.4-0.3,0.9-0.2,1.3c0,0.4,0.2,0.6,0.5,0.9c0.4,0.4,1,0.9,1.7,1.4l0,0c2.9,1.9,6.4,2.8,9.7,2.7
	c3.4-0.1,6.7-1.3,9.5-3.5s4.7-5.2,5.6-8.5s0.8-6.8-0.4-10.1c-1.2-3.3-3.5-6.1-6.3-8s-6.2-2.9-9.8-2.7l0,0h-0.1l-14.3,0.1
	L380.5,192.1z M393.8,196.7c-10.4,0.1-15.6-0.1-15.6-0.1c-1.2,0-2.2-1-2.2-2.2l0,0l-0.4-9.2c-0.1-1.3,0.9-2.3,2.2-2.4
	c0.1,0,0.1,0,0.2,0l16.5-0.1l0,0c4.5-0.2,8.9,1.1,12.5,3.5s6.5,5.9,8.1,10.2s1.7,8.8,0.5,13s-3.6,8-7.2,10.8s-7.8,4.3-12.2,4.5
	c-4.3,0.2-8.7-1-12.5-3.5h-0.1l0,0c-0.9-0.6-1.7-1.2-2.4-2c-0.9-0.9-1.5-2-1.6-3.5c-0.2-1.3,0.1-2.6,0.6-3.8
	c0.6-1.2,1.4-2.2,2.6-2.9c1.1-0.7,2.4-1.1,3.7-1.1c1.3,0,2.6,0.3,3.7,1c0.1,0,0.1,0.1,0.2,0.1l0,0c1.3,0.9,2.8,1.4,4.3,1.4
	s3-0.5,4.3-1.5s2.1-2.3,2.5-3.7c0.4-1.5,0.4-3-0.2-4.5c-0.6-1.4-1.3-2.4-2.4-3C397.6,196.9,396,196.7,393.8,196.7z"/>
<polygon class="st3" points="375,242.4 381.3,240 413.9,319.7 407.7,322.1 "/>
<path class="st4" d="M380.3,242.4l-2.8,1.1l31.2,76.3l2.8-1.1L380.3,242.4z M374.4,240.7l6.2-2.4c0.9-0.4,2,0.1,2.4,1.1v0.1
	l32.6,79.5c0.4,0.9-0.1,2-1,2.4l0,0l0,0l-6.2,2.4c-0.9,0.4-2-0.1-2.4-1.1v-0.1l-32.6-79.5C373,242.2,373.4,241.1,374.4,240.7
	L374.4,240.7L374.4,240.7z"/>
<path class="st5" d="M410.5,304.1c6,0,10.9,4.9,10.9,10.9s-4.9,10.9-10.9,10.9s-10.9-4.9-10.9-10.9S404.5,304.1,410.5,304.1"/>
<path class="st4" d="M416.9,308.6c-1.6-1.6-3.9-2.7-6.4-2.7s-4.8,1-6.4,2.7c-1.6,1.6-2.7,3.9-2.7,6.4s1,4.8,2.7,6.4s3.9,2.7,6.4,2.7
	s4.8-1,6.4-2.7s2.7-3.9,2.7-6.4S418.6,310.2,416.9,308.6 M410.5,302.2c3.5,0,6.7,1.4,9,3.7s3.7,5.5,3.7,9s-1.4,6.7-3.7,9
	s-5.5,3.7-9,3.7s-6.7-1.4-9-3.7s-3.7-5.5-3.7-9s1.4-6.7,3.7-9C403.8,303.7,407,302.2,410.5,302.2z"/>
<path class="st6" d="M410.5,310.2c2.7,0,4.8,2.2,4.8,4.8c0,2.7-2.2,4.8-4.8,4.8s-4.8-2.2-4.8-4.8
	C405.7,312.3,407.8,310.2,410.5,310.2"/>
<path class="st4" d="M363.9,192.4l-5.4,1.9l17.7,50.4l5.4-1.9L363.9,192.4z M354.8,190.7l9.8-3.4c1.2-0.4,2.5,0.2,2.9,1.4l19.2,54.8
	c0.4,1.2-0.2,2.5-1.4,2.9l-9.7,3.4c-1.2,0.4-2.5-0.2-2.9-1.4l-19.2-54.8C353,192.5,353.7,191.2,354.8,190.7z"/>
<path class="st7" d="M358.3,179.4c3.5,0,6.4,2.9,6.4,6.4s-2.9,6.4-6.4,6.4s-6.4-2.9-6.4-6.4C351.9,182.3,354.8,179.4,358.3,179.4"/>
<path class="st8" d="M361.5,182.6c-0.8-0.8-2-1.3-3.2-1.3c-1.3,0-2.4,0.5-3.2,1.3c-0.8,0.8-1.3,2-1.3,3.2c0,1.3,0.5,2.4,1.3,3.2
	s2,1.3,3.2,1.3c1.3,0,2.4-0.5,3.2-1.3c0.8-0.8,1.3-2,1.3-3.2C362.9,184.5,362.4,183.4,361.5,182.6 M358.3,177.6
	c2.3,0,4.3,0.9,5.8,2.4s2.4,3.5,2.4,5.8s-0.9,4.3-2.4,5.8s-3.5,2.4-5.8,2.4s-4.3-0.9-5.8-2.4s-2.4-3.5-2.4-5.8s0.9-4.3,2.4-5.8
	S356,177.6,358.3,177.6z"/>
<rect x="350.9" y="186.8" transform="matrix(0.9486 -0.3166 0.3166 0.9486 -42.1009 123.8381)" class="st9" width="18.3" height="9.3"/>
<path class="st10" d="M366.2,186.5l-13.9,4.7l1.8,5.3l13.9-4.7L366.2,186.5z M349.4,188.2l17.4-5.8c1-0.3,2,0.2,2.3,1.2l2.9,8.8
	c0.3,1-0.2,2-1.2,2.3l-17.4,5.8c-1,0.3-2-0.2-2.3-1.2l-2.9-8.8C347.9,189.6,348.4,188.6,349.4,188.2z"/>
<rect x="368.8" y="236.5" transform="matrix(0.934 -0.3573 0.3573 0.934 -61.2243 150.9599)" class="st3" width="18.3" height="9.3"/>
<path class="st4" d="M383.9,235.9l-13.7,5.2l2,5.3l13.7-5.2L383.9,235.9z M367.1,238.4l17.1-6.6c0.9-0.4,2,0.1,2.4,1.1l3.3,8.7
	c0.4,0.9-0.1,2-1.1,2.4l-17.1,6.6c-0.9,0.4-2-0.1-2.4-1.1l-3.3-8.7C365.7,239.8,366.2,238.8,367.1,238.4z"/>
<path class="st5" d="M279.4,312.7c11,0,19.8,8.9,19.8,19.8s-8.9,19.8-19.8,19.8c-11,0-19.8-8.9-19.8-19.8
	C259.5,321.6,268.4,312.7,279.4,312.7"/>
<path class="st10" d="M186.3,306.2c-1-0.1-1.7-1-1.7-2c0.1-1,1-1.7,2-1.7l92.9,8.3c1,0.1,1.7,1,1.7,2c-0.1,1-1,1.7-2,1.7
	L186.3,306.2z"/>
<path class="st10" d="M183.4,327.7c-1-0.3-1.5-1.3-1.3-2.3c0.3-1,1.3-1.5,2.3-1.3l88.9,25.4c1,0.3,1.5,1.3,1.3,2.3
	c-0.3,1-1.3,1.5-2.3,1.3L183.4,327.7z"/>
<path class="st10" d="M291.4,320.5c-3.1-3.1-7.4-5-12.1-5s-9,1.9-12.1,5s-5,7.4-5,12.1s1.9,9,5,12.1s7.4,5,12.1,5s9-1.9,12.1-5
	s5-7.4,5-12.1C296.4,327.8,294.5,323.6,291.4,320.5 M279.4,310c6.2,0,11.9,2.5,16,6.6s6.6,9.7,6.6,16c0,6.2-2.5,11.9-6.6,16
	s-9.7,6.6-16,6.6c-6.2,0-11.9-2.5-16-6.6s-6.6-9.7-6.6-16c0-6.2,2.5-11.9,6.6-16S273.1,310,279.4,310z"/>
<rect x="276.6" y="299.8" transform="matrix(0.9905 -0.1375 0.1375 0.9905 -41.0859 41.4111)" class="st11" width="5.2" height="36.6"/>
<rect x="273.6" y="285.6" transform="matrix(0.137 -0.9906 0.9906 0.137 -55.5664 531.5033)" class="st11" width="7.3" height="24.1"/>
<path class="st11" d="M279.4,326.6c3.3,0,6,2.7,6,6s-2.7,6-6,6s-6-2.7-6-6C273.3,329.2,276,326.6,279.4,326.6"/>
<path class="st5" d="M183.9,304.1c6,0,10.9,4.9,10.9,10.9s-4.9,10.9-10.9,10.9S173,321,173,315S177.9,304.1,183.9,304.1"/>
<path class="st10" d="M190.3,308.6c-1.6-1.6-3.9-2.7-6.4-2.7s-4.8,1-6.4,2.7c-1.6,1.6-2.7,3.9-2.7,6.4s1,4.8,2.7,6.4
	c1.6,1.6,3.9,2.7,6.4,2.7s4.8-1,6.4-2.7c1.6-1.6,2.7-3.9,2.7-6.4S192,310.2,190.3,308.6 M183.9,302.2c3.5,0,6.7,1.4,9,3.7
	s3.7,5.5,3.7,9s-1.4,6.7-3.7,9s-5.5,3.7-9,3.7s-6.7-1.4-9-3.7s-3.7-5.5-3.7-9s1.4-6.7,3.7-9S180.4,302.2,183.9,302.2z"/>
<path class="st6" d="M183.9,310.2c2.7,0,4.8,2.2,4.8,4.8c0,2.7-2.2,4.8-4.8,4.8s-4.8-2.2-4.8-4.8
	C179.1,312.3,181.2,310.2,183.9,310.2"/>
<g>
	<line class="st12" x1="107.2" y1="343.5" x2="68.9" y2="337.9"/>
	<line class="st12" x1="106.5" y1="350.9" x2="68.2" y2="354.9"/>
	<path class="st12" d="M87.7,340.7"/>
	<path class="st12" d="M86.2,350.9"/>
	<path class="st12" d="M42.9,337.9c0-9.3,7.5-16.9,16.9-16.9s16.9,7.5,16.9,16.9"/>
	<path class="st12" d="M40.8,354.9c0,9.3,7.5,16.9,16.9,16.9s16.9-7.5,16.9-16.9"/>
	<path class="st13" d="M46.2,360.9c-8.9-0.6-15.6-7.7-15-15.8c0.6-8.1,8.2-14.1,17.1-13.4"/>
</g>
</svg>
