<?xml version="1.0" encoding="utf-8"?>
<!-- Generator: Adobe Illustrator 23.0.2, SVG Export Plug-In . SVG Version: 6.00 Build 0)  -->
<svg version="1.1" id="Layer_1" xmlns="http://www.w3.org/2000/svg" xmlns:xlink="http://www.w3.org/1999/xlink" x="0px" y="0px"
	 viewBox="0 0 1188.34 1200" style="enable-background:new 0 0 1188.34 1200;" xml:space="preserve">
<style type="text/css">
	.st0{fill:#9498A1;}
	.st1{fill:#5E636D;}
	.st2{fill:#C9CBCF;}
	.st3{fill:#29783C;}
	.st4{fill:#765045;}
</style>
<g>
	<g>
		<path class="st0" d="M1142.84,255.88c1.17-2.5,0.13-5.09-2.28-5.8c-2.45-0.72-5.33,0.72-6.47,3.23c-0.79,1.68-0.58,3.39,0.38,4.56
			c0.48,0.57,1.13,1,1.92,1.23C1138.79,259.82,1141.7,258.38,1142.84,255.88z"/>
	</g>
	<path class="st1" d="M1142.84,255.88c0.27-0.55,0.4-1.12,0.45-1.68c-0.06,0.25-0.14,0.48-0.25,0.71c-1.16,2.53-4.04,3.98-6.49,3.26
		c-1.87-0.55-2.92-2.23-2.75-4.12c-0.66,2.25,0.4,4.42,2.58,5.06C1138.79,259.82,1141.7,258.38,1142.84,255.88L1142.84,255.88z"/>
	<path class="st2" d="M1137.29,251.21c-1.05,0.87-1.24,2.4-0.41,3.4c0.83,1.03,2.36,1.12,3.4,0.29c1.08-0.87,1.26-2.39,0.43-3.44
		C1139.89,250.47,1138.35,250.34,1137.29,251.21z"/>
</g>
<g>
	<g>
		<path class="st3" d="M602.14,423.01l-8.24,0.56c0.16-0.44,16.31-44.77,11.62-96.61c-3.79-41.67-26.69-73.04-89.09-108.74
			c-9.12-5.22-26.37-25.2-25.68-37.09c0.11-1.85,7.19-1.88,7.19-1.88c50.83,19.87,90.93,48.9,107.47,79.91
			c12.06,22.61,6.56,46.7,8.39,66.96C618.53,378.1,602.3,422.56,602.14,423.01z"/>
		<path class="st3" d="M604.85,313.18c-2.48-17.92-8.82-40.12-4.2-61.91c7.71-36.32,35.25-74.01,83.91-107.32
			c0,0,6.9-1.57,7.42,0.21c4.03,13.71-2.02,34.51-10.78,43.16c-48.53,47.87-73.66,84.58-68.1,124.82
			c7.13,51.56,32.88,91.1,33.13,91.49l-8.16,1.31C637.82,404.55,611.97,364.89,604.85,313.18z"/>
	</g>
	<g>
		<path class="st3" d="M779,451.53l-7.26,0.5c0.14-0.38,14.36-39.41,10.23-85.05c-3.33-36.68-23.5-64.3-78.43-95.73
			c-8.02-4.59-23.22-22.19-22.61-32.65c0.1-1.63,6.33-1.66,6.33-1.66c44.75,17.49,80.04,43.04,94.61,70.34
			c10.62,19.9,5.78,41.11,7.39,58.94C793.42,412,779.14,451.14,779,451.53z"/>
		<path class="st3" d="M781.38,354.85c-2.18-15.77-7.77-35.32-3.7-54.5c6.79-31.97,31.03-65.15,73.87-94.48c0,0,6.08-1.38,6.54,0.19
			c3.55,12.07-1.77,30.38-9.49,38c-42.73,42.14-64.84,74.46-59.95,109.88c6.28,45.39,28.94,80.2,29.17,80.54l-7.18,1.16
			C810.41,435.28,787.65,400.37,781.38,354.85z"/>
	</g>
	<g>
		<path class="st3" d="M394.35,465.18l-7.58,0.52c0.15-0.4,15-41.18,10.69-88.86c-3.48-38.33-24.55-67.19-81.95-100.02
			c-8.38-4.8-24.26-23.18-23.62-34.11c0.1-1.71,6.61-1.73,6.61-1.73c46.75,18.27,83.64,44.98,98.85,73.5
			c11.09,20.8,6.04,42.96,7.72,61.59C409.42,423.87,394.5,464.77,394.35,465.18z"/>
		<path class="st3" d="M396.84,364.16c-2.28-16.48-8.12-36.91-3.86-56.95c7.09-33.4,32.42-68.07,77.18-98.72
			c0,0,6.35-1.44,6.83,0.19c3.71,12.61-1.85,31.75-9.92,39.7c-44.64,44.03-67.75,77.8-62.64,114.81
			c6.56,47.42,30.24,83.8,30.48,84.16l-7.5,1.21C427.17,448.2,403.39,411.72,396.84,364.16z"/>
	</g>
	<path class="st4" d="M338.58,560.92h785.65c0,0-46.76-147.33-215.12-139.67c0,0-23.38-64.33-149.65-70.71c0,0-60.79-30.91-205.76,0
		s-154.32,29.33-177.71,72.5c0,0-102.88,6.66-149.65,50.34s-88.85,26.81-88.85,70.84L338.58,560.92z"/>
	<polygon class="st4" points="137.49,560.92 338.58,560.92 137.49,544.22 	"/>
</g>
</svg>
