<?xml version="1.0" encoding="utf-8"?>
<!-- Generator: Adobe Illustrator 23.0.2, SVG Export Plug-In . SVG Version: 6.00 Build 0)  -->
<svg version="1.1" id="Layer_1" xmlns="http://www.w3.org/2000/svg" xmlns:xlink="http://www.w3.org/1999/xlink" x="0px" y="0px"
	 viewBox="0 0 675 1200" style="enable-background:new 0 0 675 1200;" xml:space="preserve">
<style type="text/css">
	.st0{fill:#231F20;}
	.st1{fill:none;stroke:#231F20;stroke-width:5;stroke-miterlimit:10;}
	.st2{fill:#EAD7B9;}
	.st3{fill:#5BC0EE;}
	.st4{fill:#4E5068;}
	.st5{fill:#354053;}
	.st6{fill:#8B8B8B;}
	.st7{fill:none;stroke:#181B3B;stroke-miterlimit:10;}
	.st8{fill:#D3C2A9;}
</style>
<rect x="574.03" y="389.36" class="st0" width="18.96" height="133.62"/>
<rect x="81.02" y="390.19" class="st0" width="18.96" height="133.62"/>
<line class="st1" x1="60.76" y1="453.82" x2="614.24" y2="453.82"/>
<rect x="176.24" y="837.27" class="st2" width="36.37" height="47.37"/>
<rect x="471.78" y="837.27" class="st2" width="36.37" height="47.37"/>
<polygon class="st3" points="314.23,449.44 261.97,462.93 251.43,571.56 245.21,713.81 425.21,717.61 415.18,576.04 406.15,463.69 
	372.16,449.44 "/>
<path class="st4" d="M210.87,726.96l29.99,26.88c8.71,7.8,19.99,12.12,31.69,12.12h115.35c10.63,0,20.95-3.57,29.31-10.13
	l45.59-35.77l-5.64-79.3l-96.98,41.05h-65.16l-84.14-45.69l-9.25,28.76L210.87,726.96z"/>
<path class="st5" d="M210.87,726.96l29.99,26.88c8.71,7.8,19.99,12.12,31.69,12.12h115.35c10.63,0,20.95-3.57,29.31-10.13
	l45.59-35.77l-5.64-79.3l-96.98,41.05h-65.16l-84.14-45.69l-9.25,28.76L210.87,726.96z"/>
<path class="st6" d="M175.98,875.1c0,0-3.08,26.31-24.12,50.94v11.71h70.59l1.37-16.33c0,0-10.39-26.17-11.42-38.48
	C212.41,882.94,208.82,865.06,175.98,875.1z"/>
<path d="M223.49,925.54c0,0-58.88-3.55-71.62,0.5v11.71h70.59L223.49,925.54z"/>
<line class="st7" x1="176.24" y1="890.03" x2="195.99" y2="890.03"/>
<line class="st7" x1="174.53" y1="897.31" x2="194.29" y2="897.31"/>
<line class="st7" x1="170.68" y1="906.59" x2="190.44" y2="906.59"/>
<path class="st6" d="M507.57,875.1c0,0,3.08,26.31,24.12,50.94v11.71H461.1l-1.37-16.33c0,0,10.39-26.17,11.42-38.48
	C471.14,882.94,474.74,865.06,507.57,875.1z"/>
<path d="M460.07,925.54c0,0,58.88-3.55,71.62,0.5v11.71H461.1L460.07,925.54z"/>
<line class="st7" x1="507.32" y1="890.03" x2="487.56" y2="890.03"/>
<line class="st7" x1="509.03" y1="897.31" x2="489.27" y2="897.31"/>
<line class="st7" x1="512.87" y1="906.59" x2="493.12" y2="906.59"/>
<path class="st5" d="M176.5,870.63h39.51c0,0,9.8-159.48,5.25-222.89c-0.48-6.69-6.07-11.85-12.78-11.85h-14.09
	c-25.77,0-43.69,21.38-45.51,47.09C144.17,749.54,176.5,870.63,176.5,870.63z"/>
<path class="st5" d="M507.88,875.1h-39.51c0,0-22.69-161.96-19.37-224.35c0.31-5.83,5.1-10.39,10.94-10.39h15.68
	c25.77,0,46.41,21.33,45.51,47.09C518.92,750.6,507.88,875.1,507.88,875.1z"/>
<path class="st2" d="M376.9,520.24l132.17,81.56c6.68,3.98,15.28,0.18,16.85-7.43l20.03-101.7l10.47-17.43l-1.5-20.85l-5.45-19.73
	l-15.7-5.32c-2.06-0.7-4.28,0.54-4.77,2.66l-4.28,18.53l-8.5,10.68l1.19-5.16l2.45-6.21c1.48-3.76-0.72-7.96-4.66-8.87l0,0
	l-9.73,10.91l-3.39,12.39l11.31,18.64l-13.83,64.67l-105.63-68.75L376.9,520.24z"/>
<path class="st3" d="M375.4,546.07l-10.94-96.63l55.15,10.26c13.5,2.51,24.38,9.7,29.03,19.17l37.33,54.74l-51.01,6.05L375.4,546.07
	z"/>
<path class="st8" d="M336.15,507.52L336.15,507.52c-14.22,0-25.74-11.52-25.74-25.74v-44.65h51.48v44.65
	C361.89,496,350.37,507.52,336.15,507.52z"/>
<g>
	<path d="M381.31,393.53c-1.05,13.11-1.6,28.48-14.42,35.92c-0.99,0.57-2.04,1.09-3.16,1.31c-0.93,0.19-1.89,0.17-2.84,0.11
		c-3.85-0.26-7.64-1.33-11.05-3.12c-1.19-0.62-2.37-1.34-3.69-1.61c-4.3-0.85-7.78,3.17-11.4,5.64c-6.83,4.65-15.95,3.99-23.93,1.85
		c-4.55-1.22-9.68-3.67-10.4-8.32c-0.36-2.35,0.52-4.88-0.42-7.06c-0.75-1.74-2.48-2.82-3.96-4.01c-3.39-2.73-3.13-8.05-3.22-12.11
		c-0.07-3.27-0.15-6.53-0.22-9.79c-0.04-1.62-0.07-3.24-0.39-4.83c-0.39-1.92-1.18-3.77-1.38-5.72c-0.25-2.39,0.98-3.14,1.76-5.04
		c0.66-1.61,0.35-3.43,1.27-5.06c1.08-1.92,2.69-3.49,3.98-5.28c1.71-2.37,2.84-5.1,4.45-7.54c1.61-2.44,3.88-4.67,6.74-5.21
		c1.08-0.2,2.2-0.15,3.28-0.35c3.24-0.61,5.6-3.29,8.11-5.42c2.45-2.08,5.26-3.75,8.26-4.92c2.11-0.82,4.38-1.39,6.63-1.17
		c3,0.3,5.8,1.99,8.82,1.86c1.43-0.06,2.82-0.54,4.25-0.6c3.48-0.16,6.65,2.1,10.12,2.4c8.89,0.77,19,8.94,18.6,18.27
		c-0.05,1.14-0.18,2.32,0.21,3.39c0.6,1.63,2.27,2.61,3.14,4.11c2.03,3.47-0.86,7.86-0.27,11.84c0.17,1.17,0.65,2.26,0.93,3.41
		C381.69,388.76,381.5,391.17,381.31,393.53z"/>
</g>
<path class="st2" d="M312.74,438.15c0,0-10.13,1.49-13.02-9c0,0-7.89-21.27,0-22.3c0,0,16.61,10.85,16.61,15.69
	C316.34,427.38,312.74,438.15,312.74,438.15z"/>
<path class="st2" d="M365.49,438.15c0,0,10.13,1.49,13.02-9c0,0,7.89-21.27,0-22.3c0,0-16.61,10.85-16.61,15.69
	C361.89,427.38,365.49,438.15,365.49,438.15z"/>
<path class="st2" d="M354.47,474.47l-0.92,0.53c-4.76,2.72-10.14,4.15-15.62,4.15l0,0c-5.74,0-11.36-1.57-16.27-4.53l0,0
	c-11.44-6.91-18.43-19.29-18.43-32.65v-62.82h70.46v62.21C373.69,455.05,366.36,467.68,354.47,474.47z"/>
<g>
	<path d="M295.6,405.99c2.32-0.23,5.89-0.13,7.84-1.38c1.58-1.01,2.6-2.85,2.62-4.73c0-0.56-0.05-1.18,0.33-1.59
		c0.48-0.51,1.29-0.34,1.98-0.26c1.95,0.23,4-0.62,5.22-2.17c1.22-1.55,1.56-3.73,0.88-5.58c1.23,0.58,2.77,0.05,3.71-0.94
		c2.28-2.38,0.83-6.9,3.17-9.02c3.75-3.39,6.43,2.92,9.48,4.79c2.84,1.74,6.81,1.41,9.32-0.79c-1.42,2.7,0.64,6.27,3.54,7.23
		c2.9,0.96,6.12-0.09,8.66-1.79c0.24,0.54,0.47,1.08,0.68,1.63c11.36,7.87,28.27,12.37,30.97-6.23c0.67-4.63-1.7-15.53-4.46-19.45
		c-1.48-2.1-3.69-3.55-5.93-4.8c-22.58-12.61-53.54-7.61-71.01,11.46c-2.42,2.64-4.61,5.53-6,8.83c-3.22,7.64-1.77,16.38,0.06,24.47
		"/>
</g>
<path class="st2" d="M290.37,523.52L158.2,605.09c-6.68,3.98-15.28,0.18-16.85-7.43l-20.03-101.7l-10.47-17.43l1.5-20.85l5.45-19.73
	l15.7-5.32c2.06-0.7,4.28,0.54,4.77,2.66l4.28,18.53l8.5,10.68l-1.19-5.16l-2.45-6.21c-1.48-3.76,0.72-7.96,4.66-8.87l0,0
	l9.73,10.91l3.39,12.39l-11.31,18.64l13.83,64.67l105.63-68.75L290.37,523.52z"/>
<path class="st3" d="M291.87,549.36l10.94-96.63l-55.15,10.26c-13.5,2.51-24.38,9.7-29.03,19.17l-37.33,54.74l51.01,6.05
	L291.87,549.36z"/>
</svg>
