<?xml version="1.0" encoding="utf-8"?>
<!-- Generator: Adobe Illustrator 23.0.1, SVG Export Plug-In . SVG Version: 6.00 Build 0)  -->
<svg version="1.1" id="Layer_1" xmlns="http://www.w3.org/2000/svg" xmlns:xlink="http://www.w3.org/1999/xlink" x="0px" y="0px"
	 viewBox="0 0 230 190" style="enable-background:new 0 0 230 190;" xml:space="preserve">
<style type="text/css">
	.st0{fill:#231F20;stroke:#FFFFFF;stroke-miterlimit:10;}
	.st1{fill:none;stroke:#FFFFFF;stroke-width:5;stroke-miterlimit:10;}
	.st2{fill:#EAD7B9;}
	.st3{fill:#5BC0EE;}
	.st4{fill:#4E5068;}
	.st5{fill:#354053;}
	.st6{fill:#8B8B8B;}
	.st7{fill:none;stroke:#181B3B;stroke-miterlimit:10;}
	.st8{fill:#D3C2A9;}
</style>
<rect x="183.6" y="28.6" class="st0" width="5.5" height="38.5"/>
<rect x="41.5" y="28.8" class="st0" width="5.5" height="38.5"/>
<line class="st1" x1="35.7" y1="47.1" x2="195.2" y2="47.1"/>
<rect x="69" y="157.7" class="st2" width="10.5" height="13.7"/>
<rect x="154.2" y="157.7" class="st2" width="10.5" height="13.7"/>
<polygon class="st3" points="108.8,45.9 93.7,49.8 90.7,81.1 88.9,122.1 140.8,123.2 137.9,82.4 135.3,50 125.5,45.9 "/>
<path class="st4" d="M79,125.9l8.6,7.7c2.5,2.2,5.8,3.5,9.1,3.5H130c3.1,0,6-1,8.4-2.9l13.1-10.3L150,101l-28,11.8h-18.8L79,99.7
	l-2.7,8.3L79,125.9z"/>
<path class="st5" d="M79,125.9l8.6,7.7c2.5,2.2,5.8,3.5,9.1,3.5H130c3.1,0,6-1,8.4-2.9l13.1-10.3L150,101l-28,11.8h-18.8L79,99.7
	l-2.7,8.3L79,125.9z"/>
<path class="st6" d="M68.9,168.6c0,0-0.9,7.6-7,14.7v3.4h20.3l0.4-4.7c0,0-3-7.5-3.3-11.1C79.4,170.8,78.4,165.7,68.9,168.6z"/>
<path d="M82.6,183.1c0,0-17-1-20.6,0.1v3.4h20.3L82.6,183.1z"/>
<line class="st7" x1="69" y1="172.9" x2="74.7" y2="172.9"/>
<line class="st7" x1="68.5" y1="175" x2="74.2" y2="175"/>
<line class="st7" x1="67.4" y1="177.7" x2="73.1" y2="177.7"/>
<path class="st6" d="M164.5,168.6c0,0,0.9,7.6,7,14.7v3.4h-20.3l-0.4-4.7c0,0,3-7.5,3.3-11.1C154,170.8,155,165.7,164.5,168.6z"/>
<path d="M150.8,183.1c0,0,17-1,20.6,0.1v3.4h-20.3L150.8,183.1z"/>
<line class="st7" x1="164.4" y1="172.9" x2="158.7" y2="172.9"/>
<line class="st7" x1="164.9" y1="175" x2="159.2" y2="175"/>
<line class="st7" x1="166" y1="177.7" x2="160.3" y2="177.7"/>
<path class="st5" d="M69.1,167.3h11.4c0,0,2.8-46,1.5-64.2c-0.1-1.9-1.7-3.4-3.7-3.4h-4.1c-7.4,0-12.6,6.2-13.1,13.6
	C59.7,132.4,69.1,167.3,69.1,167.3z"/>
<path class="st5" d="M164.6,168.6h-11.4c0,0-6.5-46.7-5.6-64.7c0.1-1.7,1.5-3,3.2-3h4.5c7.4,0,13.4,6.1,13.1,13.6
	C167.8,132.7,164.6,168.6,164.6,168.6z"/>
<path class="st2" d="M126.8,66.3l38.1,23.5c1.9,1.1,4.4,0.1,4.9-2.1l5.8-29.3l3-5l-0.4-6l-1.6-5.7l-4.5-1.5
	c-0.6-0.2-1.2,0.2-1.4,0.8l-1.2,5.3l-2.5,3.1l0.3-1.5L168,46c0.4-1.1-0.2-2.3-1.3-2.6l0,0l-2.8,3.1l-1,3.6l3.3,5.4l-4,18.6
	l-30.4-19.8L126.8,66.3z"/>
<path class="st3" d="M126.4,73.7l-3.2-27.9l15.9,3c3.9,0.7,7,2.8,8.4,5.5l10.8,15.8l-14.7,1.7L126.4,73.7z"/>
<path class="st8" d="M115.1,62.6L115.1,62.6c-4.1,0-7.4-3.3-7.4-7.4V42.3h14.8v12.9C122.5,59.3,119.2,62.6,115.1,62.6z"/>
<g>
	<path d="M128.1,29.8c-0.3,3.8-0.5,8.2-4.2,10.4c-0.3,0.2-0.6,0.3-0.9,0.4c-0.3,0.1-0.5,0-0.8,0c-1.1-0.1-2.2-0.4-3.2-0.9
		c-0.3-0.2-0.7-0.4-1.1-0.5c-1.2-0.2-2.2,0.9-3.3,1.6c-2,1.3-4.6,1.2-6.9,0.5c-1.3-0.4-2.8-1.1-3-2.4c-0.1-0.7,0.1-1.4-0.1-2
		c-0.2-0.5-0.7-0.8-1.1-1.2c-1-0.8-0.9-2.3-0.9-3.5c0-0.9,0-1.9-0.1-2.8c0-0.5,0-0.9-0.1-1.4c-0.1-0.6-0.3-1.1-0.4-1.6
		c-0.1-0.7,0.3-0.9,0.5-1.5c0.2-0.5,0.1-1,0.4-1.5c0.3-0.6,0.8-1,1.1-1.5c0.5-0.7,0.8-1.5,1.3-2.2s1.1-1.3,1.9-1.5
		c0.3-0.1,0.6,0,0.9-0.1c0.9-0.2,1.6-0.9,2.3-1.6c0.7-0.6,1.5-1.1,2.4-1.4c0.6-0.2,1.3-0.4,1.9-0.3c0.9,0.1,1.7,0.6,2.5,0.5
		c0.4,0,0.8-0.2,1.2-0.2c1,0,1.9,0.6,2.9,0.7c2.6,0.2,5.5,2.6,5.4,5.3c0,0.3-0.1,0.7,0.1,1c0.2,0.5,0.7,0.8,0.9,1.2
		c0.6,1-0.2,2.3-0.1,3.4c0,0.3,0.2,0.7,0.3,1C128.2,28.4,128.2,29.1,128.1,29.8z"/>
</g>
<path class="st2" d="M108.3,42.6c0,0-2.9,0.4-3.8-2.6c0,0-2.3-6.1,0-6.4c0,0,4.8,3.1,4.8,4.5C109.4,39.5,108.3,42.6,108.3,42.6z"/>
<path class="st2" d="M123.5,42.6c0,0,2.9,0.4,3.8-2.6c0,0,2.3-6.1,0-6.4c0,0-4.8,3.1-4.8,4.5S123.5,42.6,123.5,42.6z"/>
<path class="st2" d="M120.4,53.1l-0.3,0.2c-1.4,0.8-2.9,1.2-4.5,1.2l0,0c-1.7,0-3.3-0.5-4.7-1.3l0,0c-3.3-2-5.3-5.6-5.3-9.4V25.6
	h20.3v17.9C125.9,47.5,123.8,51.1,120.4,53.1z"/>
<g>
	<path d="M103.4,33.4c0.7-0.1,1.7,0,2.3-0.4c0.5-0.3,0.7-0.8,0.8-1.4c0-0.2,0-0.3,0.1-0.5c0.1-0.1,0.4-0.1,0.6-0.1
		c0.6,0.1,1.2-0.2,1.5-0.6c0.4-0.4,0.4-1.1,0.3-1.6c0.4,0.2,0.8,0,1.1-0.3c0.7-0.7,0.2-2,0.9-2.6c1.1-1,1.9,0.8,2.7,1.4
		c0.8,0.5,2,0.4,2.7-0.2c-0.4,0.8,0.2,1.8,1,2.1c0.8,0.3,1.8,0,2.5-0.5c0.1,0.2,0.1,0.3,0.2,0.5c3.3,2.3,8.1,3.6,8.9-1.8
		c0.2-1.3-0.5-4.5-1.3-5.6c-0.4-0.6-1.1-1-1.7-1.4c-6.5-3.6-15.4-2.2-20.5,3.3c-0.7,0.8-1.3,1.6-1.7,2.5c-0.9,2.2-0.5,4.7,0,7.1"/>
</g>
<path class="st2" d="M101.9,67.2L63.8,90.8c-1.9,1.1-4.4,0.1-4.9-2.1l-5.8-29.3l-3-5l0.4-6l1.6-5.7l4.5-1.5c0.6-0.2,1.2,0.2,1.4,0.8
	l1.2,5.3l2.5,3.1l-0.3-1.5L60.7,47c-0.4-1.1,0.2-2.3,1.3-2.6l0,0l2.8,3.1l1,3.6l-3.3,5.4l4,18.6L97,55.3L101.9,67.2z"/>
<path class="st3" d="M102.3,74.7l3.2-27.9l-15.9,3c-3.9,0.7-7,2.8-8.4,5.5L70.4,71.1l14.7,1.7L102.3,74.7z"/>
</svg>
