<?xml version="1.0" encoding="utf-8"?>
<!-- Generator: Adobe Illustrator 23.0.1, SVG Export Plug-In . SVG Version: 6.00 Build 0)  -->
<svg version="1.1" id="Layer_1" xmlns="http://www.w3.org/2000/svg" xmlns:xlink="http://www.w3.org/1999/xlink" x="0px" y="0px"
	 viewBox="0 0 650 370" style="enable-background:new 0 0 650 370;" xml:space="preserve">
<style type="text/css">
	.st0{fill-rule:evenodd;clip-rule:evenodd;fill:#23291E;}
	.st1{fill-rule:evenodd;clip-rule:evenodd;fill:#10120F;}
	.st2{fill-rule:evenodd;clip-rule:evenodd;fill:#010101;}
	.st3{fill-rule:evenodd;clip-rule:evenodd;fill:#384631;}
	.st4{fill-rule:evenodd;clip-rule:evenodd;fill:#151D11;}
	.st5{fill-rule:evenodd;clip-rule:evenodd;fill:#CB922E;}
	.st6{fill-rule:evenodd;clip-rule:evenodd;fill:#D2993A;}
	.st7{fill-rule:evenodd;clip-rule:evenodd;fill:#C68A2F;}
	.st8{fill-rule:evenodd;clip-rule:evenodd;fill:#2B3B22;}
	.st9{fill-rule:evenodd;clip-rule:evenodd;fill:#1C2818;}
	.st10{fill-rule:evenodd;clip-rule:evenodd;fill:#0F0F0D;}
	.st11{fill-rule:evenodd;clip-rule:evenodd;fill:#172014;}
	.st12{fill-rule:evenodd;clip-rule:evenodd;fill:#33452A;}
	.st13{fill-rule:evenodd;clip-rule:evenodd;fill:#3C5330;}
	.st14{fill-rule:evenodd;clip-rule:evenodd;fill:#69835C;}
	.st15{fill-rule:evenodd;clip-rule:evenodd;fill:#809576;}
	.st16{fill-rule:evenodd;clip-rule:evenodd;fill:#523E2E;}
	.st17{fill-rule:evenodd;clip-rule:evenodd;fill:#36291E;}
	.st18{fill-rule:evenodd;clip-rule:evenodd;fill:#A05525;}
	.st19{fill-rule:evenodd;clip-rule:evenodd;fill:#17120F;}
	.st20{fill-rule:evenodd;clip-rule:evenodd;fill:#35271A;}
	.st21{fill-rule:evenodd;clip-rule:evenodd;fill:#E2AC4C;}
	.st22{fill-rule:evenodd;clip-rule:evenodd;fill:#090C09;}
	.st23{fill-rule:evenodd;clip-rule:evenodd;fill:#A3A39E;}
	.st24{fill-rule:evenodd;clip-rule:evenodd;fill:#4C5245;}
</style>
<g>
	<path class="st0" d="M322.5,305c9,0,13.6,0.1,13.6,0.1c0.5-3.4-1.5-6.6-4.7-7.8c0,0-1.8-0.3-5.3-0.8
		C324.7,299.2,323.5,302,322.5,305"/>
	<path class="st1" d="M292.5,305c22.6,1.5,34.1,1.2,34.1,1.2s0.4-3.2,1.1-9.6c0,0-3.1-0.5-9.2-1.5c0,0-3.8-2.3-11.5-6.8
		c0,0,0.6-6.2,1.7-18.7c0,0-6.8-0.1-20.5-0.3C288.3,269.4,289.5,282,292.5,305"/>
	<path class="st2" d="M295.1,305.2c4.1,0.2,6.2,0.4,6.2,0.4s-1.7-11.8-5-35.3c-3.8,0.8-5.7,1.3-5.7,1.3
		C293.6,294,295.1,305.2,295.1,305.2"/>
	<path class="st1" d="M250.1,321.4c11.4,0.5,18.2-0.2,20.4-2c0,0-0.9-6.1-2.6-18.2c0,0,0.4-7.6,1.3-22.9c0,0-6.4-0.4-19.1-1.3
		c1.4,16.1,2.1,24.2,2.1,24.2C250.8,314.7,250.1,321.4,250.1,321.4"/>
	<path class="st2" d="M258,311.2c1.8,0.6,3.8,0.4,5.5-0.7c0,0,0.6-10.4,1.7-31.2c-0.4-1.1-3.8-1.4-10.3-0.9
		C256.9,300.2,258,311.2,258,311.2"/>
	<path class="st3" d="M286.3,267.1c0.5-7.8,0.8-23.2,0.8-46.3c-1.1-61.9,8.4-76.4,28.5-43.6c1.1,27.8,0.7,33.7,0.7,33.7
		c-0.4,5-2.1,21.8-5,50.2c-0.9,8.7-1.5,10.4-4.6,10.5c-9.5,0.4-14.3,0.6-14.3,0.6C288.1,272.2,286.2,271.9,286.3,267.1"/>
	<path class="st3" d="M268.6,280c-3.2-0.1-8.1-0.1-14.7,0.1c-5.7,0.2-7-1.5-5.4-8.4c7-33.5,8.7-37.9,8.2-46.5l-2.6-43.8
		c8.3-7.4,22.6-12.4,41.6-15.2l-11,71.4c-2,10.7-6.5,20-11,37.6C272.5,278.6,271.9,280,268.6,280"/>
	<path class="st3" d="M306,162.6c-14.4-20.2-23.4-16.3-27.1,11.7C289,173.9,298.7,169.7,306,162.6"/>
	<path class="st4" d="M270.4,85.9l-5.5-13.4c-8.7,2.6-15.3,4.9-19.7,6.9c2.8,4.4,5.2,8.4,7.5,11.8l5.1,41.7h21.4
		c-14.8,1.4-22.8,4.9-23.8,10.7c-6.7,19.6-10.1,29.4-10.1,29.4c7.2,9.5,18.4,15.6,30.7,16.7c10.6-20.2,15.7-32.6,15.1-37
		c12,16.2,20.6,25.8,25.7,28.7c3.2,0,4.8,0,4.8,0c-2.1-15.7-4.4-31.9-7.1-48.6l-7.1-54.6L270.4,85.9z"/>
	<polygon class="st3" points="289.1,72.2 307.5,74 309.8,78.9 291.5,77.1 	"/>
	<path class="st4" d="M338.4,95.9c-4.9,9.1-6.8,16.7-7.1,20c-4.7-0.2-13.6-6.3-25.4-15.1C299.6,84,292.5,71.3,318.5,83
		C332.7,90.9,338.4,95.9,338.4,95.9"/>
	<path class="st3" d="M315.6,84.1c5.9,0.3,8.8,0.4,8.8,0.4s1.7,1,5.2,2.9c0,0-1.1,1.5-3.3,4.5c0,0-3.5-1.9-10.6-5.8
		C315.6,84.7,315.6,84.1,315.6,84.1"/>
	<path class="st3" d="M342.1,95.5c0.8,16.8,0.9,25,0.9,25c-1.5,1-3.6,0.7-6.5-0.7c0,0-2-1.1-5.9-3.2c-1.5-0.8-2.6-3.2-2.7-7
		C327.9,94.8,331.7,86.8,342.1,95.5"/>
	<path class="st5" d="M350.6,125.1c-9.2-0.8-13.2-6.3-12.1-16.3l3.2-31.6h0.3c0.5,0,0.8-0.3,1-0.7l11.1,5.1l2.8,34.2
		C357.4,122.3,354.1,125.4,350.6,125.1"/>
	<path class="st6" d="M343.5,74.8c4.6,5.3,6.9,8,6.9,8c-3.7,1.1-6.6,0-8.7-3.3C340.9,77.9,341.5,76.4,343.5,74.8"/>
	<path class="st7" d="M270.6,74.1c0.9,4.6,4.7,8.2,9.6,9.2c4.9,1,9.9-0.8,12.8-4.6c0,0-1.5-5.5,0.7-12.6c0,0-5.6-10.8-20.9-15.4
		C273.2,70.5,270.6,74.1,270.6,74.1"/>
	<path class="st3" d="M285.7,92.5h2.1v40.4h-2.1V92.5z M283.1,82.3c-4.2,6.9-6.4,10.4-6.4,10.4c-6.5-0.5-9.6-7.7-11.9-20.8
		c2.7-1.8,4.1-3.2,6.8-4.9C273.6,75.3,277.4,80.4,283.1,82.3z"/>
	<path class="st8" d="M307.8,51.4c-2-0.6-2.9-0.8-2.9-0.8c-1.6,17.3-3.4,26.7-5.5,28.1c0.6,1,1.4,1.7,2.4,1.9
		C304.1,77.8,306.1,68.1,307.8,51.4"/>
	<path class="st9" d="M305.7,45.1c-1.2,5.8-1.8,8.7-1.8,8.7c6.8-1.9,10.8-3.4,12.2-4.6C311.2,45.2,307.8,43.9,305.7,45.1"/>
	<path class="st6" d="M275.6,65.1c1.5,3.9,3.8,7.1,6.3,9.5c4.5,4.4,10.8,4.9,11.8,2.3c0.8-2.3,2.3-4.9,6.9-10.3
		c1.4-1.6,2-3.9,1.9-6.9c-0.2-2.8,0.3-4.5,3-6.3c1.9-1.3,2.5-4,2-8.2c-0.8,0.1-1.6,0.1-2.4-0.1c-0.5,0-1-0.1-1.4-0.2l-0.7-0.1
		l-0.9-0.1c-0.4,0-0.9,0-1.3-0.1l-1.2-0.2l-1-0.1c-0.5-0.1-1-0.2-1.5-0.3c-0.4-0.1-0.8-0.2-1.2-0.4l-0.2,0l-0.2,0
		c-0.5,0-1-0.2-1.4-0.3l-0.7-0.3l0.3,0c-0.4,0-0.9-0.1-1.3-0.2c-0.3,0-0.5-0.1-0.8-0.2c-0.4-0.1-0.9-0.2-1.3-0.3l-0.3-0.1l0.3,0
		c-0.5,0-1.1-0.1-1.6-0.3l-0.1,0h-0.2c-0.5,0-1.1-0.1-1.7-0.1l-0.9-0.1c-0.5,0-1-0.1-1.4-0.2c-0.6-0.1-1.1-0.3-1.7-0.5
		c-1.2-0.4-2.1-1.2-2.7-2.2c-3.3,3.8-5.1,8.8-4.6,14C273.4,58.2,273.7,59.4,275.6,65.1"/>
	<path class="st10" d="M288.5,26.4L288.5,26.4L288.5,26.4L288.5,26.4z M278.1,52.2c-0.1,2.8-3.3,5.8-3.7,3.4
		c-0.6-6.2-0.7-11.5-0.3-15.8c0.4-0.1,0.8-0.2,1.2-0.4c0.4-0.1,0.9-0.2,1.3-0.4c0.8,0,1.6-0.2,2.4-0.6l0.1,0
		c0.6-0.1,1.2-0.3,1.7-0.7c0.1,0,0.3-0.1,0.4-0.2c0.3-0.1,0.5-0.1,0.8-0.2c0.3,0,0.5,0,0.8-0.1l0.7-0.1l0,0c0.3,0,0.5,0,0.8,0l0.8,0
		c-0.7,1.2-0.8,2.7-0.3,4c0.6,1.7-0.9,2.9-4.3,3.8C278.5,45.6,278.2,47.6,278.1,52.2z"/>
	<path class="st6" d="M271,53.4c-0.3-2.2-1.2-4.1-2.7-5.7c-1.1-1.2-1.2-2.9-0.6-4.4c0.6-1.5,2-2.5,3.6-2.6c1.6-0.2,3.1,0.6,4,1.9
		c2.6,3.8,2,8.9-1.3,11.9c-0.5,0.4-1.2,0.5-1.8,0.3C271.6,54.6,271.1,54,271,53.4"/>
	<path class="st11" d="M268.6,47.4c2.8,0.4,4.3,0.6,4.3,0.6c-5.8,18.6-7.7,29.2-5.5,31.6c-1.2,0.8-2.7,1-4,0.8
		C261.5,76.3,263.3,65.3,268.6,47.4"/>
	<path class="st12" d="M288.6,46.7c7.4-0.5,16.7-0.2,27.8,0.8c-1.6-1.6-2.4-3.5-2.3-5.7c0.6-8.8-3.5-17.2-10.9-22.1
		c-7.3-4.9-16.7-5.5-24.6-1.5s-11.6,8.3-13.5,20.6C264.4,45,264,48,264,48c10.2-2.9,15.7-3.8,16.5-2.8
		C285.9,46.2,288.6,46.7,288.6,46.7"/>
	<path class="st13" d="M280.8,44.8c2.1,1.3,3.2,2,3.2,2s-5.5,1.1-16.6,3.4c-1,0.2-1.8-0.3-3-1.6C275.4,46.1,280.8,44.8,280.8,44.8"
		/>
	<path class="st14" d="M262.8,47.3c0,1,0.5,1.6,1.4,1.8c0,0,5.2-1.6,14.4-3.2c1.3-0.3,2.1-0.1,2.8,0.3c4.8,2.4,4.1,1.8,11.4,1.6
		c10-0.2,18,0.5,24,1.9c0.4-0.7,0.2-1.7-0.5-2.2c-7-1.4-14.7-2.1-23.4-2c-6.8-0.1-6.3,0.6-9.3-0.8c11-1,21.6-0.5,31.8,1.5
		c0.3,0,0.5-0.2,0.5-0.5c0-0.3-0.2-0.5-0.5-0.6c-11.5-2.2-22.8-2.7-34-1.4c-1.7-0.7-2.7-0.5-3.7-0.3
		C272.9,44.5,267.8,45.9,262.8,47.3"/>
	<polygon class="st15" points="270.8,35.8 271.9,38.3 274.6,37.8 272.5,39.6 273.8,42 271.5,40.7 269.6,42.6 270.2,40 267.7,38.8 
		270.4,38.5 	"/>
	<rect x="333.2" y="66.5" class="st16" width="16.2" height="8.5"/>
	<path class="st17" d="M305.4,62.7h2.2c0.3,0,0.6,0.3,0.6,0.6v1.4h9.8c0.5,0,0.8,0.4,0.8,0.8v2.9c0,0.5-0.4,0.8-0.8,0.8h-13.6
		c-0.5,0-0.8-0.4-0.8-0.8v-2.9c0-0.5,0.4-0.8,0.8-0.8h0.5v-1.4C304.9,62.9,305.1,62.7,305.4,62.7"/>
	<path class="st18" d="M303.2,72.7c6.2,0.4,9.3,0.6,9.3,0.6c-0.1,2.9-1.7,5.6-4.2,7.1c0,0-11,6.9-32.9,20.8
		c-2.8,1.7-3.8,1.4-4.6-0.5c0,0-1.6-3.8-4.7-11.3c-0.6-1.3-0.4-2,0.4-2.4C291,77.5,303.2,72.7,303.2,72.7"/>
	<path class="st19" d="M331.8,64.3h56.3h3.7v-4.9c0-0.5,0.4-1,0.9-1c0.5,0,0.9,0.5,0.9,1v4.9h2.3h7.6c1.2,0,2.1,1,2.1,2.1
		c0,1.2-1,2.1-2.1,2.1h-7.5c0,0,0,0-0.1,0h-54.6l-3.9,31.4c-0.1,0.6-0.6,1.1-1.2,1.1h-6.1c-0.6,0-1-0.5-1-1.1l1.6-13.1h-20.3v-5.4
		h-3.6c-2.9,0.1-3.6,0-3.7-1.9v-2.3H332l1.1-8.6h-1.3c-0.6,0-1.1-0.5-1.1-1.2v-1.9C330.7,64.9,331.2,64.3,331.8,64.3"/>
	<path class="st16" d="M300.9,66.5h30.4c1.2,0,2.2,1,2.2,2.2v7.5c0,1.2-1,2.2-2.2,2.2h-30.4c-1.2,0-2.2-1-2.2-2.2v-7.5
		C298.7,67.5,299.7,66.5,300.9,66.5"/>
	<path class="st20" d="M288.6,97.1c-1.6,1.3-1.8,2.1-1.8,2.1c36.9,25.4,61.6,25.2,89.9-22.6c-3.1,0-5.9-0.4-5.9-0.4
		C344.4,120.6,323.2,119.2,288.6,97.1"/>
	<path class="st18" d="M344.3,68.3h41.7c0.6,0,1.1,0.5,1.1,1.1V77c0,0.6-0.5,1.1-1.1,1.1h-41.7c-0.6,0-1.1-0.5-1.1-1.1v-7.6
		C343.2,68.8,343.7,68.3,344.3,68.3"/>
	<path class="st4" d="M240.2,113.5c16.8-7.1,25.3-10.6,25.3-10.6s-2.4-7.2-7.3-21.7c-1.3-4.6-7.5-6.9-12.7-5.9
		c-5.2,1-10.4,5.2-9.6,10.1C238.8,104.1,240.2,113.5,240.2,113.5"/>
	<path class="st3" d="M267.7,102.6c-13.4,10.1-12.8,19.8-10.7,23.9c-5.1,4.3-10.5-1.4-15.3-8c-3.5-4.8-2-7.7,0.7-10.5
		c4.8-4.8,10.9-8,17.6-9.3C264,97.8,265.6,97.3,267.7,102.6"/>
	<path class="st21" d="M346.3,80.4c0.8,3.7,6.2,2.9,14-1.7c2.7-1.5,2.9-4.5,1.4-9.8c-1-3.4-6.7-3.7-11.2-1.5
		c-3.9,1.8-5.6,5.4-5.4,7.9C345.9,78.8,346.3,80.4,346.3,80.4"/>
	<polygon class="st3" points="240.7,74.3 258.6,71.2 263.5,75.1 245.6,78.2 	"/>
	<path class="st22" d="M258.9,129.4h53.7c1.2,0,2.3,1,2.4,2.2l0.6,5.5c0.1,1.2-0.8,2.2-2,2.2h-53.7c-1.2,0-2.3-1-2.4-2.2l-0.6-5.5
		C256.8,130.4,257.7,129.4,258.9,129.4"/>
	<path class="st6" d="M312.6,98.9c2.8,0.6,5-1.2,7.7-5.9c1.7-3.1-0.4-3.7-3.2-5.8c-1.3-0.9-1-1.3,0.5-0.9c0,0,2.6,0.7,7.8,2
		c0.9,0.3,1.5-1,1.8-1.9c0.3-0.9,0.4-2.3-0.5-2.6c-1.3-0.4-2.9-0.8-10.7-2.9c-2.9-0.6-5.8-0.1-7.7,0.5c0,0-6.1,1.7-13.7,5.1
		c0,0-14.7,6.9-44.1,20.7c-5.4,2.5-4.9,11.3-0.9,16.1c4,4.8,6.6,5.8,15.1,0.2c16.6-11,35.9-24.6,35.9-24.6c1.7-1.2,2.6-1.8,2.6-1.8
		C309.5,98.3,312.6,98.9,312.6,98.9"/>
	<path class="st23" d="M293.3,303.9h42.3c0.6,0,1.1,0.5,1.1,1.1v2.8c0,0.6-0.5,1.1-1.1,1.1h-42.3c-0.6,0-1.1-0.5-1.1-1.1V305
		C292.2,304.4,292.7,303.9,293.3,303.9"/>
	<path class="st24" d="M255.2,285.9l10.8-0.5c0.4,0,0.7,0.3,0.7,0.7l0,0c0,0.4-0.3,0.7-0.7,0.7l-10.8,0.5c-0.4,0-0.7-0.3-0.7-0.7
		l0,0C254.5,286.2,254.8,285.9,255.2,285.9"/>
	<path class="st24" d="M255.6,288.9l10-0.4c0.4,0,0.7,0.3,0.7,0.7l0,0c0,0.4-0.3,0.7-0.7,0.7l-10,0.4c-0.4,0-0.7-0.3-0.7-0.7l0,0
		C254.9,289.3,255.2,288.9,255.6,288.9"/>
	<path class="st24" d="M256.1,291.8l9.2-0.4c0.4,0,0.7,0.3,0.7,0.7l0,0c0,0.4-0.3,0.7-0.7,0.7l-9.2,0.4c-0.4,0-0.7-0.3-0.7-0.7l0,0
		C255.4,292.1,255.7,291.8,256.1,291.8"/>
	<path class="st24" d="M256.6,294.6l8.2-0.3c0.4,0,0.7,0.3,0.7,0.7l0,0c0,0.4-0.3,0.7-0.7,0.7l-8.2,0.3c-0.4,0-0.7-0.3-0.7-0.7l0,0
		C255.9,295,256.2,294.6,256.6,294.6"/>
	<path class="st24" d="M257.1,297.5l7.3-0.3c0.4,0,0.7,0.3,0.7,0.7l0,0c0,0.4-0.3,0.7-0.7,0.7l-7.3,0.3c-0.4,0-0.7-0.3-0.7-0.7l0,0
		C256.4,297.8,256.7,297.5,257.1,297.5"/>
	<path class="st24" d="M257.4,300.3l6.7-0.3c0.4,0,0.7,0.3,0.7,0.7l0,0c0,0.4-0.3,0.7-0.7,0.7l-6.7,0.3c-0.4,0-0.7-0.3-0.7-0.7l0,0
		C256.7,300.6,257,300.3,257.4,300.3"/>
	<path class="st24" d="M257.9,302.9l5.8-0.2c0.4,0,0.7,0.3,0.7,0.7l0,0c0,0.4-0.3,0.7-0.7,0.7l-5.8,0.2c-0.4,0-0.7-0.3-0.7-0.7l0,0
		C257.2,303.3,257.5,303,257.9,302.9"/>
	<path class="st24" d="M258.4,305.6l4.8-0.2c0.4,0,0.7,0.3,0.7,0.7l0,0c0,0.4-0.3,0.7-0.7,0.7l-4.8,0.2c-0.4,0-0.7-0.3-0.7-0.7l0,0
		C257.7,305.9,258,305.6,258.4,305.6"/>
	<path class="st24" d="M258.7,308.5l4.3-0.2c0.4,0,0.7,0.3,0.7,0.7l0,0c0,0.4-0.3,0.7-0.7,0.7l-4.3,0.2c-0.4,0-0.7-0.3-0.7-0.7l0,0
		C258,308.8,258.3,308.5,258.7,308.5"/>
	<path class="st24" d="M303.9,275.1l4.3-0.4c0.4,0,0.7,0.3,0.7,0.7l0,0c0,0.4-0.3,0.7-0.7,0.8l-4.3,0.4c-0.4,0-0.7-0.3-0.7-0.7l0,0
		C303.2,275.4,303.5,275.1,303.9,275.1"/>
	<path class="st24" d="M304,277.6l4.3-0.4c0.4,0,0.7,0.3,0.7,0.7l0,0c0,0.4-0.3,0.7-0.7,0.8l-4.3,0.4c-0.4,0-0.7-0.3-0.7-0.7l0,0
		C303.3,278,303.6,277.7,304,277.6"/>
	<path class="st24" d="M303.8,280.1l4.3-0.4c0.4,0,0.7,0.3,0.7,0.7l0,0c0,0.4-0.3,0.7-0.7,0.8l-4.3,0.4c-0.4,0-0.7-0.3-0.7-0.7l0,0
		C303,280.5,303.4,280.1,303.8,280.1"/>
	<path class="st24" d="M303.9,282.7l4.3-0.4c0.4,0,0.7,0.3,0.7,0.7l0,0c0,0.4-0.3,0.7-0.7,0.8l-4.3,0.4c-0.4,0-0.7-0.3-0.7-0.7l0,0
		C303.2,283.1,303.5,282.7,303.9,282.7"/>
	<path class="st24" d="M303.8,285.3l4.3-0.4c0.4,0,0.7,0.3,0.7,0.7l0,0c0,0.4-0.3,0.7-0.7,0.8l-4.3,0.4c-0.4,0-0.7-0.3-0.7-0.7l0,0
		C303.1,285.7,303.4,285.4,303.8,285.3"/>
	<path class="st24" d="M303.9,287.9l4.3-0.4c0.4,0,0.7,0.3,0.7,0.7l0,0c0,0.4-0.3,0.7-0.7,0.8l-4.3,0.4c-0.4,0-0.7-0.3-0.7-0.7l0,0
		C303.2,288.3,303.5,287.9,303.9,287.9"/>
	<path class="st24" d="M305.7,292.3l3-3.1c0.3-0.3,0.7-0.3,1,0l0,0c0.3,0.3,0.2,0.8,0,1l-3,3.1c-0.3,0.3-0.7,0.3-1,0l0,0
		C305.4,293.1,305.4,292.6,305.7,292.3"/>
	<path class="st24" d="M308.3,293.6l3-3.1c0.3-0.3,0.7-0.3,1,0l0,0c0.3,0.3,0.2,0.8,0,1l-3,3.1c-0.3,0.3-0.7,0.3-1,0l0,0
		C308,294.3,308,293.8,308.3,293.6"/>
	<path class="st24" d="M310.6,295l3-3.1c0.3-0.3,0.7-0.3,1,0l0,0c0.3,0.3,0.2,0.8,0,1l-3,3.1c-0.3,0.3-0.7,0.3-1,0l0,0
		C310.3,295.7,310.3,295.3,310.6,295"/>
	<path class="st24" d="M313.1,296.7l3-3.1c0.3-0.3,0.7-0.3,1,0l0,0c0.3,0.3,0.2,0.8,0,1l-3,3.1c-0.3,0.3-0.7,0.3-1,0l0,0
		C312.9,297.5,312.9,297,313.1,296.7"/>
</g>
</svg>
