<?xml version="1.0" encoding="utf-8"?>
<!-- Generator: Adobe Illustrator 23.0.2, SVG Export Plug-In . SVG Version: 6.00 Build 0)  -->
<svg version="1.1" id="Layer_1" xmlns="http://www.w3.org/2000/svg" xmlns:xlink="http://www.w3.org/1999/xlink" x="0px" y="0px"
	 viewBox="0 0 1188.34 1200" style="enable-background:new 0 0 1188.34 1200;" xml:space="preserve">
<style type="text/css">
	.st0{fill-rule:evenodd;clip-rule:evenodd;fill:#23291E;}
	.st1{fill-rule:evenodd;clip-rule:evenodd;fill:#10120F;}
	.st2{fill-rule:evenodd;clip-rule:evenodd;fill:#010101;}
	.st3{fill-rule:evenodd;clip-rule:evenodd;fill:#384631;}
	.st4{fill-rule:evenodd;clip-rule:evenodd;fill:#151D11;}
	.st5{fill-rule:evenodd;clip-rule:evenodd;fill:#CB922E;}
	.st6{fill-rule:evenodd;clip-rule:evenodd;fill:#D2993A;}
	.st7{fill-rule:evenodd;clip-rule:evenodd;fill:#C68A2F;}
	.st8{fill-rule:evenodd;clip-rule:evenodd;fill:#2B3B22;}
	.st9{fill-rule:evenodd;clip-rule:evenodd;fill:#1C2818;}
	.st10{fill-rule:evenodd;clip-rule:evenodd;fill:#0F0F0D;}
	.st11{fill-rule:evenodd;clip-rule:evenodd;fill:#172014;}
	.st12{fill-rule:evenodd;clip-rule:evenodd;fill:#33452A;}
	.st13{fill-rule:evenodd;clip-rule:evenodd;fill:#3C5330;}
	.st14{fill-rule:evenodd;clip-rule:evenodd;fill:#69835C;}
	.st15{fill-rule:evenodd;clip-rule:evenodd;fill:#809576;}
	.st16{fill-rule:evenodd;clip-rule:evenodd;fill:#523E2E;}
	.st17{fill-rule:evenodd;clip-rule:evenodd;fill:#36291E;}
	.st18{fill-rule:evenodd;clip-rule:evenodd;fill:#A05525;}
	.st19{fill-rule:evenodd;clip-rule:evenodd;fill:#17120F;}
	.st20{fill-rule:evenodd;clip-rule:evenodd;fill:#35271A;}
	.st21{fill-rule:evenodd;clip-rule:evenodd;fill:#E2AC4C;}
	.st22{fill-rule:evenodd;clip-rule:evenodd;fill:#090C09;}
	.st23{fill-rule:evenodd;clip-rule:evenodd;fill:#A3A39E;}
	.st24{fill-rule:evenodd;clip-rule:evenodd;fill:#4C5245;}
</style>
<g>
	<path class="st0" d="M666.41,1001.37c27.09,0.13,40.62,0.2,40.62,0.2c1.35-10.11-4.48-19.8-14.04-23.33c0,0-5.28-0.85-15.82-2.54
		C673,984.01,669.39,992.58,666.41,1001.37"/>
	<path class="st1" d="M576.53,1001.59c67.61,4.61,102.2,3.66,102.2,3.66s1.15-9.57,3.44-28.71c0,0-9.19-1.54-27.55-4.6
		c0,0-11.45-6.8-34.32-20.39c0,0,1.65-18.65,4.96-55.94c0,0-20.5-0.3-61.53-0.9C563.72,894.71,567.48,932.51,576.53,1001.59"/>
	<path class="st2" d="M584.2,1002.09c12.32,0.74,18.48,1.1,18.48,1.1s-5.05-35.24-15.12-105.71c-11.3,2.51-16.93,3.76-16.93,3.76
		C579.67,968.48,584.2,1002.09,584.2,1002.09"/>
	<path class="st1" d="M449.47,1050.75c34.29,1.49,54.64-0.5,61.04-5.97c0,0-2.56-18.16-7.67-54.49c0,0,1.27-22.89,3.79-68.66
		c0,0-19.12-1.32-57.37-3.94c4.16,48.29,6.25,72.44,6.25,72.44C451.49,1030.54,449.47,1050.75,449.47,1050.75"/>
	<path class="st2" d="M472.96,1020c5.31,1.94,11.4,1.2,16.39-1.99c0,0,1.74-31.2,5.2-93.58c-1.05-3.16-11.35-4.08-30.86-2.77
		C469.87,987.23,472.96,1020,472.96,1020"/>
	<path class="st3" d="M557.87,887.92c1.45-23.28,2.29-69.51,2.51-138.74c-3.36-185.48,25.13-229.04,85.49-130.7
		c3.26,83.27,2.01,101.11,2.01,101.11c-1.3,15.12-6.33,65.22-15.07,150.27c-2.64,26-4.58,31.11-13.77,31.58
		c-28.51,1.24-42.78,1.84-42.78,1.84C563.18,903.3,557.47,902.33,557.87,887.92"/>
	<path class="st3" d="M504.68,926.64c-9.51-0.35-24.21-0.22-44.11,0.38c-17.13,0.5-21.02-4.38-16.26-25.13
		c20.97-100.34,26.07-113.59,24.53-139.26l-7.92-131.26c24.81-22.04,67.63-37.23,124.54-45.58l-32.84,213.95
		c-6.03,32.1-19.6,59.89-33,112.51C516.58,922.35,514.77,926.59,504.68,926.64"/>
	<path class="st3" d="M616.8,574.86c-43.01-60.66-70.11-48.98-81.31,35.02C565.99,608.62,594.93,596.15,616.8,574.86"/>
	<path class="st4" d="M510.34,345.04l-16.48-40.12c-26.12,7.77-45.82,14.67-59.12,20.72c8.24,13.23,15.71,25.05,22.41,35.43
		l15.14,124.81h64.25c-44.4,4.06-68.19,14.7-71.4,31.92c-20.12,58.8-30.18,88.21-30.18,88.21c21.47,28.39,55.09,46.67,92.11,50.1
		c31.9-60.62,47.01-97.55,45.3-110.77c35.93,48.59,61.61,77.28,77.02,86.07c9.56,0,14.34,0,14.34,0
		c-6.22-47.07-13.3-95.6-21.27-145.54l-21.2-163.61L510.34,345.04z"/>
	<polygon class="st3" points="566.29,304.11 621.33,309.48 628.35,323.98 573.31,318.62 	"/>
	<path class="st4" d="M714,375.11c-14.6,27.27-20.44,50.16-21.19,60.01c-14.14-0.74-40.72-18.73-76.06-45.32
		c-19.17-50.41-40.44-88.5,37.41-53.47C696.88,360.09,714,375.11,714,375.11"/>
	<path class="st3" d="M645.54,339.62c17.65,0.85,26.47,1.27,26.47,1.27s5.15,2.86,15.44,8.59c0,0-3.26,4.44-9.79,13.35
		c0,0-10.59-5.78-31.8-17.36C645.68,341.59,645.56,339.64,645.54,339.62"/>
	<path class="st3" d="M724.93,373.91c2.41,50.21,2.64,74.76,2.64,74.76c-4.39,2.86-10.93,2.19-19.62-2.01c0,0-5.88-3.16-17.63-9.46
		c-4.53-2.54-7.8-9.49-8.14-21.04C682.51,371.62,693.94,347.71,724.93,373.91"/>
	<path class="st5" d="M750.38,462.52c-27.44-2.47-39.47-18.78-36.13-48.93l9.49-94.65h0.92c1.37,0,2.54-0.9,3.01-2.17l33.32,15.27
		l8.3,102.48C770.9,454.14,760.99,463.36,750.38,462.52"/>
	<path class="st6" d="M729.29,311.65c13.8,15.89,20.69,23.85,20.69,23.85c-11.11,3.31-19.85,0.02-26.18-9.84
		C721.42,321.22,723.26,316.56,729.29,311.65"/>
	<path class="st7" d="M510.75,309.56c2.79,13.77,14.07,24.65,28.66,27.65c14.59,3.01,29.68-2.44,38.37-13.84
		c0,0-4.49-16.39,2.22-37.78c0,0-16.88-32.3-62.6-46.27C518.58,298.9,510.75,309.56,510.75,309.56"/>
	<path class="st3" d="M555.91,364.69h6.32v121.16h-6.32V364.69z M548.34,334.27c-12.7,20.67-19.05,31.01-19.05,31.01
		c-19.33-1.47-28.62-22.93-35.69-62.21c8.09-5.25,12.25-9.46,20.29-14.75C519.79,313.34,531.26,328.64,548.34,334.27z"/>
	<path class="st8" d="M622.37,241.82c-5.88-1.67-8.82-2.52-8.82-2.52c-4.7,51.95-10.18,79.99-16.46,84.15
		c1.7,3.04,4.29,5.11,7.2,5.76C611.26,320.76,617.29,291.61,622.37,241.82"/>
	<path class="st9" d="M616.07,222.94c-3.64,17.39-5.45,26.1-5.45,26.1c20.27-5.71,32.45-10.33,36.56-13.84
		C632.51,223.2,622.15,219.13,616.07,222.94"/>
	<path class="st6" d="M525.73,282.69c4.44,11.65,11.48,21.37,18.92,28.52c13.6,13.1,32.5,14.8,35.24,6.85
		c2.37-7,6.87-14.82,20.77-31c4.11-4.75,5.98-11.68,5.6-20.82c-0.53-8.34,0.92-13.38,9.01-18.93c5.68-3.84,7.55-12.11,5.9-24.71
		c-2.37,0.38-4.85,0.27-7.27-0.43c-1.44-0.03-2.89-0.27-4.31-0.7l-2.24-0.17l-2.61-0.2c-1.3-0.03-2.64-0.03-3.93-0.22l-3.53-0.47
		l-3.14-0.33c-1.49-0.17-3.04-0.57-4.51-0.89c-1.29-0.28-2.44-0.72-3.66-1.17l-0.45-0.08l-0.7-0.08c-1.42-0.13-2.86-0.45-4.26-0.97
		l-2.07-0.77l1.04,0.03c-1.32-0.07-2.66-0.3-3.98-0.7c-0.75-0.1-1.52-0.23-2.27-0.45c-1.3-0.15-2.61-0.45-3.88-0.92l-0.94-0.35
		l1.04,0.03c-1.62-0.08-3.26-0.42-4.85-1l-0.25-0.08h-0.48c-1.62,0.02-3.34-0.25-4.96-0.43l-2.69-0.2c-1.44-0.1-2.89-0.43-4.31-0.72
		c-1.72-0.33-3.29-0.97-4.95-1.59c-3.53-1.3-6.33-3.66-8.22-6.6c-9.94,11.4-15.14,26.49-13.9,42.06
		C519.2,261.99,520.14,265.53,525.73,282.69"/>
	<path class="st10" d="M564.27,166.82l0.25,0.13l-0.42-0.02L564.27,166.82z M533.35,244.06c-0.35,8.35-9.89,17.28-11.16,10.13
		c-1.8-18.58-2.07-34.34-0.82-47.26c1.2-0.23,2.41-0.58,3.54-1.09c1.3-0.23,2.59-0.62,3.84-1.17c2.46-0.05,4.9-0.63,7.19-1.8
		l0.42-0.08c1.82-0.35,3.58-1.02,5.23-1.99c0.38-0.13,0.77-0.28,1.15-0.45c0.84-0.15,1.6-0.35,2.41-0.62
		c0.77-0.03,1.54-0.13,2.31-0.27l2.24-0.42l0.1-0.02c0.79,0.07,1.57,0.12,2.34,0.08l2.29-0.07c-2.01,3.56-2.41,7.94-0.87,11.96
		c1.85,5.05-2.69,8.72-12.85,11.45C534.47,224.32,533.69,230.17,533.35,244.06z"/>
	<path class="st6" d="M512.08,247.6c-0.84-6.67-3.53-12.32-8.07-16.96c-3.39-3.61-3.68-8.81-1.8-13.2c1.87-4.39,6-7.42,10.76-7.87
		s9.37,1.75,12.03,5.71c7.79,11.25,6.08,26.52-3.99,35.78c-1.52,1.29-3.63,1.64-5.5,0.92C513.64,251.28,512.33,249.59,512.08,247.6"
		/>
	<path class="st11" d="M504.81,229.59c8.51,1.19,12.75,1.77,12.75,1.77c-17.45,55.78-22.98,87.36-16.61,94.73
		c-3.63,2.29-7.97,3.14-12.08,2.39C483.54,316.31,488.86,283.34,504.81,229.59"/>
	<path class="st12" d="M564.82,227.58c22.21-1.47,49.95-0.67,83.23,2.42c-4.81-4.75-7.09-10.39-6.82-16.93
		c1.85-26.33-10.56-51.63-32.52-66.29c-21.96-14.65-50.08-16.41-73.69-4.6c-23.61,11.81-34.72,24.83-40.49,61.74
		c-2.41,18.48-3.63,27.72-3.63,27.72c30.61-8.62,47.11-11.38,49.51-8.24C556.68,226.2,564.82,227.58,564.82,227.58"/>
	<path class="st13" d="M541.44,221.8c6.32,4.01,9.47,6.02,9.47,6.02s-16.54,3.41-49.61,10.24c-3.07,0.58-5.38-0.92-8.89-4.68
		C525.1,225.66,541.44,221.8,541.44,221.8"/>
	<path class="st14" d="M487.43,229.55c0.07,3.02,1.37,4.7,4.33,5.31c0,0,15.59-4.81,43.01-9.73c3.86-0.8,6.43-0.37,8.52,0.75
		c14.52,7.19,12.21,5.51,34.17,4.9c29.96-0.55,53.96,1.39,71.99,5.82c1.34-2.22,0.72-5.11-1.4-6.6
		c-20.84-4.16-44.16-6.15-69.98-5.97c-20.52-0.15-18.77,1.87-27.76-2.54c32.92-2.89,64.68-1.42,95.3,4.41
		c0.85-0.02,1.54-0.67,1.59-1.52c0.05-0.84-0.57-1.57-1.4-1.67c-34.39-6.63-68.31-8.04-101.75-4.23c-5.23-2.11-8.22-1.54-11.16-0.89
		C517.61,221.15,502.46,225.14,487.43,229.55"/>
	<polygon class="st15" points="511.31,195.01 514.59,202.55 522.66,201.03 516.49,206.46 520.44,213.66 513.37,209.49 
		507.72,215.47 509.51,207.45 502.09,203.94 510.26,203.15 	"/>
	<rect x="698.35" y="286.79" class="st16" width="48.49" height="25.43"/>
	<path class="st17" d="M615.13,275.47h6.65c0.94,0,1.7,0.77,1.7,1.7v4.16h29.24c1.37,0,2.51,1.12,2.51,2.51v8.72
		c0,1.37-1.12,2.51-2.51,2.51h-40.69c-1.37,0-2.51-1.12-2.51-2.51v-8.72c0-1.37,1.12-2.51,2.51-2.51h1.39v-4.16
		C613.43,276.24,614.2,275.47,615.13,275.47"/>
	<path class="st18" d="M608.5,305.4c18.61,1.15,27.92,1.74,27.92,1.74c-0.28,8.76-5,16.79-12.5,21.32c0,0-32.82,20.8-98.45,62.41
		c-8.44,5.08-11.36,4.19-13.75-1.42c0,0-4.66-11.26-13.97-33.79c-1.72-4.04-1.3-6.13,1.07-7.15
		C571.94,319.77,608.5,305.4,608.5,305.4"/>
	<path class="st19" d="M694.1,280.45h168.72h11v-14.77c0-1.59,1.15-3.11,2.82-3.11c1.55,0,2.82,1.4,2.82,3.11v14.77h6.97h22.73
		c3.49,0,6.33,2.86,6.33,6.33c0,3.49-2.86,6.33-6.33,6.33h-22.51c-0.07,0-0.13,0-0.2,0H722.91l-11.66,93.98
		c-0.22,1.8-1.89,3.29-3.69,3.29h-18.35c-1.8,0-3.11-1.49-2.87-3.29l4.9-39.39h-60.71v-16.07h-10.89
		c-8.71,0.22-10.93-0.02-11.03-5.76v-6.97h86.22l3.21-25.78h-3.89c-1.77,0-3.22-1.6-3.22-3.56v-5.58
		C690.88,282.04,692.33,280.45,694.1,280.45"/>
	<path class="st16" d="M601.53,286.9h91.15c3.54,0,6.45,2.89,6.45,6.45v22.46c0,3.54-2.91,6.45-6.45,6.45h-91.15
		c-3.54,0-6.45-2.89-6.45-6.45v-22.46C595.08,289.81,597.97,286.9,601.53,286.9"/>
	<path class="st20" d="M564.75,378.71c-4.66,3.89-5.46,6.35-5.46,6.35c110.64,76.16,184.61,75.36,269.48-67.71
		c-9.21,0-17.76-1.05-17.76-1.05C731.92,449.07,668.5,444.73,564.75,378.71"/>
	<path class="st18" d="M731.65,292.28h125.07c1.77,0,3.23,1.45,3.23,3.23v22.88c0,1.77-1.45,3.23-3.23,3.23H731.65
		c-1.77,0-3.22-1.45-3.22-3.23v-22.88C728.43,293.74,729.88,292.28,731.65,292.28"/>
	<path class="st4" d="M419.73,427.6c50.45-21.25,75.68-31.87,75.68-31.87s-7.25-21.71-21.77-65.1
		c-3.96-13.92-22.46-20.54-37.95-17.56c-15.47,2.97-31.18,15.44-28.84,30.4C415.43,399.54,419.73,427.6,419.73,427.6"/>
	<path class="st3" d="M502.09,395c-40.15,30.3-38.22,59.42-31.97,71.57c-15.24,12.78-31.53-4.08-45.94-24.11
		c-10.43-14.52-6.03-22.99,2.17-31.48c14.37-14.34,32.72-24.03,52.67-27.77C491.04,380.85,495.76,379.29,502.09,395"/>
	<path class="st21" d="M737.57,328.64c2.36,10.98,18.43,8.56,42.06-4.95c8.09-4.56,8.62-13.45,4.06-29.26
		c-3.01-10.31-20.12-11.06-33.42-4.38c-11.6,5.43-16.79,16.18-16.11,23.58C736.43,323.65,737.57,328.64,737.57,328.64"/>
	<polygon class="st3" points="421.1,310.26 474.84,301.01 489.61,312.64 435.87,321.89 	"/>
	<path class="st22" d="M475.77,475.47h160.75c3.58,0,6.8,2.92,7.17,6.52l1.65,16.48c0.37,3.58-2.27,6.52-5.85,6.52H478.75
		c-3.58,0-6.8-2.92-7.17-6.52l-1.65-16.48C469.56,478.4,472.18,475.47,475.77,475.47"/>
	<path class="st6" d="M636.72,384.04c8.34,1.89,15.06-3.63,22.93-17.55c5.08-9.24-1.05-11.11-9.64-17.43
		c-3.81-2.66-3.04-3.83,1.64-2.64c0,0,7.8,1.97,23.39,5.9c2.69,0.75,4.63-2.97,5.43-5.61c0.8-2.64,1.2-6.78-1.39-7.69
		c-3.83-1.17-8.69-2.54-31.98-8.66c-8.71-1.84-17.51-0.22-23.14,1.59c0,0-18.41,5.16-41.04,15.22c0,0-44,20.62-132.01,61.88
		c-16.29,7.49-14.57,33.89-2.71,48.17s19.8,17.39,45.33,0.62c49.61-33.02,107.41-73.72,107.41-73.72c5.15-3.64,7.72-5.46,7.72-5.46
		C627.36,382.25,636.72,384.04,636.72,384.04"/>
	<path class="st23" d="M578.7,998.33H705.3c1.79,0,3.26,1.47,3.26,3.26v8.29c0,1.79-1.47,3.26-3.26,3.26H578.7
		c-1.79,0-3.26-1.47-3.26-3.26v-8.29C575.45,999.8,576.92,998.33,578.7,998.33"/>
	<path class="st24" d="M464.68,944.17l32.43-1.35c1.17-0.05,2.14,0.87,2.16,2.04l0,0c0.02,1.17-0.94,2.17-2.11,2.22l-32.43,1.35
		c-1.17,0.05-2.14-0.87-2.16-2.04l0,0C462.57,945.22,463.51,944.22,464.68,944.17"/>
	<path class="st24" d="M465.96,953.28l30.06-1.25c1.17-0.05,2.14,0.87,2.16,2.04l0,0c0.02,1.17-0.94,2.17-2.11,2.22l-30.06,1.25
		c-1.17,0.05-2.14-0.87-2.16-2.04l0,0C463.84,954.33,464.79,953.33,465.96,953.28"/>
	<path class="st24" d="M467.27,961.85l27.65-1.15c1.17-0.05,2.14,0.87,2.16,2.04l0,0c0.02,1.17-0.94,2.17-2.11,2.22l-27.65,1.15
		c-1.17,0.05-2.14-0.87-2.16-2.04l0,0C465.14,962.9,466.1,961.9,467.27,961.85"/>
	<path class="st24" d="M468.85,970.4l24.66-1.02c1.17-0.05,2.14,0.87,2.16,2.04l0,0c0.02,1.17-0.94,2.17-2.11,2.22l-24.66,1.02
		c-1.17,0.05-2.14-0.87-2.16-2.04l0,0C466.75,971.44,467.68,970.46,468.85,970.4"/>
	<path class="st24" d="M470.39,979.01l21.81-0.9c1.17-0.05,2.14,0.87,2.16,2.04l0,0c0.02,1.17-0.94,2.17-2.11,2.22l-21.81,0.9
		c-1.17,0.05-2.14-0.87-2.16-2.04l0,0C468.27,980.05,469.22,979.06,470.39,979.01"/>
	<path class="st24" d="M471.34,987.27l20.05-0.84c1.17-0.05,2.14,0.87,2.16,2.04l0,0c0.02,1.17-0.94,2.17-2.11,2.22l-20.05,0.84
		c-1.17,0.05-2.14-0.87-2.16-2.04l0,0C469.24,988.32,470.17,987.32,471.34,987.27"/>
	<path class="st24" d="M472.75,995.32l17.45-0.72c1.17-0.05,2.14,0.87,2.16,2.04l0,0c0.02,1.17-0.94,2.17-2.11,2.22l-17.45,0.72
		c-1.17,0.05-2.14-0.87-2.16-2.04l0,0C470.62,996.37,471.58,995.37,472.75,995.32"/>
	<path class="st24" d="M474.33,1003.29l14.45-0.6c1.17-0.05,2.14,0.87,2.16,2.04l0,0c0.02,1.17-0.94,2.17-2.11,2.22l-14.45,0.6
		c-1.17,0.05-2.14-0.87-2.16-2.04l0,0C472.23,1004.33,473.16,1003.34,474.33,1003.29"/>
	<path class="st24" d="M475.19,1011.95l12.93-0.53c1.17-0.05,2.14,0.87,2.16,2.04l0,0c0.02,1.17-0.94,2.17-2.11,2.22l-12.93,0.53
		c-1.17,0.05-2.14-0.87-2.16-2.04l0,0C473.08,1013,474.02,1012,475.19,1011.95"/>
	<path class="st24" d="M610.49,911.8l12.95-1.07c1.17-0.1,2.12,0.79,2.12,1.96l0,0c0,1.17-0.94,2.21-2.11,2.31l-12.95,1.07
		c-1.17,0.1-2.12-0.79-2.12-1.96l0,0C608.38,912.92,609.32,911.89,610.49,911.8"/>
	<path class="st24" d="M610.85,919.51l12.95-1.07c1.17-0.1,2.12,0.79,2.12,1.96l0,0c0,1.17-0.94,2.21-2.11,2.31l-12.95,1.07
		c-1.17,0.1-2.12-0.79-2.12-1.96l0,0C608.75,920.64,609.68,919.61,610.85,919.51"/>
	<path class="st24" d="M610.12,926.94l12.95-1.07c1.17-0.1,2.12,0.79,2.12,1.96l0,0c0,1.17-0.94,2.21-2.11,2.31l-12.95,1.07
		c-1.17,0.1-2.12-0.79-2.12-1.96l0,0C608.01,928.06,608.95,927.03,610.12,926.94"/>
	<path class="st24" d="M610.49,934.66l12.95-1.07c1.17-0.1,2.12,0.79,2.12,1.96l0,0c0,1.17-0.94,2.21-2.11,2.31l-12.95,1.07
		c-1.17,0.1-2.12-0.79-2.12-1.96l0,0C608.38,935.78,609.32,934.75,610.49,934.66"/>
	<path class="st24" d="M610.27,942.52l12.95-1.07c1.17-0.1,2.12,0.79,2.12,1.96l0,0c0,1.17-0.94,2.21-2.11,2.31l-12.95,1.07
		c-1.17,0.1-2.12-0.79-2.12-1.96l0,0C608.15,943.65,609.1,942.62,610.27,942.52"/>
	<path class="st24" d="M610.64,950.24l12.95-1.07c1.17-0.1,2.12,0.79,2.12,1.96l0,0c0,1.17-0.94,2.21-2.11,2.31l-12.95,1.07
		c-1.17,0.1-2.12-0.79-2.12-1.96l0,0C608.51,951.37,609.47,950.34,610.64,950.24"/>
	<path class="st24" d="M616.02,963.54l9.11-9.29c0.82-0.84,2.12-0.8,2.89,0.08l0,0c0.77,0.89,0.74,2.29-0.08,3.12l-9.11,9.29
		c-0.82,0.84-2.12,0.8-2.89-0.08l0,0C615.17,965.78,615.2,964.37,616.02,963.54"/>
	<path class="st24" d="M623.65,967.2l9.11-9.29c0.82-0.84,2.12-0.8,2.89,0.08l0,0c0.77,0.89,0.74,2.29-0.08,3.12l-9.11,9.29
		c-0.82,0.84-2.12,0.8-2.89-0.08l0,0C622.8,969.42,622.84,968.02,623.65,967.2"/>
	<path class="st24" d="M630.51,971.47l9.11-9.29c0.82-0.84,2.12-0.8,2.89,0.08l0,0c0.77,0.89,0.74,2.29-0.08,3.12l-9.11,9.29
		c-0.82,0.84-2.12,0.8-2.89-0.08l0,0C629.64,973.71,629.69,972.31,630.51,971.47"/>
	<path class="st24" d="M638.26,976.65l9.11-9.29c0.82-0.84,2.12-0.8,2.89,0.08l0,0c0.77,0.89,0.74,2.29-0.08,3.12l-9.11,9.29
		c-0.82,0.84-2.12,0.8-2.89-0.08l0,0C637.39,978.88,637.44,977.49,638.26,976.65"/>
</g>
</svg>
