<?xml version="1.0" encoding="utf-8"?>
<!-- Generator: Adobe Illustrator 23.0.1, SVG Export Plug-In . SVG Version: 6.00 Build 0)  -->
<svg version="1.1" id="Layer_1" xmlns="http://www.w3.org/2000/svg" xmlns:xlink="http://www.w3.org/1999/xlink" x="0px" y="0px"
	 viewBox="0 0 650 370" style="enable-background:new 0 0 650 370;" xml:space="preserve">
<style type="text/css">
	.st0{fill-rule:evenodd;clip-rule:evenodd;fill:#23291E;}
	.st1{fill-rule:evenodd;clip-rule:evenodd;fill:#10120F;}
	.st2{fill-rule:evenodd;clip-rule:evenodd;fill:#010101;}
	.st3{fill-rule:evenodd;clip-rule:evenodd;fill:#384631;}
	.st4{fill-rule:evenodd;clip-rule:evenodd;fill:#151D11;}
	.st5{fill-rule:evenodd;clip-rule:evenodd;fill:#CB922E;}
	.st6{fill-rule:evenodd;clip-rule:evenodd;fill:#D2993A;}
	.st7{fill-rule:evenodd;clip-rule:evenodd;fill:#C68A2F;}
	.st8{fill-rule:evenodd;clip-rule:evenodd;fill:#2B3B22;}
	.st9{fill-rule:evenodd;clip-rule:evenodd;fill:#1C2818;}
	.st10{fill-rule:evenodd;clip-rule:evenodd;fill:#0F0F0D;}
	.st11{fill-rule:evenodd;clip-rule:evenodd;fill:#172014;}
	.st12{fill-rule:evenodd;clip-rule:evenodd;fill:#33452A;}
	.st13{fill-rule:evenodd;clip-rule:evenodd;fill:#3C5330;}
	.st14{fill-rule:evenodd;clip-rule:evenodd;fill:#69835C;}
	.st15{fill-rule:evenodd;clip-rule:evenodd;fill:#809576;}
	.st16{fill-rule:evenodd;clip-rule:evenodd;fill:#523E2E;}
	.st17{fill-rule:evenodd;clip-rule:evenodd;fill:#36291E;}
	.st18{fill-rule:evenodd;clip-rule:evenodd;fill:#A05525;}
	.st19{fill-rule:evenodd;clip-rule:evenodd;fill:#17120F;}
	.st20{fill-rule:evenodd;clip-rule:evenodd;fill:#35271A;}
	.st21{fill-rule:evenodd;clip-rule:evenodd;fill:#E2AC4C;}
	.st22{fill-rule:evenodd;clip-rule:evenodd;fill:#090C09;}
	.st23{fill-rule:evenodd;clip-rule:evenodd;fill:#A3A39E;}
	.st24{fill-rule:evenodd;clip-rule:evenodd;fill:#4C5245;}
	.st25{fill-rule:evenodd;clip-rule:evenodd;fill:#D40047;}
</style>
<g>
	<path class="st0" d="M151.5,341.6c8.3,0,12.4,0.1,12.4,0.1c0.4-3.3-1.4-6.4-4.3-7.6c0,0-1.6-0.3-4.8-0.8
		C153.5,335.9,152.4,338.7,151.5,341.6"/>
	<path class="st1" d="M124.1,341.7c20.6,1.5,31.2,1.2,31.2,1.2s0.4-3.1,1-9.3c0,0-2.8-0.5-8.4-1.5c0,0-3.5-2.2-10.5-6.6
		c0,0,0.5-6.1,1.5-18.2c0,0-6.3-0.1-18.8-0.3C120.1,306.9,121.3,319.2,124.1,341.7"/>
	<path class="st2" d="M126.4,341.8c3.8,0.2,5.6,0.4,5.6,0.4s-1.5-11.5-4.6-34.4c-3.4,0.8-5.2,1.2-5.2,1.2
		C125,330.9,126.4,341.8,126.4,341.8"/>
	<path class="st1" d="M85.3,357.7c10.5,0.5,16.7-0.2,18.6-1.9c0,0-0.8-5.9-2.3-17.7c0,0,0.4-7.5,1.2-22.4c0,0-5.8-0.4-17.5-1.3
		c1.3,15.7,1.9,23.6,1.9,23.6C85.9,351.1,85.3,357.7,85.3,357.7"/>
	<path class="st2" d="M92.5,347.7c1.6,0.6,3.5,0.4,5-0.6c0,0,0.5-10.2,1.6-30.5c-0.3-1-3.5-1.3-9.4-0.9
		C91.5,337,92.5,347.7,92.5,347.7"/>
	<path class="st3" d="M118.4,304.6c0.4-7.6,0.7-22.6,0.8-45.2c-1-60.4,7.7-74.6,26.1-42.6c1,27.1,0.6,32.9,0.6,32.9
		c-0.4,4.9-1.9,21.2-4.6,48.9c-0.8,8.5-1.4,10.1-4.2,10.3c-8.7,0.4-13,0.6-13,0.6C120,309.6,118.2,309.3,118.4,304.6"/>
	<path class="st3" d="M102.1,317.2c-2.9-0.1-7.4-0.1-13.5,0.1c-5.2,0.2-6.4-1.4-5-8.2c6.4-32.7,8-37,7.5-45.3l-2.4-42.7
		c7.6-7.2,20.6-12.1,38-14.8l-10,69.7c-1.8,10.5-6,19.5-10.1,36.6C105.8,315.9,105.2,317.2,102.1,317.2"/>
	<path class="st3" d="M136.3,202.7c-13.1-19.8-21.4-15.9-24.8,11.4C120.8,213.7,129.7,209.6,136.3,202.7"/>
	<path class="st4" d="M103.9,127.9l-5-13.1c-8,2.5-14,4.8-18,6.7c2.5,4.3,4.8,8.2,6.8,11.5l4.6,40.6h19.6
		c-13.5,1.3-20.8,4.8-21.8,10.4c-6.1,19.1-9.2,28.7-9.2,28.7c6.5,9.2,16.8,15.2,28.1,16.3c9.7-19.7,14.3-31.8,13.8-36.1
		c11,15.8,18.8,25.2,23.5,28c2.9,0,4.4,0,4.4,0c-1.9-15.3-4.1-31.1-6.5-47.4l-6.5-53.3L103.9,127.9z"/>
	<polygon class="st3" points="120.9,114.5 137.7,116.3 139.9,121 123.1,119.3 	"/>
	<path class="st4" d="M166,137.6c-4.5,8.9-6.2,16.3-6.5,19.5c-4.3-0.2-12.4-6.1-23.2-14.8c-5.8-16.4-12.3-28.8,11.4-17.4
		C160.8,132.8,166,137.6,166,137.6"/>
	<path class="st3" d="M145.1,126.1c5.4,0.3,8.1,0.4,8.1,0.4s1.6,0.9,4.7,2.8c0,0-1,1.4-3,4.3c0,0-3.2-1.9-9.7-5.7
		C145.1,126.7,145.1,126.1,145.1,126.1"/>
	<path class="st3" d="M169.3,137.3c0.7,16.4,0.8,24.3,0.8,24.3c-1.3,0.9-3.3,0.7-6-0.7c0,0-1.8-1-5.4-3.1c-1.4-0.8-2.4-3.1-2.5-6.9
		C156.4,136.5,159.9,128.7,169.3,137.3"/>
	<path class="st5" d="M177.1,166.1c-8.4-0.8-12-6.1-11-15.9l2.9-30.8h0.3c0.4,0,0.8-0.3,0.9-0.7l10.2,5l2.5,33.4
		C183.3,163.4,180.3,166.4,177.1,166.1"/>
	<path class="st6" d="M170.6,117c4.2,5.2,6.3,7.8,6.3,7.8c-3.4,1.1-6.1,0-8-3.2C168.2,120.1,168.8,118.6,170.6,117"/>
	<path class="st7" d="M104,116.3c0.9,4.5,4.3,8,8.7,9c4.4,1,9.1-0.8,11.7-4.5c0,0-1.4-5.3,0.7-12.3c0,0-5.1-10.5-19.1-15.1
		C106.4,112.8,104,116.3,104,116.3"/>
	<path class="st3" d="M117.8,134.3h1.9v39.5h-1.9V134.3z M115.5,124.4c-3.9,6.7-5.8,10.1-5.8,10.1c-5.9-0.5-8.7-7.5-10.9-20.3
		c2.5-1.7,3.7-3.1,6.2-4.8C106.7,117.5,110.2,122.5,115.5,124.4z"/>
	<path class="st8" d="M138,94.2c-1.8-0.5-2.7-0.8-2.7-0.8c-1.4,16.9-3.1,26-5,27.4c0.5,1,1.3,1.7,2.2,1.9
		C134.6,120,136.5,110.5,138,94.2"/>
	<path class="st9" d="M136.1,88.1c-1.1,5.7-1.7,8.5-1.7,8.5c6.2-1.9,9.9-3.4,11.1-4.5C141.1,88.2,138,86.9,136.1,88.1"/>
	<path class="st6" d="M108.6,107.6c1.4,3.8,3.5,7,5.8,9.3c4.1,4.3,9.9,4.8,10.7,2.2c0.7-2.3,2.1-4.8,6.3-10.1
		c1.3-1.5,1.8-3.8,1.7-6.8c-0.2-2.7,0.3-4.4,2.7-6.2c1.7-1.3,2.3-3.9,1.8-8c-0.7,0.1-1.5,0.1-2.2-0.1c-0.4,0-0.9-0.1-1.3-0.2
		l-0.7-0.1l-0.8-0.1c-0.4,0-0.8,0-1.2-0.1l-1.1-0.2l-1-0.1c-0.5-0.1-0.9-0.2-1.4-0.3c-0.4-0.1-0.7-0.2-1.1-0.4l-0.1,0l-0.2,0
		c-0.4,0-0.9-0.1-1.3-0.3l-0.6-0.3l0.3,0c-0.4,0-0.8-0.1-1.2-0.2c-0.2,0-0.5-0.1-0.7-0.1c-0.4,0-0.8-0.1-1.2-0.3l-0.3-0.1l0.3,0
		c-0.5,0-1-0.1-1.5-0.3l-0.1,0h-0.1c-0.5,0-1-0.1-1.5-0.1l-0.8-0.1c-0.4,0-0.9-0.1-1.3-0.2c-0.5-0.1-1-0.3-1.5-0.5
		c-1.1-0.4-1.9-1.2-2.5-2.1c-3,3.7-4.6,8.6-4.2,13.7C106.6,100.8,106.9,102,108.6,107.6"/>
	<path class="st10" d="M120.3,69.8L120.3,69.8L120.3,69.8L120.3,69.8z M110.9,95c-0.1,2.7-3,5.6-3.4,3.3c-0.5-6.1-0.6-11.2-0.3-15.4
		c0.4-0.1,0.7-0.2,1.1-0.4c0.4-0.1,0.8-0.2,1.2-0.4c0.8,0,1.5-0.2,2.2-0.6l0.1,0c0.6-0.1,1.1-0.3,1.6-0.6c0.1,0,0.2-0.1,0.4-0.1
		c0.3,0,0.5-0.1,0.7-0.2c0.2,0,0.5,0,0.7-0.1l0.7-0.1l0,0c0.2,0,0.5,0,0.7,0l0.7,0c-0.6,1.2-0.7,2.6-0.3,3.9
		c0.6,1.6-0.8,2.8-3.9,3.7C111.2,88.5,111,90.5,110.9,95z"/>
	<path class="st6" d="M104.4,96.1c-0.3-2.2-1.1-4-2.5-5.5c-1-1.2-1.1-2.9-0.5-4.3c0.6-1.4,1.8-2.4,3.3-2.6c1.5-0.1,2.9,0.6,3.7,1.9
		c2.4,3.7,1.9,8.6-1.2,11.7c-0.5,0.4-1.1,0.5-1.7,0.3C104.9,97.3,104.5,96.8,104.4,96.1"/>
	<path class="st11" d="M102.2,90.3c2.6,0.4,3.9,0.6,3.9,0.6c-5.3,18.2-7,28.4-5.1,30.8c-1.1,0.7-2.4,1-3.7,0.8
		C95.7,118.5,97.3,107.8,102.2,90.3"/>
	<path class="st12" d="M120.5,89.6c6.8-0.5,15.2-0.2,25.4,0.8c-1.5-1.5-2.2-3.4-2.1-5.5c0.6-8.6-3.2-16.8-9.9-21.6
		c-6.7-4.8-15.3-5.3-22.5-1.5S100.8,69.9,99,81.9c-0.7,6-1.1,9-1.1,9c9.3-2.8,14.4-3.7,15.1-2.7C118,89.2,120.5,89.6,120.5,89.6"/>
	<path class="st13" d="M113.4,87.7c1.9,1.3,2.9,2,2.9,2s-5,1.1-15.1,3.3c-0.9,0.2-1.6-0.3-2.7-1.5C108.4,89,113.4,87.7,113.4,87.7"
		/>
	<path class="st14" d="M96.9,90.2c0,1,0.4,1.5,1.3,1.7c0,0,4.8-1.6,13.1-3.2c1.2-0.3,2-0.1,2.6,0.2c4.4,2.3,3.7,1.8,10.4,1.6
		c9.1-0.2,16.5,0.5,22,1.9c0.4-0.7,0.2-1.7-0.4-2.1c-6.4-1.4-13.5-2-21.3-1.9c-6.3,0-5.7,0.6-8.5-0.8c10-0.9,19.7-0.5,29.1,1.4
		c0.3,0,0.5-0.2,0.5-0.5c0-0.3-0.2-0.5-0.4-0.5c-10.5-2.2-20.8-2.6-31-1.4c-1.6-0.7-2.5-0.5-3.4-0.3
		C106.1,87.5,101.5,88.8,96.9,90.2"/>
	<polygon class="st15" points="104.2,79 105.2,81.5 107.6,81 105.7,82.7 106.9,85.1 104.8,83.7 103.1,85.7 103.6,83.1 101.3,81.9 
		103.8,81.7 	"/>
	<rect x="161.2" y="108.9" class="st16" width="14.8" height="8.3"/>
	<path class="st17" d="M135.8,105.2h2c0.3,0,0.5,0.3,0.5,0.6v1.4h8.9c0.4,0,0.8,0.4,0.8,0.8v2.8c0,0.4-0.3,0.8-0.8,0.8h-12.4
		c-0.4,0-0.8-0.4-0.8-0.8v-2.8c0-0.4,0.3-0.8,0.8-0.8h0.4v-1.4C135.3,105.5,135.5,105.2,135.8,105.2"/>
	<path class="st18" d="M133.8,114.9c5.7,0.4,8.5,0.6,8.5,0.6c-0.1,2.9-1.5,5.5-3.8,6.9c0,0-10,6.8-30,20.3c-2.6,1.7-3.5,1.4-4.2-0.5
		c0,0-1.4-3.7-4.3-11c-0.5-1.3-0.4-2,0.3-2.3C122.7,119.6,133.8,114.9,133.8,114.9"/>
	<path class="st19" d="M159.9,106.8h51.5h3.4V102c0-0.5,0.4-1,0.9-1c0.5,0,0.9,0.5,0.9,1v4.8h2.1h6.9c1.1,0,1.9,0.9,1.9,2.1
		c0,1.1-0.9,2.1-1.9,2.1h-6.9c0,0,0,0-0.1,0h-49.9l-3.6,30.6c-0.1,0.6-0.6,1.1-1.1,1.1h-5.6c-0.5,0-0.9-0.5-0.9-1.1l1.5-12.8h-18.5
		v-5.2h-3.3c-2.7,0.1-3.3,0-3.4-1.9v-2.3h26.3l1-8.4h-1.2c-0.5,0-1-0.5-1-1.2V108C158.9,107.3,159.4,106.8,159.9,106.8"/>
	<path class="st16" d="M131.7,108.9h27.8c1.1,0,2,0.9,2,2.1v7.3c0,1.2-0.9,2.1-2,2.1h-27.8c-1.1,0-2-0.9-2-2.1V111
		C129.7,109.9,130.6,108.9,131.7,108.9"/>
	<path class="st20" d="M120.5,138.8c-1.4,1.3-1.7,2.1-1.7,2.1c33.7,24.8,56.3,24.5,82.2-22c-2.8,0-5.4-0.3-5.4-0.3
		C171.4,161.7,152.1,160.3,120.5,138.8"/>
	<path class="st18" d="M171.4,110.7h38.1c0.5,0,1,0.5,1,1.1v7.5c0,0.6-0.4,1.1-1,1.1h-38.1c-0.5,0-1-0.5-1-1.1v-7.5
		C170.4,111.2,170.8,110.7,171.4,110.7"/>
	<path class="st4" d="M76.2,154.7c15.4-6.9,23.1-10.4,23.1-10.4s-2.2-7.1-6.6-21.2c-1.2-4.5-6.8-6.7-11.6-5.7c-4.7,1-9.5,5-8.8,9.9
		C74.9,145.6,76.2,154.7,76.2,154.7"/>
	<path class="st3" d="M101.3,144.1c-12.2,9.9-11.7,19.3-9.7,23.3c-4.6,4.2-9.6-1.3-14-7.9c-3.2-4.7-1.8-7.5,0.7-10.3
		c4.4-4.7,10-7.8,16.1-9C98,139.5,99.4,139,101.3,144.1"/>
	<path class="st21" d="M173.2,122.5c0.7,3.6,5.6,2.8,12.8-1.6c2.5-1.5,2.6-4.4,1.2-9.5c-0.9-3.4-6.1-3.6-10.2-1.4
		c-3.5,1.8-5.1,5.3-4.9,7.7C172.8,120.9,173.2,122.5,173.2,122.5"/>
	<polygon class="st3" points="76.7,116.5 93,113.5 97.5,117.3 81.2,120.3 	"/>
	<path class="st22" d="M93.3,170.3h49c1.1,0,2.1,1,2.2,2.1l0.5,5.4c0.1,1.2-0.7,2.1-1.8,2.1h-49c-1.1,0-2.1-1-2.2-2.1l-0.5-5.4
		C91.4,171.3,92.2,170.3,93.3,170.3"/>
	<path class="st6" d="M142.4,140.6c2.5,0.6,4.6-1.2,7-5.7c1.5-3-0.3-3.6-2.9-5.7c-1.2-0.9-0.9-1.2,0.5-0.9c0,0,2.4,0.6,7.1,1.9
		c0.8,0.2,1.4-1,1.7-1.8c0.2-0.9,0.4-2.2-0.4-2.5c-1.2-0.4-2.7-0.8-9.8-2.8c-2.7-0.6-5.3-0.1-7.1,0.5c0,0-5.6,1.7-12.5,5
		c0,0-13.4,6.7-40.3,20.2c-5,2.4-4.4,11-0.8,15.7c3.6,4.7,6,5.7,13.8,0.2c15.1-10.8,32.8-24,32.8-24c1.6-1.2,2.4-1.8,2.4-1.8
		C139.6,140,142.4,140.6,142.4,140.6"/>
	<path class="st23" d="M124.7,340.6h38.6c0.5,0,1,0.5,1,1.1v2.7c0,0.6-0.4,1.1-1,1.1h-38.6c-0.5,0-1-0.5-1-1.1v-2.7
		C123.7,341.1,124.2,340.6,124.7,340.6"/>
	<path class="st24" d="M89.9,323l9.9-0.4c0.4,0,0.7,0.3,0.7,0.7l0,0c0,0.4-0.3,0.7-0.6,0.7l-9.9,0.4c-0.4,0-0.7-0.3-0.7-0.7l0,0
		C89.3,323.3,89.6,323,89.9,323"/>
	<path class="st24" d="M90.3,325.9l9.2-0.4c0.4,0,0.7,0.3,0.7,0.7l0,0c0,0.4-0.3,0.7-0.6,0.7l-9.2,0.4c-0.4,0-0.7-0.3-0.7-0.7l0,0
		C89.7,326.3,90,325.9,90.3,325.9"/>
	<path class="st24" d="M90.7,328.7l8.4-0.4c0.4,0,0.7,0.3,0.7,0.7l0,0c0,0.4-0.3,0.7-0.6,0.7l-8.4,0.4c-0.4,0-0.7-0.3-0.7-0.7l0,0
		C90.1,329.1,90.4,328.7,90.7,328.7"/>
	<path class="st24" d="M91.2,331.5l7.5-0.3c0.4,0,0.7,0.3,0.7,0.7l0,0c0,0.4-0.3,0.7-0.6,0.7l-7.5,0.3c-0.4,0-0.7-0.3-0.7-0.7l0,0
		C90.6,331.8,90.9,331.5,91.2,331.5"/>
	<path class="st24" d="M91.7,334.3l6.7-0.3c0.4,0,0.7,0.3,0.7,0.7l0,0c0,0.4-0.3,0.7-0.6,0.7l-6.7,0.3c-0.4,0-0.7-0.3-0.7-0.7l0,0
		C91,334.6,91.3,334.3,91.7,334.3"/>
	<path class="st24" d="M92,337l6.1-0.3c0.4,0,0.7,0.3,0.7,0.7l0,0c0,0.4-0.3,0.7-0.6,0.7l-6.1,0.3c-0.4,0-0.7-0.3-0.7-0.7l0,0
		C91.3,337.3,91.6,337,92,337"/>
	<path class="st24" d="M92.4,339.6l5.3-0.2c0.4,0,0.7,0.3,0.7,0.7l0,0c0,0.4-0.3,0.7-0.6,0.7l-5.3,0.2c-0.4,0-0.7-0.3-0.7-0.7l0,0
		C91.8,340,92,339.6,92.4,339.6"/>
	<path class="st24" d="M92.9,342.2l4.4-0.2c0.4,0,0.7,0.3,0.7,0.7l0,0c0,0.4-0.3,0.7-0.6,0.7l-4.4,0.2c-0.4,0-0.7-0.3-0.7-0.7l0,0
		C92.2,342.5,92.5,342.2,92.9,342.2"/>
	<path class="st24" d="M93.1,345l3.9-0.2c0.4,0,0.7,0.3,0.7,0.7l0,0c0,0.4-0.3,0.7-0.6,0.7l-3.9,0.2c-0.4,0-0.7-0.3-0.7-0.7l0,0
		C92.5,345.4,92.8,345,93.1,345"/>
	<path class="st24" d="M134.4,312.4l3.9-0.3c0.4,0,0.6,0.3,0.6,0.6l0,0c0,0.4-0.3,0.7-0.6,0.8l-3.9,0.3c-0.4,0-0.6-0.3-0.6-0.6l0,0
		C133.8,312.8,134.1,312.4,134.4,312.4"/>
	<path class="st24" d="M134.5,314.9l3.9-0.3c0.4,0,0.6,0.3,0.6,0.6l0,0c0,0.4-0.3,0.7-0.6,0.8l-3.9,0.3c-0.4,0-0.6-0.3-0.6-0.6l0,0
		C133.9,315.3,134.2,315,134.5,314.9"/>
	<path class="st24" d="M134.3,317.3l3.9-0.3c0.4,0,0.6,0.3,0.6,0.6l0,0c0,0.4-0.3,0.7-0.6,0.8l-3.9,0.3c-0.4,0-0.6-0.3-0.6-0.6l0,0
		C133.7,317.7,133.9,317.4,134.3,317.3"/>
	<path class="st24" d="M134.4,319.9l3.9-0.3c0.4,0,0.6,0.3,0.6,0.6l0,0c0,0.4-0.3,0.7-0.6,0.8l-3.9,0.3c-0.4,0-0.6-0.3-0.6-0.6l0,0
		C133.8,320.2,134.1,319.9,134.4,319.9"/>
	<path class="st24" d="M134.3,322.4l3.9-0.3c0.4,0,0.6,0.3,0.6,0.6l0,0c0,0.4-0.3,0.7-0.6,0.8l-3.9,0.3c-0.4,0-0.6-0.3-0.6-0.6l0,0
		C133.7,322.8,134,322.5,134.3,322.4"/>
	<path class="st24" d="M134.5,324.9l3.9-0.3c0.4,0,0.6,0.3,0.6,0.6l0,0c0,0.4-0.3,0.7-0.6,0.8l-3.9,0.3c-0.4,0-0.6-0.3-0.6-0.6l0,0
		C133.8,325.3,134.1,325,134.5,324.9"/>
	<path class="st24" d="M136.1,329.3l2.8-3c0.3-0.3,0.6-0.3,0.9,0l0,0c0.2,0.3,0.2,0.7,0,1l-2.8,3c-0.3,0.3-0.6,0.3-0.9,0l0,0
		C135.8,330,135.8,329.5,136.1,329.3"/>
	<path class="st24" d="M138.4,330.5l2.8-3c0.3-0.3,0.6-0.3,0.9,0l0,0c0.2,0.3,0.2,0.7,0,1l-2.8,3c-0.3,0.3-0.6,0.3-0.9,0l0,0
		C138.2,331.2,138.2,330.7,138.4,330.5"/>
	<path class="st24" d="M140.5,331.8l2.8-3c0.3-0.3,0.6-0.3,0.9,0l0,0c0.2,0.3,0.2,0.7,0,1l-2.8,3c-0.3,0.3-0.6,0.3-0.9,0l0,0
		C140.2,332.6,140.3,332.1,140.5,331.8"/>
	<path class="st24" d="M142.9,333.5l2.8-3c0.3-0.3,0.6-0.3,0.9,0l0,0c0.2,0.3,0.2,0.7,0,1l-2.8,3c-0.3,0.3-0.6,0.3-0.9,0l0,0
		C142.6,334.3,142.6,333.8,142.9,333.5"/>
</g>
<g>
	<path class="st0" d="M476.8,336.2c-0.8-2.7-1.8-5.4-3-8c-2.9,0.5-4.4,0.8-4.4,0.8c-2.7,1.1-4.3,4.1-3.9,7.3
		C465.4,336.2,469.2,336.2,476.8,336.2"/>
	<path class="st1" d="M501.9,336.3c2.5-21.6,3.6-33.4,3.6-33.4c-11.5,0.2-17.2,0.3-17.2,0.3c0.9,11.7,1.4,17.5,1.4,17.5
		c-6.4,4.2-9.6,6.4-9.6,6.4c-5.1,1-7.7,1.4-7.7,1.4c0.6,6,1,9,1,9S483,337.7,501.9,336.3"/>
	<path class="st2" d="M499.7,336.4c0,0,1.3-10.5,3.8-31.5c0,0-1.6-0.4-4.7-1.2c-2.8,22-4.2,33-4.2,33S496.3,336.6,499.7,336.4"/>
	<path class="st1" d="M537.4,351.6c0,0-0.6-6.3-1.7-18.9c0,0,0.6-7.5,1.7-22.6c-10.7,0.8-16,1.2-16,1.2c0.7,14.3,1.1,21.5,1.1,21.5
		c-1.4,11.4-2.1,17-2.1,17C522.1,351.5,527.8,352.1,537.4,351.6"/>
	<path class="st2" d="M530.8,342c0,0,0.9-10.2,2.6-30.7c-5.4-0.4-8.3-0.1-8.6,0.9c1,19.5,1.5,29.2,1.5,29.2
		C527.6,342.4,529.3,342.6,530.8,342"/>
	<path class="st25" d="M507.1,300.7c0.1,4.5-1.5,4.8-5.1,4.8c0,0-4-0.2-11.9-0.6c-2.6-0.1-3.1-1.7-3.8-9.9
		c-2.4-26.6-3.8-42.2-4.2-46.9c0,0-0.3-5.6,0.6-31.6c16.9-30.7,24.8-17.1,23.9,40.8C506.5,279,506.7,293.5,507.1,300.7"/>
	<path class="st25" d="M521.9,312.8c-2.8,0-3.3-1.3-4.2-4.5c-3.7-16.4-7.5-25.1-9.2-35.2l-9.2-66.8c15.9,2.6,27.9,7.4,34.8,14.2
		l-2.2,41c-0.4,8,1,12.2,6.9,43.5c1.3,6.5,0.2,8-4.5,7.9C528.7,312.8,524.6,312.7,521.9,312.8"/>
	<path class="st25" d="M490.6,202.9c6.1,6.7,14.2,10.5,22.7,10.9C510.2,187.6,502.6,184,490.6,202.9"/>
	<path class="st25" d="M489.4,124l-5.9,51.1c-2.2,15.6-4.2,30.8-5.9,45.5c0,0,1.3,0,4,0c4.3-2.7,11.5-11.7,21.5-26.9
		c-0.5,4.1,3.7,15.7,12.7,34.6c10.3-1.1,19.7-6.8,25.7-15.7c0,0-2.8-9.2-8.4-27.6c-0.9-5.4-7.5-8.7-19.9-10H531l4.2-39
		c1.9-3.2,4-6.9,6.3-11.1c-3.7-1.9-9.2-4-16.5-6.5l-4.6,12.5L489.4,124z"/>
	<polygon class="st3" points="502.8,122.9 487.4,124.6 489.4,120 504.7,118.3 	"/>
	<path class="st4" d="M463.5,140.5c0,0,4.8-4.7,16.7-12.1c21.7-10.9,15.8,1,10.4,16.7c-9.9,8.3-17.3,13.9-21.2,14.2
		C469.2,156.2,467.6,149,463.5,140.5"/>
	<path class="st3" d="M482.6,129.4c0,0,0,0.6-0.1,1.8c-5.9,3.6-8.9,5.4-8.9,5.4c-1.8-2.8-2.7-4.2-2.7-4.2c2.9-1.8,4.3-2.7,4.3-2.7
		S477.7,129.7,482.6,129.4"/>
	<path class="st3" d="M460.4,140.2c8.7-8.2,11.8-0.7,11.9,13.2c-0.1,3.6-1,5.8-2.3,6.6c-3.3,2-4.9,3-4.9,3c-2.4,1.3-4.3,1.5-5.5,0.6
		C459.7,163.5,459.8,155.8,460.4,140.2"/>
	<path class="st5" d="M453.3,167.8c-3,0.3-5.7-2.6-5.3-8.7l2.3-32l9.3-4.8c0.1,0.4,0.5,0.7,0.8,0.7h0.3l2.7,29.6
		C464.4,162,461,167.1,453.3,167.8"/>
	<path class="st6" d="M459.2,120.7c1.7,1.5,2.2,3,1.5,4.4c-1.8,3.1-4.2,4.1-7.3,3.1C453.4,128.2,455.4,125.7,459.2,120.7"/>
	<path class="st7" d="M520.3,120c0,0-2.2-3.3-1.9-21.9c-12.8,4.4-17.5,14.5-17.5,14.5c1.9,6.7,0.6,11.8,0.6,11.8
		c2.4,3.6,6.6,5.3,10.7,4.3C516.3,127.7,519.5,124.3,520.3,120"/>
	<path class="st3" d="M507.6,175.1h-1.8v-37.9h1.8V175.1z M519.4,113.4c2.2,1.7,3.4,3,5.7,4.6c-2,12.3-4.6,19-10,19.4
		c0,0-1.8-3.2-5.3-9.7C514.5,126,517.7,121.2,519.4,113.4z"/>
	<path class="st8" d="M489.1,98.9c1.4,15.6,3.1,24.7,5,27.3c0.8-0.2,1.5-0.8,2-1.8c-1.8-1.3-3.3-10.1-4.6-26.3
		C491.5,98.1,490.7,98.4,489.1,98.9"/>
	<path class="st9" d="M490.8,93c-1.7-1.2-4.6,0.1-8.7,3.8c1.1,1.1,4.5,2.5,10.2,4.3C492.4,101.1,491.9,98.4,490.8,93"/>
	<path class="st6" d="M516.1,111.7c1.6-5.4,1.8-6.5,0.2-11.7c0.3-4.9-1.1-9.6-3.9-13.1c-0.5,0.9-1.3,1.7-2.3,2.1
		c-0.5,0.2-0.9,0.4-1.4,0.5c-0.4,0.1-0.8,0.2-1.2,0.2l-0.8,0.1c-0.5,0.1-0.9,0.1-1.4,0.1h-0.1l-0.1,0c-0.4,0.2-0.9,0.3-1.4,0.3
		l0.3,0l-0.3,0.1c-0.4,0.1-0.7,0.2-1.1,0.3c-0.2,0.1-0.4,0.1-0.6,0.1c-0.4,0.1-0.7,0.2-1.1,0.2l0.3,0l-0.6,0.2
		c-0.4,0.2-0.8,0.3-1.2,0.3l-0.2,0l-0.1,0c-0.3,0.1-0.7,0.3-1,0.4c-0.4,0.1-0.8,0.2-1.3,0.3l-0.9,0.1l-1,0.1
		c-0.4,0.1-0.7,0.1-1.1,0.1l-0.7,0.1l-0.6,0.1c-0.4,0.1-0.8,0.2-1.2,0.2c-0.7,0.2-1.4,0.3-2,0.1c-0.5,3.9,0.1,6.5,1.6,7.7
		c2.3,1.7,2.7,3.3,2.5,5.9c-0.1,2.9,0.4,5,1.6,6.5c3.9,5.1,5.1,7.5,5.8,9.7c0.8,2.5,6,2,9.8-2.1
		C512.9,118.3,514.8,115.3,516.1,111.7"/>
	<path class="st10" d="M505.4,75.5l-0.1,0L505.4,75.5L505.4,75.5z M511.9,92.8c-2.8-0.9-4.1-2-3.6-3.6c0.4-1.3,0.3-2.6-0.2-3.7
		l0.6,0c0.2,0,0.4,0,0.7,0l0,0l0.6,0.1c0.2,0,0.4,0.1,0.6,0.1c0.2,0.1,0.4,0.1,0.7,0.2c0.1,0.1,0.2,0.1,0.3,0.1
		c0.5,0.3,1,0.5,1.5,0.6l0.1,0c0.6,0.4,1.3,0.5,2,0.6c0.3,0.2,0.7,0.3,1.1,0.4c0.3,0.2,0.7,0.3,1,0.3c0.3,4,0.3,9-0.2,14.8
		c-0.4,2.2-3-0.6-3.1-3.2C513.8,95.2,513.6,93.4,511.9,92.8z"/>
	<path class="st6" d="M519.9,100.7c-0.1,0.6-0.4,1.1-1,1.4c-0.5,0.2-1.1,0.1-1.5-0.3c-2.8-2.9-3.3-7.7-1.1-11.2
		c0.7-1.2,2-1.9,3.4-1.8c1.3,0.1,2.5,1.1,3,2.5c0.5,1.4,0.4,3-0.5,4.1C520.9,96.8,520.1,98.6,519.9,100.7"/>
	<path class="st11" d="M521.9,95.1c4.5,16.8,5.9,27.1,4.5,30.9c-1.1,0.2-2.4,0-3.4-0.7c1.8-2.3,0.2-12.2-4.6-29.6
		C518.4,95.6,519.5,95.4,521.9,95.1"/>
	<path class="st25" d="M505.2,94.4c0,0,2.3-0.4,6.8-1.3c0.7-1,5.3-0.1,13.8,2.6c0,0-0.3-2.9-1-8.7c-1.6-11.5-4.7-15.6-11.3-19.3
		c-6.6-3.7-14.4-3.1-20.6,1.4c-6.1,4.6-9.6,12.5-9.1,20.7c0.1,2-0.6,3.8-1.9,5.3C491.2,94.2,498.9,94,505.2,94.4"/>
	<path class="st13" d="M511.7,92.6c0,0,4.6,1.2,13.7,3.6c-1,1.2-1.6,1.6-2.5,1.5c-9.2-2.1-13.9-3.2-13.9-3.2S509.9,93.9,511.7,92.6"
		/>
	<path class="st14" d="M526.8,95c-4.2-1.4-8.4-2.6-12.7-3.7c-0.8-0.2-1.7-0.4-3.1,0.3c-9.3-1.2-18.8-0.7-28.4,1.3
		c-0.2,0-0.4,0.3-0.4,0.5c0,0.3,0.2,0.5,0.4,0.5c8.6-1.8,17.4-2.3,26.6-1.4c-2.5,1.4-2,0.7-7.8,0.8c-7.2-0.1-13.7,0.6-19.5,1.9
		c-0.6,0.5-0.8,1.4-0.4,2.1c5-1.4,11.7-2,20.1-1.8c6.1,0.2,5.5,0.7,9.5-1.5c0.6-0.3,1.3-0.5,2.4-0.2c7.7,1.5,12,3,12,3
		C526.4,96.5,526.7,96,526.8,95"/>
	<polygon class="st15" points="520.4,86.8 522.7,87 520.6,88.1 521.1,90.6 519.5,88.8 517.5,90.1 518.6,87.8 516.9,86.1 519.2,86.6 
		520.1,84.3 	"/>
	<rect x="454.3" y="112.9" class="st16" width="13.5" height="7.9"/>
	<path class="st17" d="M491.1,109.4c0.3,0,0.5,0.2,0.5,0.5v1.3h0.4c0.4,0,0.7,0.4,0.7,0.8v2.7c0,0.4-0.3,0.8-0.7,0.8h-11.4
		c-0.4,0-0.7-0.4-0.7-0.8V112c0-0.4,0.3-0.8,0.7-0.8h8.2v-1.3c0-0.3,0.2-0.5,0.5-0.5H491.1"/>
	<path class="st18" d="M493,118.7c0,0,10.2,4.5,30.6,13.5c0.7,0.3,0.8,1,0.3,2.2c-2.6,7-3.9,10.6-3.9,10.6c-0.7,1.8-1.5,2-3.8,0.4
		c-18.3-13-27.5-19.5-27.5-19.5c-2.1-1.4-3.4-3.9-3.5-6.7C485.2,119.3,487.8,119.1,493,118.7"/>
	<path class="st19" d="M469,111c0.5,0,0.9,0.5,0.9,1.1v1.7c0,0.6-0.4,1.1-0.9,1.1h-1.1l0.9,8.1h24.1v2.2c0,1.8-0.6,1.9-3.1,1.8h-3v5
		h-17l1.4,12.3c0.1,0.6-0.3,1-0.8,1h-5.1c-0.5,0-1-0.5-1-1l-3.3-29.4h-45.7c0,0,0,0-0.1,0H409c-1,0-1.8-0.9-1.8-2c0-1.1,0.8-2,1.8-2
		h6.3h1.9v-4.6c0-0.5,0.4-1,0.8-1c0.5,0,0.8,0.5,0.8,1v4.6h3.1H469"/>
	<path class="st16" d="M494.9,113c1,0,1.8,0.9,1.8,2v7c0,1.1-0.8,2-1.8,2h-25.5c-1,0-1.8-0.9-1.8-2v-7c0-1.1,0.8-2,1.8-2H494.9"/>
	<path class="st20" d="M505.2,141.7c-29,20.6-46.7,22-68.8-19.5c0,0-2.4,0.3-5,0.3c23.7,44.7,44.4,44.9,75.3,21.2
		C506.7,143.6,506.5,142.9,505.2,141.7"/>
	<path class="st18" d="M458.6,114.6c0.5,0,0.9,0.5,0.9,1v7.1c0,0.6-0.4,1-0.9,1h-34.9c-0.5,0-0.9-0.5-0.9-1v-7.1c0-0.6,0.4-1,0.9-1
		H458.6"/>
	<path class="st4" d="M545.7,156.9c0,0,1.2-8.8,3.6-26.3c0.7-4.7-3.7-8.6-8.1-9.5c-4.3-0.9-9.5,1.1-10.6,5.5
		c-4.1,13.6-6.1,20.3-6.1,20.3S531.6,150.3,545.7,156.9"/>
	<path class="st3" d="M522.7,146.7c1.8-4.9,3.1-4.4,6.4-3.7c5.6,1.2,10.7,4.2,14.7,8.7c2.3,2.7,3.5,5.3,0.6,9.8
		c-4,6.3-8.6,11.5-12.8,7.5C533.3,165.3,533.9,156.2,522.7,146.7"/>
	<path class="st21" d="M456.9,126c0,0,0.3-1.6,1-4.7c0.2-2.3-1.3-5.7-4.5-7.4c-3.7-2.1-8.5-1.9-9.3,1.4c-1.3,4.9-1.1,7.7,1.1,9.1
		C451.8,128.7,456.2,129.4,456.9,126"/>
	<polygon class="st3" points="541.2,123.9 526.2,121 530.3,117.4 545.3,120.3 	"/>
	<path class="st22" d="M530,171.9c1,0,1.7,0.9,1.6,2l-0.5,5.1c-0.1,1.1-1,2-2,2h-44.9c-1,0-1.7-0.9-1.6-2l0.5-5.1c0.1-1.1,1-2,2-2
		H530"/>
	<path class="st6" d="M485.1,143.3c0,0,2.6-0.6,7.8-1.7c0,0,0.7,0.6,2.2,1.7c0,0,16.1,12.7,30,23c7.1,5.2,9.3,4.3,12.7-0.2
		c3.3-4.5,3.8-12.7-0.8-15c-24.6-12.9-36.9-19.3-36.9-19.3c-6.3-3.1-11.5-4.8-11.5-4.8c-1.6-0.6-4-1.1-6.5-0.5
		c-6.5,1.9-7.9,2.3-8.9,2.7c-0.7,0.3-0.6,1.6-0.4,2.4c0.2,0.8,0.8,2,1.5,1.8c4.4-1.2,6.5-1.8,6.5-1.8c1.3-0.4,1.5,0,0.5,0.8
		c-2.4,2-4.1,2.6-2.7,5.4C480.9,142.2,482.7,143.9,485.1,143.3"/>
	<path class="st23" d="M501.3,335.2c0.5,0,0.9,0.5,0.9,1v2.6c0,0.6-0.4,1-0.9,1h-35.4c-0.5,0-0.9-0.5-0.9-1v-2.6c0-0.6,0.4-1,0.9-1
		H501.3"/>
	<path class="st24" d="M533.1,318.3c0.3,0,0.6,0.3,0.6,0.7l0,0c0,0.4-0.3,0.7-0.6,0.6l-9.1-0.4c-0.3,0-0.6-0.3-0.6-0.7l0,0
		c0-0.4,0.3-0.7,0.6-0.6L533.1,318.3"/>
	<path class="st24" d="M532.8,321.2c0.3,0,0.6,0.3,0.6,0.7l0,0c0,0.4-0.3,0.7-0.6,0.6l-8.4-0.4c-0.3,0-0.6-0.3-0.6-0.7l0,0
		c0-0.4,0.3-0.7,0.6-0.6L532.8,321.2"/>
	<path class="st24" d="M532.4,323.8c0.3,0,0.6,0.3,0.6,0.7l0,0c0,0.4-0.3,0.7-0.6,0.6l-7.7-0.4c-0.3,0-0.6-0.3-0.6-0.7l0,0
		c0-0.4,0.3-0.7,0.6-0.6L532.4,323.8"/>
	<path class="st24" d="M532,326.5c0.3,0,0.6,0.3,0.6,0.7l0,0c0,0.4-0.3,0.7-0.6,0.6l-6.9-0.3c-0.3,0-0.6-0.3-0.6-0.7l0,0
		c0-0.4,0.3-0.7,0.6-0.6L532,326.5"/>
	<path class="st24" d="M531.5,329.2c0.3,0,0.6,0.3,0.6,0.7l0,0c0,0.4-0.3,0.7-0.6,0.6l-6.1-0.3c-0.3,0-0.6-0.3-0.6-0.7l0,0
		c0-0.4,0.3-0.7,0.6-0.6L531.5,329.2"/>
	<path class="st24" d="M531.3,331.8c0.3,0,0.6,0.3,0.6,0.7l0,0c0,0.4-0.3,0.7-0.6,0.6l-5.6-0.3c-0.3,0-0.6-0.3-0.6-0.7l0,0
		c0-0.4,0.3-0.7,0.6-0.6L531.3,331.8"/>
	<path class="st24" d="M530.9,334.3c0.3,0,0.6,0.3,0.6,0.7l0,0c0,0.4-0.3,0.7-0.6,0.6l-4.9-0.2c-0.3,0-0.6-0.3-0.6-0.7l0,0
		c0-0.4,0.3-0.7,0.6-0.6L530.9,334.3"/>
	<path class="st24" d="M530.4,336.8c0.3,0,0.6,0.3,0.6,0.7l0,0c0,0.4-0.3,0.7-0.6,0.6l-4-0.2c-0.3,0-0.6-0.3-0.6-0.7l0,0
		c0-0.4,0.3-0.7,0.6-0.6L530.4,336.8"/>
	<path class="st24" d="M530.2,339.5c0.3,0,0.6,0.3,0.6,0.7l0,0c0,0.4-0.3,0.7-0.6,0.6l-3.6-0.2c-0.3,0-0.6-0.3-0.6-0.7l0,0
		c0-0.4,0.3-0.7,0.6-0.6L530.2,339.5"/>
	<path class="st24" d="M492.4,308.2c0.3,0,0.6,0.3,0.6,0.7l0,0c0,0.4-0.3,0.6-0.6,0.6l-3.6-0.3c-0.3,0-0.6-0.4-0.6-0.7l0,0
		c0-0.4,0.3-0.6,0.6-0.6L492.4,308.2"/>
	<path class="st24" d="M492.3,310.6c0.3,0,0.6,0.4,0.6,0.7l0,0c0,0.4-0.3,0.6-0.6,0.6l-3.6-0.3c-0.3,0-0.6-0.4-0.6-0.7l0,0
		c0-0.4,0.3-0.6,0.6-0.6L492.3,310.6"/>
	<path class="st24" d="M492.5,312.9c0.3,0,0.6,0.3,0.6,0.7l0,0c0,0.4-0.3,0.6-0.6,0.6l-3.6-0.3c-0.3,0-0.6-0.4-0.6-0.7l0,0
		c0-0.4,0.3-0.6,0.6-0.6L492.5,312.9"/>
	<path class="st24" d="M492.4,315.3c0.3,0,0.6,0.3,0.6,0.7l0,0c0,0.4-0.3,0.6-0.6,0.6l-3.6-0.3c-0.3,0-0.6-0.4-0.6-0.7l0,0
		c0-0.4,0.3-0.6,0.6-0.6L492.4,315.3"/>
	<path class="st24" d="M492.5,317.8c0.3,0,0.6,0.4,0.6,0.7l0,0c0,0.4-0.3,0.6-0.6,0.6l-3.6-0.3c-0.3,0-0.6-0.4-0.6-0.7l0,0
		c0-0.4,0.3-0.6,0.6-0.6L492.5,317.8"/>
	<path class="st24" d="M492.4,320.2c0.3,0,0.6,0.4,0.6,0.7l0,0c0,0.4-0.3,0.6-0.6,0.6l-3.6-0.3c-0.3,0-0.6-0.4-0.6-0.7l0,0
		c0-0.4,0.3-0.6,0.6-0.6L492.4,320.2"/>
	<path class="st24" d="M490.9,324.4c0.2,0.3,0.2,0.7,0,1l0,0c-0.2,0.3-0.6,0.3-0.8,0l-2.5-2.9c-0.2-0.3-0.2-0.7,0-1l0,0
		c0.2-0.3,0.6-0.3,0.8,0L490.9,324.4"/>
	<path class="st24" d="M488.7,325.5c0.2,0.3,0.2,0.7,0,1l0,0c-0.2,0.3-0.6,0.3-0.8,0l-2.5-2.9c-0.2-0.3-0.2-0.7,0-1l0,0
		c0.2-0.3,0.6-0.3,0.8,0L488.7,325.5"/>
	<path class="st24" d="M486.8,326.8c0.2,0.3,0.2,0.7,0,1l0,0c-0.2,0.3-0.6,0.3-0.8,0l-2.5-2.9c-0.2-0.3-0.2-0.7,0-1l0,0
		c0.2-0.3,0.6-0.3,0.8,0L486.8,326.8"/>
	<path class="st24" d="M484.6,328.5c0.2,0.3,0.2,0.7,0,1l0,0c-0.2,0.3-0.6,0.3-0.8,0l-2.5-2.9c-0.2-0.3-0.2-0.7,0-1l0,0
		c0.2-0.3,0.6-0.3,0.8,0L484.6,328.5"/>
</g>
</svg>
