<?xml version="1.0" encoding="utf-8"?>
<!-- Generator: Adobe Illustrator 23.0.2, SVG Export Plug-In . SVG Version: 6.00 Build 0)  -->
<svg version="1.1" id="Layer_1" xmlns="http://www.w3.org/2000/svg" xmlns:xlink="http://www.w3.org/1999/xlink" x="0px" y="0px"
	 viewBox="0 0 675 1200" style="enable-background:new 0 0 675 1200;" xml:space="preserve">
<style type="text/css">
	.st0{fill-rule:evenodd;clip-rule:evenodd;}
	.st1{fill:#EAD7B9;}
	.st2{fill:#FBD0CF;}
	.st3{fill:#354053;}
	.st4{fill:#D3C2A9;}
	.st5{fill:#3B70B7;}
	.st6{fill:#D2DCEA;}
	.st7{fill:#F7F9FD;}
</style>
<g>
	<polygon class="st0" points="374.36,631.94 491.46,692.57 478.84,824.37 365.63,740.14 	"/>
	<path class="st0" d="M512.93,818.14c0.79-32.42,0.52-124.76,0.52-124.76c-8.5,0.24-16.79,1.12-24.86,4.03
		c0,0-8.43,95.15-10.11,126.95C486.05,825.52,509.95,821.35,512.93,818.14z"/>
	<polygon class="st0" points="374.06,631.87 484.24,698.39 513.43,693.43 396.92,629.69 	"/>
	<path class="st0" d="M458.17,626.42l8.02-3.18c10.88,4.72,12.69,24.39,9.52,51.23l-15.39,3.21
		C467.29,639.69,462.27,635.53,458.17,626.42z"/>
	<path class="st0" d="M426.32,615.78c0.13-0.75-0.28-1.13-5.53,1.76c-9.97,5.5-11.06,15.19-12.22,31.56l12.95-4.48
		c0.5-12.75,0.88-16.79,4.5-18.77l0-2.44C426.14,621.23,426.09,617.08,426.32,615.78z"/>
</g>
<polygon class="st1" points="247.39,422.83 281.07,565.23 249.04,579.62 214.31,509.84 200.64,438.03 229.86,417.09 "/>
<path class="st2" d="M246.5,574.62l10.7,26.72l-9.65,17.23c0,0-4.81,19.88-4.36,24.14c0.17,1.59,4.12,3.71,7.18,10.49
	c1.85,4.11,5.91,4.31,7.64,4.59c2.41,0.39,3.98,1.72,9.11,3.67c0.87,0.33,8.87-3.16,10.07-4.32c0.8-0.78,7.44-7.51,7.72-10.58
	c0.22-2.41-0.35-4.3-1.76-7.79c-1.11-2.75-2.42-3.01-3.81-2.56c-1.76,0.57-2.53,3.3-1.66,8.87c0,0-2.95,3.47-3.9,2.3
	c-2.04-2.49,3.35-10.49,5.74-13.81c3.96-5.5,7.59-6.22,11.55-18.75c0.75-2.36-0.63-16.7-0.89-17.93
	c-2.25-10.45-10.42-38.65-10.42-38.65L246.5,574.62z"/>
<polygon class="st1" points="463.17,405.7 433.55,549.08 465.97,562.48 498.7,491.65 510.33,419.45 480.53,399.42 "/>
<path class="st1" d="M468.37,557.4l-9.94,27.04l10.14,16.92c0,0,5.37,19.72,5.04,23.99c-0.12,1.59-4.02,3.84-6.88,10.71
	c-1.74,4.16-5.78,4.49-7.51,4.83c-2.4,0.46-3.92,1.84-9,3.95c-0.86,0.36-8.96-2.88-10.18-4.01c-0.82-0.75-7.65-7.27-8.01-10.34
	c-0.29-2.4,0.23-4.3,1.54-7.84c1.03-2.79,2.34-3.08,3.73-2.68c1.78,0.52,2.63,3.22,1.91,8.81c0,0,3.04,3.38,3.97,2.18
	c1.96-2.55-3.64-10.38-6.13-13.63c-4.12-5.38-7.77-5.98-12.08-18.39c-0.81-2.34,0.15-16.71,0.38-17.95
	c1.95-10.52,9.31-38.95,9.31-38.95L468.37,557.4z"/>
<path class="st1" d="M369.97,135.76c2.02-3.65,6.47-4.92,9.94-2.83c3.47,2.09,4.64,6.74,2.62,10.39c-2.02,3.65-6.47,4.92-9.94,2.83
	C369.12,144.07,367.95,139.41,369.97,135.76z"/>
<path class="st1" d="M313.1,140.32c-0.41,4.2-3.97,7.26-7.95,6.84c-3.99-0.42-6.89-4.16-6.48-8.36c0.41-4.2,3.97-7.26,7.95-6.84
	C310.6,132.38,313.5,136.12,313.1,140.32z"/>
<path class="st3" d="M377.46,1010.38c-0.99,3.75-4.48,16.16-5.19,21.55c-0.61,4.66,0.67,24.42,0.67,24.42l13.34,2.12v-6.19
	c0,0,5.05,8.97,7.19,10.32c2.4,1.51,31.06,7.73,31.06,7.73l23.07-2.81c0,0,1.08-4.84,0.04-7.82c-2.52-7.26-22.35-22.16-27.05-28
	c-3.53-4.38-6.35-27.62-6.35-27.62s-31.84-11.03-34.23-10.89C376.92,993.37,378.72,1005.6,377.46,1010.38z"/>
<polygon class="st4" points="367.75,250.52 314.55,254.22 309.62,187.1 369.98,186.92 "/>
<path class="st1" d="M373.59,97.92h-66.07l-3.76,88.65c-0.14,2.84,1.48,5.43,3.96,6.35l19.67,7.72c1.49,0.55,2.71,1.72,3.39,3.25
	l0,0c0.97,2.19,5.68,3.59,7.92,3.59h5.03c2.24,0,6.95-1.39,7.92-3.59l0,0c0.68-1.53,1.9-2.71,3.39-3.25l19.6-7.69
	c2.52-0.92,4.14-3.58,3.96-6.46L373.59,97.92z"/>
<path d="M369.22,107.35c-13.46,6.99-61.41,0.99-61.41,0.99s-1.93-33.6,18.37-31.8c46.21,4.09,39.57-8.73,39.57-8.73
	S389.27,96.92,369.22,107.35z"/>
<path d="M308.74,129.82l-2.85,4.69l-5.96-18.36c-2.71-13.16-1.78-23.18,8.82-30.2l4.39-3.56v33.54
	C313.13,120.96,311.58,125.85,308.74,129.82z"/>
<path d="M373.42,87.39c0,0,10.6,1.31,12.77,4.33c7.3,10.2-10.37,45.75-10.37,45.75s-1.96-5.08-4.18-9.36
	C367.04,119.24,373.42,87.39,373.42,87.39z"/>
<path class="st3" d="M281.11,1029.27c-1.04,4.57-5.99,17.73-5.99,17.73s-14.35,12.92-16.57,18.79c-1.16,3.07,0.08,10.5,0.08,10.5
	h28.84c8.76,0,16.48-3.65,19.61-7.66c1.93-2.48,5.41-11.86,5.41-11.86l8.11-2.07c1.51-0.38,2.48-1.91,2.24-3.51l-6.83-45.32h-32.08
	C283.93,1005.87,282.41,1023.53,281.11,1029.27z"/>
<path class="st5" d="M256.82,491.5l-19.24,76.19c0,0,1.76,40.27,3.21,53.61c3.84,35.58,15.43,201.08,15.43,201.08L277.79,1022
	l9.62,2.81l37.26-3.55l4.62-181.65l-4.48-47.74l17.38-147.12c0,0,10.59,70.71,18.54,127.65c1.07,7.67,5.11,28.25,5.11,28.25
	l-0.73,39.64l5.61,172.84l34.47,7.26l12.83-4.84l15.12-194.15c0,0,5.49-13.88,5.71-17.57c3.27-56.81,3.27-224.56,3.27-224.56
	l-24.65-64.12l-83.68,5.78L256.82,491.5z"/>
<polygon class="st6" points="296.81,230.84 341.59,253.64 388.63,228.69 342.19,344.15 "/>
<path class="st6" d="M447.58,227.75c7.12-1.31,12.97,15.29,18.35,22.31c22.17,28.92,31.48,113.71,47.37,154.78
	c2.13,5.51-1.67,20.47-1.67,20.47s-23.18-9.07-34.33-6.74c-4.47,0.93-21.51,9.71-21.51,9.71c-37.39-97.05-45.21-74.55-40.39-126.13
	C417.27,282.11,427.87,231.36,447.58,227.75z"/>
<path class="st6" d="M234.86,225.52c-7.16,1.08-16.86,29.04-19.86,37.46c-12.36,34.7-20.99,108.54-23.74,152.73
	c-0.37,5.93,8.81,36.19,8.81,36.19s19.28-23.41,29.11-22.42c4.54,0.45,24.81,7.01,24.81,7.01s14.58-109.6,8.86-140.87
	C259.24,275.86,254.66,222.52,234.86,225.52z"/>
<path class="st3" d="M252.8,506.43c-1.46-15.8-3.84-94.81-4.78-104.65c-0.92-9.56-3.89-52.71-2.17-70
	c2.46-24.74-10.98-106.26-10.98-106.26l66.37-0.08l40.36,103.26l41.67-106.89l65.23,5.85c0,0-30.18,119.8-13.75,150.83
	c2.63,4.97-6.87,52.5-6.69,69.15c0.17,16.2-5.18,54.73-6.97,61.99c-0.95,3.86,1.68,19.32,1.68,19.32s-68.34,7.75-91.04,6.01"/>
<polygon class="st7" points="290.09,228.66 307.85,205.77 341.59,253.64 333.16,269.65 "/>
<polygon class="st7" points="341.59,253.64 372.71,208.91 393,223.71 350.97,272.89 "/>
</svg>
