<?xml version="1.0" encoding="utf-8"?>
<!-- Generator: Adobe Illustrator 23.0.1, SVG Export Plug-In . SVG Version: 6.00 Build 0)  -->
<svg version="1.1" id="Layer_1" xmlns="http://www.w3.org/2000/svg" xmlns:xlink="http://www.w3.org/1999/xlink" x="0px" y="0px"
	 viewBox="0 0 235 235" style="enable-background:new 0 0 235 235;" xml:space="preserve">
<style type="text/css">
	.st0{clip-path:url(#SVGID_2_);}
	.st1{fill-rule:evenodd;clip-rule:evenodd;}
	.st2{fill:#EAD7B9;}
	.st3{fill:#FBD0CF;}
	.st4{fill:#354053;}
	.st5{fill:#D3C2A9;}
	.st6{fill:#3B70B7;}
	.st7{fill:#D2DCEA;}
	.st8{fill:#F7F9FD;}
</style>
<title>b11</title>
<g>
	<g id="Layer_1-2">
		<g>
			<defs>
				<rect id="SVGID_1_" x="0.2" y="-21.1" width="234.7" height="256.2"/>
			</defs>
			<clipPath id="SVGID_2_">
				<use xlink:href="#SVGID_1_"  style="overflow:visible;"/>
			</clipPath>
			<g class="st0">
				<g>
					<g>
						<polygon class="st1" points="127.4,252.5 180.4,280 174.7,339.6 123.4,301.5 						"/>
						<path class="st1" d="M190.1,336.8c0.4-14.7,0.2-56.5,0.2-56.5c-3.8,0-7.6,0.6-11.3,1.8c0,0-3.8,43.1-4.6,57.5
							C177.9,340.2,188.8,338.3,190.1,336.8z"/>
						<polygon class="st1" points="127.2,252.5 177.1,282.6 190.3,280.3 137.6,251.5 						"/>
						<path class="st1" d="M165.3,250l3.6-1.4c4.9,2.1,5.7,11,4.3,23.2l-7,1.5C169.4,256,167.2,254.1,165.3,250z"/>
						<path class="st1" d="M150.9,245.2c0.1-0.3-0.1-0.5-2.5,0.8c-4.5,2.5-5,6.9-5.5,14.3l5.9-2c0.2-5.8,0.4-7.6,2-8.5l0-1.1
							C150.8,247.6,150.8,245.8,150.9,245.2z"/>
					</g>
					<polygon class="st2" points="69.9,157.8 85.1,222.3 70.6,228.8 54.9,197.2 48.7,164.7 61.9,155.2 					"/>
					<path class="st3" d="M69.5,226.5l4.8,12.1l-4.4,7.8c0,0-2.2,9-2,10.9c0.1,0.7,1.9,1.7,3.3,4.8c0.7,1.3,2,2.1,3.5,2.1
						c1.1,0.2,1.8,0.8,4.1,1.7c0.4,0.1,4-1.4,4.6-2c0.4-0.4,3.4-3.4,3.5-4.8c0-1.2-0.2-2.4-0.8-3.5c-0.5-1.2-1.1-1.4-1.7-1.2
						c-0.8,0.3-1.1,1.5-0.7,4c0,0-1.3,1.6-1.8,1c-0.9-1.1,1.5-4.8,2.6-6.3c1.8-2.5,3.4-2.8,5.2-8.5c0.3-1.1-0.3-7.6-0.4-8.1
						c-1-4.7-4.7-17.5-4.7-17.5L69.5,226.5z"/>
					<polygon class="st2" points="167.6,150 154.2,215 168.8,221 183.7,189 188.9,156.3 175.4,147.2 					"/>
					<path class="st2" d="M169.9,218.7l-4.5,12.2l4.6,7.7c0,0,2.4,8.9,2.3,10.9c-0.1,0.7-1.8,1.7-3.1,4.9c-0.6,1.3-1.9,2.1-3.4,2.2
						c-1.1,0.2-1.8,0.8-4.1,1.8c-0.4,0.2-4.1-1.3-4.6-1.8c-0.4-0.3-3.5-3.3-3.6-4.7c-0.1-1.2,0.2-2.4,0.7-3.6
						c0.5-1.3,1.1-1.4,1.7-1.2c0.8,0.2,1.2,1.5,0.9,4c0,0,1.4,1.5,1.8,1c0.9-1.2-1.7-4.7-2.8-6.2c-1.9-2.4-3.5-2.7-5.5-8.3
						c-0.4-1.1,0.1-7.6,0.2-8.1c0.9-4.8,4.2-17.6,4.2-17.6L169.9,218.7z"/>
					<path class="st2" d="M125.4,27.8c0.8-1.6,2.8-2.2,4.4-1.4c0,0,0.1,0.1,0.1,0.1c1.6,1,2.1,3.1,1.2,4.7c-0.8,1.6-2.8,2.2-4.4,1.4
						c0,0-0.1-0.1-0.1-0.1C125,31.5,124.4,29.4,125.4,27.8z"/>
					<path class="st2" d="M99.6,29.8c-0.1,1.8-1.7,3.2-3.6,3.1c0,0,0,0,0,0c-1.8-0.2-3.2-1.9-2.9-3.8c0.1-1.8,1.7-3.2,3.6-3.1
						c0,0,0,0,0,0C98.5,26.3,99.8,28,99.6,29.8z"/>
					<path class="st4" d="M128.8,423.9c-0.4,1.7-2,7.3-2.4,9.8c-0.3,2.1,0.3,11.1,0.3,11.1l6,1v-2.8c0,0,2.3,4.1,3.3,4.7
						c1.1,0.7,14.1,3.5,14.1,3.5l10.4-1.3c0.3-1.2,0.3-2.4,0-3.5c-1.1-3.3-10.1-10-12.3-12.7c-1.6-2-2.9-12.5-2.9-12.5
						s-14.4-5-15.5-4.9C128.5,416.2,129.3,421.7,128.8,423.9z"/>
					<polygon class="st5" points="124.4,79.8 100.3,81.4 98,51 125.4,51 					"/>
					<path class="st2" d="M127,10.6H97.1l-1.7,40.1c-0.1,1.2,0.6,2.4,1.8,2.9l8.9,3.5c0.7,0.3,1.2,0.8,1.5,1.5l0,0
						c0.4,1,2.6,1.6,3.6,1.6h2.3c1,0,3.1-0.6,3.6-1.6l0,0c0.3-0.7,0.8-1.2,1.5-1.5l8.9-3.5c1.2-0.5,1.9-1.7,1.8-2.9L127,10.6z"/>
					<path d="M125,14.9c-6.1,3.2-27.8,0.4-27.8,0.4S96.3,0.1,105.5,1c20.9,1.9,17.9-4,17.9-4S134.1,10.2,125,14.9z"/>
					<path d="M97.6,25.1l-1.3,2.1l-2.7-8.3c-1.2-6-0.8-10.5,4-13.7l2-1.6v15.2C99.6,21.1,98.9,23.3,97.6,25.1z"/>
					<path d="M126.9,5.9c0,0,4.8,0.6,5.8,2c3.3,4.6-4.7,20.7-4.7,20.7s-0.9-2.3-1.9-4.2C124,20.3,126.9,5.9,126.9,5.9z"/>
					<path class="st4" d="M85.1,432.4c-0.5,2.1-2.7,8-2.7,8s-6.5,5.9-7.5,8.5c-0.5,1.4,0,4.8,0,4.8H88c4,0,7.5-1.7,8.9-3.5
						c1-1.7,1.8-3.5,2.4-5.4l3.7-0.9c0.7-0.2,1.1-0.9,1-1.6l-3.1-20.5H86.4C86.4,421.8,85.7,429.8,85.1,432.4z"/>
					<path class="st6" d="M74.1,188.9l-8.7,34.5c0,0,0.8,18.2,1.5,24.3c1.7,16.1,7,91.1,7,91.1l9.8,90.4l4.4,1.3l16.9-1.6l2.1-82.3
						l-2-21.6l7.9-66.6c0,0,4.8,32,8.4,57.8c0.5,3.5,2.3,12.8,2.3,12.8l-0.3,18l2.5,78.3l15.6,3.3l5.8-2.2l6.8-87.9
						c0,0,2.5-6.3,2.6-8c1.5-25.7,1.5-101.7,1.5-101.7l-11.2-29l-37.9,2.6L74.1,188.9z"/>
					<polygon class="st7" points="92.2,70.8 112.5,81.2 133.8,69.9 112.8,122.2 					"/>
					<path class="st7" d="M160.5,69.4c3.2-0.6,5.9,6.9,8.3,10.1c10,13.1,14.3,51.5,21.5,70.1c1,2.5-0.8,9.3-0.8,9.3
						s-10.5-4.1-15.5-3.1c-2,0.4-9.7,4.4-9.7,4.4c-16.9-44-20.5-33.8-18.3-57.1C146.8,94.1,151.6,71.1,160.5,69.4z"/>
					<path class="st7" d="M64.2,68.4c-3.2,0.5-7.6,13.1-9,17c-5.6,15.7-9.5,49.2-10.8,69.2c-0.2,2.7,4,16.4,4,16.4
						s8.7-10.6,13.2-10.2c2.1,0.2,11.2,3.2,11.2,3.2s6.6-49.6,4-63.8C75.2,91.2,73.1,67.1,64.2,68.4z"/>
					<path class="st4" d="M72.3,195.6c-0.7-7.2-1.7-42.9-2.2-47.4c-0.4-4.3-1.8-23.9-1-31.7c1.1-11.2-5-48.1-5-48.1l30.1,0
						l18.3,46.8l18.9-48.4l29.5,2.6c0,0-13.7,54.3-6.2,68.3c1.2,2.2-3.1,23.8-3,31.3c0.1,7.3-2.3,24.8-3.2,28.1
						c-0.4,1.7,0.8,8.8,0.8,8.8s-30.9,3.5-41.2,2.7"/>
					<polygon class="st8" points="89.2,69.9 97.2,59.5 112.5,81.2 108.7,88.4 					"/>
					<polygon class="st8" points="112.5,81.2 126.6,60.9 135.8,67.6 116.8,89.9 					"/>
				</g>
			</g>
		</g>
	</g>
</g>
</svg>
