<?xml version="1.0" encoding="utf-8"?>
<!-- Generator: Adobe Illustrator 23.0.2, SVG Export Plug-In . SVG Version: 6.00 Build 0)  -->
<svg version="1.1" id="Layer_1" xmlns="http://www.w3.org/2000/svg" xmlns:xlink="http://www.w3.org/1999/xlink" x="0px" y="0px"
	 viewBox="0 0 1138.11 1200" style="enable-background:new 0 0 1138.11 1200;" xml:space="preserve">
<style type="text/css">
	.st0{fill:#353635;}
	.st1{fill:#D2D2D2;}
	.st2{fill:#777777;}
	.st3{fill:#4E4D4D;}
	.st4{opacity:0.3;fill:#D2D2D2;}
	.st5{opacity:0.3;}
	.st6{fill:#3B70B7;}
	.st7{fill:#FFFFFF;}
	.st8{fill:#EF9622;}
	.st9{fill:#ED4847;}
	.st10{fill:#354053;}
	.st11{fill:#F8EC22;}
	.st12{fill-rule:evenodd;clip-rule:evenodd;fill:#8B8B8B;}
	.st13{fill:#8B8B8B;}
</style>
<polygon class="st0" points="398.37,559.23 177.24,559.23 398.37,543.13 "/>
<polygon class="st0" points="398.37,592.26 38.86,592.26 398.37,570.78 "/>
<polygon class="st0" points="404.65,624.3 159.22,620.33 404.52,605.73 "/>
<path class="st1" d="M1086.89,566.69c0,28.14-22.81,50.95-50.95,50.95c-28.14,0-50.95-22.81-50.95-50.95
	c0-28.14,22.81-50.95,50.95-50.95C1064.08,515.74,1086.89,538.55,1086.89,566.69z"/>
<path class="st0" d="M1050.48,489.53c-22.42,1.05-42.29,4.4-61.75,15.08c-18.31,14.24-30.1,36.46-30.1,61.44
	c0,42.97,34.83,77.8,77.81,77.8c42.97,0,77.81-34.84,77.81-77.8C1114.25,527.88,1086.75,496.14,1050.48,489.53z M1036.44,614.14
	c-26.2,0-47.45-21.24-47.45-47.45c0-26.2,21.24-47.45,47.45-47.45c26.2,0,47.45,21.25,47.45,47.45
	C1083.89,592.9,1062.64,614.14,1036.44,614.14z"/>
<g>
	<line class="st2" x1="466.26" y1="557.91" x2="509.7" y2="381.15"/>
	<g>
		<path class="st3" d="M483.8,562.75c14.48-58.92,28.96-117.84,43.44-176.76c5.6-22.78-29.48-32.44-35.08-9.67
			c-14.48,58.92-28.96,117.84-43.44,176.76C443.12,575.86,478.2,585.52,483.8,562.75L483.8,562.75z"/>
	</g>
</g>
<g>
	<g>
		<path class="st0" d="M515.95,543.55c-5.01,6.59-11.41,12.58-18.65,17.29c0.01-0.13,0.05-0.25,0.05-0.38
			c0.02-0.68-0.01-1.35-0.01-2.03c0-0.01,0-0.03,0-0.05c0-0.02,0-0.04,0-0.06c0.04-26.64-16.38-50.9-36.85-66.46
			c-9.74-7.41-19.17,9.08-9.57,16.38c6.54,4.97,12.49,11.31,17.18,18.49c-0.77,0.01-1.54,0.01-2.3,0.05c-0.02,0-0.05-0.01-0.08-0.01
			c-2.34,0-4.61,0.27-6.81,0.75c-22.51,3.54-42.61,18.26-56.13,36.05c-7.41,9.75,9.08,19.18,16.38,9.58
			c4.14-5.44,9.23-10.46,14.94-14.71c0,1.79,0.19,3.52,0.47,5.23c2.26,24.19,17.69,45.95,36.57,60.3
			c9.74,7.41,19.18-9.08,9.58-16.38c-6.27-4.76-12-10.8-16.59-17.6c0.33,0.01,0.66-0.01,0.98-0.01c0.21,0,0.41,0.03,0.61,0.03
			c0.25,0,0.5-0.03,0.75-0.04c26.4-0.21,50.41-16.54,65.85-36.84C539.74,543.38,523.25,533.94,515.95,543.55z"/>
		<path class="st4" d="M480.18,557.91c0,7.69-6.23,13.92-13.92,13.92c-7.69,0-13.92-6.23-13.92-13.92c0-7.68,6.23-13.92,13.92-13.92
			C473.95,544,480.18,550.23,480.18,557.91z"/>
	</g>
	<path class="st0" d="M467.56,458.72c-53.83,0-97.46,43.64-97.46,97.46s43.63,97.46,97.46,97.46c53.82,0,97.45-43.63,97.45-97.46
		S521.38,458.72,467.56,458.72z M467.56,608.87c-29.1,0-52.69-23.59-52.69-52.69c0-29.1,23.59-52.69,52.69-52.69
		c29.1,0,52.69,23.59,52.69,52.69C520.25,585.28,496.66,608.87,467.56,608.87z"/>
</g>
<g class="st5">
	<path class="st1" d="M531.87,556.18c-0.88,35.7-28.61,63.44-64.31,64.31c-35.7,0.88-63.47-29.93-64.32-64.31
		c-0.88-35.7,29.93-63.47,64.32-64.31C503.26,490.99,531.03,521.8,531.87,556.18c0.1,3.9,6.16,3.91,6.06,0
		c-0.96-39.03-31.34-69.42-70.37-70.37c-39.03-0.96-69.46,32.78-70.38,70.37c-0.96,39.03,32.78,69.45,70.38,70.37
		c39.03,0.96,69.45-32.78,70.37-70.37C538.03,552.27,531.97,552.28,531.87,556.18z"/>
</g>
<g>
	<path class="st3" d="M540.53,584.69c43.27,12.25,94.98,1.32,113.46-44.13c2.95-7.25-8.79-10.37-11.69-3.23
		c1.02-2.51-0.33,0.62-0.64,1.24c-1,2.02-2.14,3.96-3.33,5.87c-4.22,6.83-9.67,12.72-15.76,17.91
		c-22.06,18.8-52.42,18.12-78.81,10.64C536.21,570.86,533.02,582.56,540.53,584.69L540.53,584.69z"/>
</g>
<g>
	<path class="st3" d="M390.47,550.5c-1.48,8.36,4.1,16.33,12.45,17.81l53.78,9.52c8.35,1.48,16.33-4.09,17.8-12.45l2.88-16.24
		c1.48-8.36-4.09-16.32-12.45-17.81l-53.78-9.52c-8.35-1.48-16.33,4.09-17.8,12.45L390.47,550.5z"/>
	<g>
		<path class="st3" d="M384.41,550.5c-2.13,28.38,38.29,27.44,57.43,30.83c10.24,1.81,19.72,4.67,29.4-0.8
			c10.03-5.67,10.23-19.85,11.99-29.78c5.15-29.1-36.61-28.79-55.1-32.06c-8.58-1.52-20.78-5.64-28.96-1.02
			c-12.02,6.79-12.38,18.98-14.55,31.23c-1.35,7.64,10.33,10.92,11.69,3.22c1.14-6.46,1.12-16.19,5.4-21.57
			c4.42-5.55,15.62-1.51,21.07-0.54c9.1,1.61,18.19,3.22,27.29,4.83c7.53,1.34,20.21,1.24,21.47,11.2
			c0.72,5.69-1.77,18.48-5.41,23.06c-4.64,5.83-17.53,1.17-23.19,0.17c-9.06-1.6-18.13-3.21-27.19-4.81
			c-8.72-1.55-20.14-1.62-19.22-13.95C397.12,542.7,384.99,542.76,384.41,550.5z"/>
	</g>
</g>
<g>
	<g>
		<path class="st1" d="M539.98,582.49c-2.8,15.83-17.9,26.38-33.73,23.58l-75.54-13.37c-15.83-2.8-26.38-17.91-23.58-33.73
			l4.54-25.63c2.8-15.83,17.9-26.38,33.73-23.58l75.54,13.38c15.83,2.8,26.38,17.91,23.58,33.73L539.98,582.49z"/>
		<g>
			<path class="st2" d="M534.14,580.88c-4.84,20.43-21.76,20.15-38.07,17.25c-14.72-2.6-29.43-5.21-44.15-7.81
				c-11.66-2.06-25.01-2.47-33.72-11.38c-10.47-10.71-2.93-31.26-0.68-43.98c3.66-20.7,22.34-20.05,38.08-17.26
				c14.72,2.6,29.43,5.21,44.15,7.82c11.66,2.07,25.01,2.47,33.72,11.38C543.93,547.6,536.39,568.16,534.14,580.88
				c-1.35,7.64,10.33,10.92,11.69,3.22c2.54-14.32,8.84-32.54,2.19-46.45c-8.01-16.73-22.71-19.87-39.09-22.78
				c-17.82-3.15-35.63-6.31-53.44-9.46c-16.17-2.86-33.74-2.89-43.9,12.78c-8.01,12.35-10.88,32.83-10.92,47.48
				c-0.04,19.59,16.85,30.82,34.04,33.86c17.47,3.09,34.95,6.19,52.42,9.28c15.34,2.72,29.61,6.58,43.94-2.31
				c7.96-4.94,12.67-13.55,14.77-22.4C547.63,576.49,535.94,573.27,534.14,580.88z"/>
		</g>
	</g>
</g>
<g>
	<path class="st3" d="M389.75,531.76c2.24,0.4,4.48,0.79,6.72,1.19c-1.41-2.48-2.82-4.97-4.23-7.46
		c-1.62,9.12-3.23,18.25-4.85,27.37c2.49-1.41,4.97-2.82,7.46-4.24c-2.24-0.39-4.48-0.79-6.72-1.19
		c-7.65-1.35-10.92,10.33-3.22,11.69c2.24,0.39,4.48,0.79,6.72,1.19c3,0.53,6.85-0.77,7.46-4.23c1.61-9.12,3.23-18.25,4.84-27.37
		c0.53-3-0.77-6.84-4.23-7.46c-2.24-0.39-4.48-0.79-6.72-1.19C385.33,518.72,382.06,530.4,389.75,531.76L389.75,531.76z"/>
</g>
<path class="st0" d="M541.43,518.81c0,26.43,21.43,47.86,47.86,47.86c26.43,0,47.86-21.43,47.86-47.86
	c0-26.44-21.43-47.86-47.86-47.86C562.86,470.94,541.43,492.37,541.43,518.81z"/>
<path class="st0" d="M502.89,455.89c0,26.43,21.43,47.86,47.86,47.86c26.43,0,47.86-21.43,47.86-47.86
	c0-26.44-21.43-47.86-47.86-47.86C524.32,408.03,502.89,429.45,502.89,455.89z"/>
<path class="st6" d="M960.2,430.37c-29.57,0-58.92-3.9-87.3-11.56c-4.36,20.98-14.61,41.81-30.74,49.21
	c-7.43,3.41-11.99,4.76-32.34,4.76c-11.8-0.01-23.95-0.01-36.99-0.02v7.65c-17.55,0-35.17-0.01-49.39-0.02
	c-25.59,0-54.39-39.54-54.39-74.08c0-36.94,18.4-60.17,10.22-66.24c-61.65-45.83-256.36-25.26-256.36-25.26l-24.84,13.08v42.88
	l13.41,22.23l-11.13,16.01l-62.23,81.94l28.7-2.83l36.42-40.88l12.99-4.17l27.55-20.62c87.76,30.56,138.67,60.24,181.97,89.88
	c0,22.96,10.43,58.17,19.86,58.18c0,0,233.99-7.51,244.12-7.51c39.61,0,48.77-24.36,88.66-97.01c9.87-17.98,17.81-29.75,23.48-38.25
	C988.05,429.46,974.09,430.37,960.2,430.37z"/>
<g>
	<path class="st7" d="M951.89,297.53v117.84c32.54,0,58.92-26.38,58.92-58.92C1010.81,323.91,984.43,297.53,951.89,297.53z"/>
	<g>
		<path class="st3" d="M945.82,297.53c0,39.28,0,78.56,0,117.84c0,3.24,2.76,6.15,6.06,6.06c36.11-1.01,63.97-28.87,64.98-64.98
			c1.01-36.1-30.38-64.02-64.98-64.99c-7.82-0.22-7.8,11.91,0,12.13c29.42,0.82,52.04,23.44,52.86,52.86
			c0.82,29.42-24.67,52.07-52.86,52.86c2.02,2.02,4.04,4.04,6.06,6.06c0-39.28,0-78.56,0-117.84
			C957.95,289.71,945.82,289.71,945.82,297.53z"/>
	</g>
</g>
<path class="st6" d="M1016.98,387.71c0-9.7-12.19-12.22-19.1-12.48c-20.45-32.99-11.19-68.89-11.19-68.89
	c0-7.5-6.08-13.58-13.58-13.58c-2.39,0-4.64,0.62-6.59,1.71c-10.73-20.66-19.79-30.67-30.1-45.27
	c-9.27-13.13-19.04-25.58-34.73-22.09l-27.22,6.06c-14.95,3.32-24.6,17.6-22.46,32.5v108.79c0,0.36,0.04,0.7,0.05,1.05
	c-0.02,0.35-0.05,0.69-0.05,1.05v12.03c0,17.77,23.05,22.1,23.05,22.1c-0.02,0.25-0.05,0.52-0.07,0.77
	c27.13,7.48,55.7,11.49,85.21,11.49c16.96,0,33.59-1.36,49.84-3.9C1010.04,419.03,1016.98,417.82,1016.98,387.71z"/>
<g>
	<path class="st6" d="M1079.59,452.81c-11.72-16.98-32.35-26.68-63.89-26.68c-1.15,0-2.28,0.04-3.39,0.11
		c-1.88,3.16-4.1,6.49-6.56,10.17c-5.51,8.25-13.06,19.55-22.3,36.38c-4.92,8.96-9.14,16.8-12.83,23.67
		c-8.05,14.96-13.76,25.55-18.98,33.29h0c42.03-42.58,81.96-43.04,133.61-43.04C1089.81,486.7,1085.05,460.73,1079.59,452.81z"/>
	<g>
		<path class="st6" d="M1084.82,449.75c-8.41-11.57-19.07-19.1-32.39-24.17c-7.95-3.02-16.53-4.17-24.94-5.03
			c-5.32-0.54-16.91-3.08-20.42,2.62c-10.37,16.8-21.41,32.97-30.92,50.32c-9.74,17.78-18.6,36.24-29.75,53.19
			c-2.57,3.9,0.83,9.12,5.24,9.12c5.87,0,12.14-9.3,16.25-12.83c8.61-7.39,18.41-13.26,28.65-18.08
			c17.69-8.33,37.68-10.69,56.98-11.66c9.34-0.47,18.71-0.46,28.05-0.47c5.59-0.01,9.36-0.84,11.11-6.64
			C1095.85,475.61,1090.24,458.69,1084.82,449.75c-4.05-6.67-14.53-0.58-10.47,6.12c3.16,5.21,4.51,11.23,5.73,17.13
			c0.55,2.67,0.8,5.36,0.92,8.08c-0.21,2.66-0.02,2.51,0.57-0.44c-2.41,0-4.82,0.01-7.22,0.02c-15.15,0.06-30.41,0.41-45.41,2.7
			c-14.52,2.21-28.24,6.23-41.53,12.48c-7.43,3.49-14.31,8.04-20.91,12.88c-2.46,1.8-4.82,3.76-7.19,5.68
			c-0.91,0.74-11.33,9.28-7.68,9.28c1.75,3.04,3.49,6.08,5.24,9.12c10.4-15.8,18.75-32.95,27.77-49.55
			c10.11-18.62,21.8-35.97,32.9-53.96c-1.75,1-3.49,2-5.24,3c22.84-0.7,47.83,4.01,62.05,23.57
			C1078.9,462.13,1089.43,456.09,1084.82,449.75z"/>
	</g>
</g>
<path class="st6" d="M873.01,151.65c0,0-47.91,12.54-47.91,31.17c0,17.95,9.12,37.42,9.12,37.42c1.87,7.67,9.6,12.37,17.27,10.49
	l45.92-10.96l-0.18-9.52l40.27-14.58C937.51,195.67,923.56,151.65,873.01,151.65z"/>
<g>
	<path class="st3" d="M861.75,120.56c0,4.49,0,8.98,0,13.47c1.49-1.95,2.97-3.9,4.45-5.85c-19.44,5.98-50.05,15.99-57.35,37.17
		c-2.55,7.42,9.16,10.57,11.69,3.23c3.5-10.14,17.84-16.02,26.72-20.2c7.13-3.35,14.62-6.18,22.15-8.5c2.59-0.8,4.45-3.09,4.45-5.85
		c0-4.49,0-8.98,0-13.47C873.88,112.74,861.75,112.74,861.75,120.56L861.75,120.56z"/>
</g>
<path class="st6" d="M876.35,205.41c0-19.59-11-36.6-27.15-45.22c-12.03,5.46-24.1,13.28-24.1,22.64c0,17.95,9.12,37.42,9.12,37.42
	c1.87,7.67,9.6,12.37,17.27,10.49l20.61-4.92C874.83,219.56,876.35,212.67,876.35,205.41z"/>
<g>
	<path class="st6" d="M871.4,145.81c-13.29,3.53-26.75,8.71-38.25,16.29c-19.66,12.98-14.49,33.7-7.43,53.25
		c5.77,15.99,14.53,24.29,32.17,20.08c13.71-3.28,27.43-6.55,41.14-9.82c2.57-0.61,4.5-3.23,4.45-5.85
		c-0.06-3.17-0.12-6.35-0.18-9.52c-1.49,1.95-2.97,3.9-4.45,5.85c13.42-4.86,26.85-9.72,40.27-14.58c3.02-1.09,5.28-4.12,4.23-7.46
		c-9.53-30.49-39.71-47.83-70.34-48.46c-7.82-0.16-7.81,11.97,0,12.13c25.09,0.51,50.76,14.31,58.65,39.56
		c1.41-2.49,2.82-4.97,4.23-7.46c-13.42,4.86-26.85,9.72-40.27,14.58c-2.53,0.92-4.51,3-4.45,5.85c0.06,3.17,0.12,6.35,0.18,9.52
		c1.48-1.95,2.97-3.9,4.45-5.85c-9.17,2.19-18.35,4.38-27.52,6.58c-12.01,2.87-23.83,9.11-30.02-6.15
		c-4.08-10.05-6.73-20.67-7.1-31.52c-0.22-6.45,9.71-11.43,14.29-14.02c9.01-5.09,19.18-8.64,29.17-11.3
		C882.17,155.49,878.97,143.8,871.4,145.81z"/>
</g>
<path class="st3" d="M857.42,205.41c0,11.8-9.56,21.36-21.36,21.36c-11.8,0-21.36-9.56-21.36-21.36c0-11.8,9.56-21.36,21.36-21.36
	C847.86,184.05,857.42,193.62,857.42,205.41z"/>
<g>
	<path class="st3" d="M851.36,205.41c-1.06,19.72-29.53,19.72-30.59,0C819.71,185.68,850.3,185.79,851.36,205.41
		c0.42,7.78,12.55,7.82,12.13,0c-0.84-15.5-11.92-26.58-27.42-27.42c-15.47-0.83-26.65,13.17-27.42,27.42
		c-0.83,15.47,13.17,26.66,27.42,27.42c15.47,0.83,26.65-13.18,27.42-27.42C863.9,197.59,851.78,197.63,851.36,205.41z"/>
</g>
<g>
	<path class="st3" d="M856.57,169.6c-3.12-17.48-6.24-34.96-9.36-52.44c-0.78-4.37-0.61-11.49-4.33-14.61
		c-7.03-5.93-14.07-11.85-21.1-17.77c-5.94-5-14.56,3.53-8.57,8.57c6.36,5.36,12.73,10.72,19.09,16.08c4.55,3.83,0.93-1.87,1.5,1.35
		c0.68,3.83,1.37,7.65,2.05,11.48c3.01,16.85,6.02,33.7,9.03,50.56C846.25,180.51,857.94,177.25,856.57,169.6L856.57,169.6z"/>
</g>
<g>
	<path class="st3" d="M799.14,63.21c0,17.24,0,34.48,0,51.72c0,3.02,2.77,6.44,6.06,6.06c17.87-2.06,17.79-16.67,17.79-30.91
		c0-14.69,1-30.76-17.79-32.93c-7.76-0.89-7.68,11.24,0,12.13c8.1,0.93,5.67,14.08,5.67,18.79c0,4.83,2.73,19.84-5.67,20.8
		c2.02,2.02,4.04,4.04,6.06,6.06c0-17.24,0-34.48,0-51.72C811.26,55.39,799.14,55.39,799.14,63.21z"/>
</g>
<path class="st8" d="M625.88,509.19c-0.04-0.97-0.09-1.96-0.1-2.9C625.8,507.24,625.83,508.21,625.88,509.19z"/>
<path class="st8" d="M906.92,231.97c0.19,0,0.38-0.01,0.56,0C907.3,231.97,907.11,231.97,906.92,231.97z"/>
<path class="st8" d="M904.11,232.15c0.37-0.04,0.73-0.07,1.08-0.1C904.84,232.07,904.48,232.1,904.11,232.15z"/>
<path class="st3" d="M903.54,232.2c0,0.01,0,0.03-0.01,0.04c0.19-0.03,0.39-0.07,0.57-0.1C903.92,232.17,903.75,232.18,903.54,232.2
	z"/>
<path class="st3" d="M907.49,231.97c2.42,0.06,4.69,0.54,6.84,1.34C912.82,232.7,910.64,232.02,907.49,231.97z"/>
<path class="st3" d="M626.57,517.86c0.04,0.01,0.09,0.02,0.13,0.03c-0.39-2.98-0.67-5.9-0.82-8.7
	C626,511.99,626.2,514.87,626.57,517.86z"/>
<path class="st3" d="M625.76,505.66c0,0.2,0.02,0.43,0.02,0.64c-0.01-0.21-0.01-0.42-0.01-0.63
	C625.77,505.66,625.76,505.66,625.76,505.66z"/>
<path class="st3" d="M905.19,232.05c0.58-0.04,1.16-0.07,1.73-0.07C906.37,231.98,905.8,232,905.19,232.05z"/>
<g>
	<path class="st6" d="M1023.05,387.71c-1.72-13.32-12.89-17.71-25.16-18.55c1.74,1,3.49,2,5.23,3
		c-11.02-18.86-15.17-41.33-10.89-62.85c3.15-15.81-13.52-26.27-27.32-20.71c2.28,0.93,4.57,1.86,6.85,2.79
		c-6.96-13.09-15.21-25.06-24.04-36.94c-8.18-11-15.29-23.01-27.18-30.41c-13.35-8.31-33.56,0.13-47.44,3.22
		c-36.05,8.02-27.16,55.94-27.16,83.24c0,17.84,0,35.69,0,53.54c0,9.26-1.48,20.01,0.41,28.98c4.3,20.49,26.99,24.74,44.28,28.75
		c35.96,8.35,73.99,9.02,110.51,4.58c7.18-0.87,12.46-0.53,16.58-6.63C1023.52,411.16,1022.93,397.4,1023.05,387.71
		c0.09-7.82-12.03-7.81-12.13,0c-0.08,6.97,1.2,20.01-3.67,25.96c-0.85,1.04,0.72-0.32,1.23-0.5c-0.78,0.28-12.98,1.75-11.82,1.61
		c-9.04,1.1-18.14,1.63-27.24,1.96c-32.19,1.16-64.11-2.9-95.03-11.75c-8.07-2.31-16.31-7.6-16.31-16.92c0-4.74,0-9.48,0-14.22
		c0-11.65,0-23.29,0-34.93c0-17.5,0-35,0-52.5c0-10.59-2.17-26.08,2.41-35.67c6.62-13.86,29.63-14.84,42.82-17.77
		c15.85-3.53,26.3,17.29,33.94,27.62c8.8,11.91,17.07,23.84,24.04,36.94c1.16,2.19,4.44,3.76,6.85,2.79
		c13.22-5.33,12.13,5.66,11.24,13.08c-1.13,9.42-0.97,18.74,0.27,28.15c1.54,11.66,5.39,22.53,10.77,32.94
		c1.75,3.39,3.36,6.54,7.47,6.82c4.24,0.29,12.33,0.96,13.04,6.42C1011.91,395.35,1024.05,395.45,1023.05,387.71z"/>
</g>
<path class="st6" d="M951.89,430.22c-26.75-0.66-53.27-4.49-78.99-11.42c-4.36,20.98-14.61,41.81-30.74,49.21
	c-7.43,3.4-11.99,4.76-32.34,4.76c-25.36-0.01-52.27-0.05-86.38-0.05c-38.35,0-74.13-75.76-44.47-124.14
	c-44,55.66,0.46,163.37,24.51,164.52c23.11,0,144.61,0.02,169.44,0.02c8.42,0,24.12,1.11,31.83-3.33
	c6.68-3.84,11.36-11.15,15.46-17.44c8.45-12.96,16.33-26.49,23.22-40.35C947.29,444.24,950.09,437.28,951.89,430.22z"/>
<path class="st6" d="M874.47,233.19c-14.95,3.33-24.6,17.6-22.46,32.5v108.79c0,0.35,0.04,0.69,0.05,1.04
	c-0.02,0.35-0.05,0.69-0.05,1.05v12.03c0,17.77,21.81,22.48,22.98,22.87c4.69,1.29,21.22,6.3,41.65,8.75
	c-2.31-75.55-59.22-134.97-27.43-190.31C891.09,226.63,874.47,233.19,874.47,233.19z"/>
<path class="st6" d="M842.16,467.52c-7.43,3.4-11.99,4.76-32.34,4.76c-25.36-0.01-52.27-0.05-86.38-0.05
	c-13,0-35.93-12.73-56.94-58.49c-0.35,39.25,24.91,91.92,63.36,91.92H860.1c47.09,0,56.53-78.13,56.53-78.13
	c-5.46-1.18-38.34-7.75-43.74-9.21C868.54,439.29,858.29,460.12,842.16,467.52z"/>
<path class="st0" d="M1055.95,568.09c0,11.05-8.96,20.01-20.01,20.01c-11.05,0-20.01-8.96-20.01-20.01
	c0-11.05,8.96-20.01,20.01-20.01C1046.99,548.08,1055.95,557.04,1055.95,568.09z"/>
<g>
	<g>
		<path class="st9" d="M365.61,331.4c-9.44,0.08-5.79,21.96,1.34,28.16c4.73,4.12,20.83,2.98,20.83,2.98V331.4
			C387.78,331.4,374.91,331.32,365.61,331.4z"/>
		<g>
			<path class="st9" d="M365.61,325.34c-15.85,1.45-12.29,21.72-7.79,31.75c5.25,11.71,18.73,12.25,29.96,11.51
				c3.3-0.22,6.06-2.59,6.06-6.06c0-10.38,0-20.76,0-31.14c0-3.32-2.76-6.04-6.06-6.06C380.39,325.29,373,325.28,365.61,325.34
				c-7.82,0.06-7.82,12.19,0,12.12c7.39-0.06,14.78-0.05,22.17,0c-2.02-2.02-4.04-4.04-6.06-6.06c0,10.38,0,20.76,0,31.14
				c2.02-2.02,4.04-4.04,6.06-6.06c-4.55,0.3-13.76,1.47-17.27-1.9c-2.46-2.36-3.38-6.54-4.1-9.72c-0.44-1.97-0.46-3.99-0.36-6
				c0.1-1.96,1.17-1.54-0.44-1.4C373.33,336.76,373.4,324.63,365.61,325.34z"/>
		</g>
	</g>
</g>
<path class="st10" d="M400.35,408.05l-62.23,81.95l28.7-2.83l36.42-40.88l12.99-4.17l27.55-20.62c0,0-20.99-14.59-32.3-29.46
	C408.76,396.81,400.35,408.05,400.35,408.05z"/>
<g>
	<line class="st6" x1="411.49" y1="392.89" x2="443.79" y2="421.4"/>
	<g>
		<path class="st6" d="M407.2,397.17c10.77,9.51,21.53,19.01,32.3,28.51c5.84,5.16,14.45-3.39,8.57-8.57
			c-10.77-9.5-21.54-19.01-32.31-28.51C409.93,383.45,401.32,391.99,407.2,397.17L407.2,397.17z"/>
	</g>
</g>
<g>
	<path class="st6" d="M960.2,424.3c-29.05-0.2-57.58-3.97-85.69-11.34c-3.08-0.8-6.73,0.99-7.46,4.24
		c-4.33,19.28-12.65,40.92-33.09,47.56c-7.59,2.46-16.29,1.92-24.14,1.96c-12.33,0.07-24.66-0.01-36.99-0.02
		c-3.3,0-6.06,2.76-6.06,6.07c0,2.55,0,5.1,0,7.65c2.02-2.02,4.04-4.04,6.06-6.06c-16.46,0-32.93-0.01-49.39-0.02
		c-13.71,0-25.1-12.3-32.55-22.47c-18.69-25.53-17.97-54.83-9.13-83.88c2.33-7.66,5.69-15.28,6.14-23.36
		c0.45-8.21-7.08-10.47-13.3-12.89c-26.13-10.12-53.88-15.88-81.53-19.9c-46.27-6.73-93.39-7.7-140.03-5.33
		c-9.8,0.5-19.61,1.16-29.37,2.15c-9.62,0.99-20.19,9.54-28.64,13.99c-1.87,0.98-3,3.17-3,5.23c0,13.45,0,26.89,0,40.34
		c0,9.74,9.37,19.77,14.24,27.83c0-2.04,0-4.08,0-6.12c-23.27,33.49-48.7,65.48-73.36,97.96c-2.69,3.54,0.92,9.55,5.24,9.12
		c9.48-0.93,18.96-1.87,28.44-2.8c7.14-0.71,13.7-12.08,17.98-16.89c7.54-8.46,15.08-16.92,22.62-25.39
		c-0.76,0.85-3.04,1.38,1.06,0.07c3.06-0.98,6.12-1.96,9.18-2.94c3.19-1.02,5.86-3.72,8.49-5.69c4.79-3.58,9.58-7.17,14.36-10.75
		c1.73-1.3,3.46-2.6,5.2-3.89c0.8-0.59,6.66,3.08,10.05,4.3c24.01,8.65,47.65,18.32,70.78,29.09c33.7,15.7,65.73,34.5,96.41,55.44
		c-1-1.74-2-3.49-3-5.23c0.36,19.18,3.61,50.12,20.39,62.64c4.41,3.29,13.96,1.33,18.87,1.17c33.74-1.08,67.48-2.15,101.22-3.21
		c36.07-1.13,72.14-2.28,108.21-3.32c24.27-0.7,47.29,0.26,65.62-18.69c13.27-13.72,22.26-31.82,31.36-48.36
		c13.38-24.31,26.33-48.66,41.75-71.76c2.38-3.56-0.7-9.66-5.24-9.12C988.02,423.31,974.16,424.2,960.2,424.3
		c-7.82,0.06-7.82,12.18,0,12.12c13.96-0.1,27.82-0.99,41.68-2.62c-1.75-3.04-3.49-6.08-5.24-9.12
		c-17.4,26.07-31.68,53.79-46.94,81.12c-9.55,17.1-19.86,37.72-38.07,47.02c-9.39,4.8-20.43,4.04-30.68,4.31
		c-13.02,0.35-26.04,0.74-39.07,1.14c-65.04,1.97-130.07,4.05-195.1,6.14c-8.92,0.29-14.1-38.28-14.74-45.85
		c-0.29-3.4,0.68-7.83-2.01-10.52c-3.43-3.43-8.58-5.94-12.61-8.61c-8.8-5.84-17.75-11.45-26.8-16.89
		c-45.7-27.47-95-48.33-145.23-65.94c-4.05-1.42-8.46,3.45-11.27,5.55c-6.18,4.63-12.37,9.26-18.56,13.89
		c-3,2.25-7.73,3.36-13.5,5.21c-3.57,1.15-5.83,4.74-8.22,7.43c-9.73,10.92-19.46,21.85-29.19,32.77c-2.95,3.31-2.37,1.06,1.9,0.64
		c-3.13,0.31-6.26,0.62-9.39,0.92c-6.35,0.63-12.7,1.25-19.05,1.88c1.75,3.04,3.49,6.08,5.24,9.12
		c24.66-32.47,50.09-64.47,73.36-97.96c1.2-1.72,1.05-4.38,0-6.12c-2.82-4.67-5.64-9.35-8.46-14.02c-1.48-2.45-2.96-4.9-4.43-7.35
		c-1.43-2.37,0.31,3.77,0.31,1.54c0-1.06,0-2.13,0-3.19c0-13.01,0-26.01,0-39.02c-1,1.75-2,3.49-3,5.24
		c5.5-2.9,10.99-5.79,16.49-8.69c2.71-1.43,5.42-2.85,8.13-4.28c-2.78,1.46-3.55,0.77-1.19,0.54c10.88-1.09,21.81-1.75,32.73-2.28
		c47.67-2.3,95.86-0.82,143.03,6.7c12.8,2.04,25.49,4.73,38.06,7.91c3.86,0.98,37.18,8.93,37.38,11.58
		c0.6,8.03-5.33,18.68-7.53,26.27c-3.92,13.59-6,28.03-4.91,42.16c1.85,23.77,15.16,47.75,33.5,62.72
		c20.62,16.84,51.32,10.7,76,10.7c3.3,0,6.06-2.76,6.06-6.07c0-2.55,0-5.1,0-7.65c-2.02,2.02-4.04,4.04-6.06,6.06
		c21.75,0.01,48.67,4.42,69.27-4.2c21.77-9.12,31.79-32.55,36.65-54.19c-2.49,1.41-4.97,2.82-7.46,4.23
		c29.11,7.64,58.81,11.56,88.91,11.77C968.02,436.48,968.02,424.36,960.2,424.3z"/>
</g>
<g>
	<polygon class="st11" points="436.44,366.42 414.31,366.23 414.31,336.07 436.44,346.99 	"/>
	<g>
		<path class="st11" d="M436.44,360.35c-7.38-0.06-14.75-0.13-22.13-0.19c2.02,2.02,4.04,4.04,6.06,6.06c0-10.05,0-20.1,0-30.16
			c-3.04,1.75-6.08,3.49-9.12,5.23c7.38,3.64,14.75,7.28,22.13,10.92c-1-1.74-2-3.49-3-5.23c0,6.48,0,12.95,0,19.43
			c0,7.82,12.13,7.82,12.13,0c0-6.48,0-12.95,0-19.43c0-2.02-1.13-4.31-3-5.24c-7.38-3.64-14.75-7.28-22.13-10.92
			c-4.04-1.99-9.12,0.39-9.12,5.23c0,10.05,0,20.1,0,30.16c0,3.33,2.76,6.04,6.06,6.06c7.38,0.06,14.75,0.13,22.13,0.19
			C444.27,372.55,444.26,360.42,436.44,360.35z"/>
	</g>
</g>
<g>
	<path class="st12" d="M654.73,277.32c-0.84-0.33-1.71-0.14-2.59,0.15c-44.14,1.34-84.25-10.33-90.73-13.8
		c-23.93-12.78-104.37-18.5-123.53-6.45c-14.39,9.05-13.98,80.5,13.25,72.73c79.25-22.61,153.87-5.86,173.11-0.32
		c29.25,8.42,57.89,32.07,60.07,32.87c17.85,6.5,27.89-10.11,32.84-17.69C719.35,341.46,734.59,278.23,654.73,277.32z"/>
	<g>
		<path class="st13" d="M653.34,271.22c-28.9,1.63-59.7-2.27-87.18-11.59c-17.87-6.06-34.24-10.98-53.26-13.2
			c-21.96-2.56-45.18-3.52-66.97,0.92c-15.76,3.21-21.43,13.34-23.79,28.55c-2.53,16.28-1.77,35.74,6.8,50.26
			c3.14,5.32,8.38,9.39,14.56,10.19c4.37,0.57,8.33-0.72,12.53-1.88c10.54-2.91,21.31-4.94,32.1-6.64
			c53.58-8.46,118.22-5.37,166.06,22.71c17.03,9.99,32.76,28.37,53.07,13.6c10.43-7.59,15.66-17.96,16.91-30.3
			c1.39-13.76-2.06-28.49-10.68-39.43C699.15,276.24,675.24,271.74,653.34,271.22c-7.82-0.19-7.81,11.94,0,12.12
			c21.31,0.51,44.86,5.13,55.14,25.95c4.6,9.31,4.9,21.45,2.32,31.39c-0.83,3.2-6.91,10.98-11.77,14.51
			c-10.36,7.53-19.58-2.61-27.68-8.1c-19.82-13.42-40.85-22.62-64.21-27.5c-26.76-5.59-54.27-7.69-81.57-7.09
			c-16.69,0.37-33.31,2.3-49.74,5.15c-9.35,1.62-18.56,3.91-27.69,6.43c-3.97,1.1-6.56-0.84-8.74-4.03
			c-9.28-13.58-7.84-37.32-2.96-52.17c4.95-15.08,37.6-11.4,49.6-11.15c24.57,0.5,50.03,3.21,72.73,12.98
			c28.16,12.12,64.39,15.36,94.57,13.65C661.11,282.9,661.15,270.77,653.34,271.22z"/>
	</g>
	<g>
		<path class="st13" d="M661.48,293.67c-39,7.21-84.56-15.38-115.3-38.92c-6.21-4.76-12.24,5.78-6.12,10.47
			c33.5,25.66,80.97,48.21,124.64,40.15C672.39,303.95,669.12,292.26,661.48,293.67L661.48,293.67z"/>
	</g>
</g>
<g>
	<g>
		<g>
			<path class="st11" d="M939.93,336.38l14.47,40.24c11.11-3.99,16.88-16.24,12.88-27.36C963.29,338.16,951.04,332.39,939.93,336.38
				z"/>
			<g>
				<path class="st11" d="M934.08,338c4.82,13.41,9.65,26.83,14.47,40.24c1,2.79,4.24,5.58,7.46,4.23
					c14.14-5.91,21.68-19.79,17.12-34.82c-4.44-14.64-20.9-21.34-34.81-17.12c-7.46,2.26-4.28,13.97,3.22,11.69
					c18.66-5.66,29.73,20.83,11.25,28.55c2.49,1.41,4.97,2.82,7.46,4.23c-4.82-13.42-9.65-26.83-14.47-40.24
					C943.15,327.47,931.43,330.62,934.08,338z"/>
			</g>
		</g>
	</g>
</g>
</svg>
