<?xml version="1.0" encoding="utf-8"?>
<!-- Generator: Adobe Illustrator 23.0.1, SVG Export Plug-In . SVG Version: 6.00 Build 0)  -->
<svg version="1.1" id="Layer_1" xmlns="http://www.w3.org/2000/svg" xmlns:xlink="http://www.w3.org/1999/xlink" x="0px" y="0px"
	 viewBox="0 0 500 400" style="enable-background:new 0 0 500 400;" xml:space="preserve">
<style type="text/css">
	.st0{fill:#4E4D4D;}
	.st1{fill:#353635;}
	.st2{fill:#D2D2D2;}
	.st3{fill:none;}
	.st4{opacity:0.3;fill:#D2D2D2;enable-background:new    ;}
	.st5{opacity:0.3;}
	.st6{fill:#777777;}
	.st7{fill:#3B70B7;}
	.st8{fill:#FFFFFF;}
	.st9{fill:#EF9622;}
	.st10{fill:#ED4847;}
	.st11{fill:#354053;}
	.st12{fill:#F8EC22;}
	.st13{fill-rule:evenodd;clip-rule:evenodd;fill:#8B8B8B;}
	.st14{fill:#8B8B8B;}
</style>
<g>
	<path class="st0" d="M542.7-279.4c0,4.5,0,9,0,13.5c1.5-1.9,3-3.9,4.5-5.9c-19.4,6-50,16-57.3,37.2c-2.5,7.4,9.2,10.6,11.7,3.2
		c3.5-10.1,17.8-16,26.7-20.2c7.1-3.4,14.6-6.2,22.2-8.5c2.6-0.8,4.5-3.1,4.5-5.9c0-4.5,0-9,0-13.5
		C554.8-287.3,542.7-287.3,542.7-279.4L542.7-279.4z"/>
</g>
<g>
	<path class="st0" d="M537.5-230.4c-3.1-17.5-6.2-35-9.4-52.4c-0.8-4.4-0.6-11.5-4.3-14.6c-7-5.9-14.1-11.8-21.1-17.8
		c-5.9-5-14.6,3.5-8.6,8.6c6.4,5.4,12.7,10.7,19.1,16.1c4.5,3.8,0.9-1.9,1.5,1.4c0.7,3.8,1.4,7.6,2,11.5c3,16.8,6,33.7,9,50.6
		C527.2-219.5,538.9-222.8,537.5-230.4L537.5-230.4z"/>
</g>
<g>
	<path class="st0" d="M480.1-336.8c0,17.2,0,34.5,0,51.7c0,3,2.8,6.4,6.1,6.1c17.9-2.1,17.8-16.7,17.8-30.9c0-14.7,1-30.8-17.8-32.9
		c-7.8-0.9-7.7,11.2,0,12.1c8.1,0.9,5.7,14.1,5.7,18.8c0,4.8,2.7,19.8-5.7,20.8c2,2,4,4,6.1,6.1c0-17.2,0-34.5,0-51.7
		C492.2-344.6,480.1-344.6,480.1-336.8z"/>
</g>
<g>
	<polygon class="st1" points="172.5,346 78,346 172.5,339.1 	"/>
	<polygon class="st1" points="172.5,360.1 19,360.1 172.5,350.9 	"/>
	<polygon class="st1" points="175.2,373.8 70.4,372.1 175.1,365.8 	"/>
	<path class="st2" d="M466.5,349.2c0,12-9.7,21.8-21.8,21.8c-12,0-21.8-9.7-21.8-21.8s9.7-21.8,21.8-21.8
		C456.7,327.4,466.5,337.2,466.5,349.2z"/>
	<path class="st1" d="M450.9,316.2c-9.6,0.4-18.1,1.9-26.4,6.4c-7.8,6.1-12.9,15.6-12.9,26.2c0,18.3,14.9,33.2,33.2,33.2
		c18.3,0,33.2-14.9,33.2-33.2C478.2,332.6,466.4,319,450.9,316.2z M444.9,369.4c-11.2,0-20.3-9.1-20.3-20.3
		c0-11.2,9.1-20.3,20.3-20.3c11.2,0,20.3,9.1,20.3,20.3C465.2,360.4,456.1,369.4,444.9,369.4z"/>
	<g>
		<line class="st3" x1="201.5" y1="345.4" x2="220" y2="269.9"/>
		<g>
			<path class="st0" d="M209,347.5c6.2-25.2,12.4-50.3,18.5-75.5c2.4-9.7-12.6-13.9-15-4.1c-6.2,25.2-12.4,50.3-18.5,75.5
				C191.6,353.1,206.6,357.2,209,347.5L209,347.5z"/>
		</g>
	</g>
	<g>
		<g>
			<path class="st1" d="M222.7,339.3c-2.1,2.8-4.9,5.4-8,7.4c0-0.1,0-0.1,0-0.2c0-0.3,0-0.6,0-0.9c0,0,0,0,0,0c0,0,0,0,0,0
				c0-11.4-7-21.7-15.7-28.4c-4.2-3.2-8.2,3.9-4.1,7c2.8,2.1,5.3,4.8,7.3,7.9c-0.3,0-0.7,0-1,0c0,0,0,0,0,0c-1,0-2,0.1-2.9,0.3
				c-9.6,1.5-18.2,7.8-24,15.4c-3.2,4.2,3.9,8.2,7,4.1c1.8-2.3,3.9-4.5,6.4-6.3c0,0.8,0.1,1.5,0.2,2.2c1,10.3,7.6,19.6,15.6,25.7
				c4.2,3.2,8.2-3.9,4.1-7c-2.7-2-5.1-4.6-7.1-7.5c0.1,0,0.3,0,0.4,0c0.1,0,0.2,0,0.3,0c0.1,0,0.2,0,0.3,0
				c11.3-0.1,21.5-7.1,28.1-15.7C232.8,339.2,225.8,335.2,222.7,339.3z"/>
			<path class="st4" d="M207.4,345.4c0,3.3-2.7,5.9-5.9,5.9c-3.3,0-5.9-2.7-5.9-5.9c0-3.3,2.7-5.9,5.9-5.9
				C204.7,339.5,207.4,342.1,207.4,345.4z"/>
		</g>
		<path class="st1" d="M202,303.1c-23,0-41.6,18.6-41.6,41.6s18.6,41.6,41.6,41.6c23,0,41.6-18.6,41.6-41.6S225,303.1,202,303.1z
			 M202,367.2c-12.4,0-22.5-10.1-22.5-22.5s10.1-22.5,22.5-22.5s22.5,10.1,22.5,22.5C224.5,357.1,214.4,367.2,202,367.2z"/>
	</g>
	<g class="st5">
		<path class="st2" d="M229.5,344.7c-0.4,15.2-12.2,27.1-27.5,27.5c-15.2,0.4-27.1-12.8-27.5-27.5c-0.4-15.2,12.8-27.1,27.5-27.5
			C217.3,316.8,229.1,330,229.5,344.7c0,1.7,2.6,1.7,2.6,0c-0.4-16.7-13.4-29.6-30-30c-16.7-0.4-29.7,14-30.1,30
			c-0.4,16.7,14,29.7,30.1,30c16.7,0.4,29.7-14,30-30C232.1,343,229.5,343,229.5,344.7z"/>
	</g>
	<g>
		<path class="st0" d="M233.2,356.9c18.5,5.2,40.6,0.6,48.4-18.8c1.3-3.1-3.8-4.4-5-1.4c0.4-1.1-0.1,0.3-0.3,0.5
			c-0.4,0.9-0.9,1.7-1.4,2.5c-1.8,2.9-4.1,5.4-6.7,7.6c-9.4,8-22.4,7.7-33.7,4.5C231.3,350.9,230,355.9,233.2,356.9L233.2,356.9z"/>
	</g>
	<g>
		<path class="st0" d="M169.1,342.3c-0.6,3.6,1.8,7,5.3,7.6l23,4.1c3.6,0.6,7-1.7,7.6-5.3l1.2-6.9c0.6-3.6-1.7-7-5.3-7.6l-23-4.1
			c-3.6-0.6-7,1.7-7.6,5.3L169.1,342.3z"/>
		<g>
			<path class="st0" d="M166.5,342.3c-0.9,12.1,16.4,11.7,24.5,13.2c4.4,0.8,8.4,2,12.6-0.3c4.3-2.4,4.4-8.5,5.1-12.7
				c2.2-12.4-15.6-12.3-23.5-13.7c-3.7-0.6-8.9-2.4-12.4-0.4c-5.1,2.9-5.3,8.1-6.2,13.3c-0.6,3.3,4.4,4.7,5,1.4
				c0.5-2.8,0.5-6.9,2.3-9.2c1.9-2.4,6.7-0.6,9-0.2c3.9,0.7,7.8,1.4,11.7,2.1c3.2,0.6,8.6,0.5,9.2,4.8c0.3,2.4-0.8,7.9-2.3,9.8
				c-2,2.5-7.5,0.5-9.9,0.1c-3.9-0.7-7.7-1.4-11.6-2.1c-3.7-0.7-8.6-0.7-8.2-6C171.9,338.9,166.8,339,166.5,342.3z"/>
		</g>
	</g>
	<g>
		<g>
			<path class="st2" d="M232.9,355.9c-1.2,6.8-7.6,11.3-14.4,10.1l-32.3-5.7c-6.8-1.2-11.3-7.6-10.1-14.4l1.9-10.9
				c1.2-6.8,7.6-11.3,14.4-10.1l32.3,5.7c6.8,1.2,11.3,7.6,10.1,14.4L232.9,355.9z"/>
			<g>
				<path class="st6" d="M230.4,355.2c-2.1,8.7-9.3,8.6-16.3,7.4c-6.3-1.1-12.6-2.2-18.9-3.3c-5-0.9-10.7-1.1-14.4-4.9
					c-4.5-4.6-1.3-13.3-0.3-18.8c1.6-8.8,9.5-8.6,16.3-7.4c6.3,1.1,12.6,2.2,18.9,3.3c5,0.9,10.7,1.1,14.4,4.9
					C234.6,341,231.4,349.8,230.4,355.2c-0.6,3.3,4.4,4.7,5,1.4c1.1-6.1,3.8-13.9,0.9-19.8c-3.4-7.1-9.7-8.5-16.7-9.7
					c-7.6-1.3-15.2-2.7-22.8-4c-6.9-1.2-14.4-1.2-18.7,5.5c-3.4,5.3-4.6,14-4.7,20.3c0,8.4,7.2,13.2,14.5,14.5
					c7.5,1.3,14.9,2.6,22.4,4c6.6,1.2,12.6,2.8,18.8-1c3.4-2.1,5.4-5.8,6.3-9.6C236.2,353.4,231.2,352,230.4,355.2z"/>
			</g>
		</g>
	</g>
	<g>
		<path class="st0" d="M168.8,334.3c1,0.2,1.9,0.3,2.9,0.5c-0.6-1.1-1.2-2.1-1.8-3.2c-0.7,3.9-1.4,7.8-2.1,11.7
			c1.1-0.6,2.1-1.2,3.2-1.8c-1-0.2-1.9-0.3-2.9-0.5c-3.3-0.6-4.7,4.4-1.4,5c1,0.2,1.9,0.3,2.9,0.5c1.3,0.2,2.9-0.3,3.2-1.8
			c0.7-3.9,1.4-7.8,2.1-11.7c0.2-1.3-0.3-2.9-1.8-3.2c-1-0.2-1.9-0.3-2.9-0.5C166.9,328.7,165.5,333.7,168.8,334.3L168.8,334.3z"/>
	</g>
	<path class="st1" d="M233.6,328.7c0,11.3,9.2,20.4,20.4,20.4s20.4-9.2,20.4-20.4c0-11.3-9.2-20.4-20.4-20.4
		C242.7,308.3,233.6,317.4,233.6,328.7z"/>
	<path class="st1" d="M217.1,301.9c0,11.3,9.2,20.4,20.4,20.4c11.3,0,20.4-9.2,20.4-20.4c0-11.3-9.2-20.4-20.4-20.4
		C226.3,281.4,217.1,290.6,217.1,301.9z"/>
	<path class="st7" d="M412.4,291c-12.6,0-25.2-1.7-37.3-4.9c-1.9,9-6.2,17.9-13.1,21c-3.2,1.5-5.1,2-13.8,2c-5,0-10.2,0-15.8,0v3.3
		c-7.5,0-15,0-21.1,0c-10.9,0-23.2-16.9-23.2-31.6c0-15.8,7.9-25.7,4.4-28.3C266.1,232.8,183,241.6,183,241.6l-10.6,5.6v18.3
		l5.7,9.5l-4.8,6.8l-26.6,35l12.3-1.2l15.6-17.5l5.5-1.8l11.8-8.8c37.5,13,59.2,25.7,77.7,38.4c0,9.8,4.5,24.8,8.5,24.8
		c0,0,99.9-3.2,104.2-3.2c16.9,0,20.8-10.4,37.9-41.4c4.2-7.7,7.6-12.7,10-16.3C424.3,290.6,418.3,291,412.4,291z"/>
	<g>
		<path class="st8" d="M408.8,234.2v50.3c13.9,0,25.2-11.3,25.2-25.2C434,245.5,422.7,234.2,408.8,234.2z"/>
		<g>
			<path class="st0" d="M406.2,234.2c0,16.8,0,33.5,0,50.3c0,1.4,1.2,2.6,2.6,2.6c15.4-0.4,27.3-12.3,27.7-27.7
				c0.4-15.4-13-27.3-27.7-27.8c-3.3-0.1-3.3,5.1,0,5.2c12.6,0.4,22.2,10,22.6,22.6c0.4,12.6-10.5,22.2-22.6,22.6
				c0.9,0.9,1.7,1.7,2.6,2.6c0-16.8,0-33.5,0-50.3C411.4,230.9,406.2,230.9,406.2,234.2z"/>
		</g>
	</g>
	<path class="st7" d="M436.6,272.7c0-4.1-5.2-5.2-8.2-5.3c-8.7-14.1-4.8-29.4-4.8-29.4c0-3.2-2.6-5.8-5.8-5.8c-1,0-2,0.3-2.8,0.7
		c-4.6-8.8-8.5-13.1-12.9-19.3c-4-5.6-8.1-10.9-14.8-9.4l-11.6,2.6c-6.4,1.4-10.5,7.5-9.6,13.9v46.5c0,0.2,0,0.3,0,0.4
		c0,0.1,0,0.3,0,0.4v5.1c0,7.6,9.8,9.4,9.8,9.4c0,0.1,0,0.2,0,0.3c11.6,3.2,23.8,4.9,36.4,4.9c7.2,0,14.3-0.6,21.3-1.7
		C433.7,286.1,436.6,285.6,436.6,272.7z"/>
	<g>
		<path class="st7" d="M463.4,300.5c-5-7.3-13.8-11.4-27.3-11.4c-0.5,0-1,0-1.4,0c-0.8,1.3-1.8,2.8-2.8,4.3
			c-2.4,3.5-5.6,8.3-9.5,15.5c-2.1,3.8-3.9,7.2-5.5,10.1c-3.4,6.4-5.9,10.9-8.1,14.2l0,0c17.9-18.2,35-18.4,57.1-18.4
			C467.7,315,465.7,303.9,463.4,300.5z"/>
		<g>
			<path class="st7" d="M465.6,299.2c-3.6-4.9-8.1-8.2-13.8-10.3c-3.4-1.3-7.1-1.8-10.6-2.1c-2.3-0.2-7.2-1.3-8.7,1.1
				c-4.4,7.2-9.1,14.1-13.2,21.5c-4.2,7.6-7.9,15.5-12.7,22.7c-1.1,1.7,0.4,3.9,2.2,3.9c2.5,0,5.2-4,6.9-5.5
				c3.7-3.2,7.9-5.7,12.2-7.7c7.6-3.6,16.1-4.6,24.3-5c4-0.2,8-0.2,12-0.2c2.4,0,4-0.4,4.7-2.8C470.3,310.3,467.9,303.1,465.6,299.2
				c-1.7-2.8-6.2-0.2-4.5,2.6c1.3,2.2,1.9,4.8,2.4,7.3c0.2,1.1,0.3,2.3,0.4,3.5c-0.1,1.1,0,1.1,0.2-0.2c-1,0-2.1,0-3.1,0
				c-6.5,0-13,0.2-19.4,1.2c-6.2,0.9-12.1,2.7-17.7,5.3c-3.2,1.5-6.1,3.4-8.9,5.5c-1.1,0.8-2.1,1.6-3.1,2.4c-0.4,0.3-4.8,4-3.3,4
				c0.7,1.3,1.5,2.6,2.2,3.9c4.4-6.7,8-14.1,11.9-21.2c4.3-8,9.3-15.4,14-23c-0.7,0.4-1.5,0.9-2.2,1.3c9.8-0.3,20.4,1.7,26.5,10.1
				C463.1,304.5,467.6,301.9,465.6,299.2z"/>
		</g>
	</g>
	<path class="st7" d="M375.1,171.9c0,0-20.5,5.4-20.5,13.3c0,7.7,3.9,16,3.9,16c0.8,3.3,4.1,5.3,7.4,4.5l19.6-4.7l-0.1-4.1l17.2-6.2
		C402.7,190.7,396.7,171.9,375.1,171.9z"/>
	<path class="st7" d="M376.6,194.9c0-8.4-4.7-15.6-11.6-19.3c-5.1,2.3-10.3,5.7-10.3,9.7c0,7.7,3.9,16,3.9,16
		c0.8,3.3,4.1,5.3,7.4,4.5l8.8-2.1C375.9,200.9,376.6,198,376.6,194.9z"/>
	<g>
		<path class="st7" d="M374.5,169.5c-5.7,1.5-11.4,3.7-16.3,7c-8.4,5.5-6.2,14.4-3.2,22.7c2.5,6.8,6.2,10.4,13.7,8.6
			c5.9-1.4,11.7-2.8,17.6-4.2c1.1-0.3,1.9-1.4,1.9-2.5c0-1.4-0.1-2.7-0.1-4.1c-0.6,0.8-1.3,1.7-1.9,2.5c5.7-2.1,11.5-4.2,17.2-6.2
			c1.3-0.5,2.3-1.8,1.8-3.2c-4.1-13-17-20.4-30-20.7c-3.3-0.1-3.3,5.1,0,5.2c10.7,0.2,21.7,6.1,25,16.9c0.6-1.1,1.2-2.1,1.8-3.2
			c-5.7,2.1-11.5,4.2-17.2,6.2c-1.1,0.4-1.9,1.3-1.9,2.5c0,1.4,0.1,2.7,0.1,4.1c0.6-0.8,1.3-1.7,1.9-2.5c-3.9,0.9-7.8,1.9-11.8,2.8
			c-5.1,1.2-10.2,3.9-12.8-2.6c-1.7-4.3-2.9-8.8-3-13.5c-0.1-2.8,4.1-4.9,6.1-6c3.8-2.2,8.2-3.7,12.5-4.8
			C379.1,173.6,377.7,168.6,374.5,169.5z"/>
	</g>
	<path class="st0" d="M368.5,194.9c0,5-4.1,9.1-9.1,9.1c-5,0-9.1-4.1-9.1-9.1c0-5,4.1-9.1,9.1-9.1
		C364.4,185.8,368.5,189.9,368.5,194.9z"/>
	<g>
		<path class="st0" d="M365.9,194.9c-0.5,8.4-12.6,8.4-13.1,0C352.4,186.5,365.4,186.5,365.9,194.9c0.2,3.3,5.4,3.3,5.2,0
			c-0.4-6.6-5.1-11.3-11.7-11.7c-6.6-0.4-11.4,5.6-11.7,11.7c-0.4,6.6,5.6,11.4,11.7,11.7c6.6,0.4,11.4-5.6,11.7-11.7
			C371.3,191.6,366.1,191.6,365.9,194.9z"/>
	</g>
	<path class="st9" d="M269.6,324.6c0-0.4,0-0.8,0-1.2C269.6,323.8,269.6,324.2,269.6,324.6z"/>
	<path class="st9" d="M389.6,206.2c0.1,0,0.2,0,0.2,0C389.8,206.2,389.7,206.2,389.6,206.2z"/>
	<path class="st9" d="M388.4,206.3c0.2,0,0.3,0,0.5,0C388.7,206.3,388.6,206.3,388.4,206.3z"/>
	<path class="st0" d="M388.2,206.3C388.2,206.3,388.2,206.4,388.2,206.3c0.1,0,0.2,0,0.2,0C388.3,206.3,388.3,206.3,388.2,206.3z"/>
	<path class="st0" d="M389.9,206.2c1,0,2,0.2,2.9,0.6C392.1,206.6,391.2,206.3,389.9,206.2z"/>
	<path class="st0" d="M269.9,328.3C269.9,328.3,270,328.3,269.9,328.3c-0.1-1.3-0.2-2.5-0.3-3.7C269.7,325.8,269.8,327,269.9,328.3z
		"/>
	<path class="st0" d="M269.6,323.1c0,0.1,0,0.2,0,0.3C269.6,323.3,269.6,323.2,269.6,323.1C269.6,323.1,269.6,323.1,269.6,323.1z"/>
	<path class="st0" d="M388.9,206.3c0.2,0,0.5,0,0.7,0C389.4,206.2,389.1,206.3,388.9,206.3z"/>
	<g>
		<path class="st7" d="M439.2,272.7c-0.7-5.7-5.5-7.6-10.7-7.9c0.7,0.4,1.5,0.9,2.2,1.3c-4.7-8.1-6.5-17.6-4.7-26.8
			c1.3-6.8-5.8-11.2-11.7-8.8c1,0.4,2,0.8,2.9,1.2c-3-5.6-6.5-10.7-10.3-15.8c-3.5-4.7-6.5-9.8-11.6-13c-5.7-3.5-14.3,0.1-20.3,1.4
			c-15.4,3.4-11.6,23.9-11.6,35.5c0,7.6,0,15.2,0,22.9c0,4-0.6,8.5,0.2,12.4c1.8,8.7,11.5,10.6,18.9,12.3c15.4,3.6,31.6,3.9,47.2,2
			c3.1-0.4,5.3-0.2,7.1-2.8C439.4,282.8,439.2,276.9,439.2,272.7c0-3.3-5.1-3.3-5.2,0c0,3,0.5,8.5-1.6,11.1
			c-0.4,0.4,0.3-0.1,0.5-0.2c-0.3,0.1-5.5,0.7-5,0.7c-3.9,0.5-7.7,0.7-11.6,0.8c-13.7,0.5-27.4-1.2-40.6-5c-3.4-1-7-3.2-7-7.2
			c0-2,0-4,0-6.1c0-5,0-9.9,0-14.9c0-7.5,0-14.9,0-22.4c0-4.5-0.9-11.1,1-15.2c2.8-5.9,12.7-6.3,18.3-7.6
			c6.8-1.5,11.2,7.4,14.5,11.8c3.8,5.1,7.3,10.2,10.3,15.8c0.5,0.9,1.9,1.6,2.9,1.2c5.6-2.3,5.2,2.4,4.8,5.6c-0.5,4-0.4,8,0.1,12
			c0.7,5,2.3,9.6,4.6,14.1c0.7,1.4,1.4,2.8,3.2,2.9c1.8,0.1,5.3,0.4,5.6,2.7C434.5,276,439.6,276,439.2,272.7z"/>
	</g>
	<path class="st7" d="M408.8,290.9c-11.4-0.3-22.7-1.9-33.7-4.9c-1.9,9-6.2,17.9-13.1,21c-3.2,1.5-5.1,2-13.8,2
		c-10.8,0-22.3,0-36.9,0c-16.4,0-31.7-32.4-19-53c-18.8,23.8,0.2,69.8,10.5,70.3c9.9,0,61.7,0,72.4,0c3.6,0,10.3,0.5,13.6-1.4
		c2.9-1.6,4.9-4.8,6.6-7.4c3.6-5.5,7-11.3,9.9-17.2C406.9,296.9,408.1,293.9,408.8,290.9z"/>
	<path class="st7" d="M375.8,206.8c-6.4,1.4-10.5,7.5-9.6,13.9v46.5c0,0.1,0,0.3,0,0.4c0,0.1,0,0.3,0,0.4v5.1c0,7.6,9.3,9.6,9.8,9.8
		c2,0.6,9.1,2.7,17.8,3.7c-1-32.3-25.3-57.6-11.7-81.3C382.9,204,375.8,206.8,375.8,206.8z"/>
	<path class="st7" d="M362,306.8c-3.2,1.5-5.1,2-13.8,2c-10.8,0-22.3,0-36.9,0c-5.6,0-15.3-5.4-24.3-25
		c-0.1,16.8,10.6,39.3,27.1,39.3h55.6c20.1,0,24.1-33.4,24.1-33.4c-2.3-0.5-16.4-3.3-18.7-3.9C373.2,294.8,368.9,303.7,362,306.8z"
		/>
	<path class="st1" d="M453.3,349.8c0,4.7-3.8,8.5-8.5,8.5c-4.7,0-8.5-3.8-8.5-8.5c0-4.7,3.8-8.5,8.5-8.5
		C449.4,341.2,453.3,345,453.3,349.8z"/>
	<g>
		<g>
			<path class="st10" d="M158.5,248.7c-4,0-2.5,9.4,0.6,12c2,1.8,8.9,1.3,8.9,1.3v-13.3C167.9,248.7,162.5,248.7,158.5,248.7z"/>
			<g>
				<path class="st10" d="M158.5,246.1c-6.8,0.6-5.2,9.3-3.3,13.6c2.2,5,8,5.2,12.8,4.9c1.4-0.1,2.6-1.1,2.6-2.6c0-4.4,0-8.9,0-13.3
					c0-1.4-1.2-2.6-2.6-2.6C164.8,246.1,161.6,246.1,158.5,246.1c-3.3,0-3.3,5.2,0,5.2c3.2,0,6.3,0,9.5,0c-0.9-0.9-1.7-1.7-2.6-2.6
					c0,4.4,0,8.9,0,13.3c0.9-0.9,1.7-1.7,2.6-2.6c-1.9,0.1-5.9,0.6-7.4-0.8c-1.1-1-1.4-2.8-1.8-4.2c-0.2-0.8-0.2-1.7-0.2-2.6
					c0-0.8,0.5-0.7-0.2-0.6C161.8,251,161.8,245.8,158.5,246.1z"/>
			</g>
		</g>
	</g>
	<path class="st11" d="M173.3,281.4l-26.6,35l12.3-1.2l15.6-17.5l5.5-1.8l11.8-8.8c0,0-9-6.2-13.8-12.6
		C176.9,276.6,173.3,281.4,173.3,281.4z"/>
	<g>
		<line class="st3" x1="178.1" y1="275" x2="191.9" y2="287.1"/>
		<g>
			<path class="st7" d="M176.2,276.8c4.6,4.1,9.2,8.1,13.8,12.2c2.5,2.2,6.2-1.4,3.7-3.7c-4.6-4.1-9.2-8.1-13.8-12.2
				C177.4,270.9,173.7,274.6,176.2,276.8L176.2,276.8z"/>
		</g>
	</g>
	<g>
		<path class="st7" d="M412.4,288.4c-12.4-0.1-24.6-1.7-36.6-4.8c-1.3-0.3-2.9,0.4-3.2,1.8c-1.8,8.2-5.4,17.5-14.1,20.3
			c-3.2,1.1-7,0.8-10.3,0.8c-5.3,0-10.5,0-15.8,0c-1.4,0-2.6,1.2-2.6,2.6c0,1.1,0,2.2,0,3.3c0.9-0.9,1.7-1.7,2.6-2.6
			c-7,0-14.1,0-21.1,0c-5.9,0-10.7-5.3-13.9-9.6c-8-10.9-7.7-23.4-3.9-35.8c1-3.3,2.4-6.5,2.6-10c0.2-3.5-3-4.5-5.7-5.5
			c-11.2-4.3-23-6.8-34.8-8.5c-19.8-2.9-39.9-3.3-59.8-2.3c-4.2,0.2-8.4,0.5-12.5,0.9c-4.1,0.4-8.6,4.1-12.2,6
			c-0.8,0.4-1.3,1.4-1.3,2.2c0,5.7,0,11.5,0,17.2c0,4.2,4,8.4,6.1,11.9c0-0.9,0-1.7,0-2.6c-9.9,14.3-20.8,28-31.3,41.8
			c-1.1,1.5,0.4,4.1,2.2,3.9c4-0.4,8.1-0.8,12.1-1.2c3-0.3,5.9-5.2,7.7-7.2c3.2-3.6,6.4-7.2,9.7-10.8c-0.3,0.4-1.3,0.6,0.5,0
			c1.3-0.4,2.6-0.8,3.9-1.3c1.4-0.4,2.5-1.6,3.6-2.4c2-1.5,4.1-3.1,6.1-4.6c0.7-0.6,1.5-1.1,2.2-1.7c0.3-0.3,2.8,1.3,4.3,1.8
			c10.3,3.7,20.3,7.8,30.2,12.4c14.4,6.7,28.1,14.7,41.2,23.7c-0.4-0.7-0.9-1.5-1.3-2.2c0.2,8.2,1.5,21.4,8.7,26.7
			c1.9,1.4,6,0.6,8.1,0.5c14.4-0.5,28.8-0.9,43.2-1.4c15.4-0.5,30.8-1,46.2-1.4c10.4-0.3,20.2,0.1,28-8c5.7-5.9,9.5-13.6,13.4-20.7
			c5.7-10.4,11.2-20.8,17.8-30.6c1-1.5-0.3-4.1-2.2-3.9C424.3,287.9,418.3,288.3,412.4,288.4c-3.3,0-3.3,5.2,0,5.2
			c6,0,11.9-0.4,17.8-1.1c-0.7-1.3-1.5-2.6-2.2-3.9c-7.4,11.1-13.5,23-20,34.6c-4.1,7.3-8.5,16.1-16.3,20.1c-4,2-8.7,1.7-13.1,1.8
			c-5.6,0.1-11.1,0.3-16.7,0.5c-27.8,0.8-55.5,1.7-83.3,2.6c-3.8,0.1-6-16.3-6.3-19.6c-0.1-1.5,0.3-3.3-0.9-4.5
			c-1.5-1.5-3.7-2.5-5.4-3.7c-3.8-2.5-7.6-4.9-11.4-7.2c-19.5-11.7-40.6-20.6-62-28.2c-1.7-0.6-3.6,1.5-4.8,2.4
			c-2.6,2-5.3,4-7.9,5.9c-1.3,1-3.3,1.4-5.8,2.2c-1.5,0.5-2.5,2-3.5,3.2c-4.2,4.7-8.3,9.3-12.5,14c-1.3,1.4-1,0.5,0.8,0.3
			c-1.3,0.1-2.7,0.3-4,0.4c-2.7,0.3-5.4,0.5-8.1,0.8c0.7,1.3,1.5,2.6,2.2,3.9c10.5-13.9,21.4-27.5,31.3-41.8c0.5-0.7,0.4-1.9,0-2.6
			c-1.2-2-2.4-4-3.6-6c-0.6-1-1.3-2.1-1.9-3.1c-0.6-1,0.1,1.6,0.1,0.7c0-0.5,0-0.9,0-1.4c0-5.6,0-11.1,0-16.7
			c-0.4,0.7-0.9,1.5-1.3,2.2c2.3-1.2,4.7-2.5,7-3.7c1.2-0.6,2.3-1.2,3.5-1.8c-1.2,0.6-1.5,0.3-0.5,0.2c4.6-0.5,9.3-0.7,14-1
			c20.4-1,40.9-0.4,61.1,2.9c5.5,0.9,10.9,2,16.3,3.4c1.6,0.4,15.9,3.8,16,4.9c0.3,3.4-2.3,8-3.2,11.2c-1.7,5.8-2.6,12-2.1,18
			c0.8,10.1,6.5,20.4,14.3,26.8c8.8,7.2,21.9,4.6,32.5,4.6c1.4,0,2.6-1.2,2.6-2.6c0-1.1,0-2.2,0-3.3c-0.9,0.9-1.7,1.7-2.6,2.6
			c9.3,0,20.8,1.9,29.6-1.8c9.3-3.9,13.6-13.9,15.6-23.1c-1.1,0.6-2.1,1.2-3.2,1.8c12.4,3.3,25.1,4.9,38,5
			C415.7,293.6,415.7,288.4,412.4,288.4z"/>
	</g>
	<g>
		<polygon class="st12" points="188.7,263.7 179.3,263.6 179.3,250.7 188.7,255.4 		"/>
		<g>
			<path class="st12" d="M188.7,261.1c-3.2,0-6.3-0.1-9.4-0.1c0.9,0.9,1.7,1.7,2.6,2.6c0-4.3,0-8.6,0-12.9c-1.3,0.7-2.6,1.5-3.9,2.2
				c3.2,1.6,6.3,3.1,9.4,4.7c-0.4-0.7-0.9-1.5-1.3-2.2c0,2.8,0,5.5,0,8.3c0,3.3,5.2,3.3,5.2,0c0-2.8,0-5.5,0-8.3
				c0-0.9-0.5-1.8-1.3-2.2c-3.2-1.6-6.3-3.1-9.4-4.7c-1.7-0.8-3.9,0.2-3.9,2.2c0,4.3,0,8.6,0,12.9c0,1.4,1.2,2.6,2.6,2.6
				c3.2,0,6.3,0.1,9.4,0.1C192.1,266.3,192.1,261.1,188.7,261.1z"/>
		</g>
	</g>
	<g>
		<path class="st13" d="M281.9,225.6c-0.4-0.1-0.7-0.1-1.1,0.1c-18.8,0.6-36-4.4-38.7-5.9c-10.2-5.5-44.6-7.9-52.7-2.8
			c-6.1,3.9-6,34.4,5.7,31.1c33.8-9.7,65.7-2.5,73.9-0.1c12.5,3.6,24.7,13.7,25.7,14c7.6,2.8,11.9-4.3,14-7.6
			C309.5,253,316,226,281.9,225.6z"/>
		<g>
			<path class="st14" d="M281.3,223c-12.3,0.7-25.5-1-37.2-4.9c-7.6-2.6-14.6-4.7-22.7-5.6c-9.4-1.1-19.3-1.5-28.6,0.4
				c-6.7,1.4-9.2,5.7-10.2,12.2c-1.1,7-0.8,15.3,2.9,21.5c1.3,2.3,3.6,4,6.2,4.4c1.9,0.2,3.6-0.3,5.4-0.8c4.5-1.2,9.1-2.1,13.7-2.8
				c22.9-3.6,50.5-2.3,70.9,9.7c7.3,4.3,14,12.1,22.7,5.8c4.5-3.2,6.7-7.7,7.2-12.9c0.6-5.9-0.9-12.2-4.6-16.8
				C300.9,225.1,290.7,223.2,281.3,223c-3.3-0.1-3.3,5.1,0,5.2c9.1,0.2,19.2,2.2,23.5,11.1c2,4,2.1,9.2,1,13.4c-0.4,1.4-3,4.7-5,6.2
				c-4.4,3.2-8.4-1.1-11.8-3.5c-8.5-5.7-17.4-9.7-27.4-11.7c-11.4-2.4-23.2-3.3-34.8-3c-7.1,0.2-14.2,1-21.2,2.2
				c-4,0.7-7.9,1.7-11.8,2.7c-1.7,0.5-2.8-0.4-3.7-1.7c-4-5.8-3.3-15.9-1.3-22.3c2.1-6.4,16.1-4.9,21.2-4.8
				c10.5,0.2,21.4,1.4,31.1,5.5c12,5.2,27.5,6.6,40.4,5.8C284.7,228,284.7,222.8,281.3,223z"/>
		</g>
		<g>
			<path class="st14" d="M284.8,232.6c-16.7,3.1-36.1-6.6-49.2-16.6c-2.7-2-5.2,2.5-2.6,4.5c14.3,11,34.6,20.6,53.2,17.1
				C289.5,237,288.1,232,284.8,232.6L284.8,232.6z"/>
		</g>
	</g>
	<g>
		<g>
			<g>
				<path class="st12" d="M403.7,250.8l6.2,17.2c4.7-1.7,7.2-6.9,5.5-11.7C413.7,251.6,408.5,249.1,403.7,250.8z"/>
				<g>
					<path class="st12" d="M401.2,251.5c2.1,5.7,4.1,11.5,6.2,17.2c0.4,1.2,1.8,2.4,3.2,1.8c6-2.5,9.3-8.5,7.3-14.9
						c-1.9-6.3-8.9-9.1-14.9-7.3c-3.2,1-1.8,6,1.4,5c8-2.4,12.7,8.9,4.8,12.2c1.1,0.6,2.1,1.2,3.2,1.8c-2.1-5.7-4.1-11.5-6.2-17.2
						C405.1,247,400.1,248.4,401.2,251.5z"/>
				</g>
			</g>
		</g>
	</g>
</g>
</svg>
