<?xml version="1.0" encoding="utf-8"?>
<!-- Generator: Adobe Illustrator 23.0.2, SVG Export Plug-In . SVG Version: 6.00 Build 0)  -->
<svg version="1.1" id="Layer_1" xmlns="http://www.w3.org/2000/svg" xmlns:xlink="http://www.w3.org/1999/xlink" x="0px" y="0px"
	 viewBox="0 0 1188.34 1200" style="enable-background:new 0 0 1188.34 1200;" xml:space="preserve">
<style type="text/css">
	.st0{fill:#29783C;}
	.st1{fill:#765045;}
</style>
<g>
	<g>
		<path class="st0" d="M911.57,442c-25.41-74.62-59.6-103.94-122.7-152.35c0,0-9.6,0.08-9.75,5.02
			c-0.94,31.66,5.78,45.39,18.15,59.28c84.68,95.1,115.77,178.65,120.91,289.65c6.37,138.08-15.56,256.17-15.77,257.34l11.19-1.5
			c0.18-0.97,14.85-79.93,16.77-184.12c-5.5-32.4-10.34-69.1-13.1-108.42C913.91,559.18,905.3,500.04,911.57,442z"/>
		<path class="st0" d="M928.47,604.12c0.12,1.63,0.25,3.24,0.37,4.86c0.04-21.08,0.53-43.16-0.19-65.56
			C927.12,563.5,927.03,583.64,928.47,604.12z"/>
		<path class="st0" d="M1018.82,197.14c-0.71-4.75-10.08-0.56-10.08-0.56c-66.04,88.74-86.7,148.68-97.16,245.41c0,0,0,0.01,0,0.01
			c-6.27,58.04,2.33,117.18,5.7,164.9c2.76,39.33,7.59,76.02,13.1,108.42V627c-0.55-5.95-1.07-11.94-1.53-18.02
			c-0.12-1.62-0.26-3.23-0.37-4.86c-1.44-20.48-1.35-40.62,0.19-60.7c6.49-84.94,38.96-168.64,92.24-271.77
			C1032.79,248.61,1024.29,233.67,1018.82,197.14z"/>
	</g>
	<path class="st1" d="M323.26,1009.88h782.51c0,0-46.58-146.74-214.26-139.11c0,0-23.29-64.07-149.05-70.43
		c0,0-60.55-30.78-204.94,0c-144.39,30.78-153.71,29.21-177,72.21c0,0-102.47,6.63-149.05,50.14s-88.5,26.7-88.5,70.56
		L323.26,1009.88z"/>
	<polygon class="st1" points="122.98,1009.88 323.26,1009.88 122.98,993.24 	"/>
	<g>
		<path class="st0" d="M637.3,386.93c-25.41-65.5-76.3-125.92-139.4-168.41c0,0-9.6,0.07-9.75,4.4
			c-0.94,27.79,22.48,74.52,34.85,86.71c84.68,83.47,115.77,156.82,120.91,254.25c6.37,121.2-15.56,224.86-15.77,225.88l11.19-1.32
			c0.18-0.85,14.85-70.16,16.77-161.61c-5.5-28.44-10.34-60.65-13.1-95.17C639.63,489.78,631.02,437.87,637.3,386.93z"/>
		<path class="st0" d="M654.19,529.23c0.12,1.43,0.25,2.84,0.37,4.27c0.04-18.5,0.53-37.89-0.19-57.54
			C652.84,493.57,652.75,511.25,654.19,529.23z"/>
		<path class="st0" d="M761.25,136.49c-0.71-4.17-10.08-0.5-10.08-0.5c-66.04,77.89-103.41,166.02-113.87,250.93c0,0,0,0.01,0,0.01
			c-6.27,50.94,2.33,102.85,5.7,144.74c2.76,34.52,7.59,66.72,13.1,95.17v-77.52c-0.55-5.22-1.07-10.48-1.53-15.82
			c-0.12-1.43-0.26-2.83-0.37-4.27c-1.44-17.98-1.35-35.66,0.19-53.28c6.49-74.56,38.96-148.02,92.24-238.55
			C758.52,217.18,766.72,168.55,761.25,136.49z"/>
	</g>
	<g>
		<path class="st0" d="M317.12,424.58c25.41-74.62,62.13-97.29,125.23-145.7c0,0,9.6,0.08,9.75,5.02
			c0.94,31.66-8.31,38.74-20.68,52.63c-84.68,95.1-115.77,178.65-120.91,289.65c-6.37,138.08,15.56,256.17,15.77,257.34l-11.19-1.5
			c-0.18-0.97-14.85-79.93-16.77-184.12c5.5-32.4,10.34-69.1,13.1-108.42C314.79,541.75,323.4,482.61,317.12,424.58z"/>
		<path class="st0" d="M300.23,586.69c-0.12,1.63-0.25,3.24-0.37,4.86c-0.04-21.08-0.53-43.16,0.19-65.56
			C301.58,546.07,301.67,566.21,300.23,586.69z"/>
		<path class="st0" d="M197.67,192.28c0.71-4.75,10.08-0.56,10.08-0.56c66.04,88.74,98.91,136.11,109.37,232.85c0,0,0,0.01,0,0.01
			c6.27,58.04-2.33,117.18-5.7,164.9c-2.76,39.33-7.59,76.02-13.1,108.42v-88.32c0.55-5.95,1.07-11.94,1.53-18.02
			c0.12-1.62,0.26-3.23,0.37-4.86c1.44-20.48,1.35-40.62-0.19-60.7c-6.49-84.94-38.96-168.64-92.24-271.77
			C195.9,231.19,192.2,228.81,197.67,192.28z"/>
	</g>
	<path class="st0" d="M309.93,608.98c0,0-50.11-61.42-132.36-89.46c0,0-3.23-15.38,12.21-17.46c13.55-1.82,40.71,9.21,52.03,16.88
		C285.42,548.47,309.93,608.98,309.93,608.98z"/>
	<path class="st0" d="M642.4,750.08c0,0-40.84-50.06-107.87-72.91c0,0-2.63-12.53,9.95-14.23c11.04-1.49,33.17,7.5,42.4,13.75
		C622.42,700.77,642.4,750.08,642.4,750.08z"/>
	<path class="st0" d="M930.37,670.49c0,0-40.84-50.06-107.87-72.91c0,0-2.63-12.53,9.95-14.23c11.04-1.49,33.17,7.5,42.4,13.75
		C910.39,621.17,930.37,670.49,930.37,670.49z"/>
	<path class="st0" d="M653.17,631.31c0,0-51.56-63.19-136.18-92.04c0,0-3.32-15.82,12.56-17.96c13.94-1.88,41.88,9.47,53.53,17.36
		C627.94,569.05,653.17,631.31,653.17,631.31z"/>
	<path class="st0" d="M311.85,816.64c0,0-51.56-63.19-136.18-92.04c0,0-3.32-15.82,12.56-17.96c13.94-1.88,41.88,9.47,53.53,17.36
		C286.63,754.39,311.85,816.64,311.85,816.64z"/>
	<path class="st0" d="M648.35,674.96c0,0,40.84-50.06,107.87-72.91c0,0,2.63-12.53-9.95-14.23c-11.04-1.49-33.17,7.5-42.4,13.75
		C668.33,625.64,648.35,674.96,648.35,674.96z"/>
	<path class="st0" d="M301.25,631.31c0,0,40.84-50.06,107.87-72.91c0,0,2.63-12.53-9.95-14.23c-11.04-1.49-33.17,7.5-42.4,13.75
		C321.23,581.99,301.25,631.31,301.25,631.31z"/>
	<path class="st0" d="M301.25,759.25c0,0,49.42-60.57,130.53-88.22c0,0,3.18-15.17-12.04-17.22c-13.37-1.8-40.14,9.08-51.31,16.64
		C325.43,699.58,301.25,759.25,301.25,759.25z"/>
	<path class="st0" d="M920.73,789.77c0,0,49.42-60.57,130.53-88.22c0,0,3.18-15.17-12.04-17.22c-13.37-1.8-40.14,9.08-51.31,16.64
		C944.91,730.09,920.73,789.77,920.73,789.77z"/>
</g>
</svg>
