<?xml version="1.0" encoding="utf-8"?>
<!-- Generator: Adobe Illustrator 23.0.2, SVG Export Plug-In . SVG Version: 6.00 Build 0)  -->
<svg version="1.1" id="Layer_1" xmlns="http://www.w3.org/2000/svg" xmlns:xlink="http://www.w3.org/1999/xlink" x="0px" y="0px"
	 viewBox="0 0 675 1200" style="enable-background:new 0 0 675 1200;" xml:space="preserve">
<style type="text/css">
	.st0{fill:#231F20;}
	.st1{fill:none;stroke:#231F20;stroke-width:5;stroke-miterlimit:10;}
	.st2{fill:#EAD7B9;}
	.st3{fill:#5BC0EE;}
	.st4{fill:#4E5068;}
	.st5{fill:#354053;}
	.st6{fill:#8B8B8B;}
	.st7{fill:none;stroke:#181B3B;stroke-miterlimit:10;}
	.st8{fill:#D3C2A9;}
</style>
<rect x="569.03" y="385.88" class="st0" width="19.22" height="132.94"/>
<rect x="69.21" y="386.71" class="st0" width="19.22" height="132.94"/>
<line class="st1" x1="34.9" y1="450.02" x2="623.85" y2="450.02"/>
<rect x="590.88" y="385.54" class="st0" width="19.22" height="132.94"/>
<rect x="47.78" y="386.71" class="st0" width="19.22" height="132.94"/>
<path class="st2" d="M284.46,519.37l-131.5,81.15c-6.64,3.96-15.21,0.18-16.76-7.4l-19.93-101.18l-10.42-17.34l1.49-20.75
	l5.42-19.63l15.62-5.29c2.05-0.7,4.26,0.53,4.75,2.65l4.26,18.44l8.45,10.62l-1.19-5.14l-2.44-6.18c-1.48-3.74,0.72-7.92,4.64-8.83
	l0,0l9.69,10.85l3.37,12.33l-11.26,18.54l13.76,64.35l105.1-68.41L284.46,519.37z"/>
<rect x="170.91" y="831.54" class="st2" width="36.19" height="47.13"/>
<rect x="464.96" y="831.54" class="st2" width="36.19" height="47.13"/>
<polygon class="st3" points="308.21,445.66 256.21,459.09 245.72,567.17 239.53,708.7 418.62,712.48 408.64,571.63 399.66,459.84 
	365.84,445.66 "/>
<path class="st4" d="M205.37,721.78l29.84,26.74c8.67,7.76,19.89,12.06,31.53,12.06h114.77c10.57,0,20.84-3.55,29.16-10.07
	l45.36-35.59l-5.61-78.9l-96.49,40.84h-64.83l-83.71-45.46l-9.2,28.61L205.37,721.78z"/>
<path class="st5" d="M205.37,721.78l29.84,26.74c8.67,7.76,19.89,12.06,31.53,12.06h114.77c10.57,0,20.84-3.55,29.16-10.07
	l45.36-35.59l-5.61-78.9l-96.49,40.84h-64.83l-83.71-45.46l-9.2,28.61L205.37,721.78z"/>
<path class="st6" d="M170.66,869.18c0,0-3.06,26.17-23.99,50.68v11.65h70.24l1.36-16.25c0,0-10.34-26.04-11.36-38.29
	C206.9,876.98,203.33,859.19,170.66,869.18z"/>
<path d="M217.92,919.37c0,0-58.58-3.53-71.26,0.5v11.65h70.24L217.92,919.37z"/>
<line class="st7" x1="170.91" y1="884.04" x2="190.57" y2="884.04"/>
<line class="st7" x1="169.21" y1="891.27" x2="188.87" y2="891.27"/>
<line class="st7" x1="165.38" y1="900.51" x2="185.04" y2="900.51"/>
<path class="st6" d="M500.57,869.18c0,0,3.06,26.17,23.99,50.68v11.65h-70.24l-1.36-16.25c0,0,10.34-26.04,11.36-38.29
	C464.33,876.98,467.9,859.19,500.57,869.18z"/>
<path d="M453.31,919.37c0,0,58.58-3.53,71.26,0.5v11.65h-70.24L453.31,919.37z"/>
<line class="st7" x1="500.32" y1="884.04" x2="480.66" y2="884.04"/>
<line class="st7" x1="502.02" y1="891.27" x2="482.37" y2="891.27"/>
<line class="st7" x1="505.85" y1="900.51" x2="486.19" y2="900.51"/>
<path class="st5" d="M171.17,864.73h39.31c0,0,9.75-158.67,5.23-221.77c-0.48-6.66-6.04-11.79-12.72-11.79h-14.01
	c-25.64,0-43.47,21.28-45.28,46.85C139,744.25,171.17,864.73,171.17,864.73z"/>
<path class="st5" d="M500.88,869.18h-39.31c0,0-22.58-161.14-19.27-223.22c0.31-5.8,5.08-10.34,10.88-10.34h15.6
	c25.64,0,46.18,21.23,45.28,46.85C511.86,745.3,500.88,869.18,500.88,869.18z"/>
<path class="st2" d="M370.56,516.1l131.5,81.15c6.64,3.96,15.21,0.18,16.76-7.4l19.93-101.18l10.42-17.34l-1.49-20.75l-5.42-19.63
	l-15.62-5.29c-2.05-0.7-4.26,0.53-4.75,2.65l-4.26,18.44l-8.45,10.62l1.19-5.14l2.44-6.18c1.48-3.74-0.72-7.92-4.64-8.83l0,0
	l-9.69,10.85l-3.37,12.33l11.26,18.54l-13.76,64.35l-105.1-68.41L370.56,516.1z"/>
<path class="st3" d="M369.07,541.81l-10.89-96.15l54.87,10.21c13.43,2.5,24.25,9.65,28.88,19.07l37.14,54.47l-50.75,6.02
	L369.07,541.81z"/>
<path class="st8" d="M330.02,503.45L330.02,503.45c-14.14,0-25.61-11.47-25.61-25.61v-44.43h51.22v44.43
	C355.63,491.98,344.16,503.45,330.02,503.45z"/>
<g>
	<path d="M374.95,390.03c-1.04,13.05-1.59,28.34-14.35,35.74c-0.99,0.57-2.03,1.08-3.14,1.3c-0.93,0.19-1.88,0.17-2.82,0.11
		c-3.83-0.26-7.6-1.32-11-3.1c-1.19-0.62-2.36-1.34-3.67-1.6c-4.28-0.85-7.74,3.16-11.34,5.61c-6.79,4.62-15.87,3.97-23.81,1.84
		c-4.52-1.22-9.63-3.65-10.35-8.28c-0.36-2.34,0.52-4.86-0.42-7.03c-0.75-1.73-2.46-2.8-3.94-3.99c-3.38-2.71-3.12-8.01-3.21-12.05
		c-0.07-3.25-0.14-6.5-0.22-9.74c-0.04-1.61-0.07-3.23-0.39-4.8c-0.38-1.92-1.17-3.75-1.37-5.69c-0.24-2.38,0.98-3.13,1.75-5.01
		c0.65-1.6,0.35-3.42,1.26-5.03c1.08-1.91,2.68-3.47,3.96-5.26c1.7-2.36,2.83-5.07,4.43-7.5c1.6-2.42,3.86-4.65,6.71-5.18
		c1.07-0.2,2.18-0.15,3.26-0.35c3.22-0.6,5.57-3.27,8.07-5.39c2.44-2.07,5.23-3.73,8.22-4.89c2.1-0.81,4.35-1.38,6.6-1.16
		c2.99,0.3,5.77,1.98,8.77,1.85c1.42-0.06,2.81-0.54,4.23-0.6c3.46-0.16,6.61,2.09,10.07,2.39c8.84,0.77,18.9,8.9,18.5,18.18
		c-0.05,1.14-0.18,2.31,0.21,3.38c0.6,1.62,2.26,2.6,3.13,4.09c2.02,3.45-0.86,7.82-0.27,11.78c0.17,1.16,0.64,2.25,0.93,3.39
		C375.32,385.29,375.14,387.69,374.95,390.03z"/>
</g>
<path class="st2" d="M306.73,434.43c0,0-10.08,1.48-12.95-8.96c0,0-7.85-21.16,0-22.18c0,0,16.53,10.79,16.53,15.61
	C310.3,423.71,306.73,434.43,306.73,434.43z"/>
<path class="st2" d="M359.2,434.43c0,0,10.08,1.48,12.95-8.96c0,0,7.85-21.16,0-22.18c0,0-16.53,10.79-16.53,15.61
	C355.63,423.71,359.2,434.43,359.2,434.43z"/>
<path class="st2" d="M348.24,470.57l-0.92,0.53c-4.73,2.7-10.09,4.13-15.54,4.13l0,0c-5.71,0-11.3-1.56-16.19-4.51l0,0
	c-11.38-6.87-18.33-19.19-18.33-32.49v-62.51h70.1v61.9C367.36,451.24,360.07,463.82,348.24,470.57z"/>
<g>
	<path d="M289.67,402.44c2.31-0.23,5.86-0.13,7.8-1.37c1.58-1.01,2.59-2.84,2.61-4.7c0-0.55-0.05-1.18,0.33-1.58
		c0.47-0.5,1.29-0.34,1.97-0.26c1.94,0.23,3.98-0.62,5.19-2.15c1.21-1.54,1.55-3.72,0.87-5.55c1.23,0.57,2.75,0.05,3.69-0.93
		c2.27-2.36,0.82-6.87,3.16-8.98c3.73-3.37,6.4,2.9,9.43,4.76c2.83,1.73,6.77,1.4,9.27-0.78c-1.42,2.69,0.64,6.24,3.52,7.2
		c2.88,0.96,6.09-0.09,8.62-1.78c0.24,0.54,0.47,1.08,0.68,1.63c11.31,7.83,28.12,12.31,30.82-6.2c0.67-4.6-1.69-15.46-4.44-19.35
		c-1.47-2.08-3.67-3.53-5.9-4.77c-22.47-12.54-53.27-7.57-70.65,11.4c-2.4,2.62-4.59,5.51-5.97,8.79
		c-3.21,7.61-1.76,16.3,0.06,24.34"/>
</g>
<path class="st3" d="M285.96,545.08l10.89-96.15l-54.87,10.21c-13.43,2.5-24.25,9.65-28.88,19.07l-37.14,54.47l50.75,6.02
	L285.96,545.08z"/>
</svg>
