<?xml version="1.0" encoding="utf-8"?>
<!-- Generator: Adobe Illustrator 23.0.1, SVG Export Plug-In . SVG Version: 6.00 Build 0)  -->
<svg version="1.1" id="Layer_1" xmlns="http://www.w3.org/2000/svg" xmlns:xlink="http://www.w3.org/1999/xlink" x="0px" y="0px"
	 viewBox="0 0 230 190" style="enable-background:new 0 0 230 190;" xml:space="preserve">
<style type="text/css">
	.st0{fill:none;stroke:#FFFFFF;stroke-width:5;stroke-miterlimit:10;}
	.st1{fill:#231F20;stroke:#FFFFFF;stroke-miterlimit:10;}
	.st2{fill:#EAD7B9;}
	.st3{fill:#5BC0EE;}
	.st4{fill:#4E5068;}
	.st5{fill:#354053;}
	.st6{fill:#8B8B8B;}
	.st7{fill:none;stroke:#181B3B;stroke-miterlimit:10;}
	.st8{fill:#D3C2A9;}
</style>
<line class="st0" x1="37.4" y1="43.4" x2="196.4" y2="43.4"/>
<rect x="181.6" y="25" class="st1" width="5.2" height="38"/>
<rect x="46.6" y="25.3" class="st1" width="5.2" height="38"/>
<rect x="187.5" y="24.9" class="st1" width="5.2" height="38"/>
<rect x="40.9" y="25.3" class="st1" width="5.2" height="38"/>
<path class="st2" d="M104.8,63.2L69.3,86.5c-1.8,1.1-4.1,0.1-4.5-2.1l-5.4-29l-2.8-5l0.4-5.9l1.5-5.6l4.2-1.5
	c0.6-0.2,1.2,0.2,1.3,0.8l1.2,5.3l2.3,3L67,45l-0.7-1.8c-0.4-1.1,0.2-2.3,1.3-2.5l0,0l2.6,3.1l0.9,3.5l-3,5.3L71.8,71l28.4-19.6
	L104.8,63.2z"/>
<rect x="74.1" y="152.6" class="st2" width="9.8" height="13.5"/>
<rect x="153.5" y="152.6" class="st2" width="9.8" height="13.5"/>
<polygon class="st3" points="111.2,42.1 97.1,46 94.3,76.9 92.6,117.4 141,118.5 138.3,78.2 135.9,46.2 126.8,42.1 "/>
<path class="st4" d="M83.4,121.1l8.1,7.7c2.3,2.2,5.4,3.5,8.5,3.5h31c2.9,0,5.6-1,7.9-2.9l12.2-10.2l-1.5-22.6l-26.1,11.7H106
	l-22.6-13l-2.5,8.2L83.4,121.1z"/>
<path class="st5" d="M83.4,121.1l8.1,7.7c2.3,2.2,5.4,3.5,8.5,3.5h31c2.9,0,5.6-1,7.9-2.9l12.2-10.2l-1.5-22.6l-26.1,11.7H106
	l-22.6-13l-2.5,8.2L83.4,121.1z"/>
<path class="st6" d="M74,163.3c0,0-0.8,7.5-6.5,14.5v3.3h19l0.4-4.6c0,0-2.8-7.5-3.1-11C83.8,165.6,82.9,160.5,74,163.3z"/>
<path d="M86.8,177.7c0,0-15.8-1-19.2,0.1v3.3h19L86.8,177.7z"/>
<line class="st7" x1="74.1" y1="167.6" x2="79.4" y2="167.6"/>
<line class="st7" x1="73.7" y1="169.6" x2="79" y2="169.6"/>
<line class="st7" x1="72.6" y1="172.3" x2="77.9" y2="172.3"/>
<path class="st6" d="M163.1,163.3c0,0,0.8,7.5,6.5,14.5v3.3h-19l-0.4-4.6c0,0,2.8-7.5,3.1-11C153.4,165.6,154.3,160.5,163.1,163.3z"
	/>
<path d="M150.4,177.7c0,0,15.8-1,19.2,0.1v3.3h-19L150.4,177.7z"/>
<line class="st7" x1="163.1" y1="167.6" x2="157.8" y2="167.6"/>
<line class="st7" x1="163.5" y1="169.6" x2="158.2" y2="169.6"/>
<line class="st7" x1="164.6" y1="172.3" x2="159.3" y2="172.3"/>
<path class="st5" d="M74.2,162h10.6c0,0,2.6-45.4,1.4-63.5c-0.1-1.9-1.6-3.4-3.4-3.4H79c-6.9,0-11.7,6.1-12.2,13.4
	C65.5,127.6,74.2,162,74.2,162z"/>
<path class="st5" d="M163.2,163.3h-10.6c0,0-6.1-46.1-5.2-63.9c0.1-1.7,1.4-3,2.9-3h4.2c6.9,0,12.5,6.1,12.2,13.4
	C166.2,127.9,163.2,163.3,163.2,163.3z"/>
<path class="st2" d="M128,62.3l35.5,23.2c1.8,1.1,4.1,0.1,4.5-2.1l5.4-29l2.8-5l-0.4-5.9l-1.5-5.6l-4.2-1.5
	c-0.6-0.2-1.2,0.2-1.3,0.8l-1.2,5.3l-2.3,3l0.3-1.5l0.7-1.8c0.4-1.1-0.2-2.3-1.3-2.5l0,0l-2.6,3.1l-0.9,3.5l3,5.3L161,70.1
	l-28.4-19.6L128,62.3z"/>
<path class="st3" d="M127.6,69.7l-2.9-27.5l14.8,2.9c3.6,0.7,6.5,2.8,7.8,5.5l10,15.6l-13.7,1.7L127.6,69.7z"/>
<path class="st8" d="M117.1,58.7L117.1,58.7c-3.8,0-6.9-3.3-6.9-7.3V38.6H124v12.7C124,55.4,120.9,58.7,117.1,58.7z"/>
<g>
	<path d="M129.2,26.2c-0.3,3.7-0.4,8.1-3.9,10.2c-0.3,0.2-0.5,0.3-0.8,0.4c-0.3,0.1-0.5,0-0.8,0c-1-0.1-2.1-0.4-3-0.9
		c-0.3-0.2-0.6-0.4-1-0.5c-1.2-0.2-2.1,0.9-3.1,1.6c-1.8,1.3-4.3,1.1-6.4,0.5c-1.2-0.3-2.6-1-2.8-2.4c-0.1-0.7,0.1-1.4-0.1-2
		c-0.2-0.5-0.7-0.8-1.1-1.1c-0.9-0.8-0.8-2.3-0.9-3.4c0-0.9,0-1.9-0.1-2.8c0-0.5,0-0.9-0.1-1.4s-0.3-1.1-0.4-1.6
		c-0.1-0.7,0.3-0.9,0.5-1.4s0.1-1,0.3-1.4c0.3-0.5,0.7-1,1.1-1.5c0.5-0.7,0.8-1.5,1.2-2.1c0.4-0.7,1-1.3,1.8-1.5
		c0.3-0.1,0.6,0,0.9-0.1c0.9-0.2,1.5-0.9,2.2-1.5s1.4-1.1,2.2-1.4c0.6-0.2,1.2-0.4,1.8-0.3c0.8,0.1,1.6,0.6,2.4,0.5
		c0.4,0,0.8-0.2,1.1-0.2c0.9,0,1.8,0.6,2.7,0.7c2.4,0.2,5.1,2.5,5,5.2c0,0.3,0,0.7,0.1,1c0.2,0.5,0.6,0.7,0.8,1.2
		c0.5,1-0.2,2.2-0.1,3.4c0,0.3,0.2,0.6,0.3,1C129.3,24.9,129.3,25.6,129.2,26.2z"/>
</g>
<path class="st2" d="M110.8,38.9c0,0-2.7,0.4-3.5-2.6c0,0-2.1-6.1,0-6.3c0,0,4.5,3.1,4.5,4.5C111.8,35.9,110.8,38.9,110.8,38.9z"/>
<path class="st2" d="M125,38.9c0,0,2.7,0.4,3.5-2.6c0,0,2.1-6.1,0-6.3c0,0-4.5,3.1-4.5,4.5C124,35.9,125,38.9,125,38.9z"/>
<path class="st2" d="M122,49.3l-0.2,0.2c-1.3,0.8-2.7,1.2-4.2,1.2l0,0c-1.5,0-3.1-0.4-4.4-1.3l0,0c-3.1-2-5-5.5-5-9.3v-18h18.9v17.7
	C127.2,43.7,125.2,47.3,122,49.3z"/>
<g>
	<path d="M106.2,29.8c0.6-0.1,1.6,0,2.1-0.4c0.4-0.3,0.7-0.8,0.7-1.3c0-0.2,0-0.3,0.1-0.5c0.1-0.1,0.3-0.1,0.5-0.1
		c0.5,0.1,1.1-0.2,1.4-0.6s0.4-1.1,0.2-1.6c0.3,0.2,0.7,0,1-0.3c0.6-0.7,0.2-2,0.9-2.6c1-1,1.7,0.8,2.5,1.4c0.8,0.5,1.8,0.4,2.5-0.2
		c-0.4,0.8,0.2,1.8,1,2.1c0.8,0.3,1.6,0,2.3-0.5c0.1,0.2,0.1,0.3,0.2,0.5c3.1,2.2,7.6,3.5,8.3-1.8c0.2-1.3-0.5-4.4-1.2-5.5
		c-0.4-0.6-1-1-1.6-1.4c-6.1-3.6-14.4-2.2-19.1,3.3c-0.6,0.7-1.2,1.6-1.6,2.5c-0.9,2.2-0.5,4.7,0,7"/>
</g>
<path class="st3" d="M105.2,70.6l2.9-27.5L93.3,46c-3.6,0.7-6.5,2.8-7.8,5.5L75.5,67l13.7,1.7L105.2,70.6z"/>
</svg>
