<?xml version="1.0" encoding="utf-8"?>
<!-- Generator: Adobe Illustrator 23.0.2, SVG Export Plug-In . SVG Version: 6.00 Build 0)  -->
<svg version="1.1" id="Layer_1" xmlns="http://www.w3.org/2000/svg" xmlns:xlink="http://www.w3.org/1999/xlink" x="0px" y="0px"
	 viewBox="0 0 1188.34 1200" style="enable-background:new 0 0 1188.34 1200;" xml:space="preserve">
<style type="text/css">
	.st0{fill-rule:evenodd;clip-rule:evenodd;fill:#23291E;}
	.st1{fill-rule:evenodd;clip-rule:evenodd;fill:#10120F;}
	.st2{fill-rule:evenodd;clip-rule:evenodd;fill:#010101;}
	.st3{fill-rule:evenodd;clip-rule:evenodd;fill:#384631;}
	.st4{fill-rule:evenodd;clip-rule:evenodd;fill:#151D11;}
	.st5{fill-rule:evenodd;clip-rule:evenodd;fill:#CB922E;}
	.st6{fill-rule:evenodd;clip-rule:evenodd;fill:#D2993A;}
	.st7{fill-rule:evenodd;clip-rule:evenodd;fill:#C68A2F;}
	.st8{fill-rule:evenodd;clip-rule:evenodd;fill:#2B3B22;}
	.st9{fill-rule:evenodd;clip-rule:evenodd;fill:#1C2818;}
	.st10{fill-rule:evenodd;clip-rule:evenodd;fill:#0F0F0D;}
	.st11{fill-rule:evenodd;clip-rule:evenodd;fill:#172014;}
	.st12{fill-rule:evenodd;clip-rule:evenodd;fill:#33452A;}
	.st13{fill-rule:evenodd;clip-rule:evenodd;fill:#3C5330;}
	.st14{fill-rule:evenodd;clip-rule:evenodd;fill:#69835C;}
	.st15{fill-rule:evenodd;clip-rule:evenodd;fill:#809576;}
	.st16{fill-rule:evenodd;clip-rule:evenodd;fill:#523E2E;}
	.st17{fill-rule:evenodd;clip-rule:evenodd;fill:#36291E;}
	.st18{fill-rule:evenodd;clip-rule:evenodd;fill:#A05525;}
	.st19{fill-rule:evenodd;clip-rule:evenodd;fill:#17120F;}
	.st20{fill-rule:evenodd;clip-rule:evenodd;fill:#35271A;}
	.st21{fill-rule:evenodd;clip-rule:evenodd;fill:#E2AC4C;}
	.st22{fill-rule:evenodd;clip-rule:evenodd;fill:#090C09;}
	.st23{fill-rule:evenodd;clip-rule:evenodd;fill:#A3A39E;}
	.st24{fill-rule:evenodd;clip-rule:evenodd;fill:#4C5245;}
</style>
<g>
	<path class="st0" d="M984.25,805.66c16.21,0.08,24.31,0.12,24.31,0.12c0.81-6.05-2.68-11.85-8.4-13.96c0,0-3.16-0.51-9.47-1.52
		C988.18,795.26,986.03,800.39,984.25,805.66"/>
	<path class="st1" d="M930.46,805.78c40.46,2.76,61.16,2.19,61.16,2.19s0.69-5.73,2.06-17.18c0,0-5.5-0.92-16.49-2.75
		c0,0-6.85-4.07-20.54-12.2c0,0,0.99-11.16,2.97-33.48c0,0-12.27-0.18-36.82-0.54C922.79,741.83,925.04,764.44,930.46,805.78"/>
	<path class="st2" d="M935.04,806.08c7.37,0.44,11.06,0.66,11.06,0.66s-3.02-21.09-9.05-63.26c-6.76,1.5-10.13,2.25-10.13,2.25
		C932.33,785.97,935.04,806.08,935.04,806.08"/>
	<path class="st1" d="M854.42,835.2c20.52,0.89,32.7-0.3,36.53-3.57c0,0-1.53-10.87-4.59-32.61c0,0,0.76-13.7,2.27-41.09
		c0,0-11.44-0.79-34.33-2.36c2.49,28.9,3.74,43.35,3.74,43.35C855.62,823.11,854.42,835.2,854.42,835.2"/>
	<path class="st2" d="M868.48,816.81c3.18,1.16,6.82,0.72,9.81-1.19c0,0,1.04-18.67,3.11-56c-0.63-1.89-6.79-2.44-18.47-1.66
		C866.63,797.19,868.48,816.81,868.48,816.81"/>
	<path class="st3" d="M919.29,737.77c0.87-13.93,1.37-41.6,1.5-83.03c-2.01-111,15.04-137.07,51.16-78.22
		c1.95,49.83,1.2,60.51,1.2,60.51c-0.78,9.05-3.79,39.03-9.02,89.93c-1.58,15.56-2.74,18.62-8.24,18.9
		c-17.06,0.74-25.6,1.1-25.6,1.1C922.47,746.96,919.04,746.38,919.29,737.77"/>
	<path class="st3" d="M887.45,760.93c-5.69-0.21-14.49-0.13-26.4,0.23c-10.25,0.3-12.58-2.62-9.73-15.04
		c12.55-60.05,15.6-67.98,14.68-83.34l-4.74-78.55c14.85-13.19,40.47-22.28,74.53-27.28l-19.64,128.04
		c-3.61,19.21-11.73,35.84-19.75,67.33C894.58,758.36,893.49,760.9,887.45,760.93"/>
	<path class="st3" d="M954.56,550.41c-25.74-36.3-41.96-29.31-48.66,20.96C924.14,570.61,941.47,563.15,954.56,550.41"/>
	<path class="st4" d="M890.85,412.87l-9.86-24.01c-15.63,4.65-27.42,8.78-35.38,12.4c4.93,7.92,9.4,14.99,13.41,21.2l9.06,74.69
		h38.45c-26.57,2.43-40.81,8.8-42.73,19.1c-12.04,35.19-18.06,52.79-18.06,52.79c12.85,16.99,32.97,27.93,55.12,29.98
		c19.09-36.28,28.13-58.38,27.11-66.29c21.5,29.08,36.87,46.25,46.09,51.51c5.72,0,8.58,0,8.58,0c-3.72-28.17-7.96-57.21-12.73-87.1
		l-12.69-97.91L890.85,412.87z"/>
	<polygon class="st3" points="924.33,388.38 957.27,391.59 961.47,400.27 928.52,397.06 	"/>
	<path class="st4" d="M1012.73,430.87c-8.74,16.32-12.23,30.02-12.68,35.91c-8.46-0.44-24.37-11.21-45.52-27.12
		c-11.47-30.17-24.2-52.96,22.39-32C1002.48,421.88,1012.73,430.87,1012.73,430.87"/>
	<path class="st3" d="M971.76,409.64c10.56,0.51,15.84,0.76,15.84,0.76s3.08,1.71,9.24,5.14c0,0-1.95,2.66-5.86,7.99
		c0,0-6.34-3.46-19.03-10.39C971.83,410.81,971.77,409.64,971.76,409.64"/>
	<path class="st3" d="M1019.27,430.15c1.44,30.05,1.58,44.74,1.58,44.74c-2.63,1.71-6.54,1.31-11.74-1.2c0,0-3.52-1.89-10.55-5.66
		c-2.71-1.52-4.67-5.68-4.87-12.59C993.88,428.78,1000.72,414.47,1019.27,430.15"/>
	<path class="st5" d="M1034.5,483.18c-16.42-1.48-23.62-11.24-21.62-29.28l5.68-56.64h0.55c0.82,0,1.52-0.54,1.8-1.3l19.94,9.14
		l4.97,61.33C1046.78,478.17,1040.85,483.68,1034.5,483.18"/>
	<path class="st6" d="M1021.88,392.89c8.26,9.51,12.38,14.27,12.38,14.27c-6.65,1.98-11.88,0.01-15.67-5.89
		C1017.17,398.63,1018.26,395.84,1021.88,392.89"/>
	<path class="st7" d="M891.08,391.64c1.67,8.24,8.42,14.75,17.15,16.55c8.73,1.8,17.76-1.46,22.96-8.28c0,0-2.69-9.81,1.33-22.61
		c0,0-10.1-19.33-37.46-27.69C895.78,385.27,891.08,391.64,891.08,391.64"/>
	<path class="st3" d="M918.11,424.64h3.78v72.51h-3.78V424.64z M913.58,406.43c-7.6,12.37-11.4,18.56-11.4,18.56
		c-11.57-0.88-17.13-13.72-21.36-37.23c4.84-3.15,7.33-5.66,12.14-8.83C896.5,393.9,903.37,403.07,913.58,406.43z"/>
	<path class="st8" d="M957.89,351.1c-3.52-1-5.28-1.51-5.28-1.51c-2.81,31.09-6.09,47.87-9.85,50.36c1.02,1.82,2.57,3.06,4.31,3.45
		C951.23,398.34,954.84,380.9,957.89,351.1"/>
	<path class="st9" d="M954.12,339.8c-2.18,10.41-3.26,15.62-3.26,15.62c12.13-3.42,19.42-6.18,21.88-8.28
		C963.96,339.97,957.75,337.52,954.12,339.8"/>
	<path class="st6" d="M900.06,375.57c2.66,6.97,6.87,12.79,11.32,17.07c8.14,7.84,19.45,8.86,21.09,4.1
		c1.42-4.19,4.11-8.87,12.43-18.55c2.46-2.84,3.58-6.99,3.35-12.46c-0.32-4.99,0.55-8.01,5.39-11.33c3.4-2.3,4.52-7.25,3.53-14.79
		c-1.42,0.23-2.9,0.16-4.35-0.26c-0.86-0.02-1.73-0.16-2.58-0.42l-1.34-0.1l-1.56-0.12c-0.78-0.02-1.58-0.02-2.35-0.13l-2.11-0.28
		l-1.88-0.2c-0.89-0.1-1.82-0.34-2.7-0.53c-0.77-0.17-1.46-0.43-2.19-0.7l-0.27-0.05l-0.42-0.05c-0.85-0.08-1.71-0.27-2.55-0.57
		l-1.24-0.46l0.62,0.02c-0.79-0.04-1.59-0.18-2.38-0.42c-0.45-0.06-0.91-0.14-1.36-0.27c-0.78-0.09-1.56-0.27-2.32-0.55l-0.56-0.21
		l0.62,0.02c-0.97-0.05-1.95-0.25-2.9-0.6l-0.15-0.05l-0.29,0c-0.97,0.01-2-0.15-2.97-0.26l-1.61-0.12
		c-0.86-0.06-1.73-0.26-2.58-0.43c-1.03-0.2-1.97-0.58-2.96-0.95c-2.11-0.78-3.79-2.19-4.92-3.95c-5.95,6.82-9.06,15.85-8.32,25.17
		C896.14,363.18,896.7,365.29,900.06,375.57"/>
	<path class="st10" d="M923.12,306.22l0.15,0.08l-0.25-0.01L923.12,306.22z M904.62,352.44c-0.21,5-5.92,10.34-6.68,6.06
		c-1.08-11.12-1.24-20.55-0.49-28.28c0.72-0.14,1.44-0.35,2.12-0.65c0.78-0.14,1.55-0.37,2.3-0.7c1.47-0.03,2.93-0.38,4.3-1.08
		l0.25-0.05c1.09-0.21,2.14-0.61,3.13-1.19c0.23-0.08,0.46-0.17,0.69-0.27c0.5-0.09,0.96-0.21,1.44-0.37
		c0.46-0.02,0.92-0.08,1.38-0.16l1.34-0.25l0.06-0.01c0.47,0.04,0.94,0.07,1.4,0.05l1.37-0.04c-1.2,2.13-1.44,4.75-0.52,7.16
		c1.11,3.02-1.61,5.22-7.69,6.85C905.29,340.64,904.82,344.14,904.62,352.44z"/>
	<path class="st6" d="M891.89,354.57c-0.5-3.99-2.11-7.37-4.83-10.15c-2.03-2.16-2.2-5.27-1.08-7.9c1.12-2.63,3.59-4.44,6.44-4.71
		c2.85-0.27,5.61,1.05,7.2,3.42c4.66,6.73,3.64,15.87-2.39,21.41c-0.91,0.77-2.17,0.98-3.29,0.55
		C892.82,356.76,892.03,355.75,891.89,354.57"/>
	<path class="st11" d="M887.53,343.78c5.09,0.71,7.63,1.06,7.63,1.06c-10.44,33.38-13.75,52.28-9.94,56.69
		c-2.17,1.37-4.77,1.88-7.23,1.43C874.8,395.68,877.99,375.96,887.53,343.78"/>
	<path class="st12" d="M923.44,342.59c13.29-0.88,29.89-0.4,49.81,1.45c-2.88-2.84-4.24-6.22-4.08-10.13
		c1.11-15.76-6.32-30.9-19.46-39.67c-13.14-8.77-29.97-9.82-44.1-2.75c-14.13,7.07-20.78,14.86-24.23,36.95
		c-1.44,11.06-2.17,16.59-2.17,16.59c18.32-5.16,28.19-6.81,29.63-4.93C918.58,341.76,923.44,342.59,923.44,342.59"/>
	<path class="st13" d="M909.46,339.13c3.78,2.4,5.67,3.6,5.67,3.6s-9.9,2.04-29.69,6.13c-1.84,0.35-3.22-0.55-5.32-2.8
		C899.68,341.44,909.46,339.13,909.46,339.13"/>
	<path class="st14" d="M877.13,343.77c0.04,1.81,0.82,2.81,2.59,3.18c0,0,9.33-2.88,25.74-5.82c2.31-0.48,3.85-0.22,5.1,0.45
		c8.69,4.3,7.31,3.3,20.45,2.93c17.93-0.33,32.29,0.83,43.08,3.48c0.8-1.33,0.43-3.06-0.84-3.94c-12.47-2.49-26.43-3.68-41.88-3.57
		c-12.28-0.09-11.23,1.12-16.61-1.52c19.7-1.73,38.71-0.85,57.03,2.64c0.51-0.01,0.92-0.4,0.95-0.91c0.03-0.5-0.34-0.94-0.84-1
		c-20.58-3.97-40.88-4.81-60.89-2.53c-3.13-1.26-4.92-0.92-6.68-0.53C895.2,338.73,886.13,341.12,877.13,343.77"/>
	<polygon class="st15" points="891.43,323.09 893.38,327.6 898.21,326.69 894.53,329.94 896.88,334.26 892.65,331.76 889.28,335.33 
		890.35,330.53 885.91,328.43 890.8,327.96 	"/>
	<rect x="1003.36" y="378.01" class="st16" width="29.02" height="15.22"/>
	<path class="st17" d="M953.56,371.24h3.98c0.56,0,1.02,0.46,1.02,1.02v2.49h17.5c0.82,0,1.5,0.67,1.5,1.5v5.22
		c0,0.82-0.67,1.5-1.5,1.5h-24.35c-0.82,0-1.5-0.67-1.5-1.5v-5.22c0-0.82,0.67-1.5,1.5-1.5h0.83v-2.49
		C952.54,371.7,953,371.24,953.56,371.24"/>
	<path class="st18" d="M949.58,389.15c11.14,0.69,16.71,1.04,16.71,1.04c-0.17,5.24-2.99,10.05-7.48,12.76
		c0,0-19.64,12.45-58.92,37.35c-5.05,3.04-6.8,2.51-8.23-0.85c0,0-2.79-6.74-8.36-20.22c-1.03-2.42-0.78-3.67,0.64-4.28
		C927.71,397.75,949.58,389.15,949.58,389.15"/>
	<path class="st19" d="M1000.82,374.22h100.97h6.58v-8.84c0-0.95,0.69-1.86,1.69-1.86c0.93,0,1.69,0.84,1.69,1.86v8.84h4.17h13.6
		c2.09,0,3.79,1.71,3.79,3.79c0,2.09-1.71,3.79-3.79,3.79h-13.47c-0.04,0-0.08,0-0.12,0h-97.87l-6.98,56.24
		c-0.13,1.08-1.13,1.97-2.21,1.97h-10.96c-1.08,0-1.86-0.89-1.72-1.97l2.93-23.57h-36.33v-9.62h-6.52c-5.21,0.13-6.54-0.01-6.6-3.45
		v-4.17h51.6l1.92-15.43h-2.33c-1.06,0-1.93-0.96-1.93-2.13v-3.34C998.89,375.18,999.75,374.22,1000.82,374.22"/>
	<path class="st16" d="M945.41,378.08h54.55c2.12,0,3.86,1.73,3.86,3.86v13.44c0,2.12-1.74,3.86-3.86,3.86h-54.55
		c-2.12,0-3.86-1.73-3.86-3.86v-13.44C941.56,379.82,943.29,378.08,945.41,378.08"/>
	<path class="st20" d="M923.41,433.02c-2.79,2.33-3.27,3.8-3.27,3.8c66.21,45.58,110.48,45.1,161.27-40.52
		c-5.51,0-10.63-0.63-10.63-0.63C1023.45,475.13,985.49,472.53,923.41,433.02"/>
	<path class="st18" d="M1023.29,381.3h74.85c1.06,0,1.93,0.87,1.93,1.93v13.69c0,1.06-0.87,1.93-1.93,1.93h-74.85
		c-1.06,0-1.93-0.87-1.93-1.93v-13.69C1021.36,382.17,1022.23,381.3,1023.29,381.3"/>
	<path class="st4" d="M836.61,462.28c30.19-12.72,45.29-19.07,45.29-19.07s-4.34-12.99-13.03-38.96
		c-2.37-8.33-13.44-12.29-22.71-10.51c-9.26,1.78-18.66,9.24-17.26,18.19C834.04,445.5,836.61,462.28,836.61,462.28"/>
	<path class="st3" d="M885.91,442.77c-24.03,18.13-22.87,35.56-19.13,42.83c-9.12,7.65-18.87-2.44-27.49-14.43
		c-6.24-8.69-3.61-13.76,1.3-18.84c8.6-8.58,19.58-14.38,31.52-16.62C879.29,434.3,882.11,433.37,885.91,442.77"/>
	<path class="st21" d="M1026.83,403.06c1.41,6.57,11.03,5.12,25.17-2.96c4.84-2.73,5.16-8.05,2.43-17.51
		c-1.8-6.17-12.04-6.62-20-2.62c-6.94,3.25-10.05,9.68-9.64,14.11C1026.15,400.07,1026.83,403.06,1026.83,403.06"/>
	<polygon class="st3" points="837.44,392.06 869.59,386.52 878.43,393.48 846.28,399.02 	"/>
	<path class="st22" d="M870.15,490.93h96.2c2.14,0,4.07,1.75,4.29,3.9l0.99,9.86c0.22,2.14-1.36,3.9-3.5,3.9h-96.2
		c-2.14,0-4.07-1.75-4.29-3.9l-0.99-9.86C866.43,492.68,868.01,490.93,870.15,490.93"/>
	<path class="st6" d="M966.48,436.22c4.99,1.13,9.01-2.17,13.72-10.5c3.04-5.53-0.63-6.65-5.77-10.43
		c-2.28-1.59-1.82-2.29,0.98-1.58c0,0,4.67,1.18,14,3.53c1.61,0.45,2.77-1.78,3.25-3.36c0.48-1.58,0.72-4.06-0.83-4.6
		c-2.29-0.7-5.2-1.52-19.14-5.18c-5.21-1.1-10.48-0.13-13.85,0.95c0,0-11.02,3.09-24.56,9.11c0,0-26.33,12.34-79,37.03
		c-9.75,4.48-8.72,20.28-1.62,28.83c7.1,8.55,11.85,10.41,27.13,0.37c29.69-19.76,64.28-44.12,64.28-44.12
		c3.08-2.18,4.62-3.27,4.62-3.27C960.88,435.14,966.48,436.22,966.48,436.22"/>
	<path class="st23" d="M931.75,803.83h75.76c1.07,0,1.95,0.88,1.95,1.95v4.96c0,1.07-0.88,1.95-1.95,1.95h-75.76
		c-1.07,0-1.95-0.88-1.95-1.95v-4.96C929.8,804.71,930.68,803.83,931.75,803.83"/>
	<path class="st24" d="M863.52,771.43l19.41-0.81c0.7-0.03,1.28,0.52,1.29,1.22v0c0.01,0.7-0.56,1.3-1.26,1.33l-19.41,0.81
		c-0.7,0.03-1.28-0.52-1.29-1.22v0C862.25,772.05,862.82,771.45,863.52,771.43"/>
	<path class="st24" d="M864.28,776.87l17.99-0.75c0.7-0.03,1.28,0.52,1.29,1.22v0c0.01,0.7-0.56,1.3-1.26,1.33l-17.99,0.75
		c-0.7,0.03-1.28-0.52-1.29-1.22v0C863.02,777.5,863.58,776.9,864.28,776.87"/>
	<path class="st24" d="M865.06,782l16.55-0.69c0.7-0.03,1.28,0.52,1.29,1.22v0c0.01,0.7-0.56,1.3-1.26,1.33l-16.55,0.69
		c-0.7,0.03-1.28-0.52-1.29-1.22v0C863.8,782.63,864.36,782.03,865.06,782"/>
	<path class="st24" d="M866.02,787.12l14.76-0.61c0.7-0.03,1.28,0.52,1.29,1.22v0c0.01,0.7-0.56,1.3-1.26,1.33l-14.76,0.61
		c-0.7,0.03-1.28-0.52-1.29-1.22v0C864.75,787.75,865.32,787.15,866.02,787.12"/>
	<path class="st24" d="M866.93,792.27l13.05-0.54c0.7-0.03,1.28,0.52,1.29,1.22v0c0.01,0.7-0.56,1.3-1.26,1.33l-13.05,0.54
		c-0.7,0.03-1.28-0.52-1.29-1.22v0C865.67,792.9,866.23,792.3,866.93,792.27"/>
	<path class="st24" d="M867.51,797.22l12-0.5c0.7-0.03,1.28,0.52,1.29,1.22v0c0.01,0.7-0.56,1.3-1.26,1.33l-12,0.5
		c-0.7,0.03-1.28-0.52-1.29-1.22v0C866.24,797.84,866.81,797.25,867.51,797.22"/>
	<path class="st24" d="M868.34,802.04l10.44-0.43c0.7-0.03,1.28,0.52,1.29,1.22v0c0.01,0.7-0.56,1.3-1.26,1.33l-10.44,0.43
		c-0.7,0.03-1.28-0.52-1.29-1.22v0C867.08,802.66,867.65,802.07,868.34,802.04"/>
	<path class="st24" d="M869.3,806.8l8.65-0.36c0.7-0.03,1.28,0.52,1.29,1.22v0c0.01,0.7-0.56,1.3-1.26,1.33l-8.65,0.36
		c-0.7,0.03-1.28-0.52-1.29-1.22v0C868.03,807.43,868.6,806.83,869.3,806.8"/>
	<path class="st24" d="M869.81,811.98l7.74-0.32c0.7-0.03,1.28,0.52,1.29,1.22v0c0.01,0.7-0.56,1.3-1.26,1.33l-7.74,0.32
		c-0.7,0.03-1.28-0.52-1.29-1.22v0C868.54,812.61,869.11,812.01,869.81,811.98"/>
	<path class="st24" d="M950.77,752.05l7.75-0.64c0.7-0.06,1.27,0.47,1.27,1.17v0c0,0.7-0.56,1.32-1.26,1.38l-7.75,0.64
		c-0.7,0.06-1.27-0.47-1.27-1.17v0C949.51,752.73,950.08,752.11,950.77,752.05"/>
	<path class="st24" d="M950.99,756.67l7.75-0.64c0.7-0.06,1.27,0.47,1.27,1.17v0c0,0.7-0.56,1.32-1.26,1.38l-7.75,0.64
		c-0.7,0.06-1.27-0.47-1.27-1.17v0C949.73,757.34,950.3,756.72,950.99,756.67"/>
	<path class="st24" d="M950.55,761.11l7.75-0.64c0.7-0.06,1.27,0.47,1.27,1.17v0c0,0.7-0.56,1.32-1.26,1.38l-7.75,0.64
		c-0.7,0.06-1.27-0.47-1.27-1.17v0C949.29,761.79,949.86,761.17,950.55,761.11"/>
	<path class="st24" d="M950.77,765.73l7.75-0.64c0.7-0.06,1.27,0.47,1.27,1.17v0c0,0.7-0.56,1.32-1.26,1.38l-7.75,0.64
		c-0.7,0.06-1.27-0.47-1.27-1.17v0C949.51,766.41,950.08,765.79,950.77,765.73"/>
	<path class="st24" d="M950.64,770.43l7.75-0.64c0.7-0.06,1.27,0.47,1.27,1.17v0c0,0.7-0.56,1.32-1.26,1.38l-7.75,0.64
		c-0.7,0.06-1.27-0.47-1.27-1.17v0C949.38,771.11,949.95,770.49,950.64,770.43"/>
	<path class="st24" d="M950.86,775.05l7.75-0.64c0.7-0.06,1.27,0.47,1.27,1.17v0c0,0.7-0.56,1.32-1.26,1.38l-7.75,0.64
		c-0.7,0.06-1.27-0.47-1.27-1.17v0C949.6,775.73,950.17,775.11,950.86,775.05"/>
	<path class="st24" d="M954.09,783.02l5.45-5.56c0.49-0.5,1.27-0.48,1.73,0.05l0,0c0.46,0.53,0.44,1.37-0.05,1.87l-5.45,5.56
		c-0.49,0.5-1.27,0.48-1.73-0.05l0,0C953.58,784.35,953.6,783.52,954.09,783.02"/>
	<path class="st24" d="M958.66,785.2l5.45-5.56c0.49-0.5,1.27-0.48,1.73,0.05l0,0c0.46,0.53,0.44,1.37-0.05,1.87l-5.45,5.56
		c-0.49,0.5-1.27,0.48-1.73-0.05l0,0C958.15,786.54,958.17,785.7,958.66,785.2"/>
	<path class="st24" d="M962.75,787.77l5.45-5.56c0.49-0.5,1.27-0.48,1.73,0.05l0,0c0.46,0.53,0.44,1.37-0.05,1.87l-5.45,5.56
		c-0.49,0.5-1.27,0.48-1.73-0.05l0,0C962.24,789.1,962.26,788.27,962.75,787.77"/>
	<path class="st24" d="M967.39,790.86l5.45-5.55c0.49-0.5,1.27-0.48,1.73,0.05l0,0c0.46,0.53,0.44,1.37-0.05,1.87l-5.45,5.56
		c-0.49,0.5-1.27,0.48-1.73-0.05l0,0C966.88,792.2,966.9,791.36,967.39,790.86"/>
</g>
<g>
	<path class="st0" d="M795.14,862.24c16.21,0.08,24.31,0.12,24.31,0.12c0.81-6.05-2.68-11.85-8.4-13.96c0,0-3.16-0.51-9.47-1.52
		C799.08,851.84,796.93,856.97,795.14,862.24"/>
	<path class="st1" d="M741.35,862.36c40.46,2.76,61.16,2.19,61.16,2.19s0.69-5.73,2.06-17.18c0,0-5.5-0.92-16.49-2.75
		c0,0-6.85-4.07-20.54-12.2c0,0,0.99-11.16,2.97-33.48c0,0-12.27-0.18-36.82-0.54C733.69,798.41,735.94,821.02,741.35,862.36"/>
	<path class="st2" d="M745.94,862.67c7.37,0.44,11.06,0.66,11.06,0.66s-3.02-21.09-9.05-63.26c-6.76,1.5-10.13,2.25-10.13,2.25
		C743.23,842.55,745.94,862.67,745.94,862.67"/>
	<path class="st1" d="M665.31,891.78c20.52,0.89,32.7-0.3,36.53-3.57c0,0-1.53-10.87-4.59-32.61c0,0,0.76-13.7,2.27-41.09
		c0,0-11.44-0.79-34.33-2.36c2.49,28.9,3.74,43.35,3.74,43.35C666.52,879.69,665.31,891.78,665.31,891.78"/>
	<path class="st2" d="M679.37,873.39c3.18,1.16,6.82,0.72,9.81-1.19c0,0,1.04-18.67,3.11-56c-0.63-1.89-6.79-2.44-18.47-1.66
		C677.53,853.77,679.37,873.39,679.37,873.39"/>
	<path class="st3" d="M730.18,794.35c0.87-13.93,1.37-41.6,1.5-83.03c-2.01-111,15.04-137.07,51.16-78.22
		c1.95,49.83,1.2,60.51,1.2,60.51c-0.78,9.05-3.79,39.03-9.02,89.93c-1.58,15.56-2.74,18.62-8.24,18.9
		c-17.06,0.74-25.6,1.1-25.6,1.1C733.36,803.55,729.94,802.96,730.18,794.35"/>
	<path class="st3" d="M698.35,817.51c-5.69-0.21-14.49-0.13-26.4,0.23c-10.25,0.3-12.58-2.62-9.73-15.04
		c12.55-60.05,15.6-67.98,14.68-83.34l-4.74-78.55c14.85-13.19,40.47-22.28,74.53-27.28l-19.64,128.04
		c-3.61,19.21-11.73,35.84-19.75,67.33C705.48,814.94,704.39,817.49,698.35,817.51"/>
	<path class="st3" d="M765.45,607c-25.74-36.3-41.96-29.31-48.66,20.96C735.04,627.19,752.36,619.73,765.45,607"/>
	<path class="st4" d="M701.74,469.45l-9.86-24.01c-15.63,4.65-27.42,8.78-35.38,12.4c4.93,7.92,9.4,14.99,13.41,21.2l9.06,74.69
		h38.45c-26.57,2.43-40.81,8.8-42.73,19.1c-12.04,35.19-18.06,52.79-18.06,52.79c12.85,16.99,32.97,27.93,55.12,29.98
		c19.09-36.28,28.13-58.38,27.11-66.29c21.5,29.08,36.87,46.25,46.09,51.51c5.72,0,8.58,0,8.58,0c-3.72-28.17-7.96-57.21-12.73-87.1
		l-12.69-97.91L701.74,469.45z"/>
	<polygon class="st3" points="735.22,444.96 768.17,448.17 772.36,456.86 739.42,453.65 	"/>
	<path class="st4" d="M823.62,487.45c-8.74,16.32-12.23,30.02-12.68,35.91c-8.46-0.44-24.37-11.21-45.52-27.12
		c-11.47-30.17-24.2-52.96,22.39-32C813.37,478.47,823.62,487.45,823.62,487.45"/>
	<path class="st3" d="M782.65,466.22c10.56,0.51,15.84,0.76,15.84,0.76s3.08,1.71,9.24,5.14c0,0-1.95,2.66-5.86,7.99
		c0,0-6.34-3.46-19.03-10.39C782.73,467.39,782.66,466.22,782.65,466.22"/>
	<path class="st3" d="M830.17,486.73c1.44,30.05,1.58,44.74,1.58,44.74c-2.63,1.71-6.54,1.31-11.74-1.2c0,0-3.52-1.89-10.55-5.66
		c-2.71-1.52-4.67-5.68-4.87-12.59C804.78,485.37,811.62,471.05,830.17,486.73"/>
	<path class="st5" d="M845.4,539.76c-16.42-1.48-23.62-11.24-21.62-29.28l5.68-56.64h0.55c0.82,0,1.52-0.54,1.8-1.3l19.94,9.14
		l4.97,61.33C857.68,534.75,851.75,540.26,845.4,539.76"/>
	<path class="st6" d="M832.77,449.48c8.26,9.51,12.38,14.27,12.38,14.27c-6.65,1.98-11.88,0.01-15.67-5.89
		C828.07,455.21,829.16,452.42,832.77,449.48"/>
	<path class="st7" d="M701.98,448.23c1.67,8.24,8.42,14.75,17.15,16.55c8.73,1.8,17.76-1.46,22.96-8.28c0,0-2.69-9.81,1.33-22.61
		c0,0-10.1-19.33-37.46-27.69C706.67,441.85,701.98,448.23,701.98,448.23"/>
	<path class="st3" d="M729.01,481.22h3.78v72.51h-3.78V481.22z M724.48,463.01c-7.6,12.37-11.4,18.56-11.4,18.56
		c-11.57-0.88-17.13-13.72-21.36-37.23c4.84-3.15,7.33-5.66,12.14-8.83C707.4,450.48,714.27,459.65,724.48,463.01z"/>
	<path class="st8" d="M768.78,407.68c-3.52-1-5.28-1.51-5.28-1.51c-2.81,31.09-6.09,47.87-9.85,50.36c1.02,1.82,2.57,3.06,4.31,3.45
		C762.13,454.92,765.74,437.49,768.78,407.68"/>
	<path class="st9" d="M765.02,396.38c-2.18,10.41-3.26,15.62-3.26,15.62c12.13-3.42,19.42-6.18,21.88-8.28
		C774.86,396.55,768.65,394.1,765.02,396.38"/>
	<path class="st6" d="M710.96,432.15c2.66,6.97,6.87,12.79,11.32,17.07c8.14,7.84,19.45,8.86,21.09,4.1
		c1.42-4.19,4.11-8.87,12.43-18.55c2.46-2.84,3.58-6.99,3.35-12.46c-0.32-4.99,0.55-8.01,5.39-11.33c3.4-2.3,4.52-7.25,3.53-14.79
		c-1.42,0.23-2.9,0.16-4.35-0.26c-0.86-0.02-1.73-0.16-2.58-0.42l-1.34-0.1l-1.56-0.12c-0.78-0.02-1.58-0.02-2.35-0.13l-2.11-0.28
		l-1.88-0.2c-0.89-0.1-1.82-0.34-2.7-0.53c-0.77-0.17-1.46-0.43-2.19-0.7l-0.27-0.05l-0.42-0.05c-0.85-0.08-1.71-0.27-2.55-0.57
		l-1.24-0.46l0.62,0.02c-0.79-0.04-1.59-0.18-2.38-0.42c-0.45-0.06-0.91-0.14-1.36-0.27c-0.78-0.09-1.56-0.27-2.32-0.55l-0.56-0.21
		l0.62,0.02c-0.97-0.05-1.95-0.25-2.9-0.6l-0.15-0.05l-0.29,0c-0.97,0.01-2-0.15-2.97-0.26l-1.61-0.12
		c-0.86-0.06-1.73-0.26-2.58-0.43c-1.03-0.2-1.97-0.58-2.96-0.95c-2.11-0.78-3.79-2.19-4.92-3.95c-5.95,6.82-9.06,15.85-8.32,25.17
		C707.04,419.76,707.6,421.87,710.96,432.15"/>
	<path class="st10" d="M734.02,362.8l0.15,0.08l-0.25-0.01L734.02,362.8z M715.51,409.02c-0.21,5-5.92,10.34-6.68,6.06
		c-1.08-11.12-1.24-20.55-0.49-28.28c0.72-0.14,1.44-0.35,2.12-0.65c0.78-0.14,1.55-0.37,2.3-0.7c1.47-0.03,2.93-0.38,4.3-1.08
		l0.25-0.05c1.09-0.21,2.14-0.61,3.13-1.19c0.23-0.08,0.46-0.17,0.69-0.27c0.5-0.09,0.96-0.21,1.44-0.37
		c0.46-0.02,0.92-0.08,1.38-0.16l1.34-0.25l0.06-0.01c0.47,0.04,0.94,0.07,1.4,0.05l1.37-0.04c-1.2,2.13-1.44,4.75-0.52,7.16
		c1.11,3.02-1.61,5.22-7.69,6.85C716.19,397.22,715.71,400.72,715.51,409.02z"/>
	<path class="st6" d="M702.79,411.15c-0.5-3.99-2.11-7.37-4.83-10.15c-2.03-2.16-2.2-5.27-1.08-7.9c1.12-2.63,3.59-4.44,6.44-4.71
		c2.85-0.27,5.61,1.05,7.2,3.42c4.66,6.73,3.64,15.87-2.39,21.41c-0.91,0.77-2.17,0.98-3.29,0.55
		C703.72,413.35,702.93,412.34,702.79,411.15"/>
	<path class="st11" d="M698.43,400.36c5.09,0.71,7.63,1.06,7.63,1.06c-10.44,33.38-13.75,52.28-9.94,56.69
		c-2.17,1.37-4.77,1.88-7.23,1.43C685.7,452.27,688.88,432.54,698.43,400.36"/>
	<path class="st12" d="M734.34,399.17c13.29-0.88,29.89-0.4,49.81,1.45c-2.88-2.84-4.24-6.22-4.08-10.13
		c1.11-15.76-6.32-30.9-19.46-39.67c-13.14-8.77-29.97-9.82-44.1-2.75c-14.13,7.07-20.78,14.86-24.23,36.95
		c-1.44,11.06-2.17,16.59-2.17,16.59c18.32-5.16,28.19-6.81,29.63-4.93C729.48,398.34,734.34,399.17,734.34,399.17"/>
	<path class="st13" d="M720.36,395.71c3.78,2.4,5.67,3.6,5.67,3.6s-9.9,2.04-29.69,6.13c-1.84,0.35-3.22-0.55-5.32-2.8
		C710.58,398.02,720.36,395.71,720.36,395.71"/>
	<path class="st14" d="M688.03,400.35c0.04,1.81,0.82,2.81,2.59,3.18c0,0,9.33-2.88,25.74-5.82c2.31-0.48,3.85-0.22,5.1,0.45
		c8.69,4.3,7.31,3.3,20.45,2.93c17.93-0.33,32.29,0.83,43.08,3.48c0.8-1.33,0.43-3.06-0.84-3.94c-12.47-2.49-26.43-3.68-41.88-3.57
		c-12.28-0.09-11.23,1.12-16.61-1.52c19.7-1.73,38.71-0.85,57.03,2.64c0.51-0.01,0.92-0.4,0.95-0.91c0.03-0.5-0.34-0.94-0.84-1
		c-20.58-3.97-40.88-4.81-60.89-2.53c-3.13-1.26-4.92-0.92-6.68-0.53C706.1,395.31,697.03,397.7,688.03,400.35"/>
	<polygon class="st15" points="702.33,379.67 704.28,384.18 709.11,383.28 705.43,386.53 707.78,390.84 703.55,388.34 
		700.17,391.91 701.24,387.12 696.81,385.01 701.7,384.55 	"/>
	<rect x="814.25" y="434.59" class="st16" width="29.02" height="15.22"/>
	<path class="st17" d="M764.45,427.82h3.98c0.56,0,1.02,0.46,1.02,1.02v2.49h17.5c0.82,0,1.5,0.67,1.5,1.5v5.22
		c0,0.82-0.67,1.5-1.5,1.5h-24.35c-0.82,0-1.5-0.67-1.5-1.5v-5.22c0-0.82,0.67-1.5,1.5-1.5h0.83v-2.49
		C763.43,428.28,763.89,427.82,764.45,427.82"/>
	<path class="st18" d="M760.48,445.73c11.14,0.69,16.71,1.04,16.71,1.04c-0.17,5.24-2.99,10.05-7.48,12.76
		c0,0-19.64,12.45-58.92,37.35c-5.05,3.04-6.8,2.51-8.23-0.85c0,0-2.79-6.74-8.36-20.22c-1.03-2.42-0.78-3.67,0.64-4.28
		C738.6,454.33,760.48,445.73,760.48,445.73"/>
	<path class="st19" d="M811.71,430.8h100.97h6.58v-8.84c0-0.95,0.69-1.86,1.69-1.86c0.93,0,1.69,0.84,1.69,1.86v8.84h4.17h13.6
		c2.09,0,3.79,1.71,3.79,3.79c0,2.09-1.71,3.79-3.79,3.79h-13.47c-0.04,0-0.08,0-0.12,0h-97.87l-6.98,56.24
		c-0.13,1.08-1.13,1.97-2.21,1.97h-10.96c-1.08,0-1.86-0.89-1.72-1.97l2.93-23.57h-36.33v-9.62h-6.52c-5.21,0.13-6.54-0.01-6.6-3.45
		v-4.17h51.6l1.92-15.43h-2.33c-1.06,0-1.93-0.96-1.93-2.13v-3.34C809.78,431.76,810.65,430.8,811.71,430.8"/>
	<path class="st16" d="M756.31,434.67h54.55c2.12,0,3.86,1.73,3.86,3.86v13.44c0,2.12-1.74,3.86-3.86,3.86h-54.55
		c-2.12,0-3.86-1.73-3.86-3.86v-13.44C752.45,436.4,754.19,434.67,756.31,434.67"/>
	<path class="st20" d="M734.3,489.61c-2.79,2.33-3.27,3.8-3.27,3.8c66.21,45.58,110.48,45.1,161.27-40.52
		c-5.51,0-10.63-0.63-10.63-0.63C834.34,531.71,796.39,529.11,734.3,489.61"/>
	<path class="st18" d="M834.18,437.88h74.85c1.06,0,1.93,0.87,1.93,1.93v13.69c0,1.06-0.87,1.93-1.93,1.93h-74.85
		c-1.06,0-1.93-0.87-1.93-1.93v-13.69C832.26,438.75,833.12,437.88,834.18,437.88"/>
	<path class="st4" d="M647.51,518.87c30.19-12.72,45.29-19.07,45.29-19.07s-4.34-12.99-13.03-38.96
		c-2.37-8.33-13.44-12.29-22.71-10.51c-9.26,1.78-18.66,9.24-17.26,18.19C644.94,502.08,647.51,518.87,647.51,518.87"/>
	<path class="st3" d="M696.8,499.35c-24.03,18.13-22.87,35.56-19.13,42.83c-9.12,7.65-18.87-2.44-27.49-14.43
		c-6.24-8.69-3.61-13.76,1.3-18.84c8.6-8.58,19.58-14.38,31.52-16.62C690.19,490.88,693.01,489.95,696.8,499.35"/>
	<path class="st21" d="M837.72,459.64c1.41,6.57,11.03,5.12,25.17-2.96c4.84-2.73,5.16-8.05,2.43-17.51
		c-1.8-6.17-12.04-6.62-20-2.62c-6.94,3.25-10.05,9.68-9.64,14.11C837.04,456.65,837.72,459.64,837.72,459.64"/>
	<polygon class="st3" points="648.34,448.65 680.49,443.11 689.33,450.06 657.18,455.6 	"/>
	<path class="st22" d="M681.05,547.51h96.2c2.14,0,4.07,1.75,4.29,3.9l0.99,9.86c0.22,2.14-1.36,3.9-3.5,3.9h-96.2
		c-2.14,0-4.07-1.75-4.29-3.9l-0.99-9.86C677.33,549.27,678.91,547.51,681.05,547.51"/>
	<path class="st6" d="M777.37,492.8c4.99,1.13,9.01-2.17,13.72-10.5c3.04-5.53-0.63-6.65-5.77-10.43c-2.28-1.59-1.82-2.29,0.98-1.58
		c0,0,4.67,1.18,14,3.53c1.61,0.45,2.77-1.78,3.25-3.36c0.48-1.58,0.72-4.06-0.83-4.6c-2.29-0.7-5.2-1.52-19.14-5.18
		c-5.21-1.1-10.48-0.13-13.85,0.95c0,0-11.02,3.09-24.56,9.11c0,0-26.33,12.34-79,37.03c-9.75,4.48-8.72,20.28-1.62,28.83
		c7.1,8.55,11.85,10.41,27.13,0.37c29.69-19.76,64.28-44.12,64.28-44.12c3.08-2.18,4.62-3.27,4.62-3.27
		C771.78,491.72,777.37,492.8,777.37,492.8"/>
	<path class="st23" d="M742.65,860.41h75.76c1.07,0,1.95,0.88,1.95,1.95v4.96c0,1.07-0.88,1.95-1.95,1.95h-75.76
		c-1.07,0-1.95-0.88-1.95-1.95v-4.96C740.7,861.29,741.58,860.41,742.65,860.41"/>
	<path class="st24" d="M674.41,828.01l19.41-0.81c0.7-0.03,1.28,0.52,1.29,1.22v0c0.01,0.7-0.56,1.3-1.26,1.33l-19.41,0.81
		c-0.7,0.03-1.28-0.52-1.29-1.22v0C673.15,828.63,673.72,828.04,674.41,828.01"/>
	<path class="st24" d="M675.18,833.45l17.99-0.75c0.7-0.03,1.28,0.52,1.29,1.22v0c0.01,0.7-0.56,1.3-1.26,1.33L675.21,836
		c-0.7,0.03-1.28-0.52-1.29-1.22v0C673.92,834.08,674.48,833.48,675.18,833.45"/>
	<path class="st24" d="M675.96,838.58l16.55-0.69c0.7-0.03,1.28,0.52,1.29,1.22v0c0.01,0.7-0.56,1.3-1.26,1.33l-16.55,0.69
		c-0.7,0.03-1.28-0.52-1.29-1.22v0C674.7,839.21,675.26,838.61,675.96,838.58"/>
	<path class="st24" d="M676.92,843.7l14.76-0.61c0.7-0.03,1.28,0.52,1.29,1.22v0c0.01,0.7-0.56,1.3-1.26,1.33l-14.76,0.61
		c-0.7,0.03-1.28-0.52-1.29-1.22v0C675.65,844.33,676.22,843.73,676.92,843.7"/>
	<path class="st24" d="M677.83,848.85l13.05-0.54c0.7-0.03,1.28,0.52,1.29,1.22v0c0.01,0.7-0.56,1.3-1.26,1.33l-13.05,0.54
		c-0.7,0.03-1.28-0.52-1.29-1.22v0C676.56,849.48,677.13,848.88,677.83,848.85"/>
	<path class="st24" d="M678.41,853.8l12-0.5c0.7-0.03,1.28,0.52,1.29,1.22v0c0.01,0.7-0.56,1.3-1.26,1.33l-12,0.5
		c-0.7,0.03-1.28-0.52-1.29-1.22v0C677.14,854.42,677.71,853.83,678.41,853.8"/>
	<path class="st24" d="M679.24,858.62l10.44-0.43c0.7-0.03,1.28,0.52,1.29,1.22v0c0.01,0.7-0.56,1.3-1.26,1.33l-10.44,0.43
		c-0.7,0.03-1.28-0.52-1.29-1.22v0C677.98,859.24,678.54,858.65,679.24,858.62"/>
	<path class="st24" d="M680.19,863.38l8.65-0.36c0.7-0.03,1.28,0.52,1.29,1.22v0c0.01,0.7-0.56,1.3-1.26,1.33l-8.65,0.36
		c-0.7,0.03-1.28-0.52-1.29-1.22v0C678.93,864.01,679.49,863.41,680.19,863.38"/>
	<path class="st24" d="M680.7,868.57l7.74-0.32c0.7-0.03,1.28,0.52,1.29,1.22v0c0.01,0.7-0.56,1.3-1.26,1.33l-7.74,0.32
		c-0.7,0.03-1.28-0.52-1.29-1.22v0C679.44,869.19,680,868.59,680.7,868.57"/>
	<path class="st24" d="M761.67,808.63l7.75-0.64c0.7-0.06,1.27,0.47,1.27,1.17v0c0,0.7-0.56,1.32-1.26,1.38l-7.75,0.64
		c-0.7,0.06-1.27-0.47-1.27-1.17v0C760.41,809.31,760.98,808.69,761.67,808.63"/>
	<path class="st24" d="M761.89,813.25l7.75-0.64c0.7-0.06,1.27,0.47,1.27,1.17v0c0,0.7-0.56,1.32-1.26,1.38l-7.75,0.64
		c-0.7,0.06-1.27-0.47-1.27-1.17v0C760.63,813.93,761.2,813.31,761.89,813.25"/>
	<path class="st24" d="M761.45,817.69l7.75-0.64c0.7-0.06,1.27,0.47,1.27,1.17v0c0,0.7-0.56,1.32-1.26,1.38l-7.75,0.64
		c-0.7,0.06-1.27-0.47-1.27-1.17v0C760.19,818.37,760.76,817.75,761.45,817.69"/>
	<path class="st24" d="M761.67,822.31l7.75-0.64c0.7-0.06,1.27,0.47,1.27,1.17v0c0,0.7-0.56,1.32-1.26,1.38l-7.75,0.64
		c-0.7,0.06-1.27-0.47-1.27-1.17v0C760.41,822.99,760.98,822.37,761.67,822.31"/>
	<path class="st24" d="M761.54,827.02l7.75-0.64c0.7-0.06,1.27,0.47,1.27,1.17v0c0,0.7-0.56,1.32-1.26,1.38l-7.75,0.64
		c-0.7,0.06-1.27-0.47-1.27-1.17v0C760.28,827.69,760.84,827.07,761.54,827.02"/>
	<path class="st24" d="M761.76,831.64l7.75-0.64c0.7-0.06,1.27,0.47,1.27,1.17v0c0,0.7-0.56,1.32-1.26,1.38l-7.75,0.64
		c-0.7,0.06-1.27-0.47-1.27-1.17v0C760.5,832.31,761.06,831.69,761.76,831.64"/>
	<path class="st24" d="M764.99,839.6l5.45-5.56c0.49-0.5,1.27-0.48,1.73,0.05l0,0c0.46,0.53,0.44,1.37-0.05,1.87l-5.45,5.56
		c-0.49,0.5-1.27,0.48-1.73-0.05l0,0C764.48,840.94,764.5,840.1,764.99,839.6"/>
	<path class="st24" d="M769.56,841.78l5.45-5.56c0.49-0.5,1.27-0.48,1.73,0.05l0,0c0.46,0.53,0.44,1.37-0.05,1.87l-5.45,5.56
		c-0.49,0.5-1.27,0.48-1.73-0.05l0,0C769.04,843.12,769.07,842.28,769.56,841.78"/>
	<path class="st24" d="M773.65,844.35l5.45-5.56c0.49-0.5,1.27-0.48,1.73,0.05l0,0c0.46,0.53,0.44,1.37-0.05,1.87l-5.45,5.56
		c-0.49,0.5-1.27,0.48-1.73-0.05l0,0C773.14,845.69,773.16,844.85,773.65,844.35"/>
	<path class="st24" d="M778.29,847.44l5.45-5.55c0.49-0.5,1.27-0.48,1.73,0.05l0,0c0.46,0.53,0.44,1.37-0.05,1.87l-5.45,5.56
		c-0.49,0.5-1.27,0.48-1.73-0.05l0,0C777.78,848.78,777.8,847.94,778.29,847.44"/>
</g>
<g>
	<path class="st0" d="M616.86,938.73c16.21,0.08,24.31,0.12,24.31,0.12c0.81-6.05-2.68-11.85-8.4-13.96c0,0-3.16-0.51-9.47-1.52
		C620.8,928.33,618.64,933.46,616.86,938.73"/>
	<path class="st1" d="M563.07,938.85c40.46,2.76,61.16,2.19,61.16,2.19s0.69-5.73,2.06-17.18c0,0-5.5-0.92-16.49-2.75
		c0,0-6.85-4.07-20.54-12.2c0,0,0.99-11.16,2.97-33.48c0,0-12.27-0.18-36.82-0.54C555.4,874.9,557.65,897.51,563.07,938.85"/>
	<path class="st2" d="M567.66,939.15c7.37,0.44,11.06,0.66,11.06,0.66s-3.02-21.09-9.05-63.26c-6.76,1.5-10.13,2.25-10.13,2.25
		C564.95,919.04,567.66,939.15,567.66,939.15"/>
	<path class="st1" d="M487.03,968.27c20.52,0.89,32.7-0.3,36.53-3.57c0,0-1.53-10.87-4.59-32.61c0,0,0.76-13.7,2.27-41.09
		c0,0-11.44-0.79-34.33-2.36c2.49,28.9,3.74,43.35,3.74,43.35C488.23,956.18,487.03,968.27,487.03,968.27"/>
	<path class="st2" d="M501.09,949.88c3.18,1.16,6.82,0.72,9.81-1.19c0,0,1.04-18.67,3.11-56c-0.63-1.89-6.79-2.44-18.47-1.66
		C499.24,930.26,501.09,949.88,501.09,949.88"/>
	<path class="st3" d="M551.9,870.84c0.87-13.93,1.37-41.6,1.5-83.03c-2.01-111,15.04-137.07,51.16-78.22
		c1.95,49.83,1.2,60.51,1.2,60.51c-0.78,9.05-3.79,39.03-9.02,89.93c-1.58,15.56-2.74,18.62-8.24,18.9
		c-17.06,0.74-25.6,1.1-25.6,1.1C555.08,880.03,551.66,879.45,551.9,870.84"/>
	<path class="st3" d="M520.07,894c-5.69-0.21-14.49-0.13-26.4,0.23c-10.25,0.3-12.58-2.62-9.73-15.04
		c12.55-60.05,15.6-67.98,14.68-83.34l-4.74-78.55c14.85-13.19,40.47-22.28,74.53-27.28l-19.64,128.04
		c-3.61,19.21-11.73,35.84-19.75,67.33C527.19,891.43,526.11,893.97,520.07,894"/>
	<path class="st3" d="M587.17,683.49c-25.74-36.3-41.96-29.31-48.66,20.96C556.76,703.68,574.08,696.22,587.17,683.49"/>
	<path class="st4" d="M523.46,545.94l-9.86-24.01c-15.63,4.65-27.42,8.78-35.38,12.4c4.93,7.92,9.4,14.99,13.41,21.2l9.06,74.69
		h38.45c-26.57,2.43-40.81,8.8-42.73,19.1c-12.04,35.19-18.06,52.79-18.06,52.79c12.85,16.99,32.97,27.93,55.12,29.98
		c19.09-36.28,28.13-58.38,27.11-66.29c21.5,29.08,36.87,46.25,46.09,51.51c5.72,0,8.58,0,8.58,0c-3.72-28.17-7.96-57.21-12.73-87.1
		l-12.69-97.91L523.46,545.94z"/>
	<polygon class="st3" points="556.94,521.45 589.88,524.66 594.08,533.34 561.13,530.14 	"/>
	<path class="st4" d="M645.34,563.94c-8.74,16.32-12.23,30.02-12.68,35.91c-8.46-0.44-24.37-11.21-45.52-27.12
		c-11.47-30.17-24.2-52.96,22.39-32C635.09,554.95,645.34,563.94,645.34,563.94"/>
	<path class="st3" d="M604.37,542.71c10.56,0.51,15.84,0.76,15.84,0.76s3.08,1.71,9.24,5.14c0,0-1.95,2.66-5.86,7.99
		c0,0-6.34-3.46-19.03-10.39C604.45,543.88,604.38,542.71,604.37,542.71"/>
	<path class="st3" d="M651.88,563.22c1.44,30.05,1.58,44.74,1.58,44.74c-2.63,1.71-6.54,1.31-11.74-1.2c0,0-3.52-1.89-10.55-5.66
		c-2.71-1.52-4.67-5.68-4.87-12.59C626.49,561.85,633.33,547.54,651.88,563.22"/>
	<path class="st5" d="M667.11,616.25c-16.42-1.48-23.62-11.24-21.62-29.28l5.68-56.64h0.55c0.82,0,1.52-0.54,1.8-1.3l19.94,9.14
		l4.97,61.33C679.39,611.24,673.46,616.75,667.11,616.25"/>
	<path class="st6" d="M654.49,525.96c8.26,9.51,12.38,14.27,12.38,14.27c-6.65,1.98-11.88,0.01-15.67-5.89
		C649.78,531.7,650.88,528.91,654.49,525.96"/>
	<path class="st7" d="M523.7,524.71c1.67,8.24,8.42,14.75,17.15,16.55c8.73,1.8,17.76-1.46,22.96-8.28c0,0-2.69-9.81,1.33-22.61
		c0,0-10.1-19.33-37.46-27.69C528.39,518.34,523.7,524.71,523.7,524.71"/>
	<path class="st3" d="M550.73,557.71h3.78v72.51h-3.78V557.71z M546.2,539.5c-7.6,12.37-11.4,18.56-11.4,18.56
		c-11.57-0.88-17.13-13.72-21.36-37.23c4.84-3.15,7.33-5.66,12.14-8.83C529.11,526.97,535.98,536.14,546.2,539.5z"/>
	<path class="st8" d="M590.5,484.17c-3.52-1-5.28-1.51-5.28-1.51c-2.81,31.09-6.09,47.87-9.85,50.36c1.02,1.82,2.57,3.06,4.31,3.45
		C583.85,531.41,587.46,513.97,590.5,484.17"/>
	<path class="st9" d="M586.73,472.87c-2.18,10.41-3.26,15.62-3.26,15.62c12.13-3.42,19.42-6.18,21.88-8.28
		C596.57,473.04,590.37,470.59,586.73,472.87"/>
	<path class="st6" d="M532.67,508.64c2.66,6.97,6.87,12.79,11.32,17.07c8.14,7.84,19.45,8.86,21.09,4.1
		c1.42-4.19,4.11-8.87,12.43-18.55c2.46-2.84,3.58-6.99,3.35-12.46c-0.32-4.99,0.55-8.01,5.39-11.33c3.4-2.3,4.52-7.25,3.53-14.79
		c-1.42,0.23-2.9,0.16-4.35-0.26c-0.86-0.02-1.73-0.16-2.58-0.42l-1.34-0.1l-1.56-0.12c-0.78-0.02-1.58-0.02-2.35-0.13l-2.11-0.28
		l-1.88-0.2c-0.89-0.1-1.82-0.34-2.7-0.53c-0.77-0.17-1.46-0.43-2.19-0.7l-0.27-0.05l-0.42-0.05c-0.85-0.08-1.71-0.27-2.55-0.57
		l-1.24-0.46l0.62,0.02c-0.79-0.04-1.59-0.18-2.38-0.42c-0.45-0.06-0.91-0.14-1.36-0.27c-0.78-0.09-1.56-0.27-2.32-0.55l-0.56-0.21
		l0.62,0.02c-0.97-0.05-1.95-0.25-2.9-0.6l-0.15-0.05l-0.29,0c-0.97,0.01-2-0.15-2.97-0.26l-1.61-0.12
		c-0.86-0.06-1.73-0.26-2.58-0.43c-1.03-0.2-1.97-0.58-2.96-0.95c-2.11-0.78-3.79-2.19-4.92-3.95c-5.95,6.82-9.06,15.85-8.32,25.17
		C528.76,496.25,529.32,498.36,532.67,508.64"/>
	<path class="st10" d="M555.73,439.29l0.15,0.08l-0.25-0.01L555.73,439.29z M537.23,485.51c-0.21,5-5.92,10.34-6.68,6.06
		c-1.08-11.12-1.24-20.55-0.49-28.28c0.72-0.14,1.44-0.35,2.12-0.65c0.78-0.14,1.55-0.37,2.3-0.7c1.47-0.03,2.93-0.38,4.3-1.08
		l0.25-0.05c1.09-0.21,2.14-0.61,3.13-1.19c0.23-0.08,0.46-0.17,0.69-0.27c0.5-0.09,0.96-0.21,1.44-0.37
		c0.46-0.02,0.92-0.08,1.38-0.16l1.34-0.25l0.06-0.01c0.47,0.04,0.94,0.07,1.4,0.05l1.37-0.04c-1.2,2.13-1.44,4.75-0.52,7.16
		c1.11,3.02-1.61,5.22-7.69,6.85C537.9,473.71,537.43,477.21,537.23,485.51z"/>
	<path class="st6" d="M524.5,487.64c-0.5-3.99-2.11-7.37-4.83-10.15c-2.03-2.16-2.2-5.27-1.08-7.9c1.12-2.63,3.59-4.44,6.44-4.71
		c2.85-0.27,5.61,1.05,7.2,3.42c4.66,6.73,3.64,15.87-2.39,21.41c-0.91,0.77-2.17,0.98-3.29,0.55
		C525.43,489.83,524.65,488.82,524.5,487.64"/>
	<path class="st11" d="M520.15,476.85c5.09,0.71,7.63,1.06,7.63,1.06c-10.44,33.38-13.75,52.28-9.94,56.69
		c-2.17,1.37-4.77,1.88-7.23,1.43C507.42,528.75,510.6,509.03,520.15,476.85"/>
	<path class="st12" d="M556.06,475.66c13.29-0.88,29.89-0.4,49.81,1.45c-2.88-2.84-4.24-6.22-4.08-10.13
		c1.11-15.76-6.32-30.9-19.46-39.67c-13.14-8.77-29.97-9.82-44.1-2.75c-14.13,7.07-20.78,14.86-24.23,36.95
		c-1.44,11.06-2.17,16.59-2.17,16.59c18.32-5.16,28.19-6.81,29.63-4.93C551.19,474.83,556.06,475.66,556.06,475.66"/>
	<path class="st13" d="M542.07,472.2c3.78,2.4,5.67,3.6,5.67,3.6s-9.9,2.04-29.69,6.13c-1.84,0.35-3.22-0.55-5.32-2.8
		C532.29,474.51,542.07,472.2,542.07,472.2"/>
	<path class="st14" d="M509.75,476.84c0.04,1.81,0.82,2.81,2.59,3.18c0,0,9.33-2.88,25.74-5.82c2.31-0.48,3.85-0.22,5.1,0.45
		c8.69,4.3,7.31,3.3,20.45,2.93c17.93-0.33,32.29,0.83,43.08,3.48c0.8-1.33,0.43-3.06-0.84-3.95c-12.47-2.49-26.43-3.68-41.88-3.57
		c-12.28-0.09-11.23,1.12-16.61-1.52c19.7-1.73,38.71-0.85,57.03,2.64c0.51-0.01,0.92-0.4,0.95-0.91c0.03-0.5-0.34-0.94-0.84-1
		c-20.58-3.97-40.88-4.81-60.89-2.53c-3.13-1.26-4.92-0.92-6.68-0.53C527.81,471.8,518.74,474.19,509.75,476.84"/>
	<polygon class="st15" points="524.04,456.16 526,460.67 530.83,459.76 527.14,463.01 529.5,467.33 525.27,464.83 521.89,468.4 
		522.96,463.6 518.52,461.5 523.41,461.03 	"/>
	<rect x="635.97" y="511.08" class="st16" width="29.02" height="15.22"/>
	<path class="st17" d="M586.17,504.31h3.98c0.56,0,1.02,0.46,1.02,1.02v2.49h17.5c0.82,0,1.5,0.67,1.5,1.5v5.22
		c0,0.82-0.67,1.5-1.5,1.5h-24.35c-0.82,0-1.5-0.67-1.5-1.5v-5.22c0-0.82,0.67-1.5,1.5-1.5h0.83v-2.49
		C585.15,504.77,585.61,504.31,586.17,504.31"/>
	<path class="st18" d="M582.2,522.22c11.14,0.69,16.71,1.04,16.71,1.04c-0.17,5.24-2.99,10.05-7.48,12.76
		c0,0-19.64,12.45-58.92,37.35c-5.05,3.04-6.8,2.51-8.23-0.85c0,0-2.79-6.74-8.36-20.22c-1.03-2.42-0.78-3.67,0.64-4.28
		C560.32,530.82,582.2,522.22,582.2,522.22"/>
	<path class="st19" d="M633.43,507.29H734.4h6.58v-8.84c0-0.95,0.69-1.86,1.69-1.86c0.93,0,1.69,0.84,1.69,1.86v8.84h4.17h13.6
		c2.09,0,3.79,1.71,3.79,3.79c0,2.09-1.71,3.79-3.79,3.79h-13.47c-0.04,0-0.08,0-0.12,0h-97.87l-6.98,56.24
		c-0.13,1.08-1.13,1.97-2.21,1.97H630.5c-1.08,0-1.86-0.89-1.72-1.97l2.93-23.57h-36.33v-9.62h-6.52c-5.21,0.13-6.54-0.01-6.6-3.45
		v-4.17h51.6l1.92-15.43h-2.33c-1.06,0-1.93-0.96-1.93-2.13v-3.34C631.5,508.25,632.37,507.29,633.43,507.29"/>
	<path class="st16" d="M578.03,511.15h54.55c2.12,0,3.86,1.73,3.86,3.86v13.44c0,2.12-1.74,3.86-3.86,3.86h-54.55
		c-2.12,0-3.86-1.73-3.86-3.86v-13.44C574.17,512.89,575.9,511.15,578.03,511.15"/>
	<path class="st20" d="M556.02,566.09c-2.79,2.33-3.27,3.8-3.27,3.8c66.21,45.58,110.48,45.1,161.27-40.52
		c-5.51,0-10.63-0.63-10.63-0.63C656.06,608.2,618.11,605.6,556.02,566.09"/>
	<path class="st18" d="M655.9,514.37h74.85c1.06,0,1.93,0.87,1.93,1.93v13.69c0,1.06-0.87,1.93-1.93,1.93H655.9
		c-1.06,0-1.93-0.87-1.93-1.93V516.3C653.97,515.24,654.84,514.37,655.9,514.37"/>
	<path class="st4" d="M469.23,595.35c30.19-12.72,45.29-19.07,45.29-19.07s-4.34-12.99-13.03-38.96
		c-2.37-8.33-13.44-12.29-22.71-10.51c-9.26,1.78-18.66,9.24-17.26,18.19C466.66,578.57,469.23,595.35,469.23,595.35"/>
	<path class="st3" d="M518.52,575.84c-24.03,18.13-22.87,35.56-19.13,42.83c-9.12,7.65-18.87-2.44-27.49-14.43
		c-6.24-8.69-3.61-13.76,1.3-18.84c8.6-8.58,19.58-14.38,31.52-16.62C511.91,567.37,514.73,566.44,518.52,575.84"/>
	<path class="st21" d="M659.44,536.13c1.41,6.57,11.03,5.12,25.17-2.96c4.84-2.73,5.16-8.05,2.43-17.51
		c-1.8-6.17-12.04-6.62-20-2.62c-6.94,3.25-10.05,9.68-9.64,14.11C658.76,533.14,659.44,536.13,659.44,536.13"/>
	<polygon class="st3" points="470.05,525.13 502.21,519.59 511.05,526.55 478.89,532.09 	"/>
	<path class="st22" d="M502.77,624h96.2c2.14,0,4.07,1.75,4.29,3.9l0.99,9.86c0.22,2.14-1.36,3.9-3.5,3.9h-96.2
		c-2.14,0-4.07-1.75-4.29-3.9l-0.99-9.86C499.05,625.75,500.62,624,502.77,624"/>
	<path class="st6" d="M599.09,569.29c4.99,1.13,9.01-2.17,13.72-10.5c3.04-5.53-0.63-6.65-5.77-10.43
		c-2.28-1.59-1.82-2.29,0.98-1.58c0,0,4.67,1.18,14,3.53c1.61,0.45,2.77-1.78,3.25-3.36c0.48-1.58,0.72-4.06-0.83-4.6
		c-2.29-0.7-5.2-1.52-19.14-5.18c-5.21-1.1-10.48-0.13-13.85,0.95c0,0-11.02,3.09-24.56,9.11c0,0-26.33,12.34-79,37.03
		c-9.75,4.48-8.72,20.28-1.62,28.83c7.1,8.55,11.85,10.41,27.13,0.37c29.69-19.76,64.28-44.12,64.28-44.12
		c3.08-2.18,4.62-3.27,4.62-3.27C593.49,568.21,599.09,569.29,599.09,569.29"/>
	<path class="st23" d="M564.37,936.9h75.76c1.07,0,1.95,0.88,1.95,1.95v4.96c0,1.07-0.88,1.95-1.95,1.95h-75.76
		c-1.07,0-1.95-0.88-1.95-1.95v-4.96C562.42,937.78,563.3,936.9,564.37,936.9"/>
	<path class="st24" d="M496.13,904.5l19.41-0.81c0.7-0.03,1.28,0.52,1.29,1.22v0c0.01,0.7-0.56,1.3-1.26,1.33l-19.41,0.81
		c-0.7,0.03-1.28-0.52-1.29-1.22v0C494.86,905.12,495.43,904.52,496.13,904.5"/>
	<path class="st24" d="M496.9,909.94l17.99-0.75c0.7-0.03,1.28,0.52,1.29,1.22v0c0.01,0.7-0.56,1.3-1.26,1.33l-17.99,0.75
		c-0.7,0.03-1.28-0.52-1.29-1.22v0C495.63,910.57,496.2,909.97,496.9,909.94"/>
	<path class="st24" d="M497.68,915.07l16.55-0.69c0.7-0.03,1.28,0.52,1.29,1.22v0c0.01,0.7-0.56,1.3-1.26,1.33l-16.55,0.69
		c-0.7,0.03-1.28-0.52-1.29-1.22v0C496.41,915.7,496.98,915.1,497.68,915.07"/>
	<path class="st24" d="M498.63,920.19l14.76-0.61c0.7-0.03,1.28,0.52,1.29,1.22v0c0.01,0.7-0.56,1.3-1.26,1.33l-14.76,0.61
		c-0.7,0.03-1.28-0.52-1.29-1.22v0C497.37,920.82,497.93,920.22,498.63,920.19"/>
	<path class="st24" d="M499.55,925.34l13.05-0.54c0.7-0.03,1.28,0.52,1.29,1.22v0c0.01,0.7-0.56,1.3-1.26,1.33l-13.05,0.54
		c-0.7,0.03-1.28-0.52-1.29-1.22v0C498.28,925.97,498.85,925.37,499.55,925.34"/>
	<path class="st24" d="M500.12,930.29l12-0.5c0.7-0.03,1.28,0.52,1.29,1.22v0c0.01,0.7-0.56,1.3-1.26,1.33l-12,0.5
		c-0.7,0.03-1.28-0.52-1.29-1.22v0C498.86,930.91,499.42,930.32,500.12,930.29"/>
	<path class="st24" d="M500.96,935.11l10.44-0.43c0.7-0.03,1.28,0.52,1.29,1.22v0c0.01,0.7-0.56,1.3-1.26,1.33l-10.44,0.43
		c-0.7,0.03-1.28-0.52-1.29-1.22v0C499.69,935.73,500.26,935.14,500.96,935.11"/>
	<path class="st24" d="M501.91,939.87l8.65-0.36c0.7-0.03,1.28,0.52,1.29,1.22v0c0.01,0.7-0.56,1.3-1.26,1.33l-8.65,0.36
		c-0.7,0.03-1.28-0.52-1.29-1.22v0C500.64,940.5,501.21,939.9,501.91,939.87"/>
	<path class="st24" d="M502.42,945.05l7.74-0.32c0.7-0.03,1.28,0.52,1.29,1.22v0c0.01,0.7-0.56,1.3-1.26,1.33l-7.74,0.32
		c-0.7,0.03-1.28-0.52-1.29-1.22v0C501.15,945.68,501.72,945.08,502.42,945.05"/>
	<path class="st24" d="M583.39,885.12l7.75-0.64c0.7-0.06,1.27,0.47,1.27,1.17v0c0,0.7-0.56,1.32-1.26,1.38l-7.75,0.64
		c-0.7,0.06-1.27-0.47-1.27-1.17v0C582.13,885.8,582.69,885.18,583.39,885.12"/>
	<path class="st24" d="M583.61,889.74l7.75-0.64c0.7-0.06,1.27,0.47,1.27,1.17v0c0,0.7-0.56,1.32-1.26,1.38l-7.75,0.64
		c-0.7,0.06-1.27-0.47-1.27-1.17v0C582.35,890.41,582.91,889.79,583.61,889.74"/>
	<path class="st24" d="M583.17,894.18l7.75-0.64c0.7-0.06,1.27,0.47,1.27,1.17v0c0,0.7-0.56,1.32-1.26,1.38l-7.75,0.64
		c-0.7,0.06-1.27-0.47-1.27-1.17v0C581.91,894.86,582.47,894.24,583.17,894.18"/>
	<path class="st24" d="M583.39,898.8l7.75-0.64c0.7-0.06,1.27,0.47,1.27,1.17v0c0,0.7-0.56,1.32-1.26,1.38l-7.75,0.64
		c-0.7,0.06-1.27-0.47-1.27-1.17v0C582.13,899.48,582.69,898.86,583.39,898.8"/>
	<path class="st24" d="M583.26,903.5l7.75-0.64c0.7-0.06,1.27,0.47,1.27,1.17v0c0,0.7-0.56,1.32-1.26,1.38l-7.75,0.64
		c-0.7,0.06-1.27-0.47-1.27-1.17v0C581.99,904.18,582.56,903.56,583.26,903.5"/>
	<path class="st24" d="M583.48,908.12l7.75-0.64c0.7-0.06,1.27,0.47,1.27,1.17v0c0,0.7-0.56,1.32-1.26,1.38l-7.75,0.64
		c-0.7,0.06-1.27-0.47-1.27-1.17v0C582.21,908.8,582.78,908.18,583.48,908.12"/>
	<path class="st24" d="M586.7,916.09l5.45-5.56c0.49-0.5,1.27-0.48,1.73,0.05l0,0c0.46,0.53,0.44,1.37-0.05,1.87l-5.45,5.56
		c-0.49,0.5-1.27,0.48-1.73-0.05l0,0C586.19,917.42,586.21,916.59,586.7,916.09"/>
	<path class="st24" d="M591.27,918.27l5.45-5.56c0.49-0.5,1.27-0.48,1.73,0.05l0,0c0.46,0.53,0.44,1.37-0.05,1.87l-5.45,5.56
		c-0.49,0.5-1.27,0.48-1.73-0.05l0,0C590.76,919.61,590.78,918.77,591.27,918.27"/>
	<path class="st24" d="M595.37,920.84l5.45-5.56c0.49-0.5,1.27-0.48,1.73,0.05l0,0c0.46,0.53,0.44,1.37-0.05,1.87l-5.45,5.56
		c-0.49,0.5-1.27,0.48-1.73-0.05l0,0C594.85,922.17,594.88,921.34,595.37,920.84"/>
	<path class="st24" d="M600.01,923.93l5.45-5.55c0.49-0.5,1.27-0.48,1.73,0.05l0,0c0.46,0.53,0.44,1.37-0.05,1.87l-5.45,5.56
		c-0.49,0.5-1.27,0.48-1.73-0.05l0,0C599.49,925.27,599.52,924.43,600.01,923.93"/>
</g>
<g>
	<path class="st0" d="M433.07,1028.07c16.21,0.08,24.31,0.12,24.31,0.12c0.81-6.05-2.68-11.85-8.4-13.96c0,0-3.16-0.51-9.47-1.52
		C437.01,1017.67,434.86,1022.8,433.07,1028.07"/>
	<path class="st1" d="M379.28,1028.19c40.46,2.76,61.16,2.19,61.16,2.19s0.69-5.73,2.06-17.18c0,0-5.5-0.92-16.49-2.75
		c0,0-6.85-4.07-20.54-12.2c0,0,0.99-11.16,2.97-33.48c0,0-12.27-0.18-36.82-0.54C371.62,964.24,373.86,986.86,379.28,1028.19"/>
	<path class="st2" d="M383.87,1028.5c7.37,0.44,11.06,0.66,11.06,0.66s-3.02-21.09-9.05-63.26c-6.76,1.5-10.13,2.25-10.13,2.25
		C381.16,1008.38,383.87,1028.5,383.87,1028.5"/>
	<path class="st1" d="M303.24,1057.61c20.52,0.89,32.7-0.3,36.53-3.57c0,0-1.53-10.87-4.59-32.61c0,0,0.76-13.7,2.27-41.09
		c0,0-11.44-0.79-34.33-2.36c2.49,28.9,3.74,43.35,3.74,43.35C304.45,1045.52,303.24,1057.61,303.24,1057.61"/>
	<path class="st2" d="M317.3,1039.22c3.18,1.16,6.82,0.72,9.81-1.19c0,0,1.04-18.67,3.11-56c-0.63-1.89-6.79-2.44-18.47-1.66
		C315.46,1019.6,317.3,1039.22,317.3,1039.22"/>
	<path class="st3" d="M368.11,960.18c0.87-13.93,1.37-41.6,1.5-83.03c-2.01-111,15.04-137.07,51.16-78.22
		c1.95,49.83,1.2,60.51,1.2,60.51c-0.78,9.05-3.79,39.03-9.02,89.93c-1.58,15.56-2.74,18.62-8.24,18.9
		c-17.06,0.74-25.6,1.1-25.6,1.1C371.29,969.38,367.87,968.79,368.11,960.18"/>
	<path class="st3" d="M336.28,983.34c-5.69-0.21-14.49-0.13-26.4,0.23c-10.25,0.3-12.58-2.62-9.73-15.04
		c12.55-60.05,15.6-67.98,14.68-83.34l-4.74-78.55c14.85-13.19,40.47-22.28,74.53-27.28L364.97,907.4
		c-3.61,19.21-11.73,35.84-19.75,67.33C343.41,980.77,342.32,983.32,336.28,983.34"/>
	<path class="st3" d="M403.38,772.83c-25.74-36.3-41.96-29.31-48.66,20.96C372.97,793.03,390.29,785.56,403.38,772.83"/>
	<path class="st4" d="M339.67,635.28l-9.86-24.01c-15.63,4.65-27.42,8.78-35.38,12.4c4.93,7.92,9.4,14.99,13.41,21.2l9.06,74.69
		h38.45c-26.57,2.43-40.81,8.8-42.73,19.1c-12.04,35.19-18.06,52.79-18.06,52.79c12.85,16.99,32.97,27.93,55.12,29.98
		c19.09-36.28,28.13-58.38,27.11-66.29c21.5,29.08,36.87,46.25,46.09,51.51c5.72,0,8.58,0,8.58,0c-3.72-28.17-7.96-57.21-12.73-87.1
		l-12.69-97.91L339.67,635.28z"/>
	<polygon class="st3" points="373.15,610.8 406.1,614.01 410.29,622.69 377.35,619.48 	"/>
	<path class="st4" d="M461.55,653.28c-8.74,16.32-12.23,30.02-12.68,35.91c-8.46-0.44-24.37-11.21-45.52-27.12
		c-11.47-30.17-24.2-52.96,22.39-32C451.3,644.3,461.55,653.28,461.55,653.28"/>
	<path class="st3" d="M420.58,632.05c10.56,0.51,15.84,0.76,15.84,0.76s3.08,1.71,9.24,5.14c0,0-1.95,2.66-5.86,7.99
		c0,0-6.34-3.46-19.03-10.39C420.66,633.22,420.59,632.05,420.58,632.05"/>
	<path class="st3" d="M468.1,652.56c1.44,30.05,1.58,44.74,1.58,44.74c-2.63,1.71-6.54,1.31-11.74-1.2c0,0-3.52-1.89-10.55-5.66
		c-2.71-1.52-4.67-5.68-4.87-12.59C442.7,651.2,449.55,636.88,468.1,652.56"/>
	<path class="st5" d="M483.33,705.6c-16.42-1.48-23.62-11.24-21.62-29.28l5.68-56.64h0.55c0.82,0,1.52-0.54,1.8-1.3l19.94,9.14
		l4.97,61.33C495.61,700.58,489.68,706.09,483.33,705.6"/>
	<path class="st6" d="M470.7,615.31c8.26,9.51,12.38,14.27,12.38,14.27c-6.65,1.98-11.88,0.01-15.67-5.89
		C465.99,621.04,467.09,618.25,470.7,615.31"/>
	<path class="st7" d="M339.91,614.06c1.67,8.24,8.42,14.75,17.15,16.55c8.73,1.8,17.76-1.46,22.96-8.28c0,0-2.69-9.81,1.33-22.61
		c0,0-10.1-19.33-37.46-27.69C344.6,607.68,339.91,614.06,339.91,614.06"/>
	<path class="st3" d="M366.94,647.05h3.78v72.51h-3.78V647.05z M362.41,628.85c-7.6,12.37-11.4,18.56-11.4,18.56
		c-11.57-0.88-17.13-13.72-21.36-37.23c4.84-3.15,7.33-5.66,12.14-8.83C345.33,616.31,352.2,625.48,362.41,628.85z"/>
	<path class="st8" d="M406.71,573.51c-3.52-1-5.28-1.51-5.28-1.51c-2.81,31.09-6.09,47.87-9.85,50.36c1.02,1.82,2.57,3.06,4.31,3.45
		C400.06,620.75,403.67,603.32,406.71,573.51"/>
	<path class="st9" d="M402.95,562.21c-2.18,10.41-3.26,15.62-3.26,15.62c12.13-3.42,19.42-6.18,21.88-8.28
		C412.79,562.38,406.58,559.93,402.95,562.21"/>
	<path class="st6" d="M348.89,597.98c2.66,6.97,6.87,12.79,11.32,17.07c8.14,7.84,19.45,8.86,21.09,4.1
		c1.42-4.19,4.11-8.87,12.43-18.55c2.46-2.84,3.58-6.99,3.35-12.46c-0.32-4.99,0.55-8.01,5.39-11.33c3.4-2.3,4.52-7.25,3.53-14.79
		c-1.42,0.23-2.9,0.16-4.35-0.26c-0.86-0.02-1.73-0.16-2.58-0.42l-1.34-0.1l-1.56-0.12c-0.78-0.02-1.58-0.02-2.35-0.13l-2.11-0.28
		l-1.88-0.2c-0.89-0.1-1.82-0.34-2.7-0.53c-0.77-0.17-1.46-0.43-2.19-0.7l-0.27-0.05l-0.42-0.05c-0.85-0.08-1.71-0.27-2.55-0.57
		l-1.24-0.46l0.62,0.02c-0.79-0.04-1.59-0.18-2.38-0.42c-0.45-0.06-0.91-0.14-1.36-0.27c-0.78-0.09-1.56-0.27-2.32-0.55l-0.56-0.21
		l0.62,0.02c-0.97-0.05-1.95-0.25-2.9-0.6l-0.15-0.05l-0.29,0c-0.97,0.01-2-0.15-2.97-0.26l-1.61-0.12
		c-0.86-0.06-1.73-0.26-2.58-0.43c-1.03-0.2-1.97-0.58-2.96-0.95c-2.11-0.78-3.79-2.19-4.92-3.95c-5.95,6.82-9.06,15.85-8.32,25.17
		C344.97,585.59,345.53,587.7,348.89,597.98"/>
	<path class="st10" d="M371.95,528.63l0.15,0.08l-0.25-0.01L371.95,528.63z M353.44,574.86c-0.21,5-5.92,10.34-6.68,6.06
		c-1.08-11.12-1.24-20.55-0.49-28.28c0.72-0.14,1.44-0.35,2.12-0.65c0.78-0.14,1.55-0.37,2.3-0.7c1.47-0.03,2.93-0.38,4.3-1.08
		l0.25-0.05c1.09-0.21,2.14-0.61,3.13-1.19c0.23-0.08,0.46-0.17,0.69-0.27c0.5-0.09,0.96-0.21,1.44-0.37
		c0.46-0.02,0.92-0.08,1.38-0.16l1.34-0.25l0.06-0.01c0.47,0.04,0.94,0.07,1.4,0.05l1.37-0.04c-1.2,2.13-1.44,4.75-0.52,7.16
		c1.11,3.02-1.61,5.22-7.69,6.85C354.12,563.05,353.64,566.55,353.44,574.86z"/>
	<path class="st6" d="M340.72,576.98c-0.5-3.99-2.11-7.37-4.83-10.15c-2.03-2.16-2.2-5.27-1.08-7.9c1.12-2.63,3.59-4.44,6.44-4.71
		c2.85-0.27,5.61,1.05,7.2,3.42c4.66,6.73,3.64,15.87-2.39,21.41c-0.91,0.77-2.17,0.98-3.29,0.55
		C341.65,579.18,340.86,578.17,340.72,576.98"/>
	<path class="st11" d="M336.36,566.19c5.09,0.71,7.63,1.06,7.63,1.06c-10.44,33.38-13.75,52.28-9.94,56.69
		c-2.17,1.37-4.77,1.88-7.23,1.43C323.63,618.1,326.81,598.37,336.36,566.19"/>
	<path class="st12" d="M372.27,565c13.29-0.88,29.89-0.4,49.81,1.45c-2.88-2.84-4.24-6.22-4.08-10.13
		c1.11-15.76-6.32-30.9-19.46-39.67c-13.14-8.77-29.97-9.82-44.1-2.75c-14.13,7.07-20.78,14.86-24.23,36.95
		c-1.44,11.06-2.17,16.59-2.17,16.59c18.32-5.16,28.19-6.81,29.63-4.93C367.41,564.17,372.27,565,372.27,565"/>
	<path class="st13" d="M358.28,561.54c3.78,2.4,5.67,3.6,5.67,3.6s-9.9,2.04-29.69,6.13c-1.84,0.35-3.22-0.55-5.32-2.8
		C348.5,563.85,358.28,561.54,358.28,561.54"/>
	<path class="st14" d="M325.96,566.18c0.04,1.81,0.82,2.81,2.59,3.18c0,0,9.33-2.88,25.74-5.82c2.31-0.48,3.85-0.22,5.1,0.45
		c8.69,4.3,7.31,3.3,20.45,2.93c17.93-0.33,32.29,0.83,43.08,3.48c0.8-1.33,0.43-3.06-0.84-3.95c-12.47-2.49-26.43-3.68-41.88-3.57
		c-12.28-0.09-11.23,1.12-16.61-1.52c19.7-1.73,38.71-0.85,57.03,2.64c0.51-0.01,0.92-0.4,0.95-0.91c0.03-0.5-0.34-0.94-0.84-1
		c-20.58-3.97-40.88-4.81-60.89-2.53c-3.13-1.26-4.92-0.92-6.68-0.53C344.03,561.14,334.96,563.53,325.96,566.18"/>
	<polygon class="st15" points="340.26,545.5 342.21,550.01 347.04,549.11 343.36,552.36 345.71,556.67 341.48,554.17 338.1,557.74 
		339.17,552.95 334.73,550.84 339.63,550.38 	"/>
	<rect x="452.18" y="600.42" class="st16" width="29.02" height="15.22"/>
	<path class="st17" d="M402.38,593.65h3.98c0.56,0,1.02,0.46,1.02,1.02v2.49h17.5c0.82,0,1.5,0.67,1.5,1.5v5.22
		c0,0.82-0.67,1.5-1.5,1.5h-24.35c-0.82,0-1.5-0.67-1.5-1.5v-5.22c0-0.82,0.67-1.5,1.5-1.5h0.83v-2.49
		C401.36,594.11,401.82,593.65,402.38,593.65"/>
	<path class="st18" d="M398.41,611.57c11.14,0.69,16.71,1.04,16.71,1.04c-0.17,5.24-2.99,10.05-7.48,12.76
		c0,0-19.64,12.45-58.92,37.35c-5.05,3.04-6.8,2.51-8.23-0.85c0,0-2.79-6.74-8.36-20.22c-1.03-2.42-0.78-3.67,0.64-4.28
		C376.53,620.17,398.41,611.57,398.41,611.57"/>
	<path class="st19" d="M449.64,596.63h100.97h6.58v-8.84c0-0.95,0.69-1.86,1.69-1.86c0.93,0,1.69,0.84,1.69,1.86v8.84h4.17h13.6
		c2.09,0,3.79,1.71,3.79,3.79c0,2.09-1.71,3.79-3.79,3.79h-13.47c-0.04,0-0.08,0-0.12,0h-97.87l-6.98,56.24
		c-0.13,1.08-1.13,1.97-2.21,1.97h-10.96c-1.08,0-1.86-0.89-1.72-1.97l2.93-23.57h-36.33v-9.62h-6.52c-5.21,0.13-6.54-0.01-6.6-3.45
		v-4.17h51.6l1.92-15.43h-2.33c-1.06,0-1.93-0.96-1.93-2.13v-3.34C447.71,597.59,448.58,596.63,449.64,596.63"/>
	<path class="st16" d="M394.24,600.5h54.55c2.12,0,3.86,1.73,3.86,3.86v13.44c0,2.12-1.74,3.86-3.86,3.86h-54.55
		c-2.12,0-3.86-1.73-3.86-3.86v-13.44C390.38,602.23,392.12,600.5,394.24,600.5"/>
	<path class="st20" d="M372.23,655.44c-2.79,2.33-3.27,3.8-3.27,3.8c66.21,45.58,110.48,45.1,161.27-40.52
		c-5.51,0-10.63-0.63-10.63-0.63C472.27,697.55,434.32,694.94,372.23,655.44"/>
	<path class="st18" d="M472.11,603.72h74.85c1.06,0,1.93,0.87,1.93,1.93v13.69c0,1.06-0.87,1.93-1.93,1.93h-74.85
		c-1.06,0-1.93-0.87-1.93-1.93v-13.69C470.19,604.58,471.05,603.72,472.11,603.72"/>
	<path class="st4" d="M285.44,684.7c30.19-12.72,45.29-19.07,45.29-19.07s-4.34-12.99-13.03-38.96
		c-2.37-8.33-13.44-12.29-22.71-10.51c-9.26,1.78-18.66,9.24-17.26,18.19C282.87,667.91,285.44,684.7,285.44,684.7"/>
	<path class="st3" d="M334.73,665.18c-24.03,18.13-22.87,35.56-19.13,42.83c-9.12,7.65-18.87-2.44-27.49-14.43
		c-6.24-8.69-3.61-13.76,1.3-18.84c8.6-8.58,19.58-14.38,31.52-16.62C328.12,656.71,330.94,655.78,334.73,665.18"/>
	<path class="st21" d="M475.65,625.48c1.41,6.57,11.03,5.12,25.17-2.96c4.84-2.73,5.16-8.05,2.43-17.51
		c-1.8-6.17-12.04-6.62-20-2.62c-6.94,3.25-10.05,9.68-9.64,14.11C474.97,622.48,475.65,625.48,475.65,625.48"/>
	<polygon class="st3" points="286.27,614.48 318.42,608.94 327.26,615.89 295.11,621.43 	"/>
	<path class="st22" d="M318.98,713.34h96.2c2.14,0,4.07,1.75,4.29,3.9l0.99,9.86c0.22,2.14-1.36,3.9-3.5,3.9h-96.2
		c-2.14,0-4.07-1.75-4.29-3.9l-0.99-9.86C315.26,715.1,316.84,713.34,318.98,713.34"/>
	<path class="st6" d="M415.3,658.63c4.99,1.13,9.01-2.17,13.72-10.5c3.04-5.53-0.63-6.65-5.77-10.43c-2.28-1.59-1.82-2.29,0.98-1.58
		c0,0,4.67,1.18,14,3.53c1.61,0.45,2.77-1.78,3.25-3.36c0.48-1.58,0.72-4.06-0.83-4.6c-2.29-0.7-5.2-1.52-19.14-5.18
		c-5.21-1.1-10.48-0.13-13.85,0.95c0,0-11.02,3.09-24.56,9.11c0,0-26.33,12.34-79,37.03c-9.75,4.48-8.72,20.28-1.62,28.83
		c7.1,8.55,11.85,10.41,27.13,0.37c29.69-19.76,64.28-44.12,64.28-44.12c3.08-2.18,4.62-3.27,4.62-3.27
		C409.71,657.55,415.3,658.63,415.3,658.63"/>
	<path class="st23" d="M380.58,1026.25h75.76c1.07,0,1.95,0.88,1.95,1.95v4.96c0,1.07-0.88,1.95-1.95,1.95h-75.76
		c-1.07,0-1.95-0.88-1.95-1.95v-4.96C378.63,1027.12,379.51,1026.25,380.58,1026.25"/>
	<path class="st24" d="M312.34,993.84l19.41-0.81c0.7-0.03,1.28,0.52,1.29,1.22v0c0.01,0.7-0.56,1.3-1.26,1.33l-19.41,0.81
		c-0.7,0.03-1.28-0.52-1.29-1.22v0C311.08,994.46,311.64,993.87,312.34,993.84"/>
	<path class="st24" d="M313.11,999.29l17.99-0.75c0.7-0.03,1.28,0.52,1.29,1.22v0c0.01,0.7-0.56,1.3-1.26,1.33l-17.99,0.75
		c-0.7,0.03-1.28-0.52-1.29-1.22v0C311.85,999.91,312.41,999.32,313.11,999.29"/>
	<path class="st24" d="M313.89,1004.42l16.55-0.69c0.7-0.03,1.28,0.52,1.29,1.22v0c0.01,0.7-0.56,1.3-1.26,1.33l-16.55,0.69
		c-0.7,0.03-1.28-0.52-1.29-1.22v0C312.63,1005.04,313.19,1004.45,313.89,1004.42"/>
	<path class="st24" d="M314.85,1009.53l14.76-0.61c0.7-0.03,1.28,0.52,1.29,1.22v0c0.01,0.7-0.56,1.3-1.26,1.33l-14.76,0.61
		c-0.7,0.03-1.28-0.52-1.29-1.22v0C313.58,1010.16,314.15,1009.56,314.85,1009.53"/>
	<path class="st24" d="M315.76,1014.69l13.05-0.54c0.7-0.03,1.28,0.52,1.29,1.22v0c0.01,0.7-0.56,1.3-1.26,1.33l-13.05,0.54
		c-0.7,0.03-1.28-0.52-1.29-1.22v0C314.49,1015.31,315.06,1014.71,315.76,1014.69"/>
	<path class="st24" d="M316.34,1019.63l12-0.5c0.7-0.03,1.28,0.52,1.29,1.22v0c0.01,0.7-0.56,1.3-1.26,1.33l-12,0.5
		c-0.7,0.03-1.28-0.52-1.29-1.22v0C315.07,1020.26,315.64,1019.66,316.34,1019.63"/>
	<path class="st24" d="M317.17,1024.45l10.44-0.43c0.7-0.03,1.28,0.52,1.29,1.22v0c0.01,0.7-0.56,1.3-1.26,1.33L317.2,1027
		c-0.7,0.03-1.28-0.52-1.29-1.22v0C315.91,1025.08,316.47,1024.48,317.17,1024.45"/>
	<path class="st24" d="M318.12,1029.21l8.65-0.36c0.7-0.03,1.28,0.52,1.29,1.22v0c0.01,0.7-0.56,1.3-1.26,1.33l-8.65,0.36
		c-0.7,0.03-1.28-0.52-1.29-1.22v0C316.86,1029.84,317.42,1029.24,318.12,1029.21"/>
	<path class="st24" d="M318.63,1034.4l7.74-0.32c0.7-0.03,1.28,0.52,1.29,1.22v0c0.01,0.7-0.56,1.3-1.26,1.33l-7.74,0.32
		c-0.7,0.03-1.28-0.52-1.29-1.22v0C317.37,1035.02,317.93,1034.43,318.63,1034.4"/>
	<path class="st24" d="M399.6,974.46l7.75-0.64c0.7-0.06,1.27,0.47,1.27,1.17v0c0,0.7-0.56,1.32-1.26,1.38l-7.75,0.64
		c-0.7,0.06-1.27-0.47-1.27-1.17v0C398.34,975.14,398.9,974.52,399.6,974.46"/>
	<path class="st24" d="M399.82,979.08l7.75-0.64c0.7-0.06,1.27,0.47,1.27,1.17v0c0,0.7-0.56,1.32-1.26,1.38l-7.75,0.64
		c-0.7,0.06-1.27-0.47-1.27-1.17v0C398.56,979.76,399.13,979.14,399.82,979.08"/>
	<path class="st24" d="M399.38,983.52l7.75-0.64c0.7-0.06,1.27,0.47,1.27,1.17v0c0,0.7-0.56,1.32-1.26,1.38l-7.75,0.64
		c-0.7,0.06-1.27-0.47-1.27-1.17v0C398.12,984.2,398.69,983.58,399.38,983.52"/>
	<path class="st24" d="M399.6,988.14l7.75-0.64c0.7-0.06,1.27,0.47,1.27,1.17v0c0,0.7-0.56,1.32-1.26,1.38l-7.75,0.64
		c-0.7,0.06-1.27-0.47-1.27-1.17v0C398.34,988.82,398.9,988.2,399.6,988.14"/>
	<path class="st24" d="M399.47,992.85l7.75-0.64c0.7-0.06,1.27,0.47,1.27,1.17v0c0,0.7-0.56,1.32-1.26,1.38l-7.75,0.64
		c-0.7,0.06-1.27-0.47-1.27-1.17v0C398.21,993.53,398.77,992.91,399.47,992.85"/>
	<path class="st24" d="M399.69,997.47l7.75-0.64c0.7-0.06,1.27,0.47,1.27,1.17v0c0,0.7-0.56,1.32-1.26,1.38l-7.75,0.64
		c-0.7,0.06-1.27-0.47-1.27-1.17v0C398.43,998.14,398.99,997.52,399.69,997.47"/>
	<path class="st24" d="M402.92,1005.43l5.45-5.56c0.49-0.5,1.27-0.48,1.73,0.05l0,0c0.46,0.53,0.44,1.37-0.05,1.87l-5.45,5.56
		c-0.49,0.5-1.27,0.48-1.73-0.05l0,0C402.4,1006.77,402.43,1005.93,402.92,1005.43"/>
	<path class="st24" d="M407.49,1007.61l5.45-5.56c0.49-0.5,1.27-0.48,1.73,0.05l0,0c0.46,0.53,0.44,1.37-0.05,1.87l-5.45,5.56
		c-0.49,0.5-1.27,0.48-1.73-0.05l0,0C406.97,1008.95,407,1008.11,407.49,1007.61"/>
	<path class="st24" d="M411.58,1010.18l5.45-5.56c0.49-0.5,1.27-0.48,1.73,0.05l0,0c0.46,0.53,0.44,1.37-0.05,1.87l-5.45,5.56
		c-0.49,0.5-1.27,0.48-1.73-0.05l0,0C411.07,1011.52,411.09,1010.68,411.58,1010.18"/>
	<path class="st24" d="M416.22,1013.27l5.45-5.55c0.49-0.5,1.27-0.48,1.73,0.05l0,0c0.46,0.53,0.44,1.37-0.05,1.87l-5.45,5.56
		c-0.49,0.5-1.27,0.48-1.73-0.05l0,0C415.71,1014.61,415.73,1013.77,416.22,1013.27"/>
</g>
<g>
	<path class="st0" d="M221.86,1113.36c16.21,0.08,24.31,0.12,24.31,0.12c0.81-6.05-2.68-11.85-8.4-13.96c0,0-3.16-0.51-9.47-1.52
		C225.8,1102.97,223.64,1108.1,221.86,1113.36"/>
	<path class="st1" d="M168.07,1113.49c40.46,2.76,61.16,2.19,61.16,2.19s0.69-5.73,2.06-17.18c0,0-5.5-0.92-16.49-2.75
		c0,0-6.85-4.07-20.54-12.2c0,0,0.99-11.16,2.97-33.48c0,0-12.27-0.18-36.82-0.54C160.4,1049.53,162.65,1072.15,168.07,1113.49"/>
	<path class="st2" d="M172.66,1113.79c7.37,0.44,11.06,0.66,11.06,0.66s-3.02-21.09-9.05-63.26c-6.76,1.5-10.13,2.25-10.13,2.25
		C169.95,1093.68,172.66,1113.79,172.66,1113.79"/>
	<path class="st1" d="M92.03,1142.91c20.52,0.89,32.7-0.3,36.53-3.57c0,0-1.53-10.87-4.59-32.61c0,0,0.76-13.7,2.27-41.09
		c0,0-11.44-0.79-34.33-2.36c2.49,28.9,3.74,43.35,3.74,43.35C93.24,1130.82,92.03,1142.91,92.03,1142.91"/>
	<path class="st2" d="M106.09,1124.51c3.18,1.16,6.82,0.72,9.81-1.19c0,0,1.04-18.67,3.11-56c-0.63-1.89-6.79-2.44-18.47-1.66
		C104.24,1104.9,106.09,1124.51,106.09,1124.51"/>
	<path class="st3" d="M156.9,1045.47c0.87-13.93,1.37-41.6,1.5-83.03c-2.01-111,15.04-137.07,51.16-78.22
		c1.95,49.83,1.2,60.51,1.2,60.51c-0.78,9.05-3.79,39.03-9.02,89.93c-1.58,15.56-2.74,18.62-8.24,18.9
		c-17.06,0.74-25.6,1.1-25.6,1.1C160.08,1054.67,156.66,1054.09,156.9,1045.47"/>
	<path class="st3" d="M125.07,1068.64c-5.69-0.21-14.49-0.13-26.4,0.23c-10.25,0.3-12.58-2.62-9.73-15.04
		c12.55-60.05,15.6-67.98,14.68-83.34l-4.74-78.55c14.85-13.19,40.47-22.28,74.53-27.28L153.76,992.7
		c-3.61,19.21-11.73,35.84-19.75,67.33C132.19,1066.07,131.11,1068.61,125.07,1068.64"/>
	<path class="st3" d="M192.17,858.12c-25.74-36.3-41.96-29.31-48.66,20.96C161.76,878.32,179.08,870.86,192.17,858.12"/>
	<path class="st4" d="M128.46,720.58l-9.86-24.01c-15.63,4.65-27.42,8.78-35.38,12.4c4.93,7.92,9.4,14.99,13.41,21.2l9.06,74.69
		h38.45c-26.57,2.43-40.81,8.8-42.73,19.1c-12.04,35.19-18.06,52.79-18.06,52.79c12.85,16.99,32.97,27.93,55.12,29.98
		c19.09-36.28,28.13-58.38,27.11-66.29c21.5,29.08,36.87,46.25,46.09,51.51c5.72,0,8.58,0,8.58,0c-3.72-28.17-7.96-57.21-12.73-87.1
		l-12.69-97.91L128.46,720.58z"/>
	<polygon class="st3" points="161.94,696.09 194.88,699.3 199.08,707.98 166.14,704.77 	"/>
	<path class="st4" d="M250.34,738.58c-8.74,16.32-12.23,30.02-12.68,35.91c-8.46-0.44-24.37-11.21-45.52-27.12
		c-11.47-30.17-24.2-52.96,22.39-32C240.09,729.59,250.34,738.58,250.34,738.58"/>
	<path class="st3" d="M209.37,717.34c10.56,0.51,15.84,0.76,15.84,0.76s3.08,1.71,9.24,5.14c0,0-1.95,2.66-5.86,7.99
		c0,0-6.34-3.46-19.03-10.39C209.45,718.52,209.38,717.35,209.37,717.34"/>
	<path class="st3" d="M256.88,737.86c1.44,30.05,1.58,44.74,1.58,44.74c-2.63,1.71-6.54,1.31-11.74-1.2c0,0-3.52-1.89-10.55-5.66
		c-2.71-1.52-4.67-5.68-4.87-12.59C231.49,736.49,238.33,722.18,256.88,737.86"/>
	<path class="st5" d="M272.11,790.89c-16.42-1.48-23.62-11.24-21.62-29.28l5.68-56.64h0.55c0.82,0,1.52-0.54,1.8-1.3l19.94,9.14
		l4.97,61.33C284.39,785.87,278.46,791.39,272.11,790.89"/>
	<path class="st6" d="M259.49,700.6c8.26,9.51,12.38,14.27,12.38,14.27c-6.65,1.98-11.88,0.01-15.67-5.89
		C254.78,706.33,255.88,703.54,259.49,700.6"/>
	<path class="st7" d="M128.7,699.35c1.67,8.24,8.42,14.75,17.15,16.55c8.73,1.8,17.76-1.46,22.96-8.28c0,0-2.69-9.81,1.33-22.61
		c0,0-10.1-19.33-37.46-27.69C133.39,692.97,128.7,699.35,128.7,699.35"/>
	<path class="st3" d="M155.73,732.34h3.78v72.51h-3.78V732.34z M151.2,714.14c-7.6,12.37-11.4,18.56-11.4,18.56
		c-11.57-0.88-17.13-13.72-21.36-37.23c4.84-3.14,7.33-5.66,12.14-8.83C134.11,701.61,140.98,710.77,151.2,714.14z"/>
	<path class="st8" d="M195.5,658.81c-3.52-1-5.28-1.51-5.28-1.51c-2.81,31.09-6.09,47.87-9.85,50.36c1.02,1.82,2.57,3.06,4.31,3.45
		C188.85,706.05,192.46,688.61,195.5,658.81"/>
	<path class="st9" d="M191.73,647.51c-2.18,10.41-3.26,15.62-3.26,15.62c12.13-3.42,19.42-6.18,21.88-8.28
		C201.57,647.67,195.37,645.23,191.73,647.51"/>
	<path class="st6" d="M137.67,683.27c2.66,6.97,6.87,12.79,11.32,17.07c8.14,7.84,19.45,8.86,21.09,4.1
		c1.42-4.19,4.11-8.87,12.43-18.55c2.46-2.84,3.58-6.99,3.35-12.46c-0.32-4.99,0.55-8.01,5.39-11.33c3.4-2.3,4.52-7.25,3.53-14.79
		c-1.42,0.23-2.9,0.16-4.35-0.26c-0.86-0.02-1.73-0.16-2.58-0.42l-1.34-0.1l-1.56-0.12c-0.78-0.02-1.58-0.02-2.35-0.13l-2.11-0.28
		l-1.88-0.2c-0.89-0.1-1.82-0.34-2.7-0.53c-0.77-0.17-1.46-0.43-2.19-0.7l-0.27-0.05l-0.42-0.05c-0.85-0.08-1.71-0.27-2.55-0.58
		l-1.24-0.46l0.62,0.02c-0.79-0.04-1.59-0.18-2.38-0.42c-0.45-0.06-0.91-0.14-1.36-0.27c-0.78-0.09-1.56-0.27-2.32-0.55l-0.56-0.21
		l0.62,0.02c-0.97-0.05-1.95-0.25-2.9-0.6l-0.15-0.05l-0.29,0c-0.97,0.01-2-0.15-2.97-0.26l-1.61-0.12
		c-0.86-0.06-1.73-0.26-2.58-0.43c-1.03-0.2-1.97-0.58-2.96-0.95c-2.11-0.78-3.79-2.19-4.92-3.95c-5.95,6.82-9.06,15.85-8.32,25.17
		C133.76,670.88,134.32,673,137.67,683.27"/>
	<path class="st10" d="M160.73,613.93l0.15,0.08l-0.25-0.01L160.73,613.93z M142.23,660.15c-0.21,5-5.92,10.34-6.68,6.06
		c-1.08-11.12-1.24-20.55-0.49-28.28c0.72-0.14,1.44-0.35,2.12-0.65c0.78-0.14,1.55-0.37,2.3-0.7c1.47-0.03,2.93-0.38,4.3-1.08
		l0.25-0.05c1.09-0.21,2.14-0.61,3.13-1.19c0.23-0.08,0.46-0.17,0.69-0.27c0.5-0.09,0.96-0.21,1.44-0.37
		c0.46-0.02,0.92-0.08,1.38-0.16l1.34-0.25l0.06-0.01c0.47,0.04,0.94,0.07,1.4,0.05l1.37-0.04c-1.2,2.13-1.44,4.75-0.52,7.16
		c1.11,3.02-1.61,5.22-7.69,6.85C142.9,648.34,142.43,651.84,142.23,660.15z"/>
	<path class="st6" d="M129.5,662.27c-0.5-3.99-2.11-7.37-4.83-10.15c-2.03-2.16-2.2-5.27-1.08-7.9c1.12-2.63,3.59-4.44,6.44-4.71
		c2.85-0.27,5.61,1.05,7.2,3.42c4.66,6.73,3.64,15.87-2.39,21.41c-0.91,0.77-2.17,0.98-3.29,0.55
		C130.43,664.47,129.65,663.46,129.5,662.27"/>
	<path class="st11" d="M125.15,651.49c5.09,0.71,7.63,1.06,7.63,1.06c-10.44,33.38-13.75,52.28-9.94,56.69
		c-2.17,1.37-4.77,1.88-7.23,1.43C112.42,703.39,115.6,683.66,125.15,651.49"/>
	<path class="st12" d="M161.06,650.29c13.29-0.88,29.89-0.4,49.81,1.45c-2.88-2.84-4.24-6.22-4.08-10.13
		c1.11-15.76-6.32-30.9-19.46-39.67c-13.14-8.77-29.97-9.82-44.1-2.75c-14.13,7.07-20.78,14.86-24.23,36.95
		c-1.44,11.06-2.17,16.59-2.17,16.59c18.32-5.16,28.19-6.81,29.63-4.93C156.19,649.46,161.06,650.29,161.06,650.29"/>
	<path class="st13" d="M147.07,646.83c3.78,2.4,5.67,3.6,5.67,3.6s-9.9,2.04-29.69,6.13c-1.84,0.35-3.22-0.55-5.32-2.8
		C137.29,649.14,147.07,646.83,147.07,646.83"/>
	<path class="st14" d="M114.75,651.47c0.04,1.81,0.82,2.81,2.59,3.18c0,0,9.33-2.88,25.74-5.82c2.31-0.48,3.85-0.22,5.1,0.45
		c8.69,4.3,7.31,3.3,20.45,2.93c17.93-0.33,32.29,0.83,43.08,3.48c0.8-1.33,0.43-3.06-0.84-3.95c-12.47-2.49-26.43-3.68-41.88-3.57
		c-12.28-0.09-11.23,1.12-16.61-1.52c19.7-1.73,38.71-0.85,57.03,2.64c0.51-0.01,0.92-0.4,0.95-0.91c0.03-0.5-0.34-0.94-0.84-1
		c-20.58-3.97-40.88-4.81-60.89-2.53c-3.13-1.26-4.92-0.92-6.68-0.53C132.81,646.44,123.74,648.83,114.75,651.47"/>
	<polygon class="st15" points="129.04,630.8 131,635.31 135.83,634.4 132.14,637.65 134.5,641.96 130.27,639.46 126.89,643.04 
		127.96,638.24 123.52,636.14 128.41,635.67 	"/>
	<rect x="240.97" y="685.72" class="st16" width="29.02" height="15.22"/>
	<path class="st17" d="M191.17,678.95h3.98c0.56,0,1.02,0.46,1.02,1.02v2.49h17.5c0.82,0,1.5,0.67,1.5,1.5v5.22
		c0,0.82-0.67,1.5-1.5,1.5h-24.35c-0.82,0-1.5-0.67-1.5-1.5v-5.22c0-0.82,0.67-1.5,1.5-1.5h0.83v-2.49
		C190.15,679.41,190.61,678.95,191.17,678.95"/>
	<path class="st18" d="M187.2,696.86c11.14,0.69,16.71,1.04,16.71,1.04c-0.17,5.24-2.99,10.05-7.48,12.76
		c0,0-19.64,12.45-58.92,37.35c-5.05,3.04-6.8,2.51-8.23-0.85c0,0-2.79-6.74-8.36-20.22c-1.03-2.42-0.78-3.67,0.64-4.28
		C165.32,705.46,187.2,696.86,187.2,696.86"/>
	<path class="st19" d="M238.43,681.93H339.4h6.58v-8.84c0-0.95,0.69-1.86,1.69-1.86c0.93,0,1.69,0.84,1.69,1.86v8.84h4.17h13.6
		c2.09,0,3.79,1.71,3.79,3.79c0,2.09-1.71,3.79-3.79,3.79h-13.47c-0.04,0-0.08,0-0.12,0h-97.87l-6.98,56.24
		c-0.13,1.08-1.13,1.97-2.21,1.97H235.5c-1.08,0-1.86-0.89-1.72-1.97l2.93-23.57h-36.33v-9.62h-6.52c-5.21,0.13-6.54-0.01-6.6-3.45
		v-4.17h51.6l1.92-15.43h-2.33c-1.06,0-1.93-0.96-1.93-2.13v-3.34C236.5,682.88,237.37,681.93,238.43,681.93"/>
	<path class="st16" d="M183.03,685.79h54.55c2.12,0,3.86,1.73,3.86,3.86v13.44c0,2.12-1.74,3.86-3.86,3.86h-54.55
		c-2.12,0-3.86-1.73-3.86-3.86v-13.44C179.17,687.53,180.9,685.79,183.03,685.79"/>
	<path class="st20" d="M161.02,740.73c-2.79,2.33-3.27,3.8-3.27,3.8c66.21,45.58,110.48,45.1,161.27-40.52
		c-5.51,0-10.63-0.63-10.63-0.63C261.06,782.84,223.11,780.24,161.02,740.73"/>
	<path class="st18" d="M260.9,689.01h74.85c1.06,0,1.93,0.87,1.93,1.93v13.69c0,1.06-0.87,1.93-1.93,1.93H260.9
		c-1.06,0-1.93-0.87-1.93-1.93v-13.69C258.97,689.88,259.84,689.01,260.9,689.01"/>
	<path class="st4" d="M74.23,769.99c30.19-12.72,45.29-19.07,45.29-19.07s-4.34-12.99-13.03-38.96
		c-2.37-8.33-13.44-12.29-22.71-10.51c-9.26,1.78-18.66,9.24-17.26,18.19C71.66,753.2,74.23,769.99,74.23,769.99"/>
	<path class="st3" d="M123.52,750.48c-24.03,18.13-22.87,35.56-19.13,42.83c-9.12,7.65-18.87-2.44-27.49-14.43
		c-6.24-8.69-3.61-13.76,1.3-18.84c8.6-8.58,19.58-14.38,31.52-16.62C116.91,742.01,119.73,741.08,123.52,750.48"/>
	<path class="st21" d="M264.44,710.77c1.41,6.57,11.03,5.12,25.17-2.96c4.84-2.73,5.16-8.05,2.43-17.51
		c-1.8-6.17-12.04-6.62-20-2.62c-6.94,3.25-10.05,9.68-9.64,14.11C263.76,707.78,264.44,710.77,264.44,710.77"/>
	<polygon class="st3" points="75.05,699.77 107.21,694.23 116.05,701.19 83.89,706.73 	"/>
	<path class="st22" d="M107.77,798.64h96.2c2.14,0,4.07,1.75,4.29,3.9l0.99,9.86c0.22,2.14-1.36,3.9-3.5,3.9h-96.2
		c-2.14,0-4.07-1.75-4.29-3.9l-0.99-9.86C104.05,800.39,105.62,798.64,107.77,798.64"/>
	<path class="st6" d="M204.09,743.92c4.99,1.13,9.01-2.17,13.72-10.5c3.04-5.53-0.63-6.65-5.77-10.43
		c-2.28-1.59-1.82-2.29,0.98-1.58c0,0,4.67,1.18,14,3.53c1.61,0.45,2.77-1.78,3.25-3.36c0.48-1.58,0.72-4.06-0.83-4.6
		c-2.29-0.7-5.2-1.52-19.14-5.18c-5.21-1.1-10.48-0.13-13.85,0.95c0,0-11.02,3.09-24.56,9.11c0,0-26.33,12.34-79,37.03
		c-9.75,4.48-8.72,20.28-1.62,28.83c7.1,8.55,11.85,10.41,27.13,0.37c29.69-19.76,64.28-44.12,64.28-44.12
		c3.08-2.18,4.62-3.27,4.62-3.27C198.49,742.85,204.09,743.92,204.09,743.92"/>
	<path class="st23" d="M169.37,1111.54h75.76c1.07,0,1.95,0.88,1.95,1.95v4.96c0,1.07-0.88,1.95-1.95,1.95h-75.76
		c-1.07,0-1.95-0.88-1.95-1.95v-4.96C167.42,1112.42,168.3,1111.54,169.37,1111.54"/>
	<path class="st24" d="M101.13,1079.13l19.41-0.81c0.7-0.03,1.28,0.52,1.29,1.22v0c0.01,0.7-0.56,1.3-1.26,1.33l-19.41,0.81
		c-0.7,0.03-1.28-0.52-1.29-1.22v0C99.87,1079.76,100.43,1079.16,101.13,1079.13"/>
	<path class="st24" d="M101.9,1084.58l17.99-0.75c0.7-0.03,1.28,0.52,1.29,1.22v0c0.01,0.7-0.56,1.3-1.26,1.33l-17.99,0.75
		c-0.7,0.03-1.28-0.52-1.29-1.22v0C100.63,1085.21,101.2,1084.61,101.9,1084.58"/>
	<path class="st24" d="M102.68,1089.71l16.55-0.69c0.7-0.03,1.28,0.52,1.29,1.22v0c0.01,0.7-0.56,1.3-1.26,1.33l-16.55,0.69
		c-0.7,0.03-1.28-0.52-1.29-1.22v0C101.41,1090.34,101.98,1089.74,102.68,1089.71"/>
	<path class="st24" d="M103.63,1094.83l14.76-0.61c0.7-0.03,1.28,0.52,1.29,1.22v0c0.01,0.7-0.56,1.3-1.26,1.33l-14.76,0.61
		c-0.7,0.03-1.28-0.52-1.29-1.22v0C102.37,1095.45,102.93,1094.86,103.63,1094.83"/>
	<path class="st24" d="M104.55,1099.98l13.05-0.54c0.7-0.03,1.28,0.52,1.29,1.22v0c0.01,0.7-0.56,1.3-1.26,1.33l-13.05,0.54
		c-0.7,0.03-1.28-0.52-1.29-1.22v0C103.28,1100.6,103.85,1100.01,104.55,1099.98"/>
	<path class="st24" d="M105.12,1104.92l12-0.5c0.7-0.03,1.28,0.52,1.29,1.22v0c0.01,0.7-0.56,1.3-1.26,1.33l-12,0.5
		c-0.7,0.03-1.28-0.52-1.29-1.22v0C103.86,1105.55,104.42,1104.95,105.12,1104.92"/>
	<path class="st24" d="M105.96,1109.74l10.44-0.43c0.7-0.03,1.28,0.52,1.29,1.22v0c0.01,0.7-0.56,1.3-1.26,1.33l-10.44,0.43
		c-0.7,0.03-1.28-0.52-1.29-1.22v0C104.69,1110.37,105.26,1109.77,105.96,1109.74"/>
	<path class="st24" d="M106.91,1114.51l8.65-0.36c0.7-0.03,1.28,0.52,1.29,1.22v0c0.01,0.7-0.56,1.3-1.26,1.33l-8.65,0.36
		c-0.7,0.03-1.28-0.52-1.29-1.22v0C105.65,1115.13,106.21,1114.54,106.91,1114.51"/>
	<path class="st24" d="M107.42,1119.69l7.74-0.32c0.7-0.03,1.28,0.52,1.29,1.22v0c0.01,0.7-0.56,1.3-1.26,1.33l-7.74,0.32
		c-0.7,0.03-1.28-0.52-1.29-1.22v0C106.16,1120.32,106.72,1119.72,107.42,1119.69"/>
	<path class="st24" d="M188.39,1059.76l7.75-0.64c0.7-0.06,1.27,0.47,1.27,1.17v0c0,0.7-0.56,1.32-1.26,1.38l-7.75,0.64
		c-0.7,0.06-1.27-0.47-1.27-1.17v0C187.13,1060.43,187.69,1059.81,188.39,1059.76"/>
	<path class="st24" d="M188.61,1064.37l7.75-0.64c0.7-0.06,1.27,0.47,1.27,1.17v0c0,0.7-0.56,1.32-1.26,1.38l-7.75,0.64
		c-0.7,0.06-1.27-0.47-1.27-1.17v0C187.35,1065.05,187.91,1064.43,188.61,1064.37"/>
	<path class="st24" d="M188.17,1068.82l7.75-0.64c0.7-0.06,1.27,0.47,1.27,1.17v0c0,0.7-0.56,1.32-1.26,1.38l-7.75,0.64
		c-0.7,0.06-1.27-0.47-1.27-1.17v0C186.91,1069.49,187.47,1068.87,188.17,1068.82"/>
	<path class="st24" d="M188.39,1073.44l7.75-0.64c0.7-0.06,1.27,0.47,1.27,1.17v0c0,0.7-0.56,1.32-1.26,1.38l-7.75,0.64
		c-0.7,0.06-1.27-0.47-1.27-1.17v0C187.13,1074.11,187.69,1073.49,188.39,1073.44"/>
	<path class="st24" d="M188.26,1078.14l7.75-0.64c0.7-0.06,1.27,0.47,1.27,1.17v0c0,0.7-0.56,1.32-1.26,1.38l-7.75,0.64
		c-0.7,0.06-1.27-0.47-1.27-1.17v0C186.99,1078.82,187.56,1078.2,188.26,1078.14"/>
	<path class="st24" d="M188.48,1082.76l7.75-0.64c0.7-0.06,1.27,0.47,1.27,1.17v0c0,0.7-0.56,1.32-1.26,1.38l-7.75,0.64
		c-0.7,0.06-1.27-0.47-1.27-1.17v0C187.21,1083.44,187.78,1082.82,188.48,1082.76"/>
	<path class="st24" d="M191.7,1090.72l5.45-5.56c0.49-0.5,1.27-0.48,1.73,0.05l0,0c0.46,0.53,0.44,1.37-0.05,1.87l-5.45,5.56
		c-0.49,0.5-1.27,0.48-1.73-0.05l0,0C191.19,1092.06,191.21,1091.22,191.7,1090.72"/>
	<path class="st24" d="M196.27,1092.91l5.45-5.56c0.49-0.5,1.27-0.48,1.73,0.05l0,0c0.46,0.53,0.44,1.37-0.05,1.87l-5.45,5.56
		c-0.49,0.5-1.27,0.48-1.73-0.05l0,0C195.76,1094.24,195.78,1093.4,196.27,1092.91"/>
	<path class="st24" d="M200.37,1095.47l5.45-5.56c0.49-0.5,1.27-0.48,1.73,0.05l0,0c0.46,0.53,0.44,1.37-0.05,1.87l-5.45,5.56
		c-0.49,0.5-1.27,0.48-1.73-0.05l0,0C199.85,1096.81,199.88,1095.97,200.37,1095.47"/>
	<path class="st24" d="M205.01,1098.57l5.45-5.56c0.49-0.5,1.27-0.48,1.73,0.05l0,0c0.46,0.53,0.44,1.37-0.05,1.87l-5.45,5.56
		c-0.49,0.5-1.27,0.48-1.73-0.05l0,0C204.49,1099.9,204.52,1099.07,205.01,1098.57"/>
</g>
</svg>
