<?xml version="1.0" encoding="utf-8"?>
<!-- Generator: Adobe Illustrator 23.0.1, SVG Export Plug-In . SVG Version: 6.00 Build 0)  -->
<svg version="1.1" id="Layer_1" xmlns="http://www.w3.org/2000/svg" xmlns:xlink="http://www.w3.org/1999/xlink" x="0px" y="0px"
	 viewBox="0 0 1188.3 1200" style="enable-background:new 0 0 1188.3 1200;" xml:space="preserve">
<style type="text/css">
	.st0{fill-rule:evenodd;clip-rule:evenodd;fill:#23291E;}
	.st1{fill-rule:evenodd;clip-rule:evenodd;fill:#10120F;}
	.st2{fill-rule:evenodd;clip-rule:evenodd;fill:#010101;}
	.st3{fill-rule:evenodd;clip-rule:evenodd;fill:#384631;}
	.st4{fill-rule:evenodd;clip-rule:evenodd;fill:#151D11;}
	.st5{fill-rule:evenodd;clip-rule:evenodd;fill:#CB922E;}
	.st6{fill-rule:evenodd;clip-rule:evenodd;fill:#D2993A;}
	.st7{fill-rule:evenodd;clip-rule:evenodd;fill:#C68A2F;}
	.st8{fill-rule:evenodd;clip-rule:evenodd;fill:#2B3B22;}
	.st9{fill-rule:evenodd;clip-rule:evenodd;fill:#1C2818;}
	.st10{fill-rule:evenodd;clip-rule:evenodd;fill:#0F0F0D;}
	.st11{fill-rule:evenodd;clip-rule:evenodd;fill:#172014;}
	.st12{fill-rule:evenodd;clip-rule:evenodd;fill:#33452A;}
	.st13{fill-rule:evenodd;clip-rule:evenodd;fill:#3C5330;}
	.st14{fill-rule:evenodd;clip-rule:evenodd;fill:#69835C;}
	.st15{fill-rule:evenodd;clip-rule:evenodd;fill:#809576;}
	.st16{fill-rule:evenodd;clip-rule:evenodd;fill:#523E2E;}
	.st17{fill-rule:evenodd;clip-rule:evenodd;fill:#36291E;}
	.st18{fill-rule:evenodd;clip-rule:evenodd;fill:#A05525;}
	.st19{fill-rule:evenodd;clip-rule:evenodd;fill:#17120F;}
	.st20{fill-rule:evenodd;clip-rule:evenodd;fill:#35271A;}
	.st21{fill-rule:evenodd;clip-rule:evenodd;fill:#E2AC4C;}
	.st22{fill-rule:evenodd;clip-rule:evenodd;fill:#090C09;}
	.st23{fill-rule:evenodd;clip-rule:evenodd;fill:#A3A39E;}
	.st24{fill-rule:evenodd;clip-rule:evenodd;fill:#4C5245;}
	.st25{fill-rule:evenodd;clip-rule:evenodd;fill:#D40047;}
</style>
<g>
	<g>
		<path class="st0" d="M442.2,924.9C454.7,925,461,925,461,925c0.6-4.7-2.1-9.2-6.5-10.8c0,0-2.4-0.4-7.3-1.2
			C445.2,916.9,443.6,920.8,442.2,924.9"/>
		<path class="st1" d="M400.6,925c31.3,2.1,47.3,1.7,47.3,1.7s0.5-4.4,1.6-13.3c0,0-4.3-0.7-12.8-2.1c0,0-5.3-3.1-15.9-9.4
			c0,0,0.8-8.6,2.3-25.9c0,0-9.5-0.1-28.5-0.4C394.6,875.5,396.4,893,400.6,925"/>
		<path class="st2" d="M404.1,925.2c5.7,0.3,8.6,0.5,8.6,0.5s-2.3-16.3-7-48.9c-5.2,1.2-7.8,1.7-7.8,1.7
			C402,909.7,404.1,925.2,404.1,925.2"/>
		<path class="st1" d="M341.7,947.7c15.9,0.7,25.3-0.2,28.3-2.8c0,0-1.2-8.4-3.6-25.2c0,0,0.6-10.6,1.8-31.8c0,0-8.9-0.6-26.6-1.8
			c1.9,22.4,2.9,33.5,2.9,33.5C342.7,938.4,341.7,947.7,341.7,947.7"/>
		<path class="st2" d="M352.6,933.5c2.5,0.9,5.3,0.6,7.6-0.9c0,0,0.8-14.4,2.4-43.3c-0.5-1.5-5.3-1.9-14.3-1.3
			C351.2,918.3,352.6,933.5,352.6,933.5"/>
		<path class="st3" d="M391.9,872.4c0.7-10.8,1.1-32.2,1.2-64.2c-1.6-85.9,11.6-106,39.6-60.5c1.5,38.6,0.9,46.8,0.9,46.8
			c-0.6,7-2.9,30.2-7,69.6c-1.2,12-2.1,14.4-6.4,14.6c-13.2,0.6-19.8,0.9-19.8,0.9C394.4,879.5,391.7,879,391.9,872.4"/>
		<path class="st3" d="M367.3,890.3c-4.4-0.2-11.2-0.1-20.4,0.2c-7.9,0.2-9.7-2-7.5-11.6c9.7-46.5,12.1-52.6,11.4-64.5l-3.7-60.8
			c11.5-10.2,31.3-17.2,57.7-21.1l-15.2,99.1c-2.8,14.9-9.1,27.7-15.3,52.1C372.8,888.3,372,890.3,367.3,890.3"/>
		<path class="st3" d="M419.2,727.4c-19.9-28.1-32.5-22.7-37.6,16.2C395.7,743,409.1,737.3,419.2,727.4"/>
		<path class="st4" d="M369.9,621l-7.6-18.6c-12.1,3.6-21.2,6.8-27.4,9.6c3.8,6.1,7.3,11.6,10.4,16.4l7,57.8h29.7
			c-20.6,1.9-31.6,6.8-33.1,14.8c-9.3,27.2-14,40.8-14,40.8c9.9,13.1,25.5,21.6,42.6,23.2c14.8-28.1,21.8-45.2,21-51.3
			c16.6,22.5,28.5,35.8,35.7,39.9c4.4,0,6.6,0,6.6,0c-2.9-21.8-6.2-44.3-9.8-67.4l-9.8-75.7L369.9,621z"/>
		<polygon class="st3" points="395.8,602.1 421.3,604.6 424.6,611.3 399.1,608.8 		"/>
		<path class="st4" d="M464.2,634.9c-6.8,12.6-9.5,23.2-9.8,27.8c-6.5-0.3-18.9-8.7-35.2-21c-8.9-23.3-18.7-41,17.3-24.8
			C456.3,628,464.2,634.9,464.2,634.9"/>
		<path class="st3" d="M432.5,618.5c8.2,0.4,12.3,0.6,12.3,0.6s2.4,1.3,7.1,4c0,0-1.5,2.1-4.5,6.2c0,0-4.9-2.7-14.7-8
			C432.6,619.4,432.5,618.5,432.5,618.5"/>
		<path class="st3" d="M469.3,634.4c1.1,23.2,1.2,34.6,1.2,34.6c-2,1.3-5.1,1-9.1-0.9c0,0-2.7-1.5-8.2-4.4c-2.1-1.2-3.6-4.4-3.8-9.7
			C449.6,633.3,454.9,622.3,469.3,634.4"/>
		<path class="st5" d="M481.1,675.4c-12.7-1.1-18.3-8.7-16.7-22.7l4.4-43.8h0.4c0.6,0,1.2-0.4,1.4-1L486,615l3.8,47.4
			C490.6,671.5,486,675.8,481.1,675.4"/>
		<path class="st6" d="M471.3,605.6c6.4,7.4,9.6,11,9.6,11c-5.1,1.5-9.2,0-12.1-4.6C467.7,610,468.5,607.8,471.3,605.6"/>
		<path class="st7" d="M370.1,604.6c1.3,6.4,6.5,11.4,13.3,12.8c6.8,1.4,13.7-1.1,17.8-6.4c0,0-2.1-7.6,1-17.5c0,0-7.8-15-29-21.4
			C373.7,599.7,370.1,604.6,370.1,604.6"/>
		<path class="st3" d="M391,630.1h2.9v56.1H391V630.1z M387.5,616c-5.9,9.6-8.8,14.4-8.8,14.4c-9-0.7-13.3-10.6-16.5-28.8
			c3.7-2.4,5.7-4.4,9.4-6.8C374.3,606.3,379.6,613.4,387.5,616z"/>
		<path class="st8" d="M421.8,573.2c-2.7-0.8-4.1-1.2-4.1-1.2c-2.2,24.1-4.7,37-7.6,39c0.8,1.4,2,2.4,3.3,2.7
			C416.6,609.8,419.4,596.3,421.8,573.2"/>
		<path class="st9" d="M418.9,564.5c-1.7,8.1-2.5,12.1-2.5,12.1c9.4-2.6,15-4.8,16.9-6.4C426.5,564.6,421.7,562.7,418.9,564.5"/>
		<path class="st6" d="M377.1,592.2c2.1,5.4,5.3,9.9,8.8,13.2c6.3,6.1,15,6.9,16.3,3.2c1.1-3.2,3.2-6.9,9.6-14.4
			c1.9-2.2,2.8-5.4,2.6-9.6c-0.2-3.9,0.4-6.2,4.2-8.8c2.6-1.8,3.5-5.6,2.7-11.4c-1.1,0.2-2.2,0.1-3.4-0.2c-0.7,0-1.3-0.1-2-0.3
			l-1-0.1l-1.2-0.1c-0.6,0-1.2,0-1.8-0.1l-1.6-0.2l-1.5-0.2c-0.7-0.1-1.4-0.3-2.1-0.4c-0.6-0.1-1.1-0.3-1.7-0.5l-0.2,0l-0.3,0
			c-0.7-0.1-1.3-0.2-2-0.4l-1-0.4l0.5,0c-0.6,0-1.2-0.1-1.8-0.3c-0.3,0-0.7-0.1-1.1-0.2c-0.6-0.1-1.2-0.2-1.8-0.4l-0.4-0.2l0.5,0
			c-0.8,0-1.5-0.2-2.2-0.5l-0.1,0h-0.2c-0.8,0-1.5-0.1-2.3-0.2l-1.2-0.1c-0.7,0-1.3-0.2-2-0.3c-0.8-0.2-1.5-0.4-2.3-0.7
			c-1.6-0.6-2.9-1.7-3.8-3.1c-4.6,5.3-7,12.3-6.4,19.5C374,582.6,374.5,584.2,377.1,592.2"/>
		<path class="st10" d="M394.9,538.5l0.1,0.1L394.9,538.5L394.9,538.5z M380.6,574.3c-0.2,3.9-4.6,8-5.2,4.7
			c-0.8-8.6-1-15.9-0.4-21.9c0.6-0.1,1.1-0.3,1.6-0.5c0.6-0.1,1.2-0.3,1.8-0.5c1.1,0,2.3-0.3,3.3-0.8l0.2,0c0.8-0.2,1.7-0.5,2.4-0.9
			c0.2-0.1,0.4-0.1,0.5-0.2c0.4-0.1,0.7-0.2,1.1-0.3c0.4,0,0.7-0.1,1.1-0.1l1-0.2l0,0c0.4,0,0.7,0.1,1.1,0l1.1,0
			c-0.9,1.6-1.1,3.7-0.4,5.5c0.9,2.3-1.2,4-5.9,5.3C381.1,565.1,380.7,567.8,380.6,574.3z"/>
		<path class="st6" d="M370.7,575.9c-0.4-3.1-1.6-5.7-3.7-7.9c-1.6-1.7-1.7-4.1-0.8-6.1c0.9-2,2.8-3.4,5-3.6
			c2.2-0.2,4.3,0.8,5.6,2.6c3.6,5.2,2.8,12.3-1.8,16.6c-0.7,0.6-1.7,0.8-2.5,0.4S370.8,576.8,370.7,575.9"/>
		<path class="st11" d="M367.4,567.6c3.9,0.5,5.9,0.8,5.9,0.8c-8.1,25.8-10.6,40.4-7.7,43.9c-1.7,1.1-3.7,1.5-5.6,1.1
			C357.5,607.7,360,592.5,367.4,567.6"/>
		<path class="st12" d="M395.1,566.6c10.3-0.7,23.1-0.3,38.5,1.1c-2.2-2.2-3.3-4.8-3.2-7.8c0.9-12.2-4.9-23.9-15.1-30.7
			c-10.2-6.8-23.2-7.6-34.1-2.1s-16.1,11.5-18.7,28.6c-1.1,8.6-1.7,12.8-1.7,12.8c14.2-4,21.8-5.3,22.9-3.8
			C391.4,566,395.1,566.6,395.1,566.6"/>
		<path class="st13" d="M384.3,564c2.9,1.9,4.4,2.8,4.4,2.8s-7.7,1.6-23,4.7c-1.4,0.3-2.5-0.4-4.1-2.2
			C376.8,565.8,384.3,564,384.3,564"/>
		<path class="st14" d="M359.3,567.6c0,1.4,0.6,2.2,2,2.5c0,0,7.2-2.2,19.9-4.5c1.8-0.4,3-0.2,3.9,0.3c6.7,3.3,5.7,2.6,15.8,2.3
			c13.9-0.3,25,0.6,33.3,2.7c0.6-1,0.3-2.4-0.6-3c-9.6-1.9-20.4-2.8-32.4-2.8c-9.5-0.1-8.7,0.9-12.9-1.2c15.2-1.3,29.9-0.7,44.1,2
			c0.4,0,0.7-0.3,0.7-0.7c0-0.4-0.3-0.7-0.6-0.8c-15.9-3.1-31.6-3.7-47.1-2c-2.4-1-3.8-0.7-5.2-0.4
			C373.3,563.7,366.3,565.5,359.3,567.6"/>
		<polygon class="st15" points="370.4,551.6 371.9,555 375.6,554.3 372.8,556.9 374.6,560.2 371.3,558.3 368.7,561 369.5,557.3 
			366.1,555.7 369.9,555.3 		"/>
		<rect x="457" y="594" class="st16" width="22.5" height="11.8"/>
		<path class="st17" d="M418.4,588.8h3.1c0.4,0,0.8,0.4,0.8,0.8v1.9h13.5c0.6,0,1.2,0.5,1.2,1.2v4c0,0.6-0.5,1.2-1.2,1.2H417
			c-0.6,0-1.2-0.5-1.2-1.2v-4c0-0.6,0.5-1.2,1.2-1.2h0.6v-1.9C417.7,589.2,418,588.8,418.4,588.8"/>
		<path class="st18" d="M415.4,602.7c8.6,0.5,12.9,0.8,12.9,0.8c-0.1,4.1-2.3,7.8-5.8,9.9c0,0-15.2,9.6-45.6,28.9
			c-3.9,2.4-5.3,1.9-6.4-0.7c0,0-2.2-5.2-6.5-15.6c-0.8-1.9-0.6-2.8,0.5-3.3C398.4,609.3,415.4,602.7,415.4,602.7"/>
		<path class="st19" d="M455,591.1h78.1h5.1v-6.8c0-0.7,0.5-1.4,1.3-1.4c0.7,0,1.3,0.6,1.3,1.4v6.8h3.2h10.5c1.6,0,2.9,1.3,2.9,2.9
			c0,1.6-1.3,2.9-2.9,2.9h-10.4c0,0-0.1,0-0.1,0h-75.7l-5.4,43.5c-0.1,0.8-0.9,1.5-1.7,1.5h-8.5c-0.8,0-1.4-0.7-1.3-1.5l2.3-18.2
			h-28.1v-7.4h-5c-4,0.1-5.1,0-5.1-2.7v-3.2h39.9l1.5-11.9H455c-0.8,0-1.5-0.7-1.5-1.6v-2.6C453.5,591.9,454.2,591.1,455,591.1"/>
		<path class="st16" d="M412.1,594.1h42.2c1.6,0,3,1.3,3,3v10.4c0,1.6-1.3,3-3,3h-42.2c-1.6,0-3-1.3-3-3v-10.4
			C409.2,595.4,410.5,594.1,412.1,594.1"/>
		<path class="st20" d="M395.1,636.6c-2.2,1.8-2.5,2.9-2.5,2.9c51.2,35.3,85.5,34.9,124.8-31.3c-4.3,0-8.2-0.5-8.2-0.5
			C472.5,669.2,443.1,667.2,395.1,636.6"/>
		<path class="st18" d="M472.4,596.6h57.9c0.8,0,1.5,0.7,1.5,1.5v10.6c0,0.8-0.7,1.5-1.5,1.5h-57.9c-0.8,0-1.5-0.7-1.5-1.5v-10.6
			C470.9,597.3,471.6,596.6,472.4,596.6"/>
		<path class="st4" d="M328,659.2c23.4-9.8,35-14.8,35-14.8s-3.4-10-10.1-30.1c-1.8-6.4-10.4-9.5-17.6-8.1
			c-7.2,1.4-14.4,7.1-13.4,14.1C326,646.3,328,659.2,328,659.2"/>
		<path class="st3" d="M366.1,644.1c-18.6,14-17.7,27.5-14.8,33.1c-7.1,5.9-14.6-1.9-21.3-11.2c-4.8-6.7-2.8-10.6,1-14.6
			c6.7-6.6,15.1-11.1,24.4-12.9C361,637.6,363.2,636.9,366.1,644.1"/>
		<path class="st21" d="M475.1,613.4c1.1,5.1,8.5,4,19.5-2.3c3.7-2.1,4-6.2,1.9-13.5c-1.4-4.8-9.3-5.1-15.5-2
			c-5.4,2.5-7.8,7.5-7.5,10.9C474.6,611.1,475.1,613.4,475.1,613.4"/>
		<polygon class="st3" points="328.6,604.9 353.5,600.6 360.3,606 335.4,610.3 		"/>
		<path class="st22" d="M353.9,681.4h74.4c1.7,0,3.1,1.4,3.3,3l0.8,7.6c0.2,1.7-1.1,3-2.7,3h-74.4c-1.7,0-3.1-1.4-3.3-3l-0.8-7.6
			C351,682.8,352.3,681.4,353.9,681.4"/>
		<path class="st6" d="M428.4,639.1c3.9,0.9,7-1.7,10.6-8.1c2.4-4.3-0.5-5.1-4.5-8.1c-1.8-1.2-1.4-1.8,0.8-1.2c0,0,3.6,0.9,10.8,2.7
			c1.2,0.3,2.1-1.4,2.5-2.6s0.6-3.1-0.6-3.6c-1.8-0.5-4-1.2-14.8-4c-4-0.9-8.1-0.1-10.7,0.7c0,0-8.5,2.4-19,7
			c0,0-20.4,9.5-61.1,28.6c-7.5,3.5-6.7,15.7-1.3,22.3c5.5,6.6,9.2,8.1,21,0.3c23-15.3,49.7-34.1,49.7-34.1c2.4-1.7,3.6-2.5,3.6-2.5
			C424.1,638.2,428.4,639.1,428.4,639.1"/>
		<path class="st23" d="M401.6,923.5h58.6c0.8,0,1.5,0.7,1.5,1.5v3.8c0,0.8-0.7,1.5-1.5,1.5h-58.6c-0.8,0-1.5-0.7-1.5-1.5V925
			C400.1,924.2,400.7,923.5,401.6,923.5"/>
		<path class="st24" d="M348.8,898.4l15-0.6c0.5,0,1,0.4,1,0.9l0,0c0,0.5-0.4,1-1,1l-15,0.6c-0.5,0-1-0.4-1-0.9l0,0
			C347.8,898.9,348.2,898.4,348.8,898.4"/>
		<path class="st24" d="M349.4,902.6l13.9-0.6c0.5,0,1,0.4,1,0.9l0,0c0,0.5-0.4,1-1,1l-13.9,0.6c-0.5,0-1-0.4-1-0.9l0,0
			C348.4,903.1,348.8,902.6,349.4,902.6"/>
		<path class="st24" d="M350,906.6l12.8-0.5c0.5,0,1,0.4,1,0.9l0,0c0,0.5-0.4,1-1,1l-12.8,0.5c-0.5,0-1-0.4-1-0.9l0,0
			C349,907.1,349.4,906.6,350,906.6"/>
		<path class="st24" d="M350.7,910.6l11.4-0.5c0.5,0,1,0.4,1,0.9l0,0c0,0.5-0.4,1-1,1l-11.4,0.5c-0.5,0-1-0.4-1-0.9l0,0
			C349.7,911,350.2,910.6,350.7,910.6"/>
		<path class="st24" d="M351.4,914.5l10.1-0.4c0.5,0,1,0.4,1,0.9l0,0c0,0.5-0.4,1-1,1l-10.1,0.4c-0.5,0-1-0.4-1-0.9l0,0
			C350.4,915,350.9,914.6,351.4,914.5"/>
		<path class="st24" d="M351.9,918.4l9.3-0.4c0.5,0,1,0.4,1,0.9l0,0c0,0.5-0.4,1-1,1l-9.3,0.4c-0.5,0-1-0.4-1-0.9l0,0
			C350.9,918.8,351.3,918.4,351.9,918.4"/>
		<path class="st24" d="M352.5,922.1l8.1-0.3c0.5,0,1,0.4,1,0.9l0,0c0,0.5-0.4,1-1,1l-8.1,0.3c-0.5,0-1-0.4-1-0.9l0,0
			C351.5,922.6,352,922.1,352.5,922.1"/>
		<path class="st24" d="M353.3,925.8l6.7-0.3c0.5,0,1,0.4,1,0.9l0,0c0,0.5-0.4,1-1,1l-6.7,0.3c-0.5,0-1-0.4-1-0.9l0,0
			C352.3,926.3,352.7,925.8,353.3,925.8"/>
		<path class="st24" d="M353.6,929.8l6-0.2c0.5,0,1,0.4,1,0.9l0,0c0,0.5-0.4,1-1,1l-6,0.2c-0.5,0-1-0.4-1-0.9l0,0
			C352.7,930.3,353.1,929.8,353.6,929.8"/>
		<path class="st24" d="M416.3,883.4l6-0.5c0.5,0,1,0.4,1,0.9l0,0c0,0.5-0.4,1-1,1.1l-6,0.5c-0.5,0-1-0.4-1-0.9l0,0
			C415.3,883.9,415.7,883.5,416.3,883.4"/>
		<path class="st24" d="M416.5,887l6-0.5c0.5,0,1,0.4,1,0.9l0,0c0,0.5-0.4,1-1,1.1l-6,0.5c-0.5,0-1-0.4-1-0.9l0,0
			C415.5,887.5,415.9,887,416.5,887"/>
		<path class="st24" d="M416.1,890.4l6-0.5c0.5,0,1,0.4,1,0.9l0,0c0,0.5-0.4,1-1,1.1l-6,0.5c-0.5,0-1-0.4-1-0.9l0,0
			C415.1,891,415.6,890.5,416.1,890.4"/>
		<path class="st24" d="M416.3,894l6-0.5c0.5,0,1,0.4,1,0.9l0,0c0,0.5-0.4,1-1,1.1l-6,0.5c-0.5,0-1-0.4-1-0.9l0,0
			C415.3,894.5,415.7,894.1,416.3,894"/>
		<path class="st24" d="M416.2,897.6l6-0.5c0.5,0,1,0.4,1,0.9l0,0c0,0.5-0.4,1-1,1.1l-6,0.5c-0.5,0-1-0.4-1-0.9l0,0
			C415.2,898.2,415.6,897.7,416.2,897.6"/>
		<path class="st24" d="M416.4,901.2l6-0.5c0.5,0,1,0.4,1,0.9l0,0c0,0.5-0.4,1-1,1.1l-6,0.5c-0.5,0-1-0.4-1-0.9l0,0
			C415.4,901.7,415.8,901.3,416.4,901.2"/>
		<path class="st24" d="M418.9,907.4l4.2-4.3c0.4-0.4,1-0.4,1.3,0l0,0c0.4,0.4,0.3,1.1,0,1.4l-4.2,4.3c-0.4,0.4-1,0.4-1.3,0l0,0
			C418.5,908.4,418.5,907.8,418.9,907.4"/>
		<path class="st24" d="M422.4,909.1l4.2-4.3c0.4-0.4,1-0.4,1.3,0l0,0c0.4,0.4,0.3,1.1,0,1.4l-4.2,4.3c-0.4,0.4-1,0.4-1.3,0l0,0
			C422,910.1,422,909.5,422.4,909.1"/>
		<path class="st24" d="M425.6,911.1l4.2-4.3c0.4-0.4,1-0.4,1.3,0l0,0c0.4,0.4,0.3,1.1,0,1.4l-4.2,4.3c-0.4,0.4-1,0.4-1.3,0l0,0
			C425.2,912.1,425.2,911.4,425.6,911.1"/>
		<path class="st24" d="M429.1,913.4l4.2-4.3c0.4-0.4,1-0.4,1.3,0l0,0c0.4,0.4,0.3,1.1,0,1.4l-4.2,4.3c-0.4,0.4-1,0.4-1.3,0l0,0
			C428.7,914.5,428.8,913.8,429.1,913.4"/>
	</g>
	<g>
		<path class="st0" d="M295.9,968.7c12.5,0.1,18.8,0.1,18.8,0.1c0.6-4.7-2.1-9.2-6.5-10.8c0,0-2.4-0.4-7.3-1.2
			C298.9,960.6,297.3,964.6,295.9,968.7"/>
		<path class="st1" d="M254.3,968.8c31.3,2.1,47.3,1.7,47.3,1.7s0.5-4.4,1.6-13.3c0,0-4.3-0.7-12.8-2.1c0,0-5.3-3.1-15.9-9.4
			c0,0,0.8-8.6,2.3-25.9c0,0-9.5-0.1-28.5-0.4C248.3,919.3,250.1,936.8,254.3,968.8"/>
		<path class="st2" d="M257.8,969c5.7,0.3,8.6,0.5,8.6,0.5s-2.3-16.3-7-48.9c-5.2,1.2-7.8,1.7-7.8,1.7
			C255.7,953.4,257.8,969,257.8,969"/>
		<path class="st1" d="M195.4,991.5c15.9,0.7,25.3-0.2,28.3-2.8c0,0-1.2-8.4-3.6-25.2c0,0,0.6-10.6,1.8-31.8c0,0-8.9-0.6-26.6-1.8
			c1.9,22.4,2.9,33.5,2.9,33.5C196.4,982.2,195.4,991.5,195.4,991.5"/>
		<path class="st2" d="M206.3,977.3c2.5,0.9,5.3,0.6,7.6-0.9c0,0,0.8-14.4,2.4-43.3c-0.5-1.5-5.3-1.9-14.3-1.3
			C204.9,962.1,206.3,977.3,206.3,977.3"/>
		<path class="st3" d="M245.6,916.1c0.7-10.8,1.1-32.2,1.2-64.2c-1.6-85.9,11.6-106,39.6-60.5c1.5,38.6,0.9,46.8,0.9,46.8
			c-0.6,7-2.9,30.2-7,69.6c-1.2,12-2.1,14.4-6.4,14.6c-13.2,0.6-19.8,0.9-19.8,0.9C248.1,923.3,245.4,922.8,245.6,916.1"/>
		<path class="st3" d="M221,934.1c-4.4-0.2-11.2-0.1-20.4,0.2c-7.9,0.2-9.7-2-7.5-11.6c9.7-46.5,12.1-52.6,11.4-64.5l-3.7-60.8
			c11.5-10.2,31.3-17.2,57.7-21.1l-15.2,99.1c-2.8,14.9-9.1,27.7-15.3,52.1C226.5,932.1,225.7,934,221,934.1"/>
		<path class="st3" d="M272.9,771.2c-19.9-28.1-32.5-22.7-37.6,16.2C249.4,786.8,262.8,781.1,272.9,771.2"/>
		<path class="st4" d="M223.6,664.8l-7.6-18.6c-12.1,3.6-21.2,6.8-27.4,9.6c3.8,6.1,7.3,11.6,10.4,16.4l7,57.8h29.7
			c-20.6,1.9-31.6,6.8-33.1,14.8c-9.3,27.2-14,40.8-14,40.8c9.9,13.1,25.5,21.6,42.6,23.2c14.8-28.1,21.8-45.2,21-51.3
			c16.6,22.5,28.5,35.8,35.7,39.9c4.4,0,6.6,0,6.6,0c-2.9-21.8-6.2-44.3-9.8-67.4l-9.8-75.7L223.6,664.8z"/>
		<polygon class="st3" points="249.5,645.8 275,648.3 278.3,655 252.8,652.6 		"/>
		<path class="st4" d="M317.9,678.7c-6.8,12.6-9.5,23.2-9.8,27.8c-6.5-0.3-18.9-8.7-35.2-21c-8.9-23.3-18.7-41,17.3-24.8
			C310,671.8,317.9,678.7,317.9,678.7"/>
		<path class="st3" d="M286.2,662.3c8.2,0.4,12.3,0.6,12.3,0.6s2.4,1.3,7.1,4c0,0-1.5,2.1-4.5,6.2c0,0-4.9-2.7-14.7-8
			C286.3,663.2,286.2,662.3,286.2,662.3"/>
		<path class="st3" d="M323,678.2c1.1,23.2,1.2,34.6,1.2,34.6c-2,1.3-5.1,1-9.1-0.9c0,0-2.7-1.5-8.2-4.4c-2.1-1.2-3.6-4.4-3.8-9.7
			C303.3,677.1,308.6,666,323,678.2"/>
		<path class="st5" d="M334.8,719.2c-12.7-1.1-18.3-8.7-16.7-22.7l4.4-43.8h0.4c0.6,0,1.2-0.4,1.4-1l15.4,7.1l3.8,47.4
			C344.3,715.3,339.7,719.6,334.8,719.2"/>
		<path class="st6" d="M325,649.3c6.4,7.4,9.6,11,9.6,11c-5.1,1.5-9.2,0-12.1-4.6C321.4,653.8,322.2,651.6,325,649.3"/>
		<path class="st7" d="M223.8,648.4c1.3,6.4,6.5,11.4,13.3,12.8c6.8,1.4,13.7-1.1,17.8-6.4c0,0-2.1-7.6,1-17.5c0,0-7.8-15-29-21.4
			C227.4,643.4,223.8,648.4,223.8,648.4"/>
		<path class="st3" d="M244.7,673.9h2.9V730h-2.9V673.9z M241.2,659.8c-5.9,9.6-8.8,14.4-8.8,14.4c-9-0.7-13.3-10.6-16.5-28.8
			c3.7-2.4,5.7-4.4,9.4-6.8C228,650.1,233.3,657.2,241.2,659.8z"/>
		<path class="st8" d="M275.5,617c-2.7-0.8-4.1-1.2-4.1-1.2c-2.2,24.1-4.7,37-7.6,39c0.8,1.4,2,2.4,3.3,2.7
			C270.3,653.5,273.1,640.1,275.5,617"/>
		<path class="st9" d="M272.6,608.3c-1.7,8.1-2.5,12.1-2.5,12.1c9.4-2.6,15-4.8,16.9-6.4C280.2,608.4,275.4,606.5,272.6,608.3"/>
		<path class="st6" d="M230.8,635.9c2.1,5.4,5.3,9.9,8.8,13.2c6.3,6.1,15,6.9,16.3,3.2c1.1-3.2,3.2-6.9,9.6-14.4
			c1.9-2.2,2.8-5.4,2.6-9.6c-0.2-3.9,0.4-6.2,4.2-8.8c2.6-1.8,3.5-5.6,2.7-11.4c-1.1,0.2-2.2,0.1-3.4-0.2c-0.7,0-1.3-0.1-2-0.3
			l-1-0.1l-1.2-0.1c-0.6,0-1.2,0-1.8-0.1l-1.6-0.2l-1.5-0.2c-0.7-0.1-1.4-0.3-2.1-0.4c-0.6-0.1-1.1-0.3-1.7-0.5l-0.2,0l-0.3,0
			c-0.7-0.1-1.3-0.2-2-0.4l-1-0.4l0.5,0c-0.6,0-1.2-0.1-1.8-0.3c-0.3,0-0.7-0.1-1.1-0.2c-0.6-0.1-1.2-0.2-1.8-0.4l-0.4-0.2l0.5,0
			c-0.8,0-1.5-0.2-2.2-0.5l-0.1,0h-0.2c-0.8,0-1.5-0.1-2.3-0.2l-1.2-0.1c-0.7,0-1.3-0.2-2-0.3c-0.8-0.2-1.5-0.4-2.3-0.7
			c-1.6-0.6-2.9-1.7-3.8-3.1c-4.6,5.3-7,12.3-6.4,19.5C227.7,626.3,228.2,628,230.8,635.9"/>
		<path class="st10" d="M248.6,582.3l0.1,0.1L248.6,582.3L248.6,582.3z M234.3,618c-0.2,3.9-4.6,8-5.2,4.7c-0.8-8.6-1-15.9-0.4-21.9
			c0.6-0.1,1.1-0.3,1.6-0.5c0.6-0.1,1.2-0.3,1.8-0.5c1.1,0,2.3-0.3,3.3-0.8l0.2,0c0.8-0.2,1.7-0.5,2.4-0.9c0.2-0.1,0.4-0.1,0.5-0.2
			c0.4-0.1,0.7-0.2,1.1-0.3c0.4,0,0.7-0.1,1.1-0.1l1-0.2l0,0c0.4,0,0.7,0.1,1.1,0l1.1,0c-0.9,1.6-1.1,3.7-0.4,5.5
			c0.9,2.3-1.2,4-5.9,5.3C234.8,608.9,234.4,611.6,234.3,618z"/>
		<path class="st6" d="M224.4,619.7c-0.4-3.1-1.6-5.7-3.7-7.9c-1.6-1.7-1.7-4.1-0.8-6.1s2.8-3.4,5-3.6c2.2-0.2,4.3,0.8,5.6,2.6
			c3.6,5.2,2.8,12.3-1.8,16.6c-0.7,0.6-1.7,0.8-2.5,0.4C225.2,621.4,224.5,620.6,224.4,619.7"/>
		<path class="st11" d="M221.1,611.3c3.9,0.5,5.9,0.8,5.9,0.8c-8.1,25.8-10.6,40.4-7.7,43.9c-1.7,1.1-3.7,1.5-5.6,1.1
			C211.2,651.5,213.7,636.2,221.1,611.3"/>
		<path class="st12" d="M248.8,610.4c10.3-0.7,23.1-0.3,38.5,1.1c-2.2-2.2-3.3-4.8-3.2-7.8c0.9-12.2-4.9-23.9-15.1-30.7
			c-10.2-6.8-23.2-7.6-34.1-2.1c-10.9,5.5-16.1,11.5-18.7,28.6c-1.1,8.6-1.7,12.8-1.7,12.8c14.2-4,21.8-5.3,22.9-3.8
			C245.1,609.8,248.8,610.4,248.8,610.4"/>
		<path class="st13" d="M238,607.7c2.9,1.9,4.4,2.8,4.4,2.8s-7.7,1.6-23,4.7c-1.4,0.3-2.5-0.4-4.1-2.2
			C230.5,609.5,238,607.7,238,607.7"/>
		<path class="st14" d="M213,611.3c0,1.4,0.6,2.2,2,2.5c0,0,7.2-2.2,19.9-4.5c1.8-0.4,3-0.2,3.9,0.3c6.7,3.3,5.7,2.6,15.8,2.3
			c13.9-0.3,25,0.6,33.3,2.7c0.6-1,0.3-2.4-0.6-3c-9.6-1.9-20.4-2.8-32.4-2.8c-9.5-0.1-8.7,0.9-12.9-1.2c15.2-1.3,29.9-0.7,44.1,2
			c0.4,0,0.7-0.3,0.7-0.7c0-0.4-0.3-0.7-0.6-0.8c-15.9-3.1-31.6-3.7-47.1-2c-2.4-1-3.8-0.7-5.2-0.4C227,607.4,220,609.3,213,611.3"
			/>
		<polygon class="st15" points="224.1,595.3 225.6,598.8 229.3,598.1 226.5,600.6 228.3,604 225,602 222.4,604.8 223.2,601.1 
			219.8,599.5 223.6,599.1 		"/>
		<rect x="310.7" y="637.8" class="st16" width="22.5" height="11.8"/>
		<path class="st17" d="M272.1,632.6h3.1c0.4,0,0.8,0.4,0.8,0.8v1.9h13.5c0.6,0,1.2,0.5,1.2,1.2v4c0,0.6-0.5,1.2-1.2,1.2h-18.8
			c-0.6,0-1.2-0.5-1.2-1.2v-4c0-0.6,0.5-1.2,1.2-1.2h0.6v-1.9C271.3,632.9,271.7,632.6,272.1,632.6"/>
		<path class="st18" d="M269.1,646.4c8.6,0.5,12.9,0.8,12.9,0.8c-0.1,4.1-2.3,7.8-5.8,9.9c0,0-15.2,9.6-45.6,28.9
			c-3.9,2.4-5.3,1.9-6.4-0.7c0,0-2.2-5.2-6.5-15.6c-0.8-1.9-0.6-2.8,0.5-3.3C252.1,653.1,269.1,646.4,269.1,646.4"/>
		<path class="st19" d="M308.7,634.9h78.1h5.1V628c0-0.7,0.5-1.4,1.3-1.4c0.7,0,1.3,0.6,1.3,1.4v6.8h3.2h10.5c1.6,0,2.9,1.3,2.9,2.9
			c0,1.6-1.3,2.9-2.9,2.9h-10.4c0,0-0.1,0-0.1,0H322l-5.4,43.5c-0.1,0.8-0.9,1.5-1.7,1.5h-8.5c-0.8,0-1.4-0.7-1.3-1.5l2.3-18.2
			h-28.1v-7.4h-5c-4,0.1-5.1,0-5.1-2.7v-3.2H309l1.5-11.9h-1.8c-0.8,0-1.5-0.7-1.5-1.6v-2.6C307.2,635.6,307.9,634.9,308.7,634.9"/>
		<path class="st16" d="M265.8,637.9H308c1.6,0,3,1.3,3,3v10.4c0,1.6-1.3,3-3,3h-42.2c-1.6,0-3-1.3-3-3v-10.4
			C262.9,639.2,264.2,637.9,265.8,637.9"/>
		<path class="st20" d="M248.8,680.4c-2.2,1.8-2.5,2.9-2.5,2.9c51.2,35.3,85.5,34.9,124.8-31.3c-4.3,0-8.2-0.5-8.2-0.5
			C326.2,713,296.8,710.9,248.8,680.4"/>
		<path class="st18" d="M326.1,640.4H384c0.8,0,1.5,0.7,1.5,1.5v10.6c0,0.8-0.7,1.5-1.5,1.5h-57.9c-0.8,0-1.5-0.7-1.5-1.5v-10.6
			C324.6,641,325.3,640.4,326.1,640.4"/>
		<path class="st4" d="M181.7,703c23.4-9.8,35-14.8,35-14.8s-3.4-10-10.1-30.1c-1.8-6.4-10.4-9.5-17.6-8.1
			c-7.2,1.4-14.4,7.1-13.4,14.1C179.7,690,181.7,703,181.7,703"/>
		<path class="st3" d="M219.8,687.9c-18.6,14-17.7,27.5-14.8,33.1c-7.1,5.9-14.6-1.9-21.3-11.2c-4.8-6.7-2.8-10.6,1-14.6
			c6.7-6.6,15.1-11.1,24.4-12.9C214.7,681.4,216.9,680.6,219.8,687.9"/>
		<path class="st21" d="M328.8,657.2c1.1,5.1,8.5,4,19.5-2.3c3.7-2.1,4-6.2,1.9-13.5c-1.4-4.8-9.3-5.1-15.5-2
			c-5.4,2.5-7.8,7.5-7.5,10.9C328.3,654.9,328.8,657.2,328.8,657.2"/>
		<polygon class="st3" points="182.3,648.7 207.2,644.4 214,649.8 189.1,654.1 		"/>
		<path class="st22" d="M207.6,725.2H282c1.7,0,3.1,1.4,3.3,3l0.8,7.6c0.2,1.7-1.1,3-2.7,3H209c-1.7,0-3.1-1.4-3.3-3l-0.8-7.6
			C204.7,726.5,206,725.2,207.6,725.2"/>
		<path class="st6" d="M282.1,682.9c3.9,0.9,7-1.7,10.6-8.1c2.4-4.3-0.5-5.1-4.5-8.1c-1.8-1.2-1.4-1.8,0.8-1.2c0,0,3.6,0.9,10.8,2.7
			c1.2,0.3,2.1-1.4,2.5-2.6s0.6-3.1-0.6-3.6c-1.8-0.5-4-1.2-14.8-4c-4-0.9-8.1-0.1-10.7,0.7c0,0-8.5,2.4-19,7
			c0,0-20.4,9.5-61.1,28.6c-7.5,3.5-6.7,15.7-1.3,22.3c5.5,6.6,9.2,8.1,21,0.3c23-15.3,49.7-34.1,49.7-34.1c2.4-1.7,3.6-2.5,3.6-2.5
			C277.8,682,282.1,682.9,282.1,682.9"/>
		<path class="st23" d="M255.3,967.3h58.6c0.8,0,1.5,0.7,1.5,1.5v3.8c0,0.8-0.7,1.5-1.5,1.5h-58.6c-0.8,0-1.5-0.7-1.5-1.5v-3.8
			C253.8,967.9,254.4,967.3,255.3,967.3"/>
		<path class="st24" d="M202.5,942.2l15-0.6c0.5,0,1,0.4,1,0.9l0,0c0,0.5-0.4,1-1,1l-15,0.6c-0.5,0-1-0.4-1-0.9l0,0
			C201.5,942.7,201.9,942.2,202.5,942.2"/>
		<path class="st24" d="M203.1,946.4l13.9-0.6c0.5,0,1,0.4,1,0.9l0,0c0,0.5-0.4,1-1,1l-13.9,0.6c-0.5,0-1-0.4-1-0.9l0,0
			C202.1,946.9,202.5,946.4,203.1,946.4"/>
		<path class="st24" d="M203.7,950.4l12.8-0.5c0.5,0,1,0.4,1,0.9l0,0c0,0.5-0.4,1-1,1l-12.8,0.5c-0.5,0-1-0.4-1-0.9l0,0
			C202.7,950.9,203.1,950.4,203.7,950.4"/>
		<path class="st24" d="M204.4,954.3l11.4-0.5c0.5,0,1,0.4,1,0.9l0,0c0,0.5-0.4,1-1,1l-11.4,0.5c-0.5,0-1-0.4-1-0.9l0,0
			C203.4,954.8,203.9,954.3,204.4,954.3"/>
		<path class="st24" d="M205.1,958.3l10.1-0.4c0.5,0,1,0.4,1,0.9l0,0c0,0.5-0.4,1-1,1l-10.1,0.4c-0.5,0-1-0.4-1-0.9l0,0
			C204.1,958.8,204.6,958.3,205.1,958.3"/>
		<path class="st24" d="M205.6,962.1l9.3-0.4c0.5,0,1,0.4,1,0.9l0,0c0,0.5-0.4,1-1,1l-9.3,0.4c-0.5,0-1-0.4-1-0.9l0,0
			C204.6,962.6,205,962.2,205.6,962.1"/>
		<path class="st24" d="M206.2,965.9l8.1-0.3c0.5,0,1,0.4,1,0.9l0,0c0,0.5-0.4,1-1,1l-8.1,0.3c-0.5,0-1-0.4-1-0.9l0,0
			C205.2,966.3,205.7,965.9,206.2,965.9"/>
		<path class="st24" d="M206.9,969.6l6.7-0.3c0.5,0,1,0.4,1,0.9l0,0c0,0.5-0.4,1-1,1l-6.7,0.3c-0.5,0-1-0.4-1-0.9l0,0
			C206,970,206.4,969.6,206.9,969.6"/>
		<path class="st24" d="M207.3,973.6l6-0.2c0.5,0,1,0.4,1,0.9l0,0c0,0.5-0.4,1-1,1l-6,0.2c-0.5,0-1-0.4-1-0.9l0,0
			C206.4,974,206.8,973.6,207.3,973.6"/>
		<path class="st24" d="M270,927.2l6-0.5c0.5,0,1,0.4,1,0.9l0,0c0,0.5-0.4,1-1,1.1l-6,0.5c-0.5,0-1-0.4-1-0.9l0,0
			C269,927.7,269.5,927.2,270,927.2"/>
		<path class="st24" d="M270.2,930.8l6-0.5c0.5,0,1,0.4,1,0.9l0,0c0,0.5-0.4,1-1,1.1l-6,0.5c-0.5,0-1-0.4-1-0.9l0,0
			C269.2,931.3,269.6,930.8,270.2,930.8"/>
		<path class="st24" d="M269.8,934.2l6-0.5c0.5,0,1,0.4,1,0.9l0,0c0,0.5-0.4,1-1,1.1l-6,0.5c-0.5,0-1-0.4-1-0.9l0,0
			C268.8,934.7,269.3,934.2,269.8,934.2"/>
		<path class="st24" d="M270,937.8l6-0.5c0.5,0,1,0.4,1,0.9l0,0c0,0.5-0.4,1-1,1.1l-6,0.5c-0.5,0-1-0.4-1-0.9l0,0
			C269,938.3,269.5,937.8,270,937.8"/>
		<path class="st24" d="M269.9,941.4l6-0.5c0.5,0,1,0.4,1,0.9l0,0c0,0.5-0.4,1-1,1.1l-6,0.5c-0.5,0-1-0.4-1-0.9l0,0
			C268.9,941.9,269.3,941.5,269.9,941.4"/>
		<path class="st24" d="M270.1,945l6-0.5c0.5,0,1,0.4,1,0.9l0,0c0,0.5-0.4,1-1,1.1l-6,0.5c-0.5,0-1-0.4-1-0.9l0,0
			C269.1,945.5,269.5,945,270.1,945"/>
		<path class="st24" d="M272.6,951.2l4.2-4.3c0.4-0.4,1-0.4,1.3,0l0,0c0.4,0.4,0.3,1.1,0,1.4l-4.2,4.3c-0.4,0.4-1,0.4-1.3,0l0,0
			C272.2,952.2,272.2,951.5,272.6,951.2"/>
		<path class="st24" d="M276.1,952.8l4.2-4.3c0.4-0.4,1-0.4,1.3,0l0,0c0.4,0.4,0.3,1.1,0,1.4l-4.2,4.3c-0.4,0.4-1,0.4-1.3,0l0,0
			C275.7,953.9,275.7,953.2,276.1,952.8"/>
		<path class="st24" d="M279.3,954.8l4.2-4.3c0.4-0.4,1-0.4,1.3,0l0,0c0.4,0.4,0.3,1.1,0,1.4l-4.2,4.3c-0.4,0.4-1,0.4-1.3,0l0,0
			C278.9,955.9,278.9,955.2,279.3,954.8"/>
		<path class="st24" d="M282.8,957.2l4.2-4.3c0.4-0.4,1-0.4,1.3,0l0,0c0.4,0.4,0.3,1.1,0,1.4l-4.2,4.3c-0.4,0.4-1,0.4-1.3,0l0,0
			C282.4,958.3,282.5,957.6,282.8,957.2"/>
	</g>
	<g>
		<path class="st0" d="M158,1027.8c12.5,0.1,18.8,0.1,18.8,0.1c0.6-4.7-2.1-9.2-6.5-10.8c0,0-2.4-0.4-7.3-1.2
			C161,1019.8,159.3,1023.8,158,1027.8"/>
		<path class="st1" d="M116.3,1027.9c31.3,2.1,47.3,1.7,47.3,1.7s0.5-4.4,1.6-13.3c0,0-4.3-0.7-12.8-2.1c0,0-5.3-3.1-15.9-9.4
			c0,0,0.8-8.6,2.3-25.9c0,0-9.5-0.1-28.5-0.4C110.4,978.5,112.1,996,116.3,1027.9"/>
		<path class="st2" d="M119.9,1028.2c5.7,0.3,8.6,0.5,8.6,0.5s-2.3-16.3-7-48.9c-5.2,1.2-7.8,1.7-7.8,1.7
			C117.8,1012.6,119.9,1028.2,119.9,1028.2"/>
		<path class="st1" d="M57.5,1050.7c15.9,0.7,25.3-0.2,28.3-2.8c0,0-1.2-8.4-3.6-25.2c0,0,0.6-10.6,1.8-31.8c0,0-8.9-0.6-26.6-1.8
			c1.9,22.4,2.9,33.5,2.9,33.5C58.4,1041.3,57.5,1050.7,57.5,1050.7"/>
		<path class="st2" d="M68.4,1036.5c2.5,0.9,5.3,0.6,7.6-0.9c0,0,0.8-14.4,2.4-43.3c-0.5-1.5-5.3-1.9-14.3-1.3
			C67,1021.3,68.4,1036.5,68.4,1036.5"/>
		<path class="st3" d="M107.7,975.3c0.7-10.8,1.1-32.2,1.2-64.2c-1.6-85.9,11.6-106,39.6-60.5c1.5,38.6,0.9,46.8,0.9,46.8
			c-0.6,7-2.9,30.2-7,69.6c-1.2,12-2.1,14.4-6.4,14.6c-13.2,0.6-19.8,0.9-19.8,0.9C110.2,982.4,107.5,982,107.7,975.3"/>
		<path class="st3" d="M83.1,993.2c-4.4-0.2-11.2-0.1-20.4,0.2c-7.9,0.2-9.7-2-7.5-11.6c9.7-46.5,12.1-52.6,11.4-64.5l-3.7-60.8
			c11.5-10.2,31.3-17.2,57.7-21.1l-15.2,99.1c-2.8,14.9-9.1,27.7-15.3,52.1C88.6,991.3,87.7,993.2,83.1,993.2"/>
		<path class="st3" d="M135,830.4c-19.9-28.1-32.5-22.7-37.6,16.2C111.5,846,124.9,840.2,135,830.4"/>
		<path class="st4" d="M85.7,724l-7.6-18.6C66,709,56.9,712.2,50.7,715c3.8,6.1,7.3,11.6,10.4,16.4l7,57.8h29.7
			c-20.6,1.9-31.6,6.8-33.1,14.8c-9.3,27.2-14,40.8-14,40.8c9.9,13.1,25.5,21.6,42.6,23.2c14.8-28.1,21.8-45.2,21-51.3
			c16.6,22.5,28.5,35.8,35.7,39.9c4.4,0,6.6,0,6.6,0c-2.9-21.8-6.2-44.3-9.8-67.4l-9.8-75.7L85.7,724z"/>
		<polygon class="st3" points="111.6,705 137.1,707.5 140.3,714.2 114.8,711.7 		"/>
		<path class="st4" d="M180,737.9c-6.8,12.6-9.5,23.2-9.8,27.8c-6.5-0.3-18.9-8.7-35.2-21c-8.9-23.3-18.7-41,17.3-24.8
			C172.1,730.9,180,737.9,180,737.9"/>
		<path class="st3" d="M148.3,721.5c8.2,0.4,12.3,0.6,12.3,0.6s2.4,1.3,7.1,4c0,0-1.5,2.1-4.5,6.2c0,0-4.9-2.7-14.7-8
			C148.4,722.4,148.3,721.5,148.3,721.5"/>
		<path class="st3" d="M185,737.3c1.1,23.2,1.2,34.6,1.2,34.6c-2,1.3-5.1,1-9.1-0.9c0,0-2.7-1.5-8.2-4.4c-2.1-1.2-3.6-4.4-3.8-9.7
			C165.4,736.3,170.7,725.2,185,737.3"/>
		<path class="st5" d="M196.8,778.4c-12.7-1.1-18.3-8.7-16.7-22.7l4.4-43.8h0.4c0.6,0,1.2-0.4,1.4-1l15.4,7.1l3.8,47.4
			C206.3,774.5,201.7,778.7,196.8,778.4"/>
		<path class="st6" d="M187.1,708.5c6.4,7.4,9.6,11,9.6,11c-5.1,1.5-9.2,0-12.1-4.6C183.4,712.9,184.3,710.8,187.1,708.5"/>
		<path class="st7" d="M85.9,707.5c1.3,6.4,6.5,11.4,13.3,12.8c6.8,1.4,13.7-1.1,17.8-6.4c0,0-2.1-7.6,1-17.5c0,0-7.8-15-29-21.4
			C89.5,702.6,85.9,707.5,85.9,707.5"/>
		<path class="st3" d="M106.8,733.1h2.9v56.1h-2.9V733.1z M103.3,719c-5.9,9.6-8.8,14.4-8.8,14.4c-9-0.7-13.3-10.6-16.5-28.8
			c3.7-2.4,5.7-4.4,9.4-6.8C90.1,709.3,95.4,716.4,103.3,719z"/>
		<path class="st8" d="M137.6,676.2c-2.7-0.8-4.1-1.2-4.1-1.2c-2.2,24.1-4.7,37-7.6,39c0.8,1.4,2,2.4,3.3,2.7
			C132.4,712.7,135.2,699.2,137.6,676.2"/>
		<path class="st9" d="M134.6,667.4c-1.7,8.1-2.5,12.1-2.5,12.1c9.4-2.6,15-4.8,16.9-6.4C142.3,667.6,137.5,665.7,134.6,667.4"/>
		<path class="st6" d="M92.8,695.1c2.1,5.4,5.3,9.9,8.8,13.2c6.3,6.1,15,6.9,16.3,3.2c1.1-3.2,3.2-6.9,9.6-14.4
			c1.9-2.2,2.8-5.4,2.6-9.6c-0.2-3.9,0.4-6.2,4.2-8.8c2.6-1.8,3.5-5.6,2.7-11.4c-1.1,0.2-2.2,0.1-3.4-0.2c-0.7,0-1.3-0.1-2-0.3
			l-1-0.1l-1.2-0.1c-0.6,0-1.2,0-1.8-0.1l-1.6-0.2l-1.5-0.2c-0.7-0.1-1.4-0.3-2.1-0.4c-0.6-0.1-1.1-0.3-1.7-0.5l-0.2,0l-0.3,0
			c-0.7-0.1-1.3-0.2-2-0.4l-1-0.4l0.5,0c-0.6,0-1.2-0.1-1.8-0.3c-0.3,0-0.7-0.1-1.1-0.2c-0.6-0.1-1.2-0.2-1.8-0.4l-0.4-0.2l0.5,0
			c-0.8,0-1.5-0.2-2.2-0.5l-0.1,0h-0.2c-0.8,0-1.5-0.1-2.3-0.2l-1.2-0.1c-0.7,0-1.3-0.2-2-0.3c-0.8-0.2-1.5-0.4-2.3-0.7
			c-1.6-0.6-2.9-1.7-3.8-3.1c-4.6,5.3-7,12.3-6.4,19.5C89.8,685.5,90.2,687.2,92.8,695.1"/>
		<path class="st10" d="M110.7,641.5l0.1,0.1L110.7,641.5L110.7,641.5z M96.3,677.2c-0.2,3.9-4.6,8-5.2,4.7
			c-0.8-8.6-1-15.9-0.4-21.9c0.6-0.1,1.1-0.3,1.6-0.5c0.6-0.1,1.2-0.3,1.8-0.5c1.1,0,2.3-0.3,3.3-0.8l0.2,0c0.8-0.2,1.7-0.5,2.4-0.9
			c0.2-0.1,0.4-0.1,0.5-0.2c0.4-0.1,0.7-0.2,1.1-0.3c0.4,0,0.7-0.1,1.1-0.1l1-0.2l0,0c0.4,0,0.7,0.1,1.1,0l1.1,0
			c-0.9,1.6-1.1,3.7-0.4,5.5c0.9,2.3-1.2,4-5.9,5.3C96.9,668.1,96.5,670.8,96.3,677.2z"/>
		<path class="st6" d="M86.5,678.9c-0.4-3.1-1.6-5.7-3.7-7.9c-1.6-1.7-1.7-4.1-0.8-6.1c0.9-2,2.8-3.4,5-3.6s4.3,0.8,5.6,2.6
			c3.6,5.2,2.8,12.3-1.8,16.6c-0.7,0.6-1.7,0.8-2.5,0.4S86.6,679.8,86.5,678.9"/>
		<path class="st11" d="M83.1,670.5c3.9,0.5,5.9,0.8,5.9,0.8c-8.1,25.8-10.6,40.4-7.7,43.9c-1.7,1.1-3.7,1.5-5.6,1.1
			C73.3,710.7,75.7,695.4,83.1,670.5"/>
		<path class="st12" d="M110.9,669.6c10.3-0.7,23.1-0.3,38.5,1.1c-2.2-2.2-3.3-4.8-3.2-7.8c0.9-12.2-4.9-23.9-15.1-30.7
			c-10.2-6.8-23.2-7.6-34.1-2.1S81,641.6,78.4,658.6c-1.1,8.6-1.7,12.8-1.7,12.8c14.2-4,21.8-5.3,22.9-3.8
			C107.1,668.9,110.9,669.6,110.9,669.6"/>
		<path class="st13" d="M100.1,666.9c2.9,1.9,4.4,2.8,4.4,2.8s-7.7,1.6-23,4.7c-1.4,0.3-2.5-0.4-4.1-2.2
			C92.5,668.7,100.1,666.9,100.1,666.9"/>
		<path class="st14" d="M75.1,670.5c0,1.4,0.6,2.2,2,2.5c0,0,7.2-2.2,19.9-4.5c1.8-0.4,3-0.2,3.9,0.3c6.7,3.3,5.7,2.6,15.8,2.3
			c13.9-0.3,25,0.6,33.3,2.7c0.6-1,0.3-2.4-0.6-3.1c-9.6-1.9-20.4-2.8-32.4-2.8c-9.5-0.1-8.7,0.9-12.9-1.2c15.2-1.3,29.9-0.7,44.1,2
			c0.4,0,0.7-0.3,0.7-0.7c0-0.4-0.3-0.7-0.6-0.8c-15.9-3.1-31.6-3.7-47.1-2c-2.4-1-3.8-0.7-5.2-0.4C89.1,666.6,82,668.5,75.1,670.5"
			/>
		<polygon class="st15" points="86.1,654.5 87.7,658 91.4,657.3 88.5,659.8 90.4,663.1 87.1,661.2 84.5,664 85.3,660.3 81.9,658.6 
			85.7,658.3 		"/>
		<rect x="172.7" y="697" class="st16" width="22.5" height="11.8"/>
		<path class="st17" d="M134.2,691.8h3.1c0.4,0,0.8,0.4,0.8,0.8v1.9h13.5c0.6,0,1.2,0.5,1.2,1.2v4c0,0.6-0.5,1.2-1.2,1.2h-18.8
			c-0.6,0-1.2-0.5-1.2-1.2v-4c0-0.6,0.5-1.2,1.2-1.2h0.6v-1.9C133.4,692.1,133.8,691.8,134.2,691.8"/>
		<path class="st18" d="M131.1,705.6c8.6,0.5,12.9,0.8,12.9,0.8c-0.1,4.1-2.3,7.8-5.8,9.9c0,0-15.2,9.6-45.6,28.9
			c-3.9,2.4-5.3,1.9-6.4-0.7c0,0-2.2-5.2-6.5-15.6c-0.8-1.9-0.6-2.8,0.5-3.3C114.2,712.3,131.1,705.6,131.1,705.6"/>
		<path class="st19" d="M170.8,694.1h78.1h5.1v-6.8c0-0.7,0.5-1.4,1.3-1.4c0.7,0,1.3,0.6,1.3,1.4v6.8h3.2h10.5
			c1.6,0,2.9,1.3,2.9,2.9c0,1.6-1.3,2.9-2.9,2.9h-10.4c0,0-0.1,0-0.1,0h-75.7l-5.4,43.5c-0.1,0.8-0.9,1.5-1.7,1.5h-8.5
			c-0.8,0-1.4-0.7-1.3-1.5l2.3-18.2h-28.1v-7.4h-5c-4,0.1-5.1,0-5.1-2.7v-3.2h39.9l1.5-11.9h-1.8c-0.8,0-1.5-0.7-1.5-1.6v-2.6
			C169.3,694.8,170,694.1,170.8,694.1"/>
		<path class="st16" d="M127.9,697h42.2c1.6,0,3,1.3,3,3v10.4c0,1.6-1.3,3-3,3h-42.2c-1.6,0-3-1.3-3-3V700
			C124.9,698.4,126.3,697,127.9,697"/>
		<path class="st20" d="M110.9,739.6c-2.2,1.8-2.5,2.9-2.5,2.9c51.2,35.3,85.5,34.9,124.8-31.3c-4.3,0-8.2-0.5-8.2-0.5
			C188.3,772.1,158.9,770.1,110.9,739.6"/>
		<path class="st18" d="M188.2,699.5h57.9c0.8,0,1.5,0.7,1.5,1.5v10.6c0,0.8-0.7,1.5-1.5,1.5h-57.9c-0.8,0-1.5-0.7-1.5-1.5V701
			C186.7,700.2,187.3,699.5,188.2,699.5"/>
		<path class="st4" d="M43.7,762.2c23.4-9.8,35-14.8,35-14.8s-3.4-10-10.1-30.1c-1.8-6.4-10.4-9.5-17.6-8.1
			c-7.2,1.4-14.4,7.1-13.4,14.1C41.8,749.2,43.7,762.2,43.7,762.2"/>
		<path class="st3" d="M81.9,747.1c-18.6,14-17.7,27.5-14.8,33.1c-7.1,5.9-14.6-1.9-21.3-11.2c-4.8-6.7-2.8-10.6,1-14.6
			c6.7-6.6,15.1-11.1,24.4-12.9C76.8,740.5,78.9,739.8,81.9,747.1"/>
		<path class="st21" d="M190.9,716.4c1.1,5.1,8.5,4,19.5-2.3c3.7-2.1,4-6.2,1.9-13.5c-1.4-4.8-9.3-5.1-15.5-2
			c-5.4,2.5-7.8,7.5-7.5,10.9C190.4,714.1,190.9,716.4,190.9,716.4"/>
		<polygon class="st3" points="44.4,707.9 69.3,703.6 76.1,709 51.2,713.2 		"/>
		<path class="st22" d="M69.7,784.4h74.4c1.7,0,3.1,1.4,3.3,3l0.8,7.6c0.2,1.7-1.1,3-2.7,3H71.1c-1.7,0-3.1-1.4-3.3-3l-0.8-7.6
			C66.8,785.7,68,784.4,69.7,784.4"/>
		<path class="st6" d="M144.2,742c3.9,0.9,7-1.7,10.6-8.1c2.4-4.3-0.5-5.1-4.5-8.1c-1.8-1.2-1.4-1.8,0.8-1.2c0,0,3.6,0.9,10.8,2.7
			c1.2,0.3,2.1-1.4,2.5-2.6c0.4-1.2,0.6-3.1-0.6-3.6c-1.8-0.5-4-1.2-14.8-4c-4-0.9-8.1-0.1-10.7,0.7c0,0-8.5,2.4-19,7
			c0,0-20.4,9.5-61.1,28.6c-7.5,3.5-6.7,15.7-1.3,22.3c5.5,6.6,9.2,8.1,21,0.3c23-15.3,49.7-34.1,49.7-34.1c2.4-1.7,3.6-2.5,3.6-2.5
			C139.9,741.2,144.2,742,144.2,742"/>
		<path class="st23" d="M117.3,1026.4H176c0.8,0,1.5,0.7,1.5,1.5v3.8c0,0.8-0.7,1.5-1.5,1.5h-58.6c-0.8,0-1.5-0.7-1.5-1.5v-3.8
			C115.8,1027.1,116.5,1026.4,117.3,1026.4"/>
		<path class="st24" d="M64.5,1001.4l15-0.6c0.5,0,1,0.4,1,0.9l0,0c0,0.5-0.4,1-1,1l-15,0.6c-0.5,0-1-0.4-1-0.9l0,0
			C63.6,1001.8,64,1001.4,64.5,1001.4"/>
		<path class="st24" d="M65.1,1005.6l13.9-0.6c0.5,0,1,0.4,1,0.9l0,0c0,0.5-0.4,1-1,1l-13.9,0.6c-0.5,0-1-0.4-1-0.9l0,0
			C64.2,1006.1,64.6,1005.6,65.1,1005.6"/>
		<path class="st24" d="M65.7,1009.5l12.8-0.5c0.5,0,1,0.4,1,0.9l0,0c0,0.5-0.4,1-1,1l-12.8,0.5c-0.5,0-1-0.4-1-0.9l0,0
			C64.8,1010,65.2,1009.6,65.7,1009.5"/>
		<path class="st24" d="M66.5,1013.5l11.4-0.5c0.5,0,1,0.4,1,0.9l0,0c0,0.5-0.4,1-1,1l-11.4,0.5c-0.5,0-1-0.4-1-0.9l0,0
			C65.5,1014,65.9,1013.5,66.5,1013.5"/>
		<path class="st24" d="M67.2,1017.5l10.1-0.4c0.5,0,1,0.4,1,0.9l0,0c0,0.5-0.4,1-1,1l-10.1,0.4c-0.5,0-1-0.4-1-0.9l0,0
			C66.2,1018,66.7,1017.5,67.2,1017.5"/>
		<path class="st24" d="M67.6,1021.3l9.3-0.4c0.5,0,1,0.4,1,0.9l0,0c0,0.5-0.4,1-1,1l-9.3,0.4c-0.5,0-1-0.4-1-0.9l0,0
			C66.7,1021.8,67.1,1021.3,67.6,1021.3"/>
		<path class="st24" d="M68.3,1025l8.1-0.3c0.5,0,1,0.4,1,0.9l0,0c0,0.5-0.4,1-1,1l-8.1,0.3c-0.5,0-1-0.4-1-0.9l0,0
			C67.3,1025.5,67.7,1025.1,68.3,1025"/>
		<path class="st24" d="M69,1028.7l6.7-0.3c0.5,0,1,0.4,1,0.9l0,0c0,0.5-0.4,1-1,1l-6.7,0.3c-0.5,0-1-0.4-1-0.9l0,0
			C68,1029.2,68.5,1028.8,69,1028.7"/>
		<path class="st24" d="M69.4,1032.7l6-0.2c0.5,0,1,0.4,1,0.9l0,0c0,0.5-0.4,1-1,1l-6,0.2c-0.5,0-1-0.4-1-0.9l0,0
			C68.4,1033.2,68.9,1032.8,69.4,1032.7"/>
		<path class="st24" d="M132.1,986.4l6-0.5c0.5,0,1,0.4,1,0.9l0,0c0,0.5-0.4,1-1,1.1l-6,0.5c-0.5,0-1-0.4-1-0.9l0,0
			C131.1,986.9,131.5,986.4,132.1,986.4"/>
		<path class="st24" d="M132.2,989.9l6-0.5c0.5,0,1,0.4,1,0.9l0,0c0,0.5-0.4,1-1,1.1l-6,0.5c-0.5,0-1-0.4-1-0.9l0,0
			C131.3,990.5,131.7,990,132.2,989.9"/>
		<path class="st24" d="M131.9,993.4l6-0.5c0.5,0,1,0.4,1,0.9l0,0c0,0.5-0.4,1-1,1.1l-6,0.5c-0.5,0-1-0.4-1-0.9l0,0
			C130.9,993.9,131.3,993.4,131.9,993.4"/>
		<path class="st24" d="M132.1,997l6-0.5c0.5,0,1,0.4,1,0.9l0,0c0,0.5-0.4,1-1,1.1l-6,0.5c-0.5,0-1-0.4-1-0.9l0,0
			C131.1,997.5,131.5,997,132.1,997"/>
		<path class="st24" d="M132,1000.6l6-0.5c0.5,0,1,0.4,1,0.9l0,0c0,0.5-0.4,1-1,1.1l-6,0.5c-0.5,0-1-0.4-1-0.9l0,0
			C131,1001.1,131.4,1000.6,132,1000.6"/>
		<path class="st24" d="M132.1,1004.2l6-0.5c0.5,0,1,0.4,1,0.9l0,0c0,0.5-0.4,1-1,1.1l-6,0.5c-0.5,0-1-0.4-1-0.9l0,0
			C131.1,1004.7,131.6,1004.2,132.1,1004.2"/>
		<path class="st24" d="M134.6,1010.3l4.2-4.3c0.4-0.4,1-0.4,1.3,0l0,0c0.4,0.4,0.3,1.1,0,1.4l-4.2,4.3c-0.4,0.4-1,0.4-1.3,0l0,0
			C134.2,1011.4,134.2,1010.7,134.6,1010.3"/>
		<path class="st24" d="M138.2,1012l4.2-4.3c0.4-0.4,1-0.4,1.3,0l0,0c0.4,0.4,0.3,1.1,0,1.4l-4.2,4.3c-0.4,0.4-1,0.4-1.3,0l0,0
			C137.8,1013.1,137.8,1012.4,138.2,1012"/>
		<path class="st24" d="M141.3,1014l4.2-4.3c0.4-0.4,1-0.4,1.3,0l0,0c0.4,0.4,0.3,1.1,0,1.4l-4.2,4.3c-0.4,0.4-1,0.4-1.3,0l0,0
			C140.9,1015,140.9,1014.4,141.3,1014"/>
		<path class="st24" d="M144.9,1016.4l4.2-4.3c0.4-0.4,1-0.4,1.3,0l0,0c0.4,0.4,0.3,1.1,0,1.4l-4.2,4.3c-0.4,0.4-1,0.4-1.3,0l0,0
			C144.5,1017.4,144.5,1016.8,144.9,1016.4"/>
	</g>
</g>
<g>
	<path class="st0" d="M755.4,920c-1.3-3.9-2.9-7.8-4.8-11.5c-4.7,0.8-7.1,1.1-7.1,1.1c-4.3,1.6-6.9,5.9-6.3,10.4
		C737.3,920.1,743.3,920,755.4,920"/>
	<path class="st1" d="M795.5,920.1c4-30.8,5.7-47.7,5.7-47.7c-18.3,0.3-27.5,0.4-27.5,0.4c1.5,16.7,2.2,25,2.2,25
		c-10.2,6.1-15.3,9.1-15.3,9.1c-8.2,1.4-12.3,2.1-12.3,2.1c1,8.5,1.5,12.8,1.5,12.8S765.3,922.1,795.5,920.1"/>
	<path class="st2" d="M792.1,920.3c0,0,2-15,6.1-45c0,0-2.5-0.6-7.6-1.7c-4.5,31.5-6.8,47.2-6.8,47.2S786.6,920.6,792.1,920.3"/>
	<path class="st1" d="M852.2,942c0,0-0.9-9-2.7-27.1c0,0,0.9-10.8,2.8-32.3c-17.1,1.2-25.6,1.8-25.6,1.8c1.1,20.4,1.7,30.7,1.7,30.7
		c-2.3,16.2-3.4,24.3-3.4,24.3C827.8,941.8,836.9,942.7,852.2,942"/>
	<path class="st2" d="M841.8,928.3c0,0,1.4-14.6,4.1-43.9c-8.7-0.6-13.3-0.2-13.8,1.2c1.5,27.8,2.3,41.8,2.3,41.8
		C836.7,928.8,839.4,929.2,841.8,928.3"/>
	<path class="st25" d="M803.8,869.3c0.2,6.4-2.4,6.9-8.2,6.9c0,0-6.4-0.3-19.1-0.8c-4.1-0.2-5-2.5-6.1-14.1
		c-3.9-38-6.1-60.3-6.7-67.1c0,0-0.6-8,0.9-45.1c26.9-43.9,39.7-24.5,38.2,58.4C802.8,838.3,803.2,858.9,803.8,869.3"/>
	<path class="st25" d="M827.6,886.6c-4.5,0-5.3-1.9-6.7-6.4c-6-23.5-12-35.9-14.7-50.2l-14.7-95.5c25.4,3.7,44.5,10.5,55.6,20.4
		l-3.5,58.6c-0.7,11.5,1.6,17.4,11,62.2c2.1,9.3,0.4,11.4-7.3,11.2C838.4,886.5,831.8,886.5,827.6,886.6"/>
	<path class="st25" d="M777.5,729.6c9.8,9.5,22.7,15.1,36.3,15.6C808.8,707.7,796.7,702.5,777.5,729.6"/>
	<path class="st25" d="M775.6,616.8l-9.5,73c-3.6,22.3-6.7,44-9.5,65c0,0,2.1,0,6.4,0c6.9-3.9,18.3-16.7,34.4-38.4
		c-0.8,5.9,6,22.4,20.2,49.5c16.5-1.5,31.5-9.7,41.1-22.4c0,0-4.5-13.1-13.5-39.4c-1.4-7.7-12.1-12.4-31.9-14.2h28.7l6.8-55.7
		c3-4.6,6.3-9.9,10-15.8c-5.9-2.7-14.7-5.8-26.4-9.3l-7.4,17.9L775.6,616.8z"/>
	<polygon class="st3" points="797,615.2 772.4,617.5 775.5,611.1 800.1,608.7 	"/>
	<path class="st4" d="M734.1,640.4c0,0,7.6-6.7,26.7-17.3c34.8-15.6,25.3,1.4,16.7,23.9c-15.8,11.9-27.6,19.9-34,20.2
		C743.3,662.8,740.7,652.6,734.1,640.4"/>
	<path class="st3" d="M764.7,624.5c0,0-0.1,0.9-0.1,2.6c-9.5,5.2-14.2,7.8-14.2,7.8c-2.9-4-4.4-6-4.4-6c4.6-2.6,6.9-3.8,6.9-3.8
		S756.8,624.9,764.7,624.5"/>
	<path class="st3" d="M729.3,639.8c13.8-11.7,18.9-1,19.1,18.9c-0.1,5.2-1.6,8.3-3.6,9.4c-5.2,2.8-7.9,4.2-7.9,4.2
		c-3.9,1.9-6.8,2.2-8.8,0.9C728.1,673.2,728.2,662.3,729.3,639.8"/>
	<path class="st5" d="M717.9,679.4c-4.7,0.4-9.2-3.7-8.4-12.5l3.7-45.8l14.9-6.8c0.2,0.6,0.7,1,1.3,1h0.4l4.2,42.3
		C735.5,671,730.1,678.3,717.9,679.4"/>
	<path class="st6" d="M727.3,612c2.7,2.2,3.5,4.3,2.5,6.3c-2.8,4.4-6.7,5.9-11.7,4.4C718.1,622.7,721.2,619.1,727.3,612"/>
	<path class="st7" d="M824.9,611.1c0,0-3.5-4.8-3-31.4c-20.4,6.2-27.9,20.7-27.9,20.7c3,9.5,1,16.9,1,16.9
		c3.9,5.1,10.6,7.5,17.1,6.2C818.6,622.1,823.6,617.3,824.9,611.1"/>
	<path class="st3" d="M804.7,689.8h-2.8v-54.1h2.8V689.8z M823.5,601.6c3.6,2.4,5.4,4.2,9.1,6.6c-3.2,17.5-7.3,27.1-15.9,27.8
		c0,0-2.8-4.6-8.5-13.8C815.7,619.6,820.9,612.8,823.5,601.6z"/>
	<path class="st8" d="M775.1,580.9c2.3,22.2,5,35.2,8.1,39c1.3-0.3,2.5-1.2,3.2-2.6c-2.8-1.9-5.3-14.4-7.3-37.6
		C779,579.7,777.7,580.1,775.1,580.9"/>
	<path class="st9" d="M777.9,572.4c-2.7-1.7-7.3,0.1-13.9,5.5c1.8,1.6,7.3,3.6,16.3,6.2C780.3,584.1,779.5,580.2,777.9,572.4"/>
	<path class="st6" d="M818.2,599.1c2.5-7.7,2.9-9.2,0.4-16.7c0.6-7-1.8-13.7-6.2-18.8c-0.8,1.3-2.1,2.4-3.7,2.9
		c-0.7,0.3-1.4,0.6-2.2,0.7c-0.6,0.1-1.3,0.3-1.9,0.3l-1.2,0.1c-0.7,0.1-1.5,0.2-2.2,0.2h-0.2l-0.1,0c-0.7,0.3-1.4,0.4-2.2,0.4
		l0.5,0l-0.4,0.2c-0.6,0.2-1.1,0.3-1.7,0.4c-0.3,0.1-0.7,0.2-1,0.2c-0.6,0.2-1.2,0.3-1.8,0.3l0.5,0l-0.9,0.3
		c-0.6,0.2-1.3,0.4-1.9,0.4l-0.3,0l-0.2,0c-0.5,0.2-1.1,0.4-1.6,0.5c-0.7,0.1-1.4,0.3-2,0.4l-1.4,0.1l-1.6,0.2
		c-0.6,0.1-1.2,0.1-1.8,0.1l-1.2,0.1l-1,0.1c-0.6,0.2-1.3,0.3-1.9,0.3c-1.1,0.3-2.2,0.4-3.2,0.2c-0.7,5.6,0.1,9.3,2.6,11
		c3.6,2.5,4.3,4.7,4,8.5c-0.2,4.1,0.7,7.2,2.5,9.3c6.2,7.2,8.2,10.7,9.3,13.8c1.2,3.6,9.7,2.8,15.7-3.1
		C813.1,608.7,816.2,604.3,818.2,599.1"/>
	<path class="st10" d="M801.1,547.4l-0.2,0L801.1,547.4L801.1,547.4z M811.5,572.2c-4.5-1.2-6.6-2.9-5.7-5.1
		c0.7-1.8,0.5-3.8-0.4-5.3l1,0c0.3,0,0.7,0,1,0l0,0l1,0.2c0.3,0.1,0.7,0.1,1,0.1c0.4,0.1,0.7,0.2,1.1,0.3c0.2,0.1,0.3,0.1,0.5,0.2
		c0.7,0.4,1.5,0.7,2.3,0.9l0.2,0c1,0.5,2.1,0.8,3.2,0.8c0.6,0.2,1.1,0.4,1.7,0.5c0.5,0.2,1,0.4,1.6,0.5c0.6,5.8,0.4,12.8-0.4,21.1
		c-0.6,3.2-4.8-0.8-5-4.5C814.6,575.7,814.3,573.1,811.5,572.2z"/>
	<path class="st6" d="M824.3,583.5c-0.1,0.9-0.7,1.6-1.5,2c-0.8,0.3-1.8,0.2-2.5-0.4c-4.5-4.1-5.3-11-1.8-16
		c1.2-1.8,3.2-2.8,5.4-2.6s4,1.6,4.8,3.5c0.8,2,0.7,4.3-0.8,5.9C825.9,578,824.7,580.5,824.3,583.5"/>
	<path class="st11" d="M827.5,575.4c7.1,24,9.5,38.7,7.1,44.1c-1.8,0.3-3.8,0-5.4-1.1c2.8-3.3,0.4-17.4-7.4-42.3
		C821.8,576.2,823.7,575.9,827.5,575.4"/>
	<path class="st25" d="M800.8,574.5c0,0,3.6-0.6,10.9-1.9c1.1-1.4,8.4-0.2,22.1,3.7c0,0-0.5-4.1-1.6-12.4
		c-2.6-16.5-7.5-22.3-18.1-27.6c-10.5-5.3-23.1-4.5-32.9,2.1c-9.8,6.5-15.3,17.8-14.5,29.6c0.1,2.9-0.9,5.4-3,7.6
		C778.5,574.2,790.8,573.9,800.8,574.5"/>
	<path class="st13" d="M811.2,571.9c0,0,7.3,1.7,21.9,5.2c-1.6,1.7-2.6,2.3-4,2.1c-14.8-3.1-22.1-4.6-22.1-4.6
		S808.4,573.7,811.2,571.9"/>
	<path class="st14" d="M835.3,575.4c-6.7-2-13.5-3.8-20.3-5.3c-1.3-0.3-2.6-0.5-5,0.4c-14.9-1.7-30.1-1.1-45.4,1.9
		c-0.4,0-0.6,0.4-0.6,0.7c0,0.4,0.3,0.7,0.7,0.7c13.7-2.6,27.8-3.3,42.5-2c-4,2-3.2,1.1-12.4,1.1c-11.5-0.1-21.9,0.8-31.2,2.7
		c-0.9,0.7-1.2,1.9-0.6,2.9c8-2,18.8-2.8,32.1-2.6c9.8,0.3,8.8,1,15.3-2.2c0.9-0.5,2.1-0.7,3.8-0.3c12.2,2.2,19.2,4.3,19.2,4.3
		C834.7,577.5,835.3,576.7,835.3,575.4"/>
	<polygon class="st15" points="825.1,563.6 828.8,564 825.4,565.5 826.2,569.1 823.7,566.4 820.6,568.3 822.3,565.1 819.6,562.7 
		823.2,563.3 824.6,560 	"/>
	<rect x="719.5" y="600.9" class="st16" width="21.6" height="11.4"/>
	<path class="st17" d="M778.3,595.9c0.4,0,0.8,0.3,0.8,0.8v1.9h0.6c0.6,0,1.1,0.5,1.1,1.1v3.9c0,0.6-0.5,1.1-1.1,1.1h-18.2
		c-0.6,0-1.1-0.5-1.1-1.1v-3.9c0-0.6,0.5-1.1,1.1-1.1h13.1v-1.9c0-0.4,0.3-0.8,0.8-0.8H778.3"/>
	<path class="st18" d="M781.3,609.3c0,0,16.3,6.4,49,19.2c1.1,0.5,1.2,1.4,0.5,3.2c-4.2,10.1-6.2,15.1-6.2,15.1
		c-1.1,2.5-2.4,2.9-6.1,0.6c-29.3-18.6-44-27.9-44-27.9c-3.3-2-5.5-5.6-5.6-9.5C768.8,610,772.9,609.8,781.3,609.3"/>
	<path class="st19" d="M743,598.1c0.8,0,1.4,0.7,1.4,1.6v2.5c0,0.9-0.6,1.6-1.4,1.6h-1.7l1.4,11.5h38.5v3.1c0,2.6-1,2.7-4.9,2.6
		h-4.9v7.2h-27.1l2.2,17.6c0.1,0.8-0.5,1.5-1.3,1.5H737c-0.8,0-1.6-0.7-1.6-1.5l-5.2-42h-73c0,0-0.1,0-0.1,0h-10
		c-1.6,0-2.8-1.3-2.8-2.8c0-1.6,1.3-2.8,2.8-2.8h10.1h3.1v-6.6c0-0.8,0.6-1.4,1.3-1.4c0.7,0,1.3,0.7,1.3,1.4v6.6h4.9H743"/>
	<path class="st16" d="M784.4,601c1.6,0,2.9,1.3,2.9,2.9v10c0,1.6-1.3,2.9-2.9,2.9h-40.7c-1.6,0-2.9-1.3-2.9-2.9v-10
		c0-1.6,1.3-2.9,2.9-2.9H784.4"/>
	<path class="st20" d="M800.8,642c-46.3,29.5-74.6,31.4-109.9-27.9c0,0-3.8,0.5-7.9,0.5c37.9,63.9,70.9,64.2,120.3,30.2
		C803.2,644.8,802.9,643.7,800.8,642"/>
	<path class="st18" d="M726.3,603.4c0.8,0,1.4,0.6,1.4,1.4V615c0,0.8-0.6,1.4-1.4,1.4h-55.8c-0.8,0-1.4-0.6-1.4-1.4v-10.2
		c0-0.8,0.6-1.4,1.4-1.4H726.3"/>
	<path class="st4" d="M865.5,663.8c0,0,1.9-12.5,5.8-37.6c1-6.7-6-12.2-12.9-13.6c-6.9-1.3-15.2,1.6-16.9,7.8
		c-6.5,19.4-9.7,29.1-9.7,29.1S843,654.3,865.5,663.8"/>
	<path class="st3" d="M828.8,649.3c2.8-7,4.9-6.3,10.3-5.3c8.9,1.7,17.1,6,23.5,12.4c3.7,3.8,5.6,7.6,1,14.1
		c-6.4,8.9-13.7,16.5-20.5,10.8C845.8,675.8,846.7,662.8,828.8,649.3"/>
	<path class="st21" d="M723.6,619.6c0,0,0.5-2.2,1.5-6.7c0.3-3.3-2-8.1-7.2-10.5c-5.9-3-13.6-2.6-14.9,2c-2,7.1-1.8,11,1.8,13.1
		C715.4,623.5,722.6,624.5,723.6,619.6"/>
	<polygon class="st3" points="858.3,616.6 834.3,612.5 840.9,607.3 864.9,611.4 	"/>
	<path class="st22" d="M840.5,685.2c1.6,0,2.8,1.3,2.6,2.9l-0.7,7.4c-0.2,1.6-1.6,2.9-3.2,2.9h-71.8c-1.6,0-2.8-1.3-2.6-2.9l0.7-7.4
		c0.2-1.6,1.6-2.9,3.2-2.9H840.5"/>
	<path class="st6" d="M768.6,644.4c0,0,4.2-0.8,12.5-2.4c0,0,1.1,0.8,3.4,2.4c0,0,25.8,18.2,48,32.9c11.4,7.5,14.9,6.1,20.2-0.3
		s6.1-18.2-1.2-21.5c-39.3-18.4-58.9-27.6-58.9-27.6c-10.1-4.5-18.3-6.8-18.3-6.8c-2.5-0.8-6.4-1.5-10.3-0.7
		c-10.4,2.7-12.6,3.3-14.3,3.9c-1.2,0.4-1,2.3-0.6,3.4s1.2,2.8,2.4,2.5c7-1.8,10.4-2.6,10.4-2.6c2.1-0.5,2.4,0,0.7,1.2
		c-3.8,2.8-6.6,3.7-4.3,7.8C761.9,642.7,764.9,645.2,768.6,644.4"/>
	<path class="st23" d="M794.6,918.6c0.8,0,1.5,0.7,1.5,1.5v3.7c0,0.8-0.7,1.5-1.5,1.5H738c-0.8,0-1.5-0.7-1.5-1.5v-3.7
		c0-0.8,0.7-1.5,1.5-1.5H794.6"/>
	<path class="st24" d="M845.5,894.4c0.5,0,0.9,0.5,0.9,1l0,0c0,0.5-0.4,0.9-1,0.9l-14.5-0.6c-0.5,0-0.9-0.5-0.9-1l0,0
		c0-0.5,0.4-0.9,1-0.9L845.5,894.4"/>
	<path class="st24" d="M844.9,898.5c0.5,0,0.9,0.5,0.9,1l0,0c0,0.5-0.4,0.9-1,0.9l-13.4-0.6c-0.5,0-0.9-0.5-0.9-1l0,0
		c0-0.5,0.4-0.9,1-0.9L844.9,898.5"/>
	<path class="st24" d="M844.3,902.3c0.5,0,0.9,0.5,0.9,1l0,0c0,0.5-0.4,0.9-1,0.9l-12.3-0.5c-0.5,0-0.9-0.5-0.9-1l0,0
		c0-0.5,0.4-0.9,1-0.9L844.3,902.3"/>
	<path class="st24" d="M843.6,906.1c0.5,0,0.9,0.5,0.9,1l0,0c0,0.5-0.4,0.9-1,0.9l-11-0.5c-0.5,0-0.9-0.5-0.9-1l0,0
		c0-0.5,0.4-0.9,1-0.9L843.6,906.1"/>
	<path class="st24" d="M842.9,910c0.5,0,0.9,0.5,0.9,1l0,0c0,0.5-0.4,0.9-1,0.9l-9.7-0.4c-0.5,0-0.9-0.5-0.9-1l0,0
		c0-0.5,0.4-0.9,1-0.9L842.9,910"/>
	<path class="st24" d="M842.5,913.7c0.5,0,0.9,0.5,0.9,1l0,0c0,0.5-0.4,0.9-1,0.9l-9-0.4c-0.5,0-0.9-0.5-0.9-1l0,0
		c0-0.5,0.4-0.9,1-0.9L842.5,913.7"/>
	<path class="st24" d="M841.9,917.3c0.5,0,0.9,0.5,0.9,1l0,0c0,0.5-0.4,0.9-1,0.9l-7.8-0.3c-0.5,0-0.9-0.5-0.9-1l0,0
		c0-0.5,0.4-0.9,1-0.9L841.9,917.3"/>
	<path class="st24" d="M841.1,920.8c0.5,0,0.9,0.5,0.9,1l0,0c0,0.5-0.4,0.9-1,0.9l-6.5-0.3c-0.5,0-0.9-0.5-0.9-1l0,0
		c0-0.5,0.4-0.9,1-0.9L841.1,920.8"/>
	<path class="st24" d="M840.8,924.7c0.5,0,0.9,0.5,0.9,1l0,0c0,0.5-0.4,0.9-1,0.9l-5.8-0.2c-0.5,0-0.9-0.5-0.9-1l0,0
		c0-0.5,0.4-0.9,1-0.9L840.8,924.7"/>
	<path class="st24" d="M780.4,880c0.5,0,0.9,0.5,0.9,1l0,0c0,0.5-0.4,0.9-0.9,0.9l-5.8-0.5c-0.5,0-0.9-0.5-0.9-1l0,0
		c0-0.5,0.4-0.9,0.9-0.9L780.4,880"/>
	<path class="st24" d="M780.2,883.4c0.5,0,0.9,0.5,0.9,1l0,0c0,0.5-0.4,0.9-0.9,0.9l-5.8-0.5c-0.5,0-0.9-0.5-0.9-1l0,0
		c0-0.5,0.4-0.9,0.9-0.9L780.2,883.4"/>
	<path class="st24" d="M780.5,886.7c0.5,0,0.9,0.5,0.9,1l0,0c0,0.5-0.4,0.9-0.9,0.9l-5.8-0.5c-0.5,0-0.9-0.5-0.9-1l0,0
		c0-0.5,0.4-0.9,0.9-0.9L780.5,886.7"/>
	<path class="st24" d="M780.4,890.2c0.5,0,0.9,0.5,0.9,1l0,0c0,0.5-0.4,0.9-0.9,0.9l-5.8-0.5c-0.5,0-0.9-0.5-0.9-1l0,0
		c0-0.5,0.4-0.9,0.9-0.9L780.4,890.2"/>
	<path class="st24" d="M780.5,893.7c0.5,0,0.9,0.5,0.9,1l0,0c0,0.5-0.4,0.9-0.9,0.9l-5.8-0.5c-0.5,0-0.9-0.5-0.9-1l0,0
		c0-0.5,0.4-0.9,0.9-0.9L780.5,893.7"/>
	<path class="st24" d="M780.3,897.1c0.5,0,0.9,0.5,0.9,1l0,0c0,0.5-0.4,0.9-0.9,0.9l-5.8-0.5c-0.5,0-0.9-0.5-0.9-1l0,0
		c0-0.5,0.4-0.9,0.9-0.9L780.3,897.1"/>
	<path class="st24" d="M777.9,903.1c0.4,0.4,0.4,1,0,1.4l0,0c-0.3,0.4-0.9,0.4-1.3,0l-4.1-4.1c-0.4-0.4-0.4-1,0-1.4l0,0
		c0.3-0.4,0.9-0.4,1.3,0L777.9,903.1"/>
	<path class="st24" d="M774.5,904.7c0.4,0.4,0.4,1,0,1.4l0,0c-0.3,0.4-0.9,0.4-1.3,0l-4.1-4.1c-0.4-0.4-0.4-1,0-1.4l0,0
		c0.3-0.4,0.9-0.4,1.3,0L774.5,904.7"/>
	<path class="st24" d="M771.4,906.6c0.4,0.4,0.4,1,0,1.4l0,0c-0.3,0.4-0.9,0.4-1.3,0l-4.1-4.1c-0.4-0.4-0.4-1,0-1.4l0,0
		c0.3-0.4,0.9-0.4,1.3,0L771.4,906.6"/>
	<path class="st24" d="M768,908.9c0.4,0.4,0.4,1,0,1.4l0,0c-0.3,0.4-0.9,0.4-1.3,0l-4.1-4.1c-0.4-0.4-0.4-1,0-1.4l0,0
		c0.3-0.4,0.9-0.4,1.3,0L768,908.9"/>
	<path class="st0" d="M896.5,962.2c-1.3-3.9-2.9-7.8-4.8-11.5c-4.7,0.8-7.1,1.1-7.1,1.1c-4.3,1.6-6.9,5.9-6.3,10.4
		C878.3,962.3,884.4,962.2,896.5,962.2"/>
	<path class="st1" d="M936.6,962.3c4-30.8,5.7-47.7,5.7-47.7c-18.3,0.3-27.5,0.4-27.5,0.4c1.5,16.7,2.2,25,2.2,25
		c-10.2,6.1-15.3,9.1-15.3,9.1c-8.2,1.4-12.3,2.1-12.3,2.1c1,8.5,1.5,12.8,1.5,12.8S906.4,964.3,936.6,962.3"/>
	<path class="st2" d="M933.2,962.5c0,0,2-15,6.1-45c0,0-2.5-0.6-7.6-1.7c-4.5,31.5-6.8,47.2-6.8,47.2S927.7,962.8,933.2,962.5"/>
	<path class="st1" d="M993.3,984.2c0,0-0.9-9-2.7-27.1c0,0,0.9-10.8,2.8-32.3c-17.1,1.2-25.6,1.8-25.6,1.8
		c1.1,20.4,1.7,30.7,1.7,30.7c-2.3,16.2-3.4,24.3-3.4,24.3C968.9,984,978,984.9,993.3,984.2"/>
	<path class="st2" d="M982.8,970.5c0,0,1.4-14.6,4.1-43.9c-8.7-0.6-13.3-0.2-13.8,1.2c1.5,27.8,2.3,41.8,2.3,41.8
		C977.7,971,980.5,971.4,982.8,970.5"/>
	<path class="st25" d="M944.9,911.5c0.2,6.4-2.4,6.9-8.2,6.9c0,0-6.4-0.3-19.1-0.8c-4.1-0.2-5-2.5-6.1-14.1
		c-3.9-38-6.1-60.3-6.7-67.1c0,0-0.6-8,0.9-45.1c26.9-43.9,39.7-24.5,38.2,58.4C943.9,880.5,944.3,901.1,944.9,911.5"/>
	<path class="st25" d="M968.7,928.8c-4.5,0-5.3-1.9-6.7-6.4c-6-23.5-12-35.9-14.7-50.2l-14.7-95.5c25.4,3.7,44.5,10.5,55.6,20.4
		l-3.5,58.6c-0.7,11.5,1.6,17.4,11,62.2c2.1,9.3,0.4,11.4-7.3,11.2C979.5,928.7,972.9,928.7,968.7,928.8"/>
	<path class="st25" d="M918.6,771.8c9.8,9.5,22.7,15.1,36.3,15.6C949.9,749.9,937.8,744.7,918.6,771.8"/>
	<path class="st25" d="M916.6,659l-9.5,73c-3.6,22.3-6.7,44-9.5,65c0,0,2.1,0,6.4,0c6.9-3.9,18.3-16.7,34.4-38.4
		c-0.8,5.9,6,22.4,20.2,49.5c16.5-1.5,31.5-9.7,41.1-22.4c0,0-4.5-13.1-13.5-39.4c-1.4-7.7-12.1-12.4-31.9-14.2h28.7l6.8-55.7
		c3-4.6,6.3-9.9,10-15.8c-5.9-2.7-14.7-5.8-26.4-9.3l-7.4,17.9L916.6,659z"/>
	<polygon class="st3" points="938,657.4 913.5,659.8 916.6,653.3 941.2,650.9 	"/>
	<path class="st4" d="M875.2,682.6c0,0,7.6-6.7,26.7-17.3c34.8-15.6,25.3,1.4,16.7,23.9c-15.8,11.9-27.6,19.9-34,20.2
		C884.3,705,881.7,694.8,875.2,682.6"/>
	<path class="st3" d="M905.8,666.7c0,0-0.1,0.9-0.1,2.6c-9.5,5.2-14.2,7.8-14.2,7.8c-2.9-4-4.4-6-4.4-6c4.6-2.6,6.9-3.8,6.9-3.8
		S897.9,667.1,905.8,666.7"/>
	<path class="st3" d="M870.3,682.1c13.8-11.7,18.9-1,19.1,18.9c-0.1,5.2-1.6,8.3-3.6,9.4c-5.2,2.8-7.9,4.2-7.9,4.2
		c-3.9,1.9-6.8,2.2-8.8,0.9C869.2,715.4,869.3,704.5,870.3,682.1"/>
	<path class="st5" d="M859,721.6c-4.7,0.4-9.2-3.7-8.4-12.5l3.7-45.8l14.9-6.8c0.2,0.6,0.7,1,1.3,1h0.4l4.2,42.3
		C876.6,713.2,871.2,720.5,859,721.6"/>
	<path class="st6" d="M868.4,654.3c2.7,2.2,3.5,4.3,2.5,6.3c-2.8,4.4-6.7,5.9-11.7,4.4C859.2,664.9,862.2,661.4,868.4,654.3"/>
	<path class="st7" d="M966,653.3c0,0-3.5-4.8-3-31.4c-20.4,6.2-27.9,20.7-27.9,20.7c3,9.5,1,16.9,1,16.9c3.9,5.1,10.6,7.5,17.1,6.2
		C959.7,664.3,964.7,659.5,966,653.3"/>
	<path class="st3" d="M945.8,732H943v-54.1h2.8V732z M964.6,643.8c3.6,2.4,5.4,4.2,9.1,6.6c-3.2,17.5-7.3,27.1-15.9,27.8
		c0,0-2.8-4.6-8.5-13.8C956.8,661.8,961.9,655,964.6,643.8z"/>
	<path class="st8" d="M916.1,623.1c2.3,22.2,5,35.2,8.1,39c1.3-0.3,2.5-1.2,3.2-2.6c-2.8-1.9-5.3-14.4-7.3-37.6
		C920.1,622,918.8,622.3,916.1,623.1"/>
	<path class="st9" d="M918.9,614.6c-2.7-1.7-7.3,0.1-13.9,5.5c1.8,1.6,7.3,3.6,16.3,6.2C921.4,626.3,920.6,622.4,918.9,614.6"/>
	<path class="st6" d="M959.3,641.3c2.5-7.7,2.9-9.2,0.4-16.7c0.6-7-1.8-13.7-6.2-18.8c-0.8,1.3-2.1,2.4-3.7,2.9
		c-0.7,0.3-1.4,0.6-2.2,0.7c-0.6,0.1-1.3,0.3-1.9,0.3l-1.2,0.1c-0.7,0.1-1.5,0.2-2.2,0.2H942l-0.1,0c-0.7,0.3-1.4,0.4-2.2,0.4l0.5,0
		l-0.4,0.2c-0.6,0.2-1.1,0.3-1.7,0.4c-0.3,0.1-0.7,0.2-1,0.2c-0.6,0.2-1.2,0.3-1.8,0.3l0.5,0l-0.9,0.3c-0.6,0.2-1.3,0.4-1.9,0.4
		l-0.3,0l-0.2,0c-0.5,0.2-1.1,0.4-1.6,0.5c-0.7,0.1-1.4,0.3-2,0.4l-1.4,0.1l-1.6,0.2c-0.6,0.1-1.2,0.1-1.8,0.1l-1.2,0.1l-1,0.1
		c-0.6,0.2-1.3,0.3-1.9,0.3c-1.1,0.3-2.2,0.4-3.2,0.2c-0.7,5.6,0.1,9.3,2.6,11c3.6,2.5,4.3,4.7,4,8.5c-0.2,4.1,0.7,7.2,2.5,9.3
		c6.2,7.2,8.2,10.7,9.3,13.8c1.2,3.6,9.7,2.8,15.7-3.1C954.1,650.9,957.3,646.5,959.3,641.3"/>
	<path class="st10" d="M942.1,589.6l-0.2,0L942.1,589.6L942.1,589.6z M952.6,614.4c-4.5-1.2-6.6-2.9-5.7-5.1
		c0.7-1.8,0.5-3.8-0.4-5.3l1,0c0.3,0,0.7,0,1,0l0,0l1,0.2c0.3,0.1,0.7,0.1,1,0.1c0.4,0.1,0.7,0.2,1.1,0.3c0.2,0.1,0.3,0.1,0.5,0.2
		c0.7,0.4,1.5,0.7,2.3,0.9l0.2,0c1,0.5,2.1,0.8,3.2,0.8c0.6,0.2,1.1,0.4,1.7,0.5c0.5,0.2,1,0.4,1.6,0.5c0.6,5.8,0.4,12.8-0.4,21.1
		c-0.6,3.2-4.8-0.8-5-4.5C955.7,617.9,955.4,615.3,952.6,614.4z"/>
	<path class="st6" d="M965.4,625.7c-0.1,0.9-0.7,1.6-1.5,2c-0.8,0.3-1.8,0.2-2.5-0.4c-4.5-4.1-5.3-11-1.8-16
		c1.2-1.8,3.2-2.8,5.4-2.6c2.1,0.2,4,1.6,4.8,3.5c0.8,2,0.7,4.3-0.8,5.9C966.9,620.2,965.7,622.7,965.4,625.7"/>
	<path class="st11" d="M968.6,617.6c7.1,24,9.5,38.7,7.1,44.1c-1.8,0.3-3.8,0-5.4-1.1c2.8-3.3,0.4-17.4-7.4-42.3
		C962.9,618.4,964.8,618.1,968.6,617.6"/>
	<path class="st25" d="M941.8,616.7c0,0,3.6-0.6,10.9-1.9c1.1-1.4,8.4-0.2,22.1,3.7c0,0-0.5-4.1-1.6-12.4
		c-2.6-16.5-7.5-22.3-18.1-27.6c-10.5-5.3-23.1-4.5-32.9,2.1c-9.8,6.5-15.3,17.8-14.5,29.6c0.1,2.9-0.9,5.4-3,7.6
		C919.5,616.4,931.9,616.1,941.8,616.7"/>
	<path class="st13" d="M952.3,614.1c0,0,7.3,1.7,21.9,5.2c-1.6,1.7-2.6,2.3-4,2.1c-14.8-3.1-22.1-4.6-22.1-4.6
		S949.4,615.9,952.3,614.1"/>
	<path class="st14" d="M976.4,617.6c-6.7-2-13.5-3.8-20.3-5.3c-1.3-0.3-2.6-0.5-5,0.4c-14.9-1.7-30.1-1.1-45.4,1.9
		c-0.4,0-0.6,0.4-0.6,0.7c0,0.4,0.3,0.7,0.7,0.7c13.7-2.6,27.8-3.3,42.5-2c-4,2-3.2,1.1-12.4,1.1c-11.5-0.1-21.9,0.8-31.2,2.7
		c-0.9,0.7-1.2,1.9-0.6,2.9c8-2,18.8-2.8,32.1-2.6c9.8,0.3,8.8,1,15.3-2.2c0.9-0.5,2.1-0.7,3.8-0.3c12.2,2.2,19.2,4.3,19.2,4.3
		C975.8,619.7,976.3,619,976.4,617.6"/>
	<polygon class="st15" points="966.2,605.8 969.8,606.2 966.5,607.7 967.3,611.3 964.8,608.6 961.6,610.5 963.4,607.3 960.6,604.9 
		964.3,605.5 965.7,602.2 	"/>
	<rect x="860.6" y="643.2" class="st16" width="21.6" height="11.4"/>
	<path class="st17" d="M919.4,638.1c0.4,0,0.8,0.3,0.8,0.8v1.9h0.6c0.6,0,1.1,0.5,1.1,1.1v3.9c0,0.6-0.5,1.1-1.1,1.1h-18.2
		c-0.6,0-1.1-0.5-1.1-1.1v-3.9c0-0.6,0.5-1.1,1.1-1.1h13.1v-1.9c0-0.4,0.3-0.8,0.8-0.8H919.4"/>
	<path class="st18" d="M922.3,651.5c0,0,16.3,6.4,49,19.2c1.1,0.5,1.2,1.4,0.5,3.2c-4.2,10.1-6.2,15.1-6.2,15.1
		c-1.1,2.5-2.4,2.9-6.1,0.6c-29.3-18.6-44-27.9-44-27.9c-3.3-2-5.5-5.6-5.6-9.5C909.9,652.2,914,652,922.3,651.5"/>
	<path class="st19" d="M884.1,640.3c0.8,0,1.4,0.7,1.4,1.6v2.5c0,0.9-0.6,1.6-1.4,1.6h-1.7l1.4,11.5h38.5v3.1c0,2.6-1,2.7-4.9,2.6
		h-4.9v7.2h-27.1l2.2,17.6c0.1,0.8-0.5,1.5-1.3,1.5h-8.2c-0.8,0-1.6-0.7-1.6-1.5l-5.2-42h-73c0,0-0.1,0-0.1,0h-10
		c-1.6,0-2.8-1.3-2.8-2.8c0-1.6,1.3-2.8,2.8-2.8h10.1h3.1v-6.6c0-0.8,0.6-1.4,1.3-1.4c0.7,0,1.3,0.7,1.3,1.4v6.6h4.9H884.1"/>
	<path class="st16" d="M925.4,643.2c1.6,0,2.9,1.3,2.9,2.9v10c0,1.6-1.3,2.9-2.9,2.9h-40.7c-1.6,0-2.9-1.3-2.9-2.9v-10
		c0-1.6,1.3-2.9,2.9-2.9H925.4"/>
	<path class="st20" d="M941.9,684.2c-46.3,29.5-74.6,31.4-109.9-27.9c0,0-3.8,0.5-7.9,0.5c37.9,63.9,70.9,64.2,120.3,30.2
		C944.3,687,943.9,685.9,941.9,684.2"/>
	<path class="st18" d="M867.3,645.6c0.8,0,1.4,0.6,1.4,1.4v10.2c0,0.8-0.6,1.4-1.4,1.4h-55.8c-0.8,0-1.4-0.6-1.4-1.4V647
		c0-0.8,0.6-1.4,1.4-1.4H867.3"/>
	<path class="st4" d="M1006.6,706c0,0,1.9-12.5,5.8-37.6c1-6.7-6-12.2-12.9-13.6c-6.9-1.3-15.2,1.6-16.9,7.8
		c-6.5,19.4-9.7,29.1-9.7,29.1S984.1,696.5,1006.6,706"/>
	<path class="st3" d="M969.8,691.5c2.8-7,4.9-6.3,10.3-5.3c8.9,1.7,17.1,6,23.5,12.4c3.7,3.8,5.6,7.6,1,14.1
		c-6.4,8.9-13.7,16.5-20.5,10.8C986.9,718,987.8,705,969.8,691.5"/>
	<path class="st21" d="M864.7,661.8c0,0,0.5-2.2,1.5-6.7c0.3-3.3-2-8.1-7.2-10.5c-5.9-3-13.6-2.6-14.9,2c-2,7.1-1.8,11,1.8,13.1
		C856.5,665.7,863.6,666.7,864.7,661.8"/>
	<polygon class="st3" points="999.4,658.8 975.4,654.7 982,649.5 1006,653.6 	"/>
	<path class="st22" d="M981.6,727.4c1.6,0,2.8,1.3,2.6,2.9l-0.7,7.4c-0.2,1.6-1.6,2.9-3.2,2.9h-71.8c-1.6,0-2.8-1.3-2.6-2.9l0.7-7.4
		c0.2-1.6,1.6-2.9,3.2-2.9H981.6"/>
	<path class="st6" d="M909.7,686.6c0,0,4.2-0.8,12.5-2.4c0,0,1.1,0.8,3.4,2.4c0,0,25.8,18.2,48,32.9c11.4,7.5,14.9,6.1,20.2-0.3
		c5.3-6.4,6.1-18.2-1.2-21.5c-39.3-18.4-58.9-27.6-58.9-27.6c-10.1-4.5-18.3-6.8-18.3-6.8c-2.5-0.8-6.4-1.5-10.3-0.7
		c-10.4,2.7-12.6,3.3-14.3,3.9c-1.2,0.4-1,2.3-0.6,3.4c0.4,1.2,1.2,2.8,2.4,2.5c7-1.8,10.4-2.6,10.4-2.6c2.1-0.5,2.4,0,0.7,1.2
		c-3.8,2.8-6.6,3.7-4.3,7.8C903,685,906,687.4,909.7,686.6"/>
	<path class="st23" d="M935.6,960.8c0.8,0,1.5,0.7,1.5,1.5v3.7c0,0.8-0.7,1.5-1.5,1.5h-56.5c-0.8,0-1.5-0.7-1.5-1.5v-3.7
		c0-0.8,0.7-1.5,1.5-1.5H935.6"/>
	<path class="st24" d="M986.5,936.7c0.5,0,0.9,0.5,0.9,1l0,0c0,0.5-0.4,0.9-1,0.9L972,938c-0.5,0-0.9-0.5-0.9-1l0,0
		c0-0.5,0.4-0.9,1-0.9L986.5,936.7"/>
	<path class="st24" d="M986,940.7c0.5,0,0.9,0.5,0.9,1l0,0c0,0.5-0.4,0.9-1,0.9l-13.4-0.6c-0.5,0-0.9-0.5-0.9-1l0,0
		c0-0.5,0.4-0.9,1-0.9L986,940.7"/>
	<path class="st24" d="M985.4,944.5c0.5,0,0.9,0.5,0.9,1l0,0c0,0.5-0.4,0.9-1,0.9l-12.3-0.5c-0.5,0-0.9-0.5-0.9-1l0,0
		c0-0.5,0.4-0.9,1-0.9L985.4,944.5"/>
	<path class="st24" d="M984.7,948.4c0.5,0,0.9,0.5,0.9,1l0,0c0,0.5-0.4,0.9-1,0.9l-11-0.5c-0.5,0-0.9-0.5-0.9-1l0,0
		c0-0.5,0.4-0.9,1-0.9L984.7,948.4"/>
	<path class="st24" d="M984,952.2c0.5,0,0.9,0.5,0.9,1l0,0c0,0.5-0.4,0.9-1,0.9l-9.7-0.4c-0.5,0-0.9-0.5-0.9-1l0,0
		c0-0.5,0.4-0.9,1-0.9L984,952.2"/>
	<path class="st24" d="M983.6,955.9c0.5,0,0.9,0.5,0.9,1l0,0c0,0.5-0.4,0.9-1,0.9l-9-0.4c-0.5,0-0.9-0.5-0.9-1l0,0
		c0-0.5,0.4-0.9,1-0.9L983.6,955.9"/>
	<path class="st24" d="M982.9,959.5c0.5,0,0.9,0.5,0.9,1l0,0c0,0.5-0.4,0.9-1,0.9l-7.8-0.3c-0.5,0-0.9-0.5-0.9-1l0,0
		c0-0.5,0.4-0.9,1-0.9L982.9,959.5"/>
	<path class="st24" d="M982.2,963c0.5,0,0.9,0.5,0.9,1l0,0c0,0.5-0.4,0.9-1,0.9l-6.5-0.3c-0.5,0-0.9-0.5-0.9-1l0,0
		c0-0.5,0.4-0.9,1-0.9L982.2,963"/>
	<path class="st24" d="M981.8,966.9c0.5,0,0.9,0.5,0.9,1l0,0c0,0.5-0.4,0.9-1,0.9l-5.8-0.2c-0.5,0-0.9-0.5-0.9-1l0,0
		c0-0.5,0.4-0.9,1-0.9L981.8,966.9"/>
	<path class="st24" d="M921.4,922.2c0.5,0,0.9,0.5,0.9,1l0,0c0,0.5-0.4,0.9-0.9,0.9l-5.8-0.5c-0.5,0-0.9-0.5-0.9-1l0,0
		c0-0.5,0.4-0.9,0.9-0.9L921.4,922.2"/>
	<path class="st24" d="M921.3,925.6c0.5,0,0.9,0.5,0.9,1l0,0c0,0.5-0.4,0.9-0.9,0.9l-5.8-0.5c-0.5,0-0.9-0.5-0.9-1l0,0
		c0-0.5,0.4-0.9,0.9-0.9L921.3,925.6"/>
	<path class="st24" d="M921.6,929c0.5,0,0.9,0.5,0.9,1l0,0c0,0.5-0.4,0.9-0.9,0.9l-5.8-0.5c-0.5,0-0.9-0.5-0.9-1l0,0
		c0-0.5,0.4-0.9,0.9-0.9L921.6,929"/>
	<path class="st24" d="M921.4,932.4c0.5,0,0.9,0.5,0.9,1l0,0c0,0.5-0.4,0.9-0.9,0.9l-5.8-0.5c-0.5,0-0.9-0.5-0.9-1l0,0
		c0-0.5,0.4-0.9,0.9-0.9L921.4,932.4"/>
	<path class="st24" d="M921.5,935.9c0.5,0,0.9,0.5,0.9,1l0,0c0,0.5-0.4,0.9-0.9,0.9l-5.8-0.5c-0.5,0-0.9-0.5-0.9-1l0,0
		c0-0.5,0.4-0.9,0.9-0.9L921.5,935.9"/>
	<path class="st24" d="M921.4,939.4c0.5,0,0.9,0.5,0.9,1l0,0c0,0.5-0.4,0.9-0.9,0.9l-5.8-0.5c-0.5,0-0.9-0.5-0.9-1l0,0
		c0-0.5,0.4-0.9,0.9-0.9L921.4,939.4"/>
	<path class="st24" d="M919,945.3c0.4,0.4,0.4,1,0,1.4l0,0c-0.3,0.4-0.9,0.4-1.3,0l-4.1-4.1c-0.4-0.4-0.4-1,0-1.4l0,0
		c0.3-0.4,0.9-0.4,1.3,0L919,945.3"/>
	<path class="st24" d="M915.6,946.9c0.4,0.4,0.4,1,0,1.4l0,0c-0.3,0.4-0.9,0.4-1.3,0l-4.1-4.1c-0.4-0.4-0.4-1,0-1.4l0,0
		c0.3-0.4,0.9-0.4,1.3,0L915.6,946.9"/>
	<path class="st24" d="M912.5,948.8c0.4,0.4,0.4,1,0,1.4l0,0c-0.3,0.4-0.9,0.4-1.3,0l-4.1-4.1c-0.4-0.4-0.4-1,0-1.4l0,0
		c0.3-0.4,0.9-0.4,1.3,0L912.5,948.8"/>
	<path class="st24" d="M909,951.1c0.4,0.4,0.4,1,0,1.4l0,0c-0.3,0.4-0.9,0.4-1.3,0l-4.1-4.1c-0.4-0.4-0.4-1,0-1.4l0,0
		c0.3-0.4,0.9-0.4,1.3,0L909,951.1"/>
	<path class="st0" d="M1029.5,1019.3c-1.3-3.9-2.9-7.8-4.8-11.5c-4.7,0.8-7.1,1.1-7.1,1.1c-4.3,1.6-6.9,5.9-6.3,10.4
		C1011.3,1019.3,1017.4,1019.3,1029.5,1019.3"/>
	<path class="st1" d="M1069.6,1019.3c4-30.8,5.7-47.7,5.7-47.7c-18.3,0.3-27.5,0.4-27.5,0.4c1.5,16.7,2.2,25,2.2,25
		c-10.2,6.1-15.3,9.1-15.3,9.1c-8.2,1.4-12.3,2.1-12.3,2.1c1,8.5,1.5,12.8,1.5,12.8S1039.4,1021.4,1069.6,1019.3"/>
	<path class="st2" d="M1066.2,1019.6c0,0,2-15,6.1-45c0,0-2.5-0.6-7.6-1.7c-4.5,31.5-6.8,47.2-6.8,47.2S1060.7,1019.9,1066.2,1019.6
		"/>
	<path class="st1" d="M1126.3,1041.3c0,0-0.9-9-2.7-27.1c0,0,0.9-10.8,2.8-32.3c-17.1,1.2-25.6,1.8-25.6,1.8
		c1.1,20.4,1.7,30.7,1.7,30.7c-2.3,16.2-3.4,24.3-3.4,24.3C1101.9,1041.1,1111,1042,1126.3,1041.3"/>
	<path class="st2" d="M1115.8,1027.6c0,0,1.4-14.6,4.1-43.9c-8.7-0.6-13.3-0.2-13.8,1.2c1.5,27.8,2.3,41.8,2.3,41.8
		C1110.7,1028.1,1113.5,1028.4,1115.8,1027.6"/>
	<path class="st25" d="M1077.9,968.6c0.2,6.4-2.4,6.9-8.2,6.9c0,0-6.4-0.3-19.1-0.8c-4.1-0.2-5-2.5-6.1-14.1
		c-3.9-38-6.1-60.3-6.7-67.1c0,0-0.6-8,0.9-45.1c26.9-43.9,39.7-24.5,38.2,58.4C1076.9,937.6,1077.3,958.2,1077.9,968.6"/>
	<path class="st25" d="M1101.7,985.9c-4.5,0-5.3-1.9-6.7-6.4c-6-23.5-12-35.9-14.7-50.2l-14.7-95.5c25.4,3.7,44.5,10.5,55.6,20.4
		l-3.5,58.6c-0.7,11.5,1.6,17.4,11,62.2c2.1,9.3,0.4,11.4-7.3,11.2C1112.5,985.8,1105.9,985.7,1101.7,985.9"/>
	<path class="st25" d="M1051.6,828.8c9.8,9.5,22.7,15.1,36.3,15.6C1082.9,807,1070.8,801.8,1051.6,828.8"/>
	<path class="st25" d="M1049.6,716l-9.5,73c-3.6,22.3-6.7,44-9.5,65c0,0,2.1,0,6.4,0c6.9-3.9,18.3-16.7,34.4-38.4
		c-0.8,5.9,6,22.4,20.2,49.5c16.5-1.5,31.5-9.7,41.1-22.4c0,0-4.5-13.1-13.5-39.4c-1.4-7.7-12.1-12.4-31.9-14.2h28.7l6.8-55.7
		c3-4.6,6.3-9.9,10-15.8c-5.9-2.7-14.7-5.8-26.4-9.3l-7.4,17.9L1049.6,716z"/>
	<polygon class="st3" points="1071,714.4 1046.5,716.8 1049.6,710.3 1074.2,708 	"/>
	<path class="st4" d="M1008.2,739.7c0,0,7.6-6.7,26.7-17.3c34.8-15.6,25.3,1.4,16.7,23.9c-15.8,11.9-27.6,19.9-34,20.2
		C1017.3,762,1014.7,751.8,1008.2,739.7"/>
	<path class="st3" d="M1038.8,723.8c0,0-0.1,0.9-0.1,2.6c-9.5,5.2-14.2,7.8-14.2,7.8c-2.9-4-4.4-6-4.4-6c4.6-2.6,6.9-3.8,6.9-3.8
		S1030.9,724.2,1038.8,723.8"/>
	<path class="st3" d="M1003.3,739.1c13.8-11.7,18.9-1,19.1,18.9c-0.1,5.2-1.6,8.3-3.6,9.4c-5.2,2.8-7.9,4.2-7.9,4.2
		c-3.9,1.9-6.8,2.2-8.8,0.9C1002.2,772.5,1002.3,761.5,1003.3,739.1"/>
	<path class="st5" d="M992,778.7c-4.7,0.4-9.2-3.7-8.4-12.5l3.7-45.8l14.9-6.8c0.2,0.6,0.7,1,1.3,1h0.4l4.2,42.3
		C1009.6,770.3,1004.2,777.6,992,778.7"/>
	<path class="st6" d="M1001.4,711.3c2.7,2.2,3.5,4.3,2.5,6.3c-2.8,4.4-6.7,5.9-11.7,4.4C992.2,722,995.2,718.4,1001.4,711.3"/>
	<path class="st7" d="M1099,710.4c0,0-3.5-4.8-3-31.4c-20.4,6.2-27.9,20.7-27.9,20.7c3,9.5,1,16.9,1,16.9c3.9,5.1,10.6,7.5,17.1,6.2
		C1092.7,721.4,1097.7,716.5,1099,710.4"/>
	<path class="st3" d="M1078.8,789.1h-2.8V735h2.8V789.1z M1097.6,700.9c3.6,2.4,5.4,4.2,9.1,6.6c-3.2,17.5-7.3,27.1-15.9,27.8
		c0,0-2.8-4.6-8.5-13.8C1089.8,718.9,1094.9,712.1,1097.6,700.9z"/>
	<path class="st8" d="M1049.1,680.1c2.3,22.2,5,35.2,8.1,39c1.3-0.3,2.5-1.2,3.2-2.6c-2.8-1.9-5.3-14.4-7.3-37.6
		C1053.1,679,1051.8,679.4,1049.1,680.1"/>
	<path class="st9" d="M1051.9,671.7c-2.7-1.7-7.3,0.1-13.9,5.5c1.8,1.6,7.3,3.6,16.3,6.2C1054.4,683.4,1053.6,679.5,1051.9,671.7"/>
	<path class="st6" d="M1092.3,698.4c2.5-7.7,2.9-9.2,0.4-16.7c0.6-7-1.8-13.7-6.2-18.8c-0.8,1.3-2.1,2.4-3.7,2.9
		c-0.7,0.3-1.4,0.6-2.2,0.7c-0.6,0.1-1.3,0.3-1.9,0.3l-1.2,0.1c-0.7,0.1-1.5,0.2-2.2,0.2h-0.2l-0.1,0c-0.7,0.3-1.4,0.4-2.2,0.4
		l0.5,0l-0.4,0.2c-0.6,0.2-1.1,0.3-1.7,0.4c-0.3,0.1-0.7,0.2-1,0.2c-0.6,0.2-1.2,0.3-1.8,0.3l0.5,0l-0.9,0.3
		c-0.6,0.2-1.3,0.4-1.9,0.4l-0.3,0l-0.2,0c-0.5,0.2-1.1,0.4-1.6,0.5c-0.7,0.1-1.4,0.3-2,0.4l-1.4,0.1l-1.6,0.2
		c-0.6,0.1-1.2,0.1-1.8,0.1l-1.2,0.1l-1,0.1c-0.6,0.2-1.3,0.3-1.9,0.3c-1.1,0.3-2.2,0.4-3.2,0.2c-0.7,5.6,0.1,9.3,2.6,11
		c3.6,2.5,4.3,4.7,4,8.5c-0.2,4.1,0.7,7.2,2.5,9.3c6.2,7.2,8.2,10.7,9.3,13.8c1.2,3.6,9.7,2.8,15.7-3.1
		C1087.2,707.9,1090.3,703.6,1092.3,698.4"/>
	<path class="st10" d="M1075.1,646.7l-0.2,0L1075.1,646.7L1075.1,646.7z M1085.6,671.5c-4.5-1.2-6.6-2.9-5.7-5.1
		c0.7-1.8,0.5-3.8-0.4-5.3l1,0c0.3,0,0.7,0,1,0l0,0l1,0.2c0.3,0.1,0.7,0.1,1,0.1c0.4,0.1,0.7,0.2,1.1,0.3c0.2,0.1,0.3,0.1,0.5,0.2
		c0.7,0.4,1.5,0.7,2.3,0.9l0.2,0c1,0.5,2.1,0.8,3.2,0.8c0.6,0.2,1.1,0.4,1.7,0.5c0.5,0.2,1,0.4,1.6,0.5c0.6,5.8,0.4,12.8-0.4,21.1
		c-0.6,3.2-4.8-0.8-5-4.5C1088.7,674.9,1088.4,672.3,1085.6,671.5z"/>
	<path class="st6" d="M1098.4,682.7c-0.1,0.9-0.7,1.6-1.5,2s-1.8,0.2-2.5-0.4c-4.5-4.1-5.3-11-1.8-16c1.2-1.8,3.2-2.8,5.4-2.6
		c2.1,0.2,4,1.6,4.8,3.5s0.7,4.3-0.8,5.9C1099.9,677.2,1098.7,679.8,1098.4,682.7"/>
	<path class="st11" d="M1101.6,674.7c7.1,24,9.5,38.7,7.1,44.1c-1.8,0.3-3.8,0-5.4-1.1c2.8-3.3,0.4-17.4-7.4-42.3
		C1095.9,675.5,1097.8,675.2,1101.6,674.7"/>
	<path class="st25" d="M1074.8,673.8c0,0,3.6-0.6,10.9-1.9c1.1-1.4,8.4-0.2,22.1,3.7c0,0-0.5-4.1-1.6-12.4
		c-2.6-16.5-7.5-22.3-18.1-27.6c-10.5-5.3-23.1-4.5-32.9,2.1c-9.8,6.5-15.3,17.8-14.5,29.6c0.1,2.9-0.9,5.4-3,7.6
		C1052.5,673.5,1064.9,673.1,1074.8,673.8"/>
	<path class="st13" d="M1085.3,671.2c0,0,7.3,1.7,21.9,5.2c-1.6,1.7-2.6,2.3-4,2.1c-14.8-3.1-22.1-4.6-22.1-4.6
		S1082.4,673,1085.3,671.2"/>
	<path class="st14" d="M1109.4,674.7c-6.7-2-13.5-3.8-20.3-5.3c-1.3-0.3-2.6-0.5-5,0.4c-14.9-1.7-30.1-1.1-45.4,1.9
		c-0.4,0-0.6,0.4-0.6,0.7c0,0.4,0.3,0.7,0.7,0.7c13.7-2.6,27.8-3.3,42.5-2c-4,2-3.2,1.1-12.4,1.1c-11.5-0.1-21.9,0.8-31.2,2.7
		c-0.9,0.7-1.2,2-0.6,2.9c8-2,18.8-2.8,32.1-2.6c9.8,0.3,8.8,1,15.3-2.2c0.9-0.5,2.1-0.7,3.8-0.3c12.2,2.2,19.2,4.3,19.2,4.3
		C1108.8,676.8,1109.3,676,1109.4,674.7"/>
	<polygon class="st15" points="1099.2,662.9 1102.8,663.2 1099.5,664.8 1100.3,668.4 1097.8,665.7 1094.6,667.6 1096.4,664.4 
		1093.6,661.9 1097.3,662.6 1098.7,659.2 	"/>
	<rect x="993.6" y="700.2" class="st16" width="21.6" height="11.4"/>
	<path class="st17" d="M1052.4,695.2c0.4,0,0.8,0.3,0.8,0.8v1.9h0.6c0.6,0,1.1,0.5,1.1,1.1v3.9c0,0.6-0.5,1.1-1.1,1.1h-18.2
		c-0.6,0-1.1-0.5-1.1-1.1v-3.9c0-0.6,0.5-1.1,1.1-1.1h13.1v-1.9c0-0.4,0.3-0.8,0.8-0.8H1052.4"/>
	<path class="st18" d="M1055.3,708.5c0,0,16.3,6.4,49,19.2c1.1,0.5,1.2,1.4,0.5,3.2c-4.2,10.1-6.2,15.1-6.2,15.1
		c-1.1,2.5-2.4,2.9-6.1,0.6c-29.3-18.6-44-27.9-44-27.9c-3.3-2-5.5-5.6-5.6-9.5C1042.9,709.3,1047,709,1055.3,708.5"/>
	<path class="st19" d="M1017.1,697.4c0.8,0,1.4,0.7,1.4,1.6v2.5c0,0.9-0.6,1.6-1.4,1.6h-1.7l1.4,11.5h38.5v3.1c0,2.6-1,2.7-4.9,2.6
		h-4.9v7.2h-27.1l2.2,17.6c0.1,0.8-0.5,1.5-1.3,1.5h-8.2c-0.8,0-1.6-0.7-1.6-1.5l-5.2-42h-73c0,0-0.1,0-0.1,0h-10
		c-1.6,0-2.8-1.3-2.8-2.8c0-1.6,1.3-2.8,2.8-2.8h10.1h3.1v-6.6c0-0.8,0.6-1.4,1.3-1.4c0.7,0,1.3,0.7,1.3,1.4v6.6h4.9H1017.1"/>
	<path class="st16" d="M1058.4,700.3c1.6,0,2.9,1.3,2.9,2.9v10c0,1.6-1.3,2.9-2.9,2.9h-40.7c-1.6,0-2.9-1.3-2.9-2.9v-10
		c0-1.6,1.3-2.9,2.9-2.9H1058.4"/>
	<path class="st20" d="M1074.9,741.3c-46.3,29.5-74.6,31.4-109.9-27.9c0,0-3.8,0.5-7.9,0.5c37.9,63.9,70.9,64.2,120.3,30.2
		C1077.3,744.1,1076.9,743,1074.9,741.3"/>
	<path class="st18" d="M1000.3,702.7c0.8,0,1.4,0.6,1.4,1.4v10.2c0,0.8-0.6,1.4-1.4,1.4h-55.8c-0.8,0-1.4-0.6-1.4-1.4v-10.2
		c0-0.8,0.6-1.4,1.4-1.4H1000.3"/>
	<path class="st4" d="M1139.6,763.1c0,0,1.9-12.5,5.8-37.6c1-6.7-6-12.2-12.9-13.6c-6.9-1.3-15.2,1.6-16.9,7.8
		c-6.5,19.4-9.7,29.1-9.7,29.1S1117.1,753.6,1139.6,763.1"/>
	<path class="st3" d="M1102.8,748.5c2.8-7,4.9-6.3,10.3-5.3c8.9,1.7,17.1,6,23.5,12.4c3.7,3.8,5.6,7.6,1,14.1
		c-6.4,8.9-13.7,16.5-20.5,10.8C1119.9,775.1,1120.8,762.1,1102.8,748.5"/>
	<path class="st21" d="M997.7,718.9c0,0,0.5-2.2,1.5-6.7c0.3-3.3-2-8.1-7.2-10.5c-5.9-3-13.6-2.6-14.9,2c-2,7.1-1.8,11,1.8,13.1
		C989.5,722.7,996.7,723.8,997.7,718.9"/>
	<polygon class="st3" points="1132.4,715.9 1108.4,711.8 1115,706.6 1139,710.7 	"/>
	<path class="st22" d="M1114.6,784.5c1.6,0,2.8,1.3,2.6,2.9l-0.7,7.4c-0.2,1.6-1.6,2.9-3.2,2.9h-71.8c-1.6,0-2.8-1.3-2.6-2.9
		l0.7-7.4c0.2-1.6,1.6-2.9,3.2-2.9H1114.6"/>
	<path class="st6" d="M1042.7,743.6c0,0,4.2-0.8,12.5-2.4c0,0,1.1,0.8,3.4,2.4c0,0,25.8,18.2,48,32.9c11.4,7.5,14.9,6.1,20.2-0.3
		s6.1-18.2-1.2-21.5c-39.3-18.4-58.9-27.6-58.9-27.6c-10.1-4.5-18.3-6.8-18.3-6.8c-2.5-0.8-6.4-1.5-10.3-0.7
		c-10.4,2.7-12.6,3.3-14.3,3.9c-1.2,0.4-1,2.3-0.6,3.4c0.4,1.2,1.2,2.8,2.4,2.5c7-1.8,10.4-2.6,10.4-2.6c2.1-0.5,2.4,0,0.7,1.2
		c-3.8,2.8-6.6,3.7-4.3,7.8C1036,742,1039,744.5,1042.7,743.6"/>
	<path class="st23" d="M1068.6,1017.9c0.8,0,1.5,0.7,1.5,1.5v3.7c0,0.8-0.7,1.5-1.5,1.5h-56.5c-0.8,0-1.5-0.7-1.5-1.5v-3.7
		c0-0.8,0.7-1.5,1.5-1.5H1068.6"/>
	<path class="st24" d="M1119.5,993.7c0.5,0,0.9,0.5,0.9,1l0,0c0,0.5-0.4,0.9-1,0.9L1105,995c-0.5,0-0.9-0.5-0.9-1l0,0
		c0-0.5,0.4-0.9,1-0.9L1119.5,993.7"/>
	<path class="st24" d="M1119,997.8c0.5,0,0.9,0.5,0.9,1l0,0c0,0.5-0.4,0.9-1,0.9l-13.4-0.6c-0.5,0-0.9-0.5-0.9-1l0,0
		c0-0.5,0.4-0.9,1-0.9L1119,997.8"/>
	<path class="st24" d="M1118.4,1001.6c0.5,0,0.9,0.5,0.9,1l0,0c0,0.5-0.4,0.9-1,0.9l-12.3-0.5c-0.5,0-0.9-0.5-0.9-1l0,0
		c0-0.5,0.4-0.9,1-0.9L1118.4,1001.6"/>
	<path class="st24" d="M1117.7,1005.4c0.5,0,0.9,0.5,0.9,1l0,0c0,0.5-0.4,0.9-1,0.9l-11-0.5c-0.5,0-0.9-0.5-0.9-1l0,0
		c0-0.5,0.4-0.9,1-0.9L1117.7,1005.4"/>
	<path class="st24" d="M1117,1009.3c0.5,0,0.9,0.5,0.9,1l0,0c0,0.5-0.4,0.9-1,0.9l-9.7-0.4c-0.5,0-0.9-0.5-0.9-1l0,0
		c0-0.5,0.4-0.9,1-0.9L1117,1009.3"/>
	<path class="st24" d="M1116.6,1013c0.5,0,0.9,0.5,0.9,1l0,0c0,0.5-0.4,0.9-1,0.9l-9-0.4c-0.5,0-0.9-0.5-0.9-1l0,0
		c0-0.5,0.4-0.9,1-0.9L1116.6,1013"/>
	<path class="st24" d="M1115.9,1016.6c0.5,0,0.9,0.5,0.9,1l0,0c0,0.5-0.4,0.9-1,0.9l-7.8-0.3c-0.5,0-0.9-0.5-0.9-1l0,0
		c0-0.5,0.4-0.9,1-0.9L1115.9,1016.6"/>
	<path class="st24" d="M1115.2,1020.1c0.5,0,0.9,0.5,0.9,1l0,0c0,0.5-0.4,0.9-1,0.9l-6.5-0.3c-0.5,0-0.9-0.5-0.9-1l0,0
		c0-0.5,0.4-0.9,1-0.9L1115.2,1020.1"/>
	<path class="st24" d="M1114.8,1024c0.5,0,0.9,0.5,0.9,1l0,0c0,0.5-0.4,0.9-1,0.9l-5.8-0.2c-0.5,0-0.9-0.5-0.9-1l0,0
		c0-0.5,0.4-0.9,1-0.9L1114.8,1024"/>
	<path class="st24" d="M1054.4,979.3c0.5,0,0.9,0.5,0.9,1l0,0c0,0.5-0.4,0.9-0.9,0.9l-5.8-0.5c-0.5,0-0.9-0.5-0.9-1l0,0
		c0-0.5,0.4-0.9,0.9-0.9L1054.4,979.3"/>
	<path class="st24" d="M1054.3,982.7c0.5,0,0.9,0.5,0.9,1l0,0c0,0.5-0.4,0.9-0.9,0.9l-5.8-0.5c-0.5,0-0.9-0.5-0.9-1l0,0
		c0-0.5,0.4-0.9,0.9-0.9L1054.3,982.7"/>
	<path class="st24" d="M1054.6,986c0.5,0,0.9,0.5,0.9,1l0,0c0,0.5-0.4,0.9-0.9,0.9l-5.8-0.5c-0.5,0-0.9-0.5-0.9-1l0,0
		c0-0.5,0.4-0.9,0.9-0.9L1054.6,986"/>
	<path class="st24" d="M1054.4,989.5c0.5,0,0.9,0.5,0.9,1l0,0c0,0.5-0.4,0.9-0.9,0.9l-5.8-0.5c-0.5,0-0.9-0.5-0.9-1l0,0
		c0-0.5,0.4-0.9,0.9-0.9L1054.4,989.5"/>
	<path class="st24" d="M1054.5,993c0.5,0,0.9,0.5,0.9,1l0,0c0,0.5-0.4,0.9-0.9,0.9l-5.8-0.5c-0.5,0-0.9-0.5-0.9-1l0,0
		c0-0.5,0.4-0.9,0.9-0.9L1054.5,993"/>
	<path class="st24" d="M1054.4,996.4c0.5,0,0.9,0.5,0.9,1l0,0c0,0.5-0.4,0.9-0.9,0.9l-5.8-0.5c-0.5,0-0.9-0.5-0.9-1l0,0
		c0-0.5,0.4-0.9,0.9-0.9L1054.4,996.4"/>
	<path class="st24" d="M1052,1002.4c0.4,0.4,0.4,1,0,1.4l0,0c-0.3,0.4-0.9,0.4-1.3,0l-4.1-4.1c-0.4-0.4-0.4-1,0-1.4l0,0
		c0.3-0.4,0.9-0.4,1.3,0L1052,1002.4"/>
	<path class="st24" d="M1048.6,1004c0.4,0.4,0.4,1,0,1.4l0,0c-0.3,0.4-0.9,0.4-1.3,0l-4.1-4.1c-0.4-0.4-0.4-1,0-1.4l0,0
		c0.3-0.4,0.9-0.4,1.3,0L1048.6,1004"/>
	<path class="st24" d="M1045.5,1005.9c0.4,0.4,0.4,1,0,1.4l0,0c-0.3,0.4-0.9,0.4-1.3,0l-4.1-4.1c-0.4-0.4-0.4-1,0-1.4l0,0
		c0.3-0.4,0.9-0.4,1.3,0L1045.5,1005.9"/>
	<path class="st24" d="M1042,1008.2c0.4,0.4,0.4,1,0,1.4l0,0c-0.3,0.4-0.9,0.4-1.3,0l-4.1-4.1c-0.4-0.4-0.4-1,0-1.4l0,0
		c0.3-0.4,0.9-0.4,1.3,0L1042,1008.2"/>
</g>
</svg>
