<?xml version="1.0" encoding="utf-8"?>
<!-- Generator: Adobe Illustrator 23.0.1, SVG Export Plug-In . SVG Version: 6.00 Build 0)  -->
<svg version="1.1" id="Layer_1" xmlns="http://www.w3.org/2000/svg" xmlns:xlink="http://www.w3.org/1999/xlink" x="0px" y="0px"
	 viewBox="0 0 1188.3 1200" style="enable-background:new 0 0 1188.3 1200;" xml:space="preserve">
<style type="text/css">
	.st0{fill-rule:evenodd;clip-rule:evenodd;fill:#23291E;}
	.st1{fill-rule:evenodd;clip-rule:evenodd;fill:#10120F;}
	.st2{fill-rule:evenodd;clip-rule:evenodd;fill:#010101;}
	.st3{fill-rule:evenodd;clip-rule:evenodd;fill:#384631;}
	.st4{fill-rule:evenodd;clip-rule:evenodd;fill:#151D11;}
	.st5{fill-rule:evenodd;clip-rule:evenodd;fill:#CB922E;}
	.st6{fill-rule:evenodd;clip-rule:evenodd;fill:#D2993A;}
	.st7{fill-rule:evenodd;clip-rule:evenodd;fill:#C68A2F;}
	.st8{fill-rule:evenodd;clip-rule:evenodd;fill:#2B3B22;}
	.st9{fill-rule:evenodd;clip-rule:evenodd;fill:#1C2818;}
	.st10{fill-rule:evenodd;clip-rule:evenodd;fill:#0F0F0D;}
	.st11{fill-rule:evenodd;clip-rule:evenodd;fill:#172014;}
	.st12{fill-rule:evenodd;clip-rule:evenodd;fill:#33452A;}
	.st13{fill-rule:evenodd;clip-rule:evenodd;fill:#3C5330;}
	.st14{fill-rule:evenodd;clip-rule:evenodd;fill:#69835C;}
	.st15{fill-rule:evenodd;clip-rule:evenodd;fill:#809576;}
	.st16{fill-rule:evenodd;clip-rule:evenodd;fill:#523E2E;}
	.st17{fill-rule:evenodd;clip-rule:evenodd;fill:#36291E;}
	.st18{fill-rule:evenodd;clip-rule:evenodd;fill:#A05525;}
	.st19{fill-rule:evenodd;clip-rule:evenodd;fill:#17120F;}
	.st20{fill-rule:evenodd;clip-rule:evenodd;fill:#35271A;}
	.st21{fill-rule:evenodd;clip-rule:evenodd;fill:#E2AC4C;}
	.st22{fill-rule:evenodd;clip-rule:evenodd;fill:#090C09;}
	.st23{fill-rule:evenodd;clip-rule:evenodd;fill:#A3A39E;}
	.st24{fill-rule:evenodd;clip-rule:evenodd;fill:#4C5245;}
	.st25{fill-rule:evenodd;clip-rule:evenodd;fill:#D40047;}
	.st26{fill-rule:evenodd;clip-rule:evenodd;fill:#007F11;}
	.st27{fill-rule:evenodd;clip-rule:evenodd;fill:#00037F;}
	.st28{fill-rule:evenodd;clip-rule:evenodd;fill:#6A0005;}
	.st29{fill-rule:evenodd;clip-rule:evenodd;fill:#94B5FF;}
</style>
<g>
	<path class="st0" d="M352.7,1021c12.5,0.1,18.8,0.1,18.8,0.1c0.6-4.7-2.1-9.2-6.5-10.8c0,0-2.4-0.4-7.3-1.2
		C355.8,1012.9,354.1,1016.9,352.7,1021"/>
	<path class="st1" d="M311.1,1021c31.3,2.1,47.3,1.7,47.3,1.7s0.5-4.4,1.6-13.3c0,0-4.3-0.7-12.8-2.1c0,0-5.3-3.1-15.9-9.4
		c0,0,0.8-8.6,2.3-25.9c0,0-9.5-0.1-28.5-0.4C305.2,971.6,306.9,989.1,311.1,1021"/>
	<path class="st2" d="M314.6,1021.3c5.7,0.3,8.6,0.5,8.6,0.5s-2.3-16.3-7-48.9c-5.2,1.2-7.8,1.7-7.8,1.7
		C312.5,1005.7,314.6,1021.3,314.6,1021.3"/>
	<path class="st1" d="M252.3,1043.8c15.9,0.7,25.3-0.2,28.3-2.8c0,0-1.2-8.4-3.6-25.2c0,0,0.6-10.6,1.8-31.8c0,0-8.9-0.6-26.6-1.8
		c1.9,22.4,2.9,33.5,2.9,33.5C253.2,1034.5,252.3,1043.8,252.3,1043.8"/>
	<path class="st2" d="M263.1,1029.6c2.5,0.9,5.3,0.6,7.6-0.9c0,0,0.8-14.4,2.4-43.3c-0.5-1.5-5.3-1.9-14.3-1.3
		C261.7,1014.4,263.1,1029.6,263.1,1029.6"/>
	<path class="st3" d="M302.4,968.4c0.7-10.8,1.1-32.2,1.2-64.2c-1.6-85.9,11.6-106,39.6-60.5c1.5,38.6,0.9,46.8,0.9,46.8
		c-0.6,7-2.9,30.2-7,69.6c-1.2,12-2.1,14.4-6.4,14.6c-13.2,0.6-19.8,0.9-19.8,0.9C304.9,975.5,302.3,975.1,302.4,968.4"/>
	<path class="st3" d="M277.8,986.3c-4.4-0.2-11.2-0.1-20.4,0.2c-7.9,0.2-9.7-2-7.5-11.6c9.7-46.5,12.1-52.6,11.4-64.5l-3.7-60.8
		c11.5-10.2,31.3-17.2,57.7-21.1L300,927.6c-2.8,14.9-9.1,27.7-15.3,52.1C283.3,984.4,282.5,986.3,277.8,986.3"/>
	<path class="st3" d="M329.7,823.5c-19.9-28.1-32.5-22.7-37.6,16.2C306.2,839.1,319.6,833.3,329.7,823.5"/>
	<path class="st4" d="M280.4,717.1l-7.6-18.6c-12.1,3.6-21.2,6.8-27.4,9.6c3.8,6.1,7.3,11.6,10.4,16.4l7,57.8h29.7
		c-20.6,1.9-31.6,6.8-33.1,14.8c-9.3,27.2-14,40.8-14,40.8c9.9,13.1,25.5,21.6,42.6,23.2c14.8-28.1,21.8-45.2,21-51.3
		c16.6,22.5,28.5,35.8,35.7,39.9c4.4,0,6.6,0,6.6,0c-2.9-21.8-6.2-44.3-9.8-67.4l-9.8-75.7L280.4,717.1z"/>
	<polygon class="st3" points="306.3,698.1 331.8,700.6 335.1,707.3 309.6,704.8 	"/>
	<path class="st4" d="M374.7,731c-6.8,12.6-9.5,23.2-9.8,27.8c-6.5-0.3-18.9-8.7-35.2-21c-8.9-23.3-18.7-41,17.3-24.8
		C366.8,724,374.7,731,374.7,731"/>
	<path class="st3" d="M343,714.6c8.2,0.4,12.3,0.6,12.3,0.6s2.4,1.3,7.1,4c0,0-1.5,2.1-4.5,6.2c0,0-4.9-2.7-14.7-8
		C343.1,715.5,343,714.6,343,714.6"/>
	<path class="st3" d="M379.8,730.4c1.1,23.2,1.2,34.6,1.2,34.6c-2,1.3-5.1,1-9.1-0.9c0,0-2.7-1.5-8.2-4.4c-2.1-1.2-3.6-4.4-3.8-9.7
		C360.2,729.4,365.4,718.3,379.8,730.4"/>
	<path class="st5" d="M391.6,771.5c-12.7-1.1-18.3-8.7-16.7-22.7l4.4-43.8h0.4c0.6,0,1.2-0.4,1.4-1l15.4,7.1l3.8,47.4
		C401.1,767.6,396.5,771.9,391.6,771.5"/>
	<path class="st6" d="M381.8,701.6c6.4,7.4,9.6,11,9.6,11c-5.1,1.5-9.2,0-12.1-4.6C378.2,706.1,379,703.9,381.8,701.6"/>
	<path class="st7" d="M280.6,700.6c1.3,6.4,6.5,11.4,13.3,12.8c6.8,1.4,13.7-1.1,17.8-6.4c0,0-2.1-7.6,1-17.5c0,0-7.8-15-29-21.4
		C284.3,695.7,280.6,700.6,280.6,700.6"/>
	<path class="st3" d="M301.5,726.2h2.9v56.1h-2.9V726.2z M298,712.1c-5.9,9.6-8.8,14.4-8.8,14.4c-9-0.7-13.3-10.6-16.5-28.8
		c3.7-2.4,5.7-4.4,9.4-6.8C284.8,702.4,290.1,709.5,298,712.1z"/>
	<path class="st8" d="M332.3,669.3c-2.7-0.8-4.1-1.2-4.1-1.2c-2.2,24.1-4.7,37-7.6,39c0.8,1.4,2,2.4,3.3,2.7
		C327.2,705.8,330,692.3,332.3,669.3"/>
	<path class="st9" d="M329.4,660.5c-1.7,8.1-2.5,12.1-2.5,12.1c9.4-2.6,15-4.8,16.9-6.4C337,660.7,332.2,658.8,329.4,660.5"/>
	<path class="st6" d="M287.6,688.2c2.1,5.4,5.3,9.9,8.8,13.2c6.3,6.1,15,6.9,16.3,3.2c1.1-3.2,3.2-6.9,9.6-14.4
		c1.9-2.2,2.8-5.4,2.6-9.6c-0.2-3.9,0.4-6.2,4.2-8.8c2.6-1.8,3.5-5.6,2.7-11.4c-1.1,0.2-2.2,0.1-3.4-0.2c-0.7,0-1.3-0.1-2-0.3
		l-1-0.1l-1.2-0.1c-0.6,0-1.2,0-1.8-0.1l-1.6-0.2l-1.5-0.2c-0.7-0.1-1.4-0.3-2.1-0.4c-0.6-0.1-1.1-0.3-1.7-0.5l-0.2,0l-0.3,0
		c-0.7-0.1-1.3-0.2-2-0.4l-1-0.4l0.5,0c-0.6,0-1.2-0.1-1.8-0.3c-0.3,0-0.7-0.1-1.1-0.2c-0.6-0.1-1.2-0.2-1.8-0.4l-0.4-0.2l0.5,0
		c-0.8,0-1.5-0.2-2.2-0.5l-0.1,0h-0.2c-0.8,0-1.5-0.1-2.3-0.2l-1.2-0.1c-0.7,0-1.3-0.2-2-0.3c-0.8-0.2-1.5-0.4-2.3-0.7
		c-1.6-0.6-2.9-1.7-3.8-3.1c-4.6,5.3-7,12.3-6.4,19.5C284.5,678.6,285,680.3,287.6,688.2"/>
	<path class="st10" d="M305.4,634.6l0.1,0.1L305.4,634.6L305.4,634.6z M291.1,670.3c-0.2,3.9-4.6,8-5.2,4.7
		c-0.8-8.6-1-15.9-0.4-21.9c0.6-0.1,1.1-0.3,1.6-0.5c0.6-0.1,1.2-0.3,1.8-0.5c1.1,0,2.3-0.3,3.3-0.8l0.2,0c0.8-0.2,1.7-0.5,2.4-0.9
		c0.2-0.1,0.4-0.1,0.5-0.2c0.4-0.1,0.7-0.2,1.1-0.3c0.4,0,0.7-0.1,1.1-0.1l1-0.2l0,0c0.4,0,0.7,0.1,1.1,0l1.1,0
		c-0.9,1.6-1.1,3.7-0.4,5.5c0.9,2.3-1.2,4-5.9,5.3C291.6,661.2,291.3,663.9,291.1,670.3z"/>
	<path class="st6" d="M281.2,672c-0.4-3.1-1.6-5.7-3.7-7.9c-1.6-1.7-1.7-4.1-0.8-6.1c0.9-2,2.8-3.4,5-3.6c2.2-0.2,4.3,0.8,5.6,2.6
		c3.6,5.2,2.8,12.3-1.8,16.6c-0.7,0.6-1.7,0.8-2.5,0.4S281.4,672.9,281.2,672"/>
	<path class="st11" d="M277.9,663.6c3.9,0.5,5.9,0.8,5.9,0.8c-8.1,25.8-10.6,40.4-7.7,43.9c-1.7,1.1-3.7,1.5-5.6,1.1
		C268,703.8,270.5,688.5,277.9,663.6"/>
	<path class="st12" d="M305.7,662.7c10.3-0.7,23.1-0.3,38.5,1.1c-2.2-2.2-3.3-4.8-3.2-7.8c0.9-12.2-4.9-23.9-15.1-30.7
		c-10.2-6.8-23.2-7.6-34.1-2.1c-10.9,5.5-16.1,11.5-18.7,28.6c-1.1,8.6-1.7,12.8-1.7,12.8c14.2-4,21.8-5.3,22.9-3.8
		C301.9,662.1,305.7,662.7,305.7,662.7"/>
	<path class="st13" d="M294.8,660c2.9,1.9,4.4,2.8,4.4,2.8s-7.7,1.6-23,4.7c-1.4,0.3-2.5-0.4-4.1-2.2
		C287.3,661.8,294.8,660,294.8,660"/>
	<path class="st14" d="M269.8,663.6c0,1.4,0.6,2.2,2,2.5c0,0,7.2-2.2,19.9-4.5c1.8-0.4,3-0.2,3.9,0.3c6.7,3.3,5.7,2.6,15.8,2.3
		c13.9-0.3,25,0.6,33.3,2.7c0.6-1,0.3-2.4-0.6-3.1c-9.6-1.9-20.4-2.8-32.4-2.8c-9.5-0.1-8.7,0.9-12.9-1.2c15.2-1.3,29.9-0.7,44.1,2
		c0.4,0,0.7-0.3,0.7-0.7c0-0.4-0.3-0.7-0.6-0.8c-15.9-3.1-31.6-3.7-47.1-2c-2.4-1-3.8-0.7-5.2-0.4
		C283.8,659.7,276.8,661.6,269.8,663.6"/>
	<polygon class="st15" points="280.9,647.6 282.4,651.1 286.1,650.4 283.3,652.9 285.1,656.3 281.8,654.3 279.2,657.1 280.1,653.4 
		276.6,651.7 280.4,651.4 	"/>
	<rect x="367.5" y="690.1" class="st16" width="22.5" height="11.8"/>
	<path class="st17" d="M329,684.9h3.1c0.4,0,0.8,0.4,0.8,0.8v1.9h13.5c0.6,0,1.2,0.5,1.2,1.2v4c0,0.6-0.5,1.2-1.2,1.2h-18.8
		c-0.6,0-1.2-0.5-1.2-1.2v-4c0-0.6,0.5-1.2,1.2-1.2h0.6v-1.9C328.2,685.2,328.5,684.9,329,684.9"/>
	<path class="st18" d="M325.9,698.7c8.6,0.5,12.9,0.8,12.9,0.8c-0.1,4.1-2.3,7.8-5.8,9.9c0,0-15.2,9.6-45.6,28.9
		c-3.9,2.4-5.3,1.9-6.4-0.7c0,0-2.2-5.2-6.5-15.6c-0.8-1.9-0.6-2.8,0.5-3.3C309,705.4,325.9,698.7,325.9,698.7"/>
	<path class="st19" d="M365.5,687.2h78.1h5.1v-6.8c0-0.7,0.5-1.4,1.3-1.4c0.7,0,1.3,0.6,1.3,1.4v6.8h3.2h10.5c1.6,0,2.9,1.3,2.9,2.9
		c0,1.6-1.3,2.9-2.9,2.9h-10.4c0,0-0.1,0-0.1,0h-75.7l-5.4,43.5c-0.1,0.8-0.9,1.5-1.7,1.5h-8.5c-0.8,0-1.4-0.7-1.3-1.5l2.3-18.2
		h-28.1v-7.4h-5c-4,0.1-5.1,0-5.1-2.7V705h39.9l1.5-11.9h-1.8c-0.8,0-1.5-0.7-1.5-1.6v-2.6C364,687.9,364.7,687.2,365.5,687.2"/>
	<path class="st16" d="M322.7,690.2h42.2c1.6,0,3,1.3,3,3v10.4c0,1.6-1.3,3-3,3h-42.2c-1.6,0-3-1.3-3-3v-10.4
		C319.7,691.5,321,690.2,322.7,690.2"/>
	<path class="st20" d="M305.6,732.7c-2.2,1.8-2.5,2.9-2.5,2.9c51.2,35.3,85.5,34.9,124.8-31.3c-4.3,0-8.2-0.5-8.2-0.5
		C383,765.2,353.7,763.2,305.6,732.7"/>
	<path class="st18" d="M382.9,692.6h57.9c0.8,0,1.5,0.7,1.5,1.5v10.6c0,0.8-0.7,1.5-1.5,1.5h-57.9c-0.8,0-1.5-0.7-1.5-1.5v-10.6
		C381.4,693.3,382.1,692.6,382.9,692.6"/>
	<path class="st4" d="M238.5,755.3c23.4-9.8,35-14.8,35-14.8s-3.4-10-10.1-30.1c-1.8-6.4-10.4-9.5-17.6-8.1
		c-7.2,1.4-14.4,7.1-13.4,14.1C236.5,742.3,238.5,755.3,238.5,755.3"/>
	<path class="st3" d="M276.6,740.2c-18.6,14-17.7,27.5-14.8,33.1c-7.1,5.9-14.6-1.9-21.3-11.2c-4.8-6.7-2.8-10.6,1-14.6
		c6.7-6.6,15.1-11.1,24.4-12.9C271.5,733.6,273.7,732.9,276.6,740.2"/>
	<path class="st21" d="M385.6,709.5c1.1,5.1,8.5,4,19.5-2.3c3.7-2.1,4-6.2,1.9-13.5c-1.4-4.8-9.3-5.1-15.5-2
		c-5.4,2.5-7.8,7.5-7.5,10.9C385.1,707.2,385.6,709.5,385.6,709.5"/>
	<polygon class="st3" points="239.1,701 264,696.7 270.8,702.1 246,706.4 	"/>
	<path class="st22" d="M264.4,777.5h74.4c1.7,0,3.1,1.4,3.3,3l0.8,7.6c0.2,1.7-1.1,3-2.7,3h-74.4c-1.7,0-3.1-1.4-3.3-3l-0.8-7.6
		C261.6,778.8,262.8,777.5,264.4,777.5"/>
	<path class="st6" d="M339,735.1c3.9,0.9,7-1.7,10.6-8.1c2.4-4.3-0.5-5.1-4.5-8.1c-1.8-1.2-1.4-1.8,0.8-1.2c0,0,3.6,0.9,10.8,2.7
		c1.2,0.3,2.1-1.4,2.5-2.6c0.4-1.2,0.6-3.1-0.6-3.6c-1.8-0.5-4-1.2-14.8-4c-4-0.9-8.1-0.1-10.7,0.7c0,0-8.5,2.4-19,7
		c0,0-20.4,9.5-61.1,28.6c-7.5,3.5-6.7,15.7-1.3,22.3c5.5,6.6,9.2,8.1,21,0.3c23-15.3,49.7-34.1,49.7-34.1c2.4-1.7,3.6-2.5,3.6-2.5
		C334.6,734.3,339,735.1,339,735.1"/>
	<path class="st23" d="M312.1,1019.5h58.6c0.8,0,1.5,0.7,1.5,1.5v3.8c0,0.8-0.7,1.5-1.5,1.5h-58.6c-0.8,0-1.5-0.7-1.5-1.5v-3.8
		C310.6,1020.2,311.3,1019.5,312.1,1019.5"/>
	<path class="st24" d="M259.3,994.5l15-0.6c0.5,0,1,0.4,1,0.9l0,0c0,0.5-0.4,1-1,1l-15,0.6c-0.5,0-1-0.4-1-0.9l0,0
		C258.3,994.9,258.8,994.5,259.3,994.5"/>
	<path class="st24" d="M259.9,998.7l13.9-0.6c0.5,0,1,0.4,1,0.9l0,0c0,0.5-0.4,1-1,1l-13.9,0.6c-0.5,0-1-0.4-1-0.9l0,0
		C258.9,999.2,259.4,998.7,259.9,998.7"/>
	<path class="st24" d="M260.5,1002.6l12.8-0.5c0.5,0,1,0.4,1,0.9l0,0c0,0.5-0.4,1-1,1l-12.8,0.5c-0.5,0-1-0.4-1-0.9l0,0
		C259.5,1003.1,260,1002.7,260.5,1002.6"/>
	<path class="st24" d="M261.2,1006.6l11.4-0.5c0.5,0,1,0.4,1,0.9l0,0c0,0.5-0.4,1-1,1l-11.4,0.5c-0.5,0-1-0.4-1-0.9l0,0
		C260.3,1007.1,260.7,1006.6,261.2,1006.6"/>
	<path class="st24" d="M261.9,1010.6l10.1-0.4c0.5,0,1,0.4,1,0.9l0,0c0,0.5-0.4,1-1,1l-10.1,0.4c-0.5,0-1-0.4-1-0.9l0,0
		C261,1011.1,261.4,1010.6,261.9,1010.6"/>
	<path class="st24" d="M262.4,1014.4l9.3-0.4c0.5,0,1,0.4,1,0.9l0,0c0,0.5-0.4,1-1,1l-9.3,0.4c-0.5,0-1-0.4-1-0.9l0,0
		C261.4,1014.9,261.8,1014.4,262.4,1014.4"/>
	<path class="st24" d="M263,1018.2l8.1-0.3c0.5,0,1,0.4,1,0.9l0,0c0,0.5-0.4,1-1,1l-8.1,0.3c-0.5,0-1-0.4-1-0.9l0,0
		C262.1,1018.6,262.5,1018.2,263,1018.2"/>
	<path class="st24" d="M263.8,1021.8l6.7-0.3c0.5,0,1,0.4,1,0.9l0,0c0,0.5-0.4,1-1,1l-6.7,0.3c-0.5,0-1-0.4-1-0.9l0,0
		C262.8,1022.3,263.2,1021.9,263.8,1021.8"/>
	<path class="st24" d="M264.2,1025.8l6-0.2c0.5,0,1,0.4,1,0.9l0,0c0,0.5-0.4,1-1,1l-6,0.2c-0.5,0-1-0.4-1-0.9l0,0
		C263.2,1026.3,263.6,1025.9,264.2,1025.8"/>
	<path class="st24" d="M326.8,979.5l6-0.5c0.5,0,1,0.4,1,0.9l0,0c0,0.5-0.4,1-1,1.1l-6,0.5c-0.5,0-1-0.4-1-0.9l0,0
		C325.8,980,326.3,979.5,326.8,979.5"/>
	<path class="st24" d="M327,983l6-0.5c0.5,0,1,0.4,1,0.9l0,0c0,0.5-0.4,1-1,1.1l-6,0.5c-0.5,0-1-0.4-1-0.9l0,0
		C326,983.6,326.4,983.1,327,983"/>
	<path class="st24" d="M326.6,986.5l6-0.5c0.5,0,1,0.4,1,0.9l0,0c0,0.5-0.4,1-1,1.1l-6,0.5c-0.5,0-1-0.4-1-0.9l0,0
		C325.7,987,326.1,986.5,326.6,986.5"/>
	<path class="st24" d="M326.8,990.1l6-0.5c0.5,0,1,0.4,1,0.9l0,0c0,0.5-0.4,1-1,1.1l-6,0.5c-0.5,0-1-0.4-1-0.9l0,0
		C325.8,990.6,326.3,990.1,326.8,990.1"/>
	<path class="st24" d="M326.7,993.7l6-0.5c0.5,0,1,0.4,1,0.9l0,0c0,0.5-0.4,1-1,1.1l-6,0.5c-0.5,0-1-0.4-1-0.9l0,0
		C325.7,994.2,326.2,993.7,326.7,993.7"/>
	<path class="st24" d="M326.9,997.3l6-0.5c0.5,0,1,0.4,1,0.9l0,0c0,0.5-0.4,1-1,1.1l-6,0.5c-0.5,0-1-0.4-1-0.9l0,0
		C325.9,997.8,326.3,997.3,326.9,997.3"/>
	<path class="st24" d="M329.4,1003.4l4.2-4.3c0.4-0.4,1-0.4,1.3,0l0,0c0.4,0.4,0.3,1.1,0,1.4l-4.2,4.3c-0.4,0.4-1,0.4-1.3,0l0,0
		C329,1004.5,329,1003.8,329.4,1003.4"/>
	<path class="st24" d="M332.9,1005.1l4.2-4.3c0.4-0.4,1-0.4,1.3,0l0,0c0.4,0.4,0.3,1.1,0,1.4l-4.2,4.3c-0.4,0.4-1,0.4-1.3,0l0,0
		C332.5,1006.2,332.5,1005.5,332.9,1005.1"/>
	<path class="st24" d="M336.1,1007.1l4.2-4.3c0.4-0.4,1-0.4,1.3,0l0,0c0.4,0.4,0.3,1.1,0,1.4l-4.2,4.3c-0.4,0.4-1,0.4-1.3,0l0,0
		C335.7,1008.1,335.7,1007.5,336.1,1007.1"/>
	<path class="st24" d="M339.7,1009.5l4.2-4.3c0.4-0.4,1-0.4,1.3,0l0,0c0.4,0.4,0.3,1.1,0,1.4l-4.2,4.3c-0.4,0.4-1,0.4-1.3,0l0,0
		C339.3,1010.5,339.3,1009.9,339.7,1009.5"/>
</g>
<g>
	<g>
		<path class="st0" d="M755.4,935.5c-1.3-3.9-2.9-7.8-4.8-11.5c-4.7,0.8-7.1,1.1-7.1,1.1c-4.3,1.6-6.9,5.9-6.3,10.4
			C737.3,935.6,743.3,935.5,755.4,935.5"/>
		<path class="st1" d="M795.5,935.6c4-30.8,5.7-47.7,5.7-47.7c-18.3,0.3-27.5,0.4-27.5,0.4c1.5,16.7,2.2,25,2.2,25
			c-10.2,6.1-15.3,9.1-15.3,9.1c-8.2,1.4-12.3,2.1-12.3,2.1c1,8.5,1.5,12.8,1.5,12.8S765.3,937.6,795.5,935.6"/>
		<path class="st2" d="M792.1,935.8c0,0,2-15,6.1-45c0,0-2.5-0.6-7.6-1.7c-4.5,31.5-6.8,47.2-6.8,47.2S786.6,936.1,792.1,935.8"/>
		<path class="st1" d="M852.2,957.5c0,0-0.9-9-2.7-27.1c0,0,0.9-10.8,2.8-32.3c-17.1,1.2-25.6,1.8-25.6,1.8
			c1.1,20.4,1.7,30.7,1.7,30.7c-2.3,16.2-3.4,24.3-3.4,24.3C827.8,957.3,836.9,958.2,852.2,957.5"/>
		<path class="st2" d="M841.8,943.8c0,0,1.4-14.6,4.1-43.9c-8.7-0.6-13.3-0.2-13.8,1.2c1.5,27.8,2.3,41.8,2.3,41.8
			C836.7,944.3,839.4,944.7,841.8,943.8"/>
		<path class="st25" d="M803.8,884.8c0.2,6.4-2.4,6.9-8.2,6.9c0,0-6.4-0.3-19.1-0.8c-4.1-0.2-5-2.5-6.1-14.1
			c-3.9-38-6.1-60.3-6.7-67.1c0,0-0.6-8,0.9-45.1c26.9-43.9,39.7-24.5,38.2,58.4C802.8,853.8,803.2,874.4,803.8,884.8"/>
		<path class="st25" d="M827.6,902.1c-4.5,0-5.3-1.9-6.7-6.4c-6-23.5-12-35.9-14.7-50.2l-14.7-95.5c25.4,3.7,44.5,10.5,55.6,20.4
			l-3.5,58.6c-0.7,11.5,1.6,17.4,11,62.2c2.1,9.3,0.4,11.4-7.3,11.2C838.4,902,831.8,901.9,827.6,902.1"/>
		<path class="st25" d="M777.5,745c9.8,9.5,22.7,15.1,36.3,15.6C808.8,723.2,796.7,718,777.5,745"/>
		<path class="st25" d="M775.6,632.3l-9.5,73c-3.6,22.3-6.7,44-9.5,65c0,0,2.1,0,6.4,0c6.9-3.9,18.3-16.7,34.4-38.4
			c-0.8,5.9,6,22.4,20.2,49.5c16.5-1.5,31.5-9.7,41.1-22.4c0,0-4.5-13.1-13.5-39.4c-1.4-7.7-12.1-12.4-31.9-14.2h28.7l6.8-55.7
			c3-4.6,6.3-9.9,10-15.8c-5.9-2.7-14.7-5.8-26.4-9.3l-7.4,17.9L775.6,632.3z"/>
		<polygon class="st3" points="797,630.6 772.4,633 775.5,626.6 800.1,624.2 		"/>
		<path class="st4" d="M734.1,655.9c0,0,7.6-6.7,26.7-17.3c34.8-15.6,25.3,1.4,16.7,23.9c-15.8,11.9-27.6,19.9-34,20.2
			C743.3,678.3,740.7,668,734.1,655.9"/>
		<path class="st3" d="M764.7,640c0,0-0.1,0.9-0.1,2.6c-9.5,5.2-14.2,7.8-14.2,7.8c-2.9-4-4.4-6-4.4-6c4.6-2.6,6.9-3.8,6.9-3.8
			S756.8,640.4,764.7,640"/>
		<path class="st3" d="M729.3,655.3c13.8-11.7,18.9-1,19.1,18.9c-0.1,5.2-1.6,8.3-3.6,9.4c-5.2,2.8-7.9,4.2-7.9,4.2
			c-3.9,1.9-6.8,2.2-8.8,0.9C728.1,688.7,728.2,677.7,729.3,655.3"/>
		<path class="st5" d="M717.9,694.9c-4.7,0.4-9.2-3.7-8.4-12.5l3.7-45.8l14.9-6.8c0.2,0.6,0.7,1,1.3,1h0.4L734,673
			C735.5,686.5,730.1,693.8,717.9,694.9"/>
		<path class="st6" d="M727.3,627.5c2.7,2.2,3.5,4.3,2.5,6.3c-2.8,4.4-6.7,5.9-11.7,4.4C718.1,638.2,721.2,634.6,727.3,627.5"/>
		<path class="st7" d="M824.9,626.6c0,0-3.5-4.8-3-31.4c-20.4,6.2-27.9,20.7-27.9,20.7c3,9.5,1,16.9,1,16.9
			c3.9,5.1,10.6,7.5,17.1,6.2C818.6,637.6,823.6,632.7,824.9,626.6"/>
		<path class="st3" d="M804.7,705.3h-2.8v-54.1h2.8V705.3z M823.5,617.1c3.6,2.4,5.4,4.2,9.1,6.6c-3.2,17.5-7.3,27.1-15.9,27.8
			c0,0-2.8-4.6-8.5-13.8C815.7,635.1,820.9,628.3,823.5,617.1z"/>
		<path class="st8" d="M775.1,596.4c2.3,22.2,5,35.2,8.1,39c1.3-0.3,2.5-1.2,3.2-2.6c-2.8-1.9-5.3-14.4-7.3-37.6
			C779,595.2,777.7,595.6,775.1,596.4"/>
		<path class="st9" d="M777.9,587.9c-2.7-1.7-7.3,0.1-13.9,5.5c1.8,1.6,7.3,3.6,16.3,6.2C780.3,599.6,779.5,595.7,777.9,587.9"/>
		<path class="st6" d="M818.2,614.6c2.5-7.7,2.9-9.2,0.4-16.7c0.6-7-1.8-13.7-6.2-18.8c-0.8,1.3-2.1,2.4-3.7,2.9
			c-0.7,0.3-1.4,0.6-2.2,0.7c-0.6,0.1-1.3,0.3-1.9,0.3l-1.2,0.1c-0.7,0.1-1.5,0.2-2.2,0.2h-0.2l-0.1,0c-0.7,0.3-1.4,0.4-2.2,0.4
			l0.5,0l-0.4,0.2c-0.6,0.2-1.1,0.3-1.7,0.4c-0.3,0.1-0.7,0.2-1,0.2c-0.6,0.2-1.2,0.3-1.8,0.3l0.5,0l-0.9,0.3
			c-0.6,0.2-1.3,0.4-1.9,0.4l-0.3,0l-0.2,0c-0.5,0.2-1.1,0.4-1.6,0.5c-0.7,0.1-1.4,0.3-2,0.4l-1.4,0.1l-1.6,0.2
			c-0.6,0.1-1.2,0.1-1.8,0.1l-1.2,0.1l-1,0.1c-0.6,0.2-1.3,0.3-1.9,0.3c-1.1,0.3-2.2,0.4-3.2,0.2c-0.7,5.6,0.1,9.3,2.6,11
			c3.6,2.5,4.3,4.7,4,8.5c-0.2,4.1,0.7,7.2,2.5,9.3c6.2,7.2,8.2,10.7,9.3,13.8c1.2,3.6,9.7,2.8,15.7-3.1
			C813.1,624.2,816.2,619.8,818.2,614.6"/>
		<path class="st10" d="M801.1,562.9l-0.2,0L801.1,562.9L801.1,562.9z M811.5,587.7c-4.5-1.2-6.6-2.9-5.7-5.1
			c0.7-1.8,0.5-3.8-0.4-5.3l1,0c0.3,0,0.7,0,1,0l0,0l1,0.2c0.3,0.1,0.7,0.1,1,0.1c0.4,0.1,0.7,0.2,1.1,0.3c0.2,0.1,0.3,0.1,0.5,0.2
			c0.7,0.4,1.5,0.7,2.3,0.9l0.2,0c1,0.5,2.1,0.8,3.2,0.8c0.6,0.2,1.1,0.4,1.7,0.5c0.5,0.2,1,0.4,1.6,0.5c0.6,5.8,0.4,12.8-0.4,21.1
			c-0.6,3.2-4.8-0.8-5-4.5C814.6,591.2,814.3,588.6,811.5,587.7z"/>
		<path class="st6" d="M824.3,598.9c-0.1,0.9-0.7,1.6-1.5,2c-0.8,0.3-1.8,0.2-2.5-0.4c-4.5-4.1-5.3-11-1.8-16
			c1.2-1.8,3.2-2.8,5.4-2.6s4,1.6,4.8,3.5c0.8,2,0.7,4.3-0.8,5.9C825.9,593.4,824.7,596,824.3,598.9"/>
		<path class="st11" d="M827.5,590.9c7.1,24,9.5,38.7,7.1,44.1c-1.8,0.3-3.8,0-5.4-1.1c2.8-3.3,0.4-17.4-7.4-42.3
			C821.8,591.7,823.7,591.4,827.5,590.9"/>
		<path class="st25" d="M800.8,590c0,0,3.6-0.6,10.9-1.9c1.1-1.4,8.4-0.2,22.1,3.7c0,0-0.5-4.1-1.6-12.4
			c-2.6-16.5-7.5-22.3-18.1-27.6s-23.1-4.5-32.9,2.1s-15.3,17.8-14.5,29.6c0.1,2.9-0.9,5.4-3,7.6C778.5,589.7,790.8,589.3,800.8,590
			"/>
		<path class="st13" d="M811.2,587.4c0,0,7.3,1.7,21.9,5.2c-1.6,1.7-2.6,2.3-4,2.1c-14.8-3.1-22.1-4.6-22.1-4.6
			S808.4,589.2,811.2,587.4"/>
		<path class="st14" d="M835.3,590.9c-6.7-2-13.5-3.8-20.3-5.3c-1.3-0.3-2.6-0.5-5,0.4c-14.9-1.7-30.1-1.1-45.4,1.9
			c-0.4,0-0.6,0.4-0.6,0.7c0,0.4,0.3,0.7,0.7,0.7c13.7-2.6,27.8-3.3,42.5-2c-4,2-3.2,1.1-12.4,1.1c-11.5-0.1-21.9,0.8-31.2,2.7
			c-0.9,0.7-1.2,1.9-0.6,2.9c8-2,18.8-2.8,32.1-2.6c9.8,0.3,8.8,1,15.3-2.2c0.9-0.5,2.1-0.7,3.8-0.3c12.2,2.2,19.2,4.3,19.2,4.3
			C834.7,593,835.3,592.2,835.3,590.9"/>
		<polygon class="st15" points="825.1,579.1 828.8,579.4 825.4,581 826.2,584.6 823.7,581.9 820.6,583.8 822.3,580.6 819.6,578.1 
			823.2,578.8 824.6,575.5 		"/>
		<rect x="719.5" y="616.4" class="st16" width="21.6" height="11.4"/>
		<path class="st17" d="M778.3,611.4c0.4,0,0.8,0.3,0.8,0.8v1.9h0.6c0.6,0,1.1,0.5,1.1,1.1v3.9c0,0.6-0.5,1.1-1.1,1.1h-18.2
			c-0.6,0-1.1-0.5-1.1-1.1v-3.9c0-0.6,0.5-1.1,1.1-1.1h13.1v-1.9c0-0.4,0.3-0.8,0.8-0.8H778.3"/>
		<path class="st18" d="M781.3,624.7c0,0,16.3,6.4,49,19.2c1.1,0.5,1.2,1.4,0.5,3.2c-4.2,10.1-6.2,15.1-6.2,15.1
			c-1.1,2.5-2.4,2.9-6.1,0.6c-29.3-18.6-44-27.9-44-27.9c-3.3-2-5.5-5.6-5.6-9.5C768.8,625.5,772.9,625.3,781.3,624.7"/>
		<path class="st19" d="M743,613.6c0.8,0,1.4,0.7,1.4,1.6v2.5c0,0.9-0.6,1.6-1.4,1.6h-1.7l1.4,11.5h38.5v3.1c0,2.6-1,2.7-4.9,2.6
			h-4.9v7.2h-27.1l2.2,17.6c0.1,0.8-0.5,1.5-1.3,1.5H737c-0.8,0-1.6-0.7-1.6-1.5l-5.2-42h-73c0,0-0.1,0-0.1,0h-10
			c-1.6,0-2.8-1.3-2.8-2.8c0-1.6,1.3-2.8,2.8-2.8h10.1h3.1V607c0-0.8,0.6-1.4,1.3-1.4c0.7,0,1.3,0.7,1.3,1.4v6.6h4.9H743"/>
		<path class="st16" d="M784.4,616.5c1.6,0,2.9,1.3,2.9,2.9v10c0,1.6-1.3,2.9-2.9,2.9h-40.7c-1.6,0-2.9-1.3-2.9-2.9v-10
			c0-1.6,1.3-2.9,2.9-2.9H784.4"/>
		<path class="st20" d="M800.8,657.5c-46.3,29.5-74.6,31.4-109.9-27.9c0,0-3.8,0.5-7.9,0.5c37.9,63.9,70.9,64.2,120.3,30.2
			C803.2,660.3,802.9,659.2,800.8,657.5"/>
		<path class="st18" d="M726.3,618.9c0.8,0,1.4,0.6,1.4,1.4v10.2c0,0.8-0.6,1.4-1.4,1.4h-55.8c-0.8,0-1.4-0.6-1.4-1.4v-10.2
			c0-0.8,0.6-1.4,1.4-1.4H726.3"/>
		<path class="st4" d="M865.5,679.3c0,0,1.9-12.5,5.8-37.6c1-6.7-6-12.2-12.9-13.6c-6.9-1.3-15.2,1.6-16.9,7.8
			c-6.5,19.4-9.7,29.1-9.7,29.1S843,669.8,865.5,679.3"/>
		<path class="st3" d="M828.8,664.7c2.8-7,4.9-6.3,10.3-5.3c8.9,1.7,17.1,6,23.5,12.4c3.7,3.8,5.6,7.6,1,14.1
			c-6.4,8.9-13.7,16.5-20.5,10.8C845.8,691.3,846.7,678.3,828.8,664.7"/>
		<path class="st21" d="M723.6,635.1c0,0,0.5-2.2,1.5-6.7c0.3-3.3-2-8.1-7.2-10.5c-5.9-3-13.6-2.6-14.9,2c-2,7.1-1.8,11,1.8,13.1
			C715.4,638.9,722.6,640,723.6,635.1"/>
		<polygon class="st3" points="858.3,632.1 834.3,628 840.9,622.8 864.9,626.9 		"/>
		<path class="st22" d="M840.5,700.7c1.6,0,2.8,1.3,2.6,2.9l-0.7,7.4c-0.2,1.6-1.6,2.9-3.2,2.9h-71.8c-1.6,0-2.8-1.3-2.6-2.9
			l0.7-7.4c0.2-1.6,1.6-2.9,3.2-2.9H840.5"/>
		<path class="st6" d="M768.6,659.9c0,0,4.2-0.8,12.5-2.4c0,0,1.1,0.8,3.4,2.4c0,0,25.8,18.2,48,32.9c11.4,7.5,14.9,6.1,20.2-0.3
			s6.1-18.2-1.2-21.5c-39.3-18.4-58.9-27.6-58.9-27.6c-10.1-4.5-18.3-6.8-18.3-6.8c-2.5-0.8-6.4-1.5-10.3-0.7
			c-10.4,2.7-12.6,3.3-14.3,3.9c-1.2,0.4-1,2.3-0.6,3.4c0.4,1.2,1.2,2.8,2.4,2.5c7-1.8,10.4-2.6,10.4-2.6c2.1-0.5,2.4,0,0.7,1.2
			c-3.8,2.8-6.6,3.7-4.3,7.8C761.9,658.2,764.9,660.7,768.6,659.9"/>
		<path class="st23" d="M794.6,934.1c0.8,0,1.5,0.7,1.5,1.5v3.7c0,0.8-0.7,1.5-1.5,1.5H738c-0.8,0-1.5-0.7-1.5-1.5v-3.7
			c0-0.8,0.7-1.5,1.5-1.5H794.6"/>
		<path class="st24" d="M845.5,909.9c0.5,0,0.9,0.5,0.9,1l0,0c0,0.5-0.4,0.9-1,0.9l-14.5-0.6c-0.5,0-0.9-0.5-0.9-1l0,0
			c0-0.5,0.4-0.9,1-0.9L845.5,909.9"/>
		<path class="st24" d="M844.9,914c0.5,0,0.9,0.5,0.9,1l0,0c0,0.5-0.4,0.9-1,0.9l-13.4-0.6c-0.5,0-0.9-0.5-0.9-1l0,0
			c0-0.5,0.4-0.9,1-0.9L844.9,914"/>
		<path class="st24" d="M844.3,917.8c0.5,0,0.9,0.5,0.9,1l0,0c0,0.5-0.4,0.9-1,0.9l-12.3-0.5c-0.5,0-0.9-0.5-0.9-1l0,0
			c0-0.5,0.4-0.9,1-0.9L844.3,917.8"/>
		<path class="st24" d="M843.6,921.6c0.5,0,0.9,0.5,0.9,1l0,0c0,0.5-0.4,0.9-1,0.9l-11-0.5c-0.5,0-0.9-0.5-0.9-1l0,0
			c0-0.5,0.4-0.9,1-0.9L843.6,921.6"/>
		<path class="st24" d="M842.9,925.5c0.5,0,0.9,0.5,0.9,1l0,0c0,0.5-0.4,0.9-1,0.9l-9.7-0.4c-0.5,0-0.9-0.5-0.9-1l0,0
			c0-0.5,0.4-0.9,1-0.9L842.9,925.5"/>
		<path class="st24" d="M842.5,929.2c0.5,0,0.9,0.5,0.9,1l0,0c0,0.5-0.4,0.9-1,0.9l-9-0.4c-0.5,0-0.9-0.5-0.9-1l0,0
			c0-0.5,0.4-0.9,1-0.9L842.5,929.2"/>
		<path class="st24" d="M841.9,932.8c0.5,0,0.9,0.5,0.9,1l0,0c0,0.5-0.4,0.9-1,0.9l-7.8-0.3c-0.5,0-0.9-0.5-0.9-1l0,0
			c0-0.5,0.4-0.9,1-0.9L841.9,932.8"/>
		<path class="st24" d="M841.1,936.3c0.5,0,0.9,0.5,0.9,1l0,0c0,0.5-0.4,0.9-1,0.9l-6.5-0.3c-0.5,0-0.9-0.5-0.9-1l0,0
			c0-0.5,0.4-0.9,1-0.9L841.1,936.3"/>
		<path class="st24" d="M840.8,940.2c0.5,0,0.9,0.5,0.9,1l0,0c0,0.5-0.4,0.9-1,0.9l-5.8-0.2c-0.5,0-0.9-0.5-0.9-1l0,0
			c0-0.5,0.4-0.9,1-0.9L840.8,940.2"/>
		<path class="st24" d="M780.4,895.5c0.5,0,0.9,0.5,0.9,1l0,0c0,0.5-0.4,0.9-0.9,0.9l-5.8-0.5c-0.5,0-0.9-0.5-0.9-1l0,0
			c0-0.5,0.4-0.9,0.9-0.9L780.4,895.5"/>
		<path class="st24" d="M780.2,898.9c0.5,0,0.9,0.5,0.9,1l0,0c0,0.5-0.4,0.9-0.9,0.9l-5.8-0.5c-0.5,0-0.9-0.5-0.9-1l0,0
			c0-0.5,0.4-0.9,0.9-0.9L780.2,898.9"/>
		<path class="st24" d="M780.5,902.2c0.5,0,0.9,0.5,0.9,1l0,0c0,0.5-0.4,0.9-0.9,0.9l-5.8-0.5c-0.5,0-0.9-0.5-0.9-1l0,0
			c0-0.5,0.4-0.9,0.9-0.9L780.5,902.2"/>
		<path class="st24" d="M780.4,905.7c0.5,0,0.9,0.5,0.9,1l0,0c0,0.5-0.4,0.9-0.9,0.9l-5.8-0.5c-0.5,0-0.9-0.5-0.9-1l0,0
			c0-0.5,0.4-0.9,0.9-0.9L780.4,905.7"/>
		<path class="st24" d="M780.5,909.2c0.5,0,0.9,0.5,0.9,1l0,0c0,0.5-0.4,0.9-0.9,0.9l-5.8-0.5c-0.5,0-0.9-0.5-0.9-1l0,0
			c0-0.5,0.4-0.9,0.9-0.9L780.5,909.2"/>
		<path class="st24" d="M780.3,912.6c0.5,0,0.9,0.5,0.9,1l0,0c0,0.5-0.4,0.9-0.9,0.9l-5.8-0.5c-0.5,0-0.9-0.5-0.9-1l0,0
			c0-0.5,0.4-0.9,0.9-0.9L780.3,912.6"/>
		<path class="st24" d="M777.9,918.6c0.4,0.4,0.4,1,0,1.4l0,0c-0.3,0.4-0.9,0.4-1.3,0l-4.1-4.1c-0.4-0.4-0.4-1,0-1.4l0,0
			c0.3-0.4,0.9-0.4,1.3,0L777.9,918.6"/>
		<path class="st24" d="M774.5,920.2c0.4,0.4,0.4,1,0,1.4l0,0c-0.3,0.4-0.9,0.4-1.3,0l-4.1-4.1c-0.4-0.4-0.4-1,0-1.4l0,0
			c0.3-0.4,0.9-0.4,1.3,0L774.5,920.2"/>
		<path class="st24" d="M771.4,922.1c0.4,0.4,0.4,1,0,1.4l0,0c-0.3,0.4-0.9,0.4-1.3,0l-4.1-4.1c-0.4-0.4-0.4-1,0-1.4l0,0
			c0.3-0.4,0.9-0.4,1.3,0L771.4,922.1"/>
		<path class="st24" d="M768,924.4c0.4,0.4,0.4,1,0,1.4l0,0c-0.3,0.4-0.9,0.4-1.3,0l-4.1-4.1c-0.4-0.4-0.4-1,0-1.4l0,0
			c0.3-0.4,0.9-0.4,1.3,0L768,924.4"/>
		<path class="st0" d="M896.5,977.7c-1.3-3.9-2.9-7.8-4.8-11.5c-4.7,0.8-7.1,1.1-7.1,1.1c-4.3,1.6-6.9,5.9-6.3,10.4
			C878.3,977.8,884.4,977.7,896.5,977.7"/>
		<path class="st1" d="M936.6,977.8c4-30.8,5.7-47.7,5.7-47.7c-18.3,0.3-27.5,0.4-27.5,0.4c1.5,16.7,2.2,25,2.2,25
			c-10.2,6.1-15.3,9.1-15.3,9.1c-8.2,1.4-12.3,2.1-12.3,2.1c1,8.5,1.5,12.8,1.5,12.8S906.4,979.8,936.6,977.8"/>
		<path class="st2" d="M933.2,978c0,0,2-15,6.1-45c0,0-2.5-0.6-7.6-1.7c-4.5,31.5-6.8,47.2-6.8,47.2S927.7,978.3,933.2,978"/>
		<path class="st1" d="M993.3,999.7c0,0-0.9-9-2.7-27.1c0,0,0.9-10.8,2.8-32.3c-17.1,1.2-25.6,1.8-25.6,1.8
			c1.1,20.4,1.7,30.7,1.7,30.7c-2.3,16.2-3.4,24.3-3.4,24.3C968.9,999.5,978,1000.4,993.3,999.7"/>
		<path class="st2" d="M982.8,986c0,0,1.4-14.6,4.1-43.9c-8.7-0.6-13.3-0.2-13.8,1.2c1.5,27.8,2.3,41.8,2.3,41.8
			C977.7,986.5,980.5,986.9,982.8,986"/>
		<path class="st26" d="M944.9,927c0.2,6.4-2.4,6.9-8.2,6.9c0,0-6.4-0.3-19.1-0.8c-4.1-0.2-5-2.5-6.1-14.1
			c-3.9-38-6.1-60.3-6.7-67.1c0,0-0.6-8,0.9-45.1c26.9-43.9,39.7-24.5,38.2,58.4C943.9,896,944.3,916.6,944.9,927"/>
		<path class="st26" d="M968.7,944.3c-4.5,0-5.3-1.9-6.7-6.4c-6-23.5-12-35.9-14.7-50.2l-14.7-95.5c25.4,3.7,44.5,10.5,55.6,20.4
			l-3.5,58.6c-0.7,11.5,1.6,17.4,11,62.2c2.1,9.3,0.4,11.4-7.3,11.2C979.5,944.2,972.9,944.2,968.7,944.3"/>
		<path class="st26" d="M918.6,787.3c9.8,9.5,22.7,15.1,36.3,15.6C949.9,765.4,937.8,760.2,918.6,787.3"/>
		<path class="st26" d="M916.6,674.5l-9.5,73c-3.6,22.3-6.7,44-9.5,65c0,0,2.1,0,6.4,0c6.9-3.9,18.3-16.7,34.4-38.4
			c-0.8,5.9,6,22.4,20.2,49.5c16.5-1.5,31.5-9.7,41.1-22.4c0,0-4.5-13.1-13.5-39.4c-1.4-7.7-12.1-12.4-31.9-14.2h28.7l6.8-55.7
			c3-4.6,6.3-9.9,10-15.8c-5.9-2.7-14.7-5.8-26.4-9.3l-7.4,17.9L916.6,674.5z"/>
		<polygon class="st3" points="938,672.9 913.5,675.3 916.6,668.8 941.2,666.4 		"/>
		<path class="st4" d="M875.2,698.1c0,0,7.6-6.7,26.7-17.3c34.8-15.6,25.3,1.4,16.7,23.9c-15.8,11.9-27.6,19.9-34,20.2
			C884.3,720.5,881.7,710.3,875.2,698.1"/>
		<path class="st3" d="M905.8,682.2c0,0-0.1,0.9-0.1,2.6c-9.5,5.2-14.2,7.8-14.2,7.8c-2.9-4-4.4-6-4.4-6c4.6-2.6,6.9-3.8,6.9-3.8
			S897.9,682.6,905.8,682.2"/>
		<path class="st3" d="M870.3,697.5c13.8-11.7,18.9-1,19.1,18.9c-0.1,5.2-1.6,8.3-3.6,9.4c-5.2,2.8-7.9,4.2-7.9,4.2
			c-3.9,1.9-6.8,2.2-8.8,0.9C869.2,730.9,869.3,720,870.3,697.5"/>
		<path class="st5" d="M859,737.1c-4.7,0.4-9.2-3.7-8.4-12.5l3.7-45.8l14.9-6.8c0.2,0.6,0.7,1,1.3,1h0.4l4.2,42.3
			C876.6,728.7,871.2,736,859,737.1"/>
		<path class="st6" d="M868.4,669.7c2.7,2.2,3.5,4.3,2.5,6.3c-2.8,4.4-6.7,5.9-11.7,4.4C859.2,680.4,862.2,676.8,868.4,669.7"/>
		<path class="st7" d="M966,668.8c0,0-3.5-4.8-3-31.4c-20.4,6.2-27.9,20.7-27.9,20.7c3,9.5,1,16.9,1,16.9c3.9,5.1,10.6,7.5,17.1,6.2
			C959.7,679.8,964.7,675,966,668.8"/>
		<path class="st3" d="M945.8,747.5H943v-54.1h2.8V747.5z M964.6,659.3c3.6,2.4,5.4,4.2,9.1,6.6c-3.2,17.5-7.3,27.1-15.9,27.8
			c0,0-2.8-4.6-8.5-13.8C956.8,677.3,961.9,670.5,964.6,659.3z"/>
		<path class="st8" d="M916.1,638.6c2.3,22.2,5,35.2,8.1,39c1.3-0.3,2.5-1.2,3.2-2.6c-2.8-1.9-5.3-14.4-7.3-37.6
			C920.1,637.4,918.8,637.8,916.1,638.6"/>
		<path class="st9" d="M918.9,630.1c-2.7-1.7-7.3,0.1-13.9,5.5c1.8,1.6,7.3,3.6,16.3,6.2C921.4,641.8,920.6,637.9,918.9,630.1"/>
		<path class="st6" d="M959.3,656.8c2.5-7.7,2.9-9.2,0.4-16.7c0.6-7-1.8-13.7-6.2-18.8c-0.8,1.3-2.1,2.4-3.7,2.9
			c-0.7,0.3-1.4,0.6-2.2,0.7c-0.6,0.1-1.3,0.3-1.9,0.3l-1.2,0.1c-0.7,0.1-1.5,0.2-2.2,0.2H942l-0.1,0c-0.7,0.3-1.4,0.4-2.2,0.4
			l0.5,0l-0.4,0.2c-0.6,0.2-1.1,0.3-1.7,0.4c-0.3,0.1-0.7,0.2-1,0.2c-0.6,0.2-1.2,0.3-1.8,0.3l0.5,0l-0.9,0.3
			c-0.6,0.2-1.3,0.4-1.9,0.4l-0.3,0l-0.2,0c-0.5,0.2-1.1,0.4-1.6,0.5c-0.7,0.1-1.4,0.3-2,0.4l-1.4,0.1l-1.6,0.2
			c-0.6,0.1-1.2,0.1-1.8,0.1l-1.2,0.1l-1,0.1c-0.6,0.2-1.3,0.3-1.9,0.3c-1.1,0.3-2.2,0.4-3.2,0.2c-0.7,5.6,0.1,9.3,2.6,11
			c3.6,2.5,4.3,4.7,4,8.5c-0.2,4.1,0.7,7.2,2.5,9.3c6.2,7.2,8.2,10.7,9.3,13.8c1.2,3.6,9.7,2.8,15.7-3.1
			C954.1,666.4,957.3,662,959.3,656.8"/>
		<path class="st10" d="M942.1,605.1l-0.2,0L942.1,605.1L942.1,605.1z M952.6,629.9c-4.5-1.2-6.6-2.9-5.7-5.1
			c0.7-1.8,0.5-3.8-0.4-5.3l1,0c0.3,0,0.7,0,1,0l0,0l1,0.2c0.3,0.1,0.7,0.1,1,0.1c0.4,0.1,0.7,0.2,1.1,0.3c0.2,0.1,0.3,0.1,0.5,0.2
			c0.7,0.4,1.5,0.7,2.3,0.9l0.2,0c1,0.5,2.1,0.8,3.2,0.8c0.6,0.2,1.1,0.4,1.7,0.5c0.5,0.2,1,0.4,1.6,0.5c0.6,5.8,0.4,12.8-0.4,21.1
			c-0.6,3.2-4.8-0.8-5-4.5C955.7,633.4,955.4,630.8,952.6,629.9z"/>
		<path class="st6" d="M965.4,641.2c-0.1,0.9-0.7,1.6-1.5,2c-0.8,0.3-1.8,0.2-2.5-0.4c-4.5-4.1-5.3-11-1.8-16
			c1.2-1.8,3.2-2.8,5.4-2.6s4,1.6,4.8,3.5c0.8,2,0.7,4.3-0.8,5.9C966.9,635.7,965.7,638.2,965.4,641.2"/>
		<path class="st11" d="M968.6,633.1c7.1,24,9.5,38.7,7.1,44.1c-1.8,0.3-3.8,0-5.4-1.1c2.8-3.3,0.4-17.4-7.4-42.3
			C962.9,633.9,964.8,633.6,968.6,633.1"/>
		<path class="st26" d="M941.8,632.2c0,0,3.6-0.6,10.9-1.9c1.1-1.4,8.4-0.2,22.1,3.7c0,0-0.5-4.1-1.6-12.4
			c-2.6-16.5-7.5-22.3-18.1-27.6c-10.5-5.3-23.1-4.5-32.9,2.1c-9.8,6.5-15.3,17.8-14.5,29.6c0.1,2.9-0.9,5.4-3,7.6
			C919.5,631.9,931.9,631.6,941.8,632.2"/>
		<path class="st13" d="M952.3,629.6c0,0,7.3,1.7,21.9,5.2c-1.6,1.7-2.6,2.3-4,2.1c-14.8-3.1-22.1-4.6-22.1-4.6
			S949.4,631.4,952.3,629.6"/>
		<path class="st14" d="M976.4,633.1c-6.7-2-13.5-3.8-20.3-5.3c-1.3-0.3-2.6-0.5-5,0.4c-14.9-1.7-30.1-1.1-45.4,1.9
			c-0.4,0-0.6,0.4-0.6,0.7c0,0.4,0.3,0.7,0.7,0.7c13.7-2.6,27.8-3.3,42.5-2c-4,2-3.2,1.1-12.4,1.1c-11.5-0.1-21.9,0.8-31.2,2.7
			c-0.9,0.7-1.2,1.9-0.6,2.9c8-2,18.8-2.8,32.1-2.6c9.8,0.3,8.8,1,15.3-2.2c0.9-0.5,2.1-0.7,3.8-0.3c12.2,2.2,19.2,4.3,19.2,4.3
			C975.8,635.2,976.3,634.4,976.4,633.1"/>
		<polygon class="st15" points="966.2,621.3 969.8,621.7 966.5,623.2 967.3,626.8 964.8,624.1 961.6,626 963.4,622.8 960.6,620.4 
			964.3,621 965.7,617.7 		"/>
		<rect x="860.6" y="658.6" class="st16" width="21.6" height="11.4"/>
		<path class="st17" d="M919.4,653.6c0.4,0,0.8,0.3,0.8,0.8v1.9h0.6c0.6,0,1.1,0.5,1.1,1.1v3.9c0,0.6-0.5,1.1-1.1,1.1h-18.2
			c-0.6,0-1.1-0.5-1.1-1.1v-3.9c0-0.6,0.5-1.1,1.1-1.1h13.1v-1.9c0-0.4,0.3-0.8,0.8-0.8H919.4"/>
		<path class="st18" d="M922.3,667c0,0,16.3,6.4,49,19.2c1.1,0.5,1.2,1.4,0.5,3.2c-4.2,10.1-6.2,15.1-6.2,15.1
			c-1.1,2.5-2.4,2.9-6.1,0.6c-29.3-18.6-44-27.9-44-27.9c-3.3-2-5.5-5.6-5.6-9.5C909.9,667.7,914,667.5,922.3,667"/>
		<path class="st19" d="M884.1,655.8c0.8,0,1.4,0.7,1.4,1.6v2.5c0,0.9-0.6,1.6-1.4,1.6h-1.7l1.4,11.5h38.5v3.1c0,2.6-1,2.7-4.9,2.6
			h-4.9v7.2h-27.1l2.2,17.6c0.1,0.8-0.5,1.5-1.3,1.5h-8.2c-0.8,0-1.6-0.7-1.6-1.5l-5.2-42h-73c0,0-0.1,0-0.1,0h-10
			c-1.6,0-2.8-1.3-2.8-2.8c0-1.6,1.3-2.8,2.8-2.8h10.1h3.1v-6.6c0-0.8,0.6-1.4,1.3-1.4c0.7,0,1.3,0.7,1.3,1.4v6.6h4.9H884.1"/>
		<path class="st16" d="M925.4,658.7c1.6,0,2.9,1.3,2.9,2.9v10c0,1.6-1.3,2.9-2.9,2.9h-40.7c-1.6,0-2.9-1.3-2.9-2.9v-10
			c0-1.6,1.3-2.9,2.9-2.9H925.4"/>
		<path class="st20" d="M941.9,699.7c-46.3,29.5-74.6,31.4-109.9-27.9c0,0-3.8,0.5-7.9,0.5c37.9,63.9,70.9,64.2,120.3,30.2
			C944.3,702.5,943.9,701.4,941.9,699.7"/>
		<path class="st18" d="M867.3,661.1c0.8,0,1.4,0.6,1.4,1.4v10.2c0,0.8-0.6,1.4-1.4,1.4h-55.8c-0.8,0-1.4-0.6-1.4-1.4v-10.2
			c0-0.8,0.6-1.4,1.4-1.4H867.3"/>
		<path class="st4" d="M1006.6,721.5c0,0,1.9-12.5,5.8-37.6c1-6.7-6-12.2-12.9-13.6c-6.9-1.3-15.2,1.6-16.9,7.8
			c-6.5,19.4-9.7,29.1-9.7,29.1S984.1,712,1006.6,721.5"/>
		<path class="st3" d="M969.8,707c2.8-7,4.9-6.3,10.3-5.3c8.9,1.7,17.1,6,23.5,12.4c3.7,3.8,5.6,7.6,1,14.1
			c-6.4,8.9-13.7,16.5-20.5,10.8C986.9,733.5,987.8,720.5,969.8,707"/>
		<path class="st21" d="M864.7,677.3c0,0,0.5-2.2,1.5-6.7c0.3-3.3-2-8.1-7.2-10.5c-5.9-3-13.6-2.6-14.9,2c-2,7.1-1.8,11,1.8,13.1
			C856.5,681.1,863.6,682.2,864.7,677.3"/>
		<polygon class="st3" points="999.4,674.3 975.4,670.2 982,665 1006,669.1 		"/>
		<path class="st22" d="M981.6,742.9c1.6,0,2.8,1.3,2.6,2.9l-0.7,7.4c-0.2,1.6-1.6,2.9-3.2,2.9h-71.8c-1.6,0-2.8-1.3-2.6-2.9
			l0.7-7.4c0.2-1.6,1.6-2.9,3.2-2.9H981.6"/>
		<path class="st6" d="M909.7,702.1c0,0,4.2-0.8,12.5-2.4c0,0,1.1,0.8,3.4,2.4c0,0,25.8,18.2,48,32.9c11.4,7.5,14.9,6.1,20.2-0.3
			s6.1-18.2-1.2-21.5c-39.3-18.4-58.9-27.6-58.9-27.6c-10.1-4.5-18.3-6.8-18.3-6.8c-2.5-0.8-6.4-1.5-10.3-0.7
			c-10.4,2.7-12.6,3.3-14.3,3.9c-1.2,0.4-1,2.3-0.6,3.4c0.4,1.2,1.2,2.8,2.4,2.5c7-1.8,10.4-2.6,10.4-2.6c2.1-0.5,2.4,0,0.7,1.2
			c-3.8,2.8-6.6,3.7-4.3,7.8C903,700.4,906,702.9,909.7,702.1"/>
		<path class="st23" d="M935.6,976.3c0.8,0,1.5,0.7,1.5,1.5v3.7c0,0.8-0.7,1.5-1.5,1.5h-56.5c-0.8,0-1.5-0.7-1.5-1.5v-3.7
			c0-0.8,0.7-1.5,1.5-1.5H935.6"/>
		<path class="st24" d="M986.5,952.1c0.5,0,0.9,0.5,0.9,1l0,0c0,0.5-0.4,0.9-1,0.9l-14.5-0.6c-0.5,0-0.9-0.5-0.9-1l0,0
			c0-0.5,0.4-0.9,1-0.9L986.5,952.1"/>
		<path class="st24" d="M986,956.2c0.5,0,0.9,0.5,0.9,1l0,0c0,0.5-0.4,0.9-1,0.9l-13.4-0.6c-0.5,0-0.9-0.5-0.9-1l0,0
			c0-0.5,0.4-0.9,1-0.9L986,956.2"/>
		<path class="st24" d="M985.4,960c0.5,0,0.9,0.5,0.9,1l0,0c0,0.5-0.4,0.9-1,0.9l-12.3-0.5c-0.5,0-0.9-0.5-0.9-1l0,0
			c0-0.5,0.4-0.9,1-0.9L985.4,960"/>
		<path class="st24" d="M984.7,963.8c0.5,0,0.9,0.5,0.9,1l0,0c0,0.5-0.4,0.9-1,0.9l-11-0.5c-0.5,0-0.9-0.5-0.9-1l0,0
			c0-0.5,0.4-0.9,1-0.9L984.7,963.8"/>
		<path class="st24" d="M984,967.7c0.5,0,0.9,0.5,0.9,1l0,0c0,0.5-0.4,0.9-1,0.9l-9.7-0.4c-0.5,0-0.9-0.5-0.9-1l0,0
			c0-0.5,0.4-0.9,1-0.9L984,967.7"/>
		<path class="st24" d="M983.6,971.4c0.5,0,0.9,0.5,0.9,1l0,0c0,0.5-0.4,0.9-1,0.9l-9-0.4c-0.5,0-0.9-0.5-0.9-1l0,0
			c0-0.5,0.4-0.9,1-0.9L983.6,971.4"/>
		<path class="st24" d="M982.9,975c0.5,0,0.9,0.5,0.9,1l0,0c0,0.5-0.4,0.9-1,0.9l-7.8-0.3c-0.5,0-0.9-0.5-0.9-1l0,0
			c0-0.5,0.4-0.9,1-0.9L982.9,975"/>
		<path class="st24" d="M982.2,978.5c0.5,0,0.9,0.5,0.9,1l0,0c0,0.5-0.4,0.9-1,0.9l-6.5-0.3c-0.5,0-0.9-0.5-0.9-1l0,0
			c0-0.5,0.4-0.9,1-0.9L982.2,978.5"/>
		<path class="st24" d="M981.8,982.4c0.5,0,0.9,0.5,0.9,1l0,0c0,0.5-0.4,0.9-1,0.9l-5.8-0.2c-0.5,0-0.9-0.5-0.9-1l0,0
			c0-0.5,0.4-0.9,1-0.9L981.8,982.4"/>
		<path class="st24" d="M921.4,937.7c0.5,0,0.9,0.5,0.9,1l0,0c0,0.5-0.4,0.9-0.9,0.9l-5.8-0.5c-0.5,0-0.9-0.5-0.9-1l0,0
			c0-0.5,0.4-0.9,0.9-0.9L921.4,937.7"/>
		<path class="st24" d="M921.3,941.1c0.5,0,0.9,0.5,0.9,1l0,0c0,0.5-0.4,0.9-0.9,0.9l-5.8-0.5c-0.5,0-0.9-0.5-0.9-1l0,0
			c0-0.5,0.4-0.9,0.9-0.9L921.3,941.1"/>
		<path class="st24" d="M921.6,944.4c0.5,0,0.9,0.5,0.9,1l0,0c0,0.5-0.4,0.9-0.9,0.9l-5.8-0.5c-0.5,0-0.9-0.5-0.9-1l0,0
			c0-0.5,0.4-0.9,0.9-0.9L921.6,944.4"/>
		<path class="st24" d="M921.4,947.9c0.5,0,0.9,0.5,0.9,1l0,0c0,0.5-0.4,0.9-0.9,0.9l-5.8-0.5c-0.5,0-0.9-0.5-0.9-1l0,0
			c0-0.5,0.4-0.9,0.9-0.9L921.4,947.9"/>
		<path class="st24" d="M921.5,951.4c0.5,0,0.9,0.5,0.9,1l0,0c0,0.5-0.4,0.9-0.9,0.9l-5.8-0.5c-0.5,0-0.9-0.5-0.9-1l0,0
			c0-0.5,0.4-0.9,0.9-0.9L921.5,951.4"/>
		<path class="st24" d="M921.4,954.8c0.5,0,0.9,0.5,0.9,1l0,0c0,0.5-0.4,0.9-0.9,0.9l-5.8-0.5c-0.5,0-0.9-0.5-0.9-1l0,0
			c0-0.5,0.4-0.9,0.9-0.9L921.4,954.8"/>
		<path class="st24" d="M919,960.8c0.4,0.4,0.4,1,0,1.4l0,0c-0.3,0.4-0.9,0.4-1.3,0l-4.1-4.1c-0.4-0.4-0.4-1,0-1.4l0,0
			c0.3-0.4,0.9-0.4,1.3,0L919,960.8"/>
		<path class="st24" d="M915.6,962.4c0.4,0.4,0.4,1,0,1.4l0,0c-0.3,0.4-0.9,0.4-1.3,0l-4.1-4.1c-0.4-0.4-0.4-1,0-1.4l0,0
			c0.3-0.4,0.9-0.4,1.3,0L915.6,962.4"/>
		<path class="st24" d="M912.5,964.3c0.4,0.4,0.4,1,0,1.4l0,0c-0.3,0.4-0.9,0.4-1.3,0l-4.1-4.1c-0.4-0.4-0.4-1,0-1.4l0,0
			c0.3-0.4,0.9-0.4,1.3,0L912.5,964.3"/>
		<path class="st24" d="M909,966.6c0.4,0.4,0.4,1,0,1.4l0,0c-0.3,0.4-0.9,0.4-1.3,0l-4.1-4.1c-0.4-0.4-0.4-1,0-1.4l0,0
			c0.3-0.4,0.9-0.4,1.3,0L909,966.6"/>
		<path class="st0" d="M1029.5,1034.7c-1.3-3.9-2.9-7.8-4.8-11.5c-4.7,0.8-7.1,1.1-7.1,1.1c-4.3,1.6-6.9,5.9-6.3,10.4
			C1011.3,1034.8,1017.4,1034.8,1029.5,1034.7"/>
		<path class="st1" d="M1069.6,1034.8c4-30.8,5.7-47.7,5.7-47.7c-18.3,0.3-27.5,0.4-27.5,0.4c1.5,16.7,2.2,25,2.2,25
			c-10.2,6.1-15.3,9.1-15.3,9.1c-8.2,1.4-12.3,2.1-12.3,2.1c1,8.5,1.5,12.8,1.5,12.8S1039.4,1036.9,1069.6,1034.8"/>
		<path class="st2" d="M1066.2,1035.1c0,0,2-15,6.1-45c0,0-2.5-0.6-7.6-1.7c-4.5,31.5-6.8,47.2-6.8,47.2
			S1060.7,1035.4,1066.2,1035.1"/>
		<path class="st1" d="M1126.3,1056.8c0,0-0.9-9-2.7-27.1c0,0,0.9-10.8,2.8-32.3c-17.1,1.2-25.6,1.8-25.6,1.8
			c1.1,20.4,1.7,30.7,1.7,30.7c-2.3,16.2-3.4,24.3-3.4,24.3C1101.9,1056.6,1111,1057.4,1126.3,1056.8"/>
		<path class="st2" d="M1115.8,1043.1c0,0,1.4-14.6,4.1-43.9c-8.7-0.6-13.3-0.2-13.8,1.2c1.5,27.8,2.3,41.8,2.3,41.8
			C1110.7,1043.6,1113.5,1043.9,1115.8,1043.1"/>
		<path class="st27" d="M1077.9,984.1c0.2,6.4-2.4,6.9-8.2,6.9c0,0-6.4-0.3-19.1-0.8c-4.1-0.2-5-2.5-6.1-14.1
			c-3.9-38-6.1-60.3-6.7-67.1c0,0-0.6-8,0.9-45.1c26.9-43.9,39.7-24.5,38.2,58.4C1076.9,953.1,1077.3,973.7,1077.9,984.1"/>
		<path class="st27" d="M1101.7,1001.4c-4.5,0-5.3-1.9-6.7-6.4c-6-23.5-12-35.9-14.7-50.2l-14.7-95.5c25.4,3.7,44.5,10.5,55.6,20.4
			l-3.5,58.6c-0.7,11.5,1.6,17.4,11,62.2c2.1,9.3,0.4,11.4-7.3,11.2C1112.5,1001.3,1105.9,1001.2,1101.7,1001.4"/>
		<path class="st27" d="M1051.6,844.3c9.8,9.5,22.7,15.1,36.3,15.6C1082.9,822.5,1070.8,817.2,1051.6,844.3"/>
		<path class="st27" d="M1049.6,731.5l-9.5,73c-3.6,22.3-6.7,44-9.5,65c0,0,2.1,0,6.4,0c6.9-3.9,18.3-16.7,34.4-38.4
			c-0.8,5.9,6,22.4,20.2,49.5c16.5-1.5,31.5-9.7,41.1-22.4c0,0-4.5-13.1-13.5-39.4c-1.4-7.7-12.1-12.4-31.9-14.2h28.7l6.8-55.7
			c3-4.6,6.3-9.9,10-15.8c-5.9-2.7-14.7-5.8-26.4-9.3l-7.4,17.9L1049.6,731.5z"/>
		<polygon class="st3" points="1071,729.9 1046.5,732.3 1049.6,725.8 1074.2,723.4 		"/>
		<path class="st4" d="M1008.2,755.1c0,0,7.6-6.7,26.7-17.3c34.8-15.6,25.3,1.4,16.7,23.9c-15.8,11.9-27.6,19.9-34,20.2
			C1017.3,777.5,1014.7,767.3,1008.2,755.1"/>
		<path class="st3" d="M1038.8,739.3c0,0-0.1,0.9-0.1,2.6c-9.5,5.2-14.2,7.8-14.2,7.8c-2.9-4-4.4-6-4.4-6c4.6-2.6,6.9-3.8,6.9-3.8
			S1030.9,739.7,1038.8,739.3"/>
		<path class="st3" d="M1003.3,754.6c13.8-11.7,18.9-1,19.1,18.9c-0.1,5.2-1.6,8.3-3.6,9.4c-5.2,2.8-7.9,4.2-7.9,4.2
			c-3.9,1.9-6.8,2.2-8.8,0.9C1002.2,788,1002.3,777,1003.3,754.6"/>
		<path class="st5" d="M992,794.2c-4.7,0.4-9.2-3.7-8.4-12.5l3.7-45.8l14.9-6.8c0.2,0.6,0.7,1,1.3,1h0.4l4.2,42.3
			C1009.6,785.8,1004.2,793.1,992,794.2"/>
		<path class="st6" d="M1001.4,726.8c2.7,2.2,3.5,4.3,2.5,6.3c-2.8,4.4-6.7,5.9-11.7,4.4C992.2,737.5,995.2,733.9,1001.4,726.8"/>
		<path class="st7" d="M1099,725.9c0,0-3.5-4.8-3-31.4c-20.4,6.2-27.9,20.7-27.9,20.7c3,9.5,1,16.9,1,16.9
			c3.9,5.1,10.6,7.5,17.1,6.2S1097.7,732,1099,725.9"/>
		<path class="st3" d="M1078.8,804.6h-2.8v-54.1h2.8V804.6z M1097.6,716.4c3.6,2.4,5.4,4.2,9.1,6.6c-3.2,17.5-7.3,27.1-15.9,27.8
			c0,0-2.8-4.6-8.5-13.8C1089.8,734.4,1094.9,727.6,1097.6,716.4z"/>
		<path class="st8" d="M1049.1,695.6c2.3,22.2,5,35.2,8.1,39c1.3-0.3,2.5-1.2,3.2-2.6c-2.8-1.9-5.3-14.4-7.3-37.6
			C1053.1,694.5,1051.8,694.9,1049.1,695.6"/>
		<path class="st9" d="M1051.9,687.2c-2.7-1.7-7.3,0.1-13.9,5.5c1.8,1.6,7.3,3.6,16.3,6.2C1054.4,698.9,1053.6,695,1051.9,687.2"/>
		<path class="st6" d="M1092.3,713.9c2.5-7.7,2.9-9.2,0.4-16.7c0.6-7-1.8-13.7-6.2-18.8c-0.8,1.3-2.1,2.4-3.7,2.9
			c-0.7,0.3-1.4,0.6-2.2,0.7c-0.6,0.1-1.3,0.3-1.9,0.3l-1.2,0.1c-0.7,0.1-1.5,0.2-2.2,0.2h-0.2l-0.1,0c-0.7,0.3-1.4,0.4-2.2,0.4
			l0.5,0l-0.4,0.2c-0.6,0.2-1.1,0.3-1.7,0.4c-0.3,0.1-0.7,0.2-1,0.2c-0.6,0.2-1.2,0.3-1.8,0.3l0.5,0l-0.9,0.3
			c-0.6,0.2-1.3,0.4-1.9,0.4l-0.3,0l-0.2,0c-0.5,0.2-1.1,0.4-1.6,0.5c-0.7,0.1-1.4,0.3-2,0.4l-1.4,0.1l-1.6,0.2
			c-0.6,0.1-1.2,0.1-1.8,0.1l-1.2,0.1l-1,0.1c-0.6,0.2-1.3,0.3-1.9,0.3c-1.1,0.3-2.2,0.4-3.2,0.2c-0.7,5.6,0.1,9.3,2.6,11
			c3.6,2.5,4.3,4.7,4,8.5c-0.2,4.1,0.7,7.2,2.5,9.3c6.2,7.2,8.2,10.7,9.3,13.8c1.2,3.6,9.7,2.8,15.7-3.1
			C1087.2,723.4,1090.3,719.1,1092.3,713.9"/>
		<path class="st10" d="M1075.1,662.2l-0.2,0L1075.1,662.2L1075.1,662.2z M1085.6,687c-4.5-1.2-6.6-2.9-5.7-5.1
			c0.7-1.8,0.5-3.8-0.4-5.3l1,0c0.3,0,0.7,0,1,0l0,0l1,0.2c0.3,0.1,0.7,0.1,1,0.1c0.4,0.1,0.7,0.2,1.1,0.3c0.2,0.1,0.3,0.1,0.5,0.2
			c0.7,0.4,1.5,0.7,2.3,0.9l0.2,0c1,0.5,2.1,0.8,3.2,0.8c0.6,0.2,1.1,0.4,1.7,0.5c0.5,0.2,1,0.4,1.6,0.5c0.6,5.8,0.4,12.8-0.4,21.1
			c-0.6,3.2-4.8-0.8-5-4.5C1088.7,690.4,1088.4,687.8,1085.6,687z"/>
		<path class="st6" d="M1098.4,698.2c-0.1,0.9-0.7,1.6-1.5,2c-0.8,0.3-1.8,0.2-2.5-0.4c-4.5-4.1-5.3-11-1.8-16
			c1.2-1.8,3.2-2.8,5.4-2.6c2.1,0.2,4,1.6,4.8,3.5s0.7,4.3-0.8,5.9C1099.9,692.7,1098.7,695.2,1098.4,698.2"/>
		<path class="st11" d="M1101.6,690.2c7.1,24,9.5,38.7,7.1,44.1c-1.8,0.3-3.8,0-5.4-1.1c2.8-3.3,0.4-17.4-7.4-42.3
			C1095.9,691,1097.8,690.7,1101.6,690.2"/>
		<path class="st27" d="M1074.8,689.3c0,0,3.6-0.6,10.9-1.9c1.1-1.4,8.4-0.2,22.1,3.7c0,0-0.5-4.1-1.6-12.4
			c-2.6-16.5-7.5-22.3-18.1-27.6s-23.1-4.5-32.9,2.1c-9.8,6.5-15.3,17.8-14.5,29.6c0.1,2.9-0.9,5.4-3,7.6
			C1052.5,689,1064.9,688.6,1074.8,689.3"/>
		<path class="st13" d="M1085.3,686.7c0,0,7.3,1.7,21.9,5.2c-1.6,1.7-2.6,2.3-4,2.1c-14.8-3.1-22.1-4.6-22.1-4.6
			S1082.4,688.5,1085.3,686.7"/>
		<path class="st14" d="M1109.4,690.2c-6.7-2-13.5-3.8-20.3-5.3c-1.3-0.3-2.6-0.5-5,0.4c-14.9-1.7-30.1-1.1-45.4,1.9
			c-0.4,0-0.6,0.4-0.6,0.7c0,0.4,0.3,0.7,0.7,0.7c13.7-2.6,27.8-3.3,42.5-2c-4,2-3.2,1.1-12.4,1.1c-11.5-0.1-21.9,0.8-31.2,2.7
			c-0.9,0.7-1.2,2-0.6,2.9c8-2,18.8-2.8,32.1-2.6c9.8,0.3,8.8,1,15.3-2.2c0.9-0.5,2.1-0.7,3.8-0.3c12.2,2.2,19.2,4.3,19.2,4.3
			C1108.8,692.3,1109.3,691.5,1109.4,690.2"/>
		<polygon class="st15" points="1099.2,678.4 1102.8,678.7 1099.5,680.3 1100.3,683.9 1097.8,681.2 1094.6,683.1 1096.4,679.8 
			1093.6,677.4 1097.3,678.1 1098.7,674.7 		"/>
		<rect x="993.6" y="715.7" class="st16" width="21.6" height="11.4"/>
		<path class="st17" d="M1052.4,710.7c0.4,0,0.8,0.3,0.8,0.8v1.9h0.6c0.6,0,1.1,0.5,1.1,1.1v3.9c0,0.6-0.5,1.1-1.1,1.1h-18.2
			c-0.6,0-1.1-0.5-1.1-1.1v-3.9c0-0.6,0.5-1.1,1.1-1.1h13.1v-1.9c0-0.4,0.3-0.8,0.8-0.8H1052.4"/>
		<path class="st18" d="M1055.3,724c0,0,16.3,6.4,49,19.2c1.1,0.5,1.2,1.4,0.5,3.2c-4.2,10.1-6.2,15.1-6.2,15.1
			c-1.1,2.5-2.4,2.9-6.1,0.6c-29.3-18.6-44-27.9-44-27.9c-3.3-2-5.5-5.6-5.6-9.5C1042.9,724.8,1047,724.5,1055.3,724"/>
		<path class="st19" d="M1017.1,712.9c0.8,0,1.4,0.7,1.4,1.6v2.5c0,0.9-0.6,1.6-1.4,1.6h-1.7l1.4,11.5h38.5v3.1c0,2.6-1,2.7-4.9,2.6
			h-4.9v7.2h-27.1l2.2,17.6c0.1,0.8-0.5,1.5-1.3,1.5h-8.2c-0.8,0-1.6-0.7-1.6-1.5l-5.2-42h-73c0,0-0.1,0-0.1,0h-10
			c-1.6,0-2.8-1.3-2.8-2.8c0-1.6,1.3-2.8,2.8-2.8h10.1h3.1v-6.6c0-0.8,0.6-1.4,1.3-1.4c0.7,0,1.3,0.7,1.3,1.4v6.6h4.9H1017.1"/>
		<path class="st16" d="M1058.4,715.8c1.6,0,2.9,1.3,2.9,2.9v10c0,1.6-1.3,2.9-2.9,2.9h-40.7c-1.6,0-2.9-1.3-2.9-2.9v-10
			c0-1.6,1.3-2.9,2.9-2.9H1058.4"/>
		<path class="st20" d="M1074.9,756.7c-46.3,29.5-74.6,31.4-109.9-27.9c0,0-3.8,0.5-7.9,0.5c37.9,63.9,70.9,64.2,120.3,30.2
			C1077.3,759.6,1076.9,758.5,1074.9,756.7"/>
		<path class="st18" d="M1000.3,718.2c0.8,0,1.4,0.6,1.4,1.4v10.2c0,0.8-0.6,1.4-1.4,1.4h-55.8c-0.8,0-1.4-0.6-1.4-1.4v-10.2
			c0-0.8,0.6-1.4,1.4-1.4H1000.3"/>
		<path class="st4" d="M1139.6,778.6c0,0,1.9-12.5,5.8-37.6c1-6.7-6-12.2-12.9-13.6c-6.9-1.3-15.2,1.6-16.9,7.8
			c-6.5,19.4-9.7,29.1-9.7,29.1S1117.1,769.1,1139.6,778.6"/>
		<path class="st3" d="M1102.8,764c2.8-7,4.9-6.3,10.3-5.3c8.9,1.7,17.1,6,23.5,12.4c3.7,3.8,5.6,7.6,1,14.1
			c-6.4,8.9-13.7,16.5-20.5,10.8C1119.9,790.5,1120.8,777.5,1102.8,764"/>
		<path class="st21" d="M997.7,734.4c0,0,0.5-2.2,1.5-6.7c0.3-3.3-2-8.1-7.2-10.5c-5.9-3-13.6-2.6-14.9,2c-2,7.1-1.8,11,1.8,13.1
			C989.5,738.2,996.7,739.3,997.7,734.4"/>
		<polygon class="st3" points="1132.4,731.4 1108.4,727.2 1115,722.1 1139,726.2 		"/>
		<path class="st22" d="M1114.6,799.9c1.6,0,2.8,1.3,2.6,2.9l-0.7,7.4c-0.2,1.6-1.6,2.9-3.2,2.9h-71.8c-1.6,0-2.8-1.3-2.6-2.9
			l0.7-7.4c0.2-1.6,1.6-2.9,3.2-2.9H1114.6"/>
		<path class="st6" d="M1042.7,759.1c0,0,4.2-0.8,12.5-2.4c0,0,1.1,0.8,3.4,2.4c0,0,25.8,18.2,48,32.9c11.4,7.5,14.9,6.1,20.2-0.3
			s6.1-18.2-1.2-21.5c-39.3-18.4-58.9-27.6-58.9-27.6c-10.1-4.5-18.3-6.8-18.3-6.8c-2.5-0.8-6.4-1.5-10.3-0.7
			c-10.4,2.7-12.6,3.3-14.3,3.9c-1.2,0.4-1,2.3-0.6,3.4c0.4,1.2,1.2,2.8,2.4,2.5c7-1.8,10.4-2.6,10.4-2.6c2.1-0.5,2.4,0,0.7,1.2
			c-3.8,2.8-6.6,3.7-4.3,7.8C1036,757.5,1039,760,1042.7,759.1"/>
		<path class="st23" d="M1068.6,1033.4c0.8,0,1.5,0.7,1.5,1.5v3.7c0,0.8-0.7,1.5-1.5,1.5h-56.5c-0.8,0-1.5-0.7-1.5-1.5v-3.7
			c0-0.8,0.7-1.5,1.5-1.5H1068.6"/>
		<path class="st24" d="M1119.5,1009.2c0.5,0,0.9,0.5,0.9,1l0,0c0,0.5-0.4,0.9-1,0.9l-14.5-0.6c-0.5,0-0.9-0.5-0.9-1l0,0
			c0-0.5,0.4-0.9,1-0.9L1119.5,1009.2"/>
		<path class="st24" d="M1119,1013.3c0.5,0,0.9,0.5,0.9,1l0,0c0,0.5-0.4,0.9-1,0.9l-13.4-0.6c-0.5,0-0.9-0.5-0.9-1l0,0
			c0-0.5,0.4-0.9,1-0.9L1119,1013.3"/>
		<path class="st24" d="M1118.4,1017.1c0.5,0,0.9,0.5,0.9,1l0,0c0,0.5-0.4,0.9-1,0.9l-12.3-0.5c-0.5,0-0.9-0.5-0.9-1l0,0
			c0-0.5,0.4-0.9,1-0.9L1118.4,1017.1"/>
		<path class="st24" d="M1117.7,1020.9c0.5,0,0.9,0.5,0.9,1l0,0c0,0.5-0.4,0.9-1,0.9l-11-0.5c-0.5,0-0.9-0.5-0.9-1l0,0
			c0-0.5,0.4-0.9,1-0.9L1117.7,1020.9"/>
		<path class="st24" d="M1117,1024.8c0.5,0,0.9,0.5,0.9,1l0,0c0,0.5-0.4,0.9-1,0.9l-9.7-0.4c-0.5,0-0.9-0.5-0.9-1l0,0
			c0-0.5,0.4-0.9,1-0.9L1117,1024.8"/>
		<path class="st24" d="M1116.6,1028.4c0.5,0,0.9,0.5,0.9,1l0,0c0,0.5-0.4,0.9-1,0.9l-9-0.4c-0.5,0-0.9-0.5-0.9-1l0,0
			c0-0.5,0.4-0.9,1-0.9L1116.6,1028.4"/>
		<path class="st24" d="M1115.9,1032c0.5,0,0.9,0.5,0.9,1l0,0c0,0.5-0.4,0.9-1,0.9l-7.8-0.3c-0.5,0-0.9-0.5-0.9-1l0,0
			c0-0.5,0.4-0.9,1-0.9L1115.9,1032"/>
		<path class="st24" d="M1115.2,1035.6c0.5,0,0.9,0.5,0.9,1l0,0c0,0.5-0.4,0.9-1,0.9l-6.5-0.3c-0.5,0-0.9-0.5-0.9-1l0,0
			c0-0.5,0.4-0.9,1-0.9L1115.2,1035.6"/>
		<path class="st24" d="M1114.8,1039.5c0.5,0,0.9,0.5,0.9,1l0,0c0,0.5-0.4,0.9-1,0.9l-5.8-0.2c-0.5,0-0.9-0.5-0.9-1l0,0
			c0-0.5,0.4-0.9,1-0.9L1114.8,1039.5"/>
		<path class="st24" d="M1054.4,994.7c0.5,0,0.9,0.5,0.9,1l0,0c0,0.5-0.4,0.9-0.9,0.9l-5.8-0.5c-0.5,0-0.9-0.5-0.9-1l0,0
			c0-0.5,0.4-0.9,0.9-0.9L1054.4,994.7"/>
		<path class="st24" d="M1054.3,998.2c0.5,0,0.9,0.5,0.9,1l0,0c0,0.5-0.4,0.9-0.9,0.9l-5.8-0.5c-0.5,0-0.9-0.5-0.9-1l0,0
			c0-0.5,0.4-0.9,0.9-0.9L1054.3,998.2"/>
		<path class="st24" d="M1054.6,1001.5c0.5,0,0.9,0.5,0.9,1l0,0c0,0.5-0.4,0.9-0.9,0.9l-5.8-0.5c-0.5,0-0.9-0.5-0.9-1l0,0
			c0-0.5,0.4-0.9,0.9-0.9L1054.6,1001.5"/>
		<path class="st24" d="M1054.4,1005c0.5,0,0.9,0.5,0.9,1l0,0c0,0.5-0.4,0.9-0.9,0.9l-5.8-0.5c-0.5,0-0.9-0.5-0.9-1l0,0
			c0-0.5,0.4-0.9,0.9-0.9L1054.4,1005"/>
		<path class="st24" d="M1054.5,1008.5c0.5,0,0.9,0.5,0.9,1l0,0c0,0.5-0.4,0.9-0.9,0.9l-5.8-0.5c-0.5,0-0.9-0.5-0.9-1l0,0
			c0-0.5,0.4-0.9,0.9-0.9L1054.5,1008.5"/>
		<path class="st24" d="M1054.4,1011.9c0.5,0,0.9,0.5,0.9,1l0,0c0,0.5-0.4,0.9-0.9,0.9l-5.8-0.5c-0.5,0-0.9-0.5-0.9-1l0,0
			c0-0.5,0.4-0.9,0.9-0.9L1054.4,1011.9"/>
		<path class="st24" d="M1052,1017.9c0.4,0.4,0.4,1,0,1.4l0,0c-0.3,0.4-0.9,0.4-1.3,0l-4.1-4.1c-0.4-0.4-0.4-1,0-1.4l0,0
			c0.3-0.4,0.9-0.4,1.3,0L1052,1017.9"/>
		<path class="st24" d="M1048.6,1019.5c0.4,0.4,0.4,1,0,1.4l0,0c-0.3,0.4-0.9,0.4-1.3,0l-4.1-4.1c-0.4-0.4-0.4-1,0-1.4l0,0
			c0.3-0.4,0.9-0.4,1.3,0L1048.6,1019.5"/>
		<path class="st24" d="M1045.5,1021.4c0.4,0.4,0.4,1,0,1.4l0,0c-0.3,0.4-0.9,0.4-1.3,0l-4.1-4.1c-0.4-0.4-0.4-1,0-1.4l0,0
			c0.3-0.4,0.9-0.4,1.3,0L1045.5,1021.4"/>
		<path class="st24" d="M1042,1023.7c0.4,0.4,0.4,1,0,1.4l0,0c-0.3,0.4-0.9,0.4-1.3,0l-4.1-4.1c-0.4-0.4-0.4-1,0-1.4l0,0
			c0.3-0.4,0.9-0.4,1.3,0L1042,1023.7"/>
	</g>
	<path class="st0" d="M868.9,1092.1c-1.4-4.1-3-8-5-11.9c-4.9,0.8-7.3,1.2-7.3,1.2c-4.4,1.6-7.1,6.1-6.5,10.8
		C850.1,1092.2,856.4,1092.2,868.9,1092.1"/>
	<path class="st1" d="M910.5,1092.2c4.2-32,5.9-49.5,5.9-49.5c-19,0.3-28.5,0.4-28.5,0.4c1.5,17.3,2.3,25.9,2.3,25.9
		c-10.6,6.3-15.9,9.4-15.9,9.4c-8.5,1.4-12.8,2.1-12.8,2.1c1.1,8.9,1.6,13.3,1.6,13.3S879.2,1094.3,910.5,1092.2"/>
	<path class="st2" d="M907,1092.4c0,0,2.1-15.6,6.3-46.7c0,0-2.6-0.6-7.8-1.7c-4.7,32.6-7,48.9-7,48.9S901.3,1092.8,907,1092.4"/>
	<path class="st1" d="M969.3,1115c0,0-0.9-9.4-2.8-28.1c0,0,1-11.2,2.9-33.5c-17.7,1.2-26.6,1.8-26.6,1.8
		c1.2,21.2,1.8,31.8,1.8,31.8c-2.4,16.8-3.6,25.2-3.6,25.2C944,1114.7,953.5,1115.6,969.3,1115"/>
	<path class="st2" d="M958.5,1100.7c0,0,1.4-15.2,4.3-45.5c-9-0.6-13.8-0.2-14.3,1.3c1.6,28.9,2.4,43.3,2.4,43.3
		C953.2,1101.3,956,1101.6,958.5,1100.7"/>
	<path class="st28" d="M919.2,1039.6c0.2,6.7-2.5,7.1-8.5,7.1c0,0-6.6-0.3-19.8-0.9c-4.3-0.2-5.2-2.6-6.4-14.6
		c-4-39.4-6.4-62.6-7-69.6c0,0-0.6-8.3,0.9-46.8c27.9-45.5,41.1-25.4,39.6,60.5C918.1,1007.4,918.5,1028.8,919.2,1039.6"/>
	<path class="st28" d="M943.8,1057.5c-4.7,0-5.5-2-6.9-6.7c-6.2-24.4-12.5-37.2-15.3-52.1l-15.2-99.1c26.4,3.9,46.2,10.9,57.7,21.1
		l-3.7,60.8c-0.7,11.9,1.6,18,11.4,64.5c2.2,9.6,0.4,11.9-7.5,11.6C955,1057.4,948.2,1057.3,943.8,1057.5"/>
	<path class="st28" d="M891.9,894.6c10.1,9.8,23.5,15.6,37.6,16.2C924.3,872,911.8,866.5,891.9,894.6"/>
	<path class="st28" d="M889.8,777.7l-9.8,75.7c-3.7,23.1-7,45.6-9.8,67.4c0,0,2.2,0,6.6,0c7.1-4.1,19-17.4,35.7-39.9
		c-0.8,6.1,6.2,23.2,21,51.3c17.1-1.6,32.7-10,42.6-23.2c0,0-4.7-13.6-14-40.8c-1.5-8-12.5-12.9-33.1-14.8h29.7l7-57.8
		c3.1-4.8,6.6-10.3,10.4-16.4c-6.2-2.8-15.3-6-27.4-9.6l-7.6,18.6L889.8,777.7z"/>
	<polygon class="st3" points="912,776 886.5,778.5 889.8,771.8 915.3,769.3 	"/>
	<path class="st4" d="M846.9,802.1c0,0,7.9-6.9,27.7-18c36-16.2,26.2,1.4,17.3,24.8c-16.4,12.3-28.7,20.6-35.2,21
		C856.3,825.4,853.6,814.8,846.9,802.1"/>
	<path class="st3" d="M878.6,785.7c0,0-0.1,0.9-0.1,2.7c-9.8,5.4-14.7,8-14.7,8c-3-4.1-4.5-6.2-4.5-6.2c4.8-2.7,7.1-4,7.1-4
		S870.4,786.1,878.6,785.7"/>
	<path class="st3" d="M841.8,801.6c14.4-12.1,19.6-1.1,19.8,19.6c-0.2,5.3-1.7,8.6-3.8,9.7c-5.4,2.9-8.2,4.4-8.2,4.4
		c-4,1.9-7,2.3-9.1,0.9C840.6,836.2,840.7,824.8,841.8,801.6"/>
	<path class="st5" d="M830,842.6c-4.9,0.4-9.5-3.9-8.8-13l3.8-47.4l15.4-7.1c0.2,0.6,0.8,1,1.4,1h0.4l4.4,43.8
		C848.3,833.9,842.7,841.5,830,842.6"/>
	<path class="st6" d="M839.8,772.8c2.8,2.3,3.6,4.4,2.5,6.5c-2.9,4.6-7,6.1-12.1,4.6C830.2,783.8,833.4,780.1,839.8,772.8"/>
	<path class="st7" d="M941,771.8c0,0-3.6-4.9-3.1-32.5c-21.2,6.5-29,21.4-29,21.4c3.1,9.9,1,17.5,1,17.5c4,5.3,11,7.8,17.8,6.4
		C934.5,783.2,939.7,778.2,941,771.8"/>
	<path class="st3" d="M920.1,853.4h-2.9v-56.1h2.9V853.4z M939.5,762c3.7,2.5,5.6,4.4,9.4,6.8c-3.3,18.2-7.6,28.1-16.5,28.8
		c0,0-2.9-4.8-8.8-14.4C931.5,780.6,936.8,773.5,939.5,762z"/>
	<path class="st8" d="M889.3,740.4c2.4,23.1,5.1,36.5,8.4,40.5c1.3-0.3,2.5-1.3,3.3-2.7c-2.9-1.9-5.4-14.9-7.6-39
		C893.4,739.3,892,739.7,889.3,740.4"/>
	<path class="st9" d="M892.2,731.7c-2.8-1.8-7.6,0.1-14.4,5.7c1.9,1.6,7.5,3.8,16.9,6.4C894.7,743.8,893.9,739.7,892.2,731.7"/>
	<path class="st6" d="M934,759.4c2.6-8,3-9.6,0.4-17.4c0.6-7.2-1.8-14.2-6.4-19.5c-0.9,1.4-2.2,2.5-3.8,3.1
		c-0.8,0.3-1.5,0.6-2.3,0.7c-0.7,0.1-1.3,0.3-2,0.3l-1.2,0.1c-0.8,0.1-1.5,0.2-2.3,0.2h-0.2l-0.1,0c-0.7,0.3-1.5,0.4-2.2,0.5l0.5,0
		l-0.4,0.2c-0.6,0.2-1.2,0.4-1.8,0.4c-0.3,0.1-0.7,0.2-1.1,0.2c-0.6,0.2-1.2,0.3-1.8,0.3l0.5,0l-1,0.4c-0.6,0.2-1.3,0.4-2,0.4
		l-0.3,0l-0.2,0c-0.6,0.2-1.1,0.4-1.7,0.5c-0.7,0.1-1.4,0.3-2.1,0.4l-1.5,0.2l-1.6,0.2c-0.6,0.1-1.2,0.1-1.8,0.1l-1.2,0.1l-1,0.1
		c-0.7,0.2-1.3,0.3-2,0.3c-1.1,0.3-2.3,0.4-3.4,0.2c-0.8,5.8,0.1,9.7,2.7,11.4c3.7,2.6,4.4,4.9,4.2,8.8c-0.2,4.2,0.7,7.4,2.6,9.6
		c6.4,7.5,8.5,11.1,9.6,14.4c1.3,3.7,10,2.9,16.3-3.2C928.7,769.3,932,764.8,934,759.4"/>
	<path class="st10" d="M916.3,705.8l-0.2,0L916.3,705.8L916.3,705.8z M927.1,731.5c-4.7-1.3-6.8-3-5.9-5.3c0.7-1.9,0.5-3.9-0.4-5.5
		l1.1,0c0.4,0,0.7,0,1.1,0l0,0l1,0.2c0.4,0.1,0.7,0.1,1.1,0.1c0.4,0.1,0.7,0.2,1.1,0.3c0.2,0.1,0.4,0.1,0.5,0.2
		c0.8,0.4,1.6,0.8,2.4,0.9l0.2,0c1.1,0.5,2.2,0.8,3.3,0.8c0.6,0.3,1.2,0.4,1.8,0.5c0.5,0.2,1.1,0.4,1.6,0.5c0.6,6,0.5,13.3-0.4,21.9
		c-0.6,3.3-5-0.8-5.2-4.7C930.4,735,930,732.3,927.1,731.5z"/>
	<path class="st6" d="M940.3,743.1c-0.1,0.9-0.7,1.7-1.6,2c-0.9,0.3-1.8,0.2-2.5-0.4c-4.7-4.3-5.5-11.4-1.8-16.6
		c1.2-1.8,3.4-2.9,5.6-2.6s4.1,1.6,5,3.6c0.9,2,0.7,4.4-0.8,6.1C942,737.4,940.7,740,940.3,743.1"/>
	<path class="st11" d="M943.7,734.8c7.4,24.9,9.8,40.2,7.4,45.8c-1.9,0.3-3.9,0-5.6-1.1c2.9-3.4,0.4-18-7.7-43.9
		C937.8,735.6,939.8,735.3,943.7,734.8"/>
	<path class="st28" d="M915.9,733.8c0,0,3.8-0.6,11.3-1.9c1.1-1.5,8.8-0.2,22.9,3.8c0,0-0.6-4.3-1.7-12.8
		c-2.7-17.1-7.8-23.1-18.7-28.6s-24-4.7-34.1,2.1c-10.2,6.8-15.9,18.5-15.1,30.7c0.1,3-0.9,5.6-3.2,7.8
		C892.8,733.5,905.7,733.2,915.9,733.8"/>
	<path class="st13" d="M926.8,731.2c0,0,7.6,1.8,22.7,5.4c-1.6,1.7-2.7,2.4-4.1,2.2c-15.3-3.2-23-4.7-23-4.7S923.8,733,926.8,731.2"
		/>
	<path class="st14" d="M951.8,734.8c-7-2.1-14-3.9-21-5.5c-1.4-0.3-2.7-0.6-5.2,0.4c-15.5-1.8-31.2-1.1-47.1,2
		c-0.4,0-0.7,0.4-0.6,0.8c0,0.4,0.3,0.7,0.7,0.7c14.2-2.7,28.9-3.4,44.1-2c-4.2,2-3.3,1.1-12.9,1.2c-12-0.1-22.8,0.8-32.4,2.8
		c-1,0.7-1.3,2-0.6,3c8.3-2.1,19.5-2.9,33.3-2.7c10.2,0.3,9.1,1.1,15.8-2.3c1-0.5,2.2-0.7,3.9-0.3c12.7,2.3,19.9,4.5,19.9,4.5
		C951.1,736.9,951.7,736.2,951.8,734.8"/>
	<polygon class="st15" points="941.2,722.5 945,722.9 941.5,724.5 942.4,728.2 939.8,725.5 936.5,727.4 938.3,724.1 935.5,721.6 
		939.2,722.2 940.7,718.8 	"/>
	<rect x="831.7" y="761.2" class="st16" width="22.5" height="11.8"/>
	<path class="st17" d="M892.6,756c0.4,0,0.8,0.4,0.8,0.8v1.9h0.6c0.6,0,1.2,0.5,1.2,1.2v4c0,0.6-0.5,1.2-1.2,1.2h-18.8
		c-0.6,0-1.2-0.5-1.2-1.2v-4c0-0.6,0.5-1.2,1.2-1.2h13.5v-1.9c0-0.4,0.4-0.8,0.8-0.8H892.6"/>
	<path class="st18" d="M895.7,769.9c0,0,16.9,6.7,50.8,20c1.1,0.5,1.3,1.4,0.5,3.3c-4.3,10.4-6.5,15.6-6.5,15.6
		c-1.1,2.6-2.5,3-6.4,0.7c-30.4-19.3-45.6-28.9-45.6-28.9c-3.5-2.1-5.7-5.8-5.8-9.9C882.8,770.7,887.1,770.4,895.7,769.9"/>
	<path class="st19" d="M856.1,758.3c0.8,0,1.5,0.7,1.5,1.6v2.6c0,0.9-0.7,1.6-1.5,1.6h-1.8l1.5,11.9h39.9v3.2c0,2.7-1.1,2.8-5.1,2.7
		h-5v7.4h-28.1l2.3,18.2c0.1,0.8-0.5,1.5-1.3,1.5h-8.5c-0.8,0-1.6-0.7-1.7-1.5l-5.4-43.5H767c0,0-0.1,0-0.1,0h-10.4
		c-1.6,0-2.9-1.3-2.9-2.9c0-1.6,1.3-2.9,2.9-2.9H767h3.2v-6.8c0-0.8,0.6-1.4,1.3-1.4c0.8,0,1.3,0.7,1.3,1.4v6.8h5.1H856.1"/>
	<path class="st16" d="M898.9,761.3c1.6,0,3,1.3,3,3v10.4c0,1.6-1.3,3-3,3h-42.2c-1.6,0-3-1.3-3-3v-10.4c0-1.6,1.3-3,3-3H898.9"/>
	<path class="st20" d="M916,803.8c-48,30.6-77.4,32.6-114-28.9c0,0-4,0.5-8.2,0.5c39.3,66.2,73.5,66.6,124.8,31.3
		C918.5,806.8,918.1,805.6,916,803.8"/>
	<path class="st18" d="M838.7,763.8c0.8,0,1.5,0.7,1.5,1.5v10.6c0,0.8-0.7,1.5-1.5,1.5h-57.9c-0.8,0-1.5-0.7-1.5-1.5v-10.6
		c0-0.8,0.7-1.5,1.5-1.5H838.7"/>
	<path class="st4" d="M983.1,826.5c0,0,2-13,6-39c1.1-6.9-6.2-12.7-13.4-14.1c-7.2-1.4-15.7,1.7-17.6,8.1
		c-6.7,20.1-10.1,30.1-10.1,30.1S959.8,816.6,983.1,826.5"/>
	<path class="st3" d="M945,811.3c2.9-7.3,5.1-6.6,10.7-5.5c9.2,1.7,17.7,6.2,24.4,12.9c3.8,3.9,5.8,7.9,1,14.6
		c-6.7,9.3-14.2,17.1-21.3,11.2C962.7,838.9,963.6,825.4,945,811.3"/>
	<path class="st21" d="M836,780.6c0,0,0.5-2.3,1.6-6.9c0.3-3.4-2.1-8.4-7.5-10.9c-6.2-3.1-14.1-2.7-15.5,2
		c-2.1,7.3-1.9,11.4,1.9,13.5C827.4,784.6,834.9,785.7,836,780.6"/>
	<polygon class="st3" points="975.6,777.5 950.8,773.2 957.6,767.8 982.5,772.1 	"/>
	<path class="st22" d="M957.2,848.6c1.7,0,2.9,1.4,2.7,3l-0.8,7.6c-0.2,1.7-1.7,3-3.3,3h-74.4c-1.7,0-2.9-1.4-2.7-3l0.8-7.6
		c0.2-1.7,1.7-3,3.3-3H957.2"/>
	<path class="st6" d="M882.7,806.3c0,0,4.3-0.8,13-2.5c0,0,1.2,0.8,3.6,2.5c0,0,26.8,18.8,49.7,34.1c11.8,7.8,15.5,6.3,21-0.3
		s6.3-18.8-1.3-22.3c-40.7-19.1-61.1-28.6-61.1-28.6c-10.5-4.7-19-7-19-7c-2.6-0.8-6.7-1.6-10.7-0.7c-10.8,2.8-13,3.5-14.8,4
		c-1.2,0.4-1,2.3-0.6,3.6c0.4,1.2,1.3,2.9,2.5,2.6c7.2-1.8,10.8-2.7,10.8-2.7c2.2-0.5,2.5,0,0.8,1.2c-4,2.9-6.8,3.8-4.5,8.1
		C875.7,804.6,878.8,807.2,882.7,806.3"/>
	<path class="st23" d="M909.5,1090.7c0.8,0,1.5,0.7,1.5,1.5v3.8c0,0.8-0.7,1.5-1.5,1.5h-58.6c-0.8,0-1.5-0.7-1.5-1.5v-3.8
		c0-0.8,0.7-1.5,1.5-1.5H909.5"/>
	<path class="st24" d="M962.3,1065.6c0.5,0,1,0.5,1,1l0,0c0,0.5-0.5,1-1,0.9l-15-0.6c-0.5,0-1-0.5-1-1l0,0c0-0.5,0.5-1,1-0.9
		L962.3,1065.6"/>
	<path class="st24" d="M961.7,1069.8c0.5,0,1,0.5,1,1l0,0c0,0.5-0.5,1-1,0.9l-13.9-0.6c-0.5,0-1-0.5-1-1l0,0c0-0.5,0.5-1,1-0.9
		L961.7,1069.8"/>
	<path class="st24" d="M961.1,1073.8c0.5,0,1,0.5,1,1l0,0c0,0.5-0.5,1-1,0.9l-12.8-0.5c-0.5,0-1-0.5-1-1l0,0c0-0.5,0.5-1,1-0.9
		L961.1,1073.8"/>
	<path class="st24" d="M960.4,1077.8c0.5,0,1,0.5,1,1l0,0c0,0.5-0.5,1-1,0.9l-11.4-0.5c-0.5,0-1-0.5-1-1l0,0c0-0.5,0.5-1,1-0.9
		L960.4,1077.8"/>
	<path class="st24" d="M959.7,1081.7c0.5,0,1,0.5,1,1l0,0c0,0.5-0.5,1-1,0.9l-10.1-0.4c-0.5,0-1-0.5-1-1l0,0c0-0.5,0.5-1,1-0.9
		L959.7,1081.7"/>
	<path class="st24" d="M959.2,1085.6c0.5,0,1,0.5,1,1l0,0c0,0.5-0.5,1-1,0.9l-9.3-0.4c-0.5,0-1-0.5-1-1l0,0c0-0.5,0.5-1,1-0.9
		L959.2,1085.6"/>
	<path class="st24" d="M958.6,1089.3c0.5,0,1,0.5,1,1l0,0c0,0.5-0.5,1-1,0.9l-8.1-0.3c-0.5,0-1-0.5-1-1l0,0c0-0.5,0.5-1,1-0.9
		L958.6,1089.3"/>
	<path class="st24" d="M957.8,1093c0.5,0,1,0.5,1,1l0,0c0,0.5-0.5,1-1,0.9l-6.7-0.3c-0.5,0-1-0.5-1-1l0,0c0-0.5,0.5-1,1-0.9
		L957.8,1093"/>
	<path class="st24" d="M957.4,1097c0.5,0,1,0.5,1,1l0,0c0,0.5-0.5,1-1,0.9l-6-0.2c-0.5,0-1-0.5-1-1l0,0c0-0.5,0.5-1,1-0.9
		L957.4,1097"/>
	<path class="st24" d="M894.8,1050.6c0.5,0,1,0.5,1,1.1l0,0c0,0.5-0.4,1-1,0.9l-6-0.5c-0.5,0-1-0.5-1-1.1l0,0c0-0.5,0.4-1,1-0.9
		L894.8,1050.6"/>
	<path class="st24" d="M894.6,1054.2c0.5,0,1,0.5,1,1.1l0,0c0,0.5-0.4,1-1,0.9l-6-0.5c-0.5,0-1-0.5-1-1.1l0,0c0-0.5,0.4-1,1-0.9
		L894.6,1054.2"/>
	<path class="st24" d="M895,1057.6c0.5,0,1,0.5,1,1.1l0,0c0,0.5-0.4,1-1,0.9l-6-0.5c-0.5,0-1-0.5-1-1.1l0,0c0-0.5,0.4-1,1-0.9
		L895,1057.6"/>
	<path class="st24" d="M894.8,1061.2c0.5,0,1,0.5,1,1.1l0,0c0,0.5-0.4,1-1,0.9l-6-0.5c-0.5,0-1-0.5-1-1.1l0,0c0-0.5,0.4-1,1-0.9
		L894.8,1061.2"/>
	<path class="st24" d="M894.9,1064.9c0.5,0,1,0.5,1,1.1l0,0c0,0.5-0.4,1-1,0.9l-6-0.5c-0.5,0-1-0.5-1-1.1l0,0c0-0.5,0.4-1,1-0.9
		L894.9,1064.9"/>
	<path class="st24" d="M894.7,1068.4c0.5,0,1,0.5,1,1.1l0,0c0,0.5-0.4,1-1,0.9l-6-0.5c-0.5,0-1-0.5-1-1.1l0,0c0-0.5,0.4-1,1-0.9
		L894.7,1068.4"/>
	<path class="st24" d="M892.2,1074.6c0.4,0.4,0.4,1,0,1.4l0,0c-0.4,0.4-1,0.4-1.3,0l-4.2-4.3c-0.4-0.4-0.4-1,0-1.4l0,0
		c0.4-0.4,1-0.4,1.3,0L892.2,1074.6"/>
	<path class="st24" d="M888.7,1076.3c0.4,0.4,0.4,1,0,1.4l0,0c-0.4,0.4-1,0.4-1.3,0l-4.2-4.3c-0.4-0.4-0.4-1,0-1.4l0,0
		c0.4-0.4,1-0.4,1.3,0L888.7,1076.3"/>
	<path class="st24" d="M885.5,1078.3c0.4,0.4,0.4,1,0,1.4l0,0c-0.4,0.4-1,0.4-1.3,0l-4.2-4.3c-0.4-0.4-0.4-1,0-1.4l0,0
		c0.4-0.4,1-0.4,1.3,0L885.5,1078.3"/>
	<path class="st24" d="M881.9,1080.6c0.4,0.4,0.4,1,0,1.5l0,0c-0.4,0.4-1,0.4-1.3,0l-4.2-4.3c-0.4-0.4-0.4-1,0-1.4l0,0
		c0.4-0.4,1-0.4,1.3,0L881.9,1080.6"/>
	<path class="st0" d="M718.3,1048.1c-1.4-4.1-3-8-5-11.9c-4.9,0.8-7.3,1.2-7.3,1.2c-4.4,1.6-7.1,6.1-6.5,10.8
		C699.5,1048.1,705.7,1048.1,718.3,1048.1"/>
	<path class="st1" d="M759.9,1048.1c4.2-32,5.9-49.5,5.9-49.5c-19,0.3-28.5,0.4-28.5,0.4c1.5,17.3,2.3,25.9,2.3,25.9
		c-10.6,6.3-15.9,9.4-15.9,9.4c-8.5,1.4-12.8,2.1-12.8,2.1c1.1,8.9,1.6,13.3,1.6,13.3S728.6,1050.3,759.9,1048.1"/>
	<path class="st2" d="M756.3,1048.4c0,0,2.1-15.6,6.3-46.7c0,0-2.6-0.6-7.8-1.7c-4.7,32.6-7,48.9-7,48.9S750.6,1048.7,756.3,1048.4"
		/>
	<path class="st1" d="M818.7,1070.9c0,0-0.9-9.4-2.8-28.1c0,0,1-11.2,2.9-33.5c-17.7,1.2-26.6,1.8-26.6,1.8
		c1.2,21.2,1.8,31.8,1.8,31.8c-2.4,16.8-3.6,25.2-3.6,25.2C793.4,1070.7,802.8,1071.6,818.7,1070.9"/>
	<path class="st2" d="M807.8,1056.7c0,0,1.4-15.2,4.3-45.5c-9-0.6-13.8-0.2-14.3,1.3c1.6,28.9,2.4,43.3,2.4,43.3
		C802.5,1057.2,805.4,1057.6,807.8,1056.7"/>
	<path class="st29" d="M768.5,995.5c0.2,6.7-2.5,7.1-8.5,7.1c0,0-6.6-0.3-19.8-0.9c-4.3-0.2-5.2-2.6-6.4-14.6
		c-4-39.4-6.4-62.6-7-69.6c0,0-0.6-8.3,0.9-46.8c27.9-45.5,41.1-25.4,39.6,60.5C767.5,963.3,767.8,984.8,768.5,995.5"/>
	<path class="st29" d="M793.1,1013.5c-4.7,0-5.5-2-6.9-6.7c-6.2-24.4-12.5-37.2-15.3-52.1l-15.2-99.1c26.4,3.9,46.2,10.9,57.7,21.1
		l-3.7,60.8c-0.7,11.9,1.6,18,11.4,64.5c2.2,9.6,0.4,11.9-7.5,11.6C804.4,1013.3,797.6,1013.3,793.1,1013.5"/>
	<path class="st29" d="M741.2,850.6c10.1,9.9,23.5,15.6,37.6,16.2C773.7,827.9,761.1,822.5,741.2,850.6"/>
	<path class="st29" d="M739.2,733.6l-9.8,75.7c-3.7,23.1-7,45.6-9.8,67.4c0,0,2.2,0,6.6,0c7.1-4.1,19-17.4,35.7-39.9
		c-0.8,6.1,6.2,23.2,21,51.3c17.1-1.6,32.7-10,42.6-23.2c0,0-4.7-13.6-14-40.8c-1.5-8-12.5-12.9-33.1-14.8h29.7l7-57.8
		c3.1-4.8,6.6-10.3,10.4-16.4c-6.2-2.8-15.3-6-27.4-9.6l-7.6,18.6L739.2,733.6z"/>
	<polygon class="st3" points="761.4,731.9 735.9,734.4 739.1,727.7 764.6,725.2 	"/>
	<path class="st4" d="M696.2,758.1c0,0,7.9-7,27.7-18c36-16.2,26.2,1.4,17.3,24.8c-16.4,12.3-28.7,20.6-35.2,21
		C705.7,781.3,703,770.7,696.2,758.1"/>
	<path class="st3" d="M727.9,741.7c0,0-0.1,0.9-0.1,2.7c-9.8,5.4-14.7,8-14.7,8c-3-4.1-4.5-6.2-4.5-6.2c4.8-2.7,7.1-4,7.1-4
		S719.8,742.1,727.9,741.7"/>
	<path class="st3" d="M691.2,757.5c14.4-12.1,19.6-1.1,19.8,19.6c-0.2,5.3-1.7,8.6-3.8,9.7c-5.4,2.9-8.2,4.4-8.2,4.4
		c-4,1.9-7,2.3-9.1,0.9C689.9,792.2,690.1,780.8,691.2,757.5"/>
	<path class="st5" d="M679.4,798.6c-4.9,0.4-9.5-3.9-8.8-13l3.8-47.4l15.4-7.1c0.2,0.6,0.8,1,1.4,1h0.4l4.4,43.8
		C697.7,789.9,692.1,797.4,679.4,798.6"/>
	<path class="st6" d="M689.1,728.7c2.8,2.3,3.6,4.4,2.5,6.5c-2.9,4.6-7,6.1-12.1,4.6C679.6,739.8,682.8,736.1,689.1,728.7"/>
	<path class="st7" d="M790.3,727.7c0,0-3.6-4.9-3.1-32.5c-21.2,6.5-29,21.4-29,21.4c3.1,9.9,1,17.5,1,17.5c4,5.3,11,7.8,17.8,6.4
		C783.8,739.2,789,734.1,790.3,727.7"/>
	<path class="st3" d="M769.4,809.4h-2.9v-56.1h2.9V809.4z M788.9,717.9c3.7,2.5,5.6,4.4,9.4,6.8c-3.3,18.2-7.6,28.1-16.5,28.8
		c0,0-2.9-4.8-8.8-14.4C780.8,736.6,786.1,729.5,788.9,717.9z"/>
	<path class="st8" d="M738.7,696.4c2.4,23.1,5.2,36.5,8.4,40.5c1.3-0.3,2.5-1.3,3.3-2.7c-2.9-1.9-5.4-14.9-7.6-39
		C742.7,695.2,741.4,695.6,738.7,696.4"/>
	<path class="st9" d="M741.6,687.6c-2.8-1.8-7.6,0.1-14.4,5.7c1.9,1.6,7.5,3.8,16.9,6.4C744.1,699.7,743.3,695.7,741.6,687.6"/>
	<path class="st6" d="M783.4,715.3c2.6-8,3-9.6,0.4-17.4c0.6-7.2-1.8-14.2-6.4-19.5c-0.9,1.4-2.2,2.5-3.8,3.1
		c-0.8,0.3-1.5,0.6-2.3,0.7c-0.7,0.1-1.3,0.3-2,0.3l-1.2,0.1c-0.8,0.1-1.5,0.2-2.3,0.2h-0.2l-0.1,0c-0.7,0.3-1.5,0.4-2.2,0.5l0.5,0
		l-0.4,0.2c-0.6,0.2-1.2,0.4-1.8,0.4c-0.3,0.1-0.7,0.2-1.1,0.2c-0.6,0.2-1.2,0.3-1.8,0.3l0.5,0l-1,0.4c-0.6,0.2-1.3,0.4-2,0.4
		l-0.3,0l-0.2,0c-0.6,0.2-1.1,0.4-1.7,0.5c-0.7,0.1-1.4,0.3-2.1,0.4l-1.5,0.2l-1.6,0.2c-0.6,0.1-1.2,0.1-1.8,0.1l-1.2,0.1l-1,0.1
		c-0.7,0.2-1.3,0.3-2,0.3c-1.1,0.3-2.3,0.4-3.4,0.2c-0.8,5.8,0.1,9.7,2.7,11.4c3.7,2.6,4.4,4.9,4.2,8.8c-0.2,4.2,0.7,7.4,2.6,9.6
		c6.4,7.5,8.5,11.1,9.6,14.4c1.3,3.7,10,2.9,16.3-3.2C778.1,725.2,781.3,720.7,783.4,715.3"/>
	<path class="st10" d="M765.6,661.7l-0.2,0L765.6,661.7L765.6,661.7z M776.5,687.4c-4.7-1.3-6.8-3-5.9-5.3c0.7-1.9,0.5-3.9-0.4-5.5
		l1.1,0c0.4,0,0.7,0,1.1,0l0,0l1,0.2c0.4,0.1,0.7,0.1,1.1,0.1c0.4,0.1,0.7,0.2,1.1,0.3c0.2,0.1,0.4,0.1,0.5,0.2
		c0.8,0.4,1.6,0.8,2.4,0.9l0.2,0c1.1,0.5,2.2,0.8,3.3,0.8c0.6,0.3,1.2,0.4,1.8,0.5c0.5,0.2,1.1,0.4,1.6,0.5c0.6,6,0.5,13.3-0.4,21.9
		c-0.6,3.3-5-0.8-5.2-4.7C779.7,691,779.3,688.3,776.5,687.4z"/>
	<path class="st6" d="M789.7,699.1c-0.1,0.9-0.7,1.7-1.6,2c-0.9,0.3-1.8,0.2-2.5-0.4c-4.7-4.3-5.5-11.4-1.8-16.6
		c1.2-1.8,3.4-2.9,5.6-2.6c2.2,0.2,4.1,1.6,5,3.6c0.9,2,0.7,4.4-0.8,6.1C791.3,693.4,790.1,696,789.7,699.1"/>
	<path class="st11" d="M793.1,690.7c7.4,24.9,9.8,40.2,7.4,45.8c-1.9,0.3-3.9,0-5.6-1.1c2.9-3.4,0.4-18-7.7-43.9
		C787.2,691.5,789.1,691.3,793.1,690.7"/>
	<path class="st29" d="M765.3,689.8c0,0,3.8-0.6,11.3-1.9c1.1-1.5,8.8-0.2,22.9,3.8c0,0-0.6-4.3-1.7-12.8
		c-2.7-17.1-7.8-23.1-18.7-28.6s-24-4.7-34.1,2.1c-10.2,6.8-15.9,18.5-15.1,30.7c0.1,3-0.9,5.6-3.2,7.8
		C742.2,689.5,755,689.1,765.3,689.8"/>
	<path class="st13" d="M776.1,687.1c0,0,7.6,1.8,22.7,5.4c-1.6,1.7-2.7,2.4-4.1,2.2c-15.3-3.2-23-4.7-23-4.7S773.2,689,776.1,687.1"
		/>
	<path class="st14" d="M801.1,690.7c-7-2.1-14-3.9-21-5.5c-1.4-0.3-2.7-0.6-5.2,0.4c-15.5-1.8-31.2-1.1-47.1,2
		c-0.4,0-0.7,0.4-0.6,0.8c0,0.4,0.3,0.7,0.7,0.7c14.2-2.7,28.9-3.4,44.1-2c-4.2,2-3.3,1.1-12.9,1.2c-12-0.1-22.8,0.8-32.4,2.8
		c-1,0.7-1.3,2-0.6,3c8.3-2.1,19.5-2.9,33.3-2.7c10.2,0.3,9.1,1.1,15.8-2.3c1-0.5,2.2-0.7,3.9-0.3c12.7,2.3,19.9,4.5,19.9,4.5
		C800.5,692.9,801.1,692.1,801.1,690.7"/>
	<polygon class="st15" points="790.6,678.5 794.3,678.8 790.9,680.5 791.7,684.2 789.1,681.4 785.9,683.4 787.7,680 784.8,677.5 
		788.6,678.2 790.1,674.7 	"/>
	<rect x="681" y="717.2" class="st16" width="22.5" height="11.8"/>
	<path class="st17" d="M742,712c0.4,0,0.8,0.4,0.8,0.8v1.9h0.6c0.6,0,1.2,0.5,1.2,1.2v4c0,0.6-0.5,1.2-1.2,1.2h-18.8
		c-0.6,0-1.2-0.5-1.2-1.2v-4c0-0.6,0.5-1.2,1.2-1.2h13.5v-1.9c0-0.4,0.4-0.8,0.8-0.8H742"/>
	<path class="st18" d="M745.1,725.8c0,0,16.9,6.7,50.8,20c1.1,0.5,1.3,1.4,0.5,3.3c-4.3,10.4-6.5,15.6-6.5,15.6
		c-1.1,2.6-2.5,3-6.4,0.7c-30.4-19.3-45.6-28.9-45.6-28.9c-3.5-2.1-5.7-5.8-5.8-9.9C732.2,726.6,736.5,726.4,745.1,725.8"/>
	<path class="st19" d="M705.4,714.3c0.8,0,1.5,0.7,1.5,1.6v2.6c0,0.9-0.7,1.6-1.5,1.6h-1.8l1.5,11.9H745v3.2c0,2.7-1.1,2.8-5.1,2.7
		h-5v7.4h-28.1l2.3,18.2c0.1,0.8-0.5,1.5-1.3,1.5h-8.5c-0.8,0-1.6-0.7-1.7-1.5l-5.4-43.5h-75.7c0,0-0.1,0-0.1,0h-10.4
		c-1.6,0-2.9-1.3-2.9-2.9c0-1.6,1.3-2.9,2.9-2.9h10.5h3.2v-6.8c0-0.8,0.6-1.4,1.3-1.4c0.8,0,1.3,0.7,1.3,1.4v6.8h5.1H705.4"/>
	<path class="st16" d="M748.3,717.3c1.6,0,3,1.3,3,3v10.4c0,1.6-1.3,3-3,3h-42.2c-1.6,0-3-1.3-3-3v-10.4c0-1.6,1.3-3,3-3H748.3"/>
	<path class="st20" d="M765.3,759.8c-48,30.6-77.4,32.6-114-28.9c0,0-4,0.5-8.2,0.5c39.3,66.2,73.5,66.6,124.8,31.3
		C767.9,762.7,767.5,761.6,765.3,759.8"/>
	<path class="st18" d="M688.1,719.7c0.8,0,1.5,0.7,1.5,1.5v10.6c0,0.8-0.7,1.5-1.5,1.5h-57.9c-0.8,0-1.5-0.7-1.5-1.5v-10.6
		c0-0.8,0.7-1.5,1.5-1.5H688.1"/>
	<path class="st4" d="M832.5,782.4c0,0,2-13,6-39c1.1-6.9-6.2-12.7-13.4-14.1c-7.2-1.4-15.7,1.7-17.6,8.1
		c-6.7,20.1-10.1,30.1-10.1,30.1S809.1,772.6,832.5,782.4"/>
	<path class="st3" d="M794.3,767.3c2.9-7.3,5.1-6.6,10.7-5.5c9.2,1.7,17.7,6.2,24.4,12.9c3.8,3.9,5.8,7.9,1,14.6
		c-6.7,9.3-14.2,17.1-21.3,11.2C812,794.8,812.9,781.3,794.3,767.3"/>
	<path class="st21" d="M685.3,736.6c0,0,0.5-2.3,1.6-6.9c0.3-3.4-2.1-8.4-7.5-10.9c-6.2-3.1-14.1-2.7-15.5,2
		c-2.1,7.3-1.9,11.4,1.9,13.5C676.8,740.5,684.2,741.7,685.3,736.6"/>
	<polygon class="st3" points="825,733.5 800.1,729.2 807,723.8 831.8,728.1 	"/>
	<path class="st22" d="M806.5,804.6c1.7,0,2.9,1.4,2.7,3l-0.8,7.6c-0.2,1.7-1.7,3-3.3,3h-74.4c-1.7,0-2.9-1.4-2.7-3l0.8-7.6
		c0.2-1.7,1.7-3,3.3-3H806.5"/>
	<path class="st6" d="M732,762.2c0,0,4.3-0.8,13-2.5c0,0,1.2,0.8,3.6,2.5c0,0,26.8,18.8,49.7,34.1c11.8,7.8,15.5,6.3,21-0.3
		c5.5-6.6,6.3-18.8-1.3-22.3c-40.7-19.1-61.1-28.6-61.1-28.6c-10.5-4.7-19-7-19-7c-2.6-0.8-6.7-1.6-10.7-0.7
		c-10.8,2.8-13,3.5-14.8,4c-1.2,0.4-1,2.3-0.6,3.6s1.3,2.9,2.5,2.6c7.2-1.8,10.8-2.7,10.8-2.7c2.2-0.5,2.5,0,0.8,1.2
		c-4,2.9-6.8,3.8-4.5,8.1C725,760.6,728.1,763.1,732,762.2"/>
	<path class="st23" d="M758.9,1046.6c0.8,0,1.5,0.7,1.5,1.5v3.8c0,0.8-0.7,1.5-1.5,1.5h-58.6c-0.8,0-1.5-0.7-1.5-1.5v-3.8
		c0-0.8,0.7-1.5,1.5-1.5H758.9"/>
	<path class="st24" d="M811.7,1021.6c0.5,0,1,0.5,1,1l0,0c0,0.5-0.5,1-1,0.9l-15-0.6c-0.5,0-1-0.5-1-1l0,0c0-0.5,0.5-1,1-0.9
		L811.7,1021.6"/>
	<path class="st24" d="M811.1,1025.8c0.5,0,1,0.5,1,1l0,0c0,0.5-0.5,1-1,0.9l-13.9-0.6c-0.5,0-1-0.5-1-1l0,0c0-0.5,0.5-1,1-0.9
		L811.1,1025.8"/>
	<path class="st24" d="M810.5,1029.8c0.5,0,1,0.5,1,1l0,0c0,0.5-0.5,1-1,0.9l-12.8-0.5c-0.5,0-1-0.5-1-1l0,0c0-0.5,0.5-1,1-0.9
		L810.5,1029.8"/>
	<path class="st24" d="M809.7,1033.7c0.5,0,1,0.5,1,1l0,0c0,0.5-0.5,1-1,0.9l-11.4-0.5c-0.5,0-1-0.5-1-1l0,0c0-0.5,0.5-1,1-0.9
		L809.7,1033.7"/>
	<path class="st24" d="M809,1037.7c0.5,0,1,0.5,1,1l0,0c0,0.5-0.5,1-1,0.9l-10.1-0.4c-0.5,0-1-0.5-1-1l0,0c0-0.5,0.5-1,1-0.9
		L809,1037.7"/>
	<path class="st24" d="M808.6,1041.5c0.5,0,1,0.5,1,1l0,0c0,0.5-0.5,1-1,0.9l-9.3-0.4c-0.5,0-1-0.5-1-1l0,0c0-0.5,0.5-1,1-0.9
		L808.6,1041.5"/>
	<path class="st24" d="M807.9,1045.3c0.5,0,1,0.5,1,1l0,0c0,0.5-0.5,1-1,0.9l-8.1-0.3c-0.5,0-1-0.5-1-1l0,0c0-0.5,0.5-1,1-0.9
		L807.9,1045.3"/>
	<path class="st24" d="M807.2,1048.9c0.5,0,1,0.5,1,1l0,0c0,0.5-0.5,1-1,0.9l-6.7-0.3c-0.5,0-1-0.5-1-1l0,0c0-0.5,0.5-1,1-0.9
		L807.2,1048.9"/>
	<path class="st24" d="M806.8,1052.9c0.5,0,1,0.5,1,1l0,0c0,0.5-0.5,1-1,0.9l-6-0.2c-0.5,0-1-0.5-1-1l0,0c0-0.5,0.5-1,1-0.9
		L806.8,1052.9"/>
	<path class="st24" d="M744.2,1006.6c0.5,0,1,0.5,1,1.1l0,0c0,0.5-0.4,1-1,0.9l-6-0.5c-0.5,0-1-0.5-1-1.1l0,0c0-0.5,0.4-1,1-0.9
		L744.2,1006.6"/>
	<path class="st24" d="M744,1010.2c0.5,0,1,0.5,1,1.1l0,0c0,0.5-0.4,1-1,0.9l-6-0.5c-0.5,0-1-0.5-1-1.1l0,0c0-0.5,0.4-1,1-0.9
		L744,1010.2"/>
	<path class="st24" d="M744.3,1013.6c0.5,0,1,0.5,1,1.1l0,0c0,0.5-0.4,1-1,0.9l-6-0.5c-0.5,0-1-0.5-1-1.1l0,0c0-0.5,0.4-1,1-0.9
		L744.3,1013.6"/>
	<path class="st24" d="M744.2,1017.2c0.5,0,1,0.5,1,1.1l0,0c0,0.5-0.4,1-1,0.9l-6-0.5c-0.5,0-1-0.5-1-1.1l0,0c0-0.5,0.4-1,1-0.9
		L744.2,1017.2"/>
	<path class="st24" d="M744.3,1020.8c0.5,0,1,0.5,1,1.1l0,0c0,0.5-0.4,1-1,0.9l-6-0.5c-0.5,0-1-0.5-1-1.1l0,0c0-0.5,0.4-1,1-0.9
		L744.3,1020.8"/>
	<path class="st24" d="M744.1,1024.4c0.5,0,1,0.5,1,1.1l0,0c0,0.5-0.4,1-1,0.9l-6-0.5c-0.5,0-1-0.5-1-1.1l0,0c0-0.5,0.4-1,1-0.9
		L744.1,1024.4"/>
	<path class="st24" d="M741.6,1030.5c0.4,0.4,0.4,1,0,1.4l0,0c-0.4,0.4-1,0.4-1.3,0l-4.2-4.3c-0.4-0.4-0.4-1,0-1.4l0,0
		c0.4-0.4,1-0.4,1.3,0L741.6,1030.5"/>
	<path class="st24" d="M738.1,1032.2c0.4,0.4,0.4,1,0,1.4l0,0c-0.4,0.4-1,0.4-1.3,0l-4.2-4.3c-0.4-0.4-0.4-1,0-1.4l0,0
		c0.4-0.4,1-0.4,1.3,0L738.1,1032.2"/>
	<path class="st24" d="M734.9,1034.2c0.4,0.4,0.4,1,0,1.4l0,0c-0.4,0.4-1,0.4-1.3,0l-4.2-4.3c-0.4-0.4-0.4-1,0-1.4l0,0
		c0.4-0.4,1-0.4,1.3,0L734.9,1034.2"/>
	<path class="st24" d="M731.3,1036.6c0.4,0.4,0.4,1,0,1.5l0,0c-0.4,0.4-1,0.4-1.3,0l-4.2-4.3c-0.4-0.4-0.4-1,0-1.4l0,0
		c0.4-0.4,1-0.4,1.3,0L731.3,1036.6"/>
</g>
</svg>
