<?xml version="1.0" encoding="utf-8"?>
<!-- Generator: Adobe Illustrator 23.0.1, SVG Export Plug-In . SVG Version: 6.00 Build 0)  -->
<svg version="1.1" id="Layer_1" xmlns="http://www.w3.org/2000/svg" xmlns:xlink="http://www.w3.org/1999/xlink" x="0px" y="0px"
	 viewBox="0 0 650 370" style="enable-background:new 0 0 650 370;" xml:space="preserve">
<style type="text/css">
	.st0{fill-rule:evenodd;clip-rule:evenodd;fill:#23291E;}
	.st1{fill-rule:evenodd;clip-rule:evenodd;fill:#10120F;}
	.st2{fill-rule:evenodd;clip-rule:evenodd;fill:#010101;}
	.st3{fill-rule:evenodd;clip-rule:evenodd;fill:#384631;}
	.st4{fill-rule:evenodd;clip-rule:evenodd;fill:#151D11;}
	.st5{fill-rule:evenodd;clip-rule:evenodd;fill:#CB922E;}
	.st6{fill-rule:evenodd;clip-rule:evenodd;fill:#D2993A;}
	.st7{fill-rule:evenodd;clip-rule:evenodd;fill:#C68A2F;}
	.st8{fill-rule:evenodd;clip-rule:evenodd;fill:#2B3B22;}
	.st9{fill-rule:evenodd;clip-rule:evenodd;fill:#1C2818;}
	.st10{fill-rule:evenodd;clip-rule:evenodd;fill:#0F0F0D;}
	.st11{fill-rule:evenodd;clip-rule:evenodd;fill:#172014;}
	.st12{fill-rule:evenodd;clip-rule:evenodd;fill:#33452A;}
	.st13{fill-rule:evenodd;clip-rule:evenodd;fill:#3C5330;}
	.st14{fill-rule:evenodd;clip-rule:evenodd;fill:#69835C;}
	.st15{fill-rule:evenodd;clip-rule:evenodd;fill:#809576;}
	.st16{fill-rule:evenodd;clip-rule:evenodd;fill:#523E2E;}
	.st17{fill-rule:evenodd;clip-rule:evenodd;fill:#36291E;}
	.st18{fill-rule:evenodd;clip-rule:evenodd;fill:#A05525;}
	.st19{fill-rule:evenodd;clip-rule:evenodd;fill:#17120F;}
	.st20{fill-rule:evenodd;clip-rule:evenodd;fill:#35271A;}
	.st21{fill-rule:evenodd;clip-rule:evenodd;fill:#E2AC4C;}
	.st22{fill-rule:evenodd;clip-rule:evenodd;fill:#090C09;}
	.st23{fill-rule:evenodd;clip-rule:evenodd;fill:#A3A39E;}
	.st24{fill-rule:evenodd;clip-rule:evenodd;fill:#4C5245;}
	.st25{fill-rule:evenodd;clip-rule:evenodd;fill:#D40047;}
	.st26{fill-rule:evenodd;clip-rule:evenodd;fill:#007F11;}
	.st27{fill-rule:evenodd;clip-rule:evenodd;fill:#00037F;}
	.st28{fill-rule:evenodd;clip-rule:evenodd;fill:#6A0005;}
	.st29{fill-rule:evenodd;clip-rule:evenodd;fill:#94B5FF;}
</style>
<g>
	<path class="st0" d="M132.9,319.9c6.3,0,9.5,0.1,9.5,0.1c0.3-2.6-1-5.1-3.3-6c0,0-1.2-0.2-3.7-0.6
		C134.4,315.4,133.6,317.6,132.9,319.9"/>
	<path class="st1" d="M111.9,319.9c15.8,1.2,23.9,0.9,23.9,0.9s0.3-2.4,0.8-7.3c0,0-2.1-0.4-6.4-1.2c0,0-2.7-1.7-8-5.2
		c0,0,0.4-4.8,1.2-14.3c0,0-4.8-0.1-14.4-0.2C108.9,292.6,109.8,302.2,111.9,319.9"/>
	<path class="st2" d="M113.7,320c2.9,0.2,4.3,0.3,4.3,0.3s-1.2-9-3.5-27c-2.6,0.6-4,1-4,1C112.6,311.4,113.7,320,113.7,320"/>
	<path class="st1" d="M82.2,332.5c8,0.4,12.8-0.1,14.3-1.5c0,0-0.6-4.6-1.8-13.9c0,0,0.3-5.9,0.9-17.6c0,0-4.5-0.3-13.4-1
		c1,12.4,1.5,18.5,1.5,18.5C82.7,327.3,82.2,332.5,82.2,332.5"/>
	<path class="st2" d="M87.7,324.6c1.2,0.5,2.7,0.3,3.8-0.5c0,0,0.4-8,1.2-23.9c-0.2-0.8-2.6-1-7.2-0.7
		C87,316.2,87.7,324.6,87.7,324.6"/>
	<path class="st3" d="M107.5,290.8c0.3-6,0.5-17.8,0.6-35.5c-0.8-47.4,5.9-58.6,20-33.4c0.8,21.3,0.5,25.9,0.5,25.9
		c-0.3,3.9-1.5,16.7-3.5,38.4c-0.6,6.7-1.1,8-3.2,8.1c-6.7,0.3-10,0.5-10,0.5C108.8,294.8,107.5,294.5,107.5,290.8"/>
	<path class="st3" d="M95.1,300.7c-2.2-0.1-5.7-0.1-10.3,0.1c-4,0.1-4.9-1.1-3.8-6.4c4.9-25.7,6.1-29.1,5.7-35.6l-1.8-33.6
		c5.8-5.6,15.8-9.5,29.1-11.7l-7.7,54.7c-1.4,8.2-4.6,15.3-7.7,28.8C97.9,299.6,97.5,300.7,95.1,300.7"/>
	<path class="st3" d="M121.3,210.8c-10-15.5-16.4-12.5-19,9C109.4,219.4,116.2,216.2,121.3,210.8"/>
	<path class="st4" d="M96.5,152l-3.8-10.3c-6.1,2-10.7,3.8-13.8,5.3c1.9,3.4,3.7,6.4,5.2,9.1l3.5,31.9h15c-10.4,1-15.9,3.8-16.7,8.2
		c-4.7,15-7,22.6-7,22.6c5,7.3,12.9,11.9,21.5,12.8c7.4-15.5,11-25,10.6-28.3c8.4,12.4,14.4,19.8,18,22c2.2,0,3.3,0,3.3,0
		c-1.5-12-3.1-24.5-5-37.2l-5-41.9L96.5,152z"/>
	<polygon class="st3" points="109.5,141.5 122.4,142.9 124,146.6 111.2,145.2 	"/>
	<path class="st4" d="M144,159.7c-3.4,7-4.8,12.8-4.9,15.4c-3.3-0.2-9.5-4.8-17.8-11.6c-4.5-12.9-9.4-22.6,8.7-13.7
		C140,155.8,144,159.7,144,159.7"/>
	<path class="st3" d="M128,150.6c4.1,0.2,6.2,0.3,6.2,0.3s1.2,0.7,3.6,2.2c0,0-0.8,1.1-2.3,3.4c0,0-2.5-1.5-7.4-4.4
		C128.1,151.1,128,150.6,128,150.6"/>
	<path class="st3" d="M146.6,159.3c0.6,12.8,0.6,19.1,0.6,19.1c-1,0.7-2.6,0.6-4.6-0.5c0,0-1.4-0.8-4.1-2.4
		c-1.1-0.6-1.8-2.4-1.9-5.4C136.7,158.8,139.3,152.6,146.6,159.3"/>
	<path class="st5" d="M152.5,182c-6.4-0.6-9.2-4.8-8.4-12.5l2.2-24.2h0.2c0.3,0,0.6-0.2,0.7-0.6l7.8,3.9l1.9,26.2
		C157.3,179.9,155,182.2,152.5,182"/>
	<path class="st6" d="M147.6,143.4c3.2,4.1,4.8,6.1,4.8,6.1c-2.6,0.8-4.6,0-6.1-2.5C145.7,145.9,146.2,144.7,147.6,143.4"/>
	<path class="st7" d="M96.5,142.9c0.7,3.5,3.3,6.3,6.7,7.1c3.4,0.8,6.9-0.6,9-3.5c0,0-1-4.2,0.5-9.7c0,0-3.9-8.3-14.6-11.8
		C98.4,140.2,96.5,142.9,96.5,142.9"/>
	<path class="st3" d="M107.1,157h1.5v31h-1.5V157z M105.3,149.2c-3,5.3-4.4,7.9-4.4,7.9c-4.5-0.4-6.7-5.9-8.3-15.9
		c1.9-1.3,2.9-2.4,4.7-3.8C98.7,143.9,101.3,147.8,105.3,149.2z"/>
	<path class="st8" d="M122.6,125.6c-1.4-0.4-2.1-0.6-2.1-0.6c-1.1,13.3-2.4,20.5-3.8,21.5c0.4,0.8,1,1.3,1.7,1.5
		C120,145.8,121.4,138.3,122.6,125.6"/>
	<path class="st9" d="M121.1,120.7c-0.9,4.4-1.3,6.7-1.3,6.7c4.7-1.5,7.6-2.6,8.5-3.5C125,120.8,122.6,119.8,121.1,120.7"/>
	<path class="st6" d="M100,136c1,3,2.7,5.5,4.4,7.3c3.2,3.4,7.6,3.8,8.2,1.8c0.6-1.8,1.6-3.8,4.8-7.9c1-1.2,1.4-3,1.3-5.3
		c-0.1-2.1,0.2-3.4,2.1-4.8c1.3-1,1.8-3.1,1.4-6.3c-0.6,0.1-1.1,0.1-1.7-0.1c-0.3,0-0.7-0.1-1-0.2l-0.5,0l-0.6-0.1
		c-0.3,0-0.6,0-0.9-0.1l-0.8-0.1L116,120c-0.3,0-0.7-0.1-1.1-0.2c-0.3-0.1-0.6-0.2-0.9-0.3l-0.1,0l-0.2,0c-0.3,0-0.7-0.1-1-0.2
		l-0.5-0.2l0.2,0c-0.3,0-0.6-0.1-0.9-0.2c-0.2,0-0.4-0.1-0.5-0.1c-0.3,0-0.6-0.1-0.9-0.2l-0.2-0.1l0.2,0c-0.4,0-0.8-0.1-1.1-0.3
		l-0.1,0H109c-0.4,0-0.8-0.1-1.2-0.1l-0.6-0.1c-0.3,0-0.7-0.1-1-0.2c-0.4-0.1-0.8-0.2-1.2-0.4c-0.8-0.3-1.5-0.9-1.9-1.7
		c-2.3,2.9-3.5,6.8-3.2,10.8C98.5,130.7,98.7,131.6,100,136"/>
	<path class="st10" d="M109,106.4L109,106.4L109,106.4L109,106.4z M101.8,126.1c-0.1,2.1-2.3,4.4-2.6,2.6c-0.4-4.8-0.5-8.8-0.2-12.1
		c0.3-0.1,0.6-0.1,0.8-0.3c0.3-0.1,0.6-0.2,0.9-0.3c0.6,0,1.1-0.2,1.7-0.5l0.1,0c0.4-0.1,0.8-0.3,1.2-0.5c0.1,0,0.2-0.1,0.3-0.1
		c0.2,0,0.4-0.1,0.6-0.2c0.2,0,0.4,0,0.5-0.1l0.5-0.1l0,0c0.2,0,0.4,0,0.5,0l0.5,0c-0.5,0.9-0.6,2-0.2,3.1c0.4,1.3-0.6,2.2-3,2.9
		C102.1,121.1,101.9,122.6,101.8,126.1z"/>
	<path class="st6" d="M96.9,127c-0.2-1.7-0.8-3.2-1.9-4.3c-0.8-0.9-0.9-2.3-0.4-3.4c0.4-1.1,1.4-1.9,2.5-2s2.2,0.4,2.8,1.5
		c1.8,2.9,1.4,6.8-0.9,9.2c-0.4,0.3-0.8,0.4-1.3,0.2C97.2,128,96.9,127.5,96.9,127"/>
	<path class="st11" d="M95.2,122.4c2,0.3,3,0.5,3,0.5c-4.1,14.3-5.4,22.3-3.9,24.2c-0.8,0.6-1.9,0.8-2.8,0.6
		C90.2,144.6,91.4,136.2,95.2,122.4"/>
	<path class="st12" d="M109.2,121.9c5.2-0.4,11.7-0.2,19.4,0.6c-1.1-1.2-1.7-2.7-1.6-4.3c0.4-6.7-2.5-13.2-7.6-17
		c-5.1-3.7-11.7-4.2-17.2-1.2c-5.5,3-8.1,6.4-9.5,15.8c-0.6,4.7-0.8,7.1-0.8,7.1c7.1-2.2,11-2.9,11.6-2.1
		C107.3,121.6,109.2,121.9,109.2,121.9"/>
	<path class="st13" d="M103.7,120.4c1.5,1,2.2,1.5,2.2,1.5s-3.9,0.9-11.6,2.6c-0.7,0.1-1.3-0.2-2.1-1.2
		C99.9,121.4,103.7,120.4,103.7,120.4"/>
	<path class="st14" d="M91.1,122.4c0,0.8,0.3,1.2,1,1.4c0,0,3.6-1.2,10-2.5c0.9-0.2,1.5-0.1,2,0.2c3.4,1.8,2.9,1.4,8,1.3
		c7-0.1,12.6,0.4,16.8,1.5c0.3-0.6,0.2-1.3-0.3-1.7c-4.9-1.1-10.3-1.6-16.3-1.5c-4.8,0-4.4,0.5-6.5-0.6c7.7-0.7,15.1-0.4,22.3,1.1
		c0.2,0,0.4-0.2,0.4-0.4c0-0.2-0.1-0.4-0.3-0.4c-8-1.7-15.9-2.1-23.8-1.1c-1.2-0.5-1.9-0.4-2.6-0.2
		C98.2,120.3,94.6,121.3,91.1,122.4"/>
	<polygon class="st15" points="96.7,113.6 97.4,115.5 99.3,115.1 97.9,116.5 98.8,118.4 97.2,117.3 95.8,118.8 96.3,116.8 
		94.5,115.9 96.4,115.7 	"/>
	<rect x="140.3" y="137.1" class="st16" width="11.3" height="6.5"/>
	<path class="st17" d="M120.9,134.2h1.6c0.2,0,0.4,0.2,0.4,0.4v1.1h6.8c0.3,0,0.6,0.3,0.6,0.6v2.2c0,0.4-0.3,0.6-0.6,0.6h-9.5
		c-0.3,0-0.6-0.3-0.6-0.6v-2.2c0-0.4,0.3-0.6,0.6-0.6h0.3v-1.1C120.5,134.4,120.7,134.2,120.9,134.2"/>
	<path class="st18" d="M119.4,141.8c4.3,0.3,6.5,0.4,6.5,0.4c-0.1,2.2-1.2,4.3-2.9,5.5c0,0-7.7,5.3-23,16c-2,1.3-2.7,1.1-3.2-0.4
		c0,0-1.1-2.9-3.3-8.6c-0.4-1-0.3-1.6,0.2-1.8C110.8,145.5,119.4,141.8,119.4,141.8"/>
	<path class="st19" d="M139.4,135.4h39.4h2.6v-3.8c0-0.4,0.3-0.8,0.7-0.8c0.4,0,0.7,0.4,0.7,0.8v3.8h1.6h5.3c0.8,0,1.5,0.7,1.5,1.6
		c0,0.9-0.7,1.6-1.5,1.6h-5.3c0,0,0,0,0,0h-38.2l-2.7,24c-0.1,0.5-0.4,0.8-0.9,0.8h-4.3c-0.4,0-0.7-0.4-0.7-0.8l1.1-10.1h-14.2v-4.1
		H122c-2,0.1-2.6,0-2.6-1.5v-1.8h20.1l0.7-6.6h-0.9c-0.4,0-0.8-0.4-0.8-0.9v-1.4C138.6,135.9,138.9,135.4,139.4,135.4"/>
	<path class="st16" d="M117.7,137.1H139c0.8,0,1.5,0.7,1.5,1.6v5.7c0,0.9-0.7,1.6-1.5,1.6h-21.3c-0.8,0-1.5-0.7-1.5-1.6v-5.7
		C116.2,137.8,116.9,137.1,117.7,137.1"/>
	<path class="st20" d="M109.2,160.6c-1.1,1-1.3,1.6-1.3,1.6c25.8,19.5,43.1,19.3,62.9-17.3c-2.1,0-4.1-0.3-4.1-0.3
		C148.2,178.6,133.4,177.5,109.2,160.6"/>
	<path class="st18" d="M148.1,138.5h29.2c0.4,0,0.8,0.4,0.8,0.8v5.9c0,0.5-0.3,0.8-0.8,0.8h-29.2c-0.4,0-0.8-0.4-0.8-0.8v-5.9
		C147.4,138.8,147.7,138.5,148.1,138.5"/>
	<path class="st4" d="M75.3,173.1c11.8-5.4,17.7-8.2,17.7-8.2s-1.7-5.6-5.1-16.7c-0.9-3.6-5.2-5.3-8.9-4.5c-3.6,0.8-7.3,3.9-6.7,7.8
		C74.3,165.9,75.3,173.1,75.3,173.1"/>
	<path class="st3" d="M94.5,164.7c-9.4,7.7-8.9,15.2-7.5,18.3c-3.6,3.3-7.4-1-10.7-6.2c-2.4-3.7-1.4-5.9,0.5-8.1
		c3.4-3.7,7.6-6.1,12.3-7.1C91.9,161.1,93,160.7,94.5,164.7"/>
	<path class="st21" d="M149.5,147.8c0.6,2.8,4.3,2.2,9.8-1.3c1.9-1.2,2-3.4,0.9-7.5c-0.7-2.6-4.7-2.8-7.8-1.1
		c-2.7,1.4-3.9,4.1-3.8,6C149.2,146.5,149.5,147.8,149.5,147.8"/>
	<polygon class="st3" points="75.6,143.1 88.2,140.7 91.6,143.7 79.1,146 	"/>
	<path class="st22" d="M88.4,185.3h37.5c0.8,0,1.6,0.7,1.7,1.7l0.4,4.2c0.1,0.9-0.5,1.7-1.4,1.7H89.1c-0.8,0-1.6-0.7-1.7-1.7L87,187
		C86.9,186.1,87.5,185.3,88.4,185.3"/>
	<path class="st6" d="M126,161.9c1.9,0.5,3.5-0.9,5.4-4.5c1.2-2.4-0.2-2.8-2.3-4.5c-0.9-0.7-0.7-1,0.4-0.7c0,0,1.8,0.5,5.5,1.5
		c0.6,0.2,1.1-0.8,1.3-1.4c0.2-0.7,0.3-1.7-0.3-2c-0.9-0.3-2-0.6-7.5-2.2c-2-0.5-4.1-0.1-5.4,0.4c0,0-4.3,1.3-9.6,3.9
		c0,0-10.3,5.3-30.8,15.8c-3.8,1.9-3.4,8.7-0.6,12.3c2.8,3.7,4.6,4.4,10.6,0.2c11.6-8.4,25.1-18.9,25.1-18.9
		c1.2-0.9,1.8-1.4,1.8-1.4C123.8,161.5,126,161.9,126,161.9"/>
	<path class="st23" d="M112.4,319.1H142c0.4,0,0.8,0.4,0.8,0.8v2.1c0,0.5-0.3,0.8-0.8,0.8h-29.6c-0.4,0-0.8-0.4-0.8-0.8v-2.1
		C111.7,319.5,112,319.1,112.4,319.1"/>
	<path class="st24" d="M85.8,305.2l7.6-0.3c0.3,0,0.5,0.2,0.5,0.5l0,0c0,0.3-0.2,0.6-0.5,0.6l-7.6,0.3c-0.3,0-0.5-0.2-0.5-0.5l0,0
		C85.3,305.5,85.5,305.2,85.8,305.2"/>
	<path class="st24" d="M86.1,307.6l7-0.3c0.3,0,0.5,0.2,0.5,0.5l0,0c0,0.3-0.2,0.6-0.5,0.6l-7,0.3c-0.3,0-0.5-0.2-0.5-0.5l0,0
		C85.6,307.8,85.8,307.6,86.1,307.6"/>
	<path class="st24" d="M86.4,309.8l6.5-0.3c0.3,0,0.5,0.2,0.5,0.5l0,0c0,0.3-0.2,0.6-0.5,0.6l-6.5,0.3c-0.3,0-0.5-0.2-0.5-0.5l0,0
		C85.9,310,86.1,309.8,86.4,309.8"/>
	<path class="st24" d="M86.8,311.9l5.8-0.3c0.3,0,0.5,0.2,0.5,0.5l0,0c0,0.3-0.2,0.6-0.5,0.6l-5.8,0.3c-0.3,0-0.5-0.2-0.5-0.5l0,0
		C86.3,312.2,86.5,312,86.8,311.9"/>
	<path class="st24" d="M87.1,314.1l5.1-0.2c0.3,0,0.5,0.2,0.5,0.5l0,0c0,0.3-0.2,0.6-0.5,0.6l-5.1,0.2c-0.3,0-0.5-0.2-0.5-0.5l0,0
		C86.6,314.4,86.9,314.2,87.1,314.1"/>
	<path class="st24" d="M87.3,316.3L92,316c0.3,0,0.5,0.2,0.5,0.5l0,0c0,0.3-0.2,0.6-0.5,0.6l-4.7,0.2c-0.3,0-0.5-0.2-0.5-0.5l0,0
		C86.9,316.5,87.1,316.3,87.3,316.3"/>
	<path class="st24" d="M87.7,318.3l4.1-0.2c0.3,0,0.5,0.2,0.5,0.5l0,0c0,0.3-0.2,0.6-0.5,0.6l-4.1,0.2c-0.3,0-0.5-0.2-0.5-0.5l0,0
		C87.2,318.6,87.4,318.3,87.7,318.3"/>
	<path class="st24" d="M88,320.4l3.4-0.2c0.3,0,0.5,0.2,0.5,0.5l0,0c0,0.3-0.2,0.6-0.5,0.6l-3.4,0.2c-0.3,0-0.5-0.2-0.5-0.5l0,0
		C87.6,320.6,87.8,320.4,88,320.4"/>
	<path class="st24" d="M88.2,322.6l3-0.1c0.3,0,0.5,0.2,0.5,0.5l0,0c0,0.3-0.2,0.6-0.5,0.6l-3,0.1c-0.3,0-0.5-0.2-0.5-0.5l0,0
		C87.7,322.8,88,322.6,88.2,322.6"/>
	<path class="st24" d="M119.8,296.9l3-0.3c0.3,0,0.5,0.2,0.5,0.5l0,0c0,0.3-0.2,0.6-0.5,0.6l-3,0.3c-0.3,0-0.5-0.2-0.5-0.5l0,0
		C119.3,297.2,119.6,297,119.8,296.9"/>
	<path class="st24" d="M119.9,298.9l3-0.3c0.3,0,0.5,0.2,0.5,0.5l0,0c0,0.3-0.2,0.6-0.5,0.6l-3,0.3c-0.3,0-0.5-0.2-0.5-0.5l0,0
		C119.4,299.2,119.6,298.9,119.9,298.9"/>
	<path class="st24" d="M119.7,300.8l3-0.3c0.3,0,0.5,0.2,0.5,0.5l0,0c0,0.3-0.2,0.6-0.5,0.6l-3,0.3c-0.3,0-0.5-0.2-0.5-0.5l0,0
		C119.3,301.1,119.5,300.8,119.7,300.8"/>
	<path class="st24" d="M119.8,302.8l3-0.3c0.3,0,0.5,0.2,0.5,0.5l0,0c0,0.3-0.2,0.6-0.5,0.6l-3,0.3c-0.3,0-0.5-0.2-0.5-0.5l0,0
		C119.3,303.1,119.6,302.8,119.8,302.8"/>
	<path class="st24" d="M119.8,304.8l3-0.3c0.3,0,0.5,0.2,0.5,0.5l0,0c0,0.3-0.2,0.6-0.5,0.6l-3,0.3c-0.3,0-0.5-0.2-0.5-0.5l0,0
		C119.3,305.1,119.5,304.8,119.8,304.8"/>
	<path class="st24" d="M119.9,306.8l3-0.3c0.3,0,0.5,0.2,0.5,0.5l0,0c0,0.3-0.2,0.6-0.5,0.6l-3,0.3c-0.3,0-0.5-0.2-0.5-0.5l0,0
		C119.4,307.1,119.6,306.8,119.9,306.8"/>
	<path class="st24" d="M121.1,310.2l2.1-2.4c0.2-0.2,0.5-0.2,0.7,0l0,0c0.2,0.2,0.2,0.6,0,0.8l-2.1,2.4c-0.2,0.2-0.5,0.2-0.7,0l0,0
		C120.9,310.8,120.9,310.4,121.1,310.2"/>
	<path class="st24" d="M122.9,311.1l2.1-2.4c0.2-0.2,0.5-0.2,0.7,0l0,0c0.2,0.2,0.2,0.6,0,0.8l-2.1,2.4c-0.2,0.2-0.5,0.2-0.7,0l0,0
		C122.7,311.7,122.7,311.3,122.9,311.1"/>
	<path class="st24" d="M124.5,312.2l2.1-2.4c0.2-0.2,0.5-0.2,0.7,0l0,0c0.2,0.2,0.2,0.6,0,0.8l-2.1,2.4c-0.2,0.2-0.5,0.2-0.7,0l0,0
		C124.3,312.8,124.3,312.4,124.5,312.2"/>
	<path class="st24" d="M126.3,313.5l2.1-2.4c0.2-0.2,0.5-0.2,0.7,0l0,0c0.2,0.2,0.2,0.6,0,0.8l-2.1,2.4c-0.2,0.2-0.5,0.2-0.7,0l0,0
		C126.1,314.1,126.1,313.8,126.3,313.5"/>
</g>
<g>
	<g>
		<path class="st0" d="M386.5,268.6c-0.7-2-1.5-4-2.5-5.9c-2.4,0.4-3.6,0.6-3.6,0.6c-2.2,0.8-3.5,3-3.2,5.4
			C377.2,268.7,380.3,268.7,386.5,268.6"/>
		<path class="st1" d="M407.1,268.7c2.1-15.8,2.9-24.5,2.9-24.5c-9.4,0.1-14.1,0.2-14.1,0.2c0.8,8.6,1.1,12.8,1.1,12.8
			c-5.2,3.1-7.9,4.7-7.9,4.7c-4.2,0.7-6.3,1.1-6.3,1.1c0.5,4.4,0.8,6.6,0.8,6.6S391.6,269.7,407.1,268.7"/>
		<path class="st2" d="M405.3,268.8c0,0,1-7.7,3.1-23.1c0,0-1.3-0.3-3.9-0.9c-2.3,16.2-3.5,24.3-3.5,24.3S402.5,269,405.3,268.8"/>
		<path class="st1" d="M436.3,279.9c0,0-0.5-4.6-1.4-13.9c0,0,0.5-5.5,1.4-16.6c-8.8,0.6-13.2,0.9-13.2,0.9
			c0.6,10.5,0.9,15.8,0.9,15.8c-1.2,8.3-1.8,12.5-1.8,12.5C423.7,279.8,428.4,280.3,436.3,279.9"/>
		<path class="st2" d="M430.9,272.9c0,0,0.7-7.5,2.1-22.6c-4.5-0.3-6.8-0.1-7.1,0.6c0.8,14.3,1.2,21.5,1.2,21.5
			C428.2,273.2,429.6,273.3,430.9,272.9"/>
		<path class="st25" d="M411.4,242.6c0.1,3.3-1.2,3.5-4.2,3.5c0,0-3.3-0.1-9.8-0.4c-2.1-0.1-2.6-1.3-3.2-7.2
			c-2-19.5-3.2-31-3.5-34.5c0,0-0.3-4.1,0.5-23.2c13.8-22.6,20.4-12.6,19.6,30C410.9,226.7,411.1,237.3,411.4,242.6"/>
		<path class="st25" d="M423.6,251.5c-2.3,0-2.7-1-3.4-3.3c-3.1-12.1-6.2-18.4-7.6-25.8l-7.5-49.1c13.1,1.9,22.9,5.4,28.6,10.5
			l-1.8,30.1c-0.4,5.9,0.8,8.9,5.6,31.9c1.1,4.8,0.2,5.9-3.7,5.8C429.1,251.4,425.8,251.4,423.6,251.5"/>
		<path class="st25" d="M397.9,170.8c5,4.9,11.7,7.7,18.7,8C414,159.5,407.7,156.9,397.9,170.8"/>
		<path class="st25" d="M396.8,112.8l-4.9,37.5c-1.8,11.5-3.5,22.6-4.9,33.4c0,0,1.1,0,3.3,0c3.5-2,9.4-8.6,17.7-19.7
			c-0.4,3,3.1,11.5,10.4,25.4c8.5-0.8,16.2-5,21.1-11.5c0,0-2.3-6.7-6.9-20.2c-0.7-3.9-6.2-6.4-16.4-7.3H431l3.5-28.6
			c1.5-2.4,3.3-5.1,5.1-8.1c-3.1-1.4-7.6-3-13.6-4.8l-3.8,9.2L396.8,112.8z"/>
		<polygon class="st3" points="407.8,112 395.2,113.2 396.8,109.9 409.5,108.7 		"/>
		<path class="st4" d="M375.6,124.9c0,0,3.9-3.4,13.7-8.9c17.9-8,13,0.7,8.6,12.3c-8.1,6.1-14.2,10.2-17.4,10.4
			C380.3,136.5,378.9,131.2,375.6,124.9"/>
		<path class="st3" d="M391.3,116.8c0,0,0,0.4-0.1,1.3c-4.9,2.7-7.3,4-7.3,4c-1.5-2-2.2-3.1-2.2-3.1c2.4-1.3,3.5-2,3.5-2
			S387.2,117,391.3,116.8"/>
		<path class="st3" d="M373.1,124.7c7.1-6,9.7-0.5,9.8,9.7c-0.1,2.6-0.8,4.2-1.9,4.8c-2.7,1.4-4,2.2-4,2.2c-2,1-3.5,1.1-4.5,0.5
			C372.5,141.8,372.5,136.2,373.1,124.7"/>
		<path class="st5" d="M367.2,145c-2.4,0.2-4.7-1.9-4.3-6.4l1.9-23.5l7.6-3.5c0.1,0.3,0.4,0.5,0.7,0.5h0.2l2.2,21.7
			C376.3,140.7,373.5,144.4,367.2,145"/>
		<path class="st6" d="M372.1,110.4c1.4,1.1,1.8,2.2,1.3,3.2c-1.5,2.3-3.5,3-6,2.3C367.3,115.9,368.9,114,372.1,110.4"/>
		<path class="st7" d="M422.2,109.9c0,0-1.8-2.4-1.5-16.1c-10.5,3.2-14.4,10.6-14.4,10.6c1.5,4.9,0.5,8.7,0.5,8.7
			c2,2.6,5.5,3.9,8.8,3.2C419,115.6,421.6,113.1,422.2,109.9"/>
		<path class="st3" d="M411.8,150.4h-1.4v-27.8h1.4V150.4z M421.5,105c1.8,1.2,2.8,2.2,4.7,3.4c-1.6,9-3.8,13.9-8.2,14.3
			c0,0-1.5-2.4-4.4-7.1C417.5,114.3,420.1,110.8,421.5,105z"/>
		<path class="st8" d="M396.6,94.4c1.2,11.4,2.6,18.1,4.1,20c0.7-0.1,1.3-0.6,1.7-1.3c-1.4-1-2.7-7.4-3.8-19.3
			C398.6,93.8,397.9,94,396.6,94.4"/>
		<path class="st9" d="M398,90c-1.4-0.9-3.8,0.1-7.1,2.8c0.9,0.8,3.7,1.9,8.4,3.2C399.3,96,398.9,94,398,90"/>
		<path class="st6" d="M418.8,103.8c1.3-3.9,1.5-4.7,0.2-8.6c0.3-3.6-0.9-7-3.2-9.6c-0.4,0.7-1.1,1.2-1.9,1.5
			c-0.4,0.1-0.7,0.3-1.1,0.4c-0.3,0.1-0.7,0.1-1,0.2l-0.6,0c-0.4,0-0.8,0.1-1.1,0.1h-0.1l-0.1,0c-0.4,0.1-0.7,0.2-1.1,0.2l0.2,0
			l-0.2,0.1c-0.3,0.1-0.6,0.2-0.9,0.2c-0.2,0-0.3,0.1-0.5,0.1c-0.3,0.1-0.6,0.1-0.9,0.2l0.2,0l-0.5,0.2c-0.3,0.1-0.7,0.2-1,0.2
			l-0.2,0l-0.1,0c-0.3,0.1-0.5,0.2-0.8,0.3c-0.3,0.1-0.7,0.2-1,0.2l-0.7,0.1l-0.8,0.1c-0.3,0-0.6,0-0.9,0l-0.6,0l-0.5,0
			c-0.3,0.1-0.7,0.2-1,0.2c-0.6,0.2-1.1,0.2-1.7,0.1c-0.4,2.9,0,4.8,1.4,5.7c1.9,1.3,2.2,2.4,2.1,4.3c-0.1,2.1,0.3,3.7,1.3,4.8
			c3.2,3.7,4.2,5.5,4.8,7.1c0.6,1.8,5,1.4,8.1-1.6C416.1,108.7,417.7,106.4,418.8,103.8"/>
		<path class="st10" d="M410,77.2L410,77.2L410,77.2L410,77.2z M415.3,89.9c-2.3-0.6-3.4-1.5-2.9-2.6c0.4-0.9,0.3-1.9-0.2-2.7l0.5,0
			c0.2,0,0.4,0,0.5,0l0,0l0.5,0.1c0.2,0,0.4,0.1,0.5,0.1c0.2,0.1,0.4,0.1,0.6,0.1c0.1,0,0.2,0.1,0.3,0.1c0.4,0.2,0.8,0.4,1.2,0.5
			l0.1,0c0.5,0.3,1.1,0.4,1.6,0.4c0.3,0.1,0.6,0.2,0.9,0.3c0.3,0.1,0.5,0.2,0.8,0.2c0.3,3,0.2,6.6-0.2,10.8
			c-0.3,1.6-2.5-0.4-2.6-2.3C416.9,91.7,416.8,90.4,415.3,89.9z"/>
		<path class="st6" d="M421.9,95.7c-0.1,0.5-0.4,0.8-0.8,1c-0.4,0.2-0.9,0.1-1.3-0.2c-2.3-2.1-2.7-5.6-0.9-8.2
			c0.6-0.9,1.7-1.4,2.8-1.3c1.1,0.1,2,0.8,2.5,1.8s0.4,2.2-0.4,3C422.7,92.9,422.1,94.2,421.9,95.7"/>
		<path class="st11" d="M423.6,91.6c3.7,12.3,4.9,19.9,3.7,22.7c-0.9,0.2-1.9,0-2.8-0.5c1.5-1.7,0.2-8.9-3.8-21.7
			C420.6,92,421.6,91.8,423.6,91.6"/>
		<path class="st25" d="M409.8,91.1c0,0,1.9-0.3,5.6-1c0.6-0.7,4.3-0.1,11.4,1.9c0,0-0.3-2.1-0.8-6.4c-1.3-8.5-3.9-11.5-9.3-14.2
			c-5.4-2.7-11.9-2.3-16.9,1.1c-5,3.4-7.9,9.2-7.5,15.2c0.1,1.5-0.5,2.8-1.6,3.9C398.3,91,404.7,90.8,409.8,91.1"/>
		<path class="st13" d="M415.2,89.8c0,0,3.7,0.9,11.2,2.7c-0.8,0.9-1.3,1.2-2,1.1c-7.6-1.6-11.4-2.3-11.4-2.3S413.7,90.7,415.2,89.8
			"/>
		<path class="st14" d="M427.5,91.6c-3.5-1-6.9-1.9-10.4-2.7c-0.7-0.1-1.4-0.3-2.6,0.2c-7.7-0.9-15.5-0.6-23.3,1
			c-0.2,0-0.3,0.2-0.3,0.4c0,0.2,0.2,0.3,0.4,0.3c7-1.3,14.3-1.7,21.9-1c-2.1,1-1.7,0.5-6.4,0.6c-5.9,0-11.3,0.4-16.1,1.4
			c-0.5,0.3-0.6,1-0.3,1.5c4.1-1,9.6-1.5,16.5-1.3c5,0.1,4.5,0.5,7.8-1.1c0.5-0.3,1.1-0.4,2-0.2c6.3,1.1,9.9,2.2,9.9,2.2
			C427.2,92.6,427.5,92.3,427.5,91.6"/>
		<polygon class="st15" points="422.3,85.5 424.2,85.7 422.5,86.5 422.9,88.3 421.6,87 420,87.9 420.9,86.3 419.5,85 421.3,85.4 
			422.1,83.6 		"/>
		<rect x="368" y="104.7" class="st16" width="11.1" height="5.8"/>
		<path class="st17" d="M398.2,102.1c0.2,0,0.4,0.2,0.4,0.4v1h0.3c0.3,0,0.6,0.3,0.6,0.6v2c0,0.3-0.3,0.6-0.6,0.6h-9.3
			c-0.3,0-0.6-0.3-0.6-0.6v-2c0-0.3,0.3-0.6,0.6-0.6h6.7v-1c0-0.2,0.2-0.4,0.4-0.4H398.2"/>
		<path class="st18" d="M399.8,109c0,0,8.4,3.3,25.2,9.9c0.5,0.2,0.6,0.7,0.2,1.6c-2.1,5.2-3.2,7.8-3.2,7.8
			c-0.5,1.3-1.2,1.5-3.2,0.3c-15.1-9.5-22.6-14.3-22.6-14.3c-1.7-1-2.8-2.9-2.9-4.9C393.4,109.4,395.5,109.2,399.8,109"/>
		<path class="st19" d="M380.1,103.2c0.4,0,0.7,0.4,0.7,0.8v1.3c0,0.4-0.3,0.8-0.7,0.8h-0.9l0.7,5.9h19.8v1.6c0,1.3-0.5,1.4-2.5,1.3
			h-2.5v3.7h-13.9l1.1,9c0.1,0.4-0.2,0.8-0.7,0.8H377c-0.4,0-0.8-0.3-0.8-0.8l-2.7-21.6H336c0,0,0,0,0,0h-5.2
			c-0.8,0-1.5-0.7-1.5-1.5c0-0.8,0.7-1.5,1.5-1.5h5.2h1.6v-3.4c0-0.4,0.3-0.7,0.6-0.7c0.4,0,0.6,0.3,0.6,0.7v3.4h2.5H380.1"/>
		<path class="st16" d="M401.4,104.7c0.8,0,1.5,0.7,1.5,1.5v5.2c0,0.8-0.7,1.5-1.5,1.5h-20.9c-0.8,0-1.5-0.7-1.5-1.5v-5.2
			c0-0.8,0.7-1.5,1.5-1.5H401.4"/>
		<path class="st20" d="M409.8,125.8c-23.8,15.1-38.3,16.1-56.5-14.3c0,0-2,0.2-4.1,0.2c19.5,32.8,36.4,33,61.8,15.5
			C411.1,127.2,410.9,126.7,409.8,125.8"/>
		<path class="st18" d="M371.5,105.9c0.4,0,0.7,0.3,0.7,0.7v5.2c0,0.4-0.3,0.7-0.7,0.7h-28.7c-0.4,0-0.7-0.3-0.7-0.7v-5.2
			c0-0.4,0.3-0.7,0.7-0.7H371.5"/>
		<path class="st4" d="M443.1,137c0,0,1-6.4,3-19.3c0.5-3.4-3.1-6.3-6.6-7c-3.6-0.7-7.8,0.8-8.7,4c-3.3,10-5,14.9-5,14.9
			S431.5,132.1,443.1,137"/>
		<path class="st3" d="M424.2,129.5c1.5-3.6,2.5-3.2,5.3-2.7c4.6,0.9,8.8,3.1,12.1,6.4c1.9,1.9,2.9,3.9,0.5,7.2
			c-3.3,4.6-7,8.5-10.5,5.5C432.9,143.1,433.4,136.5,424.2,129.5"/>
		<path class="st21" d="M370.2,114.3c0,0,0.3-1.1,0.8-3.4c0.2-1.7-1-4.2-3.7-5.4c-3.1-1.5-7-1.4-7.7,1c-1,3.6-0.9,5.7,0.9,6.7
			C365.9,116.3,369.6,116.8,370.2,114.3"/>
		<polygon class="st3" points="439.4,112.7 427,110.6 430.4,107.9 442.8,110.1 		"/>
		<path class="st22" d="M430.2,148c0.8,0,1.4,0.7,1.3,1.5l-0.4,3.8c-0.1,0.8-0.8,1.5-1.6,1.5h-36.9c-0.8,0-1.4-0.7-1.3-1.5l0.4-3.8
			c0.1-0.8,0.8-1.5,1.6-1.5H430.2"/>
		<path class="st6" d="M393.3,127c0,0,2.1-0.4,6.4-1.2c0,0,0.6,0.4,1.8,1.3c0,0,13.3,9.3,24.6,16.9c5.9,3.8,7.7,3.1,10.4-0.1
			c2.7-3.3,3.1-9.3-0.6-11.1c-20.2-9.5-30.3-14.2-30.3-14.2c-5.2-2.3-9.4-3.5-9.4-3.5c-1.3-0.4-3.3-0.8-5.3-0.4
			c-5.3,1.4-6.5,1.7-7.3,2c-0.6,0.2-0.5,1.2-0.3,1.8c0.2,0.6,0.6,1.5,1.2,1.3c3.6-0.9,5.4-1.4,5.4-1.4c1.1-0.3,1.2,0,0.4,0.6
			c-2,1.4-3.4,1.9-2.2,4C389.8,126.2,391.4,127.4,393.3,127"/>
		<path class="st23" d="M406.6,267.9c0.4,0,0.7,0.3,0.7,0.7v1.9c0,0.4-0.3,0.7-0.7,0.7h-29c-0.4,0-0.7-0.3-0.7-0.7v-1.9
			c0-0.4,0.3-0.7,0.7-0.7H406.6"/>
		<path class="st24" d="M432.8,255.5c0.3,0,0.5,0.2,0.5,0.5l0,0c0,0.3-0.2,0.5-0.5,0.5l-7.4-0.3c-0.3,0-0.5-0.2-0.5-0.5l0,0
			c0-0.3,0.2-0.5,0.5-0.5L432.8,255.5"/>
		<path class="st24" d="M432.5,257.6c0.3,0,0.5,0.2,0.5,0.5l0,0c0,0.3-0.2,0.5-0.5,0.5l-6.9-0.3c-0.3,0-0.5-0.2-0.5-0.5l0,0
			c0-0.3,0.2-0.5,0.5-0.5L432.5,257.6"/>
		<path class="st24" d="M432.2,259.6c0.3,0,0.5,0.2,0.5,0.5l0,0c0,0.3-0.2,0.5-0.5,0.5l-6.3-0.3c-0.3,0-0.5-0.2-0.5-0.5l0,0
			c0-0.3,0.2-0.5,0.5-0.5L432.2,259.6"/>
		<path class="st24" d="M431.8,261.5c0.3,0,0.5,0.2,0.5,0.5l0,0c0,0.3-0.2,0.5-0.5,0.5l-5.7-0.2c-0.3,0-0.5-0.2-0.5-0.5l0,0
			c0-0.3,0.2-0.5,0.5-0.5L431.8,261.5"/>
		<path class="st24" d="M431.5,263.5c0.3,0,0.5,0.2,0.5,0.5l0,0c0,0.3-0.2,0.5-0.5,0.5l-5-0.2c-0.3,0-0.5-0.2-0.5-0.5l0,0
			c0-0.3,0.2-0.5,0.5-0.5L431.5,263.5"/>
		<path class="st24" d="M431.2,265.4c0.3,0,0.5,0.2,0.5,0.5l0,0c0,0.3-0.2,0.5-0.5,0.5l-4.6-0.2c-0.3,0-0.5-0.2-0.5-0.5l0,0
			c0-0.3,0.2-0.5,0.5-0.5L431.2,265.4"/>
		<path class="st24" d="M430.9,267.2c0.3,0,0.5,0.2,0.5,0.5l0,0c0,0.3-0.2,0.5-0.5,0.5l-4-0.2c-0.3,0-0.5-0.2-0.5-0.5l0,0
			c0-0.3,0.2-0.5,0.5-0.5L430.9,267.2"/>
		<path class="st24" d="M430.5,269.1c0.3,0,0.5,0.2,0.5,0.5l0,0c0,0.3-0.2,0.5-0.5,0.5l-3.3-0.1c-0.3,0-0.5-0.2-0.5-0.5l0,0
			c0-0.3,0.2-0.5,0.5-0.5L430.5,269.1"/>
		<path class="st24" d="M430.4,271c0.3,0,0.5,0.2,0.5,0.5l0,0c0,0.3-0.2,0.5-0.5,0.5l-3-0.1c-0.3,0-0.5-0.2-0.5-0.5l0,0
			c0-0.3,0.2-0.5,0.5-0.5L430.4,271"/>
		<path class="st24" d="M399.3,248.1c0.3,0,0.5,0.3,0.5,0.5l0,0c0,0.3-0.2,0.5-0.5,0.4l-3-0.2c-0.3,0-0.5-0.3-0.5-0.5l0,0
			c0-0.3,0.2-0.5,0.5-0.4L399.3,248.1"/>
		<path class="st24" d="M399.2,249.8c0.3,0,0.5,0.3,0.5,0.5l0,0c0,0.3-0.2,0.5-0.5,0.4l-3-0.2c-0.3,0-0.5-0.3-0.5-0.5l0,0
			c0-0.3,0.2-0.5,0.5-0.4L399.2,249.8"/>
		<path class="st24" d="M399.4,251.5c0.3,0,0.5,0.3,0.5,0.5l0,0c0,0.3-0.2,0.5-0.5,0.4l-3-0.2c-0.3,0-0.5-0.3-0.5-0.5l0,0
			c0-0.3,0.2-0.5,0.5-0.4L399.4,251.5"/>
		<path class="st24" d="M399.3,253.3c0.3,0,0.5,0.3,0.5,0.5l0,0c0,0.3-0.2,0.5-0.5,0.4l-3-0.2c-0.3,0-0.5-0.3-0.5-0.5l0,0
			c0-0.3,0.2-0.5,0.5-0.4L399.3,253.3"/>
		<path class="st24" d="M399.4,255.1c0.3,0,0.5,0.3,0.5,0.5l0,0c0,0.3-0.2,0.5-0.5,0.4l-3-0.2c-0.3,0-0.5-0.3-0.5-0.5l0,0
			c0-0.3,0.2-0.5,0.5-0.4L399.4,255.1"/>
		<path class="st24" d="M399.3,256.9c0.3,0,0.5,0.3,0.5,0.5l0,0c0,0.3-0.2,0.5-0.5,0.4l-3-0.2c-0.3,0-0.5-0.3-0.5-0.5l0,0
			c0-0.3,0.2-0.5,0.5-0.4L399.3,256.9"/>
		<path class="st24" d="M398,259.9c0.2,0.2,0.2,0.5,0,0.7l0,0c-0.2,0.2-0.5,0.2-0.7,0l-2.1-2.1c-0.2-0.2-0.2-0.5,0-0.7l0,0
			c0.2-0.2,0.5-0.2,0.7,0L398,259.9"/>
		<path class="st24" d="M396.3,260.8c0.2,0.2,0.2,0.5,0,0.7l0,0c-0.2,0.2-0.5,0.2-0.7,0l-2.1-2.1c-0.2-0.2-0.2-0.5,0-0.7l0,0
			c0.2-0.2,0.5-0.2,0.7,0L396.3,260.8"/>
		<path class="st24" d="M394.7,261.8c0.2,0.2,0.2,0.5,0,0.7l0,0c-0.2,0.2-0.5,0.2-0.7,0l-2.1-2.1c-0.2-0.2-0.2-0.5,0-0.7l0,0
			c0.2-0.2,0.5-0.2,0.7,0L394.7,261.8"/>
		<path class="st24" d="M392.9,262.9c0.2,0.2,0.2,0.5,0,0.7l0,0c-0.2,0.2-0.5,0.2-0.7,0l-2.1-2.1c-0.2-0.2-0.2-0.5,0-0.7l0,0
			c0.2-0.2,0.5-0.2,0.7,0L392.9,262.9"/>
		<path class="st0" d="M459,290.3c-0.7-2-1.5-4-2.5-5.9c-2.4,0.4-3.6,0.6-3.6,0.6c-2.2,0.8-3.5,3-3.2,5.4
			C449.7,290.4,452.8,290.3,459,290.3"/>
		<path class="st1" d="M479.6,290.4c2.1-15.8,2.9-24.5,2.9-24.5c-9.4,0.1-14.1,0.2-14.1,0.2c0.8,8.6,1.1,12.8,1.1,12.8
			c-5.2,3.1-7.9,4.7-7.9,4.7c-4.2,0.7-6.3,1.1-6.3,1.1c0.5,4.4,0.8,6.6,0.8,6.6S464.1,291.4,479.6,290.4"/>
		<path class="st2" d="M477.8,290.5c0,0,1-7.7,3.1-23.1c0,0-1.3-0.3-3.9-0.9c-2.3,16.2-3.5,24.3-3.5,24.3S475,290.6,477.8,290.5"/>
		<path class="st1" d="M508.7,301.6c0,0-0.5-4.6-1.4-13.9c0,0,0.5-5.5,1.4-16.6c-8.8,0.6-13.2,0.9-13.2,0.9
			c0.6,10.5,0.9,15.8,0.9,15.8c-1.2,8.3-1.8,12.5-1.8,12.5C496.2,301.5,500.9,302,508.7,301.6"/>
		<path class="st2" d="M503.4,294.6c0,0,0.7-7.5,2.1-22.6c-4.5-0.3-6.8-0.1-7.1,0.6c0.8,14.3,1.2,21.5,1.2,21.5
			C500.7,294.9,502.1,295,503.4,294.6"/>
		<path class="st26" d="M483.9,264.3c0.1,3.3-1.2,3.5-4.2,3.5c0,0-3.3-0.1-9.8-0.4c-2.1-0.1-2.6-1.3-3.2-7.2
			c-2-19.5-3.2-31-3.5-34.5c0,0-0.3-4.1,0.5-23.2c13.8-22.6,20.4-12.6,19.6,30C483.4,248.3,483.5,258.9,483.9,264.3"/>
		<path class="st26" d="M496.1,273.2c-2.3,0-2.7-1-3.4-3.3c-3.1-12.1-6.2-18.4-7.6-25.8l-7.5-49.1c13.1,1.9,22.9,5.4,28.6,10.5
			l-1.8,30.1c-0.4,5.9,0.8,8.9,5.6,31.9c1.1,4.8,0.2,5.9-3.7,5.8C501.6,273.1,498.3,273.1,496.1,273.2"/>
		<path class="st26" d="M470.4,192.5c5,4.9,11.7,7.7,18.7,8C486.4,181.2,480.2,178.6,470.4,192.5"/>
		<path class="st26" d="M469.3,134.5l-4.9,37.5c-1.8,11.5-3.5,22.6-4.9,33.4c0,0,1.1,0,3.3,0c3.5-2,9.4-8.6,17.7-19.7
			c-0.4,3,3.1,11.5,10.4,25.4c8.5-0.8,16.2-5,21.1-11.5c0,0-2.3-6.7-6.9-20.2c-0.7-3.9-6.2-6.4-16.4-7.3h14.7l3.5-28.6
			c1.5-2.4,3.3-5.1,5.1-8.1c-3.1-1.4-7.6-3-13.6-4.8l-3.8,9.2L469.3,134.5z"/>
		<polygon class="st3" points="480.3,133.7 467.7,134.9 469.3,131.6 481.9,130.4 		"/>
		<path class="st4" d="M448.1,146.6c0,0,3.9-3.4,13.7-8.9c17.9-8,13,0.7,8.6,12.3c-8.1,6.1-14.2,10.2-17.4,10.4
			C452.7,158.1,451.4,152.9,448.1,146.6"/>
		<path class="st3" d="M463.8,138.5c0,0,0,0.4-0.1,1.3c-4.9,2.7-7.3,4-7.3,4c-1.5-2-2.2-3.1-2.2-3.1c2.4-1.3,3.5-2,3.5-2
			S459.7,138.7,463.8,138.5"/>
		<path class="st3" d="M445.5,146.4c7.1-6,9.7-0.5,9.8,9.7c-0.1,2.6-0.8,4.2-1.9,4.8c-2.7,1.4-4,2.2-4,2.2c-2,1-3.5,1.1-4.5,0.5
			C444.9,163.5,445,157.9,445.5,146.4"/>
		<path class="st5" d="M439.7,166.7c-2.4,0.2-4.7-1.9-4.3-6.4l1.9-23.5l7.6-3.5c0.1,0.3,0.4,0.5,0.7,0.5h0.2l2.2,21.7
			C448.8,162.4,446,166.1,439.7,166.7"/>
		<path class="st6" d="M444.6,132.1c1.4,1.1,1.8,2.2,1.3,3.2c-1.5,2.3-3.5,3-6,2.3C439.8,137.6,441.4,135.7,444.6,132.1"/>
		<path class="st7" d="M494.7,131.6c0,0-1.8-2.4-1.5-16.1c-10.5,3.2-14.4,10.6-14.4,10.6c1.5,4.9,0.5,8.7,0.5,8.7
			c2,2.6,5.5,3.9,8.8,3.2S494.1,134.8,494.7,131.6"/>
		<path class="st3" d="M484.3,172h-1.4v-27.8h1.4V172z M494,126.7c1.8,1.2,2.8,2.2,4.7,3.4c-1.6,9-3.8,13.9-8.2,14.3
			c0,0-1.5-2.4-4.4-7.1C490,136,492.6,132.5,494,126.7z"/>
		<path class="st8" d="M469.1,116.1c1.2,11.4,2.5,18.1,4.1,20c0.7-0.1,1.3-0.6,1.7-1.3c-1.4-1-2.7-7.4-3.8-19.3
			C471.1,115.5,470.4,115.7,469.1,116.1"/>
		<path class="st9" d="M470.5,111.7c-1.4-0.9-3.8,0.1-7.1,2.8c0.9,0.8,3.7,1.9,8.4,3.2C471.8,117.7,471.4,115.7,470.5,111.7"/>
		<path class="st6" d="M491.2,125.4c1.3-3.9,1.5-4.7,0.2-8.6c0.3-3.6-0.9-7-3.2-9.6c-0.4,0.7-1.1,1.2-1.9,1.5
			c-0.4,0.1-0.7,0.3-1.1,0.4c-0.3,0.1-0.7,0.1-1,0.2l-0.6,0c-0.4,0-0.8,0.1-1.1,0.1h-0.1l-0.1,0c-0.4,0.1-0.7,0.2-1.1,0.2l0.2,0
			l-0.2,0.1c-0.3,0.1-0.6,0.2-0.9,0.2c-0.2,0-0.3,0.1-0.5,0.1c-0.3,0.1-0.6,0.1-0.9,0.2l0.2,0l-0.5,0.2c-0.3,0.1-0.7,0.2-1,0.2
			l-0.2,0l-0.1,0c-0.3,0.1-0.5,0.2-0.8,0.3c-0.3,0.1-0.7,0.2-1,0.2l-0.7,0.1l-0.8,0.1c-0.3,0-0.6,0-0.9,0l-0.6,0l-0.5,0
			c-0.3,0.1-0.7,0.2-1,0.2c-0.6,0.2-1.1,0.2-1.7,0.1c-0.4,2.9,0,4.8,1.4,5.7c1.9,1.3,2.2,2.4,2.1,4.3c-0.1,2.1,0.3,3.7,1.3,4.8
			c3.2,3.7,4.2,5.5,4.8,7.1c0.6,1.8,5,1.4,8.1-1.6C488.6,130.3,490.2,128.1,491.2,125.4"/>
		<path class="st10" d="M482.4,98.9L482.4,98.9L482.4,98.9L482.4,98.9z M487.8,111.6c-2.3-0.6-3.4-1.5-2.9-2.6
			c0.4-0.9,0.3-1.9-0.2-2.7l0.5,0c0.2,0,0.4,0,0.5,0l0,0l0.5,0.1c0.2,0,0.4,0.1,0.5,0.1c0.2,0.1,0.4,0.1,0.6,0.1
			c0.1,0,0.2,0.1,0.3,0.1c0.4,0.2,0.8,0.4,1.2,0.5l0.1,0c0.5,0.3,1.1,0.4,1.6,0.4c0.3,0.1,0.6,0.2,0.9,0.3c0.3,0.1,0.5,0.2,0.8,0.2
			c0.3,3,0.2,6.6-0.2,10.8c-0.3,1.6-2.5-0.4-2.6-2.3C489.4,113.4,489.2,112.1,487.8,111.6z"/>
		<path class="st6" d="M494.4,117.4c-0.1,0.5-0.4,0.8-0.8,1c-0.4,0.2-0.9,0.1-1.3-0.2c-2.3-2.1-2.7-5.6-0.9-8.2
			c0.6-0.9,1.7-1.4,2.8-1.3c1.1,0.1,2,0.8,2.5,1.8c0.4,1,0.4,2.2-0.4,3C495.2,114.6,494.6,115.9,494.4,117.4"/>
		<path class="st11" d="M496.1,113.3c3.7,12.3,4.9,19.9,3.7,22.7c-0.9,0.2-1.9,0-2.8-0.5c1.5-1.7,0.2-8.9-3.8-21.7
			C493.1,113.7,494.1,113.5,496.1,113.3"/>
		<path class="st26" d="M482.3,112.8c0,0,1.9-0.3,5.6-1c0.6-0.7,4.3-0.1,11.4,1.9c0,0-0.3-2.1-0.8-6.4c-1.3-8.5-3.9-11.5-9.3-14.2
			c-5.4-2.7-11.9-2.3-16.9,1.1c-5,3.4-7.9,9.2-7.5,15.2c0.1,1.5-0.5,2.8-1.6,3.9C470.8,112.6,477.2,112.5,482.3,112.8"/>
		<path class="st13" d="M487.6,111.5c0,0,3.7,0.9,11.2,2.7c-0.8,0.9-1.3,1.2-2,1.1c-7.6-1.6-11.4-2.3-11.4-2.3
			S486.2,112.4,487.6,111.5"/>
		<path class="st14" d="M500,113.3c-3.5-1-6.9-1.9-10.4-2.7c-0.7-0.1-1.4-0.3-2.6,0.2c-7.7-0.9-15.5-0.6-23.3,1
			c-0.2,0-0.3,0.2-0.3,0.4c0,0.2,0.2,0.3,0.4,0.3c7-1.3,14.3-1.7,21.9-1c-2.1,1-1.7,0.5-6.4,0.6c-5.9,0-11.3,0.4-16.1,1.4
			c-0.5,0.3-0.6,1-0.3,1.5c4.1-1,9.6-1.5,16.5-1.3c5,0.1,4.5,0.5,7.8-1.1c0.5-0.3,1.1-0.4,2-0.2c6.3,1.1,9.9,2.2,9.9,2.2
			C499.7,114.3,500,113.9,500,113.3"/>
		<polygon class="st15" points="494.8,107.2 496.7,107.4 495,108.2 495.4,110 494.1,108.6 492.5,109.6 493.4,108 492,106.7 
			493.8,107.1 494.6,105.3 		"/>
		<rect x="440.5" y="126.4" class="st16" width="11.1" height="5.8"/>
		<path class="st17" d="M470.7,123.8c0.2,0,0.4,0.2,0.4,0.4v1h0.3c0.3,0,0.6,0.3,0.6,0.6v2c0,0.3-0.3,0.6-0.6,0.6h-9.3
			c-0.3,0-0.6-0.3-0.6-0.6v-2c0-0.3,0.3-0.6,0.6-0.6h6.7v-1c0-0.2,0.2-0.4,0.4-0.4H470.7"/>
		<path class="st18" d="M472.3,130.6c0,0,8.4,3.3,25.2,9.9c0.5,0.2,0.6,0.7,0.2,1.6c-2.1,5.2-3.2,7.8-3.2,7.8
			c-0.5,1.3-1.2,1.5-3.2,0.3c-15.1-9.5-22.6-14.3-22.6-14.3c-1.7-1-2.8-2.9-2.9-4.9C465.9,131,468,130.9,472.3,130.6"/>
		<path class="st19" d="M452.6,124.9c0.4,0,0.7,0.4,0.7,0.8v1.3c0,0.4-0.3,0.8-0.7,0.8h-0.9l0.7,5.9h19.8v1.6c0,1.3-0.5,1.4-2.5,1.3
			h-2.5v3.7h-13.9l1.1,9c0.1,0.4-0.2,0.8-0.7,0.8h-4.2c-0.4,0-0.8-0.3-0.8-0.8l-2.7-21.6h-37.5c0,0,0,0,0,0h-5.2
			c-0.8,0-1.5-0.7-1.5-1.5c0-0.8,0.7-1.5,1.5-1.5h5.2h1.6v-3.4c0-0.4,0.3-0.7,0.6-0.7c0.4,0,0.6,0.3,0.6,0.7v3.4h2.5H452.6"/>
		<path class="st16" d="M473.9,126.4c0.8,0,1.5,0.7,1.5,1.5v5.2c0,0.8-0.7,1.5-1.5,1.5H453c-0.8,0-1.5-0.7-1.5-1.5v-5.2
			c0-0.8,0.7-1.5,1.5-1.5H473.9"/>
		<path class="st20" d="M482.3,147.5c-23.8,15.1-38.3,16.1-56.5-14.3c0,0-2,0.2-4.1,0.2c19.5,32.8,36.4,33,61.8,15.5
			C483.6,148.9,483.4,148.4,482.3,147.5"/>
		<path class="st18" d="M444,127.6c0.4,0,0.7,0.3,0.7,0.7v5.2c0,0.4-0.3,0.7-0.7,0.7h-28.7c-0.4,0-0.7-0.3-0.7-0.7v-5.2
			c0-0.4,0.3-0.7,0.7-0.7H444"/>
		<path class="st4" d="M515.6,158.7c0,0,1-6.4,3-19.3c0.5-3.4-3.1-6.3-6.6-7c-3.6-0.7-7.8,0.8-8.7,4c-3.3,10-5,14.9-5,14.9
			S504,153.8,515.6,158.7"/>
		<path class="st3" d="M496.7,151.2c1.5-3.6,2.5-3.2,5.3-2.7c4.6,0.9,8.8,3.1,12.1,6.4c1.9,1.9,2.9,3.9,0.5,7.2
			c-3.3,4.6-7,8.5-10.5,5.5C505.4,164.8,505.9,158.2,496.7,151.2"/>
		<path class="st21" d="M442.7,136c0,0,0.3-1.1,0.8-3.4c0.2-1.7-1-4.2-3.7-5.4c-3.1-1.5-7-1.4-7.7,1c-1,3.6-0.9,5.7,0.9,6.7
			C438.4,137.9,442.1,138.5,442.7,136"/>
		<polygon class="st3" points="511.9,134.4 499.5,132.3 502.9,129.6 515.3,131.8 		"/>
		<path class="st22" d="M502.7,169.7c0.8,0,1.4,0.7,1.3,1.5l-0.4,3.8c-0.1,0.8-0.8,1.5-1.6,1.5h-36.9c-0.8,0-1.4-0.7-1.3-1.5
			l0.4-3.8c0.1-0.8,0.8-1.5,1.6-1.5H502.7"/>
		<path class="st6" d="M465.8,148.7c0,0,2.1-0.4,6.4-1.2c0,0,0.6,0.4,1.8,1.3c0,0,13.3,9.3,24.6,16.9c5.9,3.8,7.7,3.1,10.4-0.1
			c2.7-3.3,3.1-9.3-0.6-11.1c-20.2-9.5-30.3-14.2-30.3-14.2c-5.2-2.3-9.4-3.5-9.4-3.5c-1.3-0.4-3.3-0.8-5.3-0.4
			c-5.3,1.4-6.5,1.7-7.3,2c-0.6,0.2-0.5,1.2-0.3,1.8c0.2,0.6,0.6,1.5,1.2,1.3c3.6-0.9,5.4-1.4,5.4-1.4c1.1-0.3,1.2,0,0.4,0.6
			c-2,1.4-3.4,1.9-2.2,4C462.3,147.9,463.9,149.1,465.8,148.7"/>
		<path class="st23" d="M479.1,289.6c0.4,0,0.7,0.3,0.7,0.7v1.9c0,0.4-0.3,0.7-0.7,0.7h-29c-0.4,0-0.7-0.3-0.7-0.7v-1.9
			c0-0.4,0.3-0.7,0.7-0.7H479.1"/>
		<path class="st24" d="M505.3,277.2c0.3,0,0.5,0.2,0.5,0.5l0,0c0,0.3-0.2,0.5-0.5,0.5l-7.4-0.3c-0.3,0-0.5-0.2-0.5-0.5l0,0
			c0-0.3,0.2-0.5,0.5-0.5L505.3,277.2"/>
		<path class="st24" d="M505,279.3c0.3,0,0.5,0.2,0.5,0.5l0,0c0,0.3-0.2,0.5-0.5,0.5l-6.9-0.3c-0.3,0-0.5-0.2-0.5-0.5l0,0
			c0-0.3,0.2-0.5,0.5-0.5L505,279.3"/>
		<path class="st24" d="M504.7,281.2c0.3,0,0.5,0.2,0.5,0.5l0,0c0,0.3-0.2,0.5-0.5,0.5l-6.3-0.3c-0.3,0-0.5-0.2-0.5-0.5l0,0
			c0-0.3,0.2-0.5,0.5-0.5L504.7,281.2"/>
		<path class="st24" d="M504.3,283.2c0.3,0,0.5,0.2,0.5,0.5l0,0c0,0.3-0.2,0.5-0.5,0.5l-5.7-0.2c-0.3,0-0.5-0.2-0.5-0.5l0,0
			c0-0.3,0.2-0.5,0.5-0.5L504.3,283.2"/>
		<path class="st24" d="M503.9,285.2c0.3,0,0.5,0.2,0.5,0.5l0,0c0,0.3-0.2,0.5-0.5,0.5l-5-0.2c-0.3,0-0.5-0.2-0.5-0.5l0,0
			c0-0.3,0.2-0.5,0.5-0.5L503.9,285.2"/>
		<path class="st24" d="M503.7,287.1c0.3,0,0.5,0.2,0.5,0.5l0,0c0,0.3-0.2,0.5-0.5,0.5l-4.6-0.2c-0.3,0-0.5-0.2-0.5-0.5l0,0
			c0-0.3,0.2-0.5,0.5-0.5L503.7,287.1"/>
		<path class="st24" d="M503.4,288.9c0.3,0,0.5,0.2,0.5,0.5l0,0c0,0.3-0.2,0.5-0.5,0.5l-4-0.2c-0.3,0-0.5-0.2-0.5-0.5l0,0
			c0-0.3,0.2-0.5,0.5-0.5L503.4,288.9"/>
		<path class="st24" d="M503,290.7c0.3,0,0.5,0.2,0.5,0.5l0,0c0,0.3-0.2,0.5-0.5,0.5l-3.3-0.1c-0.3,0-0.5-0.2-0.5-0.5l0,0
			c0-0.3,0.2-0.5,0.5-0.5L503,290.7"/>
		<path class="st24" d="M502.8,292.7c0.3,0,0.5,0.2,0.5,0.5l0,0c0,0.3-0.2,0.5-0.5,0.5l-3-0.1c-0.3,0-0.5-0.2-0.5-0.5l0,0
			c0-0.3,0.2-0.5,0.5-0.5L502.8,292.7"/>
		<path class="st24" d="M471.8,269.8c0.3,0,0.5,0.3,0.5,0.5l0,0c0,0.3-0.2,0.5-0.5,0.4l-3-0.2c-0.3,0-0.5-0.3-0.5-0.5l0,0
			c0-0.3,0.2-0.5,0.5-0.4L471.8,269.8"/>
		<path class="st24" d="M471.7,271.5c0.3,0,0.5,0.3,0.5,0.5l0,0c0,0.3-0.2,0.5-0.5,0.4l-3-0.2c-0.3,0-0.5-0.3-0.5-0.5l0,0
			c0-0.3,0.2-0.5,0.5-0.4L471.7,271.5"/>
		<path class="st24" d="M471.9,273.2c0.3,0,0.5,0.3,0.5,0.5l0,0c0,0.3-0.2,0.5-0.5,0.4l-3-0.2c-0.3,0-0.5-0.3-0.5-0.5l0,0
			c0-0.3,0.2-0.5,0.5-0.4L471.9,273.2"/>
		<path class="st24" d="M471.8,275c0.3,0,0.5,0.3,0.5,0.5l0,0c0,0.3-0.2,0.5-0.5,0.4l-3-0.2c-0.3,0-0.5-0.3-0.5-0.5l0,0
			c0-0.3,0.2-0.5,0.5-0.4L471.8,275"/>
		<path class="st24" d="M471.9,276.8c0.3,0,0.5,0.3,0.5,0.5l0,0c0,0.3-0.2,0.5-0.5,0.4l-3-0.2c-0.3,0-0.5-0.3-0.5-0.5l0,0
			c0-0.3,0.2-0.5,0.5-0.4L471.9,276.8"/>
		<path class="st24" d="M471.8,278.6c0.3,0,0.5,0.3,0.5,0.5l0,0c0,0.3-0.2,0.5-0.5,0.4l-3-0.2c-0.3,0-0.5-0.3-0.5-0.5l0,0
			c0-0.3,0.2-0.5,0.5-0.4L471.8,278.6"/>
		<path class="st24" d="M470.5,281.6c0.2,0.2,0.2,0.5,0,0.7l0,0c-0.2,0.2-0.5,0.2-0.7,0l-2.1-2.1c-0.2-0.2-0.2-0.5,0-0.7l0,0
			c0.2-0.2,0.5-0.2,0.7,0L470.5,281.6"/>
		<path class="st24" d="M468.8,282.5c0.2,0.2,0.2,0.5,0,0.7l0,0c-0.2,0.2-0.5,0.2-0.7,0l-2.1-2.1c-0.2-0.2-0.2-0.5,0-0.7l0,0
			c0.2-0.2,0.5-0.2,0.7,0L468.8,282.5"/>
		<path class="st24" d="M467.2,283.5c0.2,0.2,0.2,0.5,0,0.7l0,0c-0.2,0.2-0.5,0.2-0.7,0l-2.1-2.1c-0.2-0.2-0.2-0.5,0-0.7l0,0
			c0.2-0.2,0.5-0.2,0.7,0L467.2,283.5"/>
		<path class="st24" d="M465.4,284.6c0.2,0.2,0.2,0.5,0,0.7l0,0c-0.2,0.2-0.5,0.2-0.7,0l-2.1-2.1c-0.2-0.2-0.2-0.5,0-0.7l0,0
			c0.2-0.2,0.5-0.2,0.7,0L465.4,284.6"/>
		<path class="st0" d="M527.3,319.6c-0.7-2-1.5-4-2.5-5.9c-2.4,0.4-3.6,0.6-3.6,0.6c-2.2,0.8-3.5,3-3.2,5.4
			C518,319.7,521.1,319.7,527.3,319.6"/>
		<path class="st1" d="M547.9,319.7c2.1-15.8,2.9-24.5,2.9-24.5c-9.4,0.1-14.1,0.2-14.1,0.2c0.8,8.6,1.1,12.8,1.1,12.8
			c-5.2,3.1-7.9,4.7-7.9,4.7c-4.2,0.7-6.3,1.1-6.3,1.1c0.5,4.4,0.8,6.6,0.8,6.6S532.4,320.7,547.9,319.7"/>
		<path class="st2" d="M546.2,319.8c0,0,1-7.7,3.1-23.1c0,0-1.3-0.3-3.9-0.9c-2.3,16.2-3.5,24.3-3.5,24.3S543.4,320,546.2,319.8"/>
		<path class="st1" d="M577.1,331c0,0-0.5-4.6-1.4-13.9c0,0,0.5-5.5,1.4-16.6c-8.8,0.6-13.2,0.9-13.2,0.9
			c0.6,10.5,0.9,15.8,0.9,15.8c-1.2,8.3-1.8,12.5-1.8,12.5C564.6,330.8,569.2,331.3,577.1,331"/>
		<path class="st2" d="M571.7,323.9c0,0,0.7-7.5,2.1-22.6c-4.5-0.3-6.8-0.1-7.1,0.6c0.8,14.3,1.2,21.5,1.2,21.5
			C569.1,324.2,570.5,324.4,571.7,323.9"/>
		<path class="st27" d="M552.2,293.6c0.1,3.3-1.2,3.5-4.2,3.5c0,0-3.3-0.1-9.8-0.4c-2.1-0.1-2.6-1.3-3.2-7.2
			c-2-19.5-3.2-31-3.5-34.5c0,0-0.3-4.1,0.5-23.2c13.8-22.6,20.4-12.6,19.6,30C551.7,277.7,551.9,288.3,552.2,293.6"/>
		<path class="st27" d="M564.4,302.5c-2.3,0-2.7-1-3.4-3.3c-3.1-12.1-6.2-18.4-7.6-25.8l-7.5-49.1c13.1,1.9,22.9,5.4,28.6,10.5
			l-1.8,30.1c-0.4,5.9,0.8,8.9,5.6,31.9c1.1,4.8,0.2,5.9-3.7,5.8C570,302.4,566.6,302.4,564.4,302.5"/>
		<path class="st27" d="M538.7,221.8c5,4.9,11.7,7.7,18.7,8C554.8,210.6,548.6,207.9,538.7,221.8"/>
		<path class="st27" d="M537.7,163.8l-4.9,37.5c-1.8,11.5-3.5,22.6-4.9,33.4c0,0,1.1,0,3.3,0c3.5-2,9.4-8.6,17.7-19.7
			c-0.4,3,3.1,11.5,10.4,25.4c8.5-0.8,16.2-5,21.1-11.5c0,0-2.3-6.7-6.9-20.2c-0.7-3.9-6.2-6.4-16.4-7.3h14.7l3.5-28.6
			c1.5-2.4,3.3-5.1,5.1-8.1c-3.1-1.4-7.6-3-13.6-4.8l-3.8,9.2L537.7,163.8z"/>
		<polygon class="st3" points="548.7,163 536.1,164.2 537.7,160.9 550.3,159.7 		"/>
		<path class="st4" d="M516.4,176c0,0,3.9-3.4,13.7-8.9c17.9-8,13,0.7,8.6,12.3c-8.1,6.1-14.2,10.2-17.4,10.4
			C521.1,187.5,519.8,182.2,516.4,176"/>
		<path class="st3" d="M532.1,167.8c0,0,0,0.4-0.1,1.3c-4.9,2.7-7.3,4-7.3,4c-1.5-2-2.2-3.1-2.2-3.1c2.4-1.3,3.5-2,3.5-2
			S528.1,168,532.1,167.8"/>
		<path class="st3" d="M513.9,175.7c7.1-6,9.7-0.5,9.8,9.7c-0.1,2.6-0.8,4.2-1.9,4.8c-2.7,1.4-4,2.2-4,2.2c-2,1-3.5,1.1-4.5,0.5
			C513.3,192.8,513.3,187.2,513.9,175.7"/>
		<path class="st5" d="M508.1,196c-2.4,0.2-4.7-1.9-4.3-6.4l1.9-23.5l7.6-3.5c0.1,0.3,0.4,0.5,0.7,0.5h0.2l2.2,21.7
			C517.1,191.7,514.4,195.4,508.1,196"/>
		<path class="st6" d="M512.9,161.4c1.4,1.1,1.8,2.2,1.3,3.2c-1.5,2.3-3.5,3-6,2.3C508.1,166.9,509.7,165,512.9,161.4"/>
		<path class="st7" d="M563,160.9c0,0-1.8-2.4-1.5-16.1c-10.5,3.2-14.4,10.6-14.4,10.6c1.5,4.9,0.5,8.7,0.5,8.7
			c2,2.6,5.5,3.9,8.8,3.2C559.8,166.6,562.4,164.1,563,160.9"/>
		<path class="st3" d="M552.7,201.4h-1.4v-27.8h1.4V201.4z M562.3,156.1c1.8,1.2,2.8,2.2,4.7,3.4c-1.6,9-3.8,13.9-8.2,14.3
			c0,0-1.5-2.4-4.4-7.1C558.3,165.3,561,161.8,562.3,156.1z"/>
		<path class="st8" d="M537.4,145.4c1.2,11.4,2.5,18.1,4.1,20c0.7-0.1,1.3-0.6,1.7-1.3c-1.4-1-2.7-7.4-3.8-19.3
			C539.4,144.8,538.8,145,537.4,145.4"/>
		<path class="st9" d="M538.9,141.1c-1.4-0.9-3.8,0.1-7.1,2.8c0.9,0.8,3.7,1.9,8.4,3.2C540.1,147,539.7,145,538.9,141.1"/>
		<path class="st6" d="M559.6,154.8c1.3-3.9,1.5-4.7,0.2-8.6c0.3-3.6-0.9-7-3.2-9.6c-0.4,0.7-1.1,1.2-1.9,1.5
			c-0.4,0.1-0.7,0.3-1.1,0.4c-0.3,0.1-0.7,0.1-1,0.2l-0.6,0c-0.4,0-0.8,0.1-1.1,0.1h-0.1l-0.1,0c-0.4,0.1-0.7,0.2-1.1,0.2l0.2,0
			l-0.2,0.1c-0.3,0.1-0.6,0.2-0.9,0.2c-0.2,0-0.3,0.1-0.5,0.1c-0.3,0.1-0.6,0.1-0.9,0.2l0.2,0l-0.5,0.2c-0.3,0.1-0.7,0.2-1,0.2
			l-0.2,0l-0.1,0c-0.3,0.1-0.5,0.2-0.8,0.3c-0.3,0.1-0.7,0.2-1,0.2l-0.7,0.1l-0.8,0.1c-0.3,0-0.6,0-0.9,0l-0.6,0l-0.5,0
			c-0.3,0.1-0.7,0.2-1,0.2c-0.6,0.2-1.1,0.2-1.7,0.1c-0.4,2.9,0,4.8,1.4,5.7c1.9,1.3,2.2,2.4,2.1,4.3c-0.1,2.1,0.3,3.7,1.3,4.8
			c3.2,3.7,4.2,5.5,4.8,7.1c0.6,1.8,5,1.4,8.1-1.6C557,159.7,558.6,157.4,559.6,154.8"/>
		<path class="st10" d="M550.8,128.2L550.8,128.2L550.8,128.2L550.8,128.2z M556.2,140.9c-2.3-0.6-3.4-1.5-2.9-2.6
			c0.4-0.9,0.3-1.9-0.2-2.7l0.5,0c0.2,0,0.4,0,0.5,0l0,0l0.5,0.1c0.2,0,0.4,0.1,0.5,0.1c0.2,0.1,0.4,0.1,0.6,0.1
			c0.1,0,0.2,0.1,0.3,0.1c0.4,0.2,0.8,0.4,1.2,0.5l0.1,0c0.5,0.3,1.1,0.4,1.6,0.4c0.3,0.1,0.6,0.2,0.9,0.3c0.3,0.1,0.5,0.2,0.8,0.2
			c0.3,3,0.2,6.6-0.2,10.8c-0.3,1.6-2.5-0.4-2.6-2.3C557.8,142.7,557.6,141.4,556.2,140.9z"/>
		<path class="st6" d="M562.7,146.7c-0.1,0.5-0.4,0.8-0.8,1c-0.4,0.2-0.9,0.1-1.3-0.2c-2.3-2.1-2.7-5.6-0.9-8.2
			c0.6-0.9,1.7-1.4,2.8-1.3c1.1,0.1,2,0.8,2.5,1.8c0.4,1,0.4,2.2-0.4,3C563.5,143.9,562.9,145.2,562.7,146.7"/>
		<path class="st11" d="M564.4,142.6c3.7,12.3,4.9,19.9,3.7,22.7c-0.9,0.2-1.9,0-2.8-0.5c1.5-1.7,0.2-8.9-3.8-21.7
			C561.5,143,562.4,142.8,564.4,142.6"/>
		<path class="st27" d="M550.6,142.1c0,0,1.9-0.3,5.6-1c0.6-0.7,4.3-0.1,11.4,1.9c0,0-0.3-2.1-0.8-6.4c-1.3-8.5-3.9-11.5-9.3-14.2
			s-11.9-2.3-16.9,1.1c-5,3.4-7.9,9.2-7.5,15.2c0.1,1.5-0.5,2.8-1.6,3.9C539.2,142,545.5,141.8,550.6,142.1"/>
		<path class="st13" d="M556,140.8c0,0,3.7,0.9,11.2,2.7c-0.8,0.9-1.3,1.2-2,1.1c-7.6-1.6-11.4-2.3-11.4-2.3S554.5,141.7,556,140.8"
			/>
		<path class="st14" d="M568.4,142.6c-3.4-1-6.9-1.9-10.4-2.7c-0.7-0.1-1.4-0.3-2.6,0.2c-7.7-0.9-15.5-0.6-23.3,1
			c-0.2,0-0.3,0.2-0.3,0.4c0,0.2,0.2,0.3,0.4,0.3c7-1.3,14.3-1.7,21.9-1c-2.1,1-1.7,0.5-6.4,0.6c-5.9,0-11.3,0.4-16.1,1.4
			c-0.5,0.3-0.6,1-0.3,1.5c4.1-1,9.6-1.5,16.5-1.3c5,0.1,4.5,0.5,7.8-1.1c0.5-0.3,1.1-0.4,2-0.2c6.3,1.1,9.9,2.2,9.9,2.2
			C568.1,143.6,568.4,143.3,568.4,142.6"/>
		<polygon class="st15" points="563.1,136.5 565,136.7 563.3,137.5 563.7,139.3 562.4,138 560.8,138.9 561.7,137.3 560.3,136 
			562.2,136.4 562.9,134.6 		"/>
		<rect x="508.9" y="155.7" class="st16" width="11.1" height="5.8"/>
		<path class="st17" d="M539.1,153.1c0.2,0,0.4,0.2,0.4,0.4v1h0.3c0.3,0,0.6,0.3,0.6,0.6v2c0,0.3-0.3,0.6-0.6,0.6h-9.3
			c-0.3,0-0.6-0.3-0.6-0.6v-2c0-0.3,0.3-0.6,0.6-0.6h6.7v-1c0-0.2,0.2-0.4,0.4-0.4H539.1"/>
		<path class="st18" d="M540.6,160c0,0,8.4,3.3,25.2,9.9c0.5,0.2,0.6,0.7,0.2,1.6c-2.1,5.2-3.2,7.8-3.2,7.8
			c-0.5,1.3-1.2,1.5-3.2,0.3c-15.1-9.5-22.6-14.3-22.6-14.3c-1.7-1-2.8-2.9-2.9-4.9C534.2,160.4,536.3,160.2,540.6,160"/>
		<path class="st19" d="M521,154.2c0.4,0,0.7,0.4,0.7,0.8v1.3c0,0.4-0.3,0.8-0.7,0.8h-0.9l0.7,5.9h19.8v1.6c0,1.3-0.5,1.4-2.5,1.3
			h-2.5v3.7h-13.9l1.1,9c0.1,0.4-0.2,0.8-0.7,0.8h-4.2c-0.4,0-0.8-0.3-0.8-0.8l-2.7-21.6h-37.5c0,0,0,0,0,0h-5.2
			c-0.8,0-1.5-0.7-1.5-1.5c0-0.8,0.7-1.5,1.5-1.5h5.2h1.6v-3.4c0-0.4,0.3-0.7,0.6-0.7c0.4,0,0.6,0.3,0.6,0.7v3.4h2.5H521"/>
		<path class="st16" d="M542.2,155.7c0.8,0,1.5,0.7,1.5,1.5v5.2c0,0.8-0.7,1.5-1.5,1.5h-20.9c-0.8,0-1.5-0.7-1.5-1.5v-5.2
			c0-0.8,0.7-1.5,1.5-1.5H542.2"/>
		<path class="st20" d="M550.6,176.8c-23.8,15.1-38.3,16.1-56.5-14.3c0,0-2,0.2-4.1,0.2c19.5,32.8,36.4,33,61.8,15.5
			C551.9,178.2,551.7,177.7,550.6,176.8"/>
		<path class="st18" d="M512.4,157c0.4,0,0.7,0.3,0.7,0.7v5.2c0,0.4-0.3,0.7-0.7,0.7h-28.7c-0.4,0-0.7-0.3-0.7-0.7v-5.2
			c0-0.4,0.3-0.7,0.7-0.7H512.4"/>
		<path class="st4" d="M583.9,188c0,0,1-6.4,3-19.3c0.5-3.4-3.1-6.3-6.6-7c-3.6-0.7-7.8,0.8-8.7,4c-3.3,10-5,14.9-5,14.9
			S572.3,183.1,583.9,188"/>
		<path class="st3" d="M565,180.5c1.5-3.6,2.5-3.2,5.3-2.7c4.6,0.9,8.8,3.1,12.1,6.4c1.9,1.9,2.9,3.9,0.5,7.2
			c-3.3,4.6-7,8.5-10.5,5.5C573.8,194.2,574.2,187.5,565,180.5"/>
		<path class="st21" d="M511,165.3c0,0,0.3-1.1,0.8-3.4c0.2-1.7-1-4.2-3.7-5.4c-3.1-1.5-7-1.4-7.7,1c-1,3.6-0.9,5.7,0.9,6.7
			C506.8,167.3,510.5,167.8,511,165.3"/>
		<polygon class="st3" points="580.2,163.8 567.9,161.6 571.3,159 583.6,161.1 		"/>
		<path class="st22" d="M571.1,199c0.8,0,1.4,0.7,1.3,1.5l-0.4,3.8c-0.1,0.8-0.8,1.5-1.6,1.5h-36.9c-0.8,0-1.4-0.7-1.3-1.5l0.4-3.8
			c0.1-0.8,0.8-1.5,1.6-1.5H571.1"/>
		<path class="st6" d="M534.1,178c0,0,2.1-0.4,6.4-1.2c0,0,0.6,0.4,1.8,1.3c0,0,13.3,9.3,24.6,16.9c5.9,3.8,7.7,3.1,10.4-0.1
			s3.1-9.3-0.6-11.1c-20.2-9.5-30.3-14.2-30.3-14.2c-5.2-2.3-9.4-3.5-9.4-3.5c-1.3-0.4-3.3-0.8-5.3-0.4c-5.3,1.4-6.5,1.7-7.3,2
			c-0.6,0.2-0.5,1.2-0.3,1.8c0.2,0.6,0.6,1.5,1.2,1.3c3.6-0.9,5.4-1.4,5.4-1.4c1.1-0.3,1.2,0,0.4,0.6c-2,1.4-3.4,1.9-2.2,4
			C530.7,177.2,532.2,178.4,534.1,178"/>
		<path class="st23" d="M547.4,318.9c0.4,0,0.7,0.3,0.7,0.7v1.9c0,0.4-0.3,0.7-0.7,0.7h-29c-0.4,0-0.7-0.3-0.7-0.7v-1.9
			c0-0.4,0.3-0.7,0.7-0.7H547.4"/>
		<path class="st24" d="M573.6,306.5c0.3,0,0.5,0.2,0.5,0.5l0,0c0,0.3-0.2,0.5-0.5,0.5l-7.4-0.3c-0.3,0-0.5-0.2-0.5-0.5l0,0
			c0-0.3,0.2-0.5,0.5-0.5L573.6,306.5"/>
		<path class="st24" d="M573.3,308.6c0.3,0,0.5,0.2,0.5,0.5l0,0c0,0.3-0.2,0.5-0.5,0.5l-6.9-0.3c-0.3,0-0.5-0.2-0.5-0.5l0,0
			c0-0.3,0.2-0.5,0.5-0.5L573.3,308.6"/>
		<path class="st24" d="M573,310.6c0.3,0,0.5,0.2,0.5,0.5l0,0c0,0.3-0.2,0.5-0.5,0.5l-6.3-0.3c-0.3,0-0.5-0.2-0.5-0.5l0,0
			c0-0.3,0.2-0.5,0.5-0.5L573,310.6"/>
		<path class="st24" d="M572.6,312.5c0.3,0,0.5,0.2,0.5,0.5l0,0c0,0.3-0.2,0.5-0.5,0.5l-5.7-0.2c-0.3,0-0.5-0.2-0.5-0.5l0,0
			c0-0.3,0.2-0.5,0.5-0.5L572.6,312.5"/>
		<path class="st24" d="M572.3,314.5c0.3,0,0.5,0.2,0.5,0.5l0,0c0,0.3-0.2,0.5-0.5,0.5l-5-0.2c-0.3,0-0.5-0.2-0.5-0.5l0,0
			c0-0.3,0.2-0.5,0.5-0.5L572.3,314.5"/>
		<path class="st24" d="M572.1,316.4c0.3,0,0.5,0.2,0.5,0.5l0,0c0,0.3-0.2,0.5-0.5,0.5l-4.6-0.2c-0.3,0-0.5-0.2-0.5-0.5l0,0
			c0-0.3,0.2-0.5,0.5-0.5L572.1,316.4"/>
		<path class="st24" d="M571.8,318.2c0.3,0,0.5,0.2,0.5,0.5l0,0c0,0.3-0.2,0.5-0.5,0.5l-4-0.2c-0.3,0-0.5-0.2-0.5-0.5l0,0
			c0-0.3,0.2-0.5,0.5-0.5L571.8,318.2"/>
		<path class="st24" d="M571.4,320.1c0.3,0,0.5,0.2,0.5,0.5l0,0c0,0.3-0.2,0.5-0.5,0.5l-3.3-0.1c-0.3,0-0.5-0.2-0.5-0.5l0,0
			c0-0.3,0.2-0.5,0.5-0.5L571.4,320.1"/>
		<path class="st24" d="M571.2,322.1c0.3,0,0.5,0.2,0.5,0.5l0,0c0,0.3-0.2,0.5-0.5,0.5l-3-0.1c-0.3,0-0.5-0.2-0.5-0.5l0,0
			c0-0.3,0.2-0.5,0.5-0.5L571.2,322.1"/>
		<path class="st24" d="M540.2,299.1c0.3,0,0.5,0.3,0.5,0.5l0,0c0,0.3-0.2,0.5-0.5,0.4l-3-0.2c-0.3,0-0.5-0.3-0.5-0.5l0,0
			c0-0.3,0.2-0.5,0.5-0.4L540.2,299.1"/>
		<path class="st24" d="M540.1,300.9c0.3,0,0.5,0.3,0.5,0.5l0,0c0,0.3-0.2,0.5-0.5,0.4l-3-0.2c-0.3,0-0.5-0.3-0.5-0.5l0,0
			c0-0.3,0.2-0.5,0.5-0.4L540.1,300.9"/>
		<path class="st24" d="M540.2,302.6c0.3,0,0.5,0.3,0.5,0.5l0,0c0,0.3-0.2,0.5-0.5,0.4l-3-0.2c-0.3,0-0.5-0.3-0.5-0.5l0,0
			c0-0.3,0.2-0.5,0.5-0.4L540.2,302.6"/>
		<path class="st24" d="M540.2,304.3c0.3,0,0.5,0.3,0.5,0.5l0,0c0,0.3-0.2,0.5-0.5,0.4l-3-0.2c-0.3,0-0.5-0.3-0.5-0.5l0,0
			c0-0.3,0.2-0.5,0.5-0.4L540.2,304.3"/>
		<path class="st24" d="M540.2,306.1c0.3,0,0.5,0.3,0.5,0.5l0,0c0,0.3-0.2,0.5-0.5,0.4l-3-0.2c-0.3,0-0.5-0.3-0.5-0.5l0,0
			c0-0.3,0.2-0.5,0.5-0.4L540.2,306.1"/>
		<path class="st24" d="M540.1,307.9c0.3,0,0.5,0.3,0.5,0.5l0,0c0,0.3-0.2,0.5-0.5,0.4l-3-0.2c-0.3,0-0.5-0.3-0.5-0.5l0,0
			c0-0.3,0.2-0.5,0.5-0.4L540.1,307.9"/>
		<path class="st24" d="M538.9,311c0.2,0.2,0.2,0.5,0,0.7l0,0c-0.2,0.2-0.5,0.2-0.7,0l-2.1-2.1c-0.2-0.2-0.2-0.5,0-0.7l0,0
			c0.2-0.2,0.5-0.2,0.7,0L538.9,311"/>
		<path class="st24" d="M537.1,311.8c0.2,0.2,0.2,0.5,0,0.7l0,0c-0.2,0.2-0.5,0.2-0.7,0l-2.1-2.1c-0.2-0.2-0.2-0.5,0-0.7l0,0
			c0.2-0.2,0.5-0.2,0.7,0L537.1,311.8"/>
		<path class="st24" d="M535.6,312.8c0.2,0.2,0.2,0.5,0,0.7l0,0c-0.2,0.2-0.5,0.2-0.7,0l-2.1-2.1c-0.2-0.2-0.2-0.5,0-0.7l0,0
			c0.2-0.2,0.5-0.2,0.7,0L535.6,312.8"/>
		<path class="st24" d="M533.8,314c0.2,0.2,0.2,0.5,0,0.7l0,0c-0.2,0.2-0.5,0.2-0.7,0l-2.1-2.1c-0.2-0.2-0.2-0.5,0-0.7l0,0
			c0.2-0.2,0.5-0.2,0.7,0L533.8,314"/>
	</g>
	<path class="st0" d="M444.8,349.1c-0.7-2.1-1.6-4.1-2.6-6.1c-2.5,0.4-3.8,0.6-3.8,0.6c-2.3,0.8-3.7,3.1-3.3,5.5
		C435.1,349.2,438.4,349.1,444.8,349.1"/>
	<path class="st1" d="M466.2,349.2c2.2-16.4,3-25.4,3-25.4c-9.8,0.1-14.6,0.2-14.6,0.2c0.8,8.9,1.2,13.3,1.2,13.3
		c-5.4,3.2-8.2,4.9-8.2,4.9c-4.4,0.7-6.6,1.1-6.6,1.1c0.5,4.6,0.8,6.8,0.8,6.8S450.1,350.3,466.2,349.2"/>
	<path class="st2" d="M464.4,349.3c0,0,1.1-8,3.2-24c0,0-1.3-0.3-4-0.9c-2.4,16.8-3.6,25.1-3.6,25.1S461.4,349.5,464.4,349.3"/>
	<path class="st1" d="M496.4,360.9c0,0-0.5-4.8-1.4-14.4c0,0,0.5-5.7,1.5-17.2c-9.1,0.6-13.6,0.9-13.6,0.9
		c0.6,10.9,0.9,16.3,0.9,16.3c-1.2,8.6-1.8,13-1.8,13C483.4,360.7,488.3,361.2,496.4,360.9"/>
	<path class="st2" d="M490.8,353.5c0,0,0.7-7.8,2.2-23.4c-4.6-0.3-7.1-0.1-7.3,0.7c0.8,14.8,1.2,22.3,1.2,22.3
		C488.1,353.8,489.6,354,490.8,353.5"/>
	<path class="st28" d="M470.6,322.1c0.1,3.4-1.3,3.7-4.4,3.7c0,0-3.4-0.1-10.2-0.4c-2.2-0.1-2.6-1.3-3.3-7.5
		c-2.1-20.2-3.3-32.2-3.6-35.8c0,0-0.3-4.2,0.5-24.1c14.4-23.4,21.1-13,20.3,31.1C470.1,305.6,470.3,316.6,470.6,322.1"/>
	<path class="st28" d="M483.3,331.3c-2.4,0-2.8-1-3.6-3.4c-3.2-12.5-6.4-19.1-7.9-26.8l-7.8-50.9c13.5,2,23.7,5.6,29.6,10.8
		l-1.9,31.2c-0.4,6.1,0.8,9.3,5.8,33.1c1.1,4.9,0.2,6.1-3.9,6C489.1,331.3,485.6,331.2,483.3,331.3"/>
	<path class="st28" d="M456.6,247.6c5.2,5.1,12.1,8,19.3,8.3C473.3,236,466.8,233.2,456.6,247.6"/>
	<path class="st28" d="M455.6,187.5l-5,38.9c-1.9,11.9-3.6,23.4-5.1,34.6c0,0,1.1,0,3.4,0c3.7-2.1,9.8-8.9,18.3-20.5
		c-0.4,3.1,3.2,11.9,10.8,26.4c8.8-0.8,16.8-5.2,21.9-11.9c0,0-2.4-7-7.2-21c-0.8-4.1-6.4-6.6-17-7.6H491l3.6-29.7
		c1.6-2.5,3.4-5.3,5.3-8.4c-3.2-1.4-7.9-3.1-14.1-4.9l-3.9,9.5L455.6,187.5z"/>
	<polygon class="st3" points="467,186.7 453.9,188 455.5,184.5 468.6,183.2 	"/>
	<path class="st4" d="M433.5,200.1c0,0,4.1-3.6,14.2-9.2c18.5-8.3,13.5,0.7,8.9,12.7c-8.4,6.3-14.7,10.6-18.1,10.8
		C438.4,212,437,206.6,433.5,200.1"/>
	<path class="st3" d="M449.8,191.7c0,0,0,0.5-0.1,1.4c-5,2.8-7.6,4.1-7.6,4.1c-1.6-2.1-2.3-3.2-2.3-3.2c2.4-1.4,3.7-2,3.7-2
		S445.6,191.9,449.8,191.7"/>
	<path class="st3" d="M430.9,199.8c7.4-6.2,10.1-0.5,10.2,10.1c-0.1,2.7-0.9,4.4-1.9,5c-2.8,1.5-4.2,2.3-4.2,2.3
		c-2.1,1-3.6,1.2-4.7,0.5C430.3,217.6,430.3,211.8,430.9,199.8"/>
	<path class="st5" d="M424.8,220.9c-2.5,0.2-4.9-2-4.5-6.7l2-24.4l7.9-3.6c0.1,0.3,0.4,0.5,0.7,0.5h0.2l2.3,22.5
		C434.2,216.4,431.4,220.3,424.8,220.9"/>
	<path class="st6" d="M429.9,185c1.4,1.2,1.9,2.3,1.3,3.3c-1.5,2.3-3.6,3.1-6.2,2.3C424.9,190.7,426.6,188.8,429.9,185"/>
	<path class="st7" d="M481.8,184.5c0,0-1.9-2.5-1.6-16.7c-10.9,3.3-14.9,11-14.9,11c1.6,5.1,0.5,9,0.5,9c2.1,2.7,5.7,4,9.1,3.3
		C478.5,190.4,481.2,187.8,481.8,184.5"/>
	<path class="st3" d="M471.1,226.5h-1.5v-28.8h1.5V226.5z M481.1,179.5c1.9,1.3,2.9,2.3,4.8,3.5c-1.7,9.3-3.9,14.5-8.5,14.8
		c0,0-1.5-2.5-4.5-7.4C477,189.1,479.7,185.4,481.1,179.5z"/>
	<path class="st8" d="M455.3,168.4c1.2,11.9,2.6,18.8,4.3,20.8c0.7-0.2,1.3-0.6,1.7-1.4c-1.5-1-2.8-7.7-3.9-20
		C457.4,167.8,456.7,168,455.3,168.4"/>
	<path class="st9" d="M456.8,163.9c-1.4-0.9-3.9,0.1-7.4,2.9c1,0.8,3.9,1.9,8.7,3.3C458.1,170.1,457.7,168,456.8,163.9"/>
	<path class="st6" d="M478.3,178.1c1.3-4.1,1.6-4.9,0.2-8.9c0.3-3.7-0.9-7.3-3.3-10c-0.4,0.7-1.1,1.3-2,1.6
		c-0.4,0.1-0.8,0.3-1.2,0.4c-0.3,0.1-0.7,0.1-1,0.2l-0.6,0c-0.4,0-0.8,0.1-1.2,0.1h-0.1l-0.1,0c-0.4,0.1-0.8,0.2-1.2,0.2l0.2,0
		l-0.2,0.1c-0.3,0.1-0.6,0.2-0.9,0.2c-0.2,0.1-0.4,0.1-0.5,0.1c-0.3,0.1-0.6,0.2-0.9,0.2l0.2,0l-0.5,0.2c-0.3,0.1-0.7,0.2-1,0.2
		l-0.2,0l-0.1,0c-0.3,0.1-0.6,0.2-0.9,0.3c-0.3,0.1-0.7,0.2-1.1,0.2l-0.7,0.1l-0.8,0.1c-0.3,0-0.6,0-0.9,0.1l-0.6,0l-0.5,0
		c-0.3,0.1-0.7,0.2-1,0.2c-0.6,0.2-1.2,0.2-1.7,0.1c-0.4,3,0.1,5,1.4,5.9c1.9,1.3,2.3,2.5,2.1,4.5c-0.1,2.2,0.4,3.8,1.3,5
		c3.3,3.8,4.4,5.7,4.9,7.4c0.7,1.9,5.1,1.5,8.4-1.6C475.5,183.2,477.2,180.9,478.3,178.1"/>
	<path class="st10" d="M469.2,150.6L469.2,150.6L469.2,150.6L469.2,150.6z M474.7,163.8c-2.4-0.6-3.5-1.5-3.1-2.7
		c0.4-1,0.3-2-0.2-2.8l0.5,0c0.2,0,0.4,0,0.6,0l0,0l0.5,0.1c0.2,0,0.4,0.1,0.5,0.1c0.2,0.1,0.4,0.1,0.6,0.1c0.1,0,0.2,0.1,0.3,0.1
		c0.4,0.2,0.8,0.4,1.2,0.5l0.1,0c0.5,0.3,1.1,0.4,1.7,0.4c0.3,0.1,0.6,0.2,0.9,0.3c0.3,0.1,0.6,0.2,0.8,0.3
		c0.3,3.1,0.2,6.8-0.2,11.2c-0.3,1.7-2.6-0.4-2.7-2.4C476.4,165.6,476.2,164.2,474.7,163.8z"/>
	<path class="st6" d="M481.5,169.8c-0.1,0.5-0.4,0.9-0.8,1c-0.4,0.2-0.9,0.1-1.3-0.2c-2.4-2.2-2.8-5.8-1-8.5
		c0.6-0.9,1.7-1.5,2.9-1.4c1.1,0.1,2.1,0.8,2.6,1.9c0.4,1,0.4,2.3-0.4,3.1C482.4,166.9,481.7,168.2,481.5,169.8"/>
	<path class="st11" d="M483.3,165.5c3.8,12.8,5.1,20.6,3.8,23.5c-1,0.2-2,0-2.9-0.6c1.5-1.8,0.2-9.3-4-22.5
		C480.2,165.9,481.2,165.8,483.3,165.5"/>
	<path class="st28" d="M469,165c0,0,1.9-0.3,5.8-1c0.6-0.7,4.5-0.1,11.8,2c0,0-0.3-2.2-0.9-6.6c-1.4-8.8-4-11.9-9.6-14.7
		s-12.3-2.4-17.5,1.1c-5.2,3.5-8.2,9.5-7.7,15.8c0.1,1.6-0.5,2.9-1.6,4C457.1,164.9,463.7,164.7,469,165"/>
	<path class="st13" d="M474.5,163.6c0,0,3.9,0.9,11.7,2.8c-0.8,0.9-1.4,1.3-2.1,1.1c-7.9-1.6-11.8-2.4-11.8-2.4
		S473,164.6,474.5,163.6"/>
	<path class="st14" d="M487.4,165.5c-3.6-1.1-7.2-2-10.8-2.8c-0.7-0.2-1.4-0.3-2.7,0.2c-8-0.9-16-0.6-24.2,1c-0.2,0-0.3,0.2-0.3,0.4
		c0,0.2,0.2,0.4,0.4,0.4c7.3-1.4,14.8-1.7,22.7-1c-2.1,1-1.7,0.6-6.6,0.6c-6.1,0-11.7,0.4-16.6,1.4c-0.5,0.3-0.7,1-0.3,1.6
		c4.3-1.1,10-1.5,17.1-1.4c5.2,0.1,4.7,0.5,8.1-1.2c0.5-0.3,1.1-0.4,2-0.2c6.5,1.2,10.2,2.3,10.2,2.3
		C487.1,166.6,487.4,166.2,487.4,165.5"/>
	<polygon class="st15" points="482,159.2 483.9,159.4 482.1,160.2 482.6,162.1 481.2,160.7 479.5,161.7 480.5,160 479,158.7 
		480.9,159.1 481.7,157.3 	"/>
	<rect x="425.7" y="179.1" class="st16" width="11.5" height="6.1"/>
	<path class="st17" d="M457,176.4c0.2,0,0.4,0.2,0.4,0.4v1h0.3c0.3,0,0.6,0.3,0.6,0.6v2.1c0,0.3-0.3,0.6-0.6,0.6h-9.7
		c-0.3,0-0.6-0.3-0.6-0.6v-2.1c0-0.3,0.3-0.6,0.6-0.6h7v-1c0-0.2,0.2-0.4,0.4-0.4H457"/>
	<path class="st18" d="M458.6,183.5c0,0,8.7,3.4,26.1,10.3c0.6,0.2,0.7,0.7,0.3,1.7c-2.2,5.4-3.3,8-3.3,8c-0.6,1.3-1.3,1.5-3.3,0.3
		c-15.6-9.9-23.4-14.8-23.4-14.8c-1.8-1.1-2.9-3-3-5.1C451.9,183.9,454.2,183.8,458.6,183.5"/>
	<path class="st19" d="M438.2,177.6c0.4,0,0.8,0.4,0.8,0.8v1.3c0,0.5-0.3,0.8-0.8,0.8h-0.9l0.8,6.1h20.5v1.7c0,1.4-0.6,1.4-2.6,1.4
		h-2.6v3.8h-14.4l1.2,9.4c0.1,0.4-0.3,0.8-0.7,0.8H435c-0.4,0-0.8-0.4-0.9-0.8l-2.8-22.4h-38.9c0,0,0,0,0,0h-5.4
		c-0.8,0-1.5-0.7-1.5-1.5c0-0.8,0.7-1.5,1.5-1.5h5.4h1.7v-3.5c0-0.4,0.3-0.7,0.7-0.7c0.4,0,0.7,0.4,0.7,0.7v3.5h2.6H438.2"/>
	<path class="st16" d="M460.3,179.1c0.8,0,1.5,0.7,1.5,1.5v5.3c0,0.8-0.7,1.5-1.5,1.5h-21.7c-0.8,0-1.5-0.7-1.5-1.5v-5.3
		c0-0.8,0.7-1.5,1.5-1.5H460.3"/>
	<path class="st20" d="M469,201c-24.7,15.7-39.8,16.7-58.6-14.8c0,0-2,0.3-4.2,0.3c20.2,34,37.8,34.2,64.1,16.1
		C470.3,202.5,470.1,201.9,469,201"/>
	<path class="st18" d="M429.3,180.4c0.4,0,0.8,0.3,0.8,0.8v5.4c0,0.4-0.3,0.8-0.8,0.8h-29.8c-0.4,0-0.8-0.3-0.8-0.8v-5.4
		c0-0.4,0.3-0.8,0.8-0.8H429.3"/>
	<path class="st4" d="M503.5,212.6c0,0,1-6.7,3.1-20c0.6-3.6-3.2-6.5-6.9-7.2c-3.7-0.7-8.1,0.9-9,4.2c-3.5,10.3-5.2,15.5-5.2,15.5
		S491.5,207.5,503.5,212.6"/>
	<path class="st3" d="M483.9,204.8c1.5-3.7,2.6-3.4,5.5-2.8c4.7,0.9,9.1,3.2,12.5,6.6c2,2,3,4,0.5,7.5c-3.4,4.8-7.3,8.8-10.9,5.7
		C493,219,493.5,212.1,483.9,204.8"/>
	<path class="st21" d="M427.9,189.1c0,0,0.3-1.2,0.8-3.6c0.2-1.8-1.1-4.3-3.8-5.6c-3.2-1.6-7.2-1.4-8,1c-1.1,3.8-1,5.9,1,7
		C423.5,191.1,427.3,191.7,427.9,189.1"/>
	<polygon class="st3" points="499.7,187.5 486.9,185.3 490.4,182.5 503.2,184.7 	"/>
	<path class="st22" d="M490.2,224c0.9,0,1.5,0.7,1.4,1.6l-0.4,3.9c-0.1,0.9-0.9,1.6-1.7,1.6h-38.2c-0.9,0-1.5-0.7-1.4-1.6l0.4-3.9
		c0.1-0.9,0.9-1.6,1.7-1.6H490.2"/>
	<path class="st6" d="M451.9,202.2c0,0,2.2-0.4,6.7-1.3c0,0,0.6,0.4,1.8,1.3c0,0,13.8,9.7,25.6,17.5c6.1,4,8,3.3,10.8-0.1
		c2.8-3.4,3.2-9.7-0.6-11.5c-20.9-9.8-31.4-14.7-31.4-14.7c-5.4-2.4-9.8-3.6-9.8-3.6c-1.3-0.4-3.4-0.8-5.5-0.4
		c-5.5,1.5-6.7,1.8-7.6,2.1c-0.6,0.2-0.5,1.2-0.3,1.8c0.2,0.6,0.7,1.5,1.3,1.3c3.7-0.9,5.6-1.4,5.6-1.4c1.1-0.3,1.3,0,0.4,0.6
		c-2,1.5-3.5,1.9-2.3,4.1C448.3,201.4,449.9,202.7,451.9,202.2"/>
	<path class="st23" d="M465.7,348.4c0.4,0,0.8,0.3,0.8,0.8v2c0,0.4-0.3,0.8-0.8,0.8h-30.1c-0.4,0-0.8-0.3-0.8-0.8v-2
		c0-0.4,0.3-0.8,0.8-0.8H465.7"/>
	<path class="st24" d="M492.8,335.5c0.3,0,0.5,0.2,0.5,0.5l0,0c0,0.3-0.2,0.5-0.5,0.5l-7.7-0.3c-0.3,0-0.5-0.3-0.5-0.5l0,0
		c0-0.3,0.2-0.5,0.5-0.5L492.8,335.5"/>
	<path class="st24" d="M492.5,337.7c0.3,0,0.5,0.3,0.5,0.5l0,0c0,0.3-0.2,0.5-0.5,0.5l-7.2-0.3c-0.3,0-0.5-0.3-0.5-0.5l0,0
		c0-0.3,0.2-0.5,0.5-0.5L492.5,337.7"/>
	<path class="st24" d="M492.2,339.7c0.3,0,0.5,0.3,0.5,0.5l0,0c0,0.3-0.2,0.5-0.5,0.5l-6.6-0.3c-0.3,0-0.5-0.3-0.5-0.5l0,0
		c0-0.3,0.2-0.5,0.5-0.5L492.2,339.7"/>
	<path class="st24" d="M491.8,341.7c0.3,0,0.5,0.3,0.5,0.5l0,0c0,0.3-0.2,0.5-0.5,0.5l-5.9-0.2c-0.3,0-0.5-0.3-0.5-0.5l0,0
		c0-0.3,0.2-0.5,0.5-0.5L491.8,341.7"/>
	<path class="st24" d="M491.4,343.8c0.3,0,0.5,0.3,0.5,0.5l0,0c0,0.3-0.2,0.5-0.5,0.5l-5.2-0.2c-0.3,0-0.5-0.3-0.5-0.5l0,0
		c0-0.3,0.2-0.5,0.5-0.5L491.4,343.8"/>
	<path class="st24" d="M491.2,345.8c0.3,0,0.5,0.2,0.5,0.5l0,0c0,0.3-0.2,0.5-0.5,0.5l-4.8-0.2c-0.3,0-0.5-0.3-0.5-0.5l0,0
		c0-0.3,0.2-0.5,0.5-0.5L491.2,345.8"/>
	<path class="st24" d="M490.9,347.7c0.3,0,0.5,0.2,0.5,0.5l0,0c0,0.3-0.2,0.5-0.5,0.5l-4.2-0.2c-0.3,0-0.5-0.3-0.5-0.5l0,0
		c0-0.3,0.2-0.5,0.5-0.5L490.9,347.7"/>
	<path class="st24" d="M490.5,349.6c0.3,0,0.5,0.3,0.5,0.5l0,0c0,0.3-0.2,0.5-0.5,0.5l-3.4-0.1c-0.3,0-0.5-0.3-0.5-0.5l0,0
		c0-0.3,0.2-0.5,0.5-0.5L490.5,349.6"/>
	<path class="st24" d="M490.3,351.6c0.3,0,0.5,0.2,0.5,0.5l0,0c0,0.3-0.2,0.5-0.5,0.5l-3.1-0.1c-0.3,0-0.5-0.3-0.5-0.5l0,0
		c0-0.3,0.2-0.5,0.5-0.5L490.3,351.6"/>
	<path class="st24" d="M458.1,327.8c0.3,0,0.5,0.3,0.5,0.5l0,0c0,0.3-0.2,0.5-0.5,0.5l-3.1-0.3c-0.3,0-0.5-0.3-0.5-0.5l0,0
		c0-0.3,0.2-0.5,0.5-0.5L458.1,327.8"/>
	<path class="st24" d="M458,329.6c0.3,0,0.5,0.3,0.5,0.5l0,0c0,0.3-0.2,0.5-0.5,0.5l-3.1-0.3c-0.3,0-0.5-0.3-0.5-0.5l0,0
		c0-0.3,0.2-0.5,0.5-0.5L458,329.6"/>
	<path class="st24" d="M458.2,331.4c0.3,0,0.5,0.3,0.5,0.5l0,0c0,0.3-0.2,0.5-0.5,0.5l-3.1-0.3c-0.3,0-0.5-0.3-0.5-0.5l0,0
		c0-0.3,0.2-0.5,0.5-0.5L458.2,331.4"/>
	<path class="st24" d="M458.1,333.2c0.3,0,0.5,0.3,0.5,0.5l0,0c0,0.3-0.2,0.5-0.5,0.5L455,334c-0.3,0-0.5-0.3-0.5-0.5l0,0
		c0-0.3,0.2-0.5,0.5-0.5L458.1,333.2"/>
	<path class="st24" d="M458.2,335.1c0.3,0,0.5,0.3,0.5,0.5l0,0c0,0.3-0.2,0.5-0.5,0.5l-3.1-0.3c-0.3,0-0.5-0.3-0.5-0.5l0,0
		c0-0.3,0.2-0.5,0.5-0.5L458.2,335.1"/>
	<path class="st24" d="M458.1,336.9c0.3,0,0.5,0.3,0.5,0.5l0,0c0,0.3-0.2,0.5-0.5,0.5l-3.1-0.3c-0.3,0-0.5-0.3-0.5-0.5l0,0
		c0-0.3,0.2-0.5,0.5-0.5L458.1,336.9"/>
	<path class="st24" d="M456.8,340.1c0.2,0.2,0.2,0.5,0,0.7l0,0c-0.2,0.2-0.5,0.2-0.7,0l-2.2-2.2c-0.2-0.2-0.2-0.5,0-0.7l0,0
		c0.2-0.2,0.5-0.2,0.7,0L456.8,340.1"/>
	<path class="st24" d="M455,341c0.2,0.2,0.2,0.5,0,0.7l0,0c-0.2,0.2-0.5,0.2-0.7,0l-2.2-2.2c-0.2-0.2-0.2-0.5,0-0.7l0,0
		c0.2-0.2,0.5-0.2,0.7,0L455,341"/>
	<path class="st24" d="M453.4,342c0.2,0.2,0.2,0.5,0,0.7l0,0c-0.2,0.2-0.5,0.2-0.7,0l-2.2-2.2c-0.2-0.2-0.2-0.5,0-0.7l0,0
		c0.2-0.2,0.5-0.2,0.7,0L453.4,342"/>
	<path class="st24" d="M451.5,343.2c0.2,0.2,0.2,0.5,0,0.7l0,0c-0.2,0.2-0.5,0.2-0.7,0l-2.2-2.2c-0.2-0.2-0.2-0.5,0-0.7l0,0
		c0.2-0.2,0.5-0.2,0.7,0L451.5,343.2"/>
	<path class="st0" d="M367.4,326.5c-0.7-2.1-1.6-4.1-2.6-6.1c-2.5,0.4-3.8,0.6-3.8,0.6c-2.3,0.8-3.7,3.1-3.3,5.5
		C357.7,326.5,361,326.5,367.4,326.5"/>
	<path class="st1" d="M388.8,326.5c2.2-16.4,3-25.4,3-25.4c-9.8,0.1-14.6,0.2-14.6,0.2c0.8,8.9,1.2,13.3,1.2,13.3
		c-5.4,3.2-8.2,4.9-8.2,4.9c-4.4,0.7-6.6,1.1-6.6,1.1c0.5,4.6,0.8,6.8,0.8,6.8S372.7,327.6,388.8,326.5"/>
	<path class="st2" d="M387,326.6c0,0,1.1-8,3.2-24c0,0-1.3-0.3-4-0.9c-2.4,16.8-3.6,25.1-3.6,25.1S384,326.8,387,326.6"/>
	<path class="st1" d="M419,338.2c0,0-0.5-4.8-1.4-14.4c0,0,0.5-5.7,1.5-17.2c-9.1,0.6-13.6,0.9-13.6,0.9c0.6,10.9,0.9,16.3,0.9,16.3
		c-1.2,8.6-1.8,13-1.8,13C406,338.1,410.9,338.6,419,338.2"/>
	<path class="st2" d="M413.4,330.9c0,0,0.7-7.8,2.2-23.4c-4.6-0.3-7.1-0.1-7.3,0.7c0.8,14.8,1.2,22.3,1.2,22.3
		C410.7,331.2,412.2,331.4,413.4,330.9"/>
	<path class="st29" d="M393.2,299.5c0.1,3.4-1.3,3.7-4.4,3.7c0,0-3.4-0.1-10.2-0.4c-2.2-0.1-2.6-1.3-3.3-7.5
		c-2.1-20.2-3.3-32.2-3.6-35.8c0,0-0.3-4.2,0.5-24.1c14.4-23.4,21.1-13,20.3,31.1C392.7,283,392.9,294,393.2,299.5"/>
	<path class="st29" d="M405.9,308.7c-2.4,0-2.8-1-3.6-3.4c-3.2-12.5-6.4-19.1-7.9-26.8l-7.8-50.9c13.5,2,23.7,5.6,29.6,10.8
		l-1.9,31.2c-0.4,6.1,0.8,9.3,5.8,33.1c1.1,4.9,0.2,6.1-3.9,6C411.6,308.6,408.2,308.6,405.9,308.7"/>
	<path class="st29" d="M379.2,225c5.2,5.1,12.1,8,19.3,8.3C395.9,213.4,389.4,210.6,379.2,225"/>
	<path class="st29" d="M378.2,164.9l-5,38.9c-1.9,11.9-3.6,23.4-5.1,34.6c0,0,1.1,0,3.4,0c3.7-2.1,9.8-8.9,18.3-20.5
		c-0.4,3.1,3.2,11.9,10.8,26.4c8.8-0.8,16.8-5.2,21.9-11.9c0,0-2.4-7-7.2-21c-0.8-4.1-6.4-6.6-17-7.6h15.3l3.6-29.7
		c1.6-2.5,3.4-5.3,5.3-8.4c-3.2-1.4-7.9-3.1-14.1-4.9l-3.9,9.5L378.2,164.9z"/>
	<polygon class="st3" points="389.6,164 376.5,165.3 378.1,161.9 391.2,160.6 	"/>
	<path class="st4" d="M356.1,177.5c0,0,4.1-3.6,14.2-9.2c18.5-8.3,13.5,0.7,8.9,12.7c-8.4,6.3-14.7,10.6-18.1,10.8
		C360.9,189.4,359.6,184,356.1,177.5"/>
	<path class="st3" d="M372.4,169c0,0,0,0.5-0.1,1.4c-5,2.8-7.6,4.1-7.6,4.1c-1.6-2.1-2.3-3.2-2.3-3.2c2.4-1.4,3.7-2,3.7-2
		S368.2,169.2,372.4,169"/>
	<path class="st3" d="M353.5,177.2c7.4-6.2,10.1-0.5,10.2,10.1c-0.1,2.7-0.9,4.4-1.9,5c-2.8,1.5-4.2,2.3-4.2,2.3
		c-2.1,1-3.6,1.2-4.7,0.5C352.9,195,352.9,189.1,353.5,177.2"/>
	<path class="st5" d="M347.4,198.3c-2.5,0.2-4.9-2-4.5-6.7l2-24.4l7.9-3.6c0.1,0.3,0.4,0.5,0.7,0.5h0.2l2.3,22.5
		C356.8,193.8,354,197.7,347.4,198.3"/>
	<path class="st6" d="M352.4,162.4c1.4,1.2,1.9,2.3,1.3,3.3c-1.5,2.3-3.6,3.1-6.2,2.3C347.5,168.1,349.2,166.2,352.4,162.4"/>
	<path class="st7" d="M404.4,161.9c0,0-1.9-2.5-1.6-16.7c-10.9,3.3-14.9,11-14.9,11c1.6,5.1,0.5,9,0.5,9c2.1,2.7,5.7,4,9.1,3.3
		C401.1,167.8,403.8,165.2,404.4,161.9"/>
	<path class="st3" d="M393.7,203.8h-1.5V175h1.5V203.8z M403.7,156.8c1.9,1.3,2.9,2.3,4.8,3.5c-1.7,9.3-3.9,14.5-8.5,14.8
		c0,0-1.5-2.5-4.5-7.4C399.6,166.4,402.3,162.8,403.7,156.8z"/>
	<path class="st8" d="M377.9,145.8c1.2,11.8,2.6,18.8,4.3,20.8c0.7-0.2,1.3-0.6,1.7-1.4c-1.5-1-2.8-7.7-3.9-20
		C380,145.2,379.3,145.4,377.9,145.8"/>
	<path class="st9" d="M379.4,141.3c-1.4-0.9-3.9,0.1-7.4,2.9c1,0.8,3.9,1.9,8.7,3.3C380.7,147.5,380.3,145.4,379.4,141.3"/>
	<path class="st6" d="M400.9,155.5c1.3-4.1,1.6-4.9,0.2-8.9c0.3-3.7-0.9-7.3-3.3-10c-0.4,0.7-1.1,1.3-2,1.6
		c-0.4,0.1-0.8,0.3-1.2,0.4c-0.3,0.1-0.7,0.1-1,0.2l-0.6,0c-0.4,0-0.8,0.1-1.2,0.1h-0.1l-0.1,0c-0.4,0.1-0.8,0.2-1.2,0.2l0.2,0
		l-0.2,0.1c-0.3,0.1-0.6,0.2-0.9,0.2c-0.2,0.1-0.4,0.1-0.5,0.1c-0.3,0.1-0.6,0.2-0.9,0.2l0.2,0l-0.5,0.2c-0.3,0.1-0.7,0.2-1,0.2
		l-0.2,0l-0.1,0c-0.3,0.1-0.6,0.2-0.9,0.3c-0.3,0.1-0.7,0.2-1.1,0.2l-0.7,0.1l-0.8,0.1c-0.3,0-0.6,0-0.9,0.1l-0.6,0l-0.5,0
		c-0.3,0.1-0.7,0.2-1,0.2c-0.6,0.2-1.2,0.2-1.7,0.1c-0.4,3,0.1,5,1.4,5.9c1.9,1.3,2.3,2.5,2.1,4.5c-0.1,2.2,0.4,3.8,1.3,5
		c3.3,3.8,4.4,5.7,4.9,7.4c0.7,1.9,5.1,1.5,8.4-1.6C398.1,160.6,399.8,158.3,400.9,155.5"/>
	<path class="st10" d="M391.7,128L391.7,128L391.7,128L391.7,128z M397.3,141.2c-2.4-0.6-3.5-1.5-3.1-2.7c0.4-1,0.3-2-0.2-2.8l0.5,0
		c0.2,0,0.4,0,0.6,0l0,0l0.5,0.1c0.2,0,0.4,0.1,0.5,0.1c0.2,0.1,0.4,0.1,0.6,0.1c0.1,0,0.2,0.1,0.3,0.1c0.4,0.2,0.8,0.4,1.2,0.5
		l0.1,0c0.5,0.3,1.1,0.4,1.7,0.4c0.3,0.1,0.6,0.2,0.9,0.3c0.3,0.1,0.6,0.2,0.8,0.3c0.3,3.1,0.2,6.8-0.2,11.2
		c-0.3,1.7-2.6-0.4-2.7-2.4C399,143,398.8,141.6,397.3,141.2z"/>
	<path class="st6" d="M404.1,147.2c-0.1,0.5-0.4,0.9-0.8,1c-0.4,0.2-0.9,0.1-1.3-0.2c-2.4-2.2-2.8-5.8-1-8.5
		c0.6-0.9,1.7-1.5,2.9-1.4c1.1,0.1,2.1,0.8,2.6,1.9s0.4,2.3-0.4,3.1C405,144.2,404.3,145.6,404.1,147.2"/>
	<path class="st11" d="M405.9,142.9c3.8,12.8,5.1,20.6,3.8,23.5c-1,0.2-2,0-2.9-0.6c1.5-1.8,0.2-9.3-4-22.5
		C402.8,143.3,403.8,143.1,405.9,142.9"/>
	<path class="st29" d="M391.6,142.4c0,0,1.9-0.3,5.8-1c0.6-0.7,4.5-0.1,11.8,2c0,0-0.3-2.2-0.9-6.6c-1.4-8.8-4-11.9-9.6-14.7
		c-5.6-2.8-12.3-2.4-17.5,1.1c-5.2,3.5-8.2,9.5-7.7,15.8c0.1,1.6-0.5,2.9-1.6,4C379.7,142.2,386.3,142,391.6,142.4"/>
	<path class="st13" d="M397.1,141c0,0,3.9,0.9,11.7,2.8c-0.8,0.9-1.4,1.3-2.1,1.1c-7.9-1.6-11.8-2.4-11.8-2.4S395.6,142,397.1,141"
		/>
	<path class="st14" d="M410,142.9c-3.6-1.1-7.2-2-10.8-2.8c-0.7-0.2-1.4-0.3-2.7,0.2c-8-0.9-16-0.6-24.2,1c-0.2,0-0.3,0.2-0.3,0.4
		c0,0.2,0.2,0.4,0.4,0.4c7.3-1.4,14.8-1.7,22.7-1c-2.1,1-1.7,0.6-6.6,0.6c-6.1,0-11.7,0.4-16.6,1.4c-0.5,0.3-0.7,1-0.3,1.6
		c4.3-1.1,10-1.5,17.1-1.4c5.2,0.1,4.7,0.5,8.1-1.2c0.5-0.3,1.1-0.4,2-0.2c6.5,1.2,10.2,2.3,10.2,2.3C409.7,144,410,143.6,410,142.9
		"/>
	<polygon class="st15" points="404.6,136.6 406.5,136.8 404.7,137.6 405.2,139.5 403.8,138.1 402.1,139.1 403.1,137.4 401.6,136.1 
		403.5,136.4 404.3,134.6 	"/>
	<rect x="348.3" y="156.5" class="st16" width="11.5" height="6.1"/>
	<path class="st17" d="M379.6,153.8c0.2,0,0.4,0.2,0.4,0.4v1h0.3c0.3,0,0.6,0.3,0.6,0.6v2.1c0,0.3-0.3,0.6-0.6,0.6h-9.7
		c-0.3,0-0.6-0.3-0.6-0.6v-2.1c0-0.3,0.3-0.6,0.6-0.6h7v-1c0-0.2,0.2-0.4,0.4-0.4H379.6"/>
	<path class="st18" d="M381.2,160.9c0,0,8.7,3.4,26.1,10.3c0.6,0.2,0.7,0.7,0.3,1.7c-2.2,5.4-3.3,8-3.3,8c-0.6,1.3-1.3,1.5-3.3,0.3
		c-15.6-9.9-23.4-14.8-23.4-14.8c-1.8-1.1-2.9-3-3-5.1C374.5,161.3,376.8,161.2,381.2,160.9"/>
	<path class="st19" d="M360.8,155c0.4,0,0.8,0.4,0.8,0.8v1.3c0,0.5-0.3,0.8-0.8,0.8h-0.9l0.8,6.1h20.5v1.7c0,1.4-0.6,1.4-2.6,1.4
		h-2.6v3.8h-14.4l1.2,9.4c0.1,0.4-0.3,0.8-0.7,0.8h-4.4c-0.4,0-0.8-0.4-0.9-0.8L354,158h-38.9c0,0,0,0,0,0h-5.4
		c-0.8,0-1.5-0.7-1.5-1.5c0-0.8,0.7-1.5,1.5-1.5h5.4h1.7v-3.5c0-0.4,0.3-0.7,0.7-0.7c0.4,0,0.7,0.4,0.7,0.7v3.5h2.6H360.8"/>
	<path class="st16" d="M382.8,156.5c0.8,0,1.5,0.7,1.5,1.5v5.3c0,0.8-0.7,1.5-1.5,1.5h-21.7c-0.8,0-1.5-0.7-1.5-1.5V158
		c0-0.8,0.7-1.5,1.5-1.5H382.8"/>
	<path class="st20" d="M391.6,178.3c-24.7,15.7-39.8,16.7-58.6-14.8c0,0-2,0.3-4.2,0.3c20.2,34,37.8,34.2,64.1,16.1
		C392.9,179.8,392.7,179.3,391.6,178.3"/>
	<path class="st18" d="M351.9,157.8c0.4,0,0.8,0.3,0.8,0.8v5.4c0,0.4-0.3,0.8-0.8,0.8h-29.8c-0.4,0-0.8-0.3-0.8-0.8v-5.4
		c0-0.4,0.3-0.8,0.8-0.8H351.9"/>
	<path class="st4" d="M426.1,190c0,0,1-6.7,3.1-20c0.6-3.6-3.2-6.5-6.9-7.2c-3.7-0.7-8.1,0.9-9,4.2c-3.5,10.3-5.2,15.5-5.2,15.5
		S414.1,184.9,426.1,190"/>
	<path class="st3" d="M406.5,182.2c1.5-3.7,2.6-3.4,5.5-2.8c4.7,0.9,9.1,3.2,12.5,6.6c2,2,3,4,0.5,7.5c-3.4,4.8-7.3,8.8-10.9,5.7
		C415.6,196.3,416.1,189.4,406.5,182.2"/>
	<path class="st21" d="M350.5,166.4c0,0,0.3-1.2,0.8-3.6c0.2-1.8-1.1-4.3-3.8-5.6c-3.2-1.6-7.2-1.4-8,1c-1.1,3.8-1,5.9,1,7
		C346.1,168.5,349.9,169,350.5,166.4"/>
	<polygon class="st3" points="422.3,164.8 409.5,162.6 413,159.9 425.8,162.1 	"/>
	<path class="st22" d="M412.8,201.4c0.9,0,1.5,0.7,1.4,1.6l-0.4,3.9c-0.1,0.9-0.9,1.6-1.7,1.6h-38.2c-0.9,0-1.5-0.7-1.4-1.6l0.4-3.9
		c0.1-0.9,0.9-1.6,1.7-1.6H412.8"/>
	<path class="st6" d="M374.5,179.6c0,0,2.2-0.4,6.7-1.3c0,0,0.6,0.4,1.8,1.3c0,0,13.8,9.7,25.6,17.5c6.1,4,8,3.3,10.8-0.1
		c2.8-3.4,3.2-9.7-0.6-11.5c-20.9-9.8-31.4-14.7-31.4-14.7c-5.4-2.4-9.8-3.6-9.8-3.6c-1.3-0.4-3.4-0.8-5.5-0.4
		c-5.5,1.5-6.7,1.8-7.6,2.1c-0.6,0.2-0.5,1.2-0.3,1.8c0.2,0.6,0.7,1.5,1.3,1.3c3.7-0.9,5.6-1.4,5.6-1.4c1.1-0.3,1.3,0,0.4,0.6
		c-2,1.5-3.5,1.9-2.3,4.1C370.9,178.7,372.5,180.1,374.5,179.6"/>
	<path class="st23" d="M388.3,325.7c0.4,0,0.8,0.3,0.8,0.8v2c0,0.4-0.3,0.8-0.8,0.8h-30.1c-0.4,0-0.8-0.3-0.8-0.8v-2
		c0-0.4,0.3-0.8,0.8-0.8H388.3"/>
	<path class="st24" d="M415.4,312.9c0.3,0,0.5,0.2,0.5,0.5l0,0c0,0.3-0.2,0.5-0.5,0.5l-7.7-0.3c-0.3,0-0.5-0.3-0.5-0.5l0,0
		c0-0.3,0.2-0.5,0.5-0.5L415.4,312.9"/>
	<path class="st24" d="M415.1,315c0.3,0,0.5,0.3,0.5,0.5l0,0c0,0.3-0.2,0.5-0.5,0.5l-7.2-0.3c-0.3,0-0.5-0.3-0.5-0.5l0,0
		c0-0.3,0.2-0.5,0.5-0.5L415.1,315"/>
	<path class="st24" d="M414.8,317.1c0.3,0,0.5,0.3,0.5,0.5l0,0c0,0.3-0.2,0.5-0.5,0.5l-6.6-0.3c-0.3,0-0.5-0.3-0.5-0.5l0,0
		c0-0.3,0.2-0.5,0.5-0.5L414.8,317.1"/>
	<path class="st24" d="M414.4,319.1c0.3,0,0.5,0.3,0.5,0.5l0,0c0,0.3-0.2,0.5-0.5,0.5l-5.9-0.2c-0.3,0-0.5-0.3-0.5-0.5l0,0
		c0-0.3,0.2-0.5,0.5-0.5L414.4,319.1"/>
	<path class="st24" d="M414,321.2c0.3,0,0.5,0.3,0.5,0.5l0,0c0,0.3-0.2,0.5-0.5,0.5l-5.2-0.2c-0.3,0-0.5-0.3-0.5-0.5l0,0
		c0-0.3,0.2-0.5,0.5-0.5L414,321.2"/>
	<path class="st24" d="M413.8,323.1c0.3,0,0.5,0.2,0.5,0.5l0,0c0,0.3-0.2,0.5-0.5,0.5l-4.8-0.2c-0.3,0-0.5-0.3-0.5-0.5l0,0
		c0-0.3,0.2-0.5,0.5-0.5L413.8,323.1"/>
	<path class="st24" d="M413.5,325c0.3,0,0.5,0.2,0.5,0.5l0,0c0,0.3-0.2,0.5-0.5,0.5l-4.2-0.2c-0.3,0-0.5-0.3-0.5-0.5l0,0
		c0-0.3,0.2-0.5,0.5-0.5L413.5,325"/>
	<path class="st24" d="M413.1,326.9c0.3,0,0.5,0.3,0.5,0.5l0,0c0,0.3-0.2,0.5-0.5,0.5l-3.4-0.1c-0.3,0-0.5-0.3-0.5-0.5l0,0
		c0-0.3,0.2-0.5,0.5-0.5L413.1,326.9"/>
	<path class="st24" d="M412.9,329c0.3,0,0.5,0.3,0.5,0.5l0,0c0,0.3-0.2,0.5-0.5,0.5l-3.1-0.1c-0.3,0-0.5-0.3-0.5-0.5l0,0
		c0-0.3,0.2-0.5,0.5-0.5L412.9,329"/>
	<path class="st24" d="M380.7,305.2c0.3,0,0.5,0.3,0.5,0.5l0,0c0,0.3-0.2,0.5-0.5,0.5l-3.1-0.3c-0.3,0-0.5-0.3-0.5-0.5l0,0
		c0-0.3,0.2-0.5,0.5-0.5L380.7,305.2"/>
	<path class="st24" d="M380.6,307c0.3,0,0.5,0.3,0.5,0.5l0,0c0,0.3-0.2,0.5-0.5,0.5l-3.1-0.3c-0.3,0-0.5-0.3-0.5-0.5l0,0
		c0-0.3,0.2-0.5,0.5-0.5L380.6,307"/>
	<path class="st24" d="M380.8,308.8c0.3,0,0.5,0.3,0.5,0.5l0,0c0,0.3-0.2,0.5-0.5,0.5l-3.1-0.3c-0.3,0-0.5-0.3-0.5-0.5l0,0
		c0-0.3,0.2-0.5,0.5-0.5L380.8,308.8"/>
	<path class="st24" d="M380.7,310.6c0.3,0,0.5,0.3,0.5,0.5l0,0c0,0.3-0.2,0.5-0.5,0.5l-3.1-0.3c-0.3,0-0.5-0.3-0.5-0.5l0,0
		c0-0.3,0.2-0.5,0.5-0.5L380.7,310.6"/>
	<path class="st24" d="M380.8,312.5c0.3,0,0.5,0.3,0.5,0.5l0,0c0,0.3-0.2,0.5-0.5,0.5l-3.1-0.3c-0.3,0-0.5-0.3-0.5-0.5l0,0
		c0-0.3,0.2-0.5,0.5-0.5L380.8,312.5"/>
	<path class="st24" d="M380.7,314.3c0.3,0,0.5,0.3,0.5,0.5l0,0c0,0.3-0.2,0.5-0.5,0.5l-3.1-0.3c-0.3,0-0.5-0.3-0.5-0.5l0,0
		c0-0.3,0.2-0.5,0.5-0.5L380.7,314.3"/>
	<path class="st24" d="M379.4,317.5c0.2,0.2,0.2,0.5,0,0.7l0,0c-0.2,0.2-0.5,0.2-0.7,0l-2.2-2.2c-0.2-0.2-0.2-0.5,0-0.7l0,0
		c0.2-0.2,0.5-0.2,0.7,0L379.4,317.5"/>
	<path class="st24" d="M377.6,318.3c0.2,0.2,0.2,0.5,0,0.7l0,0c-0.2,0.2-0.5,0.2-0.7,0l-2.2-2.2c-0.2-0.2-0.2-0.5,0-0.7l0,0
		c0.2-0.2,0.5-0.2,0.7,0L377.6,318.3"/>
	<path class="st24" d="M376,319.4c0.2,0.2,0.2,0.5,0,0.7l0,0c-0.2,0.2-0.5,0.2-0.7,0l-2.2-2.2c-0.2-0.2-0.2-0.5,0-0.7l0,0
		c0.2-0.2,0.5-0.2,0.7,0L376,319.4"/>
	<path class="st24" d="M374.1,320.6c0.2,0.2,0.2,0.5,0,0.7l0,0c-0.2,0.2-0.5,0.2-0.7,0l-2.2-2.2c-0.2-0.2-0.2-0.5,0-0.7l0,0
		c0.2-0.2,0.5-0.2,0.7,0L374.1,320.6"/>
</g>
</svg>
