<?xml version="1.0" encoding="utf-8"?>
<!-- Generator: Adobe Illustrator 23.0.1, SVG Export Plug-In . SVG Version: 6.00 Build 0)  -->
<svg version="1.1" id="Layer_1" xmlns="http://www.w3.org/2000/svg" xmlns:xlink="http://www.w3.org/1999/xlink" x="0px" y="0px"
	 viewBox="0 0 650 370" style="enable-background:new 0 0 650 370;" xml:space="preserve">
<style type="text/css">
	.st0{fill-rule:evenodd;clip-rule:evenodd;fill:#23291E;}
	.st1{fill-rule:evenodd;clip-rule:evenodd;fill:#10120F;}
	.st2{fill-rule:evenodd;clip-rule:evenodd;fill:#010101;}
	.st3{fill-rule:evenodd;clip-rule:evenodd;fill:#384631;}
	.st4{fill-rule:evenodd;clip-rule:evenodd;fill:#151D11;}
	.st5{fill-rule:evenodd;clip-rule:evenodd;fill:#CB922E;}
	.st6{fill-rule:evenodd;clip-rule:evenodd;fill:#D2993A;}
	.st7{fill-rule:evenodd;clip-rule:evenodd;fill:#C68A2F;}
	.st8{fill-rule:evenodd;clip-rule:evenodd;fill:#2B3B22;}
	.st9{fill-rule:evenodd;clip-rule:evenodd;fill:#1C2818;}
	.st10{fill-rule:evenodd;clip-rule:evenodd;fill:#0F0F0D;}
	.st11{fill-rule:evenodd;clip-rule:evenodd;fill:#172014;}
	.st12{fill-rule:evenodd;clip-rule:evenodd;fill:#33452A;}
	.st13{fill-rule:evenodd;clip-rule:evenodd;fill:#3C5330;}
	.st14{fill-rule:evenodd;clip-rule:evenodd;fill:#69835C;}
	.st15{fill-rule:evenodd;clip-rule:evenodd;fill:#809576;}
	.st16{fill-rule:evenodd;clip-rule:evenodd;fill:#523E2E;}
	.st17{fill-rule:evenodd;clip-rule:evenodd;fill:#36291E;}
	.st18{fill-rule:evenodd;clip-rule:evenodd;fill:#A05525;}
	.st19{fill-rule:evenodd;clip-rule:evenodd;fill:#17120F;}
	.st20{fill-rule:evenodd;clip-rule:evenodd;fill:#35271A;}
	.st21{fill-rule:evenodd;clip-rule:evenodd;fill:#E2AC4C;}
	.st22{fill-rule:evenodd;clip-rule:evenodd;fill:#090C09;}
	.st23{fill-rule:evenodd;clip-rule:evenodd;fill:#A3A39E;}
	.st24{fill-rule:evenodd;clip-rule:evenodd;fill:#4C5245;}
	.st25{fill-rule:evenodd;clip-rule:evenodd;fill:#D40047;}
	.st26{fill-rule:evenodd;clip-rule:evenodd;fill:#007F11;}
	.st27{fill-rule:evenodd;clip-rule:evenodd;fill:#00037F;}
	.st28{fill-rule:evenodd;clip-rule:evenodd;fill:#6A0005;}
	.st29{fill-rule:evenodd;clip-rule:evenodd;fill:#94B5FF;}
</style>
<g>
	<path class="st0" d="M118.2,306.3c7.8,0,11.7,0.1,11.7,0.1c0.4-3.3-1.2-6.5-4.1-7.7c0,0-1.5-0.3-4.6-0.8
		C120.2,300.5,119.1,303.3,118.2,306.3"/>
	<path class="st1" d="M92.5,306.3c19.4,1.5,29.4,1.2,29.4,1.2s0.4-3.1,1-9.3c0,0-2.6-0.5-7.9-1.5c0,0-3.3-2.2-9.8-6.7
		c0,0,0.5-6.1,1.5-18.3c0,0-5.9-0.1-17.7-0.3C88.8,271.4,89.8,283.8,92.5,306.3"/>
	<path class="st2" d="M94.6,306.5c3.6,0.3,5.3,0.4,5.3,0.4s-1.5-11.5-4.3-34.5c-3.2,0.8-4.9,1.3-4.9,1.3
		C93.4,295.5,94.6,306.5,94.6,306.5"/>
	<path class="st1" d="M55.9,322.4c9.8,0.5,15.8-0.1,17.6-1.9c0,0-0.7-5.9-2.2-17.8c0,0,0.4-7.5,1.1-22.5c0,0-5.5-0.4-16.5-1.3
		c1.2,15.9,1.8,23.7,1.8,23.7C56.6,315.7,55.9,322.4,55.9,322.4"/>
	<path class="st2" d="M62.7,312.3c1.5,0.6,3.3,0.4,4.7-0.6c0,0,0.5-10.2,1.5-30.6c-0.2-1-3.2-1.3-8.9-0.9
		C61.9,301.7,62.7,312.3,62.7,312.3"/>
	<path class="st3" d="M87.1,269.2c0.4-7.7,0.6-22.8,0.7-45.4c-1-60.6,7.3-75,24.6-42.7c1,27.2,0.6,33.1,0.6,33.1
		c-0.4,5-1.8,21.4-4.3,49.1c-0.7,8.6-1.4,10.2-3.9,10.4c-8.2,0.4-12.3,0.6-12.3,0.6C88.6,274.2,87,273.8,87.1,269.2"/>
	<path class="st3" d="M71.8,281.8c-2.7-0.1-7-0.1-12.7,0.1c-4.9,0.1-6-1.4-4.7-8.2c6-32.9,7.5-37.2,7-45.5l-2.2-43
		c7.1-7.2,19.4-12.2,35.8-15l-9.5,70c-1.7,10.5-5.7,19.6-9.5,36.8C75.3,280.4,74.7,281.7,71.8,281.8"/>
	<path class="st3" d="M104.1,166.7c-12.3-19.8-20.2-16-23.4,11.5C89.4,177.7,97.8,173.6,104.1,166.7"/>
	<path class="st4" d="M73.4,91.5l-4.7-13.2c-7.5,2.6-13.2,4.9-17,6.8c2.3,4.3,4.6,8.2,6.4,11.6l4.3,40.8h18.5
		c-12.8,1.3-19.6,4.9-20.6,10.5c-5.8,19.2-8.6,28.9-8.6,28.9c6.2,9.3,15.9,15.2,26.5,16.4c9.1-19.8,13.5-32,13-36.2
		c10.3,15.9,17.7,25.3,22.2,28.1c2.7,0,4.1,0,4.1,0c-1.8-15.3-3.8-31.3-6.2-47.6l-6.2-53.6L73.4,91.5z"/>
	<polygon class="st3" points="89.6,78.1 105.3,79.9 107.4,84.6 91.5,82.8 	"/>
	<path class="st4" d="M132,101.4c-4.2,9-5.9,16.4-6,19.7c-4.1-0.3-11.7-6.1-21.9-14.8c-5.5-16.5-11.6-28.9,10.7-17.5
		C127.1,96.4,132,101.4,132,101.4"/>
	<path class="st3" d="M112.3,89.7c5,0.3,7.6,0.4,7.6,0.4s1.5,0.9,4.4,2.8c0,0-1,1.4-2.8,4.3c0,0-3.1-1.9-9.1-5.6
		C112.3,90.4,112.3,89.7,112.3,89.7"/>
	<path class="st3" d="M135.1,101c0.7,16.4,0.7,24.4,0.7,24.4c-1.2,0.9-3.2,0.8-5.7-0.6c0,0-1.7-1-5-3.1c-1.4-0.8-2.2-3.1-2.3-6.9
		C122.9,100.2,126.2,92.4,135.1,101"/>
	<path class="st5" d="M142.4,129.9c-7.9-0.8-11.3-6.1-10.3-16l2.7-31h0.2c0.4,0,0.7-0.3,0.9-0.8l9.6,5l2.3,33.5
		C148.3,127.2,145.4,130.2,142.4,129.9"/>
	<path class="st6" d="M136.3,80.5c3.9,5.2,5.9,7.8,5.9,7.8c-3.2,1-5.7,0-7.5-3.2C134.1,83.7,134.6,82.2,136.3,80.5"/>
	<path class="st7" d="M73.6,79.9c0.9,4.5,4.1,8.1,8.2,9.1c4.2,1,8.5-0.8,11.1-4.5c0,0-1.2-5.4,0.6-12.4c0,0-4.8-10.6-18-15.1
		C75.8,76.4,73.6,79.9,73.6,79.9"/>
	<path class="st3" d="M86.5,97.9h1.8v39.7h-1.8V97.9z M84.4,87.9C80.7,94.7,79,98,79,98c-5.5-0.5-8.2-7.5-10.2-20.3
		c2.3-1.7,3.6-3.1,5.8-4.9C76.1,81.2,79.5,86.2,84.4,87.9z"/>
	<path class="st8" d="M105.7,57.8c-1.7-0.5-2.6-0.8-2.6-0.8c-1.4,17-3,26.2-4.7,27.5c0.5,1,1.2,1.7,2.1,1.9
		C102.5,83.6,104.2,74,105.7,57.8"/>
	<path class="st9" d="M103.8,51.5c-1.1,5.6-1.6,8.6-1.6,8.6c5.8-1.9,9.4-3.3,10.5-4.5C108.5,51.6,105.6,50.3,103.8,51.5"/>
	<path class="st6" d="M77.9,71.1c1.2,3.8,3.3,7,5.4,9.3c3.9,4.3,9.4,4.9,10.1,2.3c0.7-2.3,2-4.9,5.9-10.1c1.2-1.5,1.7-3.8,1.6-6.8
		c-0.1-2.7,0.2-4.3,2.6-6.1c1.6-1.3,2.2-4,1.7-8.1c-0.7,0.1-1.4,0.1-2.1-0.1c-0.4,0-0.9-0.1-1.2-0.3h-0.6l-0.7-0.1
		c-0.4,0-0.7,0-1.1-0.1l-1-0.1l-0.9-0.1c-0.4,0-0.9-0.1-1.4-0.3c-0.4-0.1-0.7-0.3-1.1-0.4H95h-0.2c-0.4,0-0.9-0.1-1.2-0.3l-0.6-0.3
		h0.2c-0.4,0-0.7-0.1-1.1-0.3c-0.2,0-0.5-0.1-0.6-0.1c-0.4,0-0.7-0.1-1.1-0.3L90,48.8h0.2c-0.5,0-1-0.1-1.4-0.4h-0.1h-0.1
		c-0.5,0-1-0.1-1.5-0.1l-0.7-0.1c-0.4,0-0.9-0.1-1.2-0.3c-0.5-0.1-1-0.3-1.5-0.5c-1-0.4-1.8-1.2-2.3-2.2c-2.8,3.7-4.3,8.7-3.9,13.8
		C76,64.3,76.3,65.4,77.9,71.1"/>
	<path class="st10" d="M88.9,33.2L88.9,33.2L88.9,33.2L88.9,33.2z M80.1,58.4c-0.1,2.7-2.8,5.6-3.2,3.3c-0.5-6.1-0.6-11.3-0.2-15.5
		c0.4-0.1,0.7-0.1,1-0.4c0.4-0.1,0.7-0.3,1.1-0.4c0.7,0,1.4-0.3,2.1-0.6h0.1c0.5-0.1,1-0.4,1.5-0.6c0.1,0,0.2-0.1,0.4-0.1
		c0.2,0,0.5-0.1,0.7-0.3c0.2,0,0.5,0,0.6-0.1l0.6-0.1l0,0c0.2,0,0.5,0,0.6,0H86c-0.6,1.2-0.7,2.6-0.2,4c0.5,1.7-0.7,2.8-3.7,3.7
		C80.3,52,80.2,53.9,80.1,58.4z"/>
	<path class="st6" d="M73.9,59.7c-0.2-2.2-1-4.1-2.3-5.5c-1-1.2-1.1-2.9-0.5-4.3c0.5-1.4,1.7-2.4,3.1-2.6c1.4-0.1,2.7,0.5,3.4,1.9
		c2.2,3.7,1.7,8.7-1.1,11.8c-0.5,0.4-1,0.5-1.6,0.3C74.4,60.8,74,60.3,73.9,59.7"/>
	<path class="st11" d="M71.8,53.7c2.5,0.4,3.7,0.6,3.7,0.6c-5,18.3-6.6,28.5-4.8,31c-1,0.8-2.3,1-3.4,0.8
		C65.7,82.1,67.3,71.3,71.8,53.7"/>
	<path class="st12" d="M89.1,53c6.4-0.5,14.4-0.3,23.9,0.8c-1.4-1.5-2.1-3.5-2-5.5c0.5-8.6-3.1-16.9-9.4-21.7
		c-6.3-4.7-14.4-5.4-21.2-1.5c-6.8,3.8-10,8.2-11.7,20.2c-0.7,6-1,9.1-1,9.1c8.7-2.8,13.5-3.7,14.3-2.7C86.7,52.6,89.1,53,89.1,53"
		/>
	<path class="st13" d="M82.4,51.2c1.8,1.3,2.7,1.9,2.7,1.9s-4.8,1.2-14.3,3.3c-0.9,0.1-1.6-0.3-2.6-1.5
		C77.6,52.4,82.4,51.2,82.4,51.2"/>
	<path class="st14" d="M66.9,53.7c0,1,0.4,1.5,1.2,1.8c0,0,4.4-1.5,12.3-3.2c1.1-0.3,1.8-0.1,2.5,0.3c4.2,2.3,3.6,1.8,9.8,1.7
		c8.6-0.1,15.5,0.5,20.7,1.9c0.4-0.8,0.2-1.7-0.4-2.2c-6-1.4-12.7-2-20.1-1.9c-5.9,0-5.4,0.6-8-0.8c9.5-0.9,18.6-0.5,27.5,1.4
		c0.2,0,0.5-0.3,0.5-0.5c0-0.3-0.1-0.5-0.4-0.5c-9.8-2.2-19.6-2.7-29.3-1.4c-1.5-0.6-2.3-0.5-3.2-0.3C75.5,51,71.2,52.3,66.9,53.7"
		/>
	<polygon class="st15" points="73.7,42.4 74.7,44.8 77,44.3 75.2,46.1 76.4,48.5 74.3,47.1 72.7,49.1 73.2,46.5 71.1,45.4 
		73.4,45.1 	"/>
	<rect x="127.5" y="72.5" class="st16" width="13.9" height="8.3"/>
	<path class="st17" d="M103.6,68.8h2c0.2,0,0.5,0.3,0.5,0.5v1.4h8.4c0.4,0,0.7,0.4,0.7,0.8v2.8c0,0.5-0.4,0.8-0.7,0.8h-11.7
		c-0.4,0-0.7-0.4-0.7-0.8v-2.8c0-0.5,0.4-0.8,0.7-0.8h0.4v-1.4C103.1,69,103.2,68.8,103.6,68.8"/>
	<path class="st18" d="M101.6,78.5c5.3,0.4,8,0.5,8,0.5c-0.1,2.8-1.5,5.5-3.6,7c0,0-9.5,6.8-28.3,20.5c-2.5,1.7-3.3,1.4-3.9-0.5
		c0,0-1.4-3.7-4.1-11c-0.5-1.3-0.4-2,0.2-2.3C91.2,83.2,101.6,78.5,101.6,78.5"/>
	<path class="st19" d="M126.2,70.4h48.5h3.2v-4.9c0-0.5,0.4-1,0.9-1c0.5,0,0.9,0.5,0.9,1v4.9h2h6.5c1,0,1.8,0.9,1.8,2
		c0,1.2-0.9,2-1.8,2h-6.5l0,0h-47l-3.3,30.7c-0.1,0.6-0.5,1-1.1,1h-5.3c-0.5,0-0.9-0.5-0.9-1l1.4-12.9H108V87h-3.1
		c-2.5,0.1-3.2,0-3.2-1.9v-2.3h24.7l0.9-8.4h-1.1c-0.5,0-1-0.5-1-1.2v-1.8C125.4,70.9,125.7,70.4,126.2,70.4"/>
	<path class="st16" d="M99.6,72.5h26.2c1,0,1.8,0.9,1.8,2.2v7.3c0,1.2-0.9,2-1.8,2H99.6c-1,0-1.8-0.9-1.8-2v-7.3
		C97.8,73.4,98.7,72.5,99.6,72.5"/>
	<path class="st20" d="M89.1,102.5c-1.4,1.3-1.6,2-1.6,2c31.8,24.9,53.1,24.7,77.4-22.1c-2.6,0-5-0.4-5-0.4
		C137.1,125.5,118.9,124.1,89.1,102.5"/>
	<path class="st18" d="M137.1,74.3H173c0.5,0,1,0.5,1,1v7.5c0,0.6-0.4,1-1,1h-35.9c-0.5,0-1-0.5-1-1v-7.5
		C136.1,74.6,136.6,74.3,137.1,74.3"/>
	<path class="st4" d="M47.3,118.5c14.5-6.9,21.8-10.5,21.8-10.5s-2.1-7.2-6.3-21.4c-1.1-4.6-6.4-6.8-11-5.8c-4.4,1-9,5-8.2,10
		C46.1,109.3,47.3,118.5,47.3,118.5"/>
	<path class="st3" d="M71.1,107.9c-11.6,9.8-11,19.4-9.2,23.4c-4.4,4.2-9.1-1.3-13.2-7.9c-3-4.7-1.7-7.5,0.6-10.4
		c4.2-4.7,9.4-7.8,15.1-9.1C67.9,103.2,69.2,102.7,71.1,107.9"/>
	<path class="st21" d="M138.8,86.2c0.7,3.6,5.3,2.8,12.1-1.7c2.3-1.5,2.5-4.3,1.1-9.6c-0.9-3.3-5.8-3.6-9.6-1.4
		c-3.3,1.8-4.8,5.2-4.7,7.7C138.4,84.5,138.8,86.2,138.8,86.2"/>
	<polygon class="st3" points="47.8,80.1 63.2,77.1 67.5,80.9 52,84 	"/>
	<path class="st22" d="M63.5,134.1h46.2c1,0,2,0.9,2.1,2.2l0.5,5.4c0.1,1.2-0.6,2.2-1.7,2.2H64.3c-1,0-2-0.9-2.1-2.2l-0.5-5.4
		C61.7,135.1,62.5,134.1,63.5,134.1"/>
	<path class="st6" d="M109.7,104.3c2.3,0.6,4.3-1.2,6.6-5.8c1.5-3.1-0.2-3.6-2.8-5.8c-1.1-0.9-0.9-1.3,0.5-0.9c0,0,2.2,0.6,6.8,1.9
		c0.7,0.3,1.4-1,1.6-1.8c0.2-0.9,0.4-2.2-0.4-2.6c-1.1-0.4-2.5-0.8-9.2-2.8c-2.5-0.6-5-0.1-6.6,0.5c0,0-5.3,1.7-11.8,5
		c0,0-12.7,6.8-37.9,20.2c-4.7,2.4-4.2,11.1-0.7,15.7c3.4,4.7,5.7,5.6,13,0.3c14.3-10.7,30.9-24.2,30.9-24.2
		c1.5-1.2,2.2-1.8,2.2-1.8C107,103.7,109.7,104.3,109.7,104.3"/>
	<path class="st23" d="M93.1,305.3h36.4c0.5,0,1,0.5,1,1v2.7c0,0.6-0.4,1-1,1H93.1c-0.5,0-1-0.5-1-1v-2.7
		C92.1,305.8,92.5,305.3,93.1,305.3"/>
	<path class="st24" d="M60.3,287.5l9.4-0.4c0.4,0,0.6,0.3,0.6,0.6l0,0c0,0.4-0.2,0.8-0.6,0.8l-9.4,0.4c-0.4,0-0.6-0.3-0.6-0.6l0,0
		C59.6,287.9,60,287.6,60.3,287.5"/>
	<path class="st24" d="M60.6,290.5l8.6-0.4c0.4,0,0.6,0.3,0.6,0.6l0,0c0,0.4-0.2,0.8-0.6,0.8l-8.6,0.4c-0.4,0-0.6-0.3-0.6-0.6l0,0
		C60,290.8,60.4,290.5,60.6,290.5"/>
	<path class="st24" d="M61,293.4l8-0.4c0.4,0,0.6,0.3,0.6,0.6l0,0c0,0.4-0.2,0.8-0.6,0.8l-8,0.4c-0.4,0-0.6-0.3-0.6-0.6l0,0
		C60.4,293.6,60.8,293.4,61,293.4"/>
	<path class="st24" d="M61.5,296.2l7.1-0.4c0.4,0,0.6,0.3,0.6,0.6l0,0c0,0.4-0.2,0.8-0.6,0.8l-7.1,0.4c-0.4,0-0.6-0.3-0.6-0.6l0,0
		C60.9,296.4,61.1,296.2,61.5,296.2"/>
	<path class="st24" d="M62,299l6.3-0.3c0.4,0,0.6,0.3,0.6,0.6l0,0c0,0.4-0.2,0.8-0.6,0.8l-6.3,0.3c-0.4,0-0.6-0.3-0.6-0.6l0,0
		C61.4,299.2,61.6,299,62,299"/>
	<path class="st24" d="M62.2,301.7l5.8-0.3c0.4,0,0.6,0.3,0.6,0.6l0,0c0,0.4-0.2,0.8-0.6,0.8l-5.8,0.3c-0.4,0-0.6-0.3-0.6-0.6l0,0
		C61.6,301.9,61.9,301.7,62.2,301.7"/>
	<path class="st24" d="M62.6,304.2l5-0.3c0.4,0,0.6,0.3,0.6,0.6l0,0c0,0.4-0.2,0.8-0.6,0.8l-5,0.3c-0.4,0-0.6-0.3-0.6-0.6l0,0
		C62,304.6,62.2,304.2,62.6,304.2"/>
	<path class="st24" d="M63.1,306.9l4.2-0.3c0.4,0,0.6,0.3,0.6,0.6l0,0c0,0.4-0.2,0.8-0.6,0.8l-4.2,0.3c-0.4,0-0.6-0.3-0.6-0.6l0,0
		C62.5,307.2,62.7,306.9,63.1,306.9"/>
	<path class="st24" d="M63.3,309.7l3.7-0.1c0.4,0,0.6,0.3,0.6,0.6l0,0c0,0.4-0.2,0.8-0.6,0.8l-3.7,0.1c-0.4,0-0.6-0.3-0.6-0.6l0,0
		C62.7,310,63,309.7,63.3,309.7"/>
	<path class="st24" d="M102.2,277l3.7-0.4c0.4,0,0.6,0.3,0.6,0.6l0,0c0,0.4-0.2,0.8-0.6,0.8l-3.7,0.4c-0.4,0-0.6-0.3-0.6-0.6l0,0
		C101.6,277.2,101.9,277,102.2,277"/>
	<path class="st24" d="M102.4,279.4l3.7-0.4c0.4,0,0.6,0.3,0.6,0.6l0,0c0,0.4-0.2,0.8-0.6,0.8l-3.7,0.4c-0.4,0-0.6-0.3-0.6-0.6l0,0
		C101.7,279.8,102,279.5,102.4,279.4"/>
	<path class="st24" d="M102.1,281.8l3.7-0.4c0.4,0,0.6,0.3,0.6,0.6l0,0c0,0.4-0.2,0.8-0.6,0.8l-3.7,0.4c-0.4,0-0.6-0.3-0.6-0.6l0,0
		C101.5,282.2,101.7,282,102.1,281.8"/>
	<path class="st24" d="M102.2,284.4l3.7-0.4c0.4,0,0.6,0.3,0.6,0.6l0,0c0,0.4-0.2,0.8-0.6,0.8l-3.7,0.4c-0.4,0-0.6-0.3-0.6-0.6l0,0
		C101.6,284.8,101.9,284.4,102.2,284.4"/>
	<path class="st24" d="M102.1,287l3.7-0.4c0.4,0,0.6,0.3,0.6,0.6l0,0c0,0.4-0.2,0.8-0.6,0.8l-3.7,0.4c-0.4,0-0.6-0.3-0.6-0.6l0,0
		C101.5,287.3,101.9,287,102.1,287"/>
	<path class="st24" d="M102.2,289.5l3.7-0.4c0.4,0,0.6,0.3,0.6,0.6l0,0c0,0.4-0.2,0.8-0.6,0.8l-3.7,0.4c-0.4,0-0.6-0.3-0.6-0.6l0,0
		C101.6,289.9,101.9,289.5,102.2,289.5"/>
	<path class="st24" d="M103.8,293.9l2.6-3.1c0.2-0.3,0.6-0.3,0.9,0l0,0c0.2,0.3,0.2,0.8,0,1l-2.6,3.1c-0.2,0.3-0.6,0.3-0.9,0l0,0
		C103.6,294.6,103.6,294.1,103.8,293.9"/>
	<path class="st24" d="M106,295l2.6-3.1c0.2-0.3,0.6-0.3,0.9,0l0,0c0.2,0.3,0.2,0.8,0,1l-2.6,3.1c-0.2,0.3-0.6,0.3-0.9,0l0,0
		C105.8,295.8,105.8,295.3,106,295"/>
	<path class="st24" d="M108,296.4l2.6-3.1c0.2-0.3,0.6-0.3,0.9,0l0,0c0.2,0.3,0.2,0.8,0,1l-2.6,3.1c-0.2,0.3-0.6,0.3-0.9,0l0,0
		C107.8,297.2,107.8,296.7,108,296.4"/>
	<path class="st24" d="M110.2,298.1l2.6-3.1c0.2-0.3,0.6-0.3,0.9,0l0,0c0.2,0.3,0.2,0.8,0,1l-2.6,3.1c-0.2,0.3-0.6,0.3-0.9,0l0,0
		C110,298.9,110,298.5,110.2,298.1"/>
</g>
<g>
	<path class="st0" d="M393.4,233.8c-0.9-2.3-1.8-4.6-3.1-6.8c-3,0.5-4.4,0.7-4.4,0.7c-2.7,0.9-4.3,3.5-3.9,6.2
		C381.9,234,385.8,234,393.4,233.8"/>
	<path class="st1" d="M418.9,234c2.6-18.2,3.6-28.2,3.6-28.2c-11.6,0.1-17.4,0.2-17.4,0.2c1,9.9,1.4,14.7,1.4,14.7
		c-6.4,3.6-9.7,5.4-9.7,5.4c-5.2,0.8-7.8,1.3-7.8,1.3c0.6,5.1,1,7.6,1,7.6S399.7,235.1,418.9,234"/>
	<path class="st2" d="M416.7,234.1c0,0,1.2-8.9,3.8-26.6c0,0-1.6-0.3-4.8-1c-2.8,18.6-4.3,28-4.3,28S413.3,234.3,416.7,234.1"/>
	<path class="st1" d="M454.8,247c0,0-0.6-5.3-1.7-16c0,0,0.6-6.3,1.7-19.1c-10.8,0.7-16.3,1-16.3,1c0.7,12.1,1.1,18.2,1.1,18.2
		c-1.5,9.5-2.2,14.4-2.2,14.4C439.4,246.7,445.1,247.3,454.8,247"/>
	<path class="st2" d="M448.2,238.8c0,0,0.9-8.6,2.6-26c-5.5-0.3-8.4-0.1-8.8,0.7c1,16.4,1.5,24.7,1.5,24.7
		C445,239.1,446.7,239.4,448.2,238.8"/>
	<path class="st25" d="M424.1,203.9c0.1,3.8-1.5,4-5.2,4c0,0-4.1-0.1-12.1-0.5c-2.6-0.1-3.2-1.5-3.9-8.3
		c-2.5-22.4-3.9-35.7-4.3-39.7c0,0-0.4-4.7,0.6-26.7c17-26,25.2-14.5,24.2,34.5C423.5,185.6,423.7,197.8,424.1,203.9"/>
	<path class="st25" d="M439.2,214.2c-2.8,0-3.3-1.2-4.2-3.8c-3.8-13.9-7.6-21.2-9.4-29.7l-9.2-56.5c16.2,2.2,28.2,6.2,35.3,12.1
		l-2.2,34.6c-0.5,6.8,1,10.2,6.9,36.7c1.4,5.5,0.2,6.8-4.6,6.7C446.1,214.1,441.9,214.1,439.2,214.2"/>
	<path class="st25" d="M407.5,121.3c6.2,5.6,14.4,8.9,23.1,9.2C427.3,108.3,419.7,105.4,407.5,121.3"/>
	<path class="st25" d="M406.2,54.6l-6,43.1c-2.2,13.2-4.3,26-6,38.4c0,0,1.4,0,4.1,0c4.3-2.3,11.6-9.9,21.8-22.7
		c-0.5,3.5,3.8,13.2,12.8,29.2c10.5-0.9,20-5.8,26-13.2c0,0-2.8-7.7-8.5-23.2c-0.9-4.5-7.6-7.4-20.2-8.4h18.1l4.3-32.9
		c1.8-2.8,4.1-5.9,6.3-9.3c-3.8-1.6-9.4-3.5-16.8-5.5l-4.7,10.6L406.2,54.6z"/>
	<polygon class="st3" points="419.8,53.7 404.3,55.1 406.2,51.3 421.8,49.9 	"/>
	<path class="st4" d="M380,68.7c0,0,4.8-3.9,16.9-10.2c22.1-9.2,16,0.8,10.6,14.1c-10,7-17.5,11.7-21.5,12
		C385.8,81.9,384.2,75.8,380,68.7"/>
	<path class="st3" d="M399.3,59.2c0,0,0,0.5-0.1,1.5c-6,3.1-9,4.6-9,4.6c-1.8-2.3-2.7-3.6-2.7-3.6c3-1.5,4.3-2.3,4.3-2.3
		S394.4,59.5,399.3,59.2"/>
	<path class="st3" d="M376.9,68.3c8.8-6.9,12-0.6,12.1,11.2c-0.1,3-1,4.8-2.3,5.5c-3.3,1.6-4.9,2.5-4.9,2.5
		c-2.5,1.2-4.3,1.3-5.5,0.6C376.2,88,376.3,81.5,376.9,68.3"/>
	<path class="st5" d="M369.7,91.7c-3,0.2-5.8-2.2-5.3-7.4l2.3-27l9.4-4c0.1,0.3,0.5,0.6,0.9,0.6h0.2l2.7,25
		C380.8,86.7,377.5,91,369.7,91.7"/>
	<path class="st6" d="M375.7,51.9c1.7,1.3,2.2,2.5,1.6,3.7c-1.8,2.6-4.3,3.5-7.4,2.6C369.9,58.2,371.7,56,375.7,51.9"/>
	<path class="st7" d="M437.4,51.3c0,0-2.2-2.8-1.8-18.5C422.6,36.5,417.8,45,417.8,45c1.8,5.6,0.6,10,0.6,10c2.5,3,6.8,4.5,10.8,3.7
		C433.5,57.8,436.7,55,437.4,51.3"/>
	<path class="st3" d="M424.7,97.9H423v-32h1.7V97.9z M436.6,45.7c2.2,1.4,3.5,2.5,5.8,3.9c-2,10.4-4.7,16-10.1,16.4
		c0,0-1.8-2.8-5.4-8.2C431.6,56.4,435,52.3,436.6,45.7z"/>
	<path class="st8" d="M405.9,33.5c1.5,13.1,3.2,20.8,5.1,23c0.9-0.1,1.6-0.7,2.1-1.5c-1.7-1.2-3.3-8.5-4.7-22.2
		C408.5,32.8,407.6,33,405.9,33.5"/>
	<path class="st9" d="M407.7,28.4c-1.7-1-4.7,0.1-8.8,3.2c1.1,0.9,4.6,2.2,10.4,3.7C409.2,35.3,408.7,33,407.7,28.4"/>
	<path class="st6" d="M433.2,44.3c1.6-4.5,1.8-5.4,0.2-9.9c0.4-4.1-1.1-8.1-3.9-11c-0.5,0.8-1.4,1.4-2.3,1.7
		c-0.5,0.1-0.9,0.3-1.4,0.5c-0.4,0.1-0.9,0.1-1.2,0.2h-0.7c-0.5,0-1,0.1-1.4,0.1h-0.1h-0.1c-0.5,0.1-0.9,0.2-1.4,0.2h0.2l-0.2,0.1
		c-0.4,0.1-0.7,0.2-1.1,0.2c-0.2,0-0.4,0.1-0.6,0.1c-0.4,0.1-0.7,0.1-1.1,0.2h0.2l-0.6,0.2c-0.4,0.1-0.9,0.2-1.2,0.2h-0.2h-0.1
		c-0.4,0.1-0.6,0.2-1,0.3c-0.4,0.1-0.9,0.2-1.2,0.2l-0.9,0.1l-1,0.1c-0.4,0-0.7,0-1.1,0h-0.7h-0.6c-0.4,0.1-0.9,0.2-1.2,0.2
		c-0.7,0.2-1.4,0.2-2.1,0.1c-0.5,3.3,0,5.5,1.7,6.6c2.3,1.5,2.7,2.8,2.6,4.9c-0.1,2.4,0.4,4.3,1.6,5.5c3.9,4.3,5.2,6.3,5.9,8.2
		c0.7,2.1,6.2,1.6,10-1.8C430,49.9,432,47.3,433.2,44.3"/>
	<path class="st10" d="M422.4,13.7L422.4,13.7L422.4,13.7L422.4,13.7z M429,28.3c-2.8-0.7-4.2-1.7-3.6-3c0.5-1,0.4-2.2-0.2-3.1h0.6
		c0.2,0,0.5,0,0.6,0l0,0l0.6,0.1c0.2,0,0.5,0.1,0.6,0.1c0.2,0.1,0.5,0.1,0.7,0.1c0.1,0,0.2,0.1,0.4,0.1c0.5,0.2,1,0.5,1.5,0.6h0.1
		c0.6,0.3,1.4,0.5,2,0.5c0.4,0.1,0.7,0.2,1.1,0.3c0.4,0.1,0.6,0.2,1,0.2c0.4,3.5,0.2,7.6-0.2,12.4c-0.4,1.8-3.1-0.5-3.2-2.6
		C431,30.4,430.8,28.9,429,28.3z"/>
	<path class="st6" d="M437.1,35c-0.1,0.6-0.5,0.9-1,1.2c-0.5,0.2-1.1,0.1-1.6-0.2c-2.8-2.4-3.3-6.4-1.1-9.4c0.7-1,2.1-1.6,3.5-1.5
		c1.4,0.1,2.5,0.9,3.1,2.1c0.5,1.2,0.5,2.5-0.5,3.5C438,31.7,437.3,33.2,437.1,35"/>
	<path class="st11" d="M439.2,30.2c4.6,14.1,6,22.9,4.6,26.1c-1.1,0.2-2.3,0-3.5-0.6c1.8-2,0.2-10.2-4.7-25
		C435.6,30.7,436.8,30.5,439.2,30.2"/>
	<path class="st25" d="M422.1,29.7c0,0,2.3-0.3,6.9-1.2c0.7-0.8,5.3-0.1,14.1,2.2c0,0-0.4-2.4-1-7.4c-1.6-9.8-4.8-13.2-11.5-16.3
		C424,3.9,416,4.4,409.8,8.3s-9.7,10.6-9.2,17.5c0.1,1.7-0.6,3.2-2,4.5C408.1,29.6,415.9,29.3,422.1,29.7"/>
	<path class="st13" d="M428.8,28.2c0,0,4.6,1,13.8,3.1c-1,1-1.6,1.4-2.5,1.3c-9.4-1.8-14.1-2.6-14.1-2.6S427.1,29.2,428.8,28.2"/>
	<path class="st14" d="M444.1,30.2c-4.3-1.2-8.5-2.2-12.8-3.1c-0.9-0.1-1.7-0.3-3.2,0.2c-9.5-1-19.1-0.7-28.7,1.2
		c-0.2,0-0.4,0.2-0.4,0.5c0,0.2,0.2,0.3,0.5,0.3c8.6-1.5,17.6-2,27-1.2c-2.6,1.2-2.1,0.6-7.9,0.7c-7.3,0-13.9,0.5-19.9,1.6
		c-0.6,0.3-0.7,1.2-0.4,1.7c5.1-1.2,11.8-1.7,20.3-1.5c6.2,0.1,5.5,0.6,9.6-1.3c0.6-0.3,1.4-0.5,2.5-0.2c7.6,1.2,12.1,2.4,12.1,2.4
		C443.7,31.4,444.1,31,444.1,30.2"/>
	<polygon class="st15" points="437.7,23.2 439.9,23.5 437.8,24.4 438.3,26.4 436.7,24.9 434.7,26 435.8,24.1 434.1,22.6 436.4,23.1 
		437.3,21 	"/>
	<rect x="370.7" y="45.3" class="st16" width="13.7" height="6.7"/>
	<path class="st17" d="M408,42.3c0.2,0,0.5,0.2,0.5,0.5v1.2h0.4c0.4,0,0.7,0.3,0.7,0.7v2.3c0,0.3-0.4,0.7-0.7,0.7h-11.5
		c-0.4,0-0.7-0.3-0.7-0.7v-2.3c0-0.3,0.4-0.7,0.7-0.7h8.3v-1.2c0-0.2,0.2-0.5,0.5-0.5H408"/>
	<path class="st18" d="M409.8,50.3c0,0,10.4,3.8,31.1,11.4c0.6,0.2,0.7,0.8,0.2,1.8c-2.6,6-3.9,9-3.9,9c-0.6,1.5-1.5,1.7-3.9,0.3
		c-18.6-10.9-27.9-16.4-27.9-16.4c-2.1-1.2-3.5-3.3-3.6-5.6C401.9,50.7,404.6,50.5,409.8,50.3"/>
	<path class="st19" d="M385.6,43.6c0.5,0,0.9,0.5,0.9,0.9V46c0,0.5-0.4,0.9-0.9,0.9h-1.1l0.9,6.8h24.4v1.8c0,1.5-0.6,1.6-3.1,1.5
		h-3.1v4.3h-17.1l1.4,10.4c0.1,0.5-0.2,0.9-0.9,0.9h-5.2c-0.5,0-1-0.3-1-0.9l-3.3-24.7h-46.2l0,0h-6.4c-1,0-1.8-0.8-1.8-1.7
		s0.9-1.7,1.8-1.7h6.4h2v-3.7c0-0.5,0.4-0.8,0.7-0.8c0.5,0,0.7,0.3,0.7,0.8v3.9h3.1h47.8"/>
	<path class="st16" d="M411.8,45.3c1,0,1.8,0.8,1.8,1.7v6c0,0.9-0.9,1.7-1.8,1.7H386c-1,0-1.8-0.8-1.8-1.7v-6c0-0.9,0.9-1.7,1.8-1.7
		H411.8"/>
	<path class="st20" d="M422.3,69.6C392.9,87,375,88.1,352.6,53.1c0,0-2.5,0.2-5.1,0.2c24,37.7,44.9,38,76.2,17.8
		C423.7,71.2,423.5,70.6,422.3,69.6"/>
	<path class="st18" d="M375,46.8c0.5,0,0.9,0.3,0.9,0.8v6c0,0.5-0.4,0.8-0.9,0.8h-35.4c-0.5,0-0.9-0.3-0.9-0.8v-6
		c0-0.5,0.4-0.8,0.9-0.8H375"/>
	<path class="st4" d="M463.2,82.5c0,0,1.2-7.4,3.7-22.2c0.6-3.9-3.8-7.2-8.1-8.1c-4.4-0.8-9.6,0.9-10.7,4.6
		C444,68.3,441.9,74,441.9,74S449,76.8,463.2,82.5"/>
	<path class="st3" d="M439.9,73.8c1.8-4.1,3.1-3.7,6.5-3.1c5.7,1,10.8,3.6,14.9,7.4c2.3,2.2,3.6,4.5,0.6,8.3
		c-4.1,5.3-8.6,9.8-12.9,6.3C450.7,89.6,451.2,81.9,439.9,73.8"/>
	<path class="st21" d="M373.3,56.4c0,0,0.4-1.3,1-3.9c0.2-2-1.2-4.8-4.6-6.2c-3.8-1.7-8.6-1.6-9.5,1.2c-1.2,4.1-1.1,6.6,1.1,7.7
		C368.1,58.7,372.7,59.2,373.3,56.4"/>
	<polygon class="st3" points="458.6,54.6 443.5,52.1 447.7,49.1 462.8,51.5 	"/>
	<path class="st22" d="M447.4,95.1c1,0,1.7,0.8,1.6,1.7l-0.5,4.4c-0.1,0.9-1,1.7-2,1.7h-45.5c-1,0-1.7-0.8-1.6-1.7l0.5-4.4
		c0.1-0.9,1-1.7,2-1.7H447.4"/>
	<path class="st6" d="M401.8,71c0,0,2.6-0.5,7.9-1.4c0,0,0.7,0.5,2.2,1.5c0,0,16.4,10.7,30.3,19.4c7.3,4.4,9.5,3.6,12.8-0.1
		c3.3-3.7,3.8-10.7-0.7-12.8C429.4,66.7,417,61.3,417,61.3c-6.4-2.6-11.6-4-11.6-4c-1.6-0.5-4.1-0.9-6.5-0.5c-6.5,1.6-8,2-9,2.3
		c-0.7,0.2-0.6,1.4-0.4,2.1s0.7,1.7,1.5,1.5c4.4-1,6.7-1.6,6.7-1.6c1.4-0.3,1.5,0,0.5,0.7c-2.5,1.6-4.2,2.2-2.7,4.6
		C397.6,70,399.5,71.4,401.8,71"/>
	<path class="st23" d="M418.3,233c0.5,0,0.9,0.3,0.9,0.8v2.2c0,0.5-0.4,0.8-0.9,0.8h-35.8c-0.5,0-0.9-0.3-0.9-0.8v-2.2
		c0-0.5,0.4-0.8,0.9-0.8H418.3"/>
	<path class="st24" d="M450.5,218.8c0.4,0,0.6,0.2,0.6,0.6l0,0c0,0.3-0.2,0.6-0.6,0.6l-9.1-0.3c-0.4,0-0.6-0.2-0.6-0.6l0,0
		c0-0.3,0.2-0.6,0.6-0.6L450.5,218.8"/>
	<path class="st24" d="M450.1,221.2c0.4,0,0.6,0.2,0.6,0.6l0,0c0,0.3-0.2,0.6-0.6,0.6l-8.5-0.3c-0.4,0-0.6-0.2-0.6-0.6l0,0
		c0-0.3,0.2-0.6,0.6-0.6L450.1,221.2"/>
	<path class="st24" d="M449.8,223.5c0.4,0,0.6,0.2,0.6,0.6l0,0c0,0.3-0.2,0.6-0.6,0.6l-7.8-0.3c-0.4,0-0.6-0.2-0.6-0.6l0,0
		c0-0.3,0.2-0.6,0.6-0.6L449.8,223.5"/>
	<path class="st24" d="M449.4,225.7c0.4,0,0.6,0.2,0.6,0.6l0,0c0,0.3-0.2,0.6-0.6,0.6l-7-0.2c-0.4,0-0.6-0.2-0.6-0.6l0,0
		c0-0.3,0.2-0.6,0.6-0.6L449.4,225.7"/>
	<path class="st24" d="M448.9,228c0.4,0,0.6,0.2,0.6,0.6l0,0c0,0.3-0.2,0.6-0.6,0.6l-6.2-0.2c-0.4,0-0.6-0.2-0.6-0.6l0,0
		c0-0.3,0.2-0.6,0.6-0.6L448.9,228"/>
	<path class="st24" d="M448.7,230.2c0.4,0,0.6,0.2,0.6,0.6l0,0c0,0.3-0.2,0.6-0.6,0.6l-5.7-0.2c-0.4,0-0.6-0.2-0.6-0.6l0,0
		c0-0.3,0.2-0.6,0.6-0.6L448.7,230.2"/>
	<path class="st24" d="M448.3,232.2c0.4,0,0.6,0.2,0.6,0.6l0,0c0,0.3-0.2,0.6-0.6,0.6l-4.9-0.2c-0.4,0-0.6-0.2-0.6-0.6l0,0
		c0-0.3,0.2-0.6,0.6-0.6L448.3,232.2"/>
	<path class="st24" d="M447.8,234.4c0.4,0,0.6,0.2,0.6,0.6l0,0c0,0.3-0.2,0.6-0.6,0.6l-4.1-0.1c-0.4,0-0.6-0.2-0.6-0.6l0,0
		c0-0.3,0.2-0.6,0.6-0.6L447.8,234.4"/>
	<path class="st24" d="M447.5,236.7c0.4,0,0.6,0.2,0.6,0.6l0,0c0,0.3-0.2,0.6-0.6,0.6l-3.7-0.1c-0.4,0-0.6-0.2-0.6-0.6l0,0
		c0-0.3,0.2-0.6,0.6-0.6L447.5,236.7"/>
	<path class="st24" d="M409.3,210.3c0.4,0,0.6,0.3,0.6,0.6l0,0c0,0.3-0.2,0.6-0.6,0.5l-3.7-0.2c-0.4,0-0.6-0.3-0.6-0.6l0,0
		c0-0.3,0.2-0.6,0.6-0.5L409.3,210.3"/>
	<path class="st24" d="M409.2,212.3c0.4,0,0.6,0.3,0.6,0.6l0,0c0,0.3-0.2,0.6-0.6,0.5l-3.7-0.2c-0.4,0-0.6-0.3-0.6-0.6l0,0
		c0-0.3,0.2-0.6,0.6-0.5L409.2,212.3"/>
	<path class="st24" d="M409.3,214.3c0.4,0,0.6,0.3,0.6,0.6l0,0c0,0.3-0.2,0.6-0.6,0.5l-3.7-0.2c-0.4,0-0.6-0.3-0.6-0.6l0,0
		c0-0.3,0.2-0.6,0.6-0.5L409.3,214.3"/>
	<path class="st24" d="M409.3,216.2c0.4,0,0.6,0.3,0.6,0.6l0,0c0,0.3-0.2,0.6-0.6,0.5l-3.7-0.2c-0.4,0-0.6-0.3-0.6-0.6l0,0
		c0-0.3,0.2-0.6,0.6-0.5L409.3,216.2"/>
	<path class="st24" d="M409.3,218.3c0.4,0,0.6,0.3,0.6,0.6l0,0c0,0.3-0.2,0.6-0.6,0.5l-3.7-0.2c-0.4,0-0.6-0.3-0.6-0.6l0,0
		c0-0.3,0.2-0.6,0.6-0.5L409.3,218.3"/>
	<path class="st24" d="M409.2,220.4c0.4,0,0.6,0.3,0.6,0.6l0,0c0,0.3-0.2,0.6-0.6,0.5l-3.7-0.2c-0.4,0-0.6-0.3-0.6-0.6l0,0
		c0-0.3,0.2-0.6,0.6-0.5L409.2,220.4"/>
	<path class="st24" d="M407.7,223.9c0.2,0.2,0.2,0.6,0,0.8l0,0c-0.2,0.2-0.6,0.2-0.9,0l-2.6-2.4c-0.2-0.2-0.2-0.6,0-0.8l0,0
		c0.2-0.2,0.6-0.2,0.9,0L407.7,223.9"/>
	<path class="st24" d="M405.5,224.9c0.2,0.2,0.2,0.6,0,0.8l0,0c-0.2,0.2-0.6,0.2-0.9,0l-2.6-2.4c-0.2-0.2-0.2-0.6,0-0.8l0,0
		c0.2-0.2,0.6-0.2,0.9,0L405.5,224.9"/>
	<path class="st24" d="M403.6,226c0.2,0.2,0.2,0.6,0,0.8l0,0c-0.2,0.2-0.6,0.2-0.9,0l-2.6-2.4c-0.2-0.2-0.2-0.6,0-0.8l0,0
		c0.2-0.2,0.6-0.2,0.9,0L403.6,226"/>
	<path class="st24" d="M401.4,227.4c0.2,0.2,0.2,0.6,0,0.8l0,0c-0.2,0.2-0.6,0.2-0.9,0l-2.6-2.4c-0.2-0.2-0.2-0.6,0-0.8l0,0
		c0.2-0.2,0.6-0.2,0.9,0L401.4,227.4"/>
	<path class="st0" d="M482.8,258.8c-0.9-2.3-1.8-4.6-3.1-6.8c-3,0.5-4.4,0.7-4.4,0.7c-2.7,0.9-4.3,3.5-3.9,6.2
		C471.3,258.9,475.2,258.9,482.8,258.8"/>
	<path class="st1" d="M508.2,258.9c2.6-18.2,3.6-28.2,3.6-28.2c-11.6,0.1-17.4,0.2-17.4,0.2c1,9.9,1.4,14.7,1.4,14.7
		c-6.4,3.6-9.7,5.4-9.7,5.4c-5.2,0.8-7.8,1.3-7.8,1.3c0.6,5.1,1,7.6,1,7.6S489.1,260.1,508.2,258.9"/>
	<path class="st2" d="M506.1,259c0,0,1.2-8.9,3.8-26.6c0,0-1.6-0.3-4.8-1c-2.8,18.6-4.3,28-4.3,28S502.7,259.3,506.1,259"/>
	<path class="st1" d="M544.2,271.8c0,0-0.6-5.3-1.7-16c0,0,0.6-6.3,1.7-19.1c-10.8,0.7-16.3,1-16.3,1c0.9,12.1,1.2,18.2,1.2,18.2
		c-1.5,9.5-2.2,14.4-2.2,14.4C528.8,271.7,534.5,272.3,544.2,271.8"/>
	<path class="st2" d="M537.5,263.7c0,0,0.9-8.6,2.6-26c-5.5-0.3-8.4-0.1-8.8,0.7c1,16.4,1.5,24.7,1.5,24.7
		C534.3,264.1,536.1,264.2,537.5,263.7"/>
	<path class="st26" d="M513.5,228.9c0.1,3.8-1.5,4-5.2,4c0,0-4.1-0.1-12.1-0.5c-2.6-0.1-3.2-1.5-3.9-8.3
		c-2.5-22.4-3.9-35.7-4.3-39.7c0,0-0.4-4.7,0.6-26.7c17-26,25.2-14.5,24.2,34.5C512.9,210.6,513.1,222.8,513.5,228.9"/>
	<path class="st26" d="M528.5,239.1c-2.8,0-3.3-1.2-4.2-3.8c-3.8-13.9-7.6-21.2-9.4-29.7l-9.2-56.5c16.2,2.2,28.2,6.2,35.3,12.1
		l-2.2,34.6c-0.5,6.8,1,10.2,6.9,36.7c1.4,5.5,0.2,6.8-4.6,6.7C535.4,239,531.3,239,528.5,239.1"/>
	<path class="st26" d="M496.9,146.3c6.2,5.6,14.4,8.9,23.1,9.2C516.7,133.3,509.1,130.3,496.9,146.3"/>
	<path class="st26" d="M497.5,81l-6,43.1c-2.2,13.2-4.3,26-6,38.4c0,0,1.4,0,4.1,0c4.3-2.3,11.6-9.9,21.8-22.7
		c-0.5,3.5,3.8,13.2,12.8,29.2c10.5-0.9,20-5.8,26-13.2c0,0-2.8-7.7-8.5-23.2c-0.9-4.5-7.6-7.4-20.2-8.4h18.1l4.3-32.9
		c1.8-2.8,4.1-5.9,6.3-9.3c-3.8-1.6-9.4-3.5-16.8-5.5l-4.7,10.6L497.5,81z"/>
	<polygon class="st3" points="509.2,78.7 493.7,80 495.6,76.3 511.2,74.9 	"/>
	<path class="st4" d="M469.4,93.6c0,0,4.8-3.9,16.9-10.2c22.1-9.2,16,0.8,10.6,14.1c-10,7-17.5,11.7-21.5,12
		C475.2,106.9,473.6,100.8,469.4,93.6"/>
	<path class="st3" d="M488.7,84.2c0,0,0,0.5-0.1,1.5c-6,3.1-9,4.6-9,4.6c-1.8-2.3-2.7-3.6-2.7-3.6c3-1.5,4.3-2.3,4.3-2.3
		S483.8,84.4,488.7,84.2"/>
	<path class="st3" d="M466.3,93.3c8.8-6.9,12-0.6,12.1,11.2c-0.1,3-1,4.8-2.3,5.5c-3.3,1.6-4.9,2.5-4.9,2.5
		c-2.5,1.2-4.3,1.3-5.5,0.6C465.5,112.9,465.5,106.5,466.3,93.3"/>
	<path class="st5" d="M459.1,116.6c-3,0.2-5.8-2.2-5.3-7.4l2.3-27l9.4-4c0.1,0.3,0.5,0.6,0.9,0.6h0.2l2.7,25
		C470.2,111.7,466.9,115.9,459.1,116.6"/>
	<path class="st6" d="M465,76.8c1.7,1.3,2.2,2.5,1.6,3.7c-1.8,2.6-4.3,3.5-7.4,2.6C459.3,83.2,461.1,81,465,76.8"/>
	<path class="st7" d="M526.8,76.3c0,0-2.2-2.8-1.8-18.5c-12.9,3.7-17.8,12.2-17.8,12.2c1.8,5.6,0.6,10,0.6,10
		c2.5,3,6.8,4.5,10.8,3.7C522.9,82.8,526.1,79.9,526.8,76.3"/>
	<path class="st3" d="M514.1,122.8h-1.7v-32h1.7V122.8z M526,70.6c2.2,1.4,3.5,2.5,5.8,3.9c-2,10.4-4.7,16-10.1,16.4
		c0,0-1.8-2.8-5.4-8.2C521,81.3,524.4,77.3,526,70.6z"/>
	<path class="st8" d="M495.3,58.4c1.5,13.1,3.1,20.8,5.1,23c0.9-0.1,1.6-0.7,2.1-1.5c-1.7-1.2-3.3-8.5-4.7-22.2
		C497.8,57.7,497,58,495.3,58.4"/>
	<path class="st9" d="M497.1,53.4c-1.7-1-4.7,0.1-8.8,3.2c1.1,0.9,4.6,2.2,10.4,3.7C498.6,60.3,498.1,58,497.1,53.4"/>
	<path class="st6" d="M522.6,69.2c1.6-4.5,1.8-5.4,0.2-9.9c0.4-4.1-1.1-8.1-3.9-11c-0.5,0.8-1.4,1.4-2.3,1.7
		c-0.5,0.1-0.9,0.3-1.4,0.5c-0.4,0.1-0.9,0.1-1.2,0.2h-0.7c-0.5,0-1,0.1-1.4,0.1h-0.1h-0.1c-0.5,0.1-0.9,0.2-1.4,0.2h0.2l-0.2,0.1
		c-0.4,0.1-0.7,0.2-1.1,0.2c-0.2,0-0.4,0.1-0.6,0.1c-0.4,0.1-0.7,0.1-1.1,0.2h0.2l-0.6,0.2c-0.4,0.1-0.9,0.2-1.2,0.2h-0.2h-0.1
		c-0.4,0.1-0.6,0.2-1,0.3s-0.9,0.2-1.2,0.2l-0.9,0.1l-1,0.1c-0.4,0-0.7,0-1.1,0h-0.7H499c-0.4,0.1-0.9,0.2-1.2,0.2
		c-0.7,0.2-1.4,0.2-2.1,0.1c-0.5,3.3,0,5.5,1.7,6.6c2.3,1.5,2.7,2.8,2.6,4.9c-0.1,2.4,0.4,4.3,1.6,5.5c3.9,4.3,5.2,6.3,5.9,8.2
		c0.7,2.1,6.2,1.6,10-1.8C519.4,74.9,521.4,72.2,522.6,69.2"/>
	<path class="st10" d="M511.8,38.6L511.8,38.6L511.8,38.6L511.8,38.6z M518.4,53.2c-2.8-0.7-4.2-1.7-3.6-3c0.5-1,0.4-2.2-0.2-3.1
		h0.6c0.2,0,0.5,0,0.6,0l0,0l0.6,0.1c0.2,0,0.5,0.1,0.6,0.1c0.2,0.1,0.5,0.1,0.7,0.1c0.1,0,0.2,0.1,0.4,0.1c0.5,0.2,1,0.5,1.5,0.6
		h0.1c0.6,0.3,1.4,0.5,2,0.5c0.4,0.1,0.7,0.2,1.1,0.3s0.6,0.2,1,0.2c0.4,3.5,0.2,7.6-0.2,12.4c-0.4,1.8-3.1-0.5-3.2-2.6
		C520.4,55.3,520.2,53.8,518.4,53.2z"/>
	<path class="st6" d="M526.4,59.9c-0.1,0.6-0.5,0.9-1,1.2c-0.5,0.2-1.1,0.1-1.6-0.2c-2.8-2.4-3.3-6.4-1.1-9.4c0.7-1,2.1-1.6,3.5-1.5
		c1.4,0.1,2.5,0.9,3.1,2.1c0.5,1.2,0.5,2.5-0.5,3.5C527.4,56.7,526.7,58.2,526.4,59.9"/>
	<path class="st11" d="M528.5,55.2c4.6,14.1,6,22.9,4.6,26.1c-1.1,0.2-2.3,0-3.5-0.6c1.8-2,0.2-10.2-4.7-25
		C525,55.7,526.1,55.4,528.5,55.2"/>
	<path class="st26" d="M511.5,54.6c0,0,2.3-0.3,6.9-1.2c0.7-0.8,5.3-0.1,14.1,2.2c0,0-0.4-2.4-1-7.4c-1.7-9.7-4.8-13.1-11.5-16.2
		s-14.7-2.6-20.8,1.3s-9.7,10.6-9.2,17.5c0.1,1.7-0.6,3.2-2,4.5C497.5,54.5,505.2,54.3,511.5,54.6"/>
	<path class="st13" d="M518.2,53.1c0,0,4.6,1,13.8,3.1c-1,1-1.6,1.4-2.5,1.3c-9.4-1.8-14.1-2.6-14.1-2.6S516.3,54.2,518.2,53.1"/>
	<path class="st14" d="M533.5,55.2c-4.3-1.2-8.5-2.2-12.8-3.1c-0.9-0.1-1.7-0.3-3.2,0.2c-9.5-1-19.1-0.7-28.7,1.2
		c-0.2,0-0.4,0.2-0.4,0.5s0.2,0.3,0.5,0.3c8.6-1.5,17.6-2,27-1.2c-2.6,1.2-2.1,0.6-7.9,0.7c-7.3,0-13.9,0.5-19.9,1.6
		c-0.6,0.3-0.7,1.2-0.4,1.7c5.1-1.2,11.8-1.7,20.3-1.5c6.2,0.1,5.5,0.6,9.6-1.3c0.6-0.3,1.4-0.5,2.5-0.2c7.8,1.3,12.2,2.5,12.2,2.5
		C533.1,56.4,533.5,56,533.5,55.2"/>
	<polygon class="st15" points="526.9,48.2 529.3,48.4 527.2,49.3 527.7,51.4 526.1,49.9 524.1,50.9 525.2,49.1 523.5,47.6 
		525.8,48.1 526.7,46 	"/>
	<rect x="460.1" y="70.3" class="st16" width="13.7" height="6.7"/>
	<path class="st17" d="M497.4,67.3c0.2,0,0.5,0.2,0.5,0.5v1.2h0.4c0.4,0,0.7,0.3,0.7,0.7v2.3c0,0.3-0.4,0.7-0.7,0.7h-11.5
		c-0.4,0-0.7-0.3-0.7-0.7v-2.3c0-0.3,0.4-0.7,0.7-0.7h8.3v-1.2c0-0.2,0.2-0.5,0.5-0.5H497.4"/>
	<path class="st18" d="M499.2,75.2c0,0,10.4,3.8,31.1,11.4c0.6,0.2,0.7,0.8,0.2,1.8c-2.6,6-3.9,9-3.9,9c-0.6,1.5-1.5,1.7-3.9,0.3
		c-18.6-10.9-27.9-16.4-27.9-16.4c-2.1-1.2-3.5-3.3-3.6-5.6C491.3,75.7,493.9,75.4,499.2,75.2"/>
	<path class="st19" d="M475,68.5c0.5,0,0.9,0.5,0.9,0.9V71c0,0.5-0.4,0.9-0.9,0.9h-1.1l0.9,6.8h24.4v1.8c0,1.5-0.6,1.6-3.1,1.5H493
		v4.3h-17.1l1.4,10.4c0.1,0.5-0.2,0.9-0.9,0.9h-5.2c-0.5,0-1-0.3-1-0.9l-3.3-24.7h-46.2l0,0h-6.4c-1,0-1.8-0.8-1.8-1.7
		c0-0.9,0.9-1.7,1.8-1.7h6.4h2v-3.9c0-0.5,0.4-0.8,0.7-0.8c0.5,0,0.7,0.3,0.7,0.8v3.9h3.1H475"/>
	<path class="st16" d="M501.2,70.3c1,0,1.8,0.8,1.8,1.7v6c0,0.9-0.9,1.7-1.8,1.7h-25.8c-1,0-1.8-0.8-1.8-1.7v-6
		c0-0.9,0.9-1.7,1.8-1.7H501.2"/>
	<path class="st20" d="M511.5,94.5c-29.3,17.4-47.2,18.5-69.7-16.4c0,0-2.5,0.2-5.1,0.2c24,37.7,44.9,38,76.2,17.8
		C513.1,96.2,512.9,95.6,511.5,94.5"/>
	<path class="st18" d="M464.4,71.7c0.5,0,0.9,0.3,0.9,0.8v6c0,0.5-0.4,0.8-0.9,0.8H429c-0.5,0-0.9-0.3-0.9-0.8v-6
		c0-0.5,0.4-0.8,0.9-0.8H464.4"/>
	<path class="st4" d="M559.1,107.2c0,0,1.2-7.4,3.7-22.2c0.6-3.9-3.8-7.2-8.1-8.1c-4.4-0.8-9.6,0.9-10.7,4.6
		c-4.1,11.5-6.2,17.1-6.2,17.1S544.8,101.6,559.1,107.2"/>
	<path class="st3" d="M540.4,94.7c1.8-4.1,3.1-3.7,6.5-3.1c5.7,1,10.8,3.6,14.9,7.4c2.3,2.2,3.6,4.5,0.6,8.3
		c-4.1,5.3-8.6,9.8-12.9,6.3C551.1,110.3,551.7,102.6,540.4,94.7"/>
	<path class="st21" d="M462.7,81.3c0,0,0.4-1.3,1-3.9c0.2-2-1.2-4.8-4.6-6.2c-3.8-1.7-8.6-1.6-9.5,1.2c-1.2,4.1-1.1,6.6,1.1,7.7
		C457.5,83.6,462.1,84.2,462.7,81.3"/>
	<polygon class="st3" points="548,79.5 532.9,77.1 537.1,74.1 552.2,76.5 	"/>
	<path class="st22" d="M536.8,120.1c1,0,1.7,0.8,1.6,1.7l-0.5,4.4c-0.1,0.9-1,1.7-2,1.7h-45.5c-1,0-1.7-0.8-1.6-1.7l0.5-4.4
		c0.1-0.9,1-1.7,2-1.7H536.8"/>
	<path class="st6" d="M502.3,93.4c0,0,2.6-0.5,7.9-1.4c0,0,0.7,0.5,2.2,1.5c0,0,16.4,10.7,30.3,19.4c7.3,4.4,9.5,3.6,12.8-0.1
		c3.3-3.8,3.8-10.7-0.7-12.8c-24.9-10.9-37.4-16.3-37.4-16.3c-6.4-2.6-11.6-4-11.6-4c-1.6-0.5-4.1-0.9-6.5-0.5c-6.5,1.6-8,2-9,2.3
		c-0.7,0.2-0.6,1.4-0.4,2.1c0.2,0.7,0.7,1.7,1.5,1.5c4.4-1,6.7-1.6,6.7-1.6c1.4-0.3,1.5,0,0.5,0.7c-2.5,1.6-4.2,2.2-2.7,4.6
		C498,92.4,499.9,93.9,502.3,93.4"/>
	<path class="st23" d="M507.6,258c0.5,0,0.9,0.3,0.9,0.8v2.2c0,0.5-0.4,0.8-0.9,0.8h-35.8c-0.5,0-0.9-0.3-0.9-0.8v-2.2
		c0-0.5,0.4-0.8,0.9-0.8H507.6"/>
	<path class="st24" d="M539.9,243.7c0.4,0,0.6,0.2,0.6,0.6l0,0c0,0.3-0.2,0.6-0.6,0.6l-9.1-0.3c-0.4,0-0.6-0.2-0.6-0.6l0,0
		c0-0.3,0.2-0.6,0.6-0.6L539.9,243.7"/>
	<path class="st24" d="M539.5,246.2c0.4,0,0.6,0.2,0.6,0.6l0,0c0,0.3-0.2,0.6-0.6,0.6L531,247c-0.4,0-0.6-0.2-0.6-0.6l0,0
		c0-0.3,0.2-0.6,0.6-0.6L539.5,246.2"/>
	<path class="st24" d="M539.1,248.5c0.4,0,0.6,0.2,0.6,0.6l0,0c0,0.3-0.2,0.6-0.6,0.6l-7.8-0.3c-0.4,0-0.6-0.2-0.6-0.6l0,0
		c0-0.3,0.2-0.6,0.6-0.6L539.1,248.5"/>
	<path class="st24" d="M538.7,250.6c0.4,0,0.6,0.2,0.6,0.6l0,0c0,0.3-0.2,0.6-0.6,0.6l-7-0.2c-0.4,0-0.6-0.2-0.6-0.6l0,0
		c0-0.3,0.2-0.6,0.6-0.6L538.7,250.6"/>
	<path class="st24" d="M538.3,252.9c0.4,0,0.6,0.2,0.6,0.6l0,0c0,0.3-0.2,0.6-0.6,0.6l-6.2-0.2c-0.4,0-0.6-0.2-0.6-0.6l0,0
		c0-0.3,0.2-0.6,0.6-0.6L538.3,252.9"/>
	<path class="st24" d="M538,255.1c0.4,0,0.6,0.2,0.6,0.6l0,0c0,0.3-0.2,0.6-0.6,0.6l-5.7-0.2c-0.4,0-0.6-0.2-0.6-0.6l0,0
		c0-0.3,0.2-0.6,0.6-0.6L538,255.1"/>
	<path class="st24" d="M537.7,257.2c0.4,0,0.6,0.2,0.6,0.6l0,0c0,0.3-0.2,0.6-0.6,0.6l-4.9-0.2c-0.4,0-0.6-0.2-0.6-0.6l0,0
		c0-0.3,0.2-0.6,0.6-0.6L537.7,257.2"/>
	<path class="st24" d="M537.2,259.4c0.4,0,0.6,0.2,0.6,0.6l0,0c0,0.3-0.2,0.6-0.6,0.6l-4.1-0.1c-0.4,0-0.6-0.2-0.6-0.6l0,0
		c0-0.3,0.2-0.6,0.6-0.6L537.2,259.4"/>
	<path class="st24" d="M536.9,261.7c0.4,0,0.6,0.2,0.6,0.6l0,0c0,0.3-0.2,0.6-0.6,0.6l-3.7-0.1c-0.4,0-0.6-0.2-0.6-0.6l0,0
		c0-0.3,0.2-0.6,0.6-0.6L536.9,261.7"/>
	<path class="st24" d="M498.7,235.2c0.4,0,0.6,0.3,0.6,0.6l0,0c0,0.3-0.2,0.6-0.6,0.5L495,236c-0.4,0-0.6-0.3-0.6-0.6l0,0
		c0-0.3,0.2-0.6,0.6-0.5L498.7,235.2"/>
	<path class="st24" d="M498.6,237.2c0.4,0,0.6,0.3,0.6,0.6l0,0c0,0.3-0.2,0.6-0.6,0.5l-3.7-0.2c-0.4,0-0.6-0.3-0.6-0.6l0,0
		c0-0.3,0.2-0.6,0.6-0.5L498.6,237.2"/>
	<path class="st24" d="M498.7,239.1c0.4,0,0.6,0.3,0.6,0.6l0,0c0,0.3-0.2,0.6-0.6,0.5l-3.7-0.2c-0.4,0-0.6-0.3-0.6-0.6l0,0
		c0-0.3,0.2-0.6,0.6-0.5L498.7,239.1"/>
	<path class="st24" d="M498.7,241.2c0.4,0,0.6,0.3,0.6,0.6l0,0c0,0.3-0.2,0.6-0.6,0.5L495,242c-0.4,0-0.6-0.3-0.6-0.6l0,0
		c0-0.3,0.2-0.6,0.6-0.5L498.7,241.2"/>
	<path class="st24" d="M498.7,243.3c0.4,0,0.6,0.3,0.6,0.6l0,0c0,0.3-0.2,0.6-0.6,0.5l-3.7-0.2c-0.4,0-0.6-0.3-0.6-0.6l0,0
		c0-0.3,0.2-0.6,0.6-0.5L498.7,243.3"/>
	<path class="st24" d="M498.6,245.3c0.4,0,0.6,0.3,0.6,0.6l0,0c0,0.3-0.2,0.6-0.6,0.5l-3.7-0.2c-0.4,0-0.6-0.3-0.6-0.6l0,0
		c0-0.3,0.2-0.6,0.6-0.5L498.6,245.3"/>
	<path class="st24" d="M497.1,248.8c0.2,0.2,0.2,0.6,0,0.8l0,0c-0.2,0.2-0.6,0.2-0.9,0l-2.6-2.4c-0.2-0.2-0.2-0.6,0-0.8l0,0
		c0.2-0.2,0.6-0.2,0.9,0L497.1,248.8"/>
	<path class="st24" d="M494.9,249.8c0.2,0.2,0.2,0.6,0,0.8l0,0c-0.2,0.2-0.6,0.2-0.9,0l-2.6-2.4c-0.2-0.2-0.2-0.6,0-0.8l0,0
		c0.2-0.2,0.6-0.2,0.9,0L494.9,249.8"/>
	<path class="st24" d="M493,251c0.2,0.2,0.2,0.6,0,0.8l0,0c-0.2,0.2-0.6,0.2-0.9,0l-2.6-2.4c-0.2-0.2-0.2-0.6,0-0.8l0,0
		c0.2-0.2,0.6-0.2,0.9,0L493,251"/>
	<path class="st24" d="M490.8,252.4c0.2,0.2,0.2,0.6,0,0.8l0,0c-0.2,0.2-0.6,0.2-0.9,0l-2.6-2.4c-0.2-0.2-0.2-0.6,0-0.8l0,0
		c0.2-0.2,0.6-0.2,0.9,0L490.8,252.4"/>
	<g>
		<path class="st0" d="M546,288.7c-0.9-2.3-1.8-4.6-3.1-6.8c-3,0.5-4.4,0.7-4.4,0.7c-2.7,0.9-4.3,3.5-3.9,6.2
			C534.6,288.7,538.4,288.7,546,288.7"/>
		<path class="st1" d="M571.4,288.7c2.6-18.2,3.6-28.2,3.6-28.2c-11.6,0.1-17.4,0.2-17.4,0.2c1,9.9,1.4,14.7,1.4,14.7
			c-6.4,3.6-9.7,5.4-9.7,5.4c-5.2,0.8-7.8,1.3-7.8,1.3c0.6,5.1,1,7.6,1,7.6S552.3,289.9,571.4,288.7"/>
		<path class="st2" d="M569.3,288.8c0,0,1.2-8.9,3.8-26.6c0,0-1.6-0.3-4.8-1c-2.8,18.6-4.3,28-4.3,28S565.8,289,569.3,288.8"/>
		<path class="st1" d="M607.4,301.7c0,0-0.6-5.3-1.7-16c0,0,0.6-6.3,1.7-19.1c-10.8,0.7-16.3,1-16.3,1c0.7,12.1,1.1,18.2,1.1,18.2
			c-1.5,9.5-2.2,14.4-2.2,14.4C591.9,301.6,597.7,302,607.4,301.7"/>
		<path class="st2" d="M600.8,293.5c0,0,0.9-8.6,2.6-26c-5.5-0.3-8.4-0.1-8.8,0.7c1,16.4,1.5,24.7,1.5,24.7
			C597.6,293.9,599.3,294.1,600.8,293.5"/>
		<path class="st27" d="M576.7,258.7c0.1,3.8-1.5,4-5.2,4c0,0-4.1-0.1-12.1-0.5c-2.6-0.1-3.2-1.5-3.9-8.3
			c-2.5-22.4-3.9-35.7-4.3-39.7c0,0-0.4-4.7,0.6-26.7c17-26,25.2-14.5,24.2,34.5C576.1,240.4,576.4,252.6,576.7,258.7"/>
		<path class="st27" d="M591.8,268.9c-2.8,0-3.3-1.2-4.2-3.8c-3.8-13.9-7.6-21.2-9.4-29.7l-9.2-56.5c16.2,2.2,28.2,6.2,35.3,12.1
			l-2.2,34.6c-0.5,6.8,1,10.2,6.9,36.7c1.4,5.5,0.2,6.8-4.6,6.7C598.7,268.9,594.5,268.8,591.8,268.9"/>
		<path class="st27" d="M560.1,176.1c6.2,5.6,14.4,8.9,23.1,9.2C579.9,163.2,572.3,160.1,560.1,176.1"/>
		<path class="st27" d="M558.9,109.5l-6,43.1c-2.2,13.2-4.3,26-6,38.4c0,0,1.4,0,4.1,0c4.3-2.3,11.6-9.9,21.8-22.7
			c-0.5,3.5,3.8,13.2,12.8,29.2c10.5-0.9,20-5.8,26-13.2c0,0-2.8-7.7-8.5-23.2c-0.9-4.5-7.6-7.4-20.2-8.4h18.1l4.3-32.9
			c1.8-2.8,4.1-5.9,6.3-9.3c-3.8-1.6-9.4-3.5-16.8-5.5l-4.7,10.6L558.9,109.5z"/>
		<polygon class="st3" points="572.4,108.4 556.8,109.9 558.7,106 574.4,104.6 		"/>
		<path class="st4" d="M532.6,123.4c0,0,4.8-3.9,16.9-10.2c22.1-9.2,16,0.8,10.6,14.1c-10,7-17.5,11.7-21.5,12
			C538.4,136.6,536.7,130.5,532.6,123.4"/>
		<path class="st3" d="M552,113.9c0,0,0,0.5-0.1,1.5c-6,3.1-9,4.6-9,4.6c-1.8-2.3-2.7-3.6-2.7-3.6c3-1.5,4.3-2.3,4.3-2.3
			S546.9,114.2,552,113.9"/>
		<path class="st3" d="M529.5,123c8.8-6.9,12-0.6,12.1,11.2c-0.1,3-1,4.8-2.3,5.5c-3.3,1.6-4.9,2.5-4.9,2.5
			c-2.5,1.2-4.3,1.3-5.5,0.6C528.8,142.8,528.8,136.3,529.5,123"/>
		<path class="st5" d="M522.2,146.4c-3,0.2-5.8-2.2-5.3-7.4l2.3-27l9.4-4c0.1,0.3,0.5,0.6,0.9,0.6h0.2l2.7,25
			C533.5,141.4,530,145.8,522.2,146.4"/>
		<path class="st6" d="M528.3,106.6c1.7,1.3,2.2,2.5,1.6,3.7c-1.8,2.6-4.3,3.5-7.4,2.6C522.4,112.9,524.3,110.8,528.3,106.6"/>
		<path class="st7" d="M590.1,106c0,0-2.2-2.8-1.8-18.5c-12.9,3.7-17.8,12.2-17.8,12.2c1.8,5.6,0.6,10,0.6,10
			c2.5,3,6.8,4.5,10.8,3.7C586.1,112.6,589.3,109.7,590.1,106"/>
		<path class="st3" d="M577.4,152.6h-1.7v-32h1.7V152.6z M589.2,100.5c2.2,1.4,3.5,2.5,5.8,3.9c-2,10.4-4.7,16-10.1,16.4
			c0,0-1.8-2.8-5.4-8.2C584.3,111.1,587.5,107,589.2,100.5z"/>
		<path class="st8" d="M558.5,88.2c1.5,13.1,3.1,20.8,5.1,23c0.9-0.1,1.6-0.7,2.1-1.5c-1.7-1.2-3.3-8.5-4.7-22.2
			C561,87.5,560.2,87.7,558.5,88.2"/>
		<path class="st9" d="M560.3,83.2c-1.7-1-4.7,0.1-8.8,3.2c1.1,0.9,4.6,2.2,10.4,3.7C561.8,90.1,561.3,87.8,560.3,83.2"/>
		<path class="st6" d="M585.9,99c1.6-4.5,1.8-5.4,0.2-9.9c0.4-4.1-1.1-8.1-3.9-11c-0.5,0.8-1.4,1.4-2.3,1.7
			c-0.5,0.1-0.9,0.3-1.4,0.5c-0.4,0.1-0.9,0.1-1.2,0.2h-0.7c-0.5,0-1,0.1-1.4,0.1H575h-0.1c-0.5,0.1-0.9,0.2-1.4,0.2h0.2l-0.2,0.1
			c-0.4,0.1-0.7,0.2-1.1,0.2c-0.2,0-0.4,0.1-0.6,0.1c-0.4,0.1-0.7,0.1-1.1,0.2h0.2l-0.6,0.2c-0.4,0.1-0.9,0.2-1.2,0.2h-0.2h-0.1
			c-0.4,0.1-0.6,0.2-1,0.3s-0.9,0.2-1.2,0.2l-0.9,0.1l-1,0.1c-0.4,0-0.7,0-1.1,0h-0.7h-0.6c-0.4,0.1-0.9,0.2-1.2,0.2
			c-0.7,0.2-1.4,0.2-2.1,0.1c-0.5,3.3,0,5.5,1.7,6.6c2.3,1.5,2.7,2.8,2.6,4.9c-0.1,2.4,0.4,4.3,1.6,5.5c3.9,4.3,5.2,6.3,5.9,8.2
			c0.7,2.1,6.2,1.6,10-1.8C582.5,104.6,584.6,102.1,585.9,99"/>
		<path class="st10" d="M575,68.4L575,68.4L575,68.4L575,68.4z M581.6,83.1c-2.8-0.8-4.1-1.7-3.6-3.1c0.5-1,0.4-2.2-0.2-3.1h0.6
			c0.2,0,0.5,0,0.6,0l0,0l0.6,0.1c0.2,0,0.5,0.1,0.6,0.1c0.2,0.1,0.5,0.1,0.7,0.1c0.1,0,0.2,0.1,0.4,0.1c0.5,0.2,1,0.5,1.5,0.6h0.1
			c0.6,0.3,1.4,0.5,2,0.5c0.4,0.1,0.7,0.2,1.1,0.3c0.4,0.1,0.6,0.2,1,0.2c0.4,3.5,0.2,7.6-0.2,12.4c-0.4,1.8-3.1-0.5-3.2-2.6
			C583.6,85.1,583.4,83.6,581.6,83.1z"/>
		<path class="st6" d="M589.7,89.7c-0.1,0.6-0.5,0.9-1,1.2s-1.1,0.1-1.6-0.2c-2.8-2.4-3.3-6.4-1.1-9.4c0.7-1,2.1-1.6,3.5-1.5
			c1.4,0.1,2.5,0.9,3.1,2.1c0.6,1.2,0.5,2.5-0.5,3.5C590.7,86.5,589.9,88,589.7,89.7"/>
		<path class="st11" d="M591.8,85c4.6,14.1,6,22.9,4.6,26.1c-1.1,0.2-2.3,0-3.5-0.6c1.8-2,0.2-10.2-4.7-25
			C588.2,85.4,589.3,85.3,591.8,85"/>
		<path class="st27" d="M574.8,84.4c0,0,2.3-0.3,6.9-1.2c0.7-0.8,5.3-0.1,14.1,2.2c0,0-0.4-2.4-1-7.4c-1.7-9.5-4.8-13-11.6-16.1
			c-6.8-3.1-14.7-2.6-20.8,1.3c-6.2,3.9-9.7,10.6-9.2,17.5c0.1,1.7-0.6,3.2-2,4.5C560.7,84.3,568.5,84,574.8,84.4"/>
		<path class="st13" d="M581.4,82.9c0,0,4.6,1,13.8,3.1c-1,1-1.6,1.4-2.5,1.3c-9.4-1.8-14.1-2.8-14.1-2.8S579.6,83.9,581.4,82.9"/>
		<path class="st14" d="M596.7,85c-4.2-1.2-8.5-2.2-12.8-3.1c-0.9-0.1-1.7-0.3-3.2,0.2c-9.5-1-19.1-0.7-28.7,1.2
			c-0.2,0-0.4,0.2-0.4,0.5s0.2,0.3,0.5,0.3c8.6-1.5,17.6-2,27-1.2c-2.6,1.2-2.1,0.6-7.9,0.7c-7.3,0-13.9,0.5-19.9,1.6
			c-0.6,0.3-0.7,1.2-0.4,1.7c5.1-1.2,11.8-1.7,20.3-1.5c6.2,0.1,5.5,0.6,9.6-1.3c0.6-0.3,1.4-0.5,2.5-0.2c7.8,1.3,12.2,2.5,12.2,2.5
			C596.2,86.2,596.6,85.8,596.7,85"/>
		<polygon class="st15" points="590.8,76.3 593,76.6 590.9,77.5 591.4,79.6 589.8,78.1 587.8,79.1 588.9,77.3 587.2,75.8 
			589.6,76.2 590.4,74.1 		"/>
		<rect x="523.4" y="100" class="st16" width="13.7" height="6.7"/>
		<path class="st17" d="M560.6,97c0.2,0,0.5,0.2,0.5,0.5v1.2h0.4c0.4,0,0.7,0.3,0.7,0.7v2.3c0,0.3-0.4,0.7-0.7,0.7H550
			c-0.4,0-0.7-0.3-0.7-0.7v-2.3c0-0.3,0.4-0.7,0.7-0.7h8.3v-1.2c0-0.2,0.2-0.5,0.5-0.5H560.6"/>
		<path class="st18" d="M562.4,105c0,0,10.4,3.8,31.1,11.4c0.6,0.2,0.7,0.8,0.2,1.8c-2.6,6-3.9,9-3.9,9c-0.6,1.5-1.5,1.7-3.9,0.3
			c-18.5-10.9-27.7-16.4-27.7-16.4c-2.1-1.2-3.5-3.3-3.6-5.6C554.6,105.4,557.1,105.3,562.4,105"/>
		<path class="st19" d="M538.3,98.4c0.5,0,0.9,0.5,0.9,0.9v1.5c0,0.5-0.4,0.9-0.9,0.9h-1.1l0.9,6.8h24.4v1.8c0,1.5-0.6,1.6-3.1,1.5
			h-3.1v4.3H539l1.4,10.4c0.1,0.5-0.2,0.9-0.9,0.9h-5.2c-0.5,0-1-0.3-1-0.9l-3.3-24.8h-46.2l0,0h-6.4c-1,0-1.8-0.8-1.8-1.7
			c0.1-0.8,0.9-1.5,1.8-1.5h6.4h2v-3.9c0-0.5,0.4-0.8,0.7-0.8c0.5,0,0.7,0.3,0.7,0.8v3.9h3.1H538.3"/>
		<path class="st16" d="M564.4,100.1c1,0,1.8,0.8,1.8,1.7v6c0,0.9-0.9,1.7-1.8,1.7h-25.8c-1,0-1.8-0.8-1.8-1.7v-6
			c0-0.9,0.9-1.7,1.8-1.7H564.4"/>
		<path class="st20" d="M574.8,124.3c-29.3,17.5-47.2,18.6-69.7-16.4c0,0-2.5,0.2-5.1,0.2c24,37.7,44.9,38,76.2,17.8
			C576.4,126,576.1,125.3,574.8,124.3"/>
		<path class="st18" d="M527.6,101.5c0.5,0,0.9,0.3,0.9,0.8v6c0,0.5-0.4,0.8-0.9,0.8h-35.4c-0.5,0-0.9-0.3-0.9-0.8v-6
			c0-0.5,0.4-0.8,0.9-0.8H527.6"/>
		<path class="st4" d="M615.8,137.2c0,0,1.2-7.4,3.7-22.2c0.6-3.9-3.8-7.2-8.1-8.1c-4.4-0.8-9.6,0.9-10.7,4.6
			c-4.1,11.5-6.2,17.1-6.2,17.1S601.5,131.7,615.8,137.2"/>
		<path class="st3" d="M592.5,128.6c1.8-4.1,3.1-3.7,6.5-3.1c5.7,1,10.8,3.6,14.9,7.4c2.3,2.2,3.6,4.5,0.6,8.3
			c-4.1,5.3-8.6,9.8-12.9,6.3C603.4,144.3,603.9,136.6,592.5,128.6"/>
		<path class="st21" d="M525.9,111.1c0,0,0.4-1.3,1-3.9c0.2-2-1.2-4.8-4.6-6.2c-3.8-1.7-8.6-1.6-9.5,1.2c-1.2,4.1-1.1,6.6,1.1,7.7
			C520.8,113.4,525.2,113.9,525.9,111.1"/>
		<polygon class="st3" points="611.3,109.3 596.1,106.9 600.3,103.8 615.5,106.2 		"/>
		<path class="st22" d="M599.9,149.8c1,0,1.7,0.8,1.6,1.7l-0.5,4.4c-0.1,0.9-1,1.7-2,1.7h-45.4c-1,0-1.7-0.8-1.6-1.7l0.5-4.4
			c0.1-0.9,1-1.7,2-1.7H599.9"/>
		<path class="st6" d="M554.4,125.7c0,0,2.6-0.5,7.9-1.4c0,0,0.7,0.5,2.2,1.5c0,0,16.4,10.7,30.3,19.4c7.3,4.4,9.5,3.6,12.8-0.1
			c3.3-3.8,3.8-10.7-0.7-12.8c-24.8-10.9-37.2-16.3-37.2-16.3c-6.4-2.6-11.6-4-11.6-4c-1.6-0.5-4.1-0.9-6.5-0.5c-6.5,1.6-8,2-9,2.3
			c-0.7,0.2-0.6,1.4-0.4,2.1c0.2,0.7,0.7,1.7,1.5,1.5c4.4-1,6.7-1.6,6.7-1.6c1.4-0.3,1.5,0,0.5,0.7c-2.5,1.6-4.2,2.2-2.7,4.6
			C550.2,124.8,552.1,126.3,554.4,125.7"/>
		<path class="st23" d="M570.8,287.9c0.5,0,0.9,0.3,0.9,0.8v2.2c0,0.5-0.4,0.8-0.9,0.8h-35.8c-0.5,0-0.9-0.3-0.9-0.8v-2.2
			c0-0.5,0.4-0.8,0.9-0.8H570.8"/>
		<path class="st24" d="M603.1,273.5c0.4,0,0.6,0.2,0.6,0.6l0,0c0,0.3-0.2,0.6-0.6,0.6l-9.1-0.3c-0.4,0-0.6-0.2-0.6-0.6l0,0
			c0-0.3,0.2-0.6,0.6-0.6L603.1,273.5"/>
		<path class="st24" d="M602.8,275.9c0.4,0,0.6,0.2,0.6,0.6l0,0c0,0.3-0.2,0.6-0.6,0.6l-8.5-0.3c-0.4,0-0.6-0.2-0.6-0.6l0,0
			c0-0.3,0.2-0.6,0.6-0.6L602.8,275.9"/>
		<path class="st24" d="M602.4,278.2c0.4,0,0.6,0.2,0.6,0.6l0,0c0,0.3-0.2,0.6-0.6,0.6l-7.8-0.3c-0.4,0-0.6-0.2-0.6-0.6l0,0
			c0-0.3,0.2-0.6,0.6-0.6L602.4,278.2"/>
		<path class="st24" d="M601.9,280.5c0.4,0,0.6,0.2,0.6,0.6l0,0c0,0.3-0.2,0.6-0.6,0.6l-7-0.2c-0.4,0-0.6-0.2-0.6-0.6l0,0
			c0-0.3,0.2-0.6,0.6-0.6L601.9,280.5"/>
		<path class="st24" d="M601.5,282.7c0.4,0,0.6,0.2,0.6,0.6l0,0c0,0.3-0.2,0.6-0.6,0.6l-6.2-0.2c-0.4,0-0.6-0.2-0.6-0.6l0,0
			c0-0.3,0.2-0.6,0.6-0.6L601.5,282.7"/>
		<path class="st24" d="M601.3,284.9c0.4,0,0.6,0.2,0.6,0.6l0,0c0,0.3-0.2,0.6-0.6,0.6l-5.7-0.2c-0.4,0-0.6-0.2-0.6-0.6l0,0
			c0-0.3,0.2-0.6,0.6-0.6L601.3,284.9"/>
		<path class="st24" d="M600.8,287.1c0.4,0,0.6,0.2,0.6,0.6l0,0c0,0.3-0.2,0.6-0.6,0.6l-4.9-0.2c-0.4,0-0.6-0.2-0.6-0.6l0,0
			c0-0.3,0.2-0.6,0.6-0.6L600.8,287.1"/>
		<path class="st24" d="M600.4,289.1c0.4,0,0.6,0.2,0.6,0.6l0,0c0,0.3-0.2,0.6-0.6,0.6l-4.1-0.1c-0.4,0-0.6-0.2-0.6-0.6l0,0
			c0-0.3,0.2-0.6,0.6-0.6L600.4,289.1"/>
		<path class="st24" d="M600.2,291.4c0.4,0,0.6,0.2,0.6,0.6l0,0c0,0.3-0.2,0.6-0.6,0.6l-3.7-0.1c-0.4,0-0.6-0.2-0.6-0.6l0,0
			c0-0.3,0.2-0.6,0.6-0.6L600.2,291.4"/>
		<path class="st24" d="M561.8,265c0.4,0,0.6,0.3,0.6,0.6l0,0c0,0.3-0.2,0.6-0.6,0.5l-3.7-0.2c-0.4,0-0.6-0.3-0.6-0.6l0,0
			c0-0.3,0.2-0.6,0.6-0.5L561.8,265"/>
		<path class="st24" d="M561.8,267.1c0.4,0,0.6,0.3,0.6,0.6l0,0c0,0.3-0.2,0.6-0.6,0.5l-3.7-0.2c-0.4,0-0.6-0.3-0.6-0.6l0,0
			c0-0.3,0.2-0.6,0.6-0.5L561.8,267.1"/>
		<path class="st24" d="M561.9,269c0.4,0,0.6,0.3,0.6,0.6l0,0c0,0.3-0.2,0.6-0.6,0.5l-3.7-0.2c-0.4,0-0.6-0.3-0.6-0.6l0,0
			c0-0.3,0.2-0.6,0.6-0.5L561.9,269"/>
		<path class="st24" d="M561.8,271.1c0.4,0,0.6,0.3,0.6,0.6l0,0c0,0.3-0.2,0.6-0.6,0.5l-3.7-0.2c-0.4,0-0.6-0.3-0.6-0.6l0,0
			c0-0.3,0.2-0.6,0.6-0.5L561.8,271.1"/>
		<path class="st24" d="M561.9,273.1c0.4,0,0.6,0.3,0.6,0.6l0,0c0,0.3-0.2,0.6-0.6,0.5l-3.7-0.2c-0.4,0-0.6-0.3-0.6-0.6l0,0
			c0-0.3,0.2-0.6,0.6-0.5L561.9,273.1"/>
		<path class="st24" d="M561.8,275.1c0.4,0,0.6,0.3,0.6,0.6l0,0c0,0.3-0.2,0.6-0.6,0.5l-3.7-0.2c-0.4,0-0.6-0.3-0.6-0.6l0,0
			c0-0.3,0.2-0.6,0.6-0.5L561.8,275.1"/>
		<path class="st24" d="M560.3,278.7c0.2,0.2,0.2,0.6,0,0.8l0,0c-0.2,0.2-0.6,0.2-0.9,0l-2.6-2.4c-0.2-0.2-0.2-0.6,0-0.8l0,0
			c0.2-0.2,0.6-0.2,0.9,0L560.3,278.7"/>
		<path class="st24" d="M558.1,279.6c0.2,0.2,0.2,0.6,0,0.8l0,0c-0.2,0.2-0.6,0.2-0.9,0l-2.6-2.4c-0.2-0.2-0.2-0.6,0-0.8l0,0
			c0.2-0.2,0.6-0.2,0.9,0L558.1,279.6"/>
		<path class="st24" d="M556.2,280.7c0.2,0.2,0.2,0.6,0,0.8l0,0c-0.2,0.2-0.6,0.2-0.9,0l-2.6-2.4c-0.2-0.2-0.2-0.6,0-0.8l0,0
			c0.2-0.2,0.6-0.2,0.9,0L556.2,280.7"/>
		<path class="st24" d="M554.1,282.1c0.2,0.2,0.2,0.6,0,0.8l0,0c-0.2,0.2-0.6,0.2-0.9,0l-2.6-2.4c-0.2-0.2-0.2-0.6,0-0.8l0,0
			c0.2-0.2,0.6-0.2,0.9,0L554.1,282.1"/>
	</g>
	<path class="st0" d="M465.4,326.4c-0.9-2.4-2-4.7-3.2-7c-3.1,0.5-4.7,0.7-4.7,0.7c-2.8,0.9-4.6,3.6-4.1,6.3
		C453.5,326.6,457.4,326.6,465.4,326.4"/>
	<path class="st1" d="M491.7,326.6c2.7-18.9,3.7-29.2,3.7-29.2c-12.1,0.1-18,0.2-18,0.2c1,10.2,1.5,15.3,1.5,15.3
		c-6.7,3.7-10.1,5.6-10.1,5.6c-5.4,0.8-8.1,1.3-8.1,1.3c0.6,5.3,1,7.8,1,7.8S472,327.8,491.7,326.6"/>
	<path class="st2" d="M489.5,326.7c0,0,1.4-9.2,3.9-27.6c0,0-1.6-0.3-4.9-1c-3,19.3-4.4,28.9-4.4,28.9S485.9,326.9,489.5,326.7"/>
	<path class="st1" d="M529,340c0,0-0.6-5.5-1.7-16.6c0,0,0.6-6.6,1.8-19.8c-11.2,0.7-16.8,1-16.8,1c0.7,12.5,1.1,18.7,1.1,18.7
		c-1.5,9.9-2.2,15-2.2,15C513,339.8,518.9,340.4,529,340"/>
	<path class="st2" d="M522.1,331.6c0,0,0.9-9,2.7-26.9c-5.7-0.3-8.8-0.1-9,0.8c1,17,1.5,25.7,1.5,25.7
		C518.8,331.8,520.5,332.1,522.1,331.6"/>
	<path class="st28" d="M497.2,295.4c0.1,3.9-1.6,4.3-5.4,4.3c0,0-4.2-0.1-12.6-0.5c-2.7-0.1-3.2-1.5-4.1-8.6
		c-2.6-23.2-4.1-37-4.4-41.2c0,0-0.4-4.8,0.6-27.7c17.8-26.9,26-15,25,35.8C496.5,276.4,496.7,289.1,497.2,295.4"/>
	<path class="st28" d="M512.8,306c-3,0-3.5-1.2-4.4-3.9c-3.9-14.4-7.9-22-9.7-30.8l-9.6-58.5c16.6,2.3,29.2,6.4,36.5,12.4l-2.3,35.9
		c-0.5,7,1,10.7,7.2,38.1c1.4,5.6,0.2,7-4.8,6.9C519.9,306,515.6,306,512.8,306"/>
	<path class="st28" d="M480,209.8c6.4,5.9,14.9,9.2,23.8,9.5C500.4,196.3,492.5,193.1,480,209.8"/>
	<path class="st28" d="M478.6,140.6l-6.2,44.7c-2.3,13.7-4.4,26.9-6.3,39.8c0,0,1.4,0,4.2,0c4.6-2.4,12.1-10.2,22.6-23.6
		c-0.5,3.6,3.9,13.7,13.3,30.4c10.8-0.9,20.7-6,27-13.7c0,0-3-8.1-8.9-24.2c-1-4.7-7.9-7.6-21-8.7h18.9l4.4-34
		c2-2.9,4.2-6.1,6.5-9.7c-3.9-1.6-9.7-3.6-17.4-5.6l-4.8,10.9L478.6,140.6z"/>
	<polygon class="st3" points="492.7,139.6 476.5,141.1 478.6,137.1 494.8,135.6 	"/>
	<path class="st4" d="M451.4,155c0,0,5.1-4.1,17.5-10.6c22.8-9.5,16.6,0.8,11,14.6c-10.4,7.2-18.1,12.2-22.3,12.4
		C457.4,168.9,455.7,162.5,451.4,155"/>
	<path class="st3" d="M471.5,145.4c0,0,0,0.6-0.1,1.6c-6.2,3.2-9.4,4.7-9.4,4.7c-2-2.4-2.8-3.7-2.8-3.7c3-1.6,4.6-2.3,4.6-2.3
		S466.3,145.6,471.5,145.4"/>
	<path class="st3" d="M448.2,154.7c9.1-7.1,12.5-0.6,12.6,11.6c-0.1,3.1-1.1,5.1-2.3,5.8c-3.5,1.7-5.2,2.6-5.2,2.6
		c-2.6,1.2-4.4,1.4-5.8,0.6C447.4,175.2,447.5,168.5,448.2,154.7"/>
	<path class="st5" d="M440.8,179c-3.1,0.2-6-2.3-5.5-7.7l2.5-28.1l9.7-4.1c0.1,0.3,0.5,0.6,0.9,0.6h0.2l2.8,25.9
		C452.3,173.9,448.8,178.3,440.8,179"/>
	<path class="st6" d="M446.9,137.7c1.7,1.4,2.3,2.6,1.6,3.8c-1.8,2.6-4.4,3.6-7.6,2.6C440.9,144.2,442.9,142,446.9,137.7"/>
	<path class="st7" d="M511,137.1c0,0-2.3-2.9-2-19.2c-13.4,3.8-18.4,12.7-18.4,12.7c2,5.9,0.6,10.4,0.6,10.4c2.6,3.1,7,4.6,11.2,3.8
		C506.8,143.9,510.2,140.9,511,137.1"/>
	<path class="st3" d="M497.8,185.4h-2v-33.1h1.8v33.1H497.8z M510.1,131.4c2.3,1.5,3.6,2.6,5.9,4c-2.1,10.7-4.8,16.7-10.5,17
		c0,0-1.8-2.9-5.5-8.5C505,142.4,508.3,138.1,510.1,131.4z"/>
	<path class="st8" d="M478.2,118.6c1.5,13.7,3.2,21.6,5.3,23.9c0.9-0.2,1.6-0.7,2.1-1.6c-1.8-1.2-3.5-8.9-4.8-23
		C480.8,117.9,480,118.1,478.2,118.6"/>
	<path class="st9" d="M480.1,113.4c-1.7-1-4.8,0.1-9.1,3.3c1.2,0.9,4.8,2.2,10.7,3.8C481.7,120.5,481.2,118.2,480.1,113.4"/>
	<path class="st6" d="M506.6,129.7c1.6-4.7,2-5.6,0.2-10.2c0.4-4.3-1.1-8.4-4.1-11.5c-0.5,0.8-1.4,1.5-2.5,1.8
		c-0.5,0.1-1,0.3-1.5,0.5c-0.4,0.1-0.9,0.1-1.2,0.2h-0.7c-0.5,0-1,0.1-1.5,0.1h-0.1h-0.1c-0.5,0.1-1,0.2-1.5,0.2h0.2l-0.2,0.1
		c-0.4,0.1-0.7,0.2-1.1,0.2c-0.2,0.1-0.5,0.1-0.6,0.1c-0.4,0.1-0.7,0.2-1.1,0.2h0.2l-0.6,0.2c-0.4,0.1-0.9,0.2-1.2,0.2H489h-0.1
		c-0.4,0.1-0.7,0.2-1.1,0.3c-0.4,0.1-0.9,0.2-1.4,0.2l-0.9,0.1l-1,0.1c-0.4,0-0.7,0-1.1,0.1h-0.7h-0.6c-0.4,0.1-0.9,0.2-1.2,0.2
		c-0.7,0.2-1.5,0.2-2.1,0.1c-0.5,3.5,0.1,5.8,1.7,6.8c2.3,1.5,2.8,2.9,2.6,5.2c-0.1,2.5,0.5,4.4,1.6,5.8c4.1,4.4,5.4,6.6,6,8.5
		c0.9,2.2,6.3,1.7,10.4-1.8C503.3,135.6,505.4,133,506.6,129.7"/>
	<path class="st10" d="M495.4,98.1L495.4,98.1L495.4,98.1L495.4,98.1z M502.3,113.3c-3-0.7-4.3-1.7-3.8-3.1c0.5-1.2,0.4-2.3-0.2-3.2
		h0.6c0.2,0,0.5,0,0.7,0l0,0l0.6,0.1c0.2,0,0.5,0.1,0.6,0.1c0.2,0.1,0.5,0.1,0.7,0.1c0.1,0,0.2,0.1,0.4,0.1c0.5,0.2,1,0.5,1.5,0.6
		h0.1c0.6,0.3,1.4,0.5,2.1,0.5c0.4,0.1,0.7,0.2,1.1,0.3c0.4,0.1,0.7,0.2,1,0.3c0.4,3.6,0.2,7.8-0.2,12.9c-0.4,2-3.2-0.5-3.3-2.8
		C504.3,115.4,504,113.9,502.3,113.3z"/>
	<path class="st6" d="M510.7,120.2c-0.1,0.6-0.5,1-1,1.2c-0.5,0.2-1.1,0.1-1.6-0.2c-3-2.5-3.5-6.7-1.2-9.8c0.7-1,2.1-1.7,3.6-1.6
		c1.4,0.1,2.6,0.9,3.2,2.2c0.5,1.2,0.5,2.6-0.5,3.6C511.7,116.9,510.9,118.4,510.7,120.2"/>
	<path class="st11" d="M512.8,115.2c4.7,14.7,6.3,23.7,4.7,27c-1.2,0.2-2.5,0-3.6-0.7c1.8-2.1,0.2-10.7-4.9-25.9
		C509.1,115.7,510.3,115.6,512.8,115.2"/>
	<path class="st28" d="M495.1,114.7c0,0,2.3-0.3,7.2-1.2c0.7-0.8,5.5-0.1,14.5,2.3c0,0-0.4-2.5-1.1-7.6
		c-1.7-10.1-4.9-13.7-11.8-16.9c-6.9-3.2-15.2-2.8-21.6,1.3c-6.4,4-10.1,10.9-9.5,18.2c0.1,1.8-0.6,3.3-2,4.6
		C480.5,114.6,488.6,114.3,495.1,114.7"/>
	<path class="st13" d="M502,113.2c0,0,4.8,1,14.4,3.2c-1,1-1.7,1.5-2.6,1.3c-9.7-1.8-14.5-2.8-14.5-2.8S500.2,114.2,502,113.2"/>
	<path class="st14" d="M517.8,115.2c-4.4-1.3-8.9-2.3-13.3-3.2c-0.9-0.2-1.7-0.3-3.3,0.2c-9.9-1-19.7-0.7-29.8,1.2
		c-0.2,0-0.4,0.2-0.4,0.5c0,0.2,0.2,0.5,0.5,0.5c9-1.6,18.2-2,28-1.2c-2.6,1.2-2.1,0.7-8.1,0.7c-7.5,0-14.4,0.5-20.5,1.6
		c-0.6,0.3-0.9,1.2-0.4,1.8c5.3-1.3,12.3-1.7,21.1-1.6c6.4,0.1,5.8,0.6,10-1.4c0.6-0.3,1.4-0.5,2.5-0.2c8,1.4,12.6,2.6,12.6,2.6
		C517.4,116.5,517.8,116.1,517.8,115.2"/>
	<polygon class="st15" points="511.2,108 513.6,108.2 511.4,109.2 511.9,111.3 510.3,109.7 508.2,110.9 509.3,108.9 507.6,107.4 
		509.9,107.9 510.9,105.8 	"/>
	<rect x="441.7" y="130.9" class="st16" width="14.2" height="7"/>
	<path class="st17" d="M480.5,127.8c0.2,0,0.5,0.2,0.5,0.5v1.2h0.4c0.4,0,0.7,0.3,0.7,0.7v2.4c0,0.3-0.4,0.7-0.7,0.7h-12
		c-0.4,0-0.7-0.3-0.7-0.7v-2.4c0-0.3,0.4-0.7,0.7-0.7h8.6v-1.2c0-0.2,0.2-0.5,0.5-0.5H480.5"/>
	<path class="st18" d="M482.3,136c0,0,10.7,3.9,32.2,11.8c0.7,0.2,0.9,0.8,0.4,2c-2.7,6.2-4.1,9.2-4.1,9.2c-0.7,1.5-1.6,1.7-4.1,0.3
		c-19.2-11.4-28.9-17-28.9-17c-2.2-1.3-3.6-3.5-3.7-5.9C474.2,136.5,476.9,136.3,482.3,136"/>
	<path class="st19" d="M457.3,129.2c0.5,0,1,0.5,1,0.9v1.6c0,0.6-0.4,0.9-1,0.9h-1.1l1,7h25.2v2c0,1.6-0.7,1.6-3.2,1.6h-3.2v4.4
		h-17.8l1.5,10.8c0.1,0.5-0.4,0.9-0.9,0.9h-5.4c-0.5,0-1-0.5-1.1-0.9l-3.5-25.8h-48l0,0h-6.7c-1,0-1.8-0.8-1.8-1.7
		c0-0.9,0.9-1.7,1.8-1.7h6.7h2.1v-4c0-0.5,0.4-0.8,0.9-0.8s0.9,0.5,0.9,0.8v4h3.2H457.3"/>
	<path class="st16" d="M484.4,130.9c1,0,1.8,0.8,1.8,1.7v6.1c0,0.9-0.9,1.7-1.8,1.7h-26.8c-1,0-1.8-0.8-1.8-1.7v-6.1
		c0-0.9,0.9-1.7,1.8-1.7H484.4"/>
	<path class="st20" d="M495.1,156.1c-30.5,18.1-49.1,19.2-72.2-17c0,0-2.5,0.3-5.2,0.3c24.9,39.1,46.6,39.3,79,18.5
		C496.7,157.8,496.6,157.1,495.1,156.1"/>
	<path class="st18" d="M446.2,132.4c0.5,0,1,0.3,1,0.9v6.2c0,0.5-0.4,0.9-1,0.9h-36.6c-0.5,0-1-0.3-1-0.9v-6.2c0-0.5,0.4-0.9,1-0.9
		H446.2"/>
	<path class="st4" d="M537.7,169.4c0,0,1.2-7.7,3.8-23c0.7-4.1-3.9-7.5-8.5-8.3c-4.6-0.8-10,1-11.1,4.8c-4.3,11.8-6.4,17.8-6.4,17.8
		S522.9,163.7,537.7,169.4"/>
	<path class="st3" d="M513.6,160.6c1.8-4.3,3.2-3.9,6.8-3.2c5.8,1,11.2,3.7,15.4,7.6c2.5,2.3,3.7,4.6,0.6,8.6
		c-4.2,5.5-9,10.1-13.4,6.6C524.7,176.8,525.3,168.9,513.6,160.6"/>
	<path class="st21" d="M444.5,142.4c0,0,0.4-1.4,1-4.1c0.2-2.1-1.4-4.9-4.7-6.4c-3.9-1.8-8.9-1.6-9.9,1.2c-1.4,4.4-1.2,6.8,1.2,8.1
		C439,144.7,443.8,145.4,444.5,142.4"/>
	<polygon class="st3" points="533,140.6 517.2,138 521.5,134.8 537.3,137.3 	"/>
	<path class="st22" d="M521.3,182.5c1.1,0,1.8,0.8,1.7,1.8l-0.5,4.5c-0.1,1-1.1,1.8-2.1,1.8h-47.1c-1.1,0-1.8-0.8-1.7-1.8l0.5-4.5
		c0.1-1,1.1-1.8,2.1-1.8L521.3,182.5"/>
	<path class="st6" d="M474,157.6c0,0,2.7-0.5,8.3-1.5c0,0,0.7,0.5,2.2,1.5c0,0,17,11.2,31.6,20.1c7.5,4.6,9.9,3.8,13.3-0.1
		c3.5-3.9,3.9-11.2-0.7-13.2c-25.8-11.3-38.7-16.9-38.7-16.9c-6.7-2.8-12.1-4.1-12.1-4.1c-1.6-0.5-4.2-0.9-6.8-0.5
		c-6.8,1.7-8.3,2.1-9.4,2.4c-0.7,0.2-0.6,1.4-0.4,2.1s0.9,1.7,1.6,1.5c4.6-1,6.9-1.6,6.9-1.6c1.4-0.3,1.6,0,0.5,0.7
		c-2.5,1.7-4.3,2.2-2.8,4.7C469.6,156.5,471.6,158,474,157.6"/>
	<path class="st23" d="M491.1,325.6c0.5,0,1,0.3,1,0.9v2.3c0,0.5-0.4,0.9-1,0.9H454c-0.5,0-1-0.3-1-0.9v-2.3c0-0.5,0.4-0.9,1-0.9
		H491.1"/>
	<path class="st24" d="M524.6,310.8c0.4,0,0.6,0.2,0.6,0.6l0,0c0,0.3-0.2,0.6-0.6,0.6l-9.5-0.3c-0.4,0-0.6-0.3-0.6-0.6l0,0
		c0-0.3,0.2-0.6,0.6-0.6L524.6,310.8"/>
	<path class="st24" d="M524.1,313.3c0.4,0,0.6,0.3,0.6,0.6l0,0c0,0.3-0.2,0.6-0.6,0.6l-8.9-0.3c-0.4,0-0.6-0.3-0.6-0.6l0,0
		c0-0.3,0.2-0.6,0.6-0.6L524.1,313.3"/>
	<path class="st24" d="M523.7,315.6c0.4,0,0.6,0.3,0.6,0.6l0,0c0,0.3-0.2,0.6-0.6,0.6l-8.1-0.3c-0.4,0-0.6-0.3-0.6-0.6l0,0
		c0-0.3,0.2-0.6,0.6-0.6L523.7,315.6"/>
	<path class="st24" d="M523.4,317.9c0.4,0,0.6,0.3,0.6,0.6l0,0c0,0.3-0.2,0.6-0.6,0.6l-7.3-0.2c-0.4,0-0.6-0.3-0.6-0.6l0,0
		c0-0.3,0.2-0.6,0.6-0.6L523.4,317.9"/>
	<path class="st24" d="M522.9,320.3c0.4,0,0.6,0.3,0.6,0.6l0,0c0,0.3-0.2,0.6-0.6,0.6l-6.4-0.2c-0.4,0-0.6-0.3-0.6-0.6l0,0
		c0-0.3,0.2-0.6,0.6-0.6L522.9,320.3"/>
	<path class="st24" d="M522.6,322.6c0.4,0,0.6,0.2,0.6,0.6l0,0c0,0.3-0.2,0.6-0.6,0.6l-5.9-0.2c-0.4,0-0.6-0.3-0.6-0.6l0,0
		c0-0.3,0.2-0.6,0.6-0.6L522.6,322.6"/>
	<path class="st24" d="M522.1,324.8c0.4,0,0.6,0.2,0.6,0.6l0,0c0,0.3-0.2,0.6-0.6,0.6l-5.2-0.2c-0.4,0-0.6-0.3-0.6-0.6l0,0
		c0-0.3,0.2-0.6,0.6-0.6L522.1,324.8"/>
	<path class="st24" d="M521.8,327c0.4,0,0.6,0.3,0.6,0.6l0,0c0,0.3-0.2,0.6-0.6,0.6l-4.2-0.1c-0.4,0-0.6-0.3-0.6-0.6l0,0
		c0-0.3,0.2-0.6,0.6-0.6L521.8,327"/>
	<path class="st24" d="M521.5,329.3c0.4,0,0.6,0.2,0.6,0.6l0,0c0,0.3-0.2,0.6-0.6,0.6l-3.8-0.1c-0.4,0-0.6-0.3-0.6-0.6l0,0
		c0-0.3,0.2-0.6,0.6-0.6L521.5,329.3"/>
	<path class="st24" d="M481.8,301.9c0.4,0,0.6,0.3,0.6,0.6l0,0c0,0.3-0.2,0.6-0.6,0.6l-3.8-0.3c-0.4,0-0.6-0.3-0.6-0.6l0,0
		c0-0.3,0.2-0.6,0.6-0.6L481.8,301.9"/>
	<path class="st24" d="M481.7,304c0.4,0,0.6,0.3,0.6,0.6l0,0c0,0.3-0.2,0.6-0.6,0.6l-3.8-0.3c-0.4,0-0.6-0.3-0.6-0.6l0,0
		c0-0.3,0.2-0.6,0.6-0.6L481.7,304"/>
	<path class="st24" d="M481.9,306.1c0.4,0,0.6,0.3,0.6,0.6l0,0c0,0.3-0.2,0.6-0.6,0.6l-3.8-0.3c-0.4,0-0.6-0.3-0.6-0.6l0,0
		c0-0.3,0.2-0.6,0.6-0.6L481.9,306.1"/>
	<path class="st24" d="M481.8,308.2c0.4,0,0.6,0.3,0.6,0.6l0,0c0,0.3-0.2,0.6-0.6,0.6L478,309c-0.4,0-0.6-0.3-0.6-0.6l0,0
		c0-0.3,0.2-0.6,0.6-0.6L481.8,308.2"/>
	<path class="st24" d="M481.8,310.3c0.4,0,0.6,0.3,0.6,0.6l0,0c0,0.3-0.2,0.6-0.6,0.6l-3.8-0.3c-0.4,0-0.6-0.3-0.6-0.6l0,0
		c0-0.3,0.2-0.6,0.6-0.6L481.8,310.3"/>
	<path class="st24" d="M481.7,312.5c0.4,0,0.6,0.3,0.6,0.6l0,0c0,0.3-0.2,0.6-0.6,0.6l-3.8-0.3c-0.4,0-0.6-0.3-0.6-0.6l0,0
		c0-0.3,0.2-0.6,0.6-0.6L481.7,312.5"/>
	<path class="st24" d="M480.1,316.1c0.2,0.2,0.2,0.6,0,0.8l0,0c-0.2,0.2-0.6,0.2-0.9,0l-2.7-2.5c-0.2-0.2-0.2-0.6,0-0.8l0,0
		c0.2-0.2,0.6-0.2,0.9,0L480.1,316.1"/>
	<path class="st24" d="M477.9,317.1c0.2,0.2,0.2,0.6,0,0.8l0,0c-0.2,0.2-0.6,0.2-0.9,0l-2.7-2.5c-0.2-0.2-0.2-0.6,0-0.8l0,0
		c0.2-0.2,0.6-0.2,0.9,0L477.9,317.1"/>
	<path class="st24" d="M475.9,318.3c0.2,0.2,0.2,0.6,0,0.8l0,0c-0.2,0.2-0.6,0.2-0.9,0l-2.7-2.5c-0.2-0.2-0.2-0.6,0-0.8l0,0
		c0.2-0.2,0.6-0.2,0.9,0L475.9,318.3"/>
	<path class="st24" d="M473.7,319.7c0.2,0.2,0.2,0.6,0,0.8l0,0c-0.2,0.2-0.6,0.2-0.9,0l-2.7-2.5c-0.2-0.2-0.2-0.6,0-0.8l0,0
		c0.2-0.2,0.6-0.2,0.9,0L473.7,319.7"/>
	<path class="st0" d="M370,300.4c-0.9-2.4-2-4.7-3.2-7c-3.1,0.5-4.7,0.7-4.7,0.7c-2.8,0.9-4.6,3.6-4.1,6.3
		C358,300.4,362,300.4,370,300.4"/>
	<path class="st1" d="M396.3,300.4c2.7-18.9,3.7-29.2,3.7-29.2c-12.1,0.1-18,0.2-18,0.2c1,10.2,1.5,15.3,1.5,15.3
		c-6.7,3.7-10.1,5.6-10.1,5.6c-5.4,0.8-8.1,1.3-8.1,1.3c0.6,5.3,1,7.8,1,7.8S376.5,301.7,396.3,300.4"/>
	<path class="st2" d="M394,300.7c0,0,1.4-9.2,3.9-27.6c0,0-1.6-0.3-4.9-1c-3,19.3-4.4,28.9-4.4,28.9S390.5,300.8,394,300.7"/>
	<path class="st1" d="M433.6,313.9c0,0-0.6-5.5-1.7-16.6c0,0,0.6-6.6,1.8-19.8c-11.2,0.7-16.8,1-16.8,1c0.7,12.5,1.1,18.7,1.1,18.7
		c-1.5,9.9-2.2,15-2.2,15C417.6,313.8,423.5,314.4,433.6,313.9"/>
	<path class="st2" d="M426.7,305.5c0,0,0.9-9,2.7-26.9c-5.7-0.3-8.8-0.1-9,0.8c1,17,1.5,25.7,1.5,25.7
		C423.4,305.9,425.1,306.1,426.7,305.5"/>
	<path class="st29" d="M401.8,269.4c0.1,3.9-1.6,4.3-5.4,4.3c0,0-4.2-0.1-12.6-0.5c-2.7-0.1-3.2-1.5-4.1-8.6
		c-2.6-23.2-4.1-37-4.4-41.2c0,0-0.4-4.8,0.6-27.7c17.8-26.9,26-15,25,35.8C401.1,250.4,401.3,263.1,401.8,269.4"/>
	<path class="st29" d="M417.3,280c-3,0-3.5-1.2-4.4-3.9c-3.9-14.4-7.9-22-9.7-30.8l-9.6-58.5c16.6,2.3,29.2,6.4,36.5,12.4l-2.3,35.9
		c-0.5,7,1,10.7,7.2,38.1c1.4,5.6,0.2,7-4.8,6.9C424.5,280,420.2,279.9,417.3,280"/>
	<path class="st29" d="M384.5,183.7c6.4,5.9,14.9,9.2,23.8,9.5C405,170.3,397.1,167.1,384.5,183.7"/>
	<path class="st29" d="M383.2,114.6l-6.2,44.7c-2.3,13.7-4.4,26.9-6.3,39.8c0,0,1.4,0,4.2,0c4.6-2.4,12.1-10.2,22.6-23.6
		c-0.5,3.6,3.9,13.7,13.3,30.4c10.8-0.9,20.7-6,27-13.7c0,0-3-8.1-8.9-24.2c-1-4.7-7.9-7.6-21-8.7h18.9l4.4-34.2
		c2-2.9,4.2-6.1,6.5-9.7c-3.9-1.6-9.7-3.6-17.4-5.6l-4.8,10.9L383.2,114.6z"/>
	<polygon class="st3" points="397.2,113.6 381.1,115 383.2,111.1 399.3,109.6 	"/>
	<path class="st4" d="M355.9,129.1c0,0,5.1-4.1,17.5-10.6c22.8-9.5,16.6,0.8,11,14.6c-10.4,7.2-18.1,12.2-22.3,12.4
		C362,142.7,360.2,136.5,355.9,129.1"/>
	<path class="st3" d="M376,119.4c0,0,0,0.6-0.1,1.6c-6.2,3.2-9.4,4.7-9.4,4.7c-2-2.4-2.8-3.7-2.8-3.7c3-1.6,4.6-2.3,4.6-2.3
		S370.9,119.6,376,119.4"/>
	<path class="st3" d="M352.7,128.7c9.1-7.1,12.5-0.6,12.6,11.6c-0.1,3.1-1.1,5.1-2.3,5.8c-3.5,1.7-5.2,2.6-5.2,2.6
		c-2.6,1.2-4.4,1.4-5.8,0.6C352,149.2,352.1,142.5,352.7,128.7"/>
	<path class="st5" d="M345.3,153c-3.1,0.2-6-2.3-5.5-7.7l2.5-28.1l9.7-4.1c0.1,0.3,0.5,0.6,0.9,0.6h0.2l2.8,25.9
		C356.9,147.8,353.3,152.3,345.3,153"/>
	<path class="st6" d="M351.5,111.7c1.7,1.4,2.3,2.6,1.6,3.8c-1.8,2.6-4.4,3.6-7.6,2.6C345.5,118.2,347.4,116.1,351.5,111.7"/>
	<path class="st7" d="M415.6,111.1c0,0-2.3-2.9-2-19.2c-13.4,3.8-18.4,12.7-18.4,12.7c2,5.9,0.6,10.4,0.6,10.4
		c2.6,3.1,7,4.6,11.2,3.8C411.4,117.9,414.7,114.9,415.6,111.1"/>
	<path class="st3" d="M402.3,159.3h-1.8v-33.1h1.8V159.3z M414.6,105.2c2.3,1.5,3.6,2.6,5.9,4c-2.1,10.7-4.8,16.7-10.5,17
		c0,0-1.8-2.9-5.5-8.5C409.6,116.3,412.9,112.1,414.6,105.2z"/>
	<path class="st8" d="M382.8,92.6c1.5,13.6,3.2,21.6,5.3,23.9c0.9-0.2,1.6-0.7,2.1-1.6c-1.8-1.2-3.5-8.9-4.8-23
		C385.4,91.9,384.5,92.1,382.8,92.6"/>
	<path class="st9" d="M384.7,87.4c-1.7-1-4.8,0.1-9.1,3.3c1.2,0.9,4.8,2.2,10.7,3.8C386.3,94.5,385.8,92.1,384.7,87.4"/>
	<path class="st6" d="M411.2,103.7c1.6-4.7,2-5.6,0.2-10.2c0.4-4.3-1.1-8.4-4.1-11.5c-0.5,0.8-1.4,1.5-2.5,1.8
		c-0.5,0.1-1,0.3-1.5,0.5c-0.4,0.1-0.9,0.1-1.2,0.2h-0.7c-0.5,0-1,0.1-1.5,0.1h-0.1h-0.1c-0.5,0.1-1,0.2-1.5,0.2h0.2l-0.2,0.1
		c-0.4,0.1-0.7,0.2-1.1,0.2c-0.2,0.1-0.5,0.1-0.6,0.1c-0.4,0.1-0.7,0.2-1.1,0.2h0.2l-0.6,0.2c-0.4,0.1-0.9,0.2-1.2,0.2h-0.2h-0.1
		c-0.4,0.1-0.7,0.2-1.1,0.3s-0.9,0.2-1.4,0.2l-0.9,0.1l-1,0.1c-0.4,0-0.7,0-1.1,0.1h-0.7h-0.6c-0.4,0.1-0.9,0.2-1.2,0.2
		c-0.7,0.2-1.5,0.2-2.1,0.1c-0.5,3.5,0.1,5.8,1.7,6.8c2.3,1.5,2.8,2.9,2.6,5.2c-0.1,2.5,0.5,4.4,1.6,5.8c4.1,4.4,5.4,6.6,6,8.5
		c0.9,2.2,6.3,1.7,10.4-1.8C407.8,109.6,409.9,107,411.2,103.7"/>
	<path class="st10" d="M399.9,72.1L399.9,72.1L399.9,72.1L399.9,72.1z M406.9,87.3c-3-0.7-4.3-1.7-3.8-3.1c0.5-1.2,0.4-2.3-0.2-3.2
		h0.6c0.2,0,0.5,0,0.7,0l0,0l0.6,0.1c0.2,0,0.5,0.1,0.6,0.1c0.2,0.1,0.5,0.1,0.7,0.1c0.1,0,0.2,0.1,0.4,0.1c0.5,0.2,1,0.5,1.5,0.6
		h0.1c0.6,0.3,1.4,0.5,2.1,0.5c0.4,0.1,0.7,0.2,1.1,0.3s0.7,0.2,1,0.3c0.4,3.6,0.2,7.8-0.2,12.9c-0.4,2-3.2-0.5-3.3-2.8
		C408.8,89.4,408.6,87.8,406.9,87.3z"/>
	<path class="st6" d="M415.2,94.2c-0.1,0.6-0.5,1-1,1.2c-0.5,0.2-1.1,0.1-1.6-0.2c-3-2.5-3.5-6.7-1.2-9.8c0.7-1,2.1-1.7,3.6-1.6
		c1.4,0.1,2.6,0.9,3.2,2.2c0.5,1.2,0.5,2.6-0.5,3.6C416.2,90.7,415.5,92.4,415.2,94.2"/>
	<path class="st11" d="M417.3,89.3c4.7,14.7,6.3,23.7,4.7,27c-1.2,0.2-2.5,0-3.6-0.7c1.8-2.1,0.2-10.7-4.9-25.9
		C413.6,89.7,414.9,89.6,417.3,89.3"/>
	<path class="st29" d="M399.7,88.7c0,0,2.3-0.3,7.2-1.2c0.7-0.8,5.5-0.1,14.5,2.3c0,0-0.4-2.5-1.1-7.6c-1.7-10.1-4.9-13.7-11.8-16.9
		c-6.9-3.2-15.2-2.8-21.6,1.3s-10.1,10.9-9.5,18.2c0.1,1.8-0.6,3.3-2,4.6C385,88.4,393.2,88.2,399.7,88.7"/>
	<path class="st13" d="M406.6,87.1c0,0,4.8,1,14.4,3.2c-1,1-1.7,1.5-2.6,1.3c-9.7-1.8-14.5-2.8-14.5-2.8S404.8,88.2,406.6,87.1"/>
	<path class="st14" d="M422.4,89.3C418,88,413.5,87,409.1,86c-0.9-0.2-1.7-0.3-3.3,0.2c-9.9-1-19.7-0.7-29.8,1.2
		c-0.2,0-0.4,0.2-0.4,0.5s0.2,0.5,0.5,0.5c9-1.6,18.2-2,28-1.2c-2.6,1.2-2.1,0.7-8.1,0.7c-7.5,0-14.4,0.5-20.5,1.6
		c-0.6,0.3-0.9,1.2-0.4,1.8c5.3-1.3,12.3-1.7,21.1-1.6c6.4,0.1,5.8,0.6,10-1.4c0.6-0.3,1.4-0.5,2.5-0.2c8,1.4,12.6,2.6,12.6,2.6
		C422,90.5,422.4,90.1,422.4,89.3"/>
	<polygon class="st15" points="415.7,82 418.1,82.2 416,83.2 416.5,85.3 414.9,83.7 412.8,84.9 413.9,82.9 412.2,81.4 414.5,81.8 
		415.5,79.7 	"/>
	<rect x="346.3" y="104.9" class="st16" width="14.2" height="7"/>
	<path class="st17" d="M385,101.8c0.2,0,0.5,0.2,0.5,0.5v1.2h0.4c0.4,0,0.7,0.3,0.7,0.7v2.4c0,0.3-0.4,0.7-0.7,0.7h-12
		c-0.4,0-0.7-0.3-0.7-0.7v-2.4c0-0.3,0.4-0.7,0.7-0.7h8.6v-1.2c0-0.2,0.2-0.5,0.5-0.5H385"/>
	<path class="st18" d="M386.9,110c0,0,10.7,3.9,32.2,11.8c0.7,0.2,0.9,0.8,0.4,2c-2.7,6.2-4.1,9.2-4.1,9.2c-0.7,1.5-1.6,1.7-4.1,0.3
		c-19.2-11.4-28.9-17-28.9-17c-2.2-1.3-3.6-3.5-3.7-5.9C378.7,110.4,381.5,110.3,386.9,110"/>
	<path class="st19" d="M361.9,103.2c0.5,0,1,0.5,1,0.9v1.5c0,0.6-0.4,0.9-1,0.9h-1.1l1,7H387v2.1c0,1.6-0.7,1.6-3.2,1.6h-3.2v4.4
		h-17.8l1.5,10.8c0.1,0.5-0.4,0.9-0.9,0.9H358c-0.5,0-1-0.5-1.1-0.9l-3.5-25.8h-48l0,0h-6.7c-1,0-1.8-0.8-1.8-1.7
		c0-0.9,0.9-1.7,1.8-1.7h6.7h2.1v-4c0-0.5,0.4-0.8,0.9-0.8s0.9,0.5,0.9,0.8v4h3.2H361.9"/>
	<path class="st16" d="M389,104.9c1,0,1.8,0.8,1.8,1.7v6.1c0,0.9-0.9,1.7-1.8,1.7h-26.8c-1,0-1.8-0.8-1.8-1.7v-6.1
		c0-0.9,0.9-1.7,1.8-1.7H389"/>
	<path class="st20" d="M399.7,130c-30.5,18.1-49.1,19.2-72.2-17c0,0-2.5,0.3-5.2,0.3c24.9,39.1,46.6,39.3,79,18.5
		C401.3,131.8,401.1,131.1,399.7,130"/>
	<path class="st18" d="M350.8,106.4c0.5,0,1,0.3,1,0.9v6.2c0,0.5-0.4,0.9-1,0.9H314c-0.5,0-1-0.3-1-0.9v-6.2c0-0.5,0.4-0.9,1-0.9
		L350.8,106.4"/>
	<path class="st4" d="M442.2,143.4c0,0,1.2-7.7,3.8-23c0.7-4.1-3.9-7.5-8.5-8.3c-4.6-0.8-10,1-11.1,4.8c-4.3,11.8-6.4,17.8-6.4,17.8
		S427.4,137.6,442.2,143.4"/>
	<path class="st3" d="M418.1,134.5c1.8-4.3,3.2-3.9,6.8-3.2c5.8,1,11.2,3.7,15.4,7.6c2.5,2.3,3.7,4.6,0.6,8.6
		c-4.2,5.5-9,10.1-13.4,6.6C429.3,150.8,429.9,142.7,418.1,134.5"/>
	<path class="st21" d="M349,116.3c0,0,0.4-1.4,1-4.1c0.2-2.1-1.4-4.9-4.7-6.4c-3.9-1.8-8.9-1.6-9.9,1.2c-1.4,4.4-1.2,6.8,1.2,8.1
		C343.6,118.7,348.4,119.3,349,116.3"/>
	<polygon class="st3" points="437.6,114.4 421.8,111.9 426.1,108.8 441.9,111.3 	"/>
	<path class="st22" d="M425.8,156.5c1.1,0,1.8,0.8,1.7,1.8l-0.5,4.5c-0.1,1-1.1,1.8-2.1,1.8h-47.1c-1.1,0-1.8-0.8-1.7-1.8l0.5-4.5
		c0.1-1,1.1-1.8,2.1-1.8H425.8"/>
	<path class="st6" d="M378.6,131.5c0,0,2.7-0.5,8.3-1.5c0,0,0.7,0.5,2.2,1.5c0,0,17,11.2,31.6,20.1c7.5,4.6,9.9,3.8,13.3-0.1
		c3.5-3.9,3.9-11.2-0.7-13.2c-25.8-11.3-38.7-16.9-38.7-16.9c-6.7-2.8-12.1-4.1-12.1-4.1c-1.6-0.5-4.2-0.9-6.8-0.5
		c-6.8,1.7-8.3,2.1-9.4,2.4c-0.7,0.2-0.6,1.4-0.4,2.1s0.9,1.7,1.6,1.5c4.6-1,6.9-1.6,6.9-1.6c1.4-0.3,1.6,0,0.5,0.7
		c-2.5,1.7-4.3,2.2-2.8,4.7C374.2,130.5,376.2,132,378.6,131.5"/>
	<path class="st23" d="M395.6,299.6c0.5,0,1,0.3,1,0.9v2.3c0,0.5-0.4,0.9-1,0.9h-37.1c-0.5,0-1-0.3-1-0.9v-2.3c0-0.5,0.4-0.9,1-0.9
		H395.6"/>
	<path class="st24" d="M429,284.8c0.4,0,0.6,0.2,0.6,0.6l0,0c0,0.3-0.2,0.6-0.6,0.6l-9.5-0.3c-0.4,0-0.6-0.3-0.6-0.6l0,0
		c0-0.3,0.2-0.6,0.6-0.6L429,284.8"/>
	<path class="st24" d="M428.7,287.2c0.4,0,0.6,0.3,0.6,0.6l0,0c0,0.3-0.2,0.6-0.6,0.6l-8.9-0.3c-0.4,0-0.6-0.3-0.6-0.6l0,0
		c0-0.3,0.2-0.6,0.6-0.6L428.7,287.2"/>
	<path class="st24" d="M428.3,289.6c0.4,0,0.6,0.3,0.6,0.6l0,0c0,0.3-0.2,0.6-0.6,0.6l-8.1-0.3c-0.4,0-0.6-0.3-0.6-0.6l0,0
		c0-0.3,0.2-0.6,0.6-0.6L428.3,289.6"/>
	<path class="st24" d="M427.9,291.9c0.4,0,0.6,0.3,0.6,0.6l0,0c0,0.3-0.2,0.6-0.6,0.6l-7.3-0.2c-0.4,0-0.6-0.3-0.6-0.6l0,0
		c0-0.3,0.2-0.6,0.6-0.6L427.9,291.9"/>
	<path class="st24" d="M427.4,294.3c0.4,0,0.6,0.3,0.6,0.6l0,0c0,0.3-0.2,0.6-0.6,0.6l-6.4-0.2c-0.4,0-0.6-0.3-0.6-0.6l0,0
		c0-0.3,0.2-0.6,0.6-0.6L427.4,294.3"/>
	<path class="st24" d="M427.2,296.5c0.4,0,0.6,0.2,0.6,0.6l0,0c0,0.3-0.2,0.6-0.6,0.6l-5.9-0.2c-0.4,0-0.6-0.3-0.6-0.6l0,0
		c0-0.3,0.2-0.6,0.6-0.6L427.2,296.5"/>
	<path class="st24" d="M426.7,298.7c0.4,0,0.6,0.2,0.6,0.6l0,0c0,0.3-0.2,0.6-0.6,0.6l-5.2-0.2c-0.4,0-0.6-0.3-0.6-0.6l0,0
		c0-0.3,0.2-0.6,0.6-0.6L426.7,298.7"/>
	<path class="st24" d="M426.3,300.9c0.4,0,0.6,0.3,0.6,0.6l0,0c0,0.3-0.2,0.6-0.6,0.6l-4.2-0.1c-0.4,0-0.6-0.3-0.6-0.6l0,0
		c0-0.3,0.2-0.6,0.6-0.6L426.3,300.9"/>
	<path class="st24" d="M426,303.3c0.4,0,0.6,0.3,0.6,0.6l0,0c0,0.3-0.2,0.6-0.6,0.6l-3.8-0.1c-0.4,0-0.6-0.3-0.6-0.6l0,0
		c0-0.3,0.2-0.6,0.6-0.6L426,303.3"/>
	<path class="st24" d="M386.4,275.9c0.4,0,0.6,0.3,0.6,0.6l0,0c0,0.3-0.2,0.6-0.6,0.6l-3.8-0.3c-0.4,0-0.6-0.3-0.6-0.6l0,0
		c0-0.3,0.2-0.6,0.6-0.6L386.4,275.9"/>
	<path class="st24" d="M386.3,278c0.4,0,0.6,0.3,0.6,0.6l0,0c0,0.3-0.2,0.6-0.6,0.6l-3.8-0.3c-0.4,0-0.6-0.3-0.6-0.6l0,0
		c0-0.3,0.2-0.6,0.6-0.6L386.3,278"/>
	<path class="st24" d="M386.5,280.1c0.4,0,0.6,0.3,0.6,0.6l0,0c0,0.3-0.2,0.6-0.6,0.6l-3.8-0.3c-0.4,0-0.6-0.3-0.6-0.6l0,0
		c0-0.3,0.2-0.6,0.6-0.6L386.5,280.1"/>
	<path class="st24" d="M386.4,282.2c0.4,0,0.6,0.3,0.6,0.6l0,0c0,0.3-0.2,0.6-0.6,0.6l-3.8-0.3c-0.4,0-0.6-0.3-0.6-0.6l0,0
		c0-0.3,0.2-0.6,0.6-0.6L386.4,282.2"/>
	<path class="st24" d="M386.4,284.3c0.4,0,0.6,0.3,0.6,0.6l0,0c0,0.3-0.2,0.6-0.6,0.6l-3.8-0.3c-0.4,0-0.6-0.3-0.6-0.6l0,0
		c0-0.3,0.2-0.6,0.6-0.6L386.4,284.3"/>
	<path class="st24" d="M386.3,286.4c0.4,0,0.6,0.3,0.6,0.6l0,0c0,0.3-0.2,0.6-0.6,0.6l-3.8-0.3c-0.4,0-0.6-0.3-0.6-0.6l0,0
		c0-0.3,0.2-0.6,0.6-0.6L386.3,286.4"/>
	<path class="st24" d="M384.7,290.1c0.2,0.2,0.2,0.6,0,0.8l0,0c-0.2,0.2-0.6,0.2-0.9,0l-2.7-2.5c-0.2-0.2-0.2-0.6,0-0.8l0,0
		c0.2-0.2,0.6-0.2,0.9,0L384.7,290.1"/>
	<path class="st24" d="M382.4,291.1c0.2,0.2,0.2,0.6,0,0.8l0,0c-0.2,0.2-0.6,0.2-0.9,0l-2.7-2.5c-0.2-0.2-0.2-0.6,0-0.8l0,0
		c0.2-0.2,0.6-0.2,0.9,0L382.4,291.1"/>
	<path class="st24" d="M380.5,292.3c0.2,0.2,0.2,0.6,0,0.8l0,0c-0.2,0.2-0.6,0.2-0.9,0l-2.7-2.5c-0.2-0.2-0.2-0.6,0-0.8l0,0
		c0.2-0.2,0.6-0.2,0.9,0L380.5,292.3"/>
	<path class="st24" d="M378.3,293.7c0.2,0.2,0.2,0.6,0,0.8l0,0c-0.2,0.2-0.6,0.2-0.9,0l-2.7-2.5c-0.2-0.2-0.2-0.6,0-0.8l0,0
		c0.2-0.2,0.6-0.2,0.9,0L378.3,293.7"/>
</g>
</svg>
