<svg xmlns="http://www.w3.org/2000/svg" viewBox="0 0 203.58 342.72044">
  <defs>
    <style>
      .cls-1 {
        fill: #d3c2a9;
      }

      .cls-2 {
        fill: #ead7b9;
      }

      .cls-3 {
        fill: #5bc0ee;
      }

      .cls-4 {
        fill: #181b3b;
      }

      .cls-5 {
        fill: #354053;
      }

      .cls-6 {
        fill: #3b70b7;
      }

      .cls-7 {
        fill: #130f22;
      }
    </style>
  </defs>
  <title>Asset 1</title>
  <g id="Layer_2" data-name="Layer 2">
    <g id="Layer_1-2" data-name="Layer 1">
      <path class="cls-1" d="M103.61,86.48046l-9.09,26.13c-1.63,4.7,1.08,9.88,5.55,10.57l44.98,7.03,6.67,2.62,16.35,2.96a1.7853,1.7853,0,0,0,1.96-1.72h0a1.97449,1.97449,0,0,0-.95-1.93l-1.59-.89h1.66a1.93392,1.93392,0,0,0,1.83-1.9h0a2.08805,2.08805,0,0,0-1.16-2.07l-1.32-.58,1.58-.1a1.7135,1.7135,0,0,0,1.52-1.54h0a1.88962,1.88962,0,0,0-.91-1.93l-2.5-1.34h2.18a2.08594,2.08594,0,0,0,1.96-2.19h0a2.16107,2.16107,0,0,0-1.52-2.14l-4.58-1.18h0a3.65435,3.65435,0,0,0-3.54-2.6l-7.65.46-6.02,3.45-34.57-11.54,5.58-10.2Z"/>
      <path class="cls-2" d="M125.95,227.61045l16.93,20.81s-6.21,29.93,0,40.09c0,0,9.75,26.82,8.97,38.96h20.21l-2.35-9.88s-9.03-13.27-6.21-60.99c0,0,6.78-13.55.28-20.89l-5.11-12.89Z"/>
      <path class="cls-3" d="M151.84,324.48045v13.13a5.11277,5.11277,0,0,0,5.11,5.11h46.62v-4.24l-25.87-12.17-8.01-8.73C169.7,317.59046,170.7,326.29045,151.84,324.48045Z"/>
      <path class="cls-4" d="M156.96,338.20045a5.11279,5.11279,0,0,1-5.11-5.11v4.52a5.11277,5.11277,0,0,0,5.11,5.11h46.62v-4.24l-.6-.28Z"/>
      <polygon class="cls-5" points="135.82 177.27 161.23 222.44 123.24 228.01 109.28 210.3 111.64 181.22 135.82 177.27"/>
      <g>
        <polygon class="cls-4" points="176.76 330.96 178.73 332.04 181.85 328.27 179.74 327.27 176.76 330.96"/>
        <polygon class="cls-4" points="188.44 331.36 184.8 335.24 186.85 336.33 190.59 332.38 188.44 331.36"/>
        <polygon class="cls-4" points="186.08 330.26 183.93 329.24 180.52 332.79 182.67 333.86 186.08 330.26"/>
        <polygon class="cls-4" points="176.5 325 173.9 328.09 175.62 329.54 178.16 326.53 177.71 326.32 176.5 325"/>
      </g>
      <path class="cls-2" d="M71.43,230.05046l-3.46,9.34s-24.48,5.36-29,16.09l-27.95,24,1.98,15.81,9.88-4.24s2.54-13.27,54.49-30.77l6.13-1.8a7.46665,7.46665,0,0,0,4.82-4.37l5.81-14.39Z"/>
      <path class="cls-3" d="M16.06,275.15046H6.15a4.40792,4.40792,0,0,0-4.4,4.16L0,314.77046l7.12,9.27a3.01753,3.01753,0,0,0,2.39,1.18h3.94a3.006,3.006,0,0,0,2.98-2.58l3.05-24.15,3.39-7.43C22.88,291.05046,8.4,289.45045,16.06,275.15046Z"/>
      <path class="cls-4" d="M10.52,324.04045l-7.12-9.27,1.75-35.46a4.40071,4.40071,0,0,1,4.4-4.16H6.16a4.40792,4.40792,0,0,0-4.4,4.16l-1.75,35.46,7.12,9.27a3.01756,3.01756,0,0,0,2.39,1.18h3.39A3.062,3.062,0,0,1,10.52,324.04045Z"/>
      <path d="M167.02,7.15046a6.34107,6.34107,0,0,0-.56-2.4,2.20958,2.20958,0,0,0-1.96-1.29c-1.32.07-2.06,1.6-3.29,2.07a2.30391,2.30391,0,0,1-2.88-1.32c-1.63,1.39-4.09,1.41-6.11.69-1.87-.66-3.38-1.48-5.31-2.04-1.78-.51-3.19-1.78-4.96-2.39a6.78247,6.78247,0,0,0-5.53.24,8.39715,8.39715,0,0,1-2.25,1.23c-1.26.27-2.46-.54-3.7-.9-2.76-.82-5.65.6-8.18,1.97-2.14,1.16-4.45,2.51-5.26,4.8a12.78823,12.78823,0,0,0-.45,3.6c-.17,2.78-1.2,5.31-1.26,8.02-.06,2.85,1.05,4.55,1.62,7.22.5,2.35.13,4.83,1.04,7.1a32.66961,32.66961,0,0,1,1.99,4.86c.44,1.95.57,4.1.89,6.09a1.69579,1.69579,0,0,0,.62,1.27c.6.36,1.34-.13,1.88-.58a18.9685,18.9685,0,0,1,2.63-1.91c3.22-1.87,7.02-2.35,10.25-4.23,3.35-1.95,3.71-5.21,5.05-8.61,1.72-4.36,5.87-7.52,9.5-10.27a5.84066,5.84066,0,0,1,4.78-1.29c2.19.29,5,2.24,7.14.96a5.11682,5.11682,0,0,0,1.69-2.14l1.32-2.49a15.43863,15.43863,0,0,0,1.07-2.34A14.38605,14.38605,0,0,0,167.02,7.15046Z"/>
      <rect class="cls-2" x="112.88842" y="42.3378" width="34.32063" height="21.74041" transform="translate(15.11683 134.04378) rotate(-57.37149)"/>
      <path class="cls-5" d="M71.43,174.33046l-.7,6.51a27.61853,27.61853,0,0,0,3.7,17.04h0l-6.47,30.69,28.04,11.94,28.73-35.52a17.21272,17.21272,0,0,0,3.27-6.45l5.19-19.56-57.24-6.23Z"/>
      <path class="cls-2" d="M161.51,16.15046l2.77,9.29a3.466,3.466,0,0,1-2.33,4.32l-.44.13,2.53,10.09a.36849.36849,0,0,1-.36.45h-3.49l-.62,7.59a9.16073,9.16073,0,0,1-9.13,8.41h-4.08a11.39066,11.39066,0,0,1-11.39-11.39v-6.87s-4.33-.75-4.89-3.58c0,0-1.32-6.96.56-7.72,0,0,4.52-.94,5.27,1.88l.56,2.82,1.51-7.91C137.98,23.68046,145.13,6.55046,161.51,16.15046Z"/>
      <path d="M162.53,19.56047c.09-2.69-.19-5.83-2.28-7.52-1.32-1.07-3.12-1.27-4.81-1.43-4.5-.43-9.28-1.89-13.55-.4-1.57.55-3.8,1.13-5.36,1.69-2.39.85-4.08,2.38-6.42,3.36s-4.54,2.91-4.76,5.44a2.151,2.151,0,0,0,.26,1.37,2.678,2.678,0,0,0,1.8.88c3,.61,9.88-.79,8.97,8.09-.27,2.59,1.33,3.62,4.53,5.84-.74-.51.97-7.43,1.23-8.23.65-1.95,1.65-3.92,2.45-5.82,1.42-3.37,4.89-3.64,8.07-3.35,3.2.29,6.96.74,10.16,1.03Z"/>
      <path class="cls-6" d="M117.95,51.94046c-.25.38-10.37,4.49-10.37,4.49l-16.41,20.71a10.5121,10.5121,0,0,0-2.22,5.55l-5.06,55.94a36.8011,36.8011,0,0,1-3.34,12.31l-10.79,22.94,39.84,10.66a24.81623,24.81623,0,0,0,19.97-3.19l8.51-4.08,13.57-73.12a9.02944,9.02944,0,0,0-.34-4.99l-10.85-29.74Z"/>
      <g>
        <path class="cls-4" d="M11.86,303.29045l-1.96,1.12a9.08913,9.08913,0,0,0,8.04,4.79c.11,0,.21-.01.32-.02l.34-2.29A6.773,6.773,0,0,1,11.86,303.29045Z"/>
        <path class="cls-4" d="M12.73,308.25047l-1.96,1.12a7.47407,7.47407,0,0,0,6.63,3.94,2.28606,2.28606,0,0,0,.27-.02l.34-2.29A5.17843,5.17843,0,0,1,12.73,308.25047Z"/>
        <path class="cls-4" d="M19.23,302.27046a6.77589,6.77589,0,0,1-7.36-3.51l-1.96,1.12a9.07881,9.07881,0,0,0,8.04,4.79,7.63081,7.63081,0,0,0,.99-.06l.32-2.2Z"/>
        <path class="cls-4" d="M12.99,294.22047l-1.96,1.12a9.08913,9.08913,0,0,0,8.04,4.79c.19,0,.35-.02.53-.03l.34-2.3A6.78618,6.78618,0,0,1,12.99,294.22047Z"/>
      </g>
      <polygon class="cls-6" points="117.95 51.94 83.02 90.31 108.43 103.3 129.63 87.77 129.95 73.52 117.95 51.94"/>
      <path class="cls-2" d="M85.95,91.81047l-10.94,28.12a8.40969,8.40969,0,0,0,6.68,11.38l54.13,7.56,8.03,2.82,19.68,3.19a2.09188,2.09188,0,0,0,2.36-1.85h0a2.08191,2.08191,0,0,0-1.14-2.08l-1.91-.95h2a2.21411,2.21411,0,0,0,2.21-2.04h0a2.22356,2.22356,0,0,0-1.39-2.23l-1.59-.62,1.9-.1a1.96056,1.96056,0,0,0,1.83-1.66h0a1.959,1.959,0,0,0-1.09-2.07l-3.01-1.44h2.63a2.36434,2.36434,0,0,0,2.36-2.36h0a2.36347,2.36347,0,0,0-1.83-2.3l-5.51-1.27h0a4.36919,4.36919,0,0,0-4.26-2.79l-9.2.49-7.25,3.71-41.6-12.42,6.71-10.98Z"/>
      <polygon class="cls-7" points="134.22 138.65 129.74 138.02 133.99 123.39 138.3 124.64 134.22 138.65"/>
      <circle class="cls-7" cx="134.16" cy="131.33046" r="5.46"/>
    </g>
  </g>
</svg>
