<svg xmlns="http://www.w3.org/2000/svg" viewBox="0 0 622.49002 363.45543">
  <defs>
    <style>
      .cls-1, .cls-4 {
        fill: #354053;
      }

      .cls-2, .cls-3 {
        fill: #3b70b7;
      }

      .cls-11, .cls-2, .cls-4, .cls-5, .cls-6, .cls-7 {
        fill-rule: evenodd;
      }

      .cls-5 {
        fill: #d2dcea;
      }

      .cls-6 {
        fill: #3d2324;
      }

      .cls-7, .cls-8 {
        fill: #d71f29;
      }

      .cls-9 {
        fill: #8b8b8b;
      }

      .cls-10, .cls-11 {
        fill: #270f0f;
      }
    </style>
  </defs>
  <title>Asset 1</title>
  <g id="Layer_2" data-name="Layer 2">
    <g id="Layer_1-2" data-name="Layer 1">
      <path d="M500.98,124.27547a117.67,117.67,0,1,0,117.67,117.67A117.66659,117.66659,0,0,0,500.98,124.27547Zm72.34,190.01a102.29036,102.29036,0,1,1,29.96991-72.34A101.99824,101.99824,0,0,1,573.32,314.28548Z"/>
      <path d="M581.47,161.45547a113.8301,113.8301,0,1,0,33.34,80.49,113.47753,113.47753,0,0,0-33.34-80.49m-80.49-41.02a121.51181,121.51181,0,1,1-85.92,35.59A121.13361,121.13361,0,0,1,500.98,120.43548Z"/>
      <path d="M567.89,175.02547a94.61312,94.61312,0,1,0,27.72,66.91,94.34231,94.34231,0,0,0-27.72-66.91m-66.91-35.39a102.324,102.324,0,1,1-72.33993,29.97A101.95664,101.95664,0,0,1,500.98,139.63547Z"/>
      <g>
        <path d="M121.51,124.27547a117.67,117.67,0,1,0,117.67,117.67A117.6666,117.6666,0,0,0,121.51,124.27547Zm72.34,190.01a102.2902,102.2902,0,1,1,29.97-72.34A101.99811,101.99811,0,0,1,193.85,314.28548Z"/>
        <path d="M193.85,169.59546a102.29018,102.29018,0,1,0,29.97,72.34A101.99819,101.99819,0,0,0,193.85,169.59546Zm-5.42,139.26a94.613,94.613,0,1,1,27.72-66.91A94.34224,94.34224,0,0,1,188.43,308.85546Z"/>
      </g>
      <path d="M202,161.45547a113.83017,113.83017,0,1,0,33.34,80.49,113.47759,113.47759,0,0,0-33.34-80.49m-80.49-41.02a121.51183,121.51183,0,1,1-85.92,35.59A121.13362,121.13362,0,0,1,121.51,120.43548Z"/>
      <path d="M188.43,175.02547a94.613,94.613,0,1,0,27.72,66.91,94.34224,94.34224,0,0,0-27.72-66.91m-66.92-35.39a102.324,102.324,0,1,1-72.34,29.97A101.95652,101.95652,0,0,1,121.51,139.63547Z"/>
      <rect class="cls-1" x="196.39508" y="18.94183" width="10.57975" height="59.39857" transform="translate(-4.72456 69.56695) rotate(-19.34818)"/>
      <path class="cls-1" d="M194.97,22.77547l-4.21,1.48,17.65,50.27,4.21-1.48Zm-9.12-3.28,9.98-3.5a3.06392,3.06392,0,0,1,3.9,1.88l19.68,56.05a3.06392,3.06392,0,0,1-1.88,3.9l-9.98,3.5a3.06391,3.06391,0,0,1-3.9-1.88l-19.68-56.05A3.06,3.06,0,0,1,185.85,19.49547Z"/>
      <path class="cls-1" d="M161.8,15.04547c.23-5.05,2.17-8.87,4.51-8.7l71.08,5.35c2.5.18,4.51,4.81,4.5,10.35s-2.04,9.88-4.54,9.7l-68.09-5.13a2.74867,2.74867,0,0,0-.23-.33,3.63392,3.63392,0,0,0-1.12-1.41c-.11-.17-.22-.33-.34-.5a7.71071,7.71071,0,0,0-.8-1.52l-1.6-2.02-1.23-1.88a9.124,9.124,0,0,0-.98-2.17l-.5-.66c-.21-.39-.43-.73-.66-1.08"/>
      <path class="cls-1" d="M190.54,9.81547q-10.335-1.47-20.68-2.93a6.63226,6.63226,0,0,0-2.75.12,3.00569,3.00569,0,0,0-1.44.87,3.331,3.331,0,0,0-.72,1.66,6.95629,6.95629,0,0,0,.2,2.88l1.21,4.72a11.81348,11.81348,0,0,0,1.5,3.4,13.41654,13.41654,0,0,0,2.53,2.93,10.73677,10.73677,0,0,0,3.02,1.85,7.97854,7.97854,0,0,0,2.93.59h54.11a11.42071,11.42071,0,0,0,3.01-.39,8.88657,8.88657,0,0,0,2.47-1.06,4.29856,4.29856,0,0,0,1.3-1.15.98371.98371,0,0,0,.19-.54v-2.73a1.40233,1.40233,0,0,0-.28-.72,6.17093,6.17093,0,0,0-1.61-1.56,13.48143,13.48143,0,0,0-2.98-1.58,16.34756,16.34756,0,0,0-3.55-.92l-7.38-1.05-22.2-3.15Zm-19.75-9.67q10.335,1.47,20.68,2.93l8.89,1.26,22.2,3.15,7.38,1.05a22.781,22.781,0,0,1,5.06,1.32,20.66878,20.66878,0,0,1,4.5,2.41,12.93916,12.93916,0,0,1,3.31,3.34,8.00071,8.00071,0,0,1,1.42,4.44v2.73a7.64219,7.64219,0,0,1-1.39,4.34,11.29735,11.29735,0,0,1-3.3,3.1,16.27314,16.27314,0,0,1-4.34,1.88,18.32355,18.32355,0,0,1-4.77.63H176.32a14.69922,14.69922,0,0,1-5.46-1.1,17.62029,17.62029,0,0,1-4.91-3,19.52427,19.52427,0,0,1-3.86-4.47,18.756,18.756,0,0,1-2.32-5.35l-1.21-4.72a13.73084,13.73084,0,0,1-.33-5.64,9.89684,9.89684,0,0,1,2.29-5.01,9.76465,9.76465,0,0,1,4.66-2.95A13.45875,13.45875,0,0,1,170.79.14547Z"/>
      <polygon class="cls-2" points="253.84 279.845 267.85 264.115 208.16 89.615 115.81 245.555 106.08 239.795 203.35 75.545 197.54 58.565 213.39 53.145 217.44 64.995 423.78 64.995 423.78 81.745 223.17 81.745 280.65 249.765 424.99 87.865 437.49 99.015 286.87 267.955 296.63 296.495 280.78 301.915 274.08 282.305 266.34 290.985 253.84 279.845"/>
      <path class="cls-3" d="M213.39,53.14547l4.05,11.84H423.78v16.75H223.17l57.48,168.03,144.34-161.9,12.5,11.14-150.62,168.95,9.76,28.54-15.85,5.42-6.71-19.61-7.74,8.68-12.5-11.15,14.02-15.72-59.69-174.5-92.35,155.94-9.73-5.77,97.27-164.25-5.81-16.97,15.85-5.42m0-6.26a6.26673,6.26673,0,0,0-2.03.34l-15.84,5.42a6.26357,6.26357,0,0,0-3.9,7.95l4.87,14.24-95.8,161.76a6.25356,6.25356,0,0,0,2.19,8.57l9.73,5.77a6.26016,6.26016,0,0,0,8.57-2.2l85.43-144.26,54.11,158.2-11.58,12.99a6.25055,6.25055,0,0,0,.5,8.83l12.5,11.15a6.25078,6.25078,0,0,0,8.83-.5l.61-.68,3.24,9.47a6.26476,6.26476,0,0,0,5.93,4.24,6.17863,6.17863,0,0,0,2.03-.34l15.85-5.42a6.26361,6.26361,0,0,0,3.9-7.95l-8.58-25.07,148.19-166.22a6.25059,6.25059,0,0,0-.5-8.83l-11.93-10.64a6.38112,6.38112,0,0,0,.31-1.96v-16.75a6.25654,6.25654,0,0,0-6.26-6.26H221.91l-2.6-7.61a6.26645,6.26645,0,0,0-5.92-4.23992Zm18.54,41.12H416.48l-133.38,149.6-51.17-149.6Z"/>
      <rect class="cls-3" x="423.14571" y="28.47555" width="30.72829" height="15.55912" transform="translate(11.08091 140.70522) rotate(-18.4585)"/>
      <path class="cls-3" d="M448.71,27.86547l-23.34,7.79,2.99,8.96,23.34-7.79Zm-28.18,2.95,29.14-9.73a3.05411,3.05411,0,0,1,3.87,1.93l4.93,14.76a3.05413,3.05413,0,0,1-1.93,3.87l-29.14,9.73a3.05412,3.05412,0,0,1-3.87-1.93l-4.93-14.76A3.05815,3.05815,0,0,1,420.53,30.81547Z"/>
      <rect class="cls-3" x="424.63686" y="31.86165" width="17.31064" height="97.17361" transform="matrix(0.94356, -0.33119, 0.33119, 0.94356, -2.19065, 148.04115)"/>
      <path class="cls-4" d="M472.96,39.95547c-17.25.22-25.93-.1-25.93-.1s-.23-5.13-.7-15.39q27.975-.24,27.97-.23a31.3247,31.3247,0,1,1-16.08,57.34c-2.68-1.92-4.9-3.55-5.25-6.56a7.91865,7.91865,0,0,1,12.01-7.66,15.78313,15.78313,0,0,0,24.04-18.46c-2.55993-6.54-7.48993-8.97-16.05993-8.94"/>
      <path class="cls-1" d="M450.69,36.11547c4,.08,11.42.15,22.22.01h.05c4.93-.02,8.9.72,12.11,2.46a16.28429,16.28429,0,0,1,7.51,8.92,19.61049,19.61049,0,0,1-29.71,23.05,4.05578,4.05578,0,0,0-2.07-.54,4.17988,4.17988,0,0,0-2.17.64,4.02728,4.02728,0,0,0-1.48,1.69,4.16145,4.16145,0,0,0-.37,2.24,2.73111,2.73111,0,0,0,.77,1.54,19.20678,19.20678,0,0,0,2.9,2.33v.01a27.498,27.498,0,1,0,14-50.41h-.12l-24,.2Zm22.32,7.66c-17.39.23-26.08-.1-26.11-.1a3.83247,3.83247,0,0,1-3.69-3.66h0l-.7-15.39a3.83181,3.83181,0,0,1,3.66-3.99h.3l27.69-.23h0a35.15411,35.15411,0,1,1-18.07,64.35l-.1-.07-.01.01a25.602,25.602,0,0,1-4.1-3.41,10.032,10.032,0,0,1-2.72-5.83,11.753,11.753,0,0,1,17.8-11.36l.27.18h0a11.93985,11.93985,0,0,0,18.19-13.97,9.03874,9.03874,0,0,0-4.03-4.96C479.38,44.23547,476.62,43.76547,473.01,43.77547Z"/>
      <polygon class="cls-2" points="441.57 120.395 452.02 116.415 506.64 249.815 496.19 253.795 441.57 120.395"/>
      <path class="cls-3" d="M450.32,120.34546l-4.72,1.8,52.3,127.72,4.72-1.8Zm-9.84-2.81,10.44-3.99a3.06872,3.06872,0,0,1,3.96,1.78l.04.12,54.54,133.21a3.054,3.054,0,0,1-1.67,3.99l-.07.03v.01l-10.44,3.99a3.0721,3.0721,0,0,1-3.96-1.77l-.04-.12-54.54-133.21a3.054,3.054,0,0,1,1.67-3.99l.07-.05Z"/>
      <path class="cls-5" d="M500.98,223.64547a18.29,18.29,0,1,1-18.29,18.29,18.29165,18.29165,0,0,1,18.29-18.29"/>
      <path class="cls-3" d="M511.74,231.17547a15.2095,15.2095,0,1,0,4.46,10.76,15.1845,15.1845,0,0,0-4.46-10.76m-10.76-10.6a21.373,21.373,0,1,1-15.11,6.26A21.29711,21.29711,0,0,1,500.98,220.57546Z"/>
      <path class="cls-6" d="M500.98,233.86547a8.08,8.08,0,1,1-8.08,8.08,8.08314,8.08314,0,0,1,8.08-8.08"/>
      <path class="cls-3" d="M423,36.60547l-9.11,3.2,29.65,84.47,9.11-3.2Zm-15.24-2.76,16.33-5.73a3.81849,3.81849,0,0,1,4.87,2.35l32.19,91.69a3.81847,3.81847,0,0,1-2.35,4.87l-16.33,5.73a3.82663,3.82663,0,0,1-4.87-2.35l-32.19-91.69A3.81823,3.81823,0,0,1,407.76,33.84547Z"/>
      <path class="cls-7" d="M413.57,14.86547a10.69,10.69,0,1,1-10.69,10.69,10.695,10.695,0,0,1,10.69-10.69"/>
      <path class="cls-8" d="M418.95,20.16547a7.6289,7.6289,0,1,0,2.23,5.39,7.58623,7.58623,0,0,0-2.23-5.39m-5.38-8.37a13.7593,13.7593,0,1,1-9.73,4.03A13.717,13.717,0,0,1,413.57,11.79547Z"/>
      <rect class="cls-9" x="401.20632" y="27.31328" width="30.72829" height="15.55912" transform="matrix(0.94855, -0.31662, 0.31662, 0.94855, 10.3202, 133.69902)"/>
      <path class="cls-9" d="M426.77,26.71547l-23.34,7.79,2.99,8.96,23.34-7.79Zm-28.18,2.95,29.14-9.73a3.05412,3.05412,0,0,1,3.87,1.93l4.93,14.76a3.0541,3.0541,0,0,1-1.93,3.87l-29.15,9.73a3.05411,3.05411,0,0,1-3.87-1.93l-4.93-14.76A3.06352,3.06352,0,0,1,398.59,29.66547Z"/>
      <rect class="cls-3" x="431.21401" y="110.52961" width="30.73031" height="15.56015" transform="translate(-12.79339 167.3707) rotate(-20.93426)"/>
      <path class="cls-3" d="M456.37,109.52547l-22.98,8.79,3.37,8.82,22.98-8.79Zm-28.03,4.16,28.7-10.98a3.0479,3.0479,0,0,1,3.95,1.76l5.56,14.54a3.04789,3.04789,0,0,1-1.76,3.95l-28.7,10.98a3.05611,3.05611,0,0,1-3.95-1.76l-5.56-14.54A3.07183,3.07183,0,0,1,428.34,113.68548Z"/>
      <path class="cls-5" d="M281.35,238.11547a33.22,33.22,0,1,1-33.22,33.22,33.216,33.216,0,0,1,33.22-33.22"/>
      <path class="cls-9" d="M125.47,227.18548a3.05651,3.05651,0,1,1,.53-6.09l155.61,13.98a3.05651,3.05651,0,0,1-.53,6.09Z"/>
      <path class="cls-9" d="M120.67,263.18548a3.06726,3.06726,0,0,1,1.68-5.9l148.81,42.45a3.06727,3.06727,0,0,1-1.68,5.9Z"/>
      <path class="cls-9" d="M301.59,251.10546a28.63253,28.63253,0,1,0,8.38,20.24,28.52043,28.52043,0,0,0-8.38-20.24m-20.24-17.59a37.82945,37.82945,0,1,1-26.75,11.08A37.69579,37.69579,0,0,1,281.35,233.51546Z"/>
      <rect class="cls-10" x="276.66363" y="216.47779" width="8.67" height="61.30989" transform="matrix(0.9905, -0.1375, 0.1375, 0.9905, -31.31181, 40.98471)"/>
      <rect class="cls-10" x="271.72775" y="192.70025" width="12.17036" height="40.37115" transform="matrix(0.137, -0.99057, 0.99057, 0.137, 28.875, 458.9149)"/>
      <path class="cls-11" d="M281.35,261.27547a10.07,10.07,0,1,1-10.07,10.07,10.07195,10.07195,0,0,1,10.07-10.07"/>
      <path class="cls-5" d="M121.51,223.64547a18.29,18.29,0,1,1-18.29,18.29,18.29164,18.29164,0,0,1,18.29-18.29"/>
      <path class="cls-9" d="M132.28,231.17547a15.20958,15.20958,0,1,0,4.46,10.76,15.18451,15.18451,0,0,0-4.46-10.76m-10.77-10.6a21.373,21.373,0,1,1-15.11,6.26A21.29722,21.29722,0,0,1,121.51,220.57546Z"/>
      <path class="cls-6" d="M121.51,233.86547a8.08,8.08,0,1,1-8.08,8.08,8.08314,8.08314,0,0,1,8.08-8.08"/>
    </g>
  </g>
</svg>
