<?xml version="1.0" encoding="utf-8"?>
<!-- Generator: Adobe Illustrator 23.0.2, SVG Export Plug-In . SVG Version: 6.00 Build 0)  -->
<svg version="1.1" id="Layer_1" xmlns="http://www.w3.org/2000/svg" xmlns:xlink="http://www.w3.org/1999/xlink" x="0px" y="0px"
	 viewBox="0 0 675 1200" style="enable-background:new 0 0 675 1200;" xml:space="preserve">
<style type="text/css">
	.st0{fill-rule:evenodd;clip-rule:evenodd;}
	.st1{fill:#EAD7B9;}
	.st2{fill:#D2DCEA;}
	.st3{fill:#354053;}
	.st4{fill:#3B70B7;}
	.st5{fill:#D3C2A9;}
	.st6{fill:#8B8B8B;}
</style>
<g>
	<polygon class="st0" points="381.81,573.07 478.86,620.43 468.41,723.39 374.57,657.59 	"/>
	<path class="st0" d="M496.65,718.53c0.66-25.32,0.43-97.46,0.43-97.46c-7.05,0.19-13.92,0.87-20.6,3.15c0,0-6.99,74.33-8.38,99.17
		C474.38,724.29,494.19,721.03,496.65,718.53z"/>
	<polygon class="st0" points="381.57,573.01 472.88,624.98 497.08,621.1 400.51,571.31 	"/>
	<path class="st0" d="M451.27,568.76l6.65-2.49c9.02,3.69,10.51,19.05,7.89,40.02l-12.76,2.51
		C458.83,579.12,454.67,575.88,451.27,568.76z"/>
	<path class="st0" d="M424.87,560.45c0.11-0.58-0.23-0.88-4.58,1.38c-8.27,4.3-9.16,11.86-10.13,24.65l10.73-3.5
		c0.41-9.96,0.73-13.11,3.73-14.66l0-1.91C424.73,564.71,424.68,561.46,424.87,560.45z"/>
</g>
<path d="M436.61,1068.04c-1.47,1.92-0.37,7.01-0.37,7.01s25.81,3.18,34.09,1.11c2.16-0.54,5.8-2.53,9.22-4.63
	c0.59-0.37,1.6-2.49,2.15-2.85c1.05-0.66,1.59,0.45,2.47-0.15c2.3-1.56,3.91-2.76,3.93-2.92c2.22-12.74-0.8-17.88-0.8-17.88
	s-21.99-7.94-26.09-2.48C451.57,1058.13,439.83,1063.83,436.61,1068.04z"/>
<path d="M300.7,1051.48l-3.83,20.62h-10.06c0,0-1.13-2.93-2.85-2.93c-1.46,0-3.33,2.93-5.32,2.93c-4.29,0-9.05,0-10.95,0
	c-3.82,0-40.93,0-40.93,0s-0.93-4.34,0.2-5.83c0.57-0.77,3.99-2.11,6.26-2.76c10.54-3.06,40.69-12.59,45.94-22.97
	C285.55,1027.91,300.7,1051.48,300.7,1051.48z"/>
<path class="st1" d="M485.58,468.25l-67.81,92.13c0,0,7.89-0.15,13.11,6.81c6.85,9.15,5.75-8.9,9.6-11.11
	c15.52-8.95,44.45-25.73,57.76-39.87c17.5-18.59,29.68-40.73,29.68-40.73L485.58,468.25z"/>
<polygon class="st1" points="441.13,597.46 462.63,585.72 465.17,583.1 462.19,578.39 457.47,578.96 458.29,565.2 435.77,561.27 
	424.23,555.97 434.89,593.28 "/>
<path class="st2" d="M321.88,292.94c0,0,19.73,21.36-41.02,77.73c-60.76,56.39-71.83,39.89-71.83,39.89l-18.36-12.01l-13.62-62.74
	l29.33-6.68l3.18,3.7c0,0,6.31,0.61,9.48-3.8c3.16-4.42,23.28-19.25,52.29-55.89C284.73,256.26,318.1,288.8,321.88,292.94z"/>
<path class="st1" d="M177.52,337.22c0,0-20.76-10.27-37.72-38.69c-7.3-12.23-17.39-25.3-19.04-46.53
	c-1.64-20.97-25.17,22.06-25.17,22.06s19.24,53.94,29.66,69.78c13.61,20.69,65.24,68.36,79.48,59.11
	C218.96,393.7,177.52,337.22,177.52,337.22z"/>
<path class="st3" d="M280.88,1051.57c0,0,11.62,16.55,20.16,1.08c19.71-35.68,48.98-123.81,49.96-163.91
	c1.42-57.51-8.51-97.51-8.51-97.51l-62.38-20L280.88,1051.57z"/>
<path class="st3" d="M282.95,507.67l-2.84,263.56L336.82,802c0,0,34.03-62.88,38.28-143.15c1.81-34.08,2.7-110.52-16.71-136.51
	C332.11,487.11,282.95,507.67,282.95,507.67z"/>
<path class="st3" d="M303.64,507.67l9.27,91.24l25.19,98.95l26.83,92.49l95.79,256.71l27.88,2.23c0,0-3.52-192.7-37.54-248.9
	c-18-29.74-17.98-95.73-26.31-166.8c-1.49-12.8,5.89-41.72,4.69-53.4c-4.69-46.05-38.73-70.04-38.02-79.78L303.64,507.67z"/>
<path class="st2" d="M282.9,511.59l113.38-2.2l50.65-148.46c0,0,32.85-89.76-30.11-90.91c-62.97-1.16-135.53-1.16-135.53-1.16
	S234.53,352.49,282.9,511.59z"/>
<path class="st4" d="M348.76,286.4c0,0-47.86,81.05-45.13,194.02c0.21,8.54,15.72,24.46,15.72,24.46l22.97-25.81
	C342.32,479.07,332.29,371.52,348.76,286.4z"/>
<polygon class="st4" points="350.81,283.83 354.92,312.07 391.27,270.47 391.27,265.11 "/>
<polygon class="st4" points="338.57,265.11 328.05,301.63 349.08,283.83 "/>
<path class="st2" d="M442.19,359.77l36.39,105.96l7.37,3.35l-3.87,6.86l41.69,9.02l17.32-33.78l-52.18-143.9
	c0,0-19.52-30.48-61.36-36.66C397.2,266.13,439.54,350.96,442.19,359.77z"/>
<path class="st5" d="M395.89,239.25c-1.43,6.63-3.89,16.91-6.62,22.9c-4.25,9.36-41.11,21.41-46.79,22.75
	c-5.67,1.33,1.42-28.1,1.42-34.78c0-5.11,3.36-3.52-0.68-10.87H395.89z"/>
<path class="st1" d="M332.9,224.36c-0.93,5.73,3.04,11.12,8.87,12.05l47.54,7.48c5.83,0.92,11.32-2.98,12.25-8.71l11.3-69.19
	c0.93-5.73-3.03-11.13-8.87-12.04l-47.53-7.49c-5.83-0.92-11.32,2.98-12.26,8.71L332.9,224.36z"/>
<path class="st6" d="M412.63,197.88c0,0,11.53-25.46,11.48-33.45c-0.06-8-0.06-13.54-9.58-15.93c-14.29-3.58-14.96-0.59-21.29-6.02
	c-6.34-5.44-17.3-17.85-21.49-19.58c-6.98-2.87-18.74-2.29-21.37,11.05c-1.94,9.84-8.69,11.27-8.58,11.66
	c0.37,1.3,2.83,2.85,7.07,5.84c12.15,8.57,19.85,11.12,30.4,10.12c10.55-1,30.32-3.64,31.32,4.05c0.99,7.7-3.55,30.05-2.96,31.92
	C408.24,199.41,410.66,198.91,412.63,197.88z"/>
<path class="st1" d="M394.27,216.28c-0.31,1.91,1.01,3.72,2.96,4.03l10.27,1.62c1.95,0.31,3.77-0.99,4.09-2.91l3.01-18.45
	c0.31-1.91-1.01-3.71-2.96-4.02l-10.27-1.62c-1.94-0.31-3.77,1-4.08,2.9L394.27,216.28z"/>
<path class="st1" d="M333.02,206.63c-0.31,1.91,1,3.71,2.96,4.01l10.27,1.62c1.95,0.3,3.77-0.99,4.09-2.91l3.01-18.45
	c0.31-1.9-1.01-3.71-2.95-4.02l-10.27-1.62c-1.94-0.31-3.78,0.99-4.09,2.9L333.02,206.63z"/>
<path class="st6" d="M407.09,203.22c0,0-4.45,27.24-5.94,36.33c-1.34,8.21-7.61,25.71-54.82,18.27
	c-27.95-4.41-23.63-24.43-22.55-31.05c0.83-5.04,9.11-19.25,12.53-21.68c0.11-0.09-1.84,11.24-1.84,11.24s7.6-10.03,20.89-7.94
	c21.43,3.38,24.29,16.47,33.77,17.74C396.43,227.1,403.79,216.32,407.09,203.22z"/>
<path class="st1" d="M361.27,227.64l-14.68-2.31c-1.94-0.31-3.27-2.11-2.95-4.02l0.33-2.02l21.71,3.42l-0.32,2.02
	C365.03,226.64,363.2,227.95,361.27,227.64z"/>
<g>
	<path class="st1" d="M101.73,271.87c0,0,18.43-13.54,19.03-19.87c0.59-6.31,1.22-29.47,1.22-29.47l-0.39-5.89
		c0,0-6.74-2.72-7,12.85c-0.26,15.57-4.27,8.19-4.27,8.19l-5.12-13.8l-7.64-16.35l-2.43-7.75c0,0-1.04-4.53-2.23-5.32
		c-3.41-2.31-4.09,1.3-4.09,1.3l6.84,31.09l-14.22-26.42c0,0-2.41-3.04-4.43-2.32c-1.9,0.68-1.39,1.82-1.39,1.82l8.8,34.19
		l-8.92-12.69c0,0-2.44-2.92-4.44-2.31c-2.18,0.66-2.8,0.79-2.8,0.79l27.32,54.14L101.73,271.87z"/>
	<path class="st1" d="M89.92,228.07l-11.13-17.93c0,0-2.02-4.32-4.26-5.64c-2.56-1.52-4.11,0.76-4.11,0.76l14.02,28.88L89.92,228.07
		z"/>
</g>
</svg>
