<?xml version="1.0" encoding="utf-8"?>
<!-- Generator: Adobe Illustrator 23.0.1, SVG Export Plug-In . SVG Version: 6.00 Build 0)  -->
<svg version="1.1" id="Layer_1" xmlns="http://www.w3.org/2000/svg" xmlns:xlink="http://www.w3.org/1999/xlink" x="0px" y="0px"
	 viewBox="0 0 235 235" style="enable-background:new 0 0 235 235;" xml:space="preserve">
<style type="text/css">
	.st0{clip-path:url(#SVGID_2_);}
	.st1{fill-rule:evenodd;clip-rule:evenodd;}
	.st2{fill:#EAD7B9;}
	.st3{fill:#D2DCEA;}
	.st4{fill:#354053;}
	.st5{fill:#3B70B7;}
	.st6{fill:#D3C2A9;}
	.st7{fill:#8B8B8B;}
</style>
<title>c11</title>
<g>
	<g id="Layer_1-2">
		<g>
			<defs>
				<rect id="SVGID_1_" x="-0.8" y="-20.7" width="234.7" height="256.2"/>
			</defs>
			<clipPath id="SVGID_2_">
				<use xlink:href="#SVGID_1_"  style="overflow:visible;"/>
			</clipPath>
			<g class="st0">
				<g>
					<g>
						<polygon class="st1" points="154.2,224.1 201.6,247.2 196.5,297.5 150.7,265.3 						"/>
						<path class="st1" d="M210.3,295.1c0.3-12.4,0.2-47.6,0.2-47.6c-3.4,0-6.8,0.5-10.1,1.5c0,0-3.4,36.3-4.1,48.4
							C199.4,297.9,209.1,296.3,210.3,295.1z"/>
						<polygon class="st1" points="154.1,224 198.7,249.4 210.5,247.5 163.4,223.2 						"/>
						<path class="st1" d="M188.1,222l3.2-1.2c4.4,1.8,5.1,9.3,3.9,19.5l-6.2,1.2C191.8,227,189.8,225.4,188.1,222z"/>
						<path class="st1" d="M175.3,217.9c0.1-0.3-0.1-0.4-2.2,0.7c-4,2.1-4.5,5.8-4.9,12l5.2-1.7c0.2-4.9,0.4-6.4,1.8-7.2l0-0.9
							C175.2,220,175.2,218.4,175.3,217.9z"/>
					</g>
					<path d="M181,465.8c-0.7,0.9-0.2,3.4-0.2,3.4s12.6,1.6,16.7,0.5c1.6-0.6,3.1-1.3,4.5-2.3c0.3-0.2,0.8-1.2,1.1-1.4
						c0.5-0.3,0.8,0.2,1.2-0.1c0.7-0.4,1.3-0.9,1.9-1.4c1.1-6.2-0.4-8.7-0.4-8.7S195,452,193,454.6
						C188.3,460.9,182.6,463.7,181,465.8z"/>
					<path d="M114.6,457.7l-1.9,10.1h-4.9c0,0-0.6-1.4-1.4-1.4c-0.7,0-1.6,1.4-2.6,1.4H78.5c0,0-0.5-2.1,0.1-2.8
						c0.9-0.6,2-1.1,3.1-1.3c5.1-1.5,19.9-6.1,22.4-11.2C107.2,446.2,114.6,457.7,114.6,457.7z"/>
					<path class="st2" d="M204.9,172.9l-33.1,45c2.5,0.1,4.9,1.3,6.4,3.3c3.3,4.5,2.8-4.3,4.7-5.4c7.6-4.4,21.7-12.6,28.2-19.5
						c5.6-6.1,10.4-12.7,14.5-19.9L204.9,172.9z"/>
					<polygon class="st2" points="183.2,236 193.7,230.2 194.9,229 193.5,226.7 191.2,226.9 191.6,220.2 180.6,218.3 174.9,215.7 
						180.1,233.9 					"/>
					<path class="st3" d="M125,87.3c0,0,9.6,10.4-20,38c-29.7,27.5-35.1,19.5-35.1,19.5l-9-5.9l-6.6-30.6l14.3-3.3l1.6,1.8
						c0,0,3.1,0.3,4.6-1.9c1.5-2.2,11.4-9.4,25.5-27.3C106.8,69.3,123.1,85.2,125,87.3z"/>
					<path class="st2" d="M54.5,108.9c0,0-10.1-5-18.4-18.9c-3.6-6-8.5-12.4-9.3-22.7C25.9,57,14.4,78,14.4,78s9.4,26.3,14.5,34.1
						c6.6,10.1,31.9,33.4,38.8,28.9C74.7,136.5,54.5,108.9,54.5,108.9z"/>
					<path class="st4" d="M104.9,457.7c0,0,5.7,8.1,9.8,0.5c9.6-17.4,23.9-60.5,24.4-80c0.7-28.1-4.2-47.6-4.2-47.6l-30.5-9.8
						L104.9,457.7z"/>
					<path class="st4" d="M105.9,192.1l-1.4,128.7l27.7,15c0,0,16.6-30.7,18.7-69.9c0.9-16.6,1.3-54-8.2-66.7
						C130,182.1,105.9,192.1,105.9,192.1z"/>
					<path class="st4" d="M116.1,192.1l4.5,44.6l12.3,48.3l13.1,45.2l46.8,125.4l13.6,1.1c0,0-1.7-94.1-18.3-121.6
						c-8.8-14.5-8.8-46.7-12.8-81.5c-0.7-6.3,2.9-20.4,2.3-26.1c-2.3-22.5-18.9-34.2-18.6-39L116.1,192.1z"/>
					<path class="st3" d="M105.9,194l55.4-1.1l24.7-72.5c0,0,16-43.8-14.7-44.4c-30.8-0.6-66.2-0.6-66.2-0.6S82.3,116.3,105.9,194z"
						/>
					<path class="st5" d="M138.1,84.1c0,0-23.4,39.6-22,94.8c0.1,4.2,7.7,11.9,7.7,11.9l11.2-12.6C134.9,178.2,130,125.6,138.1,84.1
						z"/>
					<polygon class="st5" points="139.1,82.8 141.1,96.6 158.8,76.3 158.8,73.7 					"/>
					<polygon class="st5" points="133.1,73.7 128,91.5 138.2,82.8 					"/>
					<path class="st3" d="M183.7,119.9l17.8,51.7l3.6,1.6l-1.9,3.3l20.4,4.4l8.5-16.5l-25.5-70.3c-7.2-9.8-18-16.2-30-17.9
						C161.7,74.2,182.4,115.6,183.7,119.9z"/>
					<path class="st6" d="M161.1,61c-0.7,3.8-1.8,7.6-3.2,11.2c-2.1,4.6-20.1,10.5-22.8,11.1c-2.8,0.7,0.7-13.7,0.7-17
						c0-2.5,1.6-1.7-0.3-5.3L161.1,61z"/>
					<path class="st2" d="M130.3,53.8c-0.4,2.8,1.5,5.4,4.3,5.9c0,0,0,0,0,0l23.2,3.7c2.8,0.5,5.5-1.4,6-4.3l5.5-33.8
						c0.4-2.8-1.5-5.4-4.3-5.9c0,0,0,0,0,0l-23.2-3.7c-2.8-0.5-5.5,1.4-6,4.3L130.3,53.8z"/>
					<path class="st7" d="M169.3,40.8c0,0,5.6-12.4,5.6-16.3c0-3.9,0-6.6-4.7-7.8c-7-1.7-7.3-0.3-10.4-2.9
						c-3.1-2.7-8.4-8.7-10.5-9.6c-3.4-1.4-9.1-1.1-10.4,5.4c-0.3,2.5-1.9,4.6-4.2,5.7c0.2,0.6,1.4,1.4,3.5,2.9
						c5.9,4.2,9.7,5.4,14.8,4.9c5.2-0.5,14.8-1.8,15.3,2c0.5,3.8-1.7,14.7-1.4,15.6C167.1,41.6,168.3,41.3,169.3,40.8z"/>
					<path class="st2" d="M160.3,49.8c-0.1,0.9,0.5,1.8,1.4,2c0,0,0,0,0,0l5,0.8c0.9,0.2,1.8-0.5,2-1.4l1.5-9c0.1-0.9-0.5-1.8-1.4-2
						c0,0,0,0,0,0l-5-0.8c-0.9-0.2-1.8,0.5-2,1.4L160.3,49.8z"/>
					<path class="st2" d="M130.4,45.1c-0.1,0.9,0.5,1.8,1.4,2c0,0,0,0,0,0l5,0.8c0.9,0.2,1.8-0.5,2-1.4l1.5-9c0.1-0.9-0.5-1.8-1.4-2
						c0,0,0,0,0,0l-5-0.8c-0.9-0.2-1.8,0.5-2,1.4L130.4,45.1z"/>
					<path class="st7" d="M166.6,43.4c0,0-2.2,13.3-2.9,17.7c-0.7,4-3.7,12.6-26.8,8.9c-13.7-2.2-11.5-11.9-11-15.2
						c0.4-2.5,4.4-9.4,6.1-10.6c0.1,0-0.9,5.5-0.9,5.5c2.5-3,6.4-4.5,10.2-3.9c10.5,1.7,11.9,8,16.5,8.7
						C161.4,55.1,165,49.8,166.6,43.4z"/>
					<path class="st2" d="M144.2,55.4l-7.2-1.1c-0.9-0.1-1.6-1-1.4-1.9c0,0,0,0,0,0l0.2-1l10.6,1.7l-0.2,1
						C146,54.9,145.1,55.5,144.2,55.4z"/>
					<g>
						<path class="st2" d="M17.4,77c0,0,9-6.6,9.3-9.7c0.3-3.1,0.6-14.4,0.6-14.4L27.1,50c0,0-3.3-1.3-3.4,6.3c-0.1,7.6-2.1,4-2.1,4
							l-2.5-6.7l-3.7-8l-1.2-3.8c0,0-0.5-2.2-1.1-2.6c-1.7-1.1-2,0.6-2,0.6L14.5,55L7.5,42.1c0,0-1.2-1.5-2.2-1.1
							c-0.9,0.3-0.7,0.9-0.7,0.9L9,58.5l-4.4-6.2c0,0-1.2-1.4-2.2-1.1c-1.1,0.3-1.4,0.4-1.4,0.4L14.4,78L17.4,77z"/>
						<path class="st2" d="M11.7,55.6l-5.4-8.8c-0.5-1.1-1.2-2-2.1-2.8c-0.7-0.4-1.6-0.3-2,0.4L9,58.5L11.7,55.6z"/>
					</g>
				</g>
			</g>
		</g>
	</g>
</g>
</svg>
