<?xml version="1.0" encoding="utf-8"?>
<!-- Generator: Adobe Illustrator 23.0.2, SVG Export Plug-In . SVG Version: 6.00 Build 0)  -->
<svg version="1.1" id="Layer_1" xmlns="http://www.w3.org/2000/svg" xmlns:xlink="http://www.w3.org/1999/xlink" x="0px" y="0px"
	 viewBox="0 0 1577.85 1200" style="enable-background:new 0 0 1577.85 1200;" xml:space="preserve">
<style type="text/css">
	.st0{fill:#706B68;stroke:#706B68;stroke-linecap:round;stroke-linejoin:round;stroke-miterlimit:10;}
	.st1{fill:#F2F0F0;}
	.st2{fill:#706B68;stroke:#706B68;stroke-miterlimit:10;}
	.st3{fill:#3B70B7;}
	.st4{fill:none;}
	.st5{fill:#F7F9FD;}
	.st6{fill:#F7EC21;}
	.st7{fill:#706B68;}
	.st8{fill:#363533;stroke:#363533;stroke-linecap:round;stroke-linejoin:round;stroke-miterlimit:10;}
	.st9{fill:#363533;stroke:#363533;stroke-miterlimit:10;}
	.st10{fill:#3D71B7;}
	.st11{fill:#363533;}
</style>
<circle class="st0" cx="480.29" cy="405.74" r="76.85"/>
<path class="st1" d="M422.13,405.74c0,33.23,27,58.17,58.17,58.17c33.23,0,58.17-24.92,58.17-58.17c0-33.23-27-58.17-58.17-58.17
	S422.13,372.51,422.13,405.74z M469.91,391.2l-27-8.31c6.23-10.39,14.53-18.7,27-20.78V391.2z M519.76,382.9l-27,8.31v-29.09
	C503.15,364.2,513.53,372.51,519.76,382.9z M498.98,411.98l27-8.31v2.08c0,10.39-4.16,20.78-10.39,29.09L498.98,411.98z
	 M463.67,447.29l16.62-22.84l16.62,22.84c-4.16,2.08-10.39,4.16-16.62,4.16C476.14,451.44,469.91,451.44,463.67,447.29z
	 M434.59,405.74v-2.08l27,8.31l-16.62,22.84C438.75,426.52,434.59,418.21,434.59,405.74z"/>
<circle class="st2" cx="1171.35" cy="405.74" r="76.85"/>
<path class="st3" d="M370.2,424.44h12.47c-2.08-6.23-2.08-12.47-2.08-18.7c0-54.01,43.62-99.71,99.71-99.71
	c54.01,0,99.71,43.62,99.71,99.71c0,10.39,0,20.78-4.16,31.17h502.7c-2.08-10.39-4.16-20.78-4.16-31.17
	c0-54.01,43.62-99.71,99.71-99.71c54.01,0,99.71,43.62,99.71,99.71c0,10.39,0,18.7-4.16,29.09l116.33-2.08l4.16-14.53l-16.62-6.23
	v-27h10.39c0,0,2.08-33.23-20.78-47.78c-22.84-14.53-64.4-43.62-141.25-62.32c-76.85-18.7-155.8-18.7-218.12-14.53
	c-62.32,2.08-124.63,8.31-236.82,0c-112.18-8.31-203.57-29.09-313.67-29.09s-151.64,0-151.64,0l-29.09-12.47l8.31,54.01l-8.31,16.62
	C272.56,289.41,249.71,424.44,370.2,424.44z"/>
<path class="st3" d="M1003.77,263.09c-62.32,2.08-124.63,8.31-234.73-2.08c-112.18-8.31-203.57-29.09-313.67-29.09
	c-45.7,0-78.93,0-103.86,0C422.13,207,567.54,161.3,735.8,161.3c0,0,62.32,0,124.63,29.09c41.54,18.7,110.1,51.93,151.64,70.63
	C1007.93,261.01,1005.85,263.09,1003.77,263.09z"/>
<path class="st4" d="M766.97,263.09c-51.93-4.16-99.71-10.39-147.49-16.62v-62.32c105.94-12.47,166.19,8.31,166.19,8.31
	l126.72,66.48c4.16,2.08,6.23,6.23,10.39,8.31C881.21,269.32,833.43,269.32,766.97,263.09z"/>
<path class="st5" d="M1000.34,262.41c4.16,0,6.23,0,8.31,0c-41.54-20.78-110.1-51.93-151.64-70.63
	c-12.47-6.23-24.92-10.39-37.39-14.53l-14.53,6.23l151.64,78.93C971.27,260.34,983.72,260.34,1000.34,262.41z"/>
<path class="st6" d="M1242.66,279.04c2.08,20.78,22.84,49.85,110.1,49.85C1329.9,314.35,1296.67,293.57,1242.66,279.04z"/>
<path class="st1" d="M1115.95,405.74c0,33.23,27,58.17,58.17,58.17c33.23,0,58.17-24.92,58.17-58.17c0-33.23-27-58.17-58.17-58.17
	S1115.95,372.51,1115.95,405.74z M1161.65,391.2l-27-8.31c6.23-10.39,14.53-18.7,27-20.78V391.2z M1213.58,382.9l-27,8.31v-29.09
	C1196.96,364.2,1207.35,372.51,1213.58,382.9z M1192.8,411.98l27-8.31v2.08c0,10.39-4.16,20.78-10.39,29.09L1192.8,411.98z
	 M1157.49,447.29l16.62-22.84l16.62,22.84c-4.16,2.08-10.39,4.16-16.62,4.16C1167.88,451.44,1161.65,451.44,1157.49,447.29z
	 M1128.42,405.74v-2.08l27,8.31l-16.62,22.84C1132.56,426.52,1128.42,418.21,1128.42,405.74z"/>
<circle class="st7" cx="1174.12" cy="405.74" r="8.31"/>
<path class="st8" d="M378.51,405.74c0,6.23,0,12.47,2.08,18.7l24.92,2.08c0-6.23-2.08-12.47-2.08-20.78
	c0-41.54,35.31-76.85,76.85-76.85s76.85,35.31,76.85,76.85c0,10.39-2.08,20.78-6.23,29.09l18.7,2.08h6.23
	c2.08-10.39,4.16-20.78,4.16-31.17c0-54.01-43.62-99.71-99.71-99.71C426.28,306.04,380.58,351.73,378.51,405.74z"/>
<path class="st9" d="M1072.33,405.74c0,10.39,0,20.78,4.16,31.17h2.08h22.84c-4.16-10.39-6.23-20.78-6.23-31.17
	c0-41.54,35.31-76.85,76.85-76.85s76.85,35.31,76.85,76.85c0,10.39,0,18.7-4.16,27h24.92c2.08-8.31,4.16-18.7,4.16-27
	c0-54.01-43.62-99.71-99.71-99.71C1118.01,306.03,1074.41,351.73,1072.33,405.74z"/>
<path class="st5" d="M769.03,250.62c-43.62-4.16-85.18-10.39-124.63-14.53L631.93,234v-37.39c16.62-2.08,35.31-2.08,51.93-2.08
	c56.09,0,89.32,8.31,95.55,10.39l33.23,16.62l6.23,31.17C802.28,252.7,785.66,250.62,769.03,250.62z"/>
<path class="st10" d="M872.9,254.78h2.08l-62.32-33.23l6.23,31.17C837.59,254.78,856.29,254.78,872.9,254.78z"/>
<circle class="st7" cx="480.29" cy="406.42" r="8.31"/>
<polygon class="st11" points="351.51,349.02 170.78,349.02 351.51,335.86 "/>
<polygon class="st11" points="351.51,376.02 57.68,376.02 351.51,358.47 "/>
<polygon class="st11" points="351.61,402.21 151.03,398.96 351.51,387.03 "/>
</svg>
