<?xml version="1.0" encoding="utf-8"?>
<!-- Generator: Adobe Illustrator 23.0.1, SVG Export Plug-In . SVG Version: 6.00 Build 0)  -->
<svg version="1.1" id="Layer_1" xmlns="http://www.w3.org/2000/svg" xmlns:xlink="http://www.w3.org/1999/xlink" x="0px" y="0px"
	 viewBox="0 0 558.1 400" style="enable-background:new 0 0 558.1 400;" xml:space="preserve">
<style type="text/css">
	.st0{fill:#706B68;stroke:#706B68;stroke-linecap:round;stroke-linejoin:round;stroke-miterlimit:10;}
	.st1{fill:#F2F0F0;}
	.st2{fill:#706B68;stroke:#706B68;stroke-miterlimit:10;}
	.st3{fill:#3B70B7;}
	.st4{fill:none;}
	.st5{fill:#F7F9FD;}
	.st6{fill:#F7EC21;}
	.st7{fill:#706B68;}
	.st8{fill:#363533;stroke:#363533;stroke-linecap:round;stroke-linejoin:round;stroke-miterlimit:10;}
	.st9{fill:#363533;stroke:#363533;stroke-miterlimit:10;}
	.st10{fill:#3D71B7;}
	.st11{fill:#363533;}
</style>
<g>
	<ellipse class="st0" cx="175.1" cy="352.8" rx="31.8" ry="37.3"/>
	<path class="st1" d="M151.1,352.8c0,16.1,11.2,28.2,24.1,28.2c13.8,0,24.1-12.1,24.1-28.2c0-16.1-11.2-28.2-24.1-28.2
		C162.2,324.6,151.1,336.7,151.1,352.8z M170.8,345.7l-11.2-4c2.6-5,6-9.1,11.2-10.1V345.7z M191.5,341.7l-11.2,4v-14.1
		C184.6,332.7,188.9,336.7,191.5,341.7z M182.9,355.8l11.2-4v1c0,5-1.7,10.1-4.3,14.1L182.9,355.8z M168.3,372.9l6.9-11.1l6.9,11.1
		c-1.7,1-4.3,2-6.9,2C173.4,374.9,170.8,374.9,168.3,372.9z M156.2,352.8v-1l11.2,4l-6.9,11.1C157.9,362.9,156.2,358.8,156.2,352.8z
		"/>
	<ellipse class="st2" cx="461.4" cy="352.8" rx="31.8" ry="37.3"/>
	<path class="st3" d="M129.5,361.9h5.2c-0.9-3-0.9-6-0.9-9.1c0-26.2,18.1-48.3,41.3-48.3c22.4,0,41.3,21.1,41.3,48.3
		c0,5,0,10.1-1.7,15.1H423c-0.9-5-1.7-10.1-1.7-15.1c0-26.2,18.1-48.3,41.3-48.3c22.4,0,41.3,21.1,41.3,48.3c0,5,0,9.1-1.7,14.1
		l48.2-1l1.7-7l-6.9-3v-13.1h4.3c0,0,0.9-16.1-8.6-23.2c-9.5-7-26.7-21.1-58.5-30.2c-31.8-9.1-64.5-9.1-90.4-7
		c-25.8,1-51.6,4-98.1,0c-46.5-4-84.3-14.1-129.9-14.1s-62.8,0-62.8,0l-12.1-6l3.4,26.2l-3.4,8.1C89.1,296.4,79.6,361.9,129.5,361.9
		z"/>
	<path class="st3" d="M392,283.6c-25.8,1-51.6,4-97.2-1c-46.5-4-84.3-14.1-129.9-14.1c-18.9,0-32.7,0-43,0
		c29.3-12.1,89.5-34.2,159.2-34.2c0,0,25.8,0,51.6,14.1c17.2,9.1,45.6,25.2,62.8,34.2C393.7,282.6,392.9,283.6,392,283.6z"/>
	<path class="st4" d="M293.9,283.6c-21.5-2-41.3-5-61.1-8.1v-30.2c43.9-6,68.8,4,68.8,4l52.5,32.2c1.7,1,2.6,3,4.3,4
		C341.2,286.7,321.4,286.7,293.9,283.6z"/>
	<path class="st5" d="M390.6,283.3c1.7,0,2.6,0,3.4,0c-17.2-10.1-45.6-25.2-62.8-34.2c-5.2-3-10.3-5-15.5-7l-6,3l62.8,38.3
		C378.5,282.3,383.7,282.3,390.6,283.3z"/>
	<path class="st6" d="M491,291.4c0.9,10.1,9.5,24.2,45.6,24.2C527.1,308.5,513.4,298.4,491,291.4z"/>
	<path class="st1" d="M438.5,352.8c0,16.1,11.2,28.2,24.1,28.2c13.8,0,24.1-12.1,24.1-28.2c0-16.1-11.2-28.2-24.1-28.2
		S438.5,336.7,438.5,352.8z M457.4,345.7l-11.2-4c2.6-5,6-9.1,11.2-10.1V345.7z M478.9,341.7l-11.2,4v-14.1
		C472,332.7,476.3,336.7,478.9,341.7z M470.3,355.8l11.2-4v1c0,5-1.7,10.1-4.3,14.1L470.3,355.8z M455.7,372.9l6.9-11.1l6.9,11.1
		c-1.7,1-4.3,2-6.9,2C460,374.9,457.4,374.9,455.7,372.9z M443.7,352.8v-1l11.2,4l-6.9,11.1C445.4,362.9,443.7,358.8,443.7,352.8z"
		/>
	<ellipse class="st7" cx="462.6" cy="352.8" rx="3.4" ry="4"/>
	<path class="st8" d="M133,352.8c0,3,0,6,0.9,9.1l10.3,1c0-3-0.9-6-0.9-10.1c0-20.1,14.6-37.3,31.8-37.3c17.2,0,31.8,17.1,31.8,37.3
		c0,5-0.9,10.1-2.6,14.1l7.7,1h2.6c0.9-5,1.7-10.1,1.7-15.1c0-26.2-18.1-48.3-41.3-48.3C152.8,304.5,133.8,326.6,133,352.8z"/>
	<path class="st9" d="M420.4,352.8c0,5,0,10.1,1.7,15.1h0.9h9.5c-1.7-5-2.6-10.1-2.6-15.1c0-20.1,14.6-37.3,31.8-37.3
		s31.8,17.1,31.8,37.3c0,5,0,9.1-1.7,13.1h10.3c0.9-4,1.7-9.1,1.7-13.1c0-26.2-18.1-48.3-41.3-48.3
		C439.3,304.5,421.3,326.6,420.4,352.8z"/>
	<path class="st5" d="M294.8,277.6c-18.1-2-35.3-5-51.6-7l-5.2-1v-18.1c6.9-1,14.6-1,21.5-1c23.2,0,37,4,39.6,5l13.8,8.1l2.6,15.1
		C308.5,278.6,301.7,277.6,294.8,277.6z"/>
	<path class="st10" d="M337.8,279.6h0.9l-25.8-16.1l2.6,15.1C323.2,279.6,330.9,279.6,337.8,279.6z"/>
	<ellipse class="st7" cx="175.1" cy="353.1" rx="3.4" ry="4"/>
	<polygon class="st11" points="121.8,325.3 46.9,325.3 121.8,318.9 	"/>
	<polygon class="st11" points="121.8,338.4 0.1,338.4 121.8,329.9 	"/>
	<polygon class="st11" points="121.8,351.1 38.7,349.5 121.8,343.7 	"/>
</g>
</svg>
