<?xml version="1.0" encoding="utf-8"?>
<!-- Generator: Adobe Illustrator 23.0.2, SVG Export Plug-In . SVG Version: 6.00 Build 0)  -->
<svg version="1.1" id="Layer_1" xmlns="http://www.w3.org/2000/svg" xmlns:xlink="http://www.w3.org/1999/xlink" x="0px" y="0px"
	 viewBox="0 0 1188.34 1200" style="enable-background:new 0 0 1188.34 1200;" xml:space="preserve">
<style type="text/css">
	.st0{fill:#765045;}
	.st1{fill:#29783C;}
	.st2{fill:#356230;}
	.st3{fill:#8FC642;}
	.st4{fill:#F04E25;}
	.st5{fill:#C3DA56;}
	.st6{fill:#096A37;}
	.st7{fill:#37964A;}
	.st8{fill:#638B3C;}
</style>
<path class="st0" d="M256.22,1038.99h923.65c0,0-54.98-115.28-252.9-109.29c0,0-27.49-50.34-175.93-55.33c0,0-71.47-24.18-241.91,0
	S327.69,897.32,300.2,931.1c0,0-120.95,5.21-175.93,39.39s-104.46,20.98-104.46,55.43L256.22,1038.99z"/>
<g>
	<g>
		<g>
			<path class="st1" d="M604.5,797.5c4.01,3.62,3.02,11.72,2.28,15.57c-0.32,0.13-0.69,0.14-1.1-0.16c0.14-2.36,0.2-6.03-0.52-8.55
				c-1.03-3.63-2.95-4.81-2.95-4.81C602.36,797.18,604.5,797.5,604.5,797.5z"/>
		</g>
	</g>
	<g>
		<path class="st2" d="M547.32,366.52c0,0-39.34-6.93-53.28,26.47c0,0,14.16,3.67,17.72,0.93c0,0-24.78,18.27-24.68,45.73
			c0,0,13.13-6.07,17.86-7.29c0,0-15.6,14.44-4.21,32.38c0,0,6.4-10.6,9.45-12.95c0,0-2.96,8.77,11.7,22.56c0,0,0.07-4.11,3.64-6.85
			c0,0,15.07,14.31,23.79,14.06c0,0-12.76-24.98-5.14-30.85c3.05-2.35,7.08,1.83,10.21,5.9s0.85-24.12-3.02-25.99
			s8.56-2.55,11.53-0.79c2.98,1.76-5.77-19.06-3.85-24.98s3.45,3.42,14.64,5.34C584.84,412.07,562,366.82,547.32,366.52z"/>
	</g>
	<g>
		<g>
			<path class="st3" d="M547.86,351.08c-39.33,43.47-17.89,106.56-17.89,106.56c-0.24-0.63-24.33-63.66,15.91-108.15L547.86,351.08z
				"/>
		</g>
	</g>
	<g>
		<path class="st4" d="M563.88,687.59c-3.87-13.12-16.07-23.82-29.83-24.88c-2.92-0.23-13.2-4.96-15.28-7.03
			c-9.78-9.75-25.85-12.03-38.33-6.42c-14.81,6.67-24.66,20.15-29.03,35.13c-5.56,19.03-1.22,35.82,14.71,49.78
			c8.89,7.79,13.61,7.96,20.68,11.21c7.08,3.25,10.28,6.72,21.98,8.38c20.95,2.99,36.52-4.65,47.35-21.27
			C564.66,719.44,568.47,703.17,563.88,687.59z"/>
	</g>
	<g>
		<g>
			<path class="st4" d="M563.88,687.59c-3.87-13.12-16.07-23.82-29.83-24.88c-2.92-0.23-13.2-4.96-15.28-7.03
				c-3.22-3.21-7.13-5.59-11.36-7.16c6.06,4.55,2.38,13.18,24.16,21.3c20.25,7.53,21.35,43.25-0.79,62.09
				c-13.75,11.69-41.99,10.9-72.05-5.43c2.11,2.66,4.55,5.23,7.38,7.71c8.89,7.79,13.61,7.96,20.68,11.21
				c7.08,3.25,10.28,6.72,21.98,8.38c20.95,2.99,36.52-4.65,47.35-21.27C564.66,719.44,568.47,703.17,563.88,687.59z"/>
		</g>
	</g>
	<g>
		<path class="st1" d="M528.07,654.56c0.32-5.8-3.15-10.97-8.16-13.91c1.4,3.59,2.29,6.52,1.2,11.14
			c-2.05-2.82-8.97-7.35-14.38-6.32c5.16,3.11,7.6,5.7,9.09,10.78c0,0-3.15,1.03-4.64,3.08c-1.06,1.46-2.28,5.37-2.28,5.37
			c5.54-3.22,12.43,2.89,15.08-1.92c0,0,7.52,5.37,8.06,12.52c4.05-7.25,1.03-10.25,1.03-10.25c4.63-0.92,10.33,3.87,13.51,6.72
			c-0.77-4.68-4.7-10.17-9.84-11.74c3.58-2.64,7.95-3.04,12.15-1.59C543.77,653.6,535.1,649.72,528.07,654.56L528.07,654.56z"/>
	</g>
	<g>
		<g>
			<path class="st1" d="M541.12,636.66c-8.97,2.18-14.05,15.14-16.05,21.53c0.37,0.46,0.93,0.77,1.78,0.66
				c1.7-3.65,4.6-9.22,7.71-12.42c4.48-4.6,8.34-4.84,8.34-4.84C544.58,637.92,541.12,636.66,541.12,636.66z"/>
		</g>
	</g>
	<g>
		<path class="st4" d="M474.23,725.27c-2.05,0-4.08-0.85-5.54-2.51c-14.36-16.31-12.45-32.45-8.31-43.11
			c4.27-11,11.8-18.27,12.12-18.58c2.95-2.82,7.62-2.71,10.43,0.23c2.81,2.94,2.72,7.59-0.21,10.41c-0.11,0.11-5.73,5.67-8.72,13.68
			c-3.72,9.95-1.83,18.99,5.77,27.63c2.69,3.06,2.39,7.72-0.66,10.41C477.7,724.65,475.97,725.27,474.23,725.27z"/>
	</g>
	<g>
		<path class="st4" d="M637.98,560.48c-1.45-12.89,5.28-26.72,16.93-32.73c2.46-1.27,9.72-9.18,10.77-11.76
			c4.97-12.12,18.17-20.02,31.14-19.69c15.4,0.39,28.97,8.55,38.3,20.04c11.86,14.61,14.22,30.88,5.44,48.92
			c-4.9,10.08-8.97,11.96-13.95,17.42c-5,5.44-6.53,9.65-16.14,15.41c-17.23,10.31-33.64,9.35-49.21-1.2
			C649.01,588.61,639.7,575.79,637.98,560.48z"/>
	</g>
	<g>
		<g>
			<path class="st4" d="M637.98,560.48c-1.45-12.89,5.28-26.72,16.93-32.73c2.46-1.27,9.72-9.18,10.77-11.76
				c1.63-3.98,4.18-7.5,7.29-10.44c-3.62,6.2,2.76,12.39-13.29,27.5c-14.94,14.04-2.76,45.66,23.5,53.98
				c16.31,5.17,40.72-5.9,60.98-31.22c-0.86,3.09-2.06,6.24-3.62,9.45c-4.9,10.08-8.97,11.96-13.95,17.42
				c-5,5.44-6.53,9.65-16.14,15.41c-17.23,10.31-33.64,9.35-49.21-1.2C649.01,588.61,639.7,575.79,637.98,560.48z"/>
		</g>
	</g>
	<g>
		<path class="st1" d="M657.14,518.44c-2.39-4.96-1.27-10.74,2.02-15.15c0.09,3.65,0.39,6.53,3.05,10.18
			c0.74-3.21,5.14-9.72,10.25-10.81c-3.37,4.61-4.55,7.78-3.98,12.78c0,0,3.14-0.26,5.2,0.99c1.46,0.89,3.97,3.87,3.97,3.87
			c-6.02-0.77-9.8,7.09-13.89,3.87c0,0-4.61,7.46-2.45,13.91c-6.22-4.84-4.67-8.58-4.67-8.58c-4.38,0.9-7.6,7.18-9.34,10.84
			c-1.05-4.38,0.36-10.61,4.28-13.88c-4.1-0.99-8.06,0.27-11.2,3.08C643.06,523.38,649.22,516.8,657.14,518.44L657.14,518.44z"/>
	</g>
	<g>
		<g>
			<path class="st1" d="M639.15,507.6c8.64-1.39,17.85,8.06,21.96,12.92c-0.16,0.53-0.53,1.02-1.32,1.23
				c-2.84-2.56-7.4-6.37-11.3-8.02c-5.61-2.36-9.07-1.16-9.07-1.16C636.59,509.96,639.15,507.6,639.15,507.6z"/>
		</g>
	</g>
	<g>
		<path class="st4" d="M727.49,561.4c-0.77,0-1.58-0.13-2.35-0.39c-3.87-1.3-5.94-5.49-4.64-9.35
			c8.19-24.38-16.46-34.12-17.52-34.52c-3.81-1.46-5.71-5.73-4.25-9.52c1.46-3.81,5.73-5.71,9.52-4.25
			c0.39,0.16,9.72,3.78,17.56,11.89c7.62,7.88,15.3,21.41,8.68,41.12C733.45,559.45,730.57,561.4,727.49,561.4z"/>
	</g>
	<g>
		<path class="st4" d="M720.36,798.98c-9.17-7.08-22.86-8.36-32.84-2.26c-2.12,1.29-11.53,3.17-13.98,2.78
			c-11.56-1.83-23.72,4.58-29.49,14.64c-6.85,11.93-6.92,26.09-2.48,38.54c5.64,15.83,16.97,25.19,34.83,26.85
			c9.97,0.93,13.31-1.29,19.78-2.58c6.47-1.29,10.4-0.5,19.26-5.17c15.87-8.36,22.76-21.34,21.93-38.13
			C736.73,820.45,731.26,807.39,720.36,798.98z"/>
	</g>
	<g>
		<g>
			<path class="st4" d="M720.36,798.98c-9.17-7.08-22.86-8.36-32.84-2.26c-2.12,1.29-11.53,3.17-13.98,2.78
				c-3.81-0.6-7.68-0.3-11.36,0.73c6.42,0.11,8.18,7.86,27.17,2.61c17.64-4.88,36.15,19.08,30.31,42.99
				c-3.62,14.85-23.4,28.34-52.15,32.08c2.76,0.77,5.71,1.33,8.89,1.62c9.97,0.93,13.31-1.29,19.78-2.58
				c6.47-1.29,10.4-0.5,19.26-5.17c15.87-8.36,22.76-21.34,21.93-38.13C736.73,820.45,731.26,807.39,720.36,798.98z"/>
		</g>
	</g>
	<g>
		<path class="st1" d="M679.37,794.1c-2.66-4.12-7.62-5.97-12.5-5.49c2.75,1.76,4.81,3.32,6.36,7.06c-2.81-0.92-9.81-0.59-13,2.82
			c5.08-0.43,8.05,0.13,11.6,2.89c0,0-1.65,2.28-1.65,4.43c-0.01,1.53,1.12,4.83,1.12,4.83c2.21-4.97,9.97-4.2,9.4-8.81
			c0,0,7.83-0.06,11.76,4.58c-0.82-6.99-4.38-7.55-4.38-7.55c2.72-2.92,9.01-2.48,12.6-2.11c-2.86-2.84-8.28-4.64-12.59-3.17
			c1.15-3.58,3.95-6.03,7.55-7.12C689.68,785.63,681.8,787.3,679.37,794.1L679.37,794.1z"/>
	</g>
	<g>
		<g>
			<path class="st1" d="M679.44,775.34c-5.07,5.94-2.12,17.37-0.32,22.76c0.47,0.13,1.02,0.07,1.55-0.43
				c-0.64-3.35-1.43-8.61-0.87-12.35c0.79-5.39,3.31-7.46,3.31-7.46C682.43,774.48,679.44,775.34,679.44,775.34z"/>
		</g>
	</g>
	<g>
		<path class="st4" d="M673.9,871.7c-0.54,0-1.09-0.06-1.63-0.19c-18.52-4.18-25.42-16.6-27.96-26.28
			c-2.55-9.74-1.12-18.32-0.95-19.26c0.73-4.01,4.58-6.65,8.59-5.93c4,0.73,6.65,4.55,5.94,8.55c-0.42,2.45-3.45,23.76,17.63,28.52
			c3.98,0.9,6.47,4.86,5.57,8.82C680.31,869.38,677.26,871.7,673.9,871.7z"/>
	</g>
	<g>
		<path class="st5" d="M792.35,863.92c-8.16-8.22-21.57-11.27-32.27-6.53c-2.28,1-11.84,1.63-14.22,0.93
			c-11.23-3.32-24.12,1.45-31.15,10.66c-8.35,10.94-10.27,24.96-7.49,37.88c3.54,16.43,13.53,27.2,31.02,31.18
			c9.77,2.23,13.36,0.46,19.94,0.03c6.59-0.43,10.37,0.86,19.76-2.62c16.83-6.23,25.35-18.19,26.71-34.95
			C805.77,887.35,802.05,873.69,792.35,863.92z"/>
	</g>
	<g>
		<path class="st1" d="M758.55,853.74c2.11-4.44,6.77-6.9,11.69-7.08c-2.49,2.11-4.34,3.92-5.39,7.83
			c2.65-1.27,9.64-1.86,13.26,1.09c-5.1,0.24-7.96,1.19-11.13,4.38c0,0,1.93,2.03,2.22,4.17c0.2,1.52-0.47,4.93-0.47,4.93
			c-2.84-4.63-10.43-2.85-10.47-7.5c0,0-7.78,0.97-11.06,6.09c-0.1-7.03,3.35-8.06,3.35-8.06c-3.08-2.55-9.25-1.27-12.78-0.43
			c2.46-3.18,7.59-5.69,12.07-4.78c-1.6-3.41-4.7-5.47-8.42-6.07C747.24,846.69,755.27,847.29,758.55,853.74L758.55,853.74z"/>
	</g>
	<g>
		<path class="st6" d="M755.48,857.2c-16.87-77.48-54.71-91.96-55.08-92.09c-18.36-7.08-35.17-6.5-50.01,1.69
			c-39.24,21.7-52.89,89.67-53.02,90.36l-4.14-0.8c0.03-0.17,3.52-17.79,11.96-37.9c7.83-18.69,21.68-43.47,43.17-55.34
			c15.98-8.84,33.99-9.5,53.52-1.96c1.6,0.57,40.37,15.4,57.73,95.14L755.48,857.2z"/>
	</g>
	<g>
		<path class="st6" d="M760.69,777.59c-0.3-0.24-30.21-24.08-58.81-12.5l-1.58-3.91c12.85-5.2,27.84-4.55,43.35,1.85
			c11.62,4.8,19.36,11.03,19.68,11.29L760.69,777.59z"/>
	</g>
	<g>
		<path class="st6" d="M678.22,791.78l-3.62-2.15c0.1-0.17,9.74-16.86,0.1-30.35l3.44-2.45
			C689.38,772.59,678.68,791.01,678.22,791.78z"/>
	</g>
	<g>
		<path class="st5" d="M408.47,487.79c8.16-8.22,21.57-11.27,32.27-6.53c2.26,1,11.84,1.63,14.22,0.93
			c11.23-3.32,24.12,1.45,31.15,10.66c8.35,10.94,10.27,24.96,7.48,37.88c-3.54,16.43-13.53,27.2-31.02,31.18
			c-9.77,2.23-13.35,0.46-19.94,0.03c-6.59-0.43-10.37,0.86-19.76-2.61c-16.83-6.22-25.35-18.19-26.72-34.95
			C395.06,511.21,398.77,497.55,408.47,487.79z"/>
	</g>
	<g>
		<path class="st1" d="M442.27,477.6c-2.11-4.44-6.77-6.92-11.69-7.08c2.49,2.12,4.34,3.94,5.39,7.83
			c-2.65-1.27-9.64-1.86-13.26,1.09c5.1,0.24,7.96,1.19,11.13,4.38c0,0-1.93,2.03-2.22,4.17c-0.2,1.52,0.47,4.93,0.47,4.93
			c2.84-4.63,10.43-2.86,10.47-7.5c0,0,7.78,0.96,11.06,6.09c0.1-7.03-3.37-8.06-3.37-8.06c3.08-2.55,9.25-1.27,12.78-0.43
			c-2.46-3.18-7.59-5.69-12.07-4.78c1.6-3.41,4.7-5.47,8.42-6.07C453.58,470.55,445.56,471.17,442.27,477.6L442.27,477.6z"/>
	</g>
	<g>
		<g>
			<path class="st1" d="M444.79,459.01c-5.8,5.23-4.38,16.94-3.29,22.51c0.46,0.19,1,0.2,1.59-0.23c-0.2-3.41-0.29-8.72,0.74-12.36
				c1.49-5.24,4.27-6.96,4.27-6.96C447.87,458.53,444.79,459.01,444.79,459.01z"/>
		</g>
	</g>
	<g>
		<path class="st6" d="M445.36,464.72l-4.12-0.9c17.36-79.74,56.14-94.57,57.78-95.17c31.98-12.35,60.2-2.32,81.56,29l-3.48,2.38
			c-20.42-29.93-46.2-39.16-76.61-27.43C500.07,372.77,462.17,387.51,445.36,464.72z"/>
	</g>
	<g>
		<path class="st6" d="M440.13,385.11l-2.66-3.28c0.33-0.26,8.06-6.5,19.68-11.3c15.53-6.4,30.52-7.05,43.35-1.85l-1.58,3.91
			C470.34,361.04,440.43,384.86,440.13,385.11z"/>
	</g>
	<g>
		<path class="st1" d="M589.44,940.56l-6.26-0.87c0.16-1.15,15.95-115.97,16.61-257.04c0.6-129.99-11.89-309.47-74.79-426.37
			l5.57-2.99c63.55,118.09,76.15,298.73,75.55,429.47C605.44,824.25,589.6,939.41,589.44,940.56z"/>
	</g>
	<g>
		<path class="st4" d="M605.61,279.55c-12.29-6.02-28.41-4.24-38.5,5.18c-2.13,1.99-12.57,6.39-15.5,6.53
			c-13.81,0.63-26.34,10.93-30.62,23.92c-5.08,15.42-1.8,31.81,6.29,45.14c10.28,16.96,25.59,25.09,46.65,22.79
			c11.74-1.29,15.07-4.65,22.24-7.68c7.18-3.02,11.9-3.05,21.04-10.56c16.36-13.43,21.24-30.08,16.3-49.28
			C629.61,300.49,620.19,286.7,605.61,279.55z"/>
	</g>
	<g>
		<g>
			<path class="st4" d="M605.61,279.55c-12.29-6.02-28.41-4.24-38.5,5.18c-2.13,1.99-12.57,6.39-15.5,6.53
				c-4.54,0.21-8.94,1.48-12.96,3.54c7.45-1.39,11.31,7.15,32.02-3.44c19.23-9.84,46.32,13.48,45.24,42.51
				c-0.67,18.05-20.34,38.34-52.66,49.47c3.38,0.24,6.93,0.17,10.67-0.23c11.74-1.29,15.07-4.65,22.24-7.68
				c7.18-3.02,11.9-3.05,21.04-10.56c16.36-13.43,21.24-30.08,16.3-49.28C629.61,300.49,620.19,286.7,605.61,279.55z"/>
		</g>
	</g>
	<g>
		<path class="st1" d="M557.06,283.65c-4.07-4.14-10.21-5.1-15.77-3.38c3.59,1.39,6.36,2.71,9.02,6.65
			c-3.45-0.4-11.47,1.65-14.38,6.34c5.77-1.7,9.35-1.76,14.11,0.59c0,0-1.37,3.02-0.86,5.51c0.36,1.78,2.43,5.3,2.43,5.3
			c1.37-6.26,10.53-7.22,8.77-12.42c0,0,9.04-1.92,14.68,2.52c-2.59-7.89-6.86-7.69-6.86-7.69c2.46-4.02,9.82-5,14.08-5.43
			c-3.98-2.59-10.67-3.41-15.31-0.67c0.47-4.43,3.14-7.91,7.05-10.03C566.95,271.42,558.25,275.2,557.06,283.65L557.06,283.65z"/>
	</g>
	<g>
		<g>
			<path class="st1" d="M552.69,261.94c-4.45,8.08,1.66,20.58,5.03,26.38c0.59,0.03,1.2-0.16,1.69-0.86
				c-1.55-3.72-3.7-9.62-3.95-14.06c-0.36-6.42,2.06-9.41,2.06-9.41C555.94,260.22,552.69,261.94,552.69,261.94z"/>
		</g>
	</g>
	<g>
		<path class="st2" d="M485.35,192.37c0,0,9.97-9.57,44.26,11.34s36.58,23.2,32.04,35.2l-13.85-5.24c0,0-7.09,24.25-14.95,29.72
			c0,0-1.46-4.48-3.59-5.83c-2.13-1.35-27.24,27.54-34.42,31.15c0,0-2.29-6.73-1.76-8.12c0.53-1.39-13.63,18.05-35.07,25.72
			c-1.85,0.66-1.83-0.72-1.83-0.72s1.78-28.36,7.71-39.83c5.93-11.47,0.96-2.53,0.96-2.53s3.05-6.63-0.14-5.2
			c-3.18,1.43,5.54-16.04,14.98-21.43c0,0,0.82-11.93-6.86-11.14c-7.68,0.79,18.59-26.77,24.02-25.77
			C502.26,200.7,485.35,192.37,485.35,192.37z"/>
	</g>
	<g>
		<g>
			<path class="st7" d="M545.29,208.26c-56.54,15.47-72.41,80.17-72.41,80.17c0.13-0.66,13.75-66.75,71.61-82.58L545.29,208.26z"/>
		</g>
	</g>
	<g>
		<path class="st8" d="M586.42,212.24c0,0,3.94-7.89,11.34-5.92s-17.27-19.74-50.81-7.4c0,0-22.7,9.38-34.53,17.76
			c-11.84,8.38,13.82,4.44,17.27,5.91c0,0-6.42,13.32-4.94,30.59c0,0,8.88,4.93,13.82,0c0,0,13.32,26.15,17.27,34.04
			c0,0,2.46-1.96,3.45-5.43c0.99-3.45,0,11.34,24.68,39.47c0,0,22.7-20.24,10.37-76.97c-12.33-56.74-0.49-2.46-0.49-2.46
			s7.91-5.43,11.84,0C605.67,241.84,604.68,217.18,586.42,212.24z"/>
	</g>
	<g>
		<g>
			<path class="st3" d="M541.06,200.28c47.39,34.52,39.3,100.64,39.3,100.64c0.11-0.67,10.8-67.28-37.68-102.6L541.06,200.28z"/>
		</g>
	</g>
	<g>
		<path class="st2" d="M547.53,450.53c0,0,10.41-9.08,43.65,13.45c33.24,22.53,35.43,24.93,30.31,36.71l-13.58-5.92
			c0,0-8.24,23.89-16.37,28.96c0,0-1.25-4.55-3.31-6s-28.53,26.2-35.86,29.47c0,0-1.96-6.83-1.37-8.19
			c0.59-1.36-14.49,17.37-36.26,24c-1.88,0.57-1.8-0.8-1.8-0.8s3.14-28.23,9.61-39.41c6.47-11.17,1.09-2.49,1.09-2.49
			s3.37-6.47,0.11-5.2c-3.25,1.27,6.32-15.75,15.98-20.7c0,0,1.37-11.87-6.32-11.46c-7.71,0.42,19.85-25.85,25.24-24.59
			C564.03,459.64,547.53,450.53,547.53,450.53z"/>
	</g>
	<g>
		<g>
			<path class="st7" d="M606.64,469.26c-57.22,12.75-76.18,76.61-76.18,76.61c0.16-0.66,16.93-66.01,75.48-79.06L606.64,469.26z"/>
		</g>
	</g>
	<g>
		<path class="st2" d="M648.62,423.9c0,0-5.1-7.2,0.13-12.79c5.23-5.6-25.55,5.92-30.51,41.32c0,0-2.43,24.43-0.63,38.83
			c1.8,14.39,10.44-10.08,13.36-12.43c0,0,8.71,11.94,24.63,18.79c0,0,8.54-5.5,6.52-12.17c0,0,29.35,0.59,38.17,0.83
			c0,0-0.57-3.09-3.15-5.6c-2.58-2.51,10,5.36,46.43-3.14c0,0-7.13-29.56-62.97-45.46c-55.84-15.9-2.41-0.73-2.41-0.73
			s-1.06-9.52,5.59-10.44C683.81,420.91,661.59,410.14,648.62,423.9z"/>
	</g>
	<g>
		<g>
			<path class="st3" d="M616.68,458.25c52.78-25.49,107.27,12.83,107.27,12.83c-0.53-0.42-54.24-41.28-108.25-15.18L616.68,458.25z"
				/>
		</g>
	</g>
	<g>
		<path class="st8" d="M627.46,461.07c0,0,3.94-7.89,11.34-5.92c7.4,1.98-17.26-19.74-50.81-7.4c0,0-22.7,9.38-34.53,17.76
			c-11.84,8.38,13.82,4.44,17.27,5.92c0,0-6.42,13.32-4.94,30.59c0,0,8.88,4.93,13.82,0c0,0,13.32,26.15,17.27,34.04
			c0,0,2.46-1.96,3.45-5.43c0.99-3.45,0,11.34,24.68,39.47c0,0,22.69-20.24,10.35-76.98s-0.49-2.46-0.49-2.46s7.91-5.43,11.84,0
			C646.71,490.67,645.73,466,627.46,461.07z"/>
	</g>
	<g>
		<g>
			<path class="st3" d="M582.11,449.1c47.39,34.52,39.3,100.64,39.3,100.64c0.11-0.67,10.8-67.28-37.68-102.6L582.11,449.1z"/>
		</g>
	</g>
	<g>
		<path class="st2" d="M637.35,605.66c0,0-5.01-7.26,0.29-12.79c5.3-5.53-25.62,5.59-31.02,40.92c0,0-2.75,24.4-1.12,38.83
			c1.62,14.42,10.56-9.95,13.52-12.26c0,0,8.56,12.06,24.4,19.09c0,0,8.61-5.39,6.67-12.1c0,0,29.33,0.96,38.15,1.32
			c0,0-0.53-3.11-3.08-5.64s9.93,5.47,46.47-2.55c0,0-6.76-29.65-62.4-46.25c-55.64-16.6-2.39-0.76-2.39-0.76s-0.93-9.54,5.71-10.37
			C672.57,603.12,650.48,592.06,637.35,605.66z"/>
	</g>
	<g>
		<g>
			<path class="st3" d="M604.97,639.61c53.11-24.83,107.1,14.19,107.1,14.19c-0.53-0.42-53.71-41.95-108.05-16.54L604.97,639.61z"/>
		</g>
	</g>
	<g>
		<path class="st2" d="M706.09,709.61c0,0-7.65-4.4-5.24-11.67c2.41-7.28-20.71,16.07-10.37,50.3c0,0,8.03,23.2,15.7,35.52
			c7.68,12.32,5.24-13.53,6.92-16.9c0,0,12.92,7.19,30.25,6.73c0,0,5.44-8.58,0.82-13.79c0,0,26.88-11.76,35-15.24
			c0,0-1.82-2.56-5.21-3.77c-3.39-1.19,11.33,0.67,40.85-22.3c0,0-18.86-23.85-76.24-14.87c-57.36,8.98-2.49,0.34-2.49,0.34
			s-4.96-8.21,0.7-11.82C736.78,692.14,712.09,691.68,706.09,709.61z"/>
	</g>
	<g>
		<g>
			<path class="st3" d="M691.48,754.18c37.24-45.27,102.77-33.31,102.77-33.31c-0.66-0.16-66.54-14.74-104.64,31.59L691.48,754.18z"
				/>
		</g>
	</g>
	<g>
		<path class="st2" d="M621.95,877.58c0,0-5.01-7.26,0.3-12.79c5.3-5.53-25.62,5.59-31.02,40.92c0,0-2.75,24.4-1.13,38.83
			c1.62,14.42,10.57-9.95,13.52-12.26c0,0,8.56,12.06,24.4,19.09c0,0,8.61-5.4,6.67-12.1c0,0,29.33,0.96,38.15,1.32
			c0,0-0.53-3.11-3.08-5.64s9.93,5.47,46.47-2.55c0,0-6.76-29.65-62.4-46.25c-55.64-16.6-2.39-0.76-2.39-0.76s-0.93-9.54,5.71-10.37
			C657.17,875.03,635.08,863.98,621.95,877.58z"/>
	</g>
	<g>
		<g>
			<path class="st3" d="M589.57,911.51c53.11-24.83,107.1,14.19,107.1,14.19c-0.53-0.42-53.71-41.95-108.05-16.54L589.57,911.51z"/>
		</g>
	</g>
	<g>
		<path class="st2" d="M536.68,905.74c0,0-3.65-8.03-11.11-6.33c-7.46,1.7,17.97-19.09,51.06-5.54c0,0,22.34,10.2,33.87,19.01
			c11.53,8.81-13.96,3.94-17.47,5.28c0,0,5.93,13.55,3.82,30.75c0,0-9.05,4.6-13.81-0.5c0,0-14.26,25.65-18.49,33.4
			c0,0-2.39-2.06-3.25-5.54c-0.86-3.49-0.42,11.34-26.09,38.55c0,0-21.94-21.05-7.56-77.3c14.39-56.26,0.59-2.45,0.59-2.45
			s-7.69-5.7-11.83-0.43C516.37,934.63,518.25,910.01,536.68,905.74z"/>
	</g>
	<g>
		<g>
			<path class="st3" d="M582.44,895.43c-48.61,32.75-42.92,99.15-42.92,99.15c-0.09-0.67-8.35-67.64,41.39-101.17L582.44,895.43z"/>
		</g>
	</g>
	<g>
		<path class="st8" d="M644.51,682.93c0,0,1.98-8.59,9.64-8.42c7.66,0.17-21.43-15.12-51.13,4.77c0,0-19.85,14.47-29.39,25.39
			c-9.54,10.94,14.48,1.06,18.17,1.69c0,0-3.11,14.45,2.41,30.89c0,0,9.78,2.71,13.42-3.25c0,0,19.11,22.27,24.81,29.02
			c0,0,1.93-2.49,2.08-6.09c0.14-3.59,2.66,11.03,33.27,32.55c0,0,17.3-25.01-8.05-77.25c-25.35-52.25-1.06-2.28-1.06-2.28
			s6.4-7.13,11.51-2.79C670.17,707.16,663.41,683.43,644.51,682.93z"/>
	</g>
	<g>
		<g>
			<path class="st3" d="M597.6,681.97c54.18,22.39,61.89,88.55,61.89,88.55c-0.04-0.67-5.34-67.93-60.78-90.84L597.6,681.97z"/>
		</g>
	</g>
	<g>
		<path class="st8" d="M548.25,775.95c0,0-0.42-8.81-7.99-10c-7.56-1.19,23.76-11.09,49.48,13.75c0,0,16.97,17.74,24.42,30.19
			c7.45,12.46-14.44-1.52-18.19-1.56c0,0,0.5,14.78-7.83,29.98c0,0-10.11,0.93-12.63-5.57c0,0-22.74,18.55-29.55,24.18
			c0,0-1.46-2.79-0.97-6.36c0.49-3.57-4.58,10.38-38.51,26.15c0,0-12.59-27.67,21.6-74.6c34.2-46.93,1.45-2.05,1.45-2.05
			s-5.04-8.15-10.83-4.78C518.69,795.27,529.56,773.1,548.25,775.95z"/>
	</g>
	<g>
		<g>
			<path class="st3" d="M594.58,783.33c-57.29,12.43-76.59,76.21-76.59,76.21c0.17-0.66,17.29-65.92,75.91-78.66L594.58,783.33z"/>
		</g>
	</g>
	<g>
		<path class="st2" d="M581.86,589.22c0,0,7.45-4.73,4.74-11.89c-2.71-7.16,21.38,15.18,12.5,49.81c0,0-7.05,23.53-14.19,36.15
			c-7.15,12.63-5.81-13.29-7.63-16.58c0,0-12.6,7.73-29.93,8.01c0,0-5.8-8.34-1.39-13.75c0,0-27.36-10.61-35.62-13.73
			c0,0,1.7-2.65,5.04-3.98s-11.29,1.15-41.76-20.57c0,0,17.83-24.62,75.53-18.07c57.7,6.55,2.51,0.24,2.51,0.24s4.6-8.41-1.2-11.77
			C550.47,573.07,575.12,571.56,581.86,589.22z"/>
	</g>
	<g>
		<g>
			<path class="st3" d="M598.35,633.13c-39.11-43.65-104.09-28.93-104.09-28.93c0.66-0.17,65.85-17.54,105.88,27.13L598.35,633.13z"
				/>
		</g>
	</g>
	<g>
		<path class="st4" d="M460.44,403.88c-2.29-7.78-9.52-14.12-17.69-14.75c-1.73-0.14-7.83-2.94-9.07-4.17
			c-5.8-5.79-15.32-7.13-22.71-3.81c-8.78,3.95-14.62,11.94-17.22,20.82c-3.29,11.29-0.72,21.24,8.72,29.52
			c5.27,4.63,8.06,4.73,12.26,6.66c4.2,1.93,6.1,3.98,13.03,4.97c12.43,1.78,21.65-2.76,28.07-12.62
			C460.9,422.76,463.16,413.12,460.44,403.88z"/>
	</g>
	<g>
		<g>
			<path class="st4" d="M460.44,403.88c-2.29-7.78-9.52-14.12-17.69-14.75c-1.73-0.14-7.83-2.94-9.07-4.17
				c-1.9-1.9-4.23-3.32-6.73-4.25c3.59,2.69,1.4,7.81,14.32,12.63c12,4.47,12.66,25.65-0.47,36.81c-8.15,6.93-24.91,6.46-42.72-3.22
				c1.25,1.58,2.69,3.11,4.37,4.57c5.27,4.63,8.06,4.73,12.26,6.66c4.2,1.93,6.1,3.98,13.03,4.97c12.43,1.78,21.65-2.76,28.07-12.62
				C460.9,422.76,463.16,413.12,460.44,403.88z"/>
		</g>
	</g>
	<g>
		<path class="st1" d="M439.2,384.29c0.19-3.44-1.86-6.5-4.84-8.25c0.83,2.13,1.36,3.87,0.72,6.6c-1.22-1.68-5.31-4.35-8.54-3.75
			c3.05,1.85,4.51,3.38,5.39,6.4c0,0-1.88,0.62-2.75,1.83c-0.63,0.86-1.35,3.18-1.35,3.18c3.28-1.9,7.38,1.72,8.94-1.13
			c0,0,4.47,3.18,4.78,7.42c2.41-4.3,0.62-6.07,0.62-6.07c2.75-0.54,6.12,2.29,8.01,3.98c-0.46-2.78-2.78-6.03-5.84-6.96
			c2.12-1.56,4.71-1.8,7.2-0.95C448.51,383.72,443.37,381.42,439.2,384.29L439.2,384.29z"/>
	</g>
	<g>
		<path class="st4" d="M407.28,426.21c-1.22,0-2.42-0.5-3.28-1.49c-8.52-9.67-7.38-19.23-4.93-25.56
			c2.53-6.52,6.99-10.84,7.18-11.01c1.75-1.68,4.51-1.6,6.19,0.14c1.66,1.75,1.6,4.5-0.13,6.17c-0.07,0.07-3.39,3.37-5.17,8.11
			c-2.21,5.9-1.09,11.26,3.42,16.37c1.6,1.82,1.42,4.58-0.39,6.17C409.34,425.85,408.31,426.21,407.28,426.21z"/>
	</g>
	<g>
		<path class="st4" d="M602.58,763.78c-0.59-5.29,2.17-10.97,6.96-13.43c1.01-0.53,3.99-3.76,4.43-4.82
			c2.04-4.97,7.46-8.21,12.78-8.08c6.32,0.16,11.89,3.51,15.72,8.22c4.86,5.99,5.84,12.67,2.23,20.08
			c-2.01,4.13-3.68,4.91-5.73,7.14c-2.05,2.23-2.67,3.96-6.63,6.33c-7.07,4.23-13.81,3.83-20.2-0.5
			C607.11,775.32,603.29,770.06,602.58,763.78z"/>
	</g>
	<g>
		<g>
			<path class="st4" d="M602.58,763.78c-0.59-5.29,2.17-10.97,6.96-13.43c1.01-0.53,3.99-3.76,4.43-4.82
				c0.67-1.63,1.71-3.08,2.99-4.29c-1.49,2.55,1.14,5.08-5.46,11.28c-6.13,5.76-1.14,18.74,9.65,22.15
				c6.7,2.12,16.71-2.43,25.04-12.82c-0.36,1.27-0.84,2.57-1.49,3.88c-2.01,4.13-3.68,4.91-5.73,7.14
				c-2.05,2.23-2.67,3.96-6.63,6.33c-7.07,4.23-13.81,3.83-20.2-0.5C607.11,775.32,603.29,770.06,602.58,763.78z"/>
		</g>
	</g>
	<g>
		<path class="st1" d="M610.45,746.52c-0.98-2.03-0.53-4.41,0.83-6.22c0.04,1.51,0.16,2.68,1.26,4.18c0.31-1.32,2.11-3.99,4.21-4.44
			c-1.38,1.89-1.87,3.19-1.63,5.24c0,0,1.29-0.11,2.13,0.41c0.6,0.37,1.62,1.59,1.62,1.59c-2.48-0.32-4.02,2.91-5.7,1.59
			c0,0-1.89,3.06-1,5.71c-2.55-1.99-1.91-3.53-1.91-3.53c-1.8,0.38-3.12,2.94-3.83,4.45c-0.43-1.8,0.15-4.36,1.76-5.7
			c-1.68-0.41-3.31,0.11-4.6,1.27C604.68,748.55,607.2,745.85,610.45,746.52L610.45,746.52z"/>
	</g>
	<g>
		<g>
			<path class="st1" d="M603.07,742.08c3.55-0.57,7.33,3.31,9.01,5.3c-0.07,0.22-0.22,0.42-0.53,0.51
				c-1.16-1.05-3.04-2.62-4.64-3.29c-2.3-0.97-3.73-0.48-3.73-0.48C602.02,743.05,603.07,742.08,603.07,742.08z"/>
		</g>
	</g>
	<g>
		<path class="st4" d="M639.33,764.16c-0.32,0-0.64-0.05-0.96-0.16c-1.59-0.53-2.44-2.25-1.91-3.83
			c3.36-10.01-6.76-14.01-7.19-14.17c-1.57-0.59-2.35-2.35-1.74-3.91c0.59-1.57,2.35-2.34,3.91-1.74c0.16,0.06,3.99,1.56,7.2,4.87
			c3.12,3.23,6.28,8.79,3.56,16.88C641.78,763.36,640.6,764.16,639.33,764.16z"/>
	</g>
</g>
<g>
	<g>
		<g>
			<path class="st1" d="M926.5,825.1c3.14,3.19,1.91,9.85,1.11,13c-0.27,0.09-0.58,0.08-0.9-0.19c0.23-1.94,0.47-4.98,0-7.1
				c-0.67-3.05-2.2-4.13-2.2-4.13C924.74,824.73,926.5,825.1,926.5,825.1z"/>
		</g>
	</g>
	<g>
		<path class="st2" d="M900.7,465.71c0,0-32.2-7.7-45.4,19.24c0,0,11.54,3.74,14.61,1.65c0,0-21.41,13.88-22.7,36.6
			c0,0,11.17-4.37,15.14-5.14c0,0-13.62,11.16-5.1,26.58c0,0,5.83-8.45,8.47-10.24c0,0-2.89,7.1,8.55,19.24c0,0,0.26-3.4,3.35-5.48
			c0,0,11.75,12.59,18.98,12.82c0,0-9.31-21.3-2.71-25.78c2.64-1.79,5.76,1.87,8.15,5.39c2.39,3.52,1.9-19.91-1.2-21.66
			s7.21-1.68,9.58-0.08c2.38,1.61-3.82-16.06-1.94-20.86c1.88-4.8,2.68,3,11.84,5.15C929.47,505.27,912.83,466.69,900.7,465.71z"/>
	</g>
	<g>
		<g>
			<path class="st3" d="M901.92,452.96c-34.7,34-20.12,87.26-20.12,87.26c-0.17-0.53-16.95-53.88,18.56-88.67L901.92,452.96z"/>
		</g>
	</g>
	<g>
		<path class="st4" d="M898.38,732.15c-2.54-11.05-12.11-20.51-23.44-22.07c-2.41-0.34-10.68-4.76-12.29-6.58
			c-7.61-8.56-20.79-11.24-31.39-7.22c-12.58,4.78-21.41,15.44-25.77,27.62c-5.55,15.47-2.79,29.57,9.68,41.92
			c6.97,6.89,10.86,7.27,16.55,10.31c5.69,3.04,8.17,6.07,17.77,8.03c17.18,3.52,30.45-2.03,40.23-15.23
			C897.44,758.54,901.4,745.27,898.38,732.15z"/>
	</g>
	<g>
		<g>
			<path class="st4" d="M898.38,732.15c-2.54-11.05-12.11-20.51-23.44-22.07c-2.41-0.34-10.68-4.76-12.29-6.58
				c-2.51-2.81-5.62-4.98-9.04-6.49c4.78,4.07,1.31,11.02,18.93,18.82c16.38,7.24,15.51,36.85-3.75,51.32
				c-11.96,8.98-35.28,6.92-59.34-8.09c1.61,2.31,3.51,4.55,5.72,6.74c6.97,6.89,10.86,7.27,16.55,10.31
				c5.69,3.04,8.17,6.07,17.77,8.03c17.18,3.52,30.45-2.03,40.23-15.23C897.44,758.54,901.4,745.27,898.38,732.15z"/>
		</g>
	</g>
	<g>
		<path class="st1" d="M870.4,703.04c0.55-4.78-2.06-9.23-6.06-11.91c0.98,3.04,1.57,5.51,0.44,9.28
			c-1.55-2.44-7.05-6.53-11.58-5.94c4.11,2.83,6.01,5.1,6.99,9.38c0,0-2.66,0.7-3.99,2.32c-0.95,1.16-2.15,4.33-2.15,4.33
			c4.75-2.39,10.14,3.01,12.57-0.84c0,0,5.95,4.82,6.05,10.76c3.71-5.79,1.36-8.43,1.36-8.43c3.87-0.53,8.35,3.71,10.84,6.23
			c-0.41-3.91-3.38-8.65-7.55-10.21c3.09-2,6.73-2.12,10.13-0.71C883.44,703.03,876.46,699.39,870.4,703.04L870.4,703.04z"/>
	</g>
	<g>
		<g>
			<path class="st1" d="M882.09,688.88c-7.53,1.35-12.38,11.82-14.36,17.01c0.29,0.4,0.73,0.69,1.44,0.63
				c1.59-2.94,4.26-7.4,6.99-9.89c3.94-3.58,7.14-3.59,7.14-3.59C884.9,690.1,882.09,688.88,882.09,688.88z"/>
		</g>
	</g>
	<g>
		<path class="st4" d="M822.34,758.85c-1.69-0.1-3.33-0.9-4.46-2.35c-11.07-14.21-8.68-27.47-4.72-36.08
			c4.08-8.89,10.67-14.53,10.95-14.76c2.58-2.19,6.44-1.86,8.61,0.71c2.18,2.57,1.87,6.42-0.7,8.6c-0.1,0.09-5.02,4.41-7.9,10.88
			c-3.58,8.05-2.46,15.62,3.4,23.14c2.07,2.67,1.59,6.51-1.06,8.58C825.24,758.51,823.77,758.94,822.34,758.85z"/>
	</g>
	<g>
		<path class="st4" d="M966.02,630.69c-0.55-10.74,5.71-21.85,15.64-26.23c2.1-0.93,8.5-7.11,9.5-9.19
			c4.72-9.78,16.03-15.66,26.74-14.74c12.72,1.09,23.54,8.52,30.68,18.49c9.08,12.68,10.22,26.25,2.06,40.75
			c-4.56,8.1-8.01,9.45-12.41,13.71c-4.41,4.25-5.88,7.66-14.12,11.94c-14.77,7.67-28.3,6.06-40.65-3.45
			C973.74,654.51,966.68,643.45,966.02,630.69z"/>
	</g>
	<g>
		<g>
			<path class="st4" d="M966.02,630.69c-0.55-10.74,5.71-21.85,15.64-26.23c2.1-0.93,8.5-7.11,9.5-9.19c1.55-3.21,3.83-6,6.55-8.27
				c-3.31,4.95,1.67,10.39-12.37,22.09c-13.06,10.87-4.57,37.63,16.75,45.83c13.24,5.09,33.98-2.85,52.01-22.79
				c-0.87,2.52-2.02,5.06-3.47,7.64c-4.56,8.1-8.01,9.45-12.41,13.71c-4.41,4.25-5.88,7.66-14.12,11.94
				c-14.77,7.67-28.3,6.06-40.65-3.45C973.74,654.51,966.68,643.45,966.02,630.69z"/>
		</g>
	</g>
	<g>
		<path class="st1" d="M983.97,596.88c-1.73-4.22-0.52-8.95,2.43-12.43c-0.11,3.03-0.01,5.42,2.02,8.58
			c0.78-2.62,4.74-7.79,9.02-8.43c-3.01,3.65-4.16,6.21-3.93,10.37c0,0,2.61-0.06,4.25,1.08c1.16,0.81,3.09,3.4,3.09,3.4
			c-4.94-0.94-8.46,5.38-11.69,2.51c0,0-4.19,5.94-2.72,11.38c-4.9-4.31-3.43-7.33-3.43-7.33c-3.67,0.53-6.65,5.56-8.27,8.5
			c-0.65-3.68,0.83-8.76,4.24-11.27c-3.34-1.02-6.68-0.18-9.42,1.99C972.08,600.26,977.5,595.12,983.97,596.88L983.97,596.88z"/>
	</g>
	<g>
		<g>
			<path class="st1" d="M969.63,587.01c7.21-0.72,14.36,7.56,17.52,11.78c-0.16,0.43-0.49,0.81-1.15,0.95
				c-2.22-2.26-5.81-5.64-8.95-7.2c-4.53-2.24-7.44-1.41-7.44-1.41C967.39,588.84,969.63,587.01,969.63,587.01z"/>
		</g>
	</g>
	<g>
		<path class="st4" d="M1040.03,635.92c-0.64-0.04-1.3-0.19-1.92-0.44c-3.13-1.27-4.64-4.83-3.37-7.97
			c7.99-19.76-11.91-29.04-12.77-29.43c-3.08-1.4-4.44-5.02-3.04-8.09c1.4-3.08,5.02-4.44,8.09-3.04
			c0.31,0.15,7.86,3.61,13.93,10.71c5.91,6.9,11.59,18.48,5.13,34.45C1045.06,634.61,1042.58,636.07,1040.03,635.92z"/>
	</g>
	<g>
		<path class="st4" d="M1022.27,832.11c-7.23-6.31-18.49-8.06-27.06-3.51c-1.82,0.96-9.7,2.04-11.7,1.6
			c-9.47-2.09-19.85,2.61-25.13,10.64c-6.26,9.53-7.02,21.24-3.97,31.76c3.88,13.37,12.78,21.69,27.47,23.95
			c8.2,1.27,11.07-0.4,16.49-1.15c5.42-0.74,8.63,0.1,16.19-3.32c13.55-6.13,19.89-16.52,20.04-30.45
			C1034.74,850.69,1030.87,839.61,1022.27,832.11z"/>
	</g>
	<g>
		<g>
			<path class="st4" d="M1022.27,832.11c-7.23-6.31-18.49-8.06-27.06-3.51c-1.82,0.96-9.7,2.04-11.7,1.6
				c-3.12-0.69-6.34-0.63-9.43,0.04c5.3,0.42,6.37,6.91,22.35,3.51c14.84-3.16,28.95,17.59,22.93,37.08
				c-3.74,12.11-20.77,22.28-44.74,23.94c2.25,0.78,4.66,1.39,7.28,1.78c8.2,1.27,11.07-0.4,16.49-1.15
				c5.42-0.74,8.63,0.1,16.19-3.32c13.55-6.13,19.89-16.52,20.04-30.45C1034.74,850.69,1030.87,839.61,1022.27,832.11z"/>
		</g>
	</g>
	<g>
		<path class="st1" d="M988.61,826.03c-2-3.55-6.01-5.32-10.07-5.16c2.19,1.59,3.82,2.99,4.91,6.16c-2.28-0.9-8.09-0.98-10.9,1.69
			c4.23-0.1,6.65,0.51,9.45,2.97c0,0-1.48,1.8-1.58,3.58c-0.09,1.27,0.68,4.05,0.68,4.05c2.07-4,8.46-2.97,8.21-6.82
			c0,0,6.48,0.34,9.5,4.38c-0.33-5.82-3.25-6.46-3.25-6.46c2.4-2.28,7.58-1.6,10.53-1.11c-2.23-2.49-6.62-4.25-10.26-3.25
			c1.13-2.9,3.57-4.79,6.6-5.51C997.56,819.54,990.96,820.52,988.61,826.03L988.61,826.03z"/>
	</g>
	<g>
		<g>
			<path class="st1" d="M989.6,810.51c-4.49,4.66-2.62,14.27-1.4,18.81c0.38,0.13,0.84,0.11,1.3-0.28
				c-0.37-2.8-0.76-7.19-0.11-10.26c0.92-4.42,3.11-6.01,3.11-6.01C992.12,809.95,989.6,810.51,989.6,810.51z"/>
		</g>
	</g>
	<g>
		<path class="st4" d="M980.21,889.95c-0.45-0.03-0.9-0.1-1.34-0.24c-15.11-4.38-20.2-15-21.82-23.14
			c-1.62-8.18-0.01-15.21,0.18-15.98c0.8-3.28,4.12-5.27,7.4-4.48c3.27,0.8,5.27,4.1,4.49,7.37c-0.47,2.01-4.04,19.48,13.16,24.47
			c3.25,0.95,5.11,4.34,4.17,7.58C985.63,888.35,982.99,890.12,980.21,889.95z"/>
	</g>
	<g>
		<path class="st5" d="M1078.59,889.43c-6.34-7.21-17.28-10.4-26.37-7.01c-1.93,0.72-9.88,0.76-11.81,0.06
			c-9.12-3.31-20.02-0.01-26.3,7.26c-7.45,8.64-9.74,20.14-8.09,30.96c2.11,13.77,9.84,23.18,24.11,27.34
			c7.97,2.34,11.03,1.05,16.49,1.02c5.47-0.03,8.54,1.23,16.48-1.18c14.23-4.31,21.88-13.78,23.84-27.58
			C1088.53,909.48,1086.13,897.99,1078.59,889.43z"/>
	</g>
	<g>
		<path class="st1" d="M1051.14,879.32c1.96-3.57,5.95-5.37,10.02-5.27c-2.17,1.62-3.79,3.03-4.85,6.21
			c2.26-0.92,8.07-1.06,10.92,1.56c-4.23-0.05-6.65,0.59-9.42,3.07c0,0,1.5,1.78,1.63,3.56c0.09,1.27-0.64,4.05-0.64,4.05
			c-2.12-3.97-8.48-2.88-8.29-6.73c0,0-6.48,0.42-9.45,4.48c0.27-5.82,3.17-6.5,3.17-6.5c-2.42-2.26-7.59-1.52-10.55-0.99
			c2.2-2.51,6.56-4.32,10.23-3.35c-1.16-2.9-3.61-4.76-6.66-5.44C1042.13,872.92,1048.75,873.82,1051.14,879.32L1051.14,879.32z"/>
	</g>
	<g>
		<path class="st6" d="M1048.42,882.03c-10.09-64.94-40.67-78.81-40.97-78.93c-14.84-6.77-28.77-7.13-41.46-1.1
			c-33.55,15.99-48.23,71.54-48.37,72.11l-3.38-0.87c0.03-0.14,3.8-14.54,11.78-30.75c7.41-15.07,20.11-34.88,38.47-43.63
			c13.66-6.51,28.59-6.16,44.38,1.05c1.3,0.55,32.63,14.75,43.01,81.59L1048.42,882.03z"/>
	</g>
	<g>
		<path class="st6" d="M1056.7,816.43c-0.24-0.22-23.79-21.42-48.03-13.28l-1.11-3.31c10.89-3.66,23.26-2.38,35.77,3.69
			c9.37,4.55,15.47,10.09,15.72,10.32L1056.7,816.43z"/>
	</g>
	<g>
		<path class="st6" d="M987.77,824.05l-2.89-1.96c0.09-0.14,8.9-13.46,1.6-25.1l2.97-1.85
			C997.96,808.73,988.19,823.44,987.77,824.05z"/>
	</g>
	<g>
		<path class="st5" d="M779.78,559.11c7.16-6.39,18.41-8.25,27.02-3.79c1.82,0.94,9.72,1.94,11.72,1.48
			c9.45-2.19,19.88,2.4,25.24,10.37c6.36,9.47,7.25,21.16,4.29,31.71c-3.75,13.41-12.55,21.82-27.22,24.25
			c-8.19,1.36-11.07-0.29-16.49-0.97s-8.62,0.19-16.22-3.14c-13.61-5.98-20.06-16.31-20.37-30.24
			C767.52,577.81,771.27,566.7,779.78,559.11z"/>
	</g>
	<g>
		<path class="st1" d="M808.25,552.36c-1.52-3.78-5.26-6.06-9.32-6.44c1.96,1.88,3.39,3.47,4.06,6.75
			c-2.13-1.19-7.88-2.02-11.03,0.24c4.21,0.46,6.53,1.38,8.99,4.18c0,0-1.7,1.59-2.04,3.34c-0.24,1.25,0.15,4.1,0.15,4.1
			c2.58-3.69,8.77-1.85,9.04-5.69c0,0,6.39,1.18,8.84,5.59c0.43-5.81-2.38-6.84-2.38-6.84c2.67-1.96,7.72-0.59,10.59,0.28
			c-1.88-2.75-6-5.08-9.75-4.56c1.5-2.74,4.16-4.29,7.27-4.6C817.96,547.1,811.3,547.21,808.25,552.36L808.25,552.36z"/>
	</g>
	<g>
		<g>
			<path class="st1" d="M811.27,537.11c-5.06,4.04-4.47,13.8-3.85,18.46c0.37,0.18,0.82,0.22,1.33-0.11c0-2.83,0.2-7.23,1.23-10.19
				c1.49-4.26,3.88-5.55,3.88-5.55C813.84,536.87,811.27,537.11,811.27,537.11z"/>
		</g>
	</g>
	<g>
		<path class="st6" d="M811.45,541.86l-3.37-0.95c18.34-65.11,51.16-75.43,52.55-75.85c27.07-8.62,49.91,1.08,66.03,28.06l-3,1.79
			c-15.4-25.78-36.27-34.7-62.01-26.51C861.3,468.53,829.22,478.83,811.45,541.86z"/>
	</g>
	<g>
		<path class="st6" d="M811.1,475.74l-2.04-2.85c0.29-0.2,7-4.98,16.84-8.37c13.16-4.52,25.6-4.31,35.96,0.64l-1.5,3.16
			C837.29,457.34,811.36,475.55,811.1,475.74z"/>
	</g>
	<g>
		<path class="st1" d="M906.9,942.7l-5.13-1.04c0.19-0.94,18.99-95.14,26.57-211.81c6.98-107.51,5.61-256.61-40.59-356.46l4.76-2.2
			c46.68,100.86,48.09,250.93,41.07,359.06C925.94,847.28,907.09,941.76,906.9,942.7z"/>
	</g>
	<g>
		<path class="st4" d="M953.26,396.67c-9.87-5.59-23.3-4.93-32.11,2.37c-1.86,1.54-10.72,4.66-13.15,4.63
			c-11.45-0.17-22.33,7.73-26.53,18.26c-4.98,12.51-3.08,26.22,2.95,37.66c7.66,14.54,19.92,22.04,37.45,21.18
			c9.78-0.48,12.7-3.1,18.78-5.24s10-1.93,17.93-7.68c14.2-10.3,19.07-23.82,15.94-39.96C972.08,415.19,964.97,403.31,953.26,396.67
			z"/>
	</g>
	<g>
		<g>
			<path class="st4" d="M953.26,396.67c-9.87-5.59-23.3-4.93-32.11,2.37c-1.86,1.54-10.72,4.66-13.15,4.63
				c-3.77-0.05-7.47,0.77-10.9,2.28c6.23-0.78,9,6.48,26.66-1.25c16.4-7.18,37.64,13.46,35.31,37.42
				c-1.46,14.9-18.74,30.7-46.03,38.3c2.78,0.37,5.73,0.49,8.84,0.34c9.78-0.48,12.7-3.1,18.78-5.24s10-1.93,17.93-7.68
				c14.2-10.3,19.07-23.82,15.94-39.96C972.08,415.19,964.97,403.31,953.26,396.67z"/>
		</g>
	</g>
	<g>
		<path class="st1" d="M912.89,397.64c-3.16-3.63-8.19-4.73-12.88-3.58c2.9,1.33,5.13,2.56,7.13,5.95
			c-2.84-0.5-9.57,0.79-12.21,4.53c4.86-1.12,7.82-0.99,11.64,1.19c0,0-1.29,2.43-0.99,4.52c0.21,1.49,1.75,4.51,1.75,4.51
			c1.45-5.11,9.07-5.45,7.87-9.84c0,0,7.57-1.14,12.02,2.82c-1.75-6.66-5.29-6.7-5.29-6.7c2.24-3.21,8.38-3.64,11.92-3.79
			c-3.16-2.34-8.66-3.35-12.63-1.32c0.61-3.64,2.99-6.38,6.33-7.94C921.69,388.02,914.3,390.71,912.89,397.64L912.89,397.64z"/>
	</g>
	<g>
		<g>
			<path class="st1" d="M910.36,379.46c-4.09,6.46,0.35,17.11,2.84,22.08c0.48,0.05,1-0.07,1.44-0.63
				c-1.09-3.16-2.58-8.15-2.57-11.83c0.02-5.33,2.18-7.68,2.18-7.68C913.14,378.2,910.36,379.46,910.36,379.46z"/>
		</g>
	</g>
	<g>
		<path class="st2" d="M858.13,318.55c0,0,8.72-7.42,36.05,11.59c27.32,19.01,29.1,21.02,24.75,30.72l-11.2-5.03
			c0,0-7.07,19.71-13.85,23.84c0,0-0.98-3.78-2.68-5c-1.7-1.22-23.91,21.42-30.03,24.05c0,0-1.56-5.68-1.05-6.81
			c0.51-1.12-12.18,14.25-30.3,19.53c-1.56,0.45-1.48-0.68-1.48-0.68s2.88-23.37,8.36-32.57c5.48-9.19,0.92-2.05,0.92-2.05
			s2.85-5.33,0.14-4.31c-2.7,1.03,5.39-12.99,13.46-16.98c0,0,1.27-9.83-5.12-9.56s16.71-21.22,21.16-20.12
			C871.7,326.28,858.13,318.55,858.13,318.55z"/>
	</g>
	<g>
		<g>
			<path class="st7" d="M906.92,334.68c-47.55,9.97-63.91,62.71-63.91,62.71c0.14-0.54,14.71-54.54,63.36-64.74L906.92,334.68z"/>
		</g>
	</g>
	<g>
		<path class="st8" d="M940.75,340.03c0,0,3.65-6.33,9.68-4.33s-13.3-17.19-41.67-8.66c0,0-19.25,6.63-29.45,12.97
			c-10.22,6.34,11.21,4.36,13.99,5.76c0,0-5.97,10.7-5.61,25.06c0,0,7.1,4.52,11.43,0.69c0,0,9.71,22.3,12.59,29.03
			c0,0,2.14-1.5,3.13-4.32c0.99-2.81-0.57,9.38,18.44,33.89c0,0,19.79-15.61,12.42-63.16c-7.37-47.56-0.28-2.06-0.28-2.06
			s6.81-4.1,9.8,0.59C955.19,365.48,955.61,345.03,940.75,340.03z"/>
	</g>
	<g>
		<g>
			<path class="st3" d="M903.82,327.87c37.48,30.92,27.49,85.22,27.49,85.22c0.13-0.55,12.29-55.12-26.05-86.76L903.82,327.87z"/>
		</g>
	</g>
	<g>
		<path class="st2" d="M896.69,535.22c0,0,9.07-6.99,35.44,13.3c26.38,20.3,28.07,22.4,23.24,31.88l-10.94-5.57
			c0,0-8,19.35-14.99,23.14c0,0-0.8-3.83-2.44-5.13s-24.91,20.25-31.14,22.59c0,0-1.28-5.75-0.73-6.85s-12.86,13.65-31.2,18.05
			c-1.58,0.38-1.45-0.75-1.45-0.75s4-23.2,9.92-32.13c5.91-8.92,1.02-2.01,1.02-2.01s3.11-5.19,0.35-4.3
			c-2.75,0.89,6.01-12.72,14.26-16.32c0,0,1.73-9.75-4.65-9.79c-6.4-0.04,17.71-20.4,22.1-19.08
			C909.88,543.58,896.69,535.22,896.69,535.22z"/>
	</g>
	<g>
		<g>
			<path class="st7" d="M944.65,553.67c-47.97,7.69-66.84,59.57-66.84,59.57c0.16-0.54,17.3-53.76,66.39-61.64L944.65,553.67z"/>
		</g>
	</g>
	<g>
		<path class="st2" d="M981.64,518.24c0,0-3.86-6.21,0.74-10.57c4.6-4.37-21.43,3.62-27.3,32.66c0,0-3.23,20.09-2.46,32.09
			c0.77,12,9.14-7.82,11.67-9.62c0,0,6.61,10.32,19.44,16.77c0,0,7.34-4.12,6-9.75c0,0,24.25,1.95,31.53,2.59
			c0,0-0.32-2.59-2.33-4.79c-2.01-2.2,8,4.93,38.57-0.28c0,0-4.43-24.81-49.83-40.75c-45.4-15.94-1.95-0.72-1.95-0.72
			s-0.4-7.93,5.14-8.36C1010.9,517.52,993.06,507.5,981.64,518.24z"/>
	</g>
	<g>
		<g>
			<path class="st3" d="M953.51,545.06c44.93-18.46,88.1,15.97,88.1,15.97c-0.42-0.37-42.81-36.85-88.79-17.96L953.51,545.06z"/>
		</g>
	</g>
	<g>
		<path class="st8" d="M962.29,547.93c0,0,3.65-6.33,9.68-4.33s-13.29-17.19-41.67-8.66c0,0-19.25,6.63-29.45,12.97
			c-10.22,6.34,11.21,4.36,13.99,5.76c0,0-5.97,10.7-5.61,25.06c0,0,7.1,4.52,11.43,0.69c0,0,9.71,22.3,12.59,29.03
			c0,0,2.14-1.5,3.13-4.32c0.99-2.81-0.57,9.38,18.44,33.89c0,0,19.78-15.61,12.41-63.17c-7.37-47.56-0.28-2.06-0.28-2.06
			s6.81-4.1,9.8,0.59C976.73,573.38,977.15,552.92,962.29,547.93z"/>
	</g>
	<g>
		<g>
			<path class="st3" d="M925.36,535.76c37.48,30.92,27.49,85.22,27.49,85.22c0.13-0.55,12.29-55.12-26.05-86.76L925.36,535.76z"/>
		</g>
	</g>
	<g>
		<path class="st2" d="M963.25,668.04c0,0-3.78-6.26,0.88-10.57c4.66-4.31-21.48,3.34-27.71,32.3c0,0-3.49,20.05-2.86,32.06
			c0.62,12.01,9.23-7.71,11.8-9.47c0,0,6.48,10.4,19.24,17.01c0,0,7.39-4.03,6.13-9.68c0,0,24.22,2.26,31.5,2.99
			c0,0-0.28-2.6-2.27-4.82c-1.98-2.22,7.94,5.02,38.57,0.21c0,0-4.11-24.86-49.32-41.37c-45.2-16.51-1.94-0.75-1.94-0.75
			s-0.29-7.94,5.24-8.29C992.51,667.69,974.79,657.44,963.25,668.04z"/>
	</g>
	<g>
		<g>
			<path class="st3" d="M934.76,694.51c45.17-17.89,87.89,17.09,87.89,17.09c-0.42-0.37-42.34-37.38-88.56-19.08L934.76,694.51z"/>
		</g>
	</g>
	<g>
		<path class="st2" d="M1014.93,757.47c0,0-6.11-4.02-3.75-9.92s-17.93,12.26-11.09,41.09c0,0,5.49,19.6,11.21,30.17
			c5.74,10.57,5.01-10.94,6.57-13.64c0,0,10.33,6.59,24.69,7.08c0,0,4.93-6.83,1.36-11.37c0,0,22.83-8.39,29.72-10.86
			c0,0-1.38-2.21-4.12-3.38c-2.75-1.15,9.34,1.12,34.9-16.41c0,0-14.41-20.67-62.33-16.1c-47.9,4.57-2.08,0.16-2.08,0.16
			s-3.69-7.04,1.17-9.74C1041.19,744.55,1020.79,742.93,1014.93,757.47z"/>
	</g>
	<g>
		<g>
			<path class="st3" d="M1000.62,793.61c33.06-35.59,86.69-22.43,86.69-22.43c-0.54-0.16-54.31-15.51-88.14,20.92L1000.62,793.61z"
				/>
		</g>
	</g>
	<g>
		<path class="st2" d="M936.94,892.23c0,0-3.78-6.26,0.89-10.57c4.66-4.31-21.48,3.34-27.71,32.3c0,0-3.49,20.05-2.87,32.06
			c0.62,12.01,9.24-7.71,11.8-9.47c0,0,6.48,10.4,19.24,17.01c0,0,7.39-4.04,6.13-9.68c0,0,24.22,2.26,31.5,2.99
			c0,0-0.28-2.6-2.27-4.82c-1.98-2.22,7.94,5.02,38.57,0.21c0,0-4.11-24.86-49.32-41.37c-45.2-16.51-1.94-0.75-1.94-0.75
			s-0.29-7.94,5.24-8.29C966.2,891.88,948.48,881.63,936.94,892.23z"/>
	</g>
	<g>
		<g>
			<path class="st3" d="M908.46,918.68c45.17-17.89,87.89,17.09,87.89,17.09c-0.42-0.37-42.34-37.38-88.56-19.08L908.46,918.68z"/>
		</g>
	</g>
	<g>
		<path class="st2" d="M864.99,911.27c0,0-2.62-6.83-8.88-5.79c-6.26,1.04,15.82-14.9,42.52-2.04c0,0,17.97,9.55,27.07,17.41
			s-11.75,2.56-14.72,3.5c0,0,4.23,11.5,1.63,25.63c0,0-7.72,3.35-11.4-1.1c0,0-13.08,20.51-16.96,26.71c0,0-1.88-1.83-2.41-4.75
			c-0.54-2.93-0.91,9.36-23.51,30.59c0,0-17.1-18.51-2.4-64.32c14.71-45.82,0.61-2,0.61-2s-6.08-5.1-9.77-0.95
			C846.75,934.15,849.53,913.88,864.99,911.27z"/>
	</g>
	<g>
		<g>
			<path class="st3" d="M903.36,905.02c-41.85,24.67-40.46,79.88-40.46,79.88c-0.04-0.56-3.53-56.38,39.29-81.63L903.36,905.02z"/>
		</g>
	</g>
	<g>
		<path class="st8" d="M965.31,732.32c0,0,2.06-7.01,8.39-6.49s-16.97-13.58-42.54,1.39c0,0-17.14,10.98-25.58,19.54
			c-8.44,8.58,11.93,1.6,14.95,2.31c0,0-3.29,11.8,0.45,25.68c0,0,7.96,2.73,11.26-2.02c0,0,14.69,19.38,19.07,25.24
			c0,0,1.72-1.97,2.02-4.93c0.3-2.97,1.65,9.26,25.9,28.59c0,0,15.56-19.82-2.8-64.31c-18.36-44.49-0.76-1.94-0.76-1.94
			s5.65-5.58,9.67-1.74C985.34,753.65,980.93,733.68,965.31,732.32z"/>
	</g>
	<g>
		<g>
			<path class="st3" d="M926.56,729.19c43.7,21.22,46.78,76.35,46.78,76.35c0-0.56-1.03-56.46-45.75-78.19L926.56,729.19z"/>
		</g>
	</g>
	<g>
		<path class="st8" d="M881.04,804.47c0,0,0.1-7.31-6.11-8.67c-6.2-1.36,20.21-7.98,40.25,13.84c0,0,13.15,15.53,18.69,26.19
			c5.54,10.68-11.87-1.98-14.97-2.2c0,0-0.32,12.25-7.98,24.41c0,0-8.41,0.27-10.17-5.24c0,0-19.74,14.21-25.65,18.53
			c0,0-1.07-2.38-0.49-5.31s-4.31,8.36-33.17,19.71c0,0-9.03-23.52,21.59-60.64c30.64-37.12,1.3-1.62,1.3-1.62s-3.76-6.99-8.72-4.5
			C855.62,818.98,865.72,801.18,881.04,804.47z"/>
	</g>
	<g>
		<g>
			<path class="st3" d="M919,812.89c-48.01,7.43-67.17,59.22-67.17,59.22c0.18-0.54,17.59-53.68,66.72-61.28L919,812.89z"/>
		</g>
	</g>
	<g>
		<path class="st2" d="M918.17,651.67c0,0,6.4-3.54,4.51-9.6c-1.88-6.06,16.93,13.63,7.86,41.83c0,0-7,19.12-13.55,29.2
			c-6.54,10.09-4.15-11.29-5.49-14.1c0,0-10.81,5.77-25.16,5.13c0,0-4.38-7.19-0.46-11.44c0,0-22.1-10.14-28.78-13.14
			c0,0,1.54-2.11,4.37-3.04c2.83-0.94-9.39,0.38-33.52-19.1c0,0,15.98-19.48,63.39-11.18c47.41,8.29,2.06,0.33,2.06,0.33
			s4.22-6.73-0.41-9.8C893,636.74,913.47,636.73,918.17,651.67z"/>
	</g>
	<g>
		<g>
			<path class="st3" d="M929.61,688.82c-30.18-38.07-84.67-29.13-84.67-29.13c0.55-0.11,55.35-11.23,86.24,27.72L929.61,688.82z"/>
		</g>
	</g>
	<g>
		<path class="st4" d="M826.97,492.29c-1.51-6.55-7.17-12.16-13.9-13.09c-1.43-0.2-6.33-2.82-7.29-3.9
			c-4.51-5.08-12.32-6.67-18.6-4.29c-7.46,2.83-12.69,9.15-15.28,16.37c-3.29,9.17-1.65,17.54,5.74,24.85
			c4.13,4.09,6.43,4.31,9.81,6.12c3.38,1.81,4.85,3.6,10.53,4.76c10.2,2.09,18.05-1.21,23.85-9.04
			C826.4,507.92,828.76,500.06,826.97,492.29z"/>
	</g>
	<g>
		<g>
			<path class="st4" d="M826.97,492.29c-1.51-6.55-7.17-12.16-13.9-13.09c-1.43-0.2-6.33-2.82-7.29-3.9
				c-1.48-1.67-3.33-2.96-5.36-3.85c2.84,2.41,0.77,6.53,11.22,11.16c9.71,4.3,9.19,21.85-2.23,30.43
				c-7.09,5.33-20.93,4.1-35.18-4.8c0.95,1.37,2.07,2.71,3.39,4c4.13,4.09,6.43,4.31,9.81,6.12c3.38,1.81,4.85,3.6,10.53,4.76
				c10.2,2.09,18.05-1.21,23.85-9.04C826.4,507.92,828.76,500.06,826.97,492.29z"/>
		</g>
	</g>
	<g>
		<path class="st1" d="M810.37,475.02c0.33-2.83-1.22-5.47-3.59-7.07c0.58,1.81,0.93,3.27,0.26,5.5c-0.92-1.45-4.18-3.87-6.87-3.53
			c2.43,1.68,3.56,3.02,4.14,5.56c0,0-1.58,0.42-2.37,1.38c-0.56,0.68-1.27,2.56-1.27,2.56c2.81-1.41,6.02,1.79,7.45-0.49
			c0,0,3.54,2.85,3.59,6.38c2.2-3.43,0.81-4.99,0.81-4.99c2.3-0.31,4.94,2.2,6.42,3.69c-0.24-2.32-2-5.13-4.49-6.05
			c1.83-1.19,3.99-1.26,6.01-0.42C818.1,475.01,813.96,472.86,810.37,475.02L810.37,475.02z"/>
	</g>
	<g>
		<path class="st4" d="M781.87,508.1c-1.01-0.06-1.98-0.54-2.64-1.4c-6.57-8.42-5.14-16.28-2.8-21.4c2.42-5.26,6.32-8.62,6.49-8.75
			c1.53-1.3,3.81-1.1,5.11,0.43c1.29,1.53,1.1,3.8-0.41,5.1c-0.06,0.06-2.98,2.61-4.68,6.45c-2.12,4.77-1.46,9.26,2.01,13.71
			c1.24,1.58,0.94,3.86-0.63,5.09C783.6,507.91,782.72,508.16,781.87,508.1z"/>
	</g>
	<g>
		<path class="st4" d="M926.6,797.12c-0.23-4.41,2.34-8.96,6.42-10.77c0.86-0.38,3.49-2.92,3.9-3.77c1.94-4.01,6.58-6.42,10.98-6.05
			c5.22,0.45,9.66,3.49,12.6,7.59c3.73,5.2,4.2,10.77,0.84,16.72c-1.87,3.32-3.29,3.88-5.09,5.62c-1.81,1.74-2.41,3.14-5.8,4.91
			c-6.06,3.15-11.62,2.48-16.69-1.42C929.77,806.89,926.87,802.35,926.6,797.12z"/>
	</g>
	<g>
		<g>
			<path class="st4" d="M926.6,797.12c-0.23-4.41,2.34-8.96,6.42-10.77c0.86-0.38,3.49-2.92,3.9-3.77c0.64-1.32,1.57-2.46,2.69-3.4
				c-1.36,2.03,0.69,4.26-5.08,9.06c-5.36,4.46-1.88,15.45,6.88,18.81c5.43,2.09,13.95-1.17,21.35-9.36
				c-0.36,1.03-0.82,2.08-1.42,3.14c-1.87,3.32-3.29,3.88-5.09,5.62c-1.81,1.74-2.41,3.14-5.8,4.91
				c-6.06,3.15-11.62,2.48-16.69-1.42C929.77,806.89,926.87,802.35,926.6,797.12z"/>
		</g>
	</g>
	<g>
		<path class="st1" d="M933.97,783.23c-0.71-1.73-0.21-3.67,1-5.11c-0.04,1.25,0,2.23,0.83,3.52c0.32-1.07,1.95-3.2,3.7-3.46
			c-1.23,1.5-1.71,2.55-1.61,4.25c0,0,1.07-0.03,1.74,0.44c0.48,0.33,1.27,1.39,1.27,1.39c-2.03-0.39-3.47,2.21-4.79,1.03
			c0,0-1.72,2.44-1.11,4.67c-2.01-1.77-1.41-3.01-1.41-3.01c-1.51,0.22-2.73,2.28-3.39,3.49c-0.26-1.51,0.34-3.6,1.74-4.62
			c-1.37-0.42-2.74-0.07-3.87,0.82C929.09,784.62,931.31,782.51,933.97,783.23L933.97,783.23z"/>
	</g>
	<g>
		<g>
			<path class="st1" d="M928.08,779.18c2.96-0.3,5.9,3.1,7.19,4.83c-0.07,0.18-0.2,0.33-0.47,0.39c-0.91-0.93-2.39-2.32-3.67-2.95
				c-1.85-0.92-3.06-0.58-3.06-0.58C927.17,779.93,928.08,779.18,928.08,779.18z"/>
		</g>
	</g>
	<g>
		<path class="st4" d="M956.98,799.26c-0.26-0.02-0.53-0.07-0.79-0.18c-1.28-0.52-1.9-1.98-1.39-3.27
			c3.28-8.11-4.89-11.93-5.24-12.08c-1.27-0.57-1.83-2.06-1.25-3.32c0.57-1.27,2.06-1.82,3.32-1.25c0.13,0.06,3.23,1.49,5.72,4.39
			c2.42,2.83,4.76,7.58,2.1,14.14C959.04,798.72,958.03,799.33,956.98,799.26z"/>
	</g>
</g>
<g>
	<g>
		<g>
			<path class="st1" d="M261.41,831.8c3.53,3.18,2.66,10.31,2,13.69c-0.28,0.11-0.61,0.12-0.97-0.14c0.12-2.07,0.17-5.31-0.45-7.52
				c-0.91-3.19-2.6-4.23-2.6-4.23C259.53,831.53,261.41,831.8,261.41,831.8z"/>
		</g>
	</g>
	<g>
		<path class="st2" d="M211.14,452.86c0,0-34.59-6.09-46.84,23.27c0,0,12.45,3.22,15.58,0.82c0,0-21.79,16.07-21.7,40.21
			c0,0,11.55-5.34,15.7-6.41c0,0-13.71,12.69-3.7,28.47c0,0,5.63-9.32,8.31-11.38c0,0-2.61,7.71,10.29,19.83c0,0,0.06-3.61,3.2-6.02
			c0,0,13.25,12.58,20.92,12.37c0,0-11.22-21.96-4.52-27.12c2.68-2.07,6.22,1.61,8.98,5.19s0.74-21.21-2.66-22.86
			c-3.4-1.65,7.53-2.24,10.14-0.69c2.62,1.55-5.07-16.76-3.39-21.96c1.69-5.2,3.03,3.01,12.87,4.7
			C244.13,492.92,224.05,453.13,211.14,452.86z"/>
	</g>
	<g>
		<g>
			<path class="st3" d="M211.62,439.29c-34.58,38.22-15.73,93.69-15.73,93.69c-0.21-0.55-21.39-55.97,13.99-95.09L211.62,439.29z"/>
		</g>
	</g>
	<g>
		<path class="st4" d="M225.69,735.17c-3.4-11.53-14.13-20.94-26.23-21.87c-2.57-0.2-11.61-4.36-13.44-6.18
			c-8.6-8.58-22.73-10.58-33.7-5.64c-13.02,5.87-21.68,17.72-25.53,30.89c-4.89,16.74-1.07,31.49,12.93,43.77
			c7.82,6.85,11.96,7,18.18,9.86c6.22,2.86,9.04,5.91,19.33,7.37c18.42,2.63,32.11-4.09,41.63-18.7
			C226.39,763.17,229.74,748.87,225.69,735.17z"/>
	</g>
	<g>
		<g>
			<path class="st4" d="M225.69,735.17c-3.4-11.53-14.13-20.94-26.23-21.87c-2.57-0.2-11.61-4.36-13.44-6.18
				c-2.83-2.82-6.27-4.91-9.99-6.3c5.33,4,2.09,11.59,21.24,18.73c17.81,6.62,18.78,38.03-0.69,54.59
				c-12.09,10.28-36.92,9.58-63.35-4.77c1.85,2.34,4,4.6,6.49,6.77c7.82,6.85,11.96,7,18.18,9.86s9.04,5.91,19.33,7.37
				c18.42,2.63,32.11-4.09,41.63-18.7C226.39,763.17,229.74,748.87,225.69,735.17z"/>
		</g>
	</g>
	<g>
		<path class="st1" d="M194.21,706.13c0.28-5.1-2.77-9.65-7.18-12.23c1.23,3.16,2.01,5.73,1.06,9.8c-1.8-2.48-7.88-6.46-12.64-5.55
			c4.53,2.73,6.69,5.01,8,9.48c0,0-2.77,0.91-4.08,2.71c-0.93,1.28-2,4.72-2,4.72c4.87-2.83,10.93,2.54,13.26-1.69
			c0,0,6.61,4.72,7.09,11.01c3.56-6.37,0.91-9.02,0.91-9.02c4.07-0.81,9.08,3.4,11.87,5.91c-0.68-4.12-4.13-8.94-8.65-10.33
			c3.15-2.32,6.99-2.67,10.68-1.4C208.01,705.28,200.4,701.87,194.21,706.13L194.21,706.13z"/>
	</g>
	<g>
		<g>
			<path class="st1" d="M205.69,690.39c-7.88,1.91-12.35,13.31-14.12,18.93c0.33,0.4,0.82,0.68,1.56,0.58
				c1.5-3.21,4.04-8.11,6.77-10.92c3.94-4.04,7.33-4.26,7.33-4.26C208.73,691.49,205.69,690.39,205.69,690.39z"/>
		</g>
	</g>
	<g>
		<path class="st4" d="M146.88,768.3c-1.8,0-3.59-0.74-4.87-2.2c-12.63-14.34-10.94-28.53-7.3-37.9
			c3.75-9.67,10.38-16.07,10.65-16.33c2.59-2.48,6.7-2.38,9.17,0.2c2.47,2.58,2.39,6.67-0.19,9.15c-0.1,0.1-5.04,4.99-7.67,12.03
			c-3.27,8.75-1.61,16.7,5.07,24.29c2.37,2.69,2.1,6.79-0.58,9.15C149.93,767.75,148.4,768.3,146.88,768.3z"/>
	</g>
	<g>
		<path class="st4" d="M290.85,623.41c-1.27-11.33,4.65-23.5,14.88-28.77c2.17-1.12,8.55-8.07,9.47-10.34
			c4.37-10.65,15.98-17.6,27.38-17.31c13.54,0.34,25.47,7.52,33.67,17.62c10.43,12.84,12.5,27.15,4.79,43.02
			c-4.31,8.87-7.88,10.51-12.27,15.31c-4.39,4.79-5.74,8.49-14.19,13.55c-15.15,9.07-29.58,8.22-43.27-1.06
			C300.55,648.14,292.36,636.87,290.85,623.41z"/>
	</g>
	<g>
		<g>
			<path class="st4" d="M290.85,623.41c-1.27-11.33,4.65-23.5,14.88-28.77c2.17-1.12,8.55-8.07,9.47-10.34
				c1.44-3.5,3.68-6.6,6.41-9.18c-3.19,5.45,2.43,10.89-11.69,24.18c-13.13,12.34-2.43,40.15,20.66,47.46
				c14.34,4.55,35.8-5.19,53.62-27.45c-0.76,2.72-1.81,5.49-3.19,8.31c-4.31,8.87-7.88,10.51-12.27,15.31
				c-4.39,4.79-5.74,8.49-14.19,13.55c-15.15,9.07-29.58,8.22-43.27-1.06C300.55,648.14,292.36,636.87,290.85,623.41z"/>
		</g>
	</g>
	<g>
		<path class="st1" d="M307.7,586.45c-2.1-4.36-1.12-9.44,1.78-13.32c0.08,3.21,0.34,5.74,2.68,8.95c0.65-2.82,4.52-8.55,9.02-9.51
			c-2.96,4.05-4,6.84-3.5,11.23c0,0,2.76-0.23,4.57,0.87c1.28,0.78,3.49,3.4,3.49,3.4c-5.29-0.68-8.61,6.23-12.21,3.4
			c0,0-4.05,6.56-2.15,12.23c-5.47-4.26-4.11-7.54-4.11-7.54c-3.85,0.79-6.69,6.31-8.21,9.53c-0.92-3.85,0.31-9.33,3.77-12.2
			c-3.6-0.87-7.09,0.24-9.85,2.71C295.32,590.79,300.73,585,307.7,586.45L307.7,586.45z"/>
	</g>
	<g>
		<g>
			<path class="st1" d="M291.88,576.91c7.59-1.22,15.69,7.09,19.3,11.36c-0.14,0.47-0.47,0.89-1.16,1.08
				c-2.49-2.25-6.51-5.6-9.94-7.05c-4.94-2.08-7.97-1.02-7.97-1.02C289.63,578.99,291.88,576.91,291.88,576.91z"/>
		</g>
	</g>
	<g>
		<path class="st4" d="M369.55,624.21c-0.68,0-1.39-0.11-2.07-0.34c-3.4-1.15-5.23-4.82-4.08-8.22c7.2-21.43-14.47-30-15.4-30.35
			c-3.35-1.28-5.02-5.04-3.74-8.37c1.28-3.35,5.04-5.02,8.37-3.74c0.34,0.14,8.55,3.32,15.44,10.45c6.7,6.93,13.45,18.83,7.63,36.15
			C374.79,622.5,372.26,624.21,369.55,624.21z"/>
	</g>
	<g>
		<path class="st4" d="M363.28,833.11c-8.06-6.22-20.1-7.35-28.87-1.99c-1.86,1.13-10.14,2.78-12.29,2.44
			c-10.16-1.61-20.85,4.03-25.93,12.87c-6.02,10.49-6.08,22.94-2.18,33.89c4.96,13.91,14.92,22.15,30.63,23.61
			c8.76,0.82,11.7-1.13,17.39-2.27c5.69-1.13,9.14-0.44,16.94-4.55c13.95-7.35,20.01-18.76,19.28-33.52
			C377.68,851.99,372.86,840.5,363.28,833.11z"/>
	</g>
	<g>
		<g>
			<path class="st4" d="M363.28,833.11c-8.06-6.22-20.1-7.35-28.87-1.99c-1.86,1.13-10.14,2.78-12.29,2.44
				c-3.35-0.53-6.75-0.26-9.99,0.64c5.64,0.1,7.19,6.91,23.89,2.29c15.51-4.29,31.78,16.77,26.65,37.8
				c-3.19,13.06-20.58,24.92-45.85,28.21c2.43,0.68,5.02,1.17,7.82,1.42c8.76,0.82,11.7-1.13,17.39-2.27
				c5.69-1.13,9.14-0.44,16.94-4.55c13.95-7.35,20.01-18.76,19.28-33.52C377.68,851.99,372.86,840.5,363.28,833.11z"/>
		</g>
	</g>
	<g>
		<path class="st1" d="M327.24,828.82c-2.34-3.63-6.7-5.25-10.99-4.82c2.42,1.55,4.23,2.92,5.59,6.21
			c-2.47-0.81-8.63-0.52-11.43,2.48c4.47-0.38,7.08,0.11,10.2,2.54c0,0-1.45,2-1.45,3.89c-0.01,1.35,0.98,4.24,0.98,4.24
			c1.94-4.37,8.76-3.69,8.26-7.74c0,0,6.89-0.05,10.34,4.03c-0.72-6.15-3.85-6.64-3.85-6.64c2.39-2.57,7.92-2.18,11.08-1.85
			c-2.52-2.49-7.28-4.08-11.07-2.78c1.01-3.15,3.48-5.3,6.64-6.26C336.31,821.37,329.38,822.83,327.24,828.82L327.24,828.82z"/>
	</g>
	<g>
		<g>
			<path class="st1" d="M327.3,812.32c-4.46,5.23-1.86,15.27-0.28,20.01c0.42,0.11,0.89,0.06,1.36-0.38
				c-0.57-2.95-1.26-7.57-0.77-10.85c0.69-4.73,2.91-6.56,2.91-6.56C329.94,811.56,327.3,812.32,327.3,812.32z"/>
		</g>
	</g>
	<g>
		<path class="st4" d="M322.43,897.04c-0.48,0-0.96-0.05-1.44-0.16c-16.28-3.68-22.35-14.59-24.58-23.11
			c-2.24-8.56-0.98-16.11-0.83-16.94c0.64-3.53,4.03-5.84,7.56-5.21c3.51,0.64,5.84,4,5.23,7.52c-0.37,2.15-3.03,20.89,15.5,25.07
			c3.5,0.79,5.69,4.27,4.9,7.76C328.07,895,325.39,897.04,322.43,897.04z"/>
	</g>
	<g>
		<path class="st5" d="M426.58,890.2c-7.18-7.23-18.96-9.91-28.37-5.74c-2,0.88-10.41,1.44-12.5,0.82
			c-9.87-2.92-21.21,1.27-27.39,9.37c-7.34,9.62-9.03,21.95-6.59,33.31c3.11,14.44,11.9,23.91,27.28,27.41
			c8.59,1.96,11.75,0.4,17.53,0.03c5.79-0.38,9.12,0.76,17.38-2.3c14.8-5.48,22.29-15.99,23.49-30.73
			C438.38,910.81,435.11,898.79,426.58,890.2z"/>
	</g>
	<g>
		<path class="st1" d="M396.87,881.25c1.85-3.9,5.96-6.07,10.28-6.22c-2.19,1.85-3.82,3.45-4.73,6.89
			c2.33-1.12,8.47-1.64,11.66,0.96c-4.48,0.21-7,1.05-9.78,3.85c0,0,1.7,1.79,1.95,3.66c0.18,1.33-0.42,4.33-0.42,4.33
			c-2.49-4.07-9.17-2.51-9.21-6.6c0,0-6.84,0.86-9.72,5.35c-0.09-6.18,2.95-7.09,2.95-7.09c-2.71-2.24-8.13-1.12-11.23-0.38
			c2.17-2.8,6.67-5,10.62-4.21c-1.41-3-4.13-4.81-7.4-5.34C386.92,875.06,393.98,875.58,396.87,881.25L396.87,881.25z"/>
	</g>
	<g>
		<path class="st6" d="M394.16,884.3c-14.83-68.13-48.1-80.86-48.43-80.97c-16.14-6.22-30.93-5.72-43.97,1.49
			c-34.5,19.08-46.5,78.84-46.62,79.45l-3.64-0.71c0.03-0.15,3.1-15.64,10.51-33.32c6.89-16.43,19.07-38.22,37.95-48.66
			c14.05-7.77,29.88-8.35,47.06-1.73c1.41,0.5,35.5,13.54,50.76,83.65L394.16,884.3z"/>
	</g>
	<g>
		<path class="st6" d="M398.74,814.3c-0.26-0.21-26.56-21.17-51.71-10.99l-1.39-3.44c11.3-4.57,24.48-4,38.12,1.62
			c10.21,4.22,17.03,9.7,17.3,9.92L398.74,814.3z"/>
	</g>
	<g>
		<path class="st6" d="M326.23,826.78l-3.19-1.89c0.09-0.15,8.56-14.82,0.09-26.68l3.02-2.15
			C336.04,809.9,326.64,826.1,326.23,826.78z"/>
	</g>
	<g>
		<path class="st5" d="M89.05,559.5c7.18-7.23,18.96-9.91,28.37-5.74c1.99,0.88,10.41,1.44,12.5,0.82
			c9.87-2.92,21.21,1.27,27.39,9.37c7.34,9.62,9.03,21.95,6.57,33.31c-3.11,14.44-11.9,23.91-27.28,27.41
			c-8.59,1.96-11.74,0.4-17.53,0.03c-5.79-0.38-9.12,0.76-17.38-2.29c-14.8-5.47-22.29-15.99-23.5-30.73
			C77.27,580.09,80.53,568.07,89.05,559.5z"/>
	</g>
	<g>
		<path class="st1" d="M118.77,550.53c-1.85-3.9-5.96-6.08-10.28-6.22c2.19,1.86,3.82,3.46,4.73,6.89
			c-2.33-1.12-8.47-1.64-11.66,0.96c4.48,0.21,7,1.05,9.78,3.85c0,0-1.7,1.79-1.95,3.66c-0.18,1.33,0.42,4.33,0.42,4.33
			c2.49-4.07,9.17-2.52,9.21-6.6c0,0,6.84,0.84,9.72,5.35c0.09-6.18-2.96-7.09-2.96-7.09c2.71-2.24,8.13-1.12,11.23-0.38
			c-2.17-2.8-6.67-5-10.62-4.21c1.41-3,4.13-4.81,7.4-5.34C128.72,544.34,121.67,544.88,118.77,550.53L118.77,550.53z"/>
	</g>
	<g>
		<g>
			<path class="st1" d="M120.99,534.19c-5.1,4.6-3.85,14.9-2.9,19.8c0.4,0.16,0.88,0.18,1.4-0.2c-0.18-3-0.25-7.67,0.65-10.87
				c1.31-4.61,3.75-6.12,3.75-6.12C123.69,533.77,120.99,534.19,120.99,534.19z"/>
		</g>
	</g>
	<g>
		<path class="st6" d="M121.49,539.21l-3.63-0.79c15.26-70.12,49.36-83.15,50.8-83.68c28.12-10.85,52.93-2.04,71.71,25.5l-3.06,2.09
			c-17.96-26.32-40.62-34.43-67.36-24.11C169.59,458.37,136.27,471.32,121.49,539.21z"/>
	</g>
	<g>
		<path class="st6" d="M116.89,469.21l-2.34-2.88c0.29-0.23,7.09-5.72,17.3-9.94c13.65-5.63,26.83-6.2,38.12-1.62l-1.39,3.44
			C143.45,448.05,117.16,469,116.89,469.21z"/>
	</g>
	<g>
		<path class="st1" d="M248.17,957.59l-5.5-0.77c0.14-1.01,14.03-101.96,14.61-226c0.53-114.29-10.45-272.1-65.76-374.88l4.9-2.63
			c55.87,103.83,66.95,262.66,66.43,377.61C262.24,855.32,248.31,956.58,248.17,957.59z"/>
	</g>
	<g>
		<path class="st4" d="M262.39,376.4c-10.8-5.29-24.98-3.73-33.85,4.56c-1.88,1.75-11.06,5.62-13.63,5.74
			c-12.14,0.55-23.16,9.61-26.92,21.03c-4.47,13.56-1.59,27.97,5.53,39.69c9.04,14.91,22.5,22.06,41.01,20.03
			c10.33-1.13,13.25-4.09,19.56-6.75c6.31-2.66,10.46-2.68,18.5-9.28c14.38-11.81,18.67-26.44,14.33-43.33
			C283.49,394.81,275.21,382.69,262.39,376.4z"/>
	</g>
	<g>
		<g>
			<path class="st4" d="M262.39,376.4c-10.8-5.29-24.98-3.73-33.85,4.56c-1.88,1.75-11.06,5.62-13.63,5.74
				c-3.99,0.19-7.86,1.3-11.4,3.11c6.55-1.22,9.95,6.28,28.16-3.02c16.91-8.65,40.72,11.85,39.78,37.37
				c-0.59,15.87-17.88,33.71-46.3,43.49c2.97,0.21,6.09,0.15,9.38-0.2c10.33-1.13,13.25-4.09,19.56-6.75
				c6.31-2.66,10.46-2.68,18.5-9.28c14.38-11.81,18.67-26.44,14.33-43.33C283.49,394.81,275.21,382.69,262.39,376.4z"/>
		</g>
	</g>
	<g>
		<path class="st1" d="M219.7,380c-3.58-3.64-8.98-4.48-13.86-2.97c3.16,1.22,5.59,2.38,7.93,5.84c-3.03-0.35-10.09,1.45-12.64,5.58
			c5.07-1.5,8.22-1.55,12.4,0.52c0,0-1.21,2.66-0.76,4.85c0.31,1.56,2.14,4.66,2.14,4.66c1.21-5.5,9.26-6.35,7.71-10.92
			c0,0,7.95-1.69,12.91,2.22c-2.28-6.94-6.03-6.76-6.03-6.76c2.17-3.54,8.64-4.39,12.38-4.77c-3.5-2.28-9.38-3-13.46-0.59
			c0.42-3.89,2.76-6.95,6.2-8.81C228.4,369.25,220.75,372.57,219.7,380L219.7,380z"/>
	</g>
	<g>
		<g>
			<path class="st1" d="M215.86,360.91c-3.92,7.1,1.46,18.1,4.42,23.2c0.52,0.03,1.06-0.14,1.49-0.76
				c-1.36-3.27-3.25-8.46-3.48-12.37c-0.31-5.64,1.81-8.27,1.81-8.27C218.72,359.4,215.86,360.91,215.86,360.91z"/>
		</g>
	</g>
	<g>
		<path class="st2" d="M156.65,299.75c0,0,8.76-8.41,38.91,9.97c30.15,18.39,32.16,20.4,28.17,30.95l-12.18-4.61
			c0,0-6.23,21.32-13.15,26.13c0,0-1.28-3.94-3.16-5.13c-1.88-1.18-23.95,24.22-30.26,27.39c0,0-2.01-5.92-1.55-7.14
			c0.47-1.22-11.99,15.87-30.84,22.62c-1.62,0.58-1.61-0.63-1.61-0.63s1.56-24.93,6.77-35.02c5.21-10.09,0.84-2.23,0.84-2.23
			s2.68-5.83-0.13-4.57c-2.8,1.26,4.87-14.1,13.17-18.84c0,0,0.72-10.49-6.03-9.8c-6.75,0.69,16.35-23.54,21.12-22.65
			C171.52,307.07,156.65,299.75,156.65,299.75z"/>
	</g>
	<g>
		<g>
			<path class="st7" d="M209.35,313.72c-49.72,13.6-63.67,70.49-63.67,70.49c0.11-0.58,12.09-58.69,62.96-72.61L209.35,313.72z"/>
		</g>
	</g>
	<g>
		<path class="st8" d="M245.52,317.22c0,0,3.46-6.94,9.97-5.2c6.51,1.74-15.19-17.35-44.68-6.51c0,0-19.96,8.25-30.36,15.61
			c-10.41,7.37,12.15,3.9,15.19,5.2c0,0-5.64,11.71-4.34,26.9c0,0,7.81,4.33,12.15,0c0,0,11.71,22.99,15.19,29.93
			c0,0,2.17-1.73,3.03-4.77c0.87-3.03,0,9.97,21.7,34.71c0,0,19.96-17.79,9.12-67.67c-10.84-49.89-0.43-2.17-0.43-2.17
			s6.95-4.77,10.41,0C262.44,343.25,261.57,321.56,245.52,317.22z"/>
	</g>
	<g>
		<g>
			<path class="st3" d="M205.63,306.7c41.67,30.35,34.55,88.49,34.55,88.49c0.1-0.59,9.49-59.16-33.13-90.21L205.63,306.7z"/>
		</g>
	</g>
	<g>
		<path class="st2" d="M211.33,526.73c0,0,9.15-7.98,38.38,11.82c29.23,19.81,31.15,21.92,26.65,32.27l-11.94-5.2
			c0,0-7.24,21-14.39,25.46c0,0-1.1-4-2.91-5.28c-1.81-1.27-25.08,23.03-31.53,25.92c0,0-1.73-6.01-1.21-7.2
			c0.52-1.2-12.74,15.27-31.88,21.11c-1.65,0.5-1.59-0.71-1.59-0.71s2.76-24.82,8.45-34.65c5.69-9.82,0.96-2.19,0.96-2.19
			s2.96-5.69,0.1-4.57c-2.86,1.12,5.55-13.85,14.05-18.2c0,0,1.21-10.44-5.55-10.07c-6.77,0.37,17.45-22.73,22.19-21.62
			C225.83,534.74,211.33,526.73,211.33,526.73z"/>
	</g>
	<g>
		<g>
			<path class="st7" d="M263.3,543.2c-50.31,11.21-66.98,67.36-66.98,67.36c0.14-0.58,14.88-58.04,66.36-69.51L263.3,543.2z"/>
		</g>
	</g>
	<g>
		<path class="st2" d="M300.21,503.32c0,0-4.48-6.33,0.11-11.25c4.6-4.92-22.47,5.2-26.82,36.33c0,0-2.14,21.48-0.55,34.14
			c1.59,12.66,9.18-8.87,11.75-10.93c0,0,7.66,10.5,21.66,16.52c0,0,7.51-4.84,5.73-10.7c0,0,25.8,0.52,33.56,0.73
			c0,0-0.5-2.72-2.77-4.92c-2.27-2.2,8.79,4.71,40.83-2.76c0,0-6.27-25.99-55.37-39.97s-2.12-0.64-2.12-0.64s-0.93-8.37,4.91-9.18
			C331.15,500.69,311.61,491.22,300.21,503.32z"/>
	</g>
	<g>
		<g>
			<path class="st3" d="M272.12,533.52c46.4-22.41,94.32,11.28,94.32,11.28c-0.47-0.37-47.69-36.29-95.17-13.35L272.12,533.52z"/>
		</g>
	</g>
	<g>
		<path class="st8" d="M281.61,536c0,0,3.46-6.94,9.97-5.2c6.51,1.74-15.17-17.35-44.68-6.51c0,0-19.96,8.25-30.36,15.61
			c-10.41,7.37,12.15,3.9,15.19,5.2c0,0-5.64,11.71-4.34,26.9c0,0,7.81,4.33,12.15,0c0,0,11.71,22.99,15.19,29.93
			c0,0,2.17-1.73,3.03-4.77c0.87-3.03,0,9.97,21.7,34.71c0,0,19.95-17.79,9.1-67.69c-10.84-49.89-0.43-2.17-0.43-2.17
			s6.95-4.77,10.41,0C298.53,562.03,297.66,540.33,281.61,536z"/>
	</g>
	<g>
		<g>
			<path class="st3" d="M241.73,525.47c41.67,30.35,34.55,88.49,34.55,88.49c0.1-0.59,9.49-59.16-33.13-90.21L241.73,525.47z"/>
		</g>
	</g>
	<g>
		<path class="st2" d="M290.29,663.14c0,0-4.41-6.38,0.25-11.25c4.66-4.86-22.53,4.91-27.28,35.98c0,0-2.42,21.46-0.98,34.14
			c1.42,12.68,9.28-8.75,11.89-10.78c0,0,7.53,10.6,21.46,16.79c0,0,7.57-4.73,5.87-10.64c0,0,25.79,0.84,33.55,1.16
			c0,0-0.47-2.73-2.71-4.96c-2.24-2.23,8.73,4.81,40.86-2.24c0,0-5.94-26.07-54.87-40.66s-2.1-0.67-2.1-0.67s-0.82-8.39,5.02-9.12
			C321.26,660.89,301.84,651.17,290.29,663.14z"/>
	</g>
	<g>
		<g>
			<path class="st3" d="M261.82,692.98c46.69-21.84,94.17,12.48,94.17,12.48c-0.47-0.37-47.22-36.88-95-14.54L261.82,692.98z"/>
		</g>
	</g>
	<g>
		<path class="st2" d="M350.74,754.53c0,0-6.72-3.87-4.61-10.26c2.12-6.4-18.21,14.13-9.12,44.23c0,0,7.06,20.4,13.8,31.23
			c6.75,10.83,4.61-11.9,6.08-14.86c0,0,11.36,6.32,26.6,5.92c0,0,4.79-7.54,0.72-12.13c0,0,23.64-10.34,30.78-13.4
			c0,0-1.6-2.25-4.58-3.31c-2.98-1.05,9.96,0.59,35.91-19.61c0,0-16.58-20.97-67.03-13.07c-50.43,7.9-2.19,0.3-2.19,0.3
			s-4.36-7.22,0.62-10.39C377.73,739.17,356.02,738.77,350.74,754.53z"/>
	</g>
	<g>
		<g>
			<path class="st3" d="M337.89,793.72c32.74-39.81,90.36-29.29,90.36-29.29c-0.58-0.14-58.51-12.96-92,27.78L337.89,793.72z"/>
		</g>
	</g>
	<g>
		<path class="st2" d="M276.76,902.22c0,0-4.41-6.38,0.26-11.25c4.66-4.86-22.53,4.91-27.28,35.98c0,0-2.42,21.46-0.99,34.14
			c1.42,12.68,9.29-8.75,11.89-10.78c0,0,7.53,10.6,21.46,16.79c0,0,7.57-4.75,5.87-10.64c0,0,25.79,0.84,33.55,1.16
			c0,0-0.47-2.73-2.71-4.96s8.73,4.81,40.86-2.24c0,0-5.94-26.07-54.87-40.66c-48.92-14.59-2.1-0.67-2.1-0.67s-0.82-8.39,5.02-9.12
			C307.72,899.98,288.31,890.26,276.76,902.22z"/>
	</g>
	<g>
		<g>
			<path class="st3" d="M248.29,932.05c46.69-21.84,94.17,12.48,94.17,12.48c-0.47-0.37-47.22-36.88-95-14.54L248.29,932.05z"/>
		</g>
	</g>
	<g>
		<path class="st2" d="M201.78,926.98c0,0-3.21-7.06-9.77-5.57c-6.56,1.5,15.8-16.79,44.89-4.87c0,0,19.64,8.97,29.78,16.71
			c10.14,7.74-12.28,3.46-15.36,4.65c0,0,5.21,11.91,3.36,27.04c0,0-7.96,4.04-12.14-0.44c0,0-12.54,22.55-16.26,29.37
			c0,0-2.1-1.81-2.86-4.87c-0.76-3.07-0.37,9.97-22.94,33.9c0,0-19.29-18.51-6.65-67.96c12.66-49.46,0.52-2.15,0.52-2.15
			s-6.76-5.01-10.4-0.38C183.93,952.38,185.57,930.73,201.78,926.98z"/>
	</g>
	<g>
		<g>
			<path class="st3" d="M242.01,917.91c-42.74,28.8-37.74,87.18-37.74,87.18c-0.08-0.59-7.34-59.47,36.39-88.95L242.01,917.91z"/>
		</g>
	</g>
	<g>
		<path class="st8" d="M296.59,731.07c0,0,1.74-7.56,8.47-7.4c6.74,0.15-18.84-13.3-44.96,4.19c0,0-17.45,12.72-25.84,22.33
			c-8.39,9.62,12.73,0.93,15.98,1.49c0,0-2.73,12.71,2.12,27.16c0,0,8.6,2.38,11.8-2.86c0,0,16.8,19.58,21.81,25.51
			c0,0,1.7-2.19,1.83-5.35c0.13-3.16,2.34,9.7,29.25,28.62c0,0,15.21-21.99-7.08-67.92s-0.93-2-0.93-2s5.63-6.27,10.12-2.46
			C319.16,752.38,313.21,731.51,296.59,731.07z"/>
	</g>
	<g>
		<g>
			<path class="st3" d="M255.35,730.23c47.64,19.68,54.41,77.86,54.41,77.86c-0.04-0.59-4.7-59.73-53.44-79.87L255.35,730.23z"/>
		</g>
	</g>
	<g>
		<path class="st8" d="M211.96,812.86c0,0-0.37-7.74-7.03-8.79c-6.65-1.05,20.89-9.75,43.51,12.09c0,0,14.92,15.6,21.47,26.55
			c6.55,10.96-12.69-1.33-15.99-1.37c0,0,0.44,13-6.89,26.36c0,0-8.89,0.82-11.11-4.9c0,0-20,16.31-25.98,21.26
			c0,0-1.28-2.46-0.86-5.59c0.43-3.14-4.03,9.13-33.86,22.99c0,0-11.07-24.33,18.99-65.59c30.07-41.27,1.27-1.8,1.27-1.8
			s-4.43-7.17-9.52-4.21C185.97,829.85,195.52,810.36,211.96,812.86z"/>
	</g>
	<g>
		<g>
			<path class="st3" d="M252.69,819.35c-50.37,10.93-67.35,67.01-67.35,67.01c0.15-0.58,15.2-57.96,66.74-69.16L252.69,819.35z"/>
		</g>
	</g>
	<g>
		<path class="st2" d="M241.51,648.68c0,0,6.55-4.16,4.17-10.45s18.8,13.35,10.99,43.8c0,0-6.2,20.69-12.48,31.78
			c-6.28,11.11-5.11-11.69-6.71-14.58c0,0-11.08,6.8-26.32,7.04c0,0-5.1-7.33-1.22-12.09c0,0-24.05-9.33-31.32-12.08
			c0,0,1.5-2.33,4.43-3.5c2.93-1.17-9.92,1.01-36.72-18.08c0,0,15.68-21.65,66.41-15.89c50.74,5.75,2.2,0.21,2.2,0.21
			s4.04-7.39-1.06-10.35C213.91,634.47,235.58,633.15,241.51,648.68z"/>
	</g>
	<g>
		<g>
			<path class="st3" d="M256.01,687.29c-34.39-38.38-91.52-25.44-91.52-25.44c0.58-0.15,57.9-15.43,93.1,23.85L256.01,687.29z"/>
		</g>
	</g>
	<g>
		<path class="st4" d="M134.75,485.72c-2.01-6.84-8.37-12.42-15.55-12.97c-1.52-0.13-6.89-2.58-7.97-3.66
			c-5.1-5.09-13.47-6.27-19.97-3.35c-7.72,3.48-12.86,10.5-15.14,18.31c-2.9,9.92-0.63,18.67,7.67,25.95
			c4.63,4.07,7.09,4.16,10.78,5.86c3.69,1.7,5.36,3.5,11.46,4.37c10.93,1.56,19.04-2.43,24.68-11.09
			C135.15,502.32,137.14,493.84,134.75,485.72z"/>
	</g>
	<g>
		<g>
			<path class="st4" d="M134.75,485.72c-2.01-6.84-8.37-12.42-15.55-12.97c-1.52-0.13-6.89-2.58-7.97-3.66
				c-1.67-1.67-3.71-2.92-5.92-3.74c3.16,2.37,1.23,6.86,12.59,11.11c10.55,3.93,11.13,22.55-0.42,32.36
				c-7.17,6.09-21.9,5.68-37.56-2.83c1.1,1.39,2.37,2.73,3.84,4.02c4.63,4.07,7.09,4.16,10.78,5.86s5.36,3.5,11.46,4.37
				c10.93,1.56,19.04-2.43,24.68-11.09C135.15,502.32,137.14,493.84,134.75,485.72z"/>
		</g>
	</g>
	<g>
		<path class="st1" d="M116.08,468.49c0.16-3.02-1.64-5.72-4.26-7.25c0.73,1.88,1.2,3.4,0.63,5.81c-1.07-1.47-4.67-3.83-7.51-3.3
			c2.68,1.62,3.97,2.97,4.73,5.63c0,0-1.65,0.54-2.42,1.61c-0.55,0.76-1.18,2.8-1.18,2.8c2.88-1.67,6.49,1.51,7.86-0.99
			c0,0,3.93,2.8,4.21,6.52c2.12-3.78,0.54-5.34,0.54-5.34c2.42-0.48,5.38,2.01,7.04,3.5c-0.4-2.44-2.44-5.3-5.14-6.12
			c1.86-1.37,4.14-1.59,6.33-0.83C124.26,467.99,119.74,465.97,116.08,468.49L116.08,468.49z"/>
	</g>
	<g>
		<path class="st4" d="M88.01,505.35c-1.07,0-2.13-0.44-2.88-1.31c-7.49-8.5-6.49-16.91-4.33-22.48c2.23-5.73,6.15-9.53,6.31-9.68
			c1.54-1.47,3.97-1.41,5.44,0.13c1.46,1.54,1.41,3.95-0.11,5.43c-0.06,0.06-2.98,2.96-4.55,7.13c-1.94,5.19-0.96,9.9,3.01,14.39
			c1.41,1.6,1.25,4.03-0.34,5.43C89.82,505.04,88.91,505.35,88.01,505.35z"/>
	</g>
	<g>
		<path class="st4" d="M259.73,802.16c-0.52-4.65,1.91-9.64,6.12-11.81c0.89-0.46,3.51-3.31,3.89-4.24
			c1.79-4.37,6.56-7.22,11.24-7.11c5.56,0.14,10.45,3.08,13.82,7.23c4.28,5.27,5.13,11.14,1.96,17.66
			c-1.77,3.63-3.23,4.32-5.03,6.28c-1.8,1.96-2.35,3.48-5.83,5.57c-6.22,3.72-12.14,3.37-17.76-0.44
			C263.71,812.31,260.35,807.68,259.73,802.16z"/>
	</g>
	<g>
		<g>
			<path class="st4" d="M259.73,802.16c-0.52-4.65,1.91-9.64,6.12-11.81c0.89-0.46,3.51-3.31,3.89-4.24
				c0.59-1.44,1.51-2.71,2.63-3.77c-1.31,2.24,1,4.47-4.8,9.92c-5.39,5.06-1,16.48,8.48,19.48c5.89,1.86,14.7-2.13,22.01-11.27
				c-0.31,1.12-0.74,2.26-1.31,3.41c-1.77,3.63-3.23,4.32-5.03,6.28c-1.8,1.96-2.35,3.48-5.83,5.57
				c-6.22,3.72-12.14,3.37-17.76-0.44C263.71,812.31,260.35,807.68,259.73,802.16z"/>
		</g>
	</g>
	<g>
		<path class="st1" d="M266.65,786.99c-0.86-1.79-0.46-3.88,0.73-5.47c0.03,1.32,0.14,2.36,1.11,3.68c0.27-1.16,1.86-3.51,3.7-3.9
			c-1.21,1.66-1.65,2.8-1.44,4.61c0,0,1.13-0.1,1.87,0.36c0.53,0.32,1.43,1.39,1.43,1.39c-2.18-0.28-3.54,2.56-5.01,1.39
			c0,0-1.66,2.69-0.88,5.02c-2.24-1.75-1.68-3.1-1.68-3.1c-1.59,0.33-2.74,2.59-3.37,3.91c-0.37-1.59,0.13-3.83,1.55-5.01
			c-1.48-0.36-2.91,0.1-4.04,1.12C261.57,788.77,263.79,786.39,266.65,786.99L266.65,786.99z"/>
	</g>
	<g>
		<g>
			<path class="st1" d="M260.16,783.07c3.12-0.51,6.45,2.91,7.92,4.66c-0.06,0.19-0.19,0.37-0.47,0.44
				c-1.02-0.92-2.67-2.3-4.08-2.89c-2.02-0.85-3.28-0.42-3.28-0.42C259.23,783.93,260.16,783.07,260.16,783.07z"/>
		</g>
	</g>
	<g>
		<path class="st4" d="M292.04,802.49c-0.28,0-0.57-0.04-0.84-0.14c-1.39-0.47-2.14-1.98-1.68-3.37c2.95-8.8-5.94-12.32-6.32-12.46
			c-1.38-0.52-2.06-2.06-1.53-3.44c0.52-1.38,2.06-2.06,3.44-1.53c0.14,0.05,3.51,1.37,6.33,4.29c2.74,2.84,5.52,7.73,3.13,14.84
			C294.19,801.79,293.15,802.49,292.04,802.49z"/>
	</g>
</g>
</svg>
