<?xml version="1.0" encoding="utf-8"?>
<!-- Generator: Adobe Illustrator 23.0.2, SVG Export Plug-In . SVG Version: 6.00 Build 0)  -->
<svg version="1.1" id="Layer_1" xmlns="http://www.w3.org/2000/svg" xmlns:xlink="http://www.w3.org/1999/xlink" x="0px" y="0px"
	 viewBox="0 0 895.9 1200" style="enable-background:new 0 0 895.9 1200;" xml:space="preserve">
<style type="text/css">
	.st0{fill:#231F20;}
	.st1{fill:none;stroke:#231F20;stroke-width:12;stroke-miterlimit:10;}
	.st2{fill:#EAD7B9;}
	.st3{fill:#5BC0EE;}
	.st4{fill:#4E5068;}
	.st5{fill:#354053;}
	.st6{fill:#8B8B8B;}
	.st7{fill:none;stroke:#181B3B;stroke-miterlimit:10;}
	.st8{fill:#D3C2A9;}
</style>
<rect x="769.51" y="345.1" class="st0" width="25.25" height="181.98"/>
<rect x="738.69" y="345.1" class="st0" width="25.25" height="181.98"/>
<rect x="707.56" y="345.1" class="st0" width="25.25" height="181.98"/>
<rect x="677.93" y="345.1" class="st0" width="25.25" height="181.98"/>
<rect x="166.03" y="343.72" class="st0" width="25.25" height="181.98"/>
<rect x="135.21" y="343.72" class="st0" width="25.25" height="181.98"/>
<rect x="104.09" y="343.72" class="st0" width="25.25" height="181.98"/>
<rect x="74.45" y="343.72" class="st0" width="25.25" height="181.98"/>
<line class="st1" x1="46.09" y1="435.62" x2="824.23" y2="435.62"/>
<rect x="274.41" y="818.57" class="st2" width="36.19" height="47.13"/>
<rect x="568.46" y="818.57" class="st2" width="36.19" height="47.13"/>
<polygon class="st3" points="411.71,432.69 359.71,446.11 349.22,554.2 343.03,695.73 522.12,699.51 512.14,558.65 503.16,446.87 
	469.34,432.69 "/>
<path class="st4" d="M308.87,708.81l29.84,26.74c8.67,7.76,19.89,12.06,31.53,12.06h114.77c10.57,0,20.84-3.55,29.16-10.07
	l45.36-35.59l-5.61-78.9l-96.49,40.84h-64.83l-83.71-45.46l-9.2,28.61L308.87,708.81z"/>
<path class="st5" d="M308.87,708.81l29.84,26.74c8.67,7.76,19.89,12.06,31.53,12.06h114.77c10.57,0,20.84-3.55,29.16-10.07
	l45.36-35.59l-5.61-78.9l-96.49,40.84h-64.83l-83.71-45.46l-9.2,28.61L308.87,708.81z"/>
<path class="st6" d="M274.16,856.21c0,0-3.06,26.17-23.99,50.68v11.65h70.24l1.36-16.25c0,0-10.34-26.04-11.36-38.29
	C310.4,864.01,306.83,846.22,274.16,856.21z"/>
<path d="M321.42,906.39c0,0-58.58-3.53-71.26,0.5v11.65h70.24L321.42,906.39z"/>
<line class="st7" x1="274.41" y1="871.06" x2="294.07" y2="871.06"/>
<line class="st7" x1="272.71" y1="878.3" x2="292.37" y2="878.3"/>
<line class="st7" x1="268.88" y1="887.54" x2="288.54" y2="887.54"/>
<path class="st6" d="M604.07,856.21c0,0,3.06,26.17,23.99,50.68v11.65h-70.24l-1.36-16.25c0,0,10.34-26.04,11.36-38.29
	C567.83,864.01,571.4,846.22,604.07,856.21z"/>
<path d="M556.81,906.39c0,0,58.58-3.53,71.26,0.5v11.65h-70.24L556.81,906.39z"/>
<line class="st7" x1="603.82" y1="871.06" x2="584.16" y2="871.06"/>
<line class="st7" x1="605.52" y1="878.3" x2="585.87" y2="878.3"/>
<line class="st7" x1="609.35" y1="887.54" x2="589.69" y2="887.54"/>
<path class="st5" d="M274.67,851.75h39.31c0,0,9.75-158.67,5.23-221.77c-0.48-6.66-6.04-11.79-12.72-11.79h-14.01
	c-25.64,0-43.47,21.28-45.28,46.85C242.5,731.27,274.67,851.75,274.67,851.75z"/>
<path class="st5" d="M604.38,856.21h-39.31c0,0-22.58-161.14-19.27-223.22c0.31-5.8,5.08-10.34,10.88-10.34h15.6
	c25.64,0,46.18,21.23,45.28,46.85C615.36,732.33,604.38,856.21,604.38,856.21z"/>
<path class="st2" d="M474.06,503.13l131.5,81.15c6.64,3.96,15.21,0.18,16.76-7.4l19.93-101.18l10.42-17.34l-1.49-20.75l-5.42-19.63
	l-15.62-5.29c-2.05-0.7-4.26,0.53-4.75,2.65l-4.26,18.44l-8.45,10.62l1.19-5.14l2.44-6.18c1.48-3.74-0.72-7.92-4.64-8.83l0,0
	l-9.69,10.85l-3.37,12.33l11.26,18.54l-13.76,64.35l-105.1-68.41L474.06,503.13z"/>
<path class="st3" d="M472.57,528.84l-10.89-96.15l54.87,10.21c13.43,2.5,24.25,9.65,28.88,19.07l37.14,54.47l-50.75,6.02
	L472.57,528.84z"/>
<path class="st8" d="M433.52,490.48L433.52,490.48c-14.14,0-25.61-11.47-25.61-25.61v-44.43h51.22v44.43
	C459.13,479.01,447.66,490.48,433.52,490.48z"/>
<g>
	<path d="M478.45,377.06c-1.04,13.05-1.59,28.34-14.35,35.74c-0.99,0.57-2.03,1.08-3.14,1.3c-0.93,0.19-1.88,0.17-2.82,0.11
		c-3.83-0.26-7.6-1.32-11-3.1c-1.19-0.62-2.36-1.34-3.67-1.6c-4.28-0.85-7.74,3.16-11.34,5.61c-6.79,4.62-15.87,3.97-23.81,1.84
		c-4.52-1.22-9.63-3.65-10.35-8.28c-0.36-2.34,0.52-4.86-0.42-7.03c-0.75-1.73-2.46-2.8-3.94-3.99c-3.38-2.71-3.12-8.01-3.21-12.05
		c-0.07-3.25-0.14-6.5-0.22-9.74c-0.04-1.61-0.07-3.23-0.39-4.8c-0.38-1.92-1.17-3.75-1.37-5.69c-0.24-2.38,0.98-3.13,1.75-5.01
		c0.65-1.6,0.35-3.42,1.26-5.03c1.08-1.91,2.68-3.47,3.96-5.26c1.7-2.36,2.83-5.07,4.43-7.5c1.6-2.42,3.86-4.65,6.71-5.18
		c1.07-0.2,2.18-0.15,3.26-0.35c3.22-0.6,5.57-3.27,8.07-5.39c2.44-2.07,5.23-3.73,8.21-4.89c2.1-0.81,4.35-1.38,6.6-1.16
		c2.99,0.3,5.77,1.98,8.77,1.85c1.42-0.06,2.81-0.54,4.23-0.6c3.46-0.16,6.61,2.09,10.07,2.39c8.84,0.77,18.9,8.9,18.5,18.18
		c-0.05,1.14-0.18,2.31,0.21,3.38c0.6,1.62,2.26,2.6,3.13,4.09c2.02,3.45-0.86,7.82-0.27,11.78c0.17,1.16,0.64,2.25,0.93,3.39
		C478.82,372.32,478.64,374.71,478.45,377.06z"/>
</g>
<path class="st2" d="M410.23,421.46c0,0-10.08,1.48-12.95-8.96c0,0-7.85-21.16,0-22.18c0,0,16.53,10.79,16.53,15.61
	C413.8,410.74,410.23,421.46,410.23,421.46z"/>
<path class="st2" d="M462.7,421.46c0,0,10.08,1.48,12.95-8.96c0,0,7.85-21.16,0-22.18c0,0-16.53,10.79-16.53,15.61
	C459.13,410.74,462.7,421.46,462.7,421.46z"/>
<path class="st2" d="M451.74,457.6l-0.92,0.53c-4.73,2.7-10.09,4.13-15.54,4.13l0,0c-5.71,0-11.3-1.56-16.19-4.51l0,0
	c-11.38-6.87-18.33-19.19-18.33-32.49v-62.51h70.1v61.9C470.86,438.27,463.57,450.84,451.74,457.6z"/>
<g>
	<path d="M393.17,389.47c2.31-0.23,5.86-0.13,7.8-1.37c1.58-1.01,2.59-2.84,2.61-4.7c0-0.55-0.05-1.18,0.33-1.58
		c0.47-0.5,1.29-0.34,1.97-0.26c1.94,0.23,3.98-0.62,5.19-2.15c1.21-1.54,1.55-3.72,0.87-5.55c1.23,0.57,2.75,0.05,3.69-0.93
		c2.27-2.36,0.82-6.87,3.16-8.98c3.73-3.37,6.4,2.9,9.43,4.76c2.83,1.73,6.77,1.4,9.27-0.78c-1.42,2.69,0.64,6.24,3.52,7.2
		c2.88,0.96,6.09-0.09,8.62-1.78c0.24,0.54,0.47,1.08,0.68,1.63c11.31,7.83,28.12,12.31,30.82-6.2c0.67-4.6-1.69-15.46-4.44-19.35
		c-1.47-2.08-3.67-3.53-5.9-4.77c-22.47-12.54-53.27-7.57-70.65,11.4c-2.4,2.62-4.59,5.51-5.97,8.79
		c-3.21,7.61-1.76,16.3,0.06,24.34"/>
</g>
<path class="st2" d="M387.96,506.4l-131.5,81.15c-6.64,3.96-15.21,0.18-16.76-7.4l-19.93-101.18l-10.42-17.34l1.49-20.75l5.42-19.63
	l15.62-5.29c2.05-0.7,4.26,0.53,4.75,2.65l4.26,18.44l8.45,10.62l-1.19-5.14l-2.44-6.18c-1.48-3.74,0.72-7.92,4.64-8.83l0,0
	l9.69,10.85l3.37,12.33l-11.26,18.54l13.76,64.35l105.1-68.41L387.96,506.4z"/>
<path class="st3" d="M389.46,532.11l10.89-96.15l-54.87,10.21c-13.43,2.5-24.25,9.65-28.88,19.07l-37.14,54.47l50.75,6.02
	L389.46,532.11z"/>
</svg>
