<?xml version="1.0" encoding="utf-8"?>
<!-- Generator: Adobe Illustrator 23.0.1, SVG Export Plug-In . SVG Version: 6.00 Build 0)  -->
<svg version="1.1" id="Layer_1" xmlns="http://www.w3.org/2000/svg" xmlns:xlink="http://www.w3.org/1999/xlink" x="0px" y="0px"
	 viewBox="0 0 230 190" style="enable-background:new 0 0 230 190;" xml:space="preserve">
<style type="text/css">
	.st0{fill:#231F20;}
	.st1{fill:none;stroke:#231F20;stroke-width:12;stroke-miterlimit:10;}
	.st2{fill:#EAD7B9;}
	.st3{fill:#5BC0EE;}
	.st4{fill:#4E5068;}
	.st5{fill:#354053;}
	.st6{fill:#8B8B8B;}
	.st7{fill:none;stroke:#181B3B;stroke-miterlimit:10;}
	.st8{fill:#D3C2A9;}
</style>
<g>
	<rect x="199.6" y="16.8" class="st0" width="6.2" height="52.2"/>
	<rect x="192" y="16.8" class="st0" width="6.2" height="52.2"/>
	<rect x="184.4" y="16.8" class="st0" width="6.2" height="52.2"/>
	<rect x="177.1" y="16.8" class="st0" width="6.2" height="52.2"/>
	<rect x="51.1" y="16.4" class="st0" width="6.2" height="52.2"/>
	<rect x="43.5" y="16.4" class="st0" width="6.2" height="52.2"/>
	<rect x="35.8" y="16.4" class="st0" width="6.2" height="52.2"/>
	<rect x="28.5" y="16.4" class="st0" width="6.2" height="52.2"/>
	<line class="st1" x1="21.6" y1="42.8" x2="213.1" y2="42.8"/>
	<rect x="77.8" y="152.6" class="st2" width="8.9" height="13.5"/>
	<rect x="150.1" y="152.6" class="st2" width="8.9" height="13.5"/>
	<polygon class="st3" points="111.6,41.9 98.8,45.8 96.2,76.8 94.7,117.4 138.7,118.5 136.3,78.1 134.1,46 125.7,41.9 	"/>
	<path class="st4" d="M86.2,121.2l7.3,7.7c2.1,2.2,4.9,3.5,7.8,3.5h28.3c2.6,0,5.1-1,7.2-2.9l11.2-10.2l-1.4-22.6l-23.8,11.7h-16
		l-20.6-13l-2.3,8.2L86.2,121.2z"/>
	<path class="st5" d="M86.2,121.2l7.3,7.7c2.1,2.2,4.9,3.5,7.8,3.5h28.3c2.6,0,5.1-1,7.2-2.9l11.2-10.2l-1.4-22.6l-23.8,11.7h-16
		l-20.6-13l-2.3,8.2L86.2,121.2z"/>
	<path class="st6" d="M77.7,163.4c0,0-0.8,7.5-5.9,14.5v3.3h17.3l0.3-4.7c0,0-2.5-7.5-2.8-11C86.6,165.7,85.7,160.6,77.7,163.4z"/>
	<path d="M89.3,177.8c0,0-14.4-1-17.5,0.1v3.3h17.3L89.3,177.8z"/>
	<line class="st7" x1="77.8" y1="167.7" x2="82.6" y2="167.7"/>
	<line class="st7" x1="77.3" y1="169.8" x2="82.2" y2="169.8"/>
	<line class="st7" x1="76.4" y1="172.4" x2="81.2" y2="172.4"/>
	<path class="st6" d="M158.9,163.4c0,0,0.8,7.5,5.9,14.5v3.3h-17.3l-0.3-4.7c0,0,2.5-7.5,2.8-11C150,165.7,150.9,160.6,158.9,163.4z
		"/>
	<path d="M147.3,177.8c0,0,14.4-1,17.5,0.1v3.3h-17.3L147.3,177.8z"/>
	<line class="st7" x1="158.8" y1="167.7" x2="154" y2="167.7"/>
	<line class="st7" x1="159.3" y1="169.8" x2="154.4" y2="169.8"/>
	<line class="st7" x1="160.2" y1="172.4" x2="155.4" y2="172.4"/>
	<path class="st5" d="M77.8,162.2h9.7c0,0,2.4-45.5,1.3-63.6c-0.1-1.9-1.5-3.4-3.1-3.4h-3.4c-6.3,0-10.7,6.1-11.1,13.4
		C69.9,127.6,77.8,162.2,77.8,162.2z"/>
	<path class="st5" d="M159,163.4h-9.7c0,0-5.6-46.2-4.7-64c0.1-1.7,1.3-3,2.7-3h3.8c6.3,0,11.4,6.1,11.1,13.4
		C161.7,127.9,159,163.4,159,163.4z"/>
	<path class="st2" d="M126.9,62.2l32.4,23.3c1.6,1.1,3.7,0.1,4.1-2.1l4.9-29l2.6-5l-0.4-6l-1.3-5.6l-3.8-1.5c-0.5-0.2-1,0.2-1.2,0.8
		l-1,5.3l-2.1,3l0.3-1.5l0.6-1.8c0.4-1.1-0.2-2.3-1.1-2.5l0,0l-2.4,3.1l-0.8,3.5l2.8,5.3L157,70l-25.9-19.6L126.9,62.2z"/>
	<path class="st3" d="M126.5,69.5l-2.7-27.6l13.5,2.9c3.3,0.7,6,2.8,7.1,5.5l9.1,15.6l-12.5,1.7L126.5,69.5z"/>
	<path class="st8" d="M116.9,58.5L116.9,58.5c-3.5,0-6.3-3.3-6.3-7.3V38.4h12.6v12.7C123.2,55.2,120.4,58.5,116.9,58.5z"/>
	<g>
		<path d="M128,26c-0.3,3.7-0.4,8.1-3.5,10.3c-0.2,0.2-0.5,0.3-0.8,0.4c-0.2,0.1-0.5,0-0.7,0c-0.9-0.1-1.9-0.4-2.7-0.9
			c-0.3-0.2-0.6-0.4-0.9-0.5c-1.1-0.2-1.9,0.9-2.8,1.6c-1.7,1.3-3.9,1.1-5.9,0.5c-1.1-0.3-2.4-1-2.5-2.4c-0.1-0.7,0.1-1.4-0.1-2
			c-0.2-0.5-0.6-0.8-1-1.1c-0.8-0.8-0.8-2.3-0.8-3.5c0-0.9,0-1.9-0.1-2.8c0-0.5,0-0.9-0.1-1.4c-0.1-0.6-0.3-1.1-0.3-1.6
			c-0.1-0.7,0.2-0.9,0.4-1.4c0.2-0.5,0.1-1,0.3-1.4c0.3-0.5,0.7-1,1-1.5c0.4-0.7,0.7-1.5,1.1-2.2c0.4-0.7,1-1.3,1.7-1.5
			c0.3-0.1,0.5,0,0.8-0.1c0.8-0.2,1.4-0.9,2-1.5c0.6-0.6,1.3-1.1,2-1.4c0.5-0.2,1.1-0.4,1.6-0.3c0.7,0.1,1.4,0.6,2.2,0.5
			c0.3,0,0.7-0.2,1-0.2c0.9,0,1.6,0.6,2.5,0.7c2.2,0.2,4.7,2.6,4.6,5.2c0,0.3,0,0.7,0.1,1c0.1,0.5,0.6,0.7,0.8,1.2
			c0.5,1-0.2,2.2-0.1,3.4c0,0.3,0.2,0.6,0.2,1C128.1,24.6,128,25.3,128,26z"/>
	</g>
	<path class="st2" d="M111.2,38.7c0,0-2.5,0.4-3.2-2.6c0,0-1.9-6.1,0-6.4c0,0,4.1,3.1,4.1,4.5C112.1,35.7,111.2,38.7,111.2,38.7z"/>
	<path class="st2" d="M124.1,38.7c0,0,2.5,0.4,3.2-2.6c0,0,1.9-6.1,0-6.4c0,0-4.1,3.1-4.1,4.5C123.2,35.7,124.1,38.7,124.1,38.7z"/>
	<path class="st2" d="M121.4,49.1l-0.2,0.2c-1.2,0.8-2.5,1.2-3.8,1.2l0,0c-1.4,0-2.8-0.4-4-1.3l0,0c-2.8-2-4.5-5.5-4.5-9.3V21.9
		h17.3v17.8C126.1,43.5,124.3,47.2,121.4,49.1z"/>
	<g>
		<path d="M107,29.5c0.6-0.1,1.4,0,1.9-0.4c0.4-0.3,0.6-0.8,0.6-1.3c0-0.2,0-0.3,0.1-0.5c0.1-0.1,0.3-0.1,0.5-0.1
			c0.5,0.1,1-0.2,1.3-0.6c0.3-0.4,0.4-1.1,0.2-1.6c0.3,0.2,0.7,0,0.9-0.3c0.6-0.7,0.2-2,0.8-2.6c0.9-1,1.6,0.8,2.3,1.4
			c0.7,0.5,1.7,0.4,2.3-0.2c-0.3,0.8,0.2,1.8,0.9,2.1c0.7,0.3,1.5,0,2.1-0.5c0.1,0.2,0.1,0.3,0.2,0.5c2.8,2.2,6.9,3.5,7.6-1.8
			c0.2-1.3-0.4-4.4-1.1-5.6c-0.4-0.6-0.9-1-1.5-1.4c-5.5-3.6-13.1-2.2-17.4,3.3c-0.6,0.8-1.1,1.6-1.5,2.5c-0.8,2.2-0.4,4.7,0,7"/>
	</g>
	<path class="st2" d="M105.7,63.1L73.3,86.4c-1.6,1.1-3.7,0.1-4.1-2.1l-4.9-29l-2.6-5l0.4-6l1.3-5.6l3.8-1.5c0.5-0.2,1,0.2,1.2,0.8
		l1,5.3l2.1,3l-0.3-1.5L70.7,43c-0.4-1.1,0.2-2.3,1.1-2.5l0,0l2.4,3.1l0.8,3.5l-2.8,5.3l3.4,18.5l25.9-19.6L105.7,63.1z"/>
	<path class="st3" d="M106.1,70.5l2.7-27.6l-13.5,2.9c-3.3,0.7-6,2.8-7.1,5.5L79,66.9l12.5,1.7L106.1,70.5z"/>
</g>
</svg>
