<?xml version="1.0" encoding="utf-8"?>
<!-- Generator: Adobe Illustrator 23.0.2, SVG Export Plug-In . SVG Version: 6.00 Build 0)  -->
<svg version="1.1" id="Layer_1" xmlns="http://www.w3.org/2000/svg" xmlns:xlink="http://www.w3.org/1999/xlink" x="0px" y="0px"
	 viewBox="0 0 1740.85 1200" style="enable-background:new 0 0 1740.85 1200;" xml:space="preserve">
<style type="text/css">
	.st0{fill:#8A8546;}
	.st1{fill:#4A4720;}
	.st2{fill:#504D26;}
	.st3{fill:#9C9764;}
	.st4{fill:#57532D;}
	.st5{fill-rule:evenodd;clip-rule:evenodd;fill:#23291E;}
	.st6{fill-rule:evenodd;clip-rule:evenodd;fill:#10120F;}
	.st7{fill-rule:evenodd;clip-rule:evenodd;fill:#010101;}
	.st8{fill-rule:evenodd;clip-rule:evenodd;fill:#384631;}
	.st9{fill-rule:evenodd;clip-rule:evenodd;fill:#151D11;}
	.st10{fill-rule:evenodd;clip-rule:evenodd;fill:#CB922E;}
	.st11{fill-rule:evenodd;clip-rule:evenodd;fill:#D2993A;}
	.st12{fill-rule:evenodd;clip-rule:evenodd;fill:#C68A2F;}
	.st13{fill-rule:evenodd;clip-rule:evenodd;fill:#2B3B22;}
	.st14{fill-rule:evenodd;clip-rule:evenodd;fill:#1C2818;}
	.st15{fill-rule:evenodd;clip-rule:evenodd;fill:#0F0F0D;}
	.st16{fill-rule:evenodd;clip-rule:evenodd;fill:#172014;}
	.st17{fill-rule:evenodd;clip-rule:evenodd;fill:#33452A;}
	.st18{fill-rule:evenodd;clip-rule:evenodd;fill:#3C5330;}
	.st19{fill-rule:evenodd;clip-rule:evenodd;fill:#69835C;}
	.st20{fill-rule:evenodd;clip-rule:evenodd;fill:#809576;}
	.st21{fill-rule:evenodd;clip-rule:evenodd;fill:#523E2E;}
	.st22{fill-rule:evenodd;clip-rule:evenodd;fill:#36291E;}
	.st23{fill-rule:evenodd;clip-rule:evenodd;fill:#A05525;}
	.st24{fill-rule:evenodd;clip-rule:evenodd;fill:#17120F;}
	.st25{fill-rule:evenodd;clip-rule:evenodd;fill:#35271A;}
	.st26{fill-rule:evenodd;clip-rule:evenodd;fill:#E2AC4C;}
	.st27{fill-rule:evenodd;clip-rule:evenodd;fill:#090C09;}
	.st28{fill-rule:evenodd;clip-rule:evenodd;fill:#A3A39E;}
	.st29{fill-rule:evenodd;clip-rule:evenodd;fill:#4C5245;}
</style>
<g>
	<g>
		<polygon class="st0" points="1288.87,508.99 854.06,541.37 852.43,518.16 1287.24,485.77 		"/>
		<polygon class="st0" points="1262.22,515.18 1252.2,515.93 1249.98,484.34 1260,483.59 		"/>
		<polygon class="st0" points="1133.78,524.75 1123.76,525.5 1121.54,493.9 1131.56,493.16 		"/>
		<polygon class="st0" points="893.53,538.43 862.33,551.51 859.19,506.9 891.9,515.22 		"/>
		<polygon class="st0" points="1333.02,509.91 1280.39,513.83 1278.17,482.24 1330.8,478.31 		"/>
		<polygon class="st0" points="1133.78,524.75 1123.76,525.5 1121.54,493.9 1131.56,493.16 		"/>
		<polygon class="st0" points="867.91,559.17 802.47,564.05 768.38,505.59 863.64,498.49 		"/>
		<rect x="478.1" y="472" class="st0" width="195.36" height="9.05"/>
		<polygon class="st0" points="336.76,565.09 336.76,585.13 379.48,588.36 409,481.05 388.27,481.05 		"/>
		<polygon class="st0" points="771.46,488.16 820.45,582.54 828.62,612.93 637.03,612.93 379.48,588.36 409,481.05 745.7,481.05 		
			"/>
		<path class="st1" d="M67.59,674.43c0,0,31.79,51.74,39.56,63.38c7.78,11.64,151.39,71.65,151.39,71.65l670.5-6.83
			c0,0,114.08-43.92,119.11-64.61c5.02-20.69,8.79-38.1,8.79-38.1l3.77-27.84l-22.52-25.41H95.85L67.59,674.43z"/>
		<g>
			<g>
				<path class="st2" d="M322.07,837.13c3.12-0.09,5.72,2.43,5.82,5.65l0,0c0.09,3.21-2.36,5.89-5.49,5.99l-21.5,0.65
					c-3.12,0.1-5.72-2.43-5.82-5.64l0,0c-0.09-3.21,2.37-5.89,5.49-5.99L322.07,837.13z"/>
				<path class="st2" d="M355.34,837.13c3.12-0.09,5.73,2.43,5.82,5.65l0,0c0.09,3.21-2.36,5.89-5.49,5.99l-21.5,0.65
					c-3.12,0.1-5.73-2.43-5.82-5.64l0,0c-0.09-3.21,2.37-5.89,5.48-5.99L355.34,837.13z"/>
				<path class="st2" d="M388.61,837.13c3.12-0.09,5.73,2.43,5.82,5.65l0,0c0.09,3.21-2.36,5.89-5.48,5.99l-21.5,0.65
					c-3.12,0.1-5.72-2.43-5.82-5.64l0,0c-0.09-3.21,2.36-5.89,5.49-5.99L388.61,837.13z"/>
				<path class="st2" d="M421.89,837.13c3.12-0.09,5.72,2.43,5.81,5.65l0,0c0.09,3.21-2.36,5.89-5.49,5.99l-21.5,0.65
					c-3.12,0.1-5.72-2.43-5.81-5.64l0,0c-0.09-3.21,2.36-5.89,5.48-5.99L421.89,837.13z"/>
				<path class="st2" d="M455.17,837.13c3.12-0.09,5.72,2.43,5.82,5.65l0,0c0.09,3.21-2.36,5.89-5.48,5.99l-21.51,0.65
					c-3.12,0.1-5.73-2.43-5.82-5.64l0,0c-0.09-3.21,2.36-5.89,5.49-5.99L455.17,837.13z"/>
				<path class="st2" d="M488.44,837.13c3.12-0.09,5.72,2.43,5.82,5.65l0,0c0.09,3.21-2.36,5.89-5.48,5.99l-21.51,0.65
					c-3.12,0.1-5.73-2.43-5.82-5.64l0,0c-0.09-3.21,2.37-5.89,5.49-5.99L488.44,837.13z"/>
				<path class="st2" d="M521.72,837.13c3.12-0.09,5.73,2.43,5.82,5.65l0,0c0.09,3.21-2.36,5.89-5.48,5.99l-21.51,0.65
					c-3.12,0.1-5.72-2.43-5.82-5.64l0,0c-0.09-3.21,2.36-5.89,5.49-5.99L521.72,837.13z"/>
				<path class="st2" d="M554.99,837.13c3.12-0.09,5.72,2.43,5.82,5.65l0,0c0.09,3.21-2.36,5.89-5.48,5.99l-21.51,0.65
					c-3.12,0.1-5.72-2.43-5.82-5.64l0,0c-0.09-3.21,2.36-5.89,5.49-5.99L554.99,837.13z"/>
				<path class="st2" d="M588.27,837.13c3.12-0.09,5.72,2.43,5.82,5.65l0,0c0.09,3.21-2.37,5.89-5.49,5.99l-21.51,0.65
					c-3.12,0.1-5.72-2.43-5.82-5.64l0,0c-0.09-3.21,2.37-5.89,5.49-5.99L588.27,837.13z"/>
				<path class="st2" d="M621.54,836.53c3.12-0.09,5.72,2.44,5.82,5.65l0,0c0.09,3.21-2.36,5.89-5.49,5.99l-21.5,0.65
					c-3.12,0.09-5.72-2.43-5.82-5.65l0,0c-0.09-3.21,2.37-5.89,5.49-5.98L621.54,836.53z"/>
				<path class="st2" d="M654.82,836.53c3.12-0.09,5.73,2.44,5.82,5.65l0,0c0.09,3.21-2.36,5.89-5.49,5.99l-21.5,0.65
					c-3.12,0.09-5.72-2.43-5.82-5.65l0,0c-0.09-3.21,2.37-5.89,5.49-5.98L654.82,836.53z"/>
				<path class="st2" d="M688.1,836.53c3.12-0.09,5.73,2.44,5.82,5.65l0,0c0.09,3.21-2.36,5.89-5.49,5.99l-21.5,0.65
					c-3.12,0.09-5.72-2.43-5.82-5.65l0,0c-0.09-3.21,2.37-5.89,5.49-5.98L688.1,836.53z"/>
				<path class="st2" d="M721.37,836.53c3.12-0.09,5.72,2.44,5.82,5.65l0,0c0.09,3.21-2.37,5.89-5.49,5.99l-21.5,0.65
					c-3.12,0.09-5.72-2.43-5.82-5.65l0,0c-0.09-3.21,2.36-5.89,5.48-5.98L721.37,836.53z"/>
				<path class="st2" d="M754.65,836.53c3.12-0.09,5.72,2.44,5.82,5.65l0,0c0.09,3.21-2.36,5.89-5.49,5.99l-21.5,0.65
					c-3.12,0.09-5.72-2.43-5.82-5.65l0,0c-0.09-3.21,2.36-5.89,5.49-5.98L754.65,836.53z"/>
				<path class="st2" d="M787.92,836.53c3.12-0.09,5.72,2.44,5.82,5.65l0,0c0.09,3.21-2.36,5.89-5.48,5.99l-21.51,0.65
					c-3.12,0.09-5.72-2.43-5.82-5.65l0,0c-0.09-3.21,2.36-5.89,5.48-5.98L787.92,836.53z"/>
				<path class="st2" d="M821.2,836.53c3.12-0.09,5.73,2.44,5.82,5.65l0,0c0.09,3.21-2.36,5.89-5.49,5.99l-21.5,0.65
					c-3.12,0.09-5.72-2.43-5.82-5.65l0,0c-0.09-3.21,2.37-5.89,5.49-5.98L821.2,836.53z"/>
				<path class="st2" d="M854.47,836.53c3.12-0.09,5.72,2.44,5.82,5.65l0,0c0.09,3.21-2.36,5.89-5.48,5.99l-21.51,0.65
					c-3.12,0.09-5.72-2.43-5.82-5.65l0,0c-0.09-3.21,2.36-5.89,5.49-5.98L854.47,836.53z"/>
				<path class="st2" d="M887.75,836.53c3.12-0.09,5.72,2.44,5.82,5.65l0,0c0.09,3.21-2.36,5.89-5.49,5.99l-21.5,0.65
					c-3.12,0.09-5.72-2.43-5.82-5.65l0,0c-0.09-3.21,2.37-5.89,5.49-5.98L887.75,836.53z"/>
			</g>
			<g>
				<path class="st2" d="M259.71,868.18c2.42,2.04,2.77,5.7,0.8,8.19l0,0c-1.98,2.49-5.54,2.85-7.96,0.82l-16.65-14.02
					c-2.42-2.04-2.77-5.7-0.79-8.19l0,0c1.98-2.49,5.54-2.85,7.96-0.82L259.71,868.18z"/>
				<path class="st2" d="M895.64,867.6c-2.42,2.04-2.77,5.7-0.79,8.19l0,0c1.98,2.49,5.54,2.85,7.95,0.82l16.65-14.02
					c2.42-2.03,2.77-5.7,0.79-8.19l0,0c-1.98-2.49-5.54-2.85-7.95-0.82L895.64,867.6z"/>
				<path class="st2" d="M288.79,870.53c3.12-0.09,5.73,2.43,5.82,5.65l0,0c0.09,3.21-2.36,5.89-5.49,5.99l-21.5,0.65
					c-3.12,0.1-5.72-2.43-5.82-5.64l0,0c-0.09-3.21,2.36-5.89,5.49-5.99L288.79,870.53z"/>
				<path class="st2" d="M322.07,870.53c3.12-0.09,5.72,2.43,5.82,5.65l0,0c0.09,3.21-2.36,5.89-5.49,5.99l-21.5,0.65
					c-3.12,0.1-5.72-2.43-5.82-5.64l0,0c-0.09-3.21,2.37-5.89,5.49-5.99L322.07,870.53z"/>
				<path class="st2" d="M355.34,870.53c3.12-0.09,5.73,2.43,5.82,5.65l0,0c0.09,3.21-2.36,5.89-5.49,5.99l-21.5,0.65
					c-3.12,0.1-5.73-2.43-5.82-5.64l0,0c-0.09-3.21,2.37-5.89,5.48-5.99L355.34,870.53z"/>
				<path class="st2" d="M388.61,870.53c3.12-0.09,5.73,2.43,5.82,5.65l0,0c0.09,3.21-2.36,5.89-5.48,5.99l-21.5,0.65
					c-3.12,0.1-5.72-2.43-5.82-5.64l0,0c-0.09-3.21,2.36-5.89,5.49-5.99L388.61,870.53z"/>
				<path class="st2" d="M421.89,870.53c3.12-0.09,5.72,2.43,5.81,5.65l0,0c0.09,3.21-2.36,5.89-5.49,5.99l-21.5,0.65
					c-3.12,0.1-5.72-2.43-5.81-5.64l0,0c-0.09-3.21,2.36-5.89,5.48-5.99L421.89,870.53z"/>
				<path class="st2" d="M455.17,870.53c3.12-0.09,5.72,2.43,5.82,5.65l0,0c0.09,3.21-2.36,5.89-5.48,5.99l-21.51,0.65
					c-3.12,0.1-5.73-2.43-5.82-5.64l0,0c-0.09-3.21,2.36-5.89,5.49-5.99L455.17,870.53z"/>
				<path class="st2" d="M488.44,870.53c3.12-0.09,5.72,2.43,5.82,5.65l0,0c0.09,3.21-2.36,5.89-5.48,5.99l-21.51,0.65
					c-3.12,0.1-5.73-2.43-5.82-5.64l0,0c-0.09-3.21,2.37-5.89,5.49-5.99L488.44,870.53z"/>
				<path class="st2" d="M521.72,870.53c3.12-0.09,5.73,2.43,5.82,5.65l0,0c0.09,3.21-2.36,5.89-5.48,5.99l-21.51,0.65
					c-3.12,0.1-5.72-2.43-5.82-5.64l0,0c-0.09-3.21,2.36-5.89,5.49-5.99L521.72,870.53z"/>
				<path class="st2" d="M554.99,870.53c3.12-0.09,5.72,2.43,5.82,5.65l0,0c0.09,3.21-2.36,5.89-5.48,5.99l-21.51,0.65
					c-3.12,0.1-5.72-2.43-5.82-5.64l0,0c-0.09-3.21,2.36-5.89,5.49-5.99L554.99,870.53z"/>
				<path class="st2" d="M588.27,870.53c3.12-0.09,5.72,2.43,5.82,5.65l0,0c0.09,3.21-2.37,5.89-5.49,5.99l-21.51,0.65
					c-3.12,0.1-5.72-2.43-5.82-5.64l0,0c-0.09-3.21,2.37-5.89,5.49-5.99L588.27,870.53z"/>
				<path class="st2" d="M621.54,870.53c3.12-0.09,5.72,2.43,5.82,5.65l0,0c0.09,3.21-2.36,5.89-5.49,5.99l-21.5,0.65
					c-3.12,0.1-5.72-2.43-5.82-5.64l0,0c-0.09-3.21,2.37-5.89,5.49-5.99L621.54,870.53z"/>
				<path class="st2" d="M654.82,870.53c3.12-0.09,5.73,2.43,5.82,5.65l0,0c0.09,3.21-2.36,5.89-5.49,5.99l-21.5,0.65
					c-3.12,0.1-5.72-2.43-5.82-5.64l0,0c-0.09-3.21,2.37-5.89,5.49-5.99L654.82,870.53z"/>
				<path class="st2" d="M688.1,870.53c3.12-0.09,5.73,2.43,5.82,5.65l0,0c0.09,3.21-2.36,5.89-5.49,5.99l-21.5,0.65
					c-3.12,0.1-5.72-2.43-5.82-5.64l0,0c-0.09-3.21,2.37-5.89,5.49-5.99L688.1,870.53z"/>
				<path class="st2" d="M721.37,870.53c3.12-0.09,5.72,2.43,5.82,5.65l0,0c0.09,3.21-2.37,5.89-5.49,5.99l-21.5,0.65
					c-3.12,0.1-5.72-2.43-5.82-5.64l0,0c-0.09-3.21,2.36-5.89,5.48-5.99L721.37,870.53z"/>
				<path class="st2" d="M754.65,870.53c3.12-0.09,5.72,2.43,5.82,5.65l0,0c0.09,3.21-2.36,5.89-5.49,5.99l-21.5,0.65
					c-3.12,0.1-5.72-2.43-5.82-5.64l0,0c-0.09-3.21,2.36-5.89,5.49-5.99L754.65,870.53z"/>
				<path class="st2" d="M787.92,870.53c3.12-0.09,5.72,2.43,5.82,5.65l0,0c0.09,3.21-2.36,5.89-5.48,5.99l-21.51,0.65
					c-3.12,0.1-5.72-2.43-5.82-5.64l0,0c-0.09-3.21,2.36-5.89,5.48-5.99L787.92,870.53z"/>
				<path class="st2" d="M821.2,870.53c3.12-0.09,5.73,2.43,5.82,5.65l0,0c0.09,3.21-2.36,5.89-5.49,5.99l-21.5,0.65
					c-3.12,0.1-5.72-2.43-5.82-5.64l0,0c-0.09-3.21,2.37-5.89,5.49-5.99L821.2,870.53z"/>
				<path class="st2" d="M854.47,870.53c3.12-0.09,5.72,2.43,5.82,5.65l0,0c0.09,3.21-2.36,5.89-5.48,5.99l-21.51,0.65
					c-3.12,0.1-5.72-2.43-5.82-5.64l0,0c-0.09-3.21,2.36-5.89,5.49-5.99L854.47,870.53z"/>
				<path class="st2" d="M887.75,870.53c3.12-0.09,5.72,2.43,5.82,5.65l0,0c0.09,3.21-2.36,5.89-5.49,5.99l-21.5,0.65
					c-3.12,0.1-5.72-2.43-5.82-5.64l0,0c-0.09-3.21,2.37-5.89,5.49-5.99L887.75,870.53z"/>
				<g>
					<path class="st2" d="M129.09,759.63c2.13,2.35,2,6.04-0.29,8.22l0,0c-2.29,2.19-5.86,2.05-7.99-0.3l-14.65-16.22
						c-2.13-2.35-2-6.04,0.29-8.22l0,0c2.29-2.19,5.86-2.05,7.99,0.3L129.09,759.63z"/>
					<path class="st2" d="M152.53,783.84c2.33,2.14,2.54,5.81,0.46,8.21l0,0c-2.08,2.4-5.65,2.61-7.98,0.48l-16.07-14.72
						c-2.33-2.14-2.54-5.81-0.46-8.22l0,0c2.08-2.4,5.65-2.61,7.98-0.48L152.53,783.84z"/>
					<path class="st2" d="M178.16,806.3c2.13,2.35,2,6.04-0.29,8.22l0,0c-2.29,2.19-5.87,2.05-7.99-0.3l-14.65-16.21
						c-2.13-2.35-2-6.04,0.29-8.22l0,0c2.29-2.19,5.86-2.05,7.99,0.3L178.16,806.3z"/>
					<path class="st2" d="M205.56,827.96c2.42,2.03,2.77,5.7,0.79,8.19l0,0c-1.98,2.49-5.54,2.85-7.96,0.82l-16.65-14.02
						c-2.42-2.04-2.77-5.7-0.79-8.19l0,0c1.98-2.49,5.54-2.85,7.96-0.82L205.56,827.96z"/>
					<path class="st2" d="M231.75,849.19c2.42,2.04,2.77,5.7,0.79,8.19l0,0c-1.98,2.49-5.54,2.85-7.96,0.82l-16.65-14.02
						c-2.42-2.04-2.77-5.7-0.79-8.19l0,0c1.98-2.49,5.54-2.85,7.95-0.82L231.75,849.19z"/>
					<path class="st2" d="M1026.25,759.06c-2.12,2.35-1.99,6.04,0.29,8.22l0,0c2.29,2.19,5.86,2.05,7.99-0.3l14.65-16.22
						c2.13-2.35,2-6.03-0.29-8.22l0,0c-2.29-2.19-5.86-2.05-7.99,0.3L1026.25,759.06z"/>
					<path class="st2" d="M1002.81,783.27c-2.33,2.14-2.54,5.81-0.46,8.22l0,0c2.08,2.4,5.65,2.61,7.98,0.48l16.07-14.72
						c2.33-2.14,2.54-5.81,0.46-8.22l0,0c-2.08-2.4-5.65-2.61-7.98-0.48L1002.81,783.27z"/>
					<path class="st2" d="M977.19,805.72c-2.13,2.35-2,6.03,0.29,8.22l0,0c2.29,2.19,5.86,2.05,7.99-0.3l14.65-16.22
						c2.13-2.35,1.99-6.04-0.29-8.22l0,0c-2.29-2.19-5.86-2.05-7.99,0.3L977.19,805.72z"/>
					<path class="st2" d="M949.79,827.39c-2.41,2.04-2.77,5.7-0.79,8.19l0,0c1.98,2.49,5.54,2.85,7.96,0.82l16.65-14.02
						c2.42-2.03,2.77-5.7,0.8-8.19l0,0c-1.98-2.49-5.54-2.85-7.96-0.82L949.79,827.39z"/>
					<path class="st2" d="M923.6,848.61c-2.42,2.04-2.77,5.7-0.79,8.19l0,0c1.98,2.49,5.54,2.85,7.95,0.82l16.65-14.02
						c2.42-2.03,2.77-5.7,0.8-8.19l0,0c-1.98-2.49-5.54-2.85-7.95-0.82L923.6,848.61z"/>
					<path class="st2" d="M288.79,650.1c3.12-0.09,5.73,2.43,5.82,5.65l0,0c0.09,3.21-2.36,5.89-5.49,5.99l-21.5,0.65
						c-3.12,0.09-5.72-2.43-5.82-5.65l0,0c-0.09-3.21,2.36-5.89,5.49-5.99L288.79,650.1z"/>
					<path class="st2" d="M255.96,650.1c3.12-0.09,5.73,2.43,5.82,5.65l0,0c0.09,3.21-2.37,5.89-5.49,5.99l-21.5,0.65
						c-3.12,0.09-5.73-2.43-5.82-5.65l0,0c-0.09-3.21,2.36-5.89,5.48-5.99L255.96,650.1z"/>
					<path class="st2" d="M223.13,650.1c3.12-0.09,5.73,2.43,5.82,5.65l0,0c0.09,3.21-2.36,5.89-5.49,5.99l-21.5,0.65
						c-3.12,0.09-5.72-2.43-5.82-5.65l0,0c-0.09-3.21,2.37-5.89,5.48-5.99L223.13,650.1z"/>
					<path class="st2" d="M190.3,650.1c3.12-0.09,5.72,2.43,5.82,5.65l0,0c0.09,3.21-2.36,5.89-5.49,5.99l-21.5,0.65
						c-3.12,0.09-5.72-2.43-5.82-5.65l0,0c-0.09-3.21,2.36-5.89,5.48-5.99L190.3,650.1z"/>
					<path class="st2" d="M322.07,650.1c3.12-0.09,5.72,2.43,5.82,5.65l0,0c0.09,3.21-2.36,5.89-5.49,5.99l-21.5,0.65
						c-3.12,0.09-5.72-2.43-5.82-5.65l0,0c-0.09-3.21,2.37-5.89,5.49-5.99L322.07,650.1z"/>
					<path class="st2" d="M355.34,650.1c3.12-0.09,5.73,2.43,5.82,5.65l0,0c0.09,3.21-2.36,5.89-5.49,5.99l-21.5,0.65
						c-3.12,0.09-5.73-2.43-5.82-5.65l0,0c-0.09-3.21,2.37-5.89,5.48-5.99L355.34,650.1z"/>
					<path class="st2" d="M388.61,650.1c3.12-0.09,5.73,2.43,5.82,5.65l0,0c0.09,3.21-2.36,5.89-5.48,5.99l-21.5,0.65
						c-3.12,0.09-5.72-2.43-5.82-5.65l0,0c-0.09-3.21,2.36-5.89,5.49-5.99L388.61,650.1z"/>
					<path class="st2" d="M421.89,650.1c3.12-0.09,5.72,2.43,5.81,5.65l0,0c0.09,3.21-2.36,5.89-5.49,5.99l-21.5,0.65
						c-3.12,0.09-5.72-2.43-5.81-5.65l0,0c-0.09-3.21,2.36-5.89,5.48-5.99L421.89,650.1z"/>
					<path class="st2" d="M455.17,650.1c3.12-0.09,5.72,2.43,5.82,5.65l0,0c0.09,3.21-2.36,5.89-5.48,5.99l-21.51,0.65
						c-3.12,0.09-5.73-2.43-5.82-5.65l0,0c-0.09-3.21,2.36-5.89,5.49-5.99L455.17,650.1z"/>
					<path class="st2" d="M488.44,650.1c3.12-0.09,5.72,2.43,5.82,5.65l0,0c0.09,3.21-2.36,5.89-5.48,5.99l-21.51,0.65
						c-3.12,0.09-5.73-2.43-5.82-5.65l0,0c-0.09-3.21,2.37-5.89,5.49-5.99L488.44,650.1z"/>
					<path class="st2" d="M521.72,650.1c3.12-0.09,5.73,2.43,5.82,5.65l0,0c0.09,3.21-2.36,5.89-5.48,5.99l-21.51,0.65
						c-3.12,0.09-5.72-2.43-5.82-5.65l0,0c-0.09-3.21,2.36-5.89,5.49-5.99L521.72,650.1z"/>
					<path class="st2" d="M554.99,650.1c3.12-0.09,5.72,2.43,5.82,5.65l0,0c0.09,3.21-2.36,5.89-5.48,5.99l-21.51,0.65
						c-3.12,0.09-5.72-2.43-5.82-5.65l0,0c-0.09-3.21,2.36-5.89,5.49-5.99L554.99,650.1z"/>
					<path class="st2" d="M588.27,650.1c3.12-0.09,5.72,2.43,5.82,5.65l0,0c0.09,3.21-2.37,5.89-5.49,5.99l-21.51,0.65
						c-3.12,0.09-5.72-2.43-5.82-5.65l0,0c-0.09-3.21,2.37-5.89,5.49-5.99L588.27,650.1z"/>
					<path class="st2" d="M621.54,650.1c3.12-0.09,5.72,2.43,5.82,5.65l0,0c0.09,3.21-2.36,5.89-5.49,5.99l-21.5,0.65
						c-3.12,0.09-5.72-2.43-5.82-5.65l0,0c-0.09-3.21,2.37-5.89,5.49-5.99L621.54,650.1z"/>
					<path class="st2" d="M654.82,650.1c3.12-0.09,5.73,2.43,5.82,5.65l0,0c0.09,3.21-2.36,5.89-5.49,5.99l-21.5,0.65
						c-3.12,0.09-5.72-2.43-5.82-5.65l0,0c-0.09-3.21,2.37-5.89,5.49-5.99L654.82,650.1z"/>
					<path class="st2" d="M688.1,650.1c3.12-0.09,5.73,2.43,5.82,5.65l0,0c0.09,3.21-2.36,5.89-5.49,5.99l-21.5,0.65
						c-3.12,0.09-5.72-2.43-5.82-5.65l0,0c-0.09-3.21,2.37-5.89,5.49-5.99L688.1,650.1z"/>
					<path class="st2" d="M721.37,650.1c3.12-0.09,5.72,2.43,5.82,5.65l0,0c0.09,3.21-2.37,5.89-5.49,5.99l-21.5,0.65
						c-3.12,0.09-5.72-2.43-5.82-5.65l0,0c-0.09-3.21,2.36-5.89,5.48-5.99L721.37,650.1z"/>
					<path class="st2" d="M754.65,650.1c3.12-0.09,5.72,2.43,5.82,5.65l0,0c0.09,3.21-2.36,5.89-5.49,5.99l-21.5,0.65
						c-3.12,0.09-5.72-2.43-5.82-5.65l0,0c-0.09-3.21,2.36-5.89,5.49-5.99L754.65,650.1z"/>
					<path class="st2" d="M787.92,650.1c3.12-0.09,5.72,2.43,5.82,5.65l0,0c0.09,3.21-2.36,5.89-5.48,5.99l-21.51,0.65
						c-3.12,0.09-5.72-2.43-5.82-5.65l0,0c-0.09-3.21,2.36-5.89,5.48-5.99L787.92,650.1z"/>
					<path class="st2" d="M821.2,650.1c3.12-0.09,5.73,2.43,5.82,5.65l0,0c0.09,3.21-2.36,5.89-5.49,5.99l-21.5,0.65
						c-3.12,0.09-5.72-2.43-5.82-5.65l0,0c-0.09-3.21,2.37-5.89,5.49-5.99L821.2,650.1z"/>
					<path class="st2" d="M854.47,650.1c3.12-0.09,5.72,2.43,5.82,5.65l0,0c0.09,3.21-2.36,5.89-5.48,5.99l-21.51,0.65
						c-3.12,0.09-5.72-2.43-5.82-5.65l0,0c-0.09-3.21,2.36-5.89,5.49-5.99L854.47,650.1z"/>
					<path class="st2" d="M887.75,650.1c3.12-0.09,5.72,2.43,5.82,5.65l0,0c0.09,3.21-2.36,5.89-5.49,5.99l-21.5,0.65
						c-3.12,0.09-5.72-2.43-5.82-5.65l0,0c-0.09-3.21,2.37-5.89,5.49-5.99L887.75,650.1z"/>
					<path class="st2" d="M921.81,650.1c3.12-0.09,5.72,2.43,5.82,5.65l0,0c0.09,3.21-2.36,5.89-5.48,5.99l-21.5,0.65
						c-3.12,0.09-5.72-2.43-5.82-5.65l0,0c-0.09-3.21,2.37-5.89,5.49-5.99L921.81,650.1z"/>
					<path class="st2" d="M955.87,650.1c3.12-0.09,5.72,2.43,5.81,5.65l0,0c0.09,3.21-2.36,5.89-5.48,5.99l-21.5,0.65
						c-3.12,0.09-5.72-2.43-5.82-5.65l0,0c-0.09-3.21,2.36-5.89,5.48-5.99L955.87,650.1z"/>
					<path class="st2" d="M989.94,650.1c3.12-0.09,5.72,2.43,5.82,5.65l0,0c0.09,3.21-2.37,5.89-5.49,5.99l-21.5,0.65
						c-3.12,0.09-5.72-2.43-5.82-5.65l0,0c-0.09-3.21,2.36-5.89,5.48-5.99L989.94,650.1z"/>
					<path class="st2" d="M1024,650.1c3.12-0.09,5.72,2.43,5.82,5.65l0,0c0.09,3.21-2.36,5.89-5.49,5.99l-21.5,0.65
						c-3.12,0.09-5.72-2.43-5.82-5.65l0,0c-0.09-3.21,2.36-5.89,5.49-5.99L1024,650.1z"/>
				</g>
				<path class="st2" d="M1043.46,673.37L1024,650.1l-893.18,0l-43.76,46.55c0,0,6.43,35.56,14.21,47.19
					c7.78,11.64,157.91,131.88,157.91,131.88h632.22c0,0,48.71-33.86,76.35-53.46c27.64-19.59,75.38-63.55,80.41-84.24
					c5.02-20.69,6.48-27.68,6.48-27.68L1043.46,673.37z M893.57,843.16H261.8l-122.89-92.09l6.11-88.69l859.85-6.14l9.74,92.5
					L893.57,843.16z"/>
			</g>
		</g>
		<path class="st0" d="M288.79,836.53c3.12-0.09,5.73,2.44,5.82,5.65l0,0c0.09,3.21-2.36,5.89-5.49,5.99l-21.5,0.65
			c-3.12,0.09-5.72-2.43-5.82-5.65l0,0c-0.09-3.21,2.36-5.89,5.49-5.98L288.79,836.53z"/>
		<polygon class="st0" points="101.26,639.88 101.26,612.73 109.74,603.03 105.5,581.7 121.05,572.47 186.06,567.35 195.48,562.31 
			336.76,565.09 403.02,582.67 482.85,582.67 494.16,599.15 806.97,597.22 822.99,608.85 939.82,604 977.51,619.52 1030.87,620.49 
			1038.41,634.06 		"/>
		<path class="st3" d="M1071.71,664.65l-29.52-32.52H95.64L64.65,671l6.28,7.33l24.71-31.66h942.55
			c7.27,7.62,22.52,25.41,22.52,25.41L1071.71,664.65z"/>
		<g>
			<path class="st0" d="M1043.46,719.88c0,29.19-22.99,52.85-51.35,52.85c-28.36,0-51.35-23.66-51.35-52.85
				c0-29.19,22.99-52.85,51.35-52.85C1020.47,667.03,1043.46,690.69,1043.46,719.88z"/>
			<path class="st1" d="M1025.2,719.88c0,18.8-14.81,34.05-33.08,34.05c-18.27,0-33.08-15.24-33.08-34.05s14.81-34.05,33.08-34.05
				C1010.39,685.83,1025.2,701.07,1025.2,719.88z"/>
			<path class="st4" d="M1004.87,719.88c0,7.25-5.71,13.13-12.76,13.13c-7.05,0-12.76-5.88-12.76-13.13
				c0-7.25,5.71-13.13,12.76-13.13C999.16,706.75,1004.87,712.63,1004.87,719.88z"/>
		</g>
		<g>
			<path class="st0" d="M201.45,713.53c0,28.47-22.43,51.55-50.09,51.55c-27.67,0-50.09-23.08-50.09-51.55
				c0-28.47,22.43-51.56,50.09-51.56C179.02,661.97,201.45,685.06,201.45,713.53z"/>
			<path class="st1" d="M183.63,713.53c0,18.35-14.45,33.21-32.27,33.21c-17.83,0-32.28-14.87-32.28-33.21
				c0-18.34,14.45-33.22,32.28-33.22C169.18,680.31,183.63,695.18,183.63,713.53z"/>
			<path class="st4" d="M163.8,713.53c0,7.07-5.57,12.81-12.44,12.81c-6.87,0-12.45-5.73-12.45-12.81c0-7.07,5.57-12.81,12.45-12.81
				C158.23,700.72,163.8,706.46,163.8,713.53z"/>
		</g>
		<path class="st0" d="M929.04,802.63c0,28.47-22.43,51.56-50.09,51.56c-27.67,0-50.09-23.08-50.09-51.56
			c0-28.47,22.43-51.55,50.09-51.55C906.62,751.07,929.04,774.16,929.04,802.63z"/>
		<path class="st1" d="M911.22,802.63c0,18.35-14.45,33.22-32.28,33.22c-17.82,0-32.27-14.87-32.27-33.22
			c0-18.34,14.45-33.21,32.27-33.21C896.77,769.41,911.22,784.28,911.22,802.63z"/>
		<path class="st4" d="M891.39,802.63c0,7.07-5.57,12.81-12.45,12.81c-6.87,0-12.44-5.73-12.44-12.81c0-7.07,5.57-12.81,12.44-12.81
			C885.82,789.82,891.39,795.55,891.39,802.63z"/>
		<path class="st0" d="M803.79,809.46c0,28.47-22.43,51.55-50.09,51.55c-27.67,0-50.09-23.08-50.09-51.55
			c0-28.47,22.43-51.55,50.09-51.55C781.37,757.9,803.79,780.98,803.79,809.46z"/>
		<path class="st1" d="M785.97,809.46c0,18.35-14.45,33.22-32.27,33.22c-17.82,0-32.27-14.87-32.27-33.22
			c0-18.34,14.45-33.21,32.27-33.21C771.52,776.24,785.97,791.11,785.97,809.46z"/>
		<path class="st4" d="M766.14,809.46c0,7.07-5.57,12.81-12.45,12.81c-6.87,0-12.44-5.73-12.44-12.81c0-7.07,5.57-12.81,12.44-12.81
			C760.57,796.65,766.14,802.38,766.14,809.46z"/>
		<path class="st0" d="M692.62,809.46c0,28.47-22.43,51.55-50.09,51.55c-27.67,0-50.09-23.08-50.09-51.55
			c0-28.47,22.43-51.55,50.09-51.55C670.19,757.9,692.62,780.98,692.62,809.46z"/>
		<path class="st1" d="M674.8,809.46c0,18.35-14.45,33.22-32.27,33.22c-17.82,0-32.27-14.87-32.27-33.22
			c0-18.34,14.45-33.21,32.27-33.21C660.35,776.24,674.8,791.11,674.8,809.46z"/>
		<path class="st4" d="M654.97,809.46c0,7.07-5.57,12.81-12.45,12.81c-6.87,0-12.44-5.73-12.44-12.81c0-7.07,5.57-12.81,12.44-12.81
			C649.4,796.65,654.97,802.38,654.97,809.46z"/>
		<path class="st0" d="M575.39,809.46c0,28.47-22.43,51.55-50.09,51.55c-27.67,0-50.09-23.08-50.09-51.55
			c0-28.47,22.43-51.55,50.09-51.55C552.97,757.9,575.39,780.98,575.39,809.46z"/>
		<path class="st1" d="M557.57,809.46c0,18.35-14.45,33.22-32.27,33.22c-17.82,0-32.27-14.87-32.27-33.22
			c0-18.34,14.45-33.21,32.27-33.21C543.12,776.24,557.57,791.11,557.57,809.46z"/>
		<path class="st4" d="M537.74,809.46c0,7.07-5.57,12.81-12.45,12.81c-6.87,0-12.44-5.73-12.44-12.81c0-7.07,5.57-12.81,12.44-12.81
			C532.17,796.65,537.74,802.38,537.74,809.46z"/>
		<path class="st0" d="M456.81,809.46c0,28.47-22.43,51.55-50.09,51.55c-27.67,0-50.09-23.08-50.09-51.55
			c0-28.47,22.43-51.55,50.09-51.55C434.39,757.9,456.81,780.98,456.81,809.46z"/>
		<path class="st1" d="M439,809.46c0,18.35-14.45,33.22-32.27,33.22c-17.82,0-32.27-14.87-32.27-33.22
			c0-18.34,14.45-33.21,32.27-33.21C424.55,776.24,439,791.11,439,809.46z"/>
		<path class="st4" d="M419.17,809.46c0,7.07-5.57,12.81-12.44,12.81c-6.87,0-12.45-5.73-12.45-12.81c0-7.07,5.57-12.81,12.45-12.81
			C413.6,796.65,419.17,802.38,419.17,809.46z"/>
		<path class="st0" d="M332.72,809.46c0,28.47-22.43,51.55-50.09,51.55c-27.66,0-50.09-23.08-50.09-51.55
			c0-28.47,22.43-51.55,50.09-51.55C310.29,757.9,332.72,780.98,332.72,809.46z"/>
		<path class="st1" d="M314.9,809.46c0,18.35-14.45,33.22-32.27,33.22c-17.82,0-32.27-14.87-32.27-33.22
			c0-18.34,14.45-33.21,32.27-33.21C300.45,776.24,314.9,791.11,314.9,809.46z"/>
		<ellipse class="st4" cx="282.63" cy="809.46" rx="12.44" ry="12.81"/>
		<path class="st0" d="M345.87,693.37c0,14.55-11.46,26.34-25.6,26.34c-14.13,0-25.59-11.79-25.59-26.34
			c0-14.55,11.46-26.34,25.59-26.34C334.41,667.03,345.87,678.82,345.87,693.37z"/>
		<path class="st1" d="M336.76,693.37c0,9.37-7.38,16.97-16.49,16.97c-9.11,0-16.49-7.6-16.49-16.97c0-9.37,7.38-16.97,16.49-16.97
			C329.38,676.4,336.76,684,336.76,693.37z"/>
		<path class="st4" d="M326.63,693.37c0,3.61-2.85,6.54-6.36,6.54c-3.51,0-6.36-2.93-6.36-6.54c0-3.61,2.85-6.54,6.36-6.54
			C323.79,686.83,326.63,689.76,326.63,693.37z"/>
		<path class="st0" d="M475.21,693.37c0,14.55-11.46,26.34-25.59,26.34c-14.13,0-25.59-11.79-25.59-26.34
			c0-14.55,11.46-26.34,25.59-26.34C463.75,667.03,475.21,678.82,475.21,693.37z"/>
		<path class="st1" d="M466.1,693.37c0,9.37-7.38,16.97-16.49,16.97s-16.49-7.6-16.49-16.97c0-9.37,7.38-16.97,16.49-16.97
			S466.1,684,466.1,693.37z"/>
		<path class="st4" d="M455.97,693.37c0,3.61-2.85,6.54-6.36,6.54c-3.51,0-6.36-2.93-6.36-6.54c0-3.61,2.85-6.54,6.36-6.54
			C453.12,686.83,455.97,689.76,455.97,693.37z"/>
		<path class="st0" d="M588.05,693.37c0,14.55-11.46,26.34-25.6,26.34c-14.13,0-25.59-11.79-25.59-26.34
			c0-14.55,11.46-26.34,25.59-26.34C576.59,667.03,588.05,678.82,588.05,693.37z"/>
		<path class="st1" d="M578.95,693.37c0,9.37-7.38,16.97-16.49,16.97c-9.11,0-16.49-7.6-16.49-16.97c0-9.37,7.38-16.97,16.49-16.97
			C571.56,676.4,578.95,684,578.95,693.37z"/>
		<path class="st4" d="M568.82,693.37c0,3.61-2.85,6.54-6.36,6.54c-3.51,0-6.36-2.93-6.36-6.54c0-3.61,2.85-6.54,6.36-6.54
			C565.97,686.83,568.82,689.76,568.82,693.37z"/>
		<ellipse class="st0" cx="684.25" cy="693.37" rx="25.59" ry="26.34"/>
		<path class="st1" d="M700.74,693.37c0,9.37-7.38,16.97-16.49,16.97c-9.11,0-16.49-7.6-16.49-16.97c0-9.37,7.38-16.97,16.49-16.97
			C693.35,676.4,700.74,684,700.74,693.37z"/>
		<path class="st4" d="M690.61,693.37c0,3.61-2.85,6.54-6.36,6.54c-3.51,0-6.36-2.93-6.36-6.54c0-3.61,2.85-6.54,6.36-6.54
			C687.76,686.83,690.61,689.76,690.61,693.37z"/>
		<path class="st0" d="M825.59,693.37c0,14.55-11.46,26.34-25.6,26.34c-14.14,0-25.59-11.79-25.59-26.34
			c0-14.55,11.46-26.34,25.59-26.34C814.13,667.03,825.59,678.82,825.59,693.37z"/>
		<path class="st1" d="M816.49,693.37c0,9.37-7.38,16.97-16.49,16.97c-9.11,0-16.49-7.6-16.49-16.97c0-9.37,7.38-16.97,16.49-16.97
			C809.1,676.4,816.49,684,816.49,693.37z"/>
		<path class="st4" d="M806.35,693.37c0,3.61-2.85,6.54-6.36,6.54c-3.51,0-6.36-2.93-6.36-6.54c0-3.61,2.85-6.54,6.36-6.54
			C803.51,686.83,806.35,689.76,806.35,693.37z"/>
	</g>
	<g>
		<path class="st5" d="M1020.4,899.24c13.14,0.07,19.71,0.1,19.71,0.1c0.66-4.9-2.17-9.61-6.81-11.32c0,0-2.56-0.41-7.68-1.24
			C1023.59,890.81,1021.85,894.97,1020.4,899.24"/>
		<path class="st6" d="M976.79,899.34c32.81,2.24,49.59,1.78,49.59,1.78s0.56-4.64,1.67-13.93c0,0-4.46-0.74-13.37-2.23
			c0,0-5.55-3.3-16.65-9.89c0,0,0.8-9.05,2.41-27.15c0,0-9.95-0.14-29.86-0.43C970.57,847.49,972.39,865.82,976.79,899.34"/>
		<path class="st7" d="M980.51,899.59c5.98,0.36,8.97,0.54,8.97,0.54s-2.44-17.1-7.33-51.3c-5.48,1.22-8.22,1.83-8.22,1.83
			C978.31,883.28,980.51,899.59,980.51,899.59"/>
		<path class="st6" d="M915.13,923.19c16.64,0.72,26.51-0.24,29.62-2.9c0,0-1.24-8.81-3.72-26.44c0,0,0.61-11.11,1.84-33.32
			c0,0-9.28-0.64-27.84-1.91c2.02,23.43,3.03,35.15,3.03,35.15C916.11,913.39,915.13,923.19,915.13,923.19"/>
		<path class="st7" d="M926.53,908.28c2.58,0.94,5.53,0.58,7.95-0.96c0,0,0.84-15.14,2.52-45.41c-0.51-1.53-5.5-1.98-14.97-1.34
			C925.03,892.38,926.53,908.28,926.53,908.28"/>
		<path class="st8" d="M967.73,844.19c0.7-11.29,1.11-33.73,1.21-67.32c-1.63-90,12.19-111.14,41.48-63.42
			c1.58,40.4,0.97,49.06,0.97,49.06c-0.64,7.34-3.07,31.65-7.31,72.92c-1.28,12.62-2.22,15.09-6.68,15.32
			c-13.84,0.6-20.75,0.89-20.75,0.89C970.31,851.65,967.53,851.18,967.73,844.19"/>
		<path class="st8" d="M941.92,862.98c-4.61-0.17-11.75-0.11-21.41,0.19c-8.31,0.24-10.2-2.13-7.89-12.2
			c10.17-48.69,12.65-55.12,11.9-67.57l-3.85-63.69c12.04-10.7,32.81-18.07,60.43-22.12L965.18,801.4
			c-2.92,15.58-9.51,29.06-16.01,54.59C947.7,860.89,946.82,862.95,941.92,862.98"/>
		<path class="st8" d="M996.33,692.28c-20.87-29.43-34.02-23.77-39.46,17C971.67,708.66,985.71,702.61,996.33,692.28"/>
		<path class="st9" d="M944.67,580.76l-7.99-19.47c-12.67,3.77-22.24,7.12-28.68,10.05c4,6.42,7.62,12.15,10.87,17.19l7.34,60.56
			h31.18c-21.54,1.97-33.09,7.13-34.64,15.49c-9.76,28.54-14.64,42.81-14.64,42.81c10.42,13.78,26.73,22.65,44.7,24.31
			c15.48-29.42,22.81-47.34,21.98-53.75c17.44,23.58,29.89,37.5,37.37,41.77c4.64,0,6.96,0,6.96,0
			c-3.02-22.84-6.46-46.39-10.32-70.62l-10.29-79.39L944.67,580.76z"/>
		<polygon class="st8" points="971.82,560.9 998.53,563.5 1001.93,570.54 975.22,567.94 		"/>
		<path class="st9" d="M1043.49,595.35c-7.08,13.24-9.92,24.34-10.28,29.11c-6.86-0.36-19.76-9.09-36.91-21.99
			c-9.3-24.46-19.63-42.94,18.16-25.94C1035.18,588.07,1043.49,595.35,1043.49,595.35"/>
		<path class="st8" d="M1010.27,578.14c8.56,0.41,12.84,0.62,12.84,0.62s2.5,1.39,7.5,4.17c0,0-1.58,2.16-4.75,6.48
			c0,0-5.14-2.81-15.43-8.42C1010.34,579.09,1010.28,578.14,1010.27,578.14"/>
		<path class="st8" d="M1048.8,594.77c1.17,24.36,1.28,36.27,1.28,36.27c-2.13,1.39-5.3,1.06-9.52-0.98c0,0-2.85-1.53-8.55-4.59
			c-2.2-1.23-3.79-4.6-3.95-10.21C1028.21,593.66,1033.76,582.05,1048.8,594.77"/>
		<path class="st10" d="M1061.15,637.77c-13.31-1.2-19.15-9.11-17.53-23.74l4.61-45.93h0.45c0.67,0,1.24-0.44,1.46-1.05l16.17,7.41
			l4.03,49.73C1071.11,633.7,1066.3,638.17,1061.15,637.77"/>
		<path class="st11" d="M1050.91,564.56c6.69,7.71,10.04,11.57,10.04,11.57c-5.39,1.6-9.63,0.01-12.7-4.78
			C1047.1,569.21,1047.98,566.95,1050.91,564.56"/>
		<path class="st12" d="M944.86,563.55c1.36,6.68,6.83,11.96,13.9,13.42c7.08,1.46,14.4-1.18,18.61-6.71c0,0-2.18-7.95,1.08-18.33
			c0,0-8.19-15.67-30.37-22.45C948.67,558.38,944.86,563.55,944.86,563.55"/>
		<path class="st8" d="M966.78,590.3h3.07v58.8h-3.07V590.3z M963.11,575.54c-6.16,10.03-9.24,15.05-9.24,15.05
			c-9.38-0.71-13.89-11.12-17.32-30.19c3.92-2.55,5.94-4.59,9.85-7.16C949.25,565.38,954.83,572.81,963.11,575.54z"/>
		<path class="st13" d="M999.03,530.67c-2.86-0.81-4.28-1.22-4.28-1.22c-2.28,25.2-4.94,38.81-7.99,40.83
			c0.83,1.48,2.08,2.48,3.49,2.8C993.63,568.98,996.56,554.84,999.03,530.67"/>
		<path class="st14" d="M995.97,521.51c-1.76,8.44-2.65,12.67-2.65,12.67c9.83-2.78,15.75-5.01,17.74-6.71
			C1003.95,521.65,998.92,519.66,995.97,521.51"/>
		<path class="st11" d="M952.14,550.51c2.16,5.65,5.57,10.37,9.18,13.84c6.6,6.35,15.77,7.19,17.1,3.33
			c1.15-3.39,3.34-7.19,10.08-15.04c2-2.3,2.9-5.67,2.72-10.11c-0.26-4.05,0.44-6.5,4.37-9.19c2.75-1.86,3.66-5.87,2.86-11.99
			c-1.15,0.19-2.35,0.13-3.53-0.21c-0.7-0.02-1.4-0.13-2.09-0.34l-1.09-0.08l-1.27-0.09c-0.63-0.02-1.28-0.02-1.91-0.1l-1.71-0.23
			l-1.52-0.16c-0.72-0.08-1.48-0.27-2.19-0.43c-0.63-0.13-1.18-0.35-1.78-0.57l-0.22-0.04l-0.34-0.04
			c-0.69-0.06-1.39-0.21-2.07-0.47l-1.01-0.37l0.5,0.02c-0.64-0.03-1.29-0.15-1.93-0.34c-0.37-0.05-0.73-0.12-1.1-0.22
			c-0.63-0.07-1.26-0.22-1.88-0.45l-0.45-0.17l0.5,0.02c-0.79-0.04-1.58-0.2-2.35-0.49l-0.12-0.04l-0.24,0
			c-0.79,0-1.62-0.12-2.41-0.21l-1.31-0.1c-0.7-0.05-1.4-0.21-2.09-0.34c-0.84-0.16-1.6-0.47-2.4-0.77
			c-1.71-0.63-3.07-1.78-3.99-3.2c-4.82,5.53-7.34,12.85-6.74,20.41C948.97,540.46,949.42,542.18,952.14,550.51"/>
		<path class="st15" d="M970.84,494.28l0.13,0.07l-0.2-0.01L970.84,494.28z M955.84,531.76c-0.17,4.06-4.8,8.38-5.41,4.92
			c-0.87-9.02-1.01-16.66-0.4-22.93c0.59-0.11,1.16-0.28,1.72-0.52c0.63-0.11,1.26-0.3,1.87-0.57c1.19-0.02,2.38-0.31,3.48-0.87
			l0.2-0.04c0.88-0.17,1.74-0.49,2.53-0.96c0.19-0.07,0.38-0.14,0.56-0.22c0.4-0.08,0.78-0.17,1.17-0.3
			c0.37-0.02,0.74-0.06,1.12-0.13l1.09-0.21l0.05-0.01c0.38,0.03,0.76,0.05,1.13,0.04l1.11-0.03c-0.97,1.73-1.17,3.85-0.42,5.8
			c0.9,2.45-1.31,4.24-6.24,5.56C956.38,522.19,956,525.03,955.84,531.76z"/>
		<path class="st11" d="M945.52,533.49c-0.41-3.23-1.71-5.97-3.92-8.23c-1.65-1.75-1.78-4.27-0.88-6.41
			c0.91-2.13,2.91-3.6,5.22-3.82c2.31-0.22,4.55,0.85,5.84,2.78c3.78,5.46,2.95,12.87-1.94,17.36c-0.74,0.63-1.76,0.8-2.66,0.45
			C946.27,535.27,945.63,534.45,945.52,533.49"/>
		<path class="st16" d="M941.98,524.74c4.12,0.57,6.19,0.86,6.19,0.86c-8.46,27.07-11.15,42.39-8.06,45.97
			c-1.76,1.11-3.87,1.53-5.86,1.16C931.66,566.82,934.24,550.83,941.98,524.74"/>
		<path class="st17" d="M971.1,523.77c10.78-0.72,24.24-0.33,40.38,1.17c-2.33-2.31-3.43-5.04-3.31-8.22
			c0.9-12.78-5.12-25.05-15.78-32.16c-10.65-7.11-24.3-7.96-35.76-2.23c-11.45,5.73-16.85,12.05-19.64,29.96
			c-1.17,8.97-1.76,13.45-1.76,13.45c14.85-4.19,22.86-5.52,24.03-4C967.16,523.1,971.1,523.77,971.1,523.77"/>
		<path class="st18" d="M959.76,520.97c3.07,1.94,4.6,2.92,4.6,2.92s-8.02,1.66-24.08,4.97c-1.49,0.28-2.61-0.45-4.31-2.27
			C951.83,522.84,959.76,520.97,959.76,520.97"/>
		<path class="st19" d="M933.55,524.73c0.04,1.47,0.66,2.28,2.1,2.58c0,0,7.57-2.33,20.87-4.72c1.88-0.39,3.12-0.18,4.14,0.37
			c7.05,3.49,5.93,2.68,16.58,2.37c14.54-0.27,26.19,0.67,34.93,2.82c0.65-1.08,0.35-2.48-0.68-3.2
			c-10.11-2.02-21.43-2.99-33.96-2.9c-9.96-0.07-9.1,0.91-13.46-1.23c15.97-1.4,31.39-0.69,46.24,2.14
			c0.41-0.01,0.75-0.33,0.77-0.74c0.02-0.41-0.28-0.77-0.68-0.81c-16.69-3.22-33.14-3.9-49.37-2.05c-2.54-1.02-3.99-0.75-5.41-0.43
			C948.2,520.64,940.85,522.58,933.55,524.73"/>
		<polygon class="st20" points="945.14,507.96 946.73,511.62 950.64,510.88 947.66,513.52 949.56,517.02 946.13,514.99 
			943.4,517.89 944.27,514 940.67,512.29 944.63,511.91 		"/>
		<rect x="1035.9" y="552.49" class="st21" width="23.53" height="12.34"/>
		<path class="st22" d="M995.52,547h3.23c0.45,0,0.83,0.37,0.83,0.83v2.02h14.19c0.67,0,1.21,0.55,1.21,1.21v4.23
			c0,0.67-0.55,1.21-1.21,1.21h-19.74c-0.67,0-1.21-0.55-1.21-1.21v-4.23c0-0.67,0.55-1.21,1.21-1.21h0.67v-2.02
			C994.69,547.38,995.06,547,995.52,547"/>
		<path class="st23" d="M992.3,561.53c9.03,0.56,13.55,0.84,13.55,0.84c-0.14,4.25-2.42,8.15-6.06,10.35
			c0,0-15.92,10.09-47.77,30.28c-4.09,2.47-5.51,2.03-6.67-0.69c0,0-2.26-5.47-6.78-16.4c-0.83-1.96-0.63-2.98,0.52-3.47
			C974.56,568.5,992.3,561.53,992.3,561.53"/>
		<path class="st24" d="M1033.84,549.42h81.87h5.33v-7.17c0-0.77,0.56-1.51,1.37-1.51c0.75,0,1.37,0.68,1.37,1.51v7.17h3.38h11.02
			c1.69,0,3.08,1.38,3.08,3.08c0,1.69-1.38,3.08-3.08,3.08h-10.92c-0.03,0-0.07,0-0.1,0h-79.35l-5.66,45.6
			c-0.11,0.88-0.92,1.6-1.79,1.6h-8.88c-0.88,0-1.51-0.72-1.4-1.6l2.37-19.11h-29.46v-7.8h-5.29c-4.22,0.1-5.3-0.01-5.35-2.79v-3.38
			h41.84l1.55-12.51h-1.89c-0.86,0-1.56-0.78-1.56-1.72v-2.71C1032.27,550.2,1032.98,549.42,1033.84,549.42"/>
		<path class="st21" d="M988.91,552.55h44.23c1.72,0,3.13,1.41,3.13,3.13v10.9c0,1.72-1.41,3.13-3.13,3.13h-44.23
			c-1.72,0-3.13-1.41-3.13-3.13v-10.9C985.79,553.96,987.19,552.55,988.91,552.55"/>
		<path class="st25" d="M971.07,597.1c-2.27,1.89-2.65,3.08-2.65,3.08c53.68,36.96,89.58,36.57,130.76-32.85
			c-4.47,0-8.62-0.51-8.62-0.51C1052.19,631.24,1021.41,629.13,971.07,597.1"/>
		<path class="st23" d="M1052.06,555.16h60.69c0.86,0,1.56,0.7,1.56,1.56v11.1c0,0.86-0.7,1.56-1.56,1.56h-60.69
			c-0.86,0-1.56-0.7-1.56-1.56v-11.1C1050.49,555.87,1051.2,555.16,1052.06,555.16"/>
		<path class="st9" d="M900.7,620.82c24.48-10.31,36.72-15.47,36.72-15.47s-3.52-10.53-10.56-31.59c-1.92-6.76-10.9-9.97-18.41-8.52
			c-7.51,1.44-15.13,7.49-13.99,14.75C898.61,607.21,900.7,620.82,900.7,620.82"/>
		<path class="st8" d="M940.66,605c-19.48,14.7-18.55,28.83-15.51,34.73c-7.39,6.2-15.3-1.98-22.29-11.7
			c-5.06-7.04-2.93-11.15,1.05-15.27c6.97-6.96,15.88-11.66,25.56-13.48C935.3,598.13,937.59,597.38,940.66,605"/>
		<path class="st26" d="M1054.93,572.81c1.14,5.33,8.94,4.15,20.41-2.4c3.92-2.22,4.18-6.53,1.97-14.2c-1.46-5-9.76-5.37-16.22-2.12
			c-5.63,2.64-8.15,7.85-7.82,11.44C1054.38,570.38,1054.93,572.81,1054.93,572.81"/>
		<polygon class="st8" points="901.37,563.89 927.44,559.4 934.61,565.03 908.54,569.53 		"/>
		<path class="st27" d="M927.89,644.05h78.01c1.74,0,3.3,1.42,3.48,3.16l0.81,8c0.17,1.74-1.1,3.16-2.84,3.16h-78.01
			c-1.74,0-3.3-1.42-3.48-3.16l-0.81-8C924.88,645.47,926.15,644.05,927.89,644.05"/>
		<path class="st11" d="M1005.99,599.69c4.05,0.91,7.31-1.76,11.13-8.52c2.46-4.48-0.51-5.39-4.68-8.46
			c-1.85-1.29-1.47-1.86,0.79-1.28c0,0,3.78,0.95,11.35,2.86c1.31,0.37,2.24-1.45,2.63-2.73c0.39-1.28,0.58-3.29-0.67-3.73
			c-1.86-0.57-4.22-1.23-15.52-4.2c-4.22-0.89-8.49-0.11-11.23,0.77c0,0-8.94,2.51-19.91,7.39c0,0-21.35,10.01-64.05,30.02
			c-7.9,3.64-7.07,16.45-1.32,23.38c5.75,6.93,9.61,8.44,22,0.3c24.07-16.02,52.12-35.78,52.12-35.78c2.5-1.77,3.74-2.65,3.74-2.65
			C1001.46,598.81,1005.99,599.69,1005.99,599.69"/>
		<path class="st28" d="M977.84,897.76h61.43c0.87,0,1.58,0.71,1.58,1.58v4.02c0,0.87-0.71,1.58-1.58,1.58h-61.43
			c-0.87,0-1.58-0.71-1.58-1.58v-4.02C976.26,898.47,976.97,897.76,977.84,897.76"/>
		<path class="st29" d="M922.51,871.49l15.73-0.65c0.57-0.02,1.04,0.42,1.04,0.99v0c0.01,0.57-0.45,1.05-1.02,1.08l-15.73,0.65
			c-0.57,0.02-1.04-0.42-1.04-0.99v0C921.49,871.99,921.94,871.51,922.51,871.49"/>
		<path class="st29" d="M923.13,875.9l14.59-0.61c0.57-0.02,1.04,0.42,1.04,0.99v0c0.01,0.57-0.45,1.05-1.02,1.08l-14.59,0.61
			c-0.57,0.02-1.04-0.42-1.04-0.99v0C922.11,876.41,922.57,875.93,923.13,875.9"/>
		<path class="st29" d="M923.77,880.06l13.42-0.56c0.57-0.02,1.04,0.42,1.04,0.99v0c0.01,0.57-0.45,1.05-1.02,1.08l-13.42,0.56
			c-0.57,0.02-1.04-0.42-1.04-0.99v0C922.74,880.57,923.2,880.09,923.77,880.06"/>
		<path class="st29" d="M924.54,884.21l11.97-0.5c0.57-0.02,1.04,0.42,1.04,0.99v0c0.01,0.57-0.45,1.05-1.02,1.08l-11.97,0.5
			c-0.57,0.02-1.04-0.42-1.04-0.99v0C923.51,884.72,923.97,884.23,924.54,884.21"/>
		<path class="st29" d="M925.28,888.39l10.58-0.44c0.57-0.02,1.04,0.42,1.04,0.99v0c0.01,0.57-0.45,1.05-1.02,1.08l-10.58,0.44
			c-0.57,0.02-1.04-0.42-1.04-0.99v0C924.25,888.9,924.71,888.41,925.28,888.39"/>
		<path class="st29" d="M925.75,892.4l9.73-0.4c0.57-0.02,1.04,0.42,1.04,0.99v0c0.01,0.57-0.45,1.05-1.02,1.08l-9.73,0.4
			c-0.57,0.02-1.04-0.42-1.04-0.99v0C924.72,892.9,925.18,892.42,925.75,892.4"/>
		<path class="st29" d="M926.43,896.31l8.47-0.35c0.57-0.02,1.04,0.42,1.04,0.99v0c0.01,0.57-0.45,1.05-1.02,1.08l-8.47,0.35
			c-0.57,0.02-1.04-0.42-1.04-0.99v0C925.4,896.81,925.86,896.33,926.43,896.31"/>
		<path class="st29" d="M927.2,900.17l7.01-0.29c0.57-0.02,1.04,0.42,1.04,0.99v0c0.01,0.57-0.45,1.05-1.02,1.08l-7.01,0.29
			c-0.57,0.02-1.04-0.42-1.04-0.99v0C926.17,900.68,926.63,900.19,927.2,900.17"/>
		<path class="st29" d="M927.61,904.37l6.28-0.26c0.57-0.02,1.04,0.42,1.04,0.99v0c0.01,0.57-0.45,1.05-1.02,1.08l-6.28,0.26
			c-0.57,0.02-1.04-0.42-1.04-0.99v0C926.58,904.88,927.04,904.39,927.61,904.37"/>
		<path class="st29" d="M993.26,855.77l6.29-0.52c0.56-0.05,1.03,0.38,1.03,0.95v0c0,0.57-0.46,1.07-1.02,1.12l-6.29,0.52
			c-0.56,0.05-1.03-0.38-1.03-0.95v0C992.24,856.32,992.7,855.82,993.26,855.77"/>
		<path class="st29" d="M993.44,859.52l6.29-0.52c0.56-0.05,1.03,0.38,1.03,0.95v0c0,0.57-0.46,1.07-1.02,1.12l-6.29,0.52
			c-0.56,0.05-1.03-0.38-1.03-0.95v0C992.42,860.07,992.88,859.57,993.44,859.52"/>
		<path class="st29" d="M993.08,863.12l6.29-0.52c0.56-0.05,1.03,0.38,1.03,0.95v0c0,0.57-0.46,1.07-1.02,1.12l-6.29,0.52
			c-0.56,0.05-1.03-0.38-1.03-0.95v0C992.06,863.67,992.52,863.17,993.08,863.12"/>
		<path class="st29" d="M993.26,866.87l6.29-0.52c0.56-0.05,1.03,0.38,1.03,0.95v0c0,0.57-0.46,1.07-1.02,1.12l-6.29,0.52
			c-0.56,0.05-1.03-0.38-1.03-0.95v0C992.24,867.42,992.7,866.91,993.26,866.87"/>
		<path class="st29" d="M993.16,870.68l6.29-0.52c0.56-0.05,1.03,0.38,1.03,0.95v0c0,0.57-0.46,1.07-1.02,1.12l-6.29,0.52
			c-0.56,0.05-1.03-0.38-1.03-0.95v0C992.13,871.23,992.59,870.73,993.16,870.68"/>
		<path class="st29" d="M993.33,874.43l6.29-0.52c0.56-0.05,1.03,0.38,1.03,0.95v0c0,0.57-0.46,1.07-1.02,1.12l-6.29,0.52
			c-0.56,0.05-1.03-0.38-1.03-0.95v0C992.31,874.98,992.77,874.47,993.33,874.43"/>
		<path class="st29" d="M995.95,880.88l4.42-4.5c0.4-0.4,1.03-0.39,1.4,0.04l0,0c0.37,0.43,0.36,1.11-0.04,1.51l-4.42,4.5
			c-0.4,0.4-1.03,0.39-1.4-0.04l0,0C995.54,881.97,995.55,881.29,995.95,880.88"/>
		<path class="st29" d="M999.65,882.65l4.42-4.5c0.4-0.4,1.03-0.39,1.4,0.04l0,0c0.37,0.43,0.36,1.11-0.04,1.51l-4.42,4.5
			c-0.4,0.4-1.03,0.39-1.4-0.04l0,0C999.24,883.74,999.26,883.06,999.65,882.65"/>
		<path class="st29" d="M1002.97,884.74l4.42-4.5c0.4-0.4,1.03-0.39,1.4,0.04l0,0c0.37,0.43,0.36,1.11-0.04,1.51l-4.42,4.5
			c-0.4,0.4-1.03,0.39-1.4-0.04l0,0C1002.56,885.82,1002.58,885.14,1002.97,884.74"/>
		<path class="st29" d="M1006.74,887.24l4.42-4.5c0.4-0.4,1.03-0.39,1.4,0.04l0,0c0.37,0.43,0.36,1.11-0.04,1.51l-4.42,4.5
			c-0.4,0.4-1.03,0.39-1.4-0.04l0,0C1006.32,888.33,1006.34,887.65,1006.74,887.24"/>
	</g>
	<g>
		<path class="st5" d="M878.97,926.31c13.14,0.07,19.71,0.1,19.71,0.1c0.66-4.9-2.17-9.61-6.81-11.32c0,0-2.56-0.41-7.68-1.24
			C882.16,917.87,880.41,922.04,878.97,926.31"/>
		<path class="st6" d="M835.35,926.41c32.81,2.24,49.59,1.78,49.59,1.78s0.56-4.64,1.67-13.93c0,0-4.46-0.74-13.37-2.23
			c0,0-5.55-3.3-16.65-9.89c0,0,0.8-9.05,2.41-27.15c0,0-9.95-0.14-29.86-0.43C829.14,874.55,830.96,892.89,835.35,926.41"/>
		<path class="st7" d="M839.07,926.65c5.98,0.36,8.97,0.54,8.97,0.54s-2.44-17.1-7.33-51.3c-5.48,1.22-8.22,1.83-8.22,1.83
			C836.87,910.34,839.07,926.65,839.07,926.65"/>
		<path class="st6" d="M773.7,950.26c16.64,0.72,26.51-0.24,29.62-2.9c0,0-1.24-8.81-3.72-26.44c0,0,0.61-11.11,1.84-33.32
			c0,0-9.28-0.64-27.84-1.91c2.02,23.43,3.03,35.15,3.03,35.15C774.67,940.46,773.7,950.26,773.7,950.26"/>
		<path class="st7" d="M785.1,935.35c2.58,0.94,5.53,0.58,7.95-0.96c0,0,0.84-15.14,2.52-45.41c-0.51-1.53-5.5-1.98-14.97-1.34
			C783.6,919.44,785.1,935.35,785.1,935.35"/>
		<path class="st8" d="M826.3,871.26c0.7-11.29,1.11-33.73,1.21-67.32c-1.63-90,12.19-111.14,41.48-63.42
			c1.58,40.4,0.97,49.06,0.97,49.06c-0.64,7.34-3.07,31.65-7.31,72.92c-1.28,12.62-2.22,15.09-6.68,15.32
			c-13.84,0.6-20.75,0.89-20.75,0.89C828.87,878.72,826.1,878.24,826.3,871.26"/>
		<path class="st8" d="M800.48,890.04c-4.61-0.17-11.75-0.11-21.41,0.19c-8.31,0.24-10.2-2.13-7.89-12.2
			c10.17-48.69,12.65-55.12,11.9-67.57l-3.85-63.69c12.04-10.7,32.81-18.07,60.43-22.12l-15.92,103.82
			c-2.92,15.58-9.51,29.06-16.01,54.59C806.26,887.96,805.38,890.02,800.48,890.04"/>
		<path class="st8" d="M854.89,719.35c-20.87-29.43-34.02-23.77-39.46,17C830.23,735.72,844.28,729.67,854.89,719.35"/>
		<path class="st9" d="M803.24,607.82l-7.99-19.47c-12.67,3.77-22.24,7.12-28.68,10.05c4,6.42,7.62,12.15,10.87,17.19l7.34,60.56
			h31.18c-21.54,1.97-33.09,7.13-34.64,15.49c-9.76,28.54-14.64,42.81-14.64,42.81c10.42,13.78,26.73,22.65,44.7,24.31
			c15.48-29.42,22.81-47.34,21.98-53.75c17.44,23.58,29.89,37.5,37.37,41.77c4.64,0,6.96,0,6.96,0
			c-3.02-22.84-6.46-46.39-10.32-70.62l-10.29-79.39L803.24,607.82z"/>
		<polygon class="st8" points="830.38,587.97 857.09,590.57 860.5,597.61 833.78,595.01 		"/>
		<path class="st9" d="M902.06,622.42c-7.08,13.24-9.92,24.34-10.28,29.11c-6.86-0.36-19.76-9.09-36.91-21.99
			c-9.3-24.46-19.63-42.94,18.16-25.94C893.75,615.13,902.06,622.42,902.06,622.42"/>
		<path class="st8" d="M868.84,605.2c8.56,0.41,12.84,0.62,12.84,0.62s2.5,1.39,7.5,4.17c0,0-1.58,2.16-4.75,6.48
			c0,0-5.14-2.81-15.43-8.42C868.9,606.15,868.85,605.2,868.84,605.2"/>
		<path class="st8" d="M907.36,621.83c1.17,24.36,1.28,36.27,1.28,36.27c-2.13,1.39-5.3,1.06-9.52-0.98c0,0-2.85-1.53-8.55-4.59
			c-2.2-1.23-3.79-4.6-3.95-10.21C886.78,620.73,892.32,609.12,907.36,621.83"/>
		<path class="st10" d="M919.71,664.83c-13.31-1.2-19.15-9.11-17.53-23.74l4.61-45.93h0.45c0.67,0,1.24-0.44,1.46-1.05l16.17,7.41
			l4.03,49.73C929.67,660.77,924.86,665.24,919.71,664.83"/>
		<path class="st11" d="M909.48,591.63c6.69,7.71,10.04,11.57,10.04,11.57c-5.39,1.6-9.63,0.01-12.7-4.78
			C905.66,596.27,906.55,594.01,909.48,591.63"/>
		<path class="st12" d="M803.43,590.61c1.36,6.68,6.83,11.96,13.9,13.42c7.08,1.46,14.4-1.18,18.61-6.71c0,0-2.18-7.95,1.08-18.33
			c0,0-8.19-15.67-30.37-22.45C807.23,585.44,803.43,590.61,803.43,590.61"/>
		<path class="st8" d="M825.34,617.36h3.07v58.8h-3.07V617.36z M821.67,602.6c-6.16,10.03-9.24,15.05-9.24,15.05
			c-9.38-0.71-13.89-11.12-17.32-30.19c3.92-2.55,5.94-4.59,9.85-7.16C807.82,592.44,813.39,599.87,821.67,602.6z"/>
		<path class="st13" d="M857.59,557.74c-2.86-0.81-4.28-1.22-4.28-1.22c-2.28,25.2-4.94,38.81-7.99,40.83
			c0.83,1.48,2.08,2.48,3.49,2.8C852.2,596.04,855.13,581.9,857.59,557.74"/>
		<path class="st14" d="M854.54,548.58c-1.76,8.44-2.65,12.67-2.65,12.67c9.83-2.78,15.75-5.01,17.74-6.71
			C862.52,548.71,857.49,546.73,854.54,548.58"/>
		<path class="st11" d="M810.7,577.58c2.16,5.65,5.57,10.37,9.18,13.84c6.6,6.35,15.77,7.19,17.1,3.33
			c1.15-3.39,3.34-7.19,10.08-15.04c2-2.3,2.9-5.67,2.72-10.11c-0.26-4.05,0.44-6.5,4.37-9.19c2.75-1.86,3.66-5.87,2.86-11.99
			c-1.15,0.19-2.35,0.13-3.53-0.21c-0.7-0.02-1.4-0.13-2.09-0.34l-1.09-0.08l-1.27-0.09c-0.63-0.02-1.28-0.02-1.91-0.1l-1.71-0.23
			l-1.52-0.16c-0.72-0.08-1.48-0.27-2.19-0.43c-0.63-0.13-1.18-0.35-1.78-0.57l-0.22-0.04l-0.34-0.04
			c-0.69-0.06-1.39-0.21-2.07-0.47l-1.01-0.37l0.5,0.02c-0.64-0.03-1.29-0.15-1.93-0.34c-0.37-0.05-0.73-0.12-1.1-0.22
			c-0.63-0.07-1.26-0.22-1.88-0.45l-0.45-0.17l0.5,0.02c-0.79-0.04-1.58-0.2-2.35-0.49l-0.12-0.04l-0.24,0
			c-0.79,0-1.62-0.12-2.41-0.21l-1.31-0.1c-0.7-0.05-1.4-0.21-2.09-0.34c-0.84-0.16-1.6-0.47-2.4-0.77
			c-1.71-0.63-3.07-1.78-3.99-3.2c-4.82,5.53-7.34,12.85-6.74,20.41C807.53,567.53,807.98,569.24,810.7,577.58"/>
		<path class="st15" d="M829.4,521.35l0.13,0.07l-0.2-0.01L829.4,521.35z M814.4,558.83c-0.17,4.06-4.8,8.38-5.41,4.92
			c-0.87-9.02-1.01-16.66-0.4-22.93c0.59-0.11,1.16-0.28,1.72-0.52c0.63-0.11,1.26-0.3,1.87-0.57c1.19-0.02,2.38-0.31,3.48-0.87
			l0.2-0.04c0.88-0.17,1.74-0.49,2.53-0.96c0.19-0.07,0.38-0.14,0.56-0.22c0.4-0.08,0.78-0.17,1.17-0.3
			c0.37-0.02,0.74-0.06,1.12-0.13l1.09-0.21l0.05-0.01c0.38,0.03,0.76,0.05,1.13,0.04l1.11-0.03c-0.97,1.73-1.17,3.85-0.42,5.8
			c0.9,2.45-1.31,4.24-6.24,5.56C814.95,549.25,814.56,552.09,814.4,558.83z"/>
		<path class="st11" d="M804.08,560.55c-0.41-3.23-1.71-5.97-3.92-8.23c-1.65-1.75-1.78-4.27-0.88-6.41
			c0.91-2.13,2.91-3.6,5.22-3.82c2.31-0.22,4.55,0.85,5.84,2.78c3.78,5.46,2.95,12.87-1.94,17.36c-0.74,0.63-1.76,0.8-2.66,0.45
			C804.84,562.33,804.2,561.51,804.08,560.55"/>
		<path class="st16" d="M800.55,551.8c4.12,0.57,6.19,0.86,6.19,0.86c-8.46,27.07-11.15,42.39-8.06,45.97
			c-1.76,1.11-3.87,1.53-5.86,1.16C790.23,593.89,792.81,577.89,800.55,551.8"/>
		<path class="st17" d="M829.67,550.84c10.78-0.72,24.24-0.33,40.38,1.17c-2.33-2.31-3.43-5.04-3.31-8.22
			c0.9-12.78-5.12-25.05-15.78-32.16c-10.65-7.11-24.3-7.96-35.76-2.23c-11.45,5.73-16.85,12.05-19.64,29.96
			c-1.17,8.97-1.76,13.45-1.76,13.45c14.85-4.19,22.86-5.52,24.03-4C825.72,550.16,829.67,550.84,829.67,550.84"/>
		<path class="st18" d="M818.33,548.03c3.07,1.94,4.6,2.92,4.6,2.92s-8.02,1.66-24.08,4.97c-1.49,0.28-2.61-0.45-4.31-2.27
			C810.4,549.9,818.33,548.03,818.33,548.03"/>
		<path class="st19" d="M792.12,551.79c0.04,1.47,0.66,2.28,2.1,2.58c0,0,7.57-2.33,20.87-4.72c1.88-0.39,3.12-0.18,4.14,0.37
			c7.05,3.49,5.93,2.68,16.58,2.37c14.54-0.27,26.19,0.67,34.93,2.82c0.65-1.08,0.35-2.48-0.68-3.2
			c-10.11-2.02-21.43-2.99-33.96-2.9c-9.96-0.07-9.1,0.91-13.46-1.23c15.97-1.4,31.39-0.69,46.24,2.14
			c0.41-0.01,0.75-0.33,0.77-0.74c0.02-0.41-0.28-0.77-0.68-0.81c-16.69-3.22-33.14-3.9-49.37-2.05c-2.54-1.02-3.99-0.75-5.41-0.43
			C806.77,547.71,799.41,549.64,792.12,551.79"/>
		<polygon class="st20" points="803.71,535.03 805.29,538.68 809.21,537.95 806.22,540.58 808.13,544.08 804.7,542.05 
			801.96,544.95 802.83,541.06 799.23,539.35 803.2,538.98 		"/>
		<rect x="894.46" y="579.56" class="st21" width="23.53" height="12.34"/>
		<path class="st22" d="M854.08,574.07h3.23c0.45,0,0.83,0.37,0.83,0.83v2.02h14.19c0.67,0,1.21,0.55,1.21,1.21v4.23
			c0,0.67-0.55,1.21-1.21,1.21h-19.74c-0.67,0-1.21-0.55-1.21-1.21v-4.23c0-0.67,0.55-1.21,1.21-1.21h0.67v-2.02
			C853.26,574.44,853.63,574.07,854.08,574.07"/>
		<path class="st23" d="M850.86,588.59c9.03,0.56,13.55,0.84,13.55,0.84c-0.14,4.25-2.42,8.15-6.06,10.35
			c0,0-15.92,10.09-47.77,30.28c-4.09,2.47-5.51,2.03-6.67-0.69c0,0-2.26-5.47-6.78-16.4c-0.83-1.96-0.63-2.98,0.52-3.47
			C833.12,595.57,850.86,588.59,850.86,588.59"/>
		<path class="st24" d="M892.4,576.48h81.87h5.33v-7.17c0-0.77,0.56-1.51,1.37-1.51c0.75,0,1.37,0.68,1.37,1.51v7.17h3.38h11.02
			c1.69,0,3.08,1.38,3.08,3.08c0,1.69-1.38,3.08-3.08,3.08h-10.92c-0.03,0-0.07,0-0.1,0h-79.35l-5.66,45.6
			c-0.11,0.88-0.92,1.6-1.79,1.6h-8.88c-0.88,0-1.51-0.72-1.4-1.6l2.37-19.11h-29.46v-7.8h-5.29c-4.22,0.1-5.3-0.01-5.35-2.79v-3.38
			h41.84l1.55-12.51h-1.89c-0.86,0-1.56-0.78-1.56-1.72v-2.71C890.84,577.26,891.54,576.48,892.4,576.48"/>
		<path class="st21" d="M847.48,579.62h44.23c1.72,0,3.13,1.41,3.13,3.13v10.9c0,1.72-1.41,3.13-3.13,3.13h-44.23
			c-1.72,0-3.13-1.41-3.13-3.13v-10.9C844.35,581.02,845.76,579.62,847.48,579.62"/>
		<path class="st25" d="M829.64,624.16c-2.27,1.89-2.65,3.08-2.65,3.08c53.68,36.96,89.58,36.57,130.76-32.85
			c-4.47,0-8.62-0.51-8.62-0.51C910.75,658.31,879.98,656.2,829.64,624.16"/>
		<path class="st23" d="M910.62,582.23h60.69c0.86,0,1.56,0.7,1.56,1.56v11.1c0,0.86-0.7,1.56-1.56,1.56h-60.69
			c-0.86,0-1.56-0.7-1.56-1.56v-11.1C909.06,582.93,909.76,582.23,910.62,582.23"/>
		<path class="st9" d="M759.26,647.89c24.48-10.31,36.72-15.47,36.72-15.47s-3.52-10.53-10.56-31.59
			c-1.92-6.76-10.9-9.97-18.41-8.52c-7.51,1.44-15.13,7.49-13.99,14.75C757.18,634.28,759.26,647.89,759.26,647.89"/>
		<path class="st8" d="M799.23,632.07c-19.48,14.7-18.55,28.83-15.51,34.73c-7.39,6.2-15.3-1.98-22.29-11.7
			c-5.06-7.04-2.93-11.15,1.05-15.27c6.97-6.96,15.88-11.66,25.56-13.48C793.87,625.2,796.15,624.45,799.23,632.07"/>
		<path class="st26" d="M913.49,599.87c1.14,5.33,8.94,4.15,20.41-2.4c3.92-2.22,4.18-6.53,1.97-14.2c-1.46-5-9.76-5.37-16.22-2.12
			c-5.63,2.64-8.15,7.85-7.82,11.44C912.94,597.44,913.49,599.87,913.49,599.87"/>
		<polygon class="st8" points="759.93,590.95 786,586.46 793.17,592.1 767.1,596.59 		"/>
		<path class="st27" d="M786.46,671.12h78.01c1.74,0,3.3,1.42,3.48,3.16l0.81,8c0.17,1.74-1.1,3.16-2.84,3.16H787.9
			c-1.74,0-3.3-1.42-3.48-3.16l-0.81-8C783.44,672.54,784.72,671.12,786.46,671.12"/>
		<path class="st11" d="M864.56,626.75c4.05,0.91,7.31-1.76,11.13-8.52c2.46-4.48-0.51-5.39-4.68-8.46
			c-1.85-1.29-1.47-1.86,0.79-1.28c0,0,3.78,0.95,11.35,2.86c1.31,0.37,2.24-1.45,2.63-2.73c0.39-1.28,0.58-3.29-0.67-3.73
			c-1.86-0.57-4.22-1.23-15.52-4.2c-4.22-0.89-8.49-0.11-11.23,0.77c0,0-8.94,2.51-19.91,7.39c0,0-21.35,10.01-64.05,30.02
			c-7.9,3.64-7.07,16.45-1.32,23.38c5.75,6.93,9.61,8.44,22,0.3c24.07-16.02,52.12-35.78,52.12-35.78c2.5-1.77,3.74-2.65,3.74-2.65
			C860.02,625.88,864.56,626.75,864.56,626.75"/>
		<path class="st28" d="M836.4,924.83h61.43c0.87,0,1.58,0.71,1.58,1.58v4.02c0,0.87-0.71,1.58-1.58,1.58H836.4
			c-0.87,0-1.58-0.71-1.58-1.58v-4.02C834.82,925.54,835.53,924.83,836.4,924.83"/>
		<path class="st29" d="M781.08,898.55l15.73-0.65c0.57-0.02,1.04,0.42,1.04,0.99v0c0.01,0.57-0.45,1.05-1.02,1.08l-15.73,0.65
			c-0.57,0.02-1.04-0.42-1.04-0.99v0C780.05,899.06,780.51,898.57,781.08,898.55"/>
		<path class="st29" d="M781.7,902.97l14.59-0.61c0.57-0.02,1.04,0.42,1.04,0.99v0c0.01,0.57-0.45,1.05-1.02,1.08l-14.59,0.61
			c-0.57,0.02-1.04-0.42-1.04-0.99v0C780.67,903.47,781.13,902.99,781.7,902.97"/>
		<path class="st29" d="M782.33,907.13l13.42-0.56c0.57-0.02,1.04,0.42,1.04,0.99v0c0.01,0.57-0.45,1.05-1.02,1.08l-13.42,0.56
			c-0.57,0.02-1.04-0.42-1.04-0.99v0C781.3,907.63,781.76,907.15,782.33,907.13"/>
		<path class="st29" d="M783.1,911.28l11.97-0.5c0.57-0.02,1.04,0.42,1.04,0.99v0c0.01,0.57-0.45,1.05-1.02,1.08l-11.97,0.5
			c-0.57,0.02-1.04-0.42-1.04-0.99v0C782.08,911.78,782.54,911.3,783.1,911.28"/>
		<path class="st29" d="M783.85,915.45l10.58-0.44c0.57-0.02,1.04,0.42,1.04,0.99v0c0.01,0.57-0.45,1.05-1.02,1.08l-10.58,0.44
			c-0.57,0.02-1.04-0.42-1.04-0.99v0C782.82,915.96,783.28,915.48,783.85,915.45"/>
		<path class="st29" d="M784.31,919.46l9.73-0.4c0.57-0.02,1.04,0.42,1.04,0.99v0c0.01,0.57-0.45,1.05-1.02,1.08l-9.73,0.4
			c-0.57,0.02-1.04-0.42-1.04-0.99v0C783.29,919.97,783.75,919.49,784.31,919.46"/>
		<path class="st29" d="M784.99,923.37l8.47-0.35c0.57-0.02,1.04,0.42,1.04,0.99v0c0.01,0.57-0.45,1.05-1.02,1.08l-8.47,0.35
			c-0.57,0.02-1.04-0.42-1.04-0.99v0C783.96,923.88,784.42,923.39,784.99,923.37"/>
		<path class="st29" d="M785.76,927.23l7.01-0.29c0.57-0.02,1.04,0.42,1.04,0.99v0c0.01,0.57-0.45,1.05-1.02,1.08l-7.01,0.29
			c-0.57,0.02-1.04-0.42-1.04-0.99v0C784.74,927.74,785.2,927.26,785.76,927.23"/>
		<path class="st29" d="M786.18,931.44l6.28-0.26c0.57-0.02,1.04,0.42,1.04,0.99v0c0.01,0.57-0.45,1.05-1.02,1.08l-6.28,0.26
			c-0.57,0.02-1.04-0.42-1.04-0.99v0C785.15,931.94,785.61,931.46,786.18,931.44"/>
		<path class="st29" d="M851.83,882.84l6.29-0.52c0.56-0.05,1.03,0.38,1.03,0.95v0c0,0.57-0.46,1.07-1.02,1.12l-6.29,0.52
			c-0.56,0.05-1.03-0.38-1.03-0.95v0C850.8,883.39,851.26,882.89,851.83,882.84"/>
		<path class="st29" d="M852,886.58l6.29-0.52c0.56-0.05,1.03,0.38,1.03,0.95v0c0,0.57-0.46,1.07-1.02,1.12l-6.29,0.52
			c-0.56,0.05-1.03-0.38-1.03-0.95v0C850.98,887.13,851.44,886.63,852,886.58"/>
		<path class="st29" d="M851.65,890.19l6.29-0.52c0.56-0.05,1.03,0.38,1.03,0.95v0c0,0.57-0.46,1.07-1.02,1.12l-6.29,0.52
			c-0.56,0.05-1.03-0.38-1.03-0.95v0C850.63,890.74,851.08,890.23,851.65,890.19"/>
		<path class="st29" d="M851.83,893.93l6.29-0.52c0.56-0.05,1.03,0.38,1.03,0.95v0c0,0.57-0.46,1.07-1.02,1.12l-6.29,0.52
			c-0.56,0.05-1.03-0.38-1.03-0.95v0C850.8,894.48,851.26,893.98,851.83,893.93"/>
		<path class="st29" d="M851.72,897.75l6.29-0.52c0.56-0.05,1.03,0.38,1.03,0.95v0c0,0.57-0.46,1.07-1.02,1.12l-6.29,0.52
			c-0.56,0.05-1.03-0.38-1.03-0.95v0C850.7,898.3,851.15,897.79,851.72,897.75"/>
		<path class="st29" d="M851.9,901.49l6.29-0.52c0.56-0.05,1.03,0.38,1.03,0.95v0c0,0.57-0.46,1.07-1.02,1.12l-6.29,0.52
			c-0.56,0.05-1.03-0.38-1.03-0.95v0C850.87,902.04,851.33,901.54,851.9,901.49"/>
		<path class="st29" d="M854.51,907.95l4.42-4.5c0.4-0.4,1.03-0.39,1.4,0.04l0,0c0.37,0.43,0.36,1.11-0.04,1.51l-4.42,4.5
			c-0.4,0.4-1.03,0.39-1.4-0.04l0,0C854.1,909.03,854.12,908.35,854.51,907.95"/>
		<path class="st29" d="M858.22,909.72l4.42-4.5c0.4-0.4,1.03-0.39,1.4,0.04l0,0c0.37,0.43,0.36,1.11-0.04,1.51l-4.42,4.5
			c-0.4,0.4-1.03,0.39-1.4-0.04l0,0C857.8,910.8,857.82,910.12,858.22,909.72"/>
		<path class="st29" d="M861.54,911.8l4.42-4.5c0.4-0.4,1.03-0.39,1.4,0.04l0,0c0.37,0.43,0.36,1.11-0.04,1.51l-4.42,4.5
			c-0.4,0.4-1.03,0.39-1.4-0.04l0,0C861.12,912.88,861.14,912.2,861.54,911.8"/>
		<path class="st29" d="M865.3,914.31l4.42-4.5c0.4-0.4,1.03-0.39,1.4,0.04l0,0c0.37,0.43,0.36,1.11-0.04,1.51l-4.42,4.5
			c-0.4,0.4-1.03,0.39-1.4-0.04l0,0C864.89,915.39,864.9,914.71,865.3,914.31"/>
	</g>
	<g>
		<path class="st5" d="M712.64,953.73c13.14,0.07,19.71,0.1,19.71,0.1c0.66-4.9-2.17-9.61-6.81-11.32c0,0-2.56-0.41-7.68-1.24
			C715.83,945.3,714.08,949.46,712.64,953.73"/>
		<path class="st6" d="M669.02,953.83c32.81,2.24,49.59,1.78,49.59,1.78s0.56-4.64,1.67-13.93c0,0-4.46-0.74-13.37-2.23
			c0,0-5.55-3.3-16.65-9.89c0,0,0.8-9.05,2.41-27.15c0,0-9.95-0.14-29.86-0.43C662.8,901.97,664.63,920.31,669.02,953.83"/>
		<path class="st7" d="M672.74,954.08c5.98,0.36,8.97,0.54,8.97,0.54s-2.44-17.1-7.33-51.3c-5.48,1.22-8.22,1.83-8.22,1.83
			C670.54,937.77,672.74,954.08,672.74,954.08"/>
		<path class="st6" d="M607.37,977.68c16.64,0.72,26.51-0.24,29.62-2.9c0,0-1.24-8.81-3.72-26.44c0,0,0.61-11.11,1.84-33.32
			c0,0-9.28-0.64-27.84-1.91c2.02,23.43,3.03,35.15,3.03,35.15C608.34,967.88,607.37,977.68,607.37,977.68"/>
		<path class="st7" d="M618.77,962.77c2.58,0.94,5.53,0.58,7.95-0.96c0,0,0.84-15.14,2.52-45.41c-0.51-1.53-5.5-1.98-14.97-1.34
			C617.27,946.87,618.77,962.77,618.77,962.77"/>
		<path class="st8" d="M659.96,898.68c0.7-11.29,1.11-33.73,1.21-67.32c-1.63-90,12.19-111.14,41.48-63.42
			c1.58,40.4,0.97,49.06,0.97,49.06c-0.64,7.34-3.07,31.65-7.31,72.92c-1.28,12.62-2.22,15.09-6.68,15.32
			c-13.84,0.6-20.75,0.89-20.75,0.89C662.54,906.14,659.77,905.67,659.96,898.68"/>
		<path class="st8" d="M634.15,917.47c-4.61-0.17-11.75-0.11-21.41,0.19c-8.31,0.24-10.2-2.13-7.89-12.2
			c10.17-48.69,12.65-55.12,11.9-67.57l-3.85-63.69c12.04-10.7,32.81-18.07,60.43-22.12l-15.92,103.82
			c-2.92,15.58-9.51,29.06-16.01,54.59C639.93,915.38,639.05,917.44,634.15,917.47"/>
		<path class="st8" d="M688.56,746.77c-20.87-29.43-34.02-23.77-39.46,17C663.9,763.15,677.95,757.1,688.56,746.77"/>
		<path class="st9" d="M636.9,635.25l-7.99-19.47c-12.67,3.77-22.24,7.12-28.68,10.05c4,6.42,7.62,12.15,10.87,17.19l7.34,60.56
			h31.18c-21.54,1.97-33.09,7.13-34.64,15.49c-9.76,28.54-14.64,42.81-14.64,42.81c10.42,13.78,26.73,22.65,44.7,24.31
			c15.48-29.42,22.81-47.34,21.98-53.75c17.44,23.58,29.89,37.5,37.37,41.77c4.64,0,6.96,0,6.96,0
			c-3.02-22.84-6.46-46.39-10.32-70.62l-10.29-79.39L636.9,635.25z"/>
		<polygon class="st8" points="664.05,615.39 690.76,617.99 694.16,625.03 667.45,622.43 		"/>
		<path class="st9" d="M735.73,649.84c-7.08,13.24-9.92,24.34-10.28,29.11c-6.86-0.36-19.76-9.09-36.91-21.99
			c-9.3-24.46-19.63-42.94,18.16-25.94C727.42,642.56,735.73,649.84,735.73,649.84"/>
		<path class="st8" d="M702.51,632.63c8.56,0.41,12.84,0.62,12.84,0.62s2.5,1.39,7.5,4.17c0,0-1.58,2.16-4.75,6.48
			c0,0-5.14-2.81-15.43-8.42C702.57,633.58,702.52,632.63,702.51,632.63"/>
		<path class="st8" d="M741.03,649.26c1.17,24.36,1.28,36.27,1.28,36.27c-2.13,1.39-5.3,1.06-9.52-0.98c0,0-2.85-1.53-8.55-4.59
			c-2.2-1.23-3.79-4.6-3.95-10.21C720.44,648.15,725.99,636.54,741.03,649.26"/>
		<path class="st10" d="M753.38,692.26c-13.31-1.2-19.15-9.11-17.53-23.74l4.61-45.93h0.45c0.67,0,1.24-0.44,1.46-1.05l16.17,7.41
			l4.03,49.73C763.34,688.19,758.53,692.66,753.38,692.26"/>
		<path class="st11" d="M743.15,619.05c6.69,7.71,10.04,11.57,10.04,11.57c-5.39,1.6-9.63,0.01-12.7-4.78
			C739.33,623.7,740.22,621.44,743.15,619.05"/>
		<path class="st12" d="M637.09,618.04c1.36,6.68,6.83,11.96,13.9,13.42c7.08,1.46,14.4-1.18,18.61-6.71c0,0-2.18-7.95,1.08-18.33
			c0,0-8.19-15.67-30.37-22.45C640.9,612.87,637.09,618.04,637.09,618.04"/>
		<path class="st8" d="M659.01,644.79h3.06v58.8h-3.06V644.79z M655.34,630.03c-6.16,10.03-9.24,15.05-9.24,15.05
			c-9.38-0.71-13.89-11.12-17.32-30.19c3.92-2.55,5.94-4.59,9.85-7.16C641.49,619.87,647.06,627.3,655.34,630.03z"/>
		<path class="st13" d="M691.26,585.16c-2.86-0.81-4.28-1.22-4.28-1.22c-2.28,25.2-4.94,38.81-7.99,40.83
			c0.83,1.48,2.08,2.48,3.49,2.8C685.87,623.46,688.79,609.33,691.26,585.16"/>
		<path class="st14" d="M688.21,576c-1.76,8.44-2.65,12.67-2.65,12.67c9.83-2.78,15.75-5.01,17.74-6.71
			C696.19,576.14,691.15,574.15,688.21,576"/>
		<path class="st11" d="M644.37,605c2.16,5.65,5.57,10.37,9.18,13.84c6.6,6.35,15.77,7.19,17.1,3.33
			c1.15-3.39,3.34-7.19,10.08-15.04c2-2.3,2.9-5.67,2.72-10.11c-0.26-4.05,0.44-6.5,4.37-9.19c2.75-1.86,3.66-5.87,2.86-11.99
			c-1.15,0.19-2.35,0.13-3.53-0.21c-0.7-0.02-1.4-0.13-2.09-0.34l-1.09-0.08l-1.27-0.09c-0.63-0.02-1.28-0.02-1.91-0.1l-1.71-0.23
			l-1.52-0.16c-0.72-0.08-1.48-0.27-2.19-0.43c-0.63-0.13-1.18-0.35-1.78-0.57l-0.22-0.04l-0.34-0.04
			c-0.69-0.06-1.39-0.21-2.07-0.47l-1.01-0.37l0.5,0.02c-0.64-0.03-1.29-0.15-1.93-0.34c-0.37-0.05-0.73-0.12-1.1-0.22
			c-0.63-0.07-1.26-0.22-1.88-0.45l-0.45-0.17l0.5,0.02c-0.79-0.04-1.58-0.2-2.35-0.49l-0.12-0.04l-0.24,0
			c-0.79,0-1.62-0.12-2.41-0.21l-1.31-0.1c-0.7-0.05-1.4-0.21-2.09-0.34c-0.84-0.16-1.6-0.47-2.4-0.77
			c-1.71-0.63-3.07-1.78-3.99-3.2c-4.82,5.53-7.34,12.85-6.74,20.41C641.2,594.95,641.65,596.67,644.37,605"/>
		<path class="st15" d="M663.07,548.77l0.13,0.07l-0.2-0.01L663.07,548.77z M648.07,586.25c-0.17,4.06-4.8,8.38-5.41,4.92
			c-0.87-9.02-1.01-16.66-0.4-22.93c0.59-0.11,1.16-0.28,1.72-0.52c0.63-0.11,1.26-0.3,1.87-0.57c1.19-0.02,2.38-0.31,3.48-0.87
			l0.2-0.04c0.88-0.17,1.74-0.49,2.53-0.96c0.19-0.07,0.38-0.14,0.56-0.22c0.4-0.08,0.78-0.17,1.17-0.3
			c0.37-0.02,0.74-0.06,1.12-0.13l1.09-0.21l0.05-0.01c0.38,0.03,0.76,0.05,1.13,0.04l1.11-0.03c-0.97,1.73-1.17,3.85-0.42,5.8
			c0.9,2.45-1.31,4.24-6.24,5.56C648.61,576.68,648.23,579.52,648.07,586.25z"/>
		<path class="st11" d="M637.75,587.97c-0.41-3.23-1.71-5.97-3.92-8.23c-1.65-1.75-1.78-4.27-0.88-6.41
			c0.91-2.13,2.91-3.6,5.22-3.82c2.31-0.22,4.55,0.85,5.84,2.78c3.78,5.46,2.95,12.87-1.94,17.36c-0.74,0.63-1.76,0.8-2.66,0.45
			C638.5,589.76,637.87,588.94,637.75,587.97"/>
		<path class="st16" d="M634.22,579.23c4.12,0.57,6.19,0.86,6.19,0.86c-8.46,27.07-11.15,42.39-8.06,45.97
			c-1.76,1.11-3.87,1.53-5.86,1.16C623.9,621.31,626.48,605.32,634.22,579.23"/>
		<path class="st17" d="M663.33,578.26c10.78-0.72,24.24-0.33,40.38,1.17c-2.33-2.31-3.43-5.04-3.31-8.22
			c0.9-12.78-5.12-25.05-15.78-32.16c-10.65-7.11-24.3-7.96-35.76-2.23c-11.45,5.73-16.85,12.05-19.64,29.96
			c-1.17,8.97-1.76,13.45-1.76,13.45c14.85-4.19,22.86-5.52,24.03-4C659.39,577.59,663.33,578.26,663.33,578.26"/>
		<path class="st18" d="M651.99,575.46c3.07,1.94,4.6,2.92,4.6,2.92s-8.02,1.66-24.08,4.97c-1.49,0.28-2.61-0.45-4.31-2.27
			C644.06,577.33,651.99,575.46,651.99,575.46"/>
		<path class="st19" d="M625.78,579.22c0.04,1.47,0.66,2.28,2.1,2.58c0,0,7.57-2.33,20.87-4.72c1.88-0.39,3.12-0.18,4.14,0.37
			c7.05,3.49,5.93,2.68,16.58,2.37c14.54-0.27,26.19,0.67,34.93,2.82c0.65-1.08,0.35-2.48-0.68-3.2
			c-10.11-2.02-21.43-2.99-33.96-2.9c-9.96-0.07-9.1,0.91-13.46-1.23c15.97-1.4,31.39-0.69,46.24,2.14
			c0.41-0.01,0.75-0.33,0.77-0.74c0.02-0.41-0.28-0.77-0.68-0.81c-16.69-3.22-33.14-3.9-49.37-2.05c-2.54-1.02-3.99-0.75-5.41-0.43
			C640.43,575.13,633.08,577.07,625.78,579.22"/>
		<polygon class="st20" points="637.38,562.45 638.96,566.11 642.88,565.37 639.89,568.01 641.8,571.51 638.37,569.48 
			635.63,572.37 636.5,568.49 632.9,566.78 636.87,566.4 		"/>
		<rect x="728.13" y="606.98" class="st21" width="23.53" height="12.34"/>
		<path class="st22" d="M687.75,601.49h3.23c0.45,0,0.83,0.37,0.83,0.83v2.02H706c0.67,0,1.21,0.55,1.21,1.21v4.23
			c0,0.67-0.55,1.21-1.21,1.21h-19.74c-0.67,0-1.21-0.55-1.21-1.21v-4.23c0-0.67,0.55-1.21,1.21-1.21h0.67v-2.02
			C686.92,601.87,687.3,601.49,687.75,601.49"/>
		<path class="st23" d="M684.53,616.02c9.03,0.56,13.55,0.84,13.55,0.84c-0.14,4.25-2.42,8.15-6.06,10.35
			c0,0-15.92,10.09-47.77,30.28c-4.09,2.47-5.51,2.03-6.67-0.69c0,0-2.26-5.47-6.78-16.4c-0.83-1.96-0.63-2.98,0.52-3.47
			C666.79,622.99,684.53,616.02,684.53,616.02"/>
		<path class="st24" d="M726.07,603.91h81.87h5.33v-7.17c0-0.77,0.56-1.51,1.37-1.51c0.75,0,1.37,0.68,1.37,1.51v7.17h3.38h11.02
			c1.69,0,3.08,1.38,3.08,3.08c0,1.69-1.38,3.08-3.08,3.08h-10.92c-0.03,0-0.07,0-0.1,0h-79.35l-5.66,45.6
			c-0.11,0.88-0.92,1.6-1.79,1.6h-8.88c-0.88,0-1.51-0.72-1.4-1.6l2.37-19.11h-29.46v-7.8h-5.29c-4.22,0.1-5.3-0.01-5.35-2.79v-3.38
			h41.84l1.55-12.51h-1.89c-0.86,0-1.56-0.78-1.56-1.72v-2.71C724.51,604.68,725.21,603.91,726.07,603.91"/>
		<path class="st21" d="M681.15,607.04h44.23c1.72,0,3.13,1.41,3.13,3.13v10.9c0,1.72-1.41,3.13-3.13,3.13h-44.23
			c-1.72,0-3.13-1.41-3.13-3.13v-10.9C678.02,608.45,679.43,607.04,681.15,607.04"/>
		<path class="st25" d="M663.3,651.59c-2.27,1.89-2.65,3.08-2.65,3.08c53.68,36.96,89.58,36.57,130.76-32.85
			c-4.47,0-8.62-0.51-8.62-0.51C744.42,685.73,713.65,683.62,663.3,651.59"/>
		<path class="st23" d="M744.29,609.65h60.69c0.86,0,1.56,0.7,1.56,1.56v11.1c0,0.86-0.7,1.56-1.56,1.56h-60.69
			c-0.86,0-1.56-0.7-1.56-1.56v-11.1C742.73,610.35,743.43,609.65,744.29,609.65"/>
		<path class="st9" d="M592.93,675.31c24.48-10.31,36.72-15.47,36.72-15.47s-3.52-10.53-10.56-31.59
			c-1.92-6.76-10.9-9.97-18.41-8.52c-7.51,1.44-15.13,7.49-13.99,14.75C590.85,661.7,592.93,675.31,592.93,675.31"/>
		<path class="st8" d="M632.9,659.49c-19.48,14.7-18.55,28.83-15.51,34.73c-7.39,6.2-15.3-1.98-22.29-11.7
			c-5.06-7.04-2.93-11.15,1.05-15.27c6.97-6.96,15.88-11.66,25.56-13.48C627.54,652.62,629.82,651.87,632.9,659.49"/>
		<path class="st26" d="M747.16,627.29c1.14,5.33,8.94,4.15,20.41-2.4c3.92-2.22,4.18-6.53,1.97-14.2c-1.46-5-9.76-5.37-16.22-2.12
			c-5.63,2.64-8.15,7.85-7.82,11.44C746.61,624.87,747.16,627.29,747.16,627.29"/>
		<polygon class="st8" points="593.6,618.38 619.67,613.89 626.84,619.52 600.77,624.02 		"/>
		<path class="st27" d="M620.12,698.54h78.01c1.74,0,3.3,1.42,3.48,3.16l0.81,8c0.17,1.74-1.1,3.16-2.84,3.16h-78.01
			c-1.74,0-3.3-1.42-3.48-3.16l-0.81-8C617.11,699.96,618.39,698.54,620.12,698.54"/>
		<path class="st11" d="M698.23,654.18c4.05,0.91,7.31-1.76,11.13-8.52c2.46-4.48-0.51-5.39-4.68-8.46
			c-1.85-1.29-1.47-1.86,0.79-1.28c0,0,3.78,0.95,11.35,2.86c1.31,0.37,2.24-1.45,2.63-2.73c0.39-1.28,0.58-3.29-0.67-3.73
			c-1.86-0.57-4.22-1.23-15.52-4.2c-4.22-0.89-8.49-0.11-11.23,0.77c0,0-8.94,2.51-19.91,7.39c0,0-21.35,10.01-64.05,30.02
			c-7.9,3.64-7.07,16.45-1.32,23.38c5.75,6.93,9.61,8.44,22,0.3c24.07-16.02,52.12-35.78,52.12-35.78c2.5-1.77,3.74-2.65,3.74-2.65
			C693.69,653.3,698.23,654.18,698.23,654.18"/>
		<path class="st28" d="M670.07,952.25h61.43c0.87,0,1.58,0.71,1.58,1.58v4.02c0,0.87-0.71,1.58-1.58,1.58h-61.43
			c-0.87,0-1.58-0.71-1.58-1.58v-4.02C668.49,952.96,669.2,952.25,670.07,952.25"/>
		<path class="st29" d="M614.74,925.97l15.73-0.65c0.57-0.02,1.04,0.42,1.04,0.99v0c0.01,0.57-0.45,1.05-1.02,1.08l-15.73,0.65
			c-0.57,0.02-1.04-0.42-1.04-0.99v0C613.72,926.48,614.18,926,614.74,925.97"/>
		<path class="st29" d="M615.37,930.39l14.59-0.61c0.57-0.02,1.04,0.42,1.04,0.99v0c0.01,0.57-0.45,1.05-1.02,1.08l-14.59,0.61
			c-0.57,0.02-1.04-0.42-1.04-0.99v0C614.34,930.9,614.8,930.41,615.37,930.39"/>
		<path class="st29" d="M616,934.55l13.42-0.56c0.57-0.02,1.04,0.42,1.04,0.99v0c0.01,0.57-0.45,1.05-1.02,1.08l-13.42,0.56
			c-0.57,0.02-1.04-0.42-1.04-0.99v0C614.97,935.06,615.43,934.58,616,934.55"/>
		<path class="st29" d="M616.77,938.7l11.97-0.5c0.57-0.02,1.04,0.42,1.04,0.99v0c0.01,0.57-0.45,1.05-1.02,1.08l-11.97,0.5
			c-0.57,0.02-1.04-0.42-1.04-0.99v0C615.75,939.21,616.21,938.72,616.77,938.7"/>
		<path class="st29" d="M617.51,942.88l10.58-0.44c0.57-0.02,1.04,0.42,1.04,0.99v0c0.01,0.57-0.45,1.05-1.02,1.08l-10.58,0.44
			c-0.57,0.02-1.04-0.42-1.04-0.99v0C616.49,943.39,616.95,942.9,617.51,942.88"/>
		<path class="st29" d="M617.98,946.89l9.73-0.4c0.57-0.02,1.04,0.42,1.04,0.99v0c0.01,0.57-0.45,1.05-1.02,1.08l-9.73,0.4
			c-0.57,0.02-1.04-0.42-1.04-0.99v0C616.96,947.39,617.41,946.91,617.98,946.89"/>
		<path class="st29" d="M618.66,950.8l8.47-0.35c0.57-0.02,1.04,0.42,1.04,0.99v0c0.01,0.57-0.45,1.05-1.02,1.08l-8.47,0.35
			c-0.57,0.02-1.04-0.42-1.04-0.99v0C617.63,951.3,618.09,950.82,618.66,950.8"/>
		<path class="st29" d="M619.43,954.66l7.01-0.29c0.57-0.02,1.04,0.42,1.04,0.99v0c0.01,0.57-0.45,1.05-1.02,1.08l-7.01,0.29
			c-0.57,0.02-1.04-0.42-1.04-0.99v0C618.4,955.17,618.86,954.68,619.43,954.66"/>
		<path class="st29" d="M619.84,958.86l6.28-0.26c0.57-0.02,1.04,0.42,1.04,0.99v0c0.01,0.57-0.45,1.05-1.02,1.08l-6.28,0.26
			c-0.57,0.02-1.04-0.42-1.04-0.99v0C618.82,959.37,619.28,958.88,619.84,958.86"/>
		<path class="st29" d="M685.5,910.26l6.29-0.52c0.56-0.05,1.03,0.38,1.03,0.95v0c0,0.57-0.46,1.07-1.02,1.12l-6.29,0.52
			c-0.56,0.05-1.03-0.38-1.03-0.95v0C684.47,910.81,684.93,910.31,685.5,910.26"/>
		<path class="st29" d="M685.67,914.01l6.29-0.52c0.56-0.05,1.03,0.38,1.03,0.95v0c0,0.57-0.46,1.07-1.02,1.12l-6.29,0.52
			c-0.56,0.05-1.03-0.38-1.03-0.95v0C684.65,914.56,685.11,914.06,685.67,914.01"/>
		<path class="st29" d="M685.32,917.61l6.29-0.52c0.56-0.05,1.03,0.38,1.03,0.95v0c0,0.57-0.46,1.07-1.02,1.12l-6.29,0.52
			c-0.56,0.05-1.03-0.38-1.03-0.95v0C684.29,918.16,684.75,917.66,685.32,917.61"/>
		<path class="st29" d="M685.5,921.36l6.29-0.52c0.56-0.05,1.03,0.38,1.03,0.95v0c0,0.57-0.46,1.07-1.02,1.12l-6.29,0.52
			c-0.56,0.05-1.03-0.38-1.03-0.95v0C684.47,921.9,684.93,921.4,685.5,921.36"/>
		<path class="st29" d="M685.39,925.17l6.29-0.52c0.56-0.05,1.03,0.38,1.03,0.95v0c0,0.57-0.46,1.07-1.02,1.12l-6.29,0.52
			c-0.56,0.05-1.03-0.38-1.03-0.95v0C684.36,925.72,684.82,925.22,685.39,925.17"/>
		<path class="st29" d="M685.57,928.92l6.29-0.52c0.56-0.05,1.03,0.38,1.03,0.95v0c0,0.57-0.46,1.07-1.02,1.12l-6.29,0.52
			c-0.56,0.05-1.03-0.38-1.03-0.95v0C684.54,929.47,685,928.96,685.57,928.92"/>
		<path class="st29" d="M688.18,935.37l4.42-4.5c0.4-0.4,1.03-0.39,1.4,0.04l0,0c0.37,0.43,0.36,1.11-0.04,1.51l-4.42,4.5
			c-0.4,0.4-1.03,0.39-1.4-0.04l0,0C687.77,936.46,687.79,935.78,688.18,935.37"/>
		<path class="st29" d="M691.89,937.14l4.42-4.5c0.4-0.4,1.03-0.39,1.4,0.04l0,0c0.37,0.43,0.36,1.11-0.04,1.51l-4.42,4.5
			c-0.4,0.4-1.03,0.39-1.4-0.04l0,0C691.47,938.23,691.49,937.55,691.89,937.14"/>
		<path class="st29" d="M695.21,939.22l4.42-4.5c0.4-0.4,1.03-0.39,1.4,0.04l0,0c0.37,0.43,0.36,1.11-0.04,1.51l-4.42,4.5
			c-0.4,0.4-1.03,0.39-1.4-0.04l0,0C694.79,940.31,694.81,939.63,695.21,939.22"/>
		<path class="st29" d="M698.97,941.73l4.42-4.5c0.4-0.4,1.03-0.39,1.4,0.04l0,0c0.37,0.43,0.36,1.11-0.04,1.51l-4.42,4.5
			c-0.4,0.4-1.03,0.39-1.4-0.04l0,0C698.55,942.82,698.57,942.14,698.97,941.73"/>
	</g>
	<g>
		<path class="st5" d="M581.81,970.47c13.14,0.07,19.71,0.1,19.71,0.1c0.66-4.9-2.17-9.61-6.81-11.32c0,0-2.56-0.41-7.68-1.24
			C585,962.04,583.25,966.2,581.81,970.47"/>
		<path class="st6" d="M538.19,970.57c32.81,2.24,49.59,1.78,49.59,1.78s0.56-4.64,1.67-13.93c0,0-4.46-0.74-13.37-2.23
			c0,0-5.55-3.3-16.65-9.89c0,0,0.8-9.05,2.41-27.15c0,0-9.95-0.14-29.86-0.43C531.97,918.72,533.8,937.06,538.19,970.57"/>
		<path class="st7" d="M541.91,970.82c5.98,0.36,8.97,0.54,8.97,0.54s-2.44-17.1-7.33-51.3c-5.48,1.22-8.22,1.83-8.22,1.83
			C539.71,954.51,541.91,970.82,541.91,970.82"/>
		<path class="st6" d="M476.54,994.43c16.64,0.72,26.51-0.24,29.62-2.9c0,0-1.24-8.81-3.72-26.44c0,0,0.61-11.11,1.84-33.32
			c0,0-9.28-0.64-27.84-1.91c2.02,23.43,3.03,35.15,3.03,35.15C477.51,984.62,476.54,994.43,476.54,994.43"/>
		<path class="st7" d="M487.94,979.51c2.58,0.94,5.53,0.58,7.95-0.96c0,0,0.84-15.14,2.52-45.41c-0.51-1.53-5.5-1.98-14.97-1.34
			C486.44,963.61,487.94,979.51,487.94,979.51"/>
		<path class="st8" d="M529.13,915.43c0.7-11.29,1.11-33.73,1.21-67.32c-1.63-90,12.19-111.14,41.48-63.42
			c1.58,40.4,0.97,49.06,0.97,49.06c-0.64,7.34-3.07,31.65-7.31,72.92c-1.28,12.62-2.22,15.09-6.68,15.32
			c-13.84,0.6-20.75,0.89-20.75,0.89C531.71,922.88,528.94,922.41,529.13,915.43"/>
		<path class="st8" d="M503.32,934.21c-4.61-0.17-11.75-0.11-21.41,0.19c-8.31,0.24-10.2-2.13-7.89-12.2
			c10.17-48.69,12.65-55.12,11.9-67.57l-3.85-63.69c12.04-10.7,32.81-18.07,60.43-22.12l-15.92,103.82
			c-2.92,15.58-9.51,29.06-16.01,54.59C509.1,932.12,508.22,934.19,503.32,934.21"/>
		<path class="st8" d="M557.73,763.52c-20.87-29.43-34.02-23.77-39.46,17C533.07,779.89,547.12,773.84,557.73,763.52"/>
		<path class="st9" d="M506.07,651.99l-7.99-19.47c-12.67,3.77-22.24,7.12-28.68,10.05c4,6.42,7.62,12.15,10.87,17.19l7.34,60.56
			h31.18c-21.54,1.97-33.09,7.13-34.64,15.49c-9.76,28.54-14.64,42.81-14.64,42.81c10.42,13.78,26.73,22.65,44.7,24.31
			c15.48-29.42,22.81-47.34,21.98-53.75c17.44,23.58,29.89,37.5,37.37,41.77c4.64,0,6.96,0,6.96,0
			c-3.02-22.84-6.46-46.39-10.32-70.62l-10.29-79.39L506.07,651.99z"/>
		<polygon class="st8" points="533.22,632.14 559.93,634.74 563.34,641.78 536.62,639.18 		"/>
		<path class="st9" d="M604.9,666.58c-7.08,13.24-9.92,24.34-10.28,29.11c-6.86-0.36-19.76-9.09-36.91-21.99
			c-9.3-24.46-19.63-42.94,18.16-25.94C596.59,659.3,604.9,666.58,604.9,666.58"/>
		<path class="st8" d="M571.68,649.37c8.56,0.41,12.84,0.62,12.84,0.62s2.5,1.39,7.5,4.17c0,0-1.58,2.16-4.75,6.48
			c0,0-5.14-2.81-15.43-8.42C571.74,650.32,571.69,649.37,571.68,649.37"/>
		<path class="st8" d="M610.2,666c1.17,24.36,1.28,36.27,1.28,36.27c-2.13,1.39-5.3,1.06-9.52-0.98c0,0-2.85-1.53-8.55-4.59
			c-2.2-1.23-3.79-4.6-3.95-10.21C589.61,664.89,595.16,653.29,610.2,666"/>
		<path class="st10" d="M622.55,709c-13.31-1.2-19.15-9.11-17.53-23.74l4.61-45.93h0.45c0.67,0,1.24-0.44,1.46-1.05l16.17,7.41
			l4.03,49.73C632.51,704.93,627.7,709.4,622.55,709"/>
		<path class="st11" d="M612.32,635.79c6.69,7.71,10.04,11.57,10.04,11.57c-5.39,1.6-9.63,0.01-12.7-4.78
			C608.5,640.44,609.39,638.18,612.32,635.79"/>
		<path class="st12" d="M506.27,634.78c1.36,6.68,6.83,11.96,13.9,13.42c7.08,1.46,14.4-1.18,18.61-6.71c0,0-2.18-7.95,1.08-18.33
			c0,0-8.19-15.67-30.37-22.45C510.07,629.61,506.27,634.78,506.27,634.78"/>
		<path class="st8" d="M528.18,661.53h3.07v58.8h-3.07V661.53z M524.51,646.77c-6.16,10.03-9.24,15.05-9.24,15.05
			c-9.38-0.71-13.89-11.12-17.32-30.19c3.92-2.55,5.94-4.59,9.85-7.16C510.66,636.61,516.23,644.04,524.51,646.77z"/>
		<path class="st13" d="M560.43,601.91c-2.86-0.81-4.28-1.22-4.28-1.22c-2.28,25.2-4.94,38.81-7.99,40.83
			c0.83,1.48,2.08,2.48,3.49,2.8C555.04,640.21,557.96,626.07,560.43,601.91"/>
		<path class="st14" d="M557.38,592.74c-1.76,8.44-2.65,12.67-2.65,12.67c9.83-2.78,15.75-5.01,17.74-6.71
			C565.36,592.88,560.32,590.89,557.38,592.74"/>
		<path class="st11" d="M513.54,621.74c2.16,5.65,5.57,10.37,9.18,13.84c6.6,6.35,15.77,7.19,17.1,3.33
			c1.15-3.39,3.34-7.19,10.08-15.04c2-2.3,2.9-5.67,2.72-10.11c-0.26-4.05,0.44-6.5,4.37-9.19c2.75-1.86,3.66-5.87,2.86-11.99
			c-1.15,0.19-2.35,0.13-3.53-0.21c-0.7-0.02-1.4-0.13-2.09-0.34l-1.09-0.08l-1.27-0.09c-0.63-0.02-1.28-0.02-1.91-0.1l-1.71-0.23
			l-1.52-0.16c-0.72-0.08-1.48-0.27-2.19-0.43c-0.63-0.13-1.18-0.35-1.78-0.57l-0.22-0.04l-0.34-0.04
			c-0.69-0.06-1.39-0.21-2.07-0.47l-1.01-0.37l0.5,0.02c-0.64-0.03-1.29-0.15-1.93-0.34c-0.37-0.05-0.73-0.12-1.1-0.22
			c-0.63-0.07-1.26-0.22-1.88-0.45l-0.45-0.17l0.5,0.02c-0.79-0.04-1.58-0.2-2.35-0.49l-0.12-0.04l-0.24,0
			c-0.79,0-1.62-0.12-2.41-0.21l-1.31-0.1c-0.7-0.05-1.4-0.21-2.09-0.34c-0.84-0.16-1.6-0.47-2.4-0.77
			c-1.71-0.63-3.07-1.78-3.99-3.2c-4.82,5.53-7.34,12.85-6.74,20.41C510.37,611.7,510.82,613.41,513.54,621.74"/>
		<path class="st15" d="M532.24,565.52l0.13,0.07l-0.2-0.01L532.24,565.52z M517.24,602.99c-0.17,4.06-4.8,8.38-5.41,4.92
			c-0.87-9.02-1.01-16.66-0.4-22.93c0.59-0.11,1.16-0.28,1.72-0.52c0.63-0.11,1.26-0.3,1.87-0.57c1.19-0.02,2.38-0.31,3.48-0.87
			l0.2-0.04c0.88-0.17,1.74-0.49,2.53-0.96c0.19-0.07,0.38-0.14,0.56-0.22c0.4-0.08,0.78-0.17,1.17-0.3
			c0.37-0.02,0.74-0.06,1.12-0.13l1.09-0.21l0.05-0.01c0.38,0.03,0.76,0.05,1.13,0.04l1.11-0.03c-0.97,1.73-1.17,3.85-0.42,5.8
			c0.9,2.45-1.31,4.24-6.24,5.56C517.79,593.42,517.4,596.26,517.24,602.99z"/>
		<path class="st11" d="M506.92,604.72c-0.41-3.23-1.71-5.97-3.92-8.23c-1.65-1.75-1.78-4.27-0.88-6.41
			c0.91-2.13,2.91-3.6,5.22-3.82c2.31-0.22,4.55,0.85,5.84,2.78c3.78,5.46,2.95,12.87-1.94,17.36c-0.74,0.63-1.76,0.8-2.66,0.45
			C507.67,606.5,507.04,605.68,506.92,604.72"/>
		<path class="st16" d="M503.39,595.97c4.12,0.57,6.19,0.86,6.19,0.86c-8.46,27.07-11.15,42.39-8.06,45.97
			c-1.76,1.11-3.87,1.53-5.86,1.16C493.07,638.06,495.65,622.06,503.39,595.97"/>
		<path class="st17" d="M532.51,595c10.78-0.72,24.24-0.33,40.38,1.17c-2.33-2.31-3.43-5.04-3.31-8.22
			c0.9-12.78-5.12-25.05-15.78-32.16c-10.65-7.11-24.3-7.96-35.76-2.23c-11.45,5.73-16.85,12.05-19.64,29.96
			c-1.17,8.97-1.76,13.45-1.76,13.45c14.85-4.19,22.86-5.52,24.03-4C528.56,594.33,532.51,595,532.51,595"/>
		<path class="st18" d="M521.16,592.2c3.07,1.94,4.6,2.92,4.6,2.92s-8.02,1.66-24.08,4.97c-1.49,0.28-2.61-0.45-4.31-2.27
			C513.23,594.07,521.16,592.2,521.16,592.2"/>
		<path class="st19" d="M494.96,595.96c0.04,1.47,0.66,2.28,2.1,2.58c0,0,7.57-2.33,20.87-4.72c1.88-0.39,3.12-0.18,4.14,0.37
			c7.05,3.49,5.93,2.68,16.58,2.37c14.54-0.27,26.19,0.67,34.93,2.82c0.65-1.08,0.35-2.48-0.68-3.2
			c-10.11-2.02-21.43-2.99-33.96-2.9c-9.96-0.07-9.1,0.91-13.46-1.23c15.97-1.4,31.39-0.69,46.24,2.14
			c0.41-0.01,0.75-0.33,0.77-0.74c0.02-0.41-0.28-0.77-0.68-0.81c-16.69-3.22-33.14-3.9-49.37-2.05c-2.54-1.02-3.99-0.75-5.41-0.43
			C509.6,591.88,502.25,593.81,494.96,595.96"/>
		<polygon class="st20" points="506.55,579.2 508.13,582.85 512.05,582.12 509.06,584.75 510.97,588.25 507.54,586.22 504.8,589.12 
			505.67,585.23 502.07,583.52 506.04,583.15 		"/>
		<rect x="597.3" y="623.72" class="st21" width="23.53" height="12.34"/>
		<path class="st22" d="M556.92,618.24h3.23c0.45,0,0.83,0.37,0.83,0.83v2.02h14.19c0.67,0,1.21,0.55,1.21,1.21v4.23
			c0,0.67-0.55,1.21-1.21,1.21h-19.74c-0.67,0-1.21-0.55-1.21-1.21v-4.23c0-0.67,0.55-1.21,1.21-1.21h0.67v-2.02
			C556.09,618.61,556.47,618.24,556.92,618.24"/>
		<path class="st23" d="M553.7,632.76c9.03,0.56,13.55,0.84,13.55,0.84c-0.14,4.25-2.42,8.15-6.06,10.35
			c0,0-15.92,10.09-47.77,30.28c-4.09,2.47-5.51,2.03-6.67-0.69c0,0-2.26-5.47-6.78-16.4c-0.83-1.96-0.63-2.98,0.52-3.47
			C535.96,639.73,553.7,632.76,553.7,632.76"/>
		<path class="st24" d="M595.24,620.65h81.87h5.33v-7.17c0-0.77,0.56-1.51,1.37-1.51c0.75,0,1.37,0.68,1.37,1.51v7.17h3.38h11.02
			c1.69,0,3.08,1.38,3.08,3.08c0,1.69-1.38,3.08-3.08,3.08h-10.92c-0.03,0-0.07,0-0.1,0h-79.35l-5.66,45.6
			c-0.11,0.88-0.92,1.6-1.79,1.6h-8.88c-0.88,0-1.51-0.72-1.4-1.6l2.37-19.11h-29.46v-7.8h-5.29c-4.22,0.1-5.3-0.01-5.35-2.79v-3.38
			h41.84l1.55-12.51h-1.89c-0.86,0-1.56-0.78-1.56-1.72v-2.71C593.68,621.43,594.38,620.65,595.24,620.65"/>
		<path class="st21" d="M550.32,623.79h44.23c1.72,0,3.13,1.41,3.13,3.13v10.9c0,1.72-1.41,3.13-3.13,3.13h-44.23
			c-1.72,0-3.13-1.41-3.13-3.13v-10.9C547.19,625.19,548.6,623.79,550.32,623.79"/>
		<path class="st25" d="M532.48,668.33c-2.27,1.89-2.65,3.08-2.65,3.08c53.68,36.96,89.58,36.57,130.76-32.85
			c-4.47,0-8.62-0.51-8.62-0.51C613.59,702.47,582.82,700.36,532.48,668.33"/>
		<path class="st23" d="M613.46,626.39h60.69c0.86,0,1.56,0.7,1.56,1.56v11.1c0,0.86-0.7,1.56-1.56,1.56h-60.69
			c-0.86,0-1.56-0.7-1.56-1.56v-11.1C611.9,627.1,612.6,626.39,613.46,626.39"/>
		<path class="st9" d="M462.1,692.06c24.48-10.31,36.72-15.47,36.72-15.47s-3.52-10.53-10.56-31.59c-1.92-6.76-10.9-9.97-18.41-8.52
			c-7.51,1.44-15.13,7.49-13.99,14.75C460.02,678.45,462.1,692.06,462.1,692.06"/>
		<path class="st8" d="M502.07,676.23c-19.48,14.7-18.55,28.83-15.51,34.73c-7.39,6.2-15.3-1.98-22.29-11.7
			c-5.06-7.04-2.93-11.15,1.05-15.27c6.97-6.96,15.88-11.66,25.56-13.48C496.71,669.37,498.99,668.61,502.07,676.23"/>
		<path class="st26" d="M616.33,644.04c1.14,5.33,8.94,4.15,20.41-2.4c3.92-2.22,4.18-6.53,1.97-14.2c-1.46-5-9.76-5.37-16.22-2.12
			c-5.63,2.64-8.15,7.85-7.82,11.44C615.78,641.61,616.33,644.04,616.33,644.04"/>
		<polygon class="st8" points="462.77,635.12 488.84,630.63 496.01,636.27 469.94,640.76 		"/>
		<path class="st27" d="M489.29,715.28h78.01c1.74,0,3.3,1.42,3.48,3.16l0.81,8c0.17,1.74-1.1,3.16-2.84,3.16h-78.01
			c-1.74,0-3.3-1.42-3.48-3.16l-0.81-8C486.28,716.71,487.56,715.28,489.29,715.28"/>
		<path class="st11" d="M567.4,670.92c4.05,0.91,7.31-1.76,11.13-8.52c2.46-4.48-0.51-5.39-4.68-8.46
			c-1.85-1.29-1.47-1.86,0.79-1.28c0,0,3.78,0.95,11.35,2.86c1.31,0.37,2.24-1.45,2.63-2.73c0.39-1.28,0.58-3.29-0.67-3.73
			c-1.86-0.57-4.22-1.23-15.52-4.2c-4.22-0.89-8.49-0.11-11.23,0.77c0,0-8.94,2.51-19.91,7.39c0,0-21.35,10.01-64.05,30.02
			c-7.9,3.64-7.07,16.45-1.32,23.38c5.75,6.93,9.61,8.44,22,0.3c24.07-16.02,52.12-35.78,52.12-35.78c2.5-1.77,3.74-2.65,3.74-2.65
			C562.86,670.05,567.4,670.92,567.4,670.92"/>
		<path class="st28" d="M539.24,968.99h61.43c0.87,0,1.58,0.71,1.58,1.58v4.02c0,0.87-0.71,1.58-1.58,1.58h-61.43
			c-0.87,0-1.58-0.71-1.58-1.58v-4.02C537.66,969.71,538.37,968.99,539.24,968.99"/>
		<path class="st29" d="M483.91,942.72l15.73-0.65c0.57-0.02,1.04,0.42,1.04,0.99v0c0.01,0.57-0.45,1.05-1.02,1.08l-15.73,0.65
			c-0.57,0.02-1.04-0.42-1.04-0.99v0C482.89,943.23,483.35,942.74,483.91,942.72"/>
		<path class="st29" d="M484.54,947.13l14.59-0.61c0.57-0.02,1.04,0.42,1.04,0.99v0c0.01,0.57-0.45,1.05-1.02,1.08l-14.59,0.61
			c-0.57,0.02-1.04-0.42-1.04-0.99v0C483.51,947.64,483.97,947.16,484.54,947.13"/>
		<path class="st29" d="M485.17,951.29l13.42-0.56c0.57-0.02,1.04,0.42,1.04,0.99v0c0.01,0.57-0.45,1.05-1.02,1.08l-13.42,0.56
			c-0.57,0.02-1.04-0.42-1.04-0.99v0C484.14,951.8,484.6,951.32,485.17,951.29"/>
		<path class="st29" d="M485.94,955.44l11.97-0.5c0.57-0.02,1.04,0.42,1.04,0.99v0c0.01,0.57-0.45,1.05-1.02,1.08l-11.97,0.5
			c-0.57,0.02-1.04-0.42-1.04-0.99v0C484.92,955.95,485.38,955.47,485.94,955.44"/>
		<path class="st29" d="M486.68,959.62l10.58-0.44c0.57-0.02,1.04,0.42,1.04,0.99v0c0.01,0.57-0.45,1.05-1.02,1.08l-10.58,0.44
			c-0.57,0.02-1.04-0.42-1.04-0.99v0C485.66,960.13,486.12,959.64,486.68,959.62"/>
		<path class="st29" d="M487.15,963.63l9.73-0.4c0.57-0.02,1.04,0.42,1.04,0.99v0c0.01,0.57-0.45,1.05-1.02,1.08l-9.73,0.4
			c-0.57,0.02-1.04-0.42-1.04-0.99v0C486.13,964.14,486.59,963.65,487.15,963.63"/>
		<path class="st29" d="M487.83,967.54l8.47-0.35c0.57-0.02,1.04,0.42,1.04,0.99v0c0.01,0.57-0.45,1.05-1.02,1.08l-8.47,0.35
			c-0.57,0.02-1.04-0.42-1.04-0.99v0C486.8,968.05,487.26,967.56,487.83,967.54"/>
		<path class="st29" d="M488.6,971.4l7.01-0.29c0.57-0.02,1.04,0.42,1.04,0.99v0c0.01,0.57-0.45,1.05-1.02,1.08l-7.01,0.29
			c-0.57,0.02-1.04-0.42-1.04-0.99v0C487.58,971.91,488.03,971.42,488.6,971.4"/>
		<path class="st29" d="M489.01,975.6l6.28-0.26c0.57-0.02,1.04,0.42,1.04,0.99v0c0.01,0.57-0.45,1.05-1.02,1.08l-6.28,0.26
			c-0.57,0.02-1.04-0.42-1.04-0.99v0C487.99,976.11,488.45,975.63,489.01,975.6"/>
		<path class="st29" d="M554.67,927.01l6.29-0.52c0.56-0.05,1.03,0.38,1.03,0.95v0c0,0.57-0.46,1.07-1.02,1.12l-6.29,0.52
			c-0.56,0.05-1.03-0.38-1.03-0.95v0C553.64,927.56,554.1,927.05,554.67,927.01"/>
		<path class="st29" d="M554.84,930.75l6.29-0.52c0.56-0.05,1.03,0.38,1.03,0.95v0c0,0.57-0.46,1.07-1.02,1.12l-6.29,0.52
			c-0.56,0.05-1.03-0.38-1.03-0.95v0C553.82,931.3,554.28,930.8,554.84,930.75"/>
		<path class="st29" d="M554.49,934.35l6.29-0.52c0.56-0.05,1.03,0.38,1.03,0.95v0c0,0.57-0.46,1.07-1.02,1.12l-6.29,0.52
			c-0.56,0.05-1.03-0.38-1.03-0.95v0C553.46,934.9,553.92,934.4,554.49,934.35"/>
		<path class="st29" d="M554.67,938.1l6.29-0.52c0.56-0.05,1.03,0.38,1.03,0.95v0c0,0.57-0.46,1.07-1.02,1.12l-6.29,0.52
			c-0.56,0.05-1.03-0.38-1.03-0.95v0C553.64,938.65,554.1,938.15,554.67,938.1"/>
		<path class="st29" d="M554.56,941.91l6.29-0.52c0.56-0.05,1.03,0.38,1.03,0.95v0c0,0.57-0.46,1.07-1.02,1.12l-6.29,0.52
			c-0.56,0.05-1.03-0.38-1.03-0.95v0C553.54,942.46,553.99,941.96,554.56,941.91"/>
		<path class="st29" d="M554.74,945.66l6.29-0.52c0.56-0.05,1.03,0.38,1.03,0.95v0c0,0.57-0.46,1.07-1.02,1.12l-6.29,0.52
			c-0.56,0.05-1.03-0.38-1.03-0.95v0C553.71,946.21,554.17,945.71,554.74,945.66"/>
		<path class="st29" d="M557.35,952.12l4.42-4.5c0.4-0.4,1.03-0.39,1.4,0.04l0,0c0.37,0.43,0.36,1.11-0.04,1.51l-4.42,4.5
			c-0.4,0.4-1.03,0.39-1.4-0.04l0,0C556.94,953.2,556.96,952.52,557.35,952.12"/>
		<path class="st29" d="M561.06,953.89l4.42-4.5c0.4-0.4,1.03-0.39,1.4,0.04l0,0c0.37,0.43,0.36,1.11-0.04,1.51l-4.42,4.5
			c-0.4,0.4-1.03,0.39-1.4-0.04l0,0C560.64,954.97,560.66,954.29,561.06,953.89"/>
		<path class="st29" d="M564.38,955.97l4.42-4.5c0.4-0.4,1.03-0.39,1.4,0.04l0,0c0.37,0.43,0.36,1.11-0.04,1.51l-4.42,4.5
			c-0.4,0.4-1.03,0.39-1.4-0.04l0,0C563.96,957.05,563.98,956.37,564.38,955.97"/>
		<path class="st29" d="M568.14,958.48l4.42-4.5c0.4-0.4,1.03-0.39,1.4,0.04l0,0c0.37,0.43,0.36,1.11-0.04,1.51l-4.42,4.5
			c-0.4,0.4-1.03,0.39-1.4-0.04l0,0C567.72,959.56,567.74,958.88,568.14,958.48"/>
	</g>
	<g>
		<path class="st5" d="M424.23,977c13.14,0.07,19.71,0.1,19.71,0.1c0.66-4.9-2.17-9.61-6.81-11.32c0,0-2.56-0.41-7.68-1.24
			C427.42,968.56,425.68,972.73,424.23,977"/>
		<path class="st6" d="M380.61,977.1c32.81,2.24,49.59,1.78,49.59,1.78s0.56-4.64,1.67-13.93c0,0-4.46-0.74-13.37-2.23
			c0,0-5.55-3.3-16.65-9.89c0,0,0.8-9.05,2.41-27.15c0,0-9.95-0.14-29.86-0.43C374.4,925.24,376.22,943.58,380.61,977.1"/>
		<path class="st7" d="M384.33,977.34c5.98,0.36,8.97,0.54,8.97,0.54s-2.44-17.1-7.33-51.3c-5.48,1.22-8.22,1.83-8.22,1.83
			C382.14,961.03,384.33,977.34,384.33,977.34"/>
		<path class="st6" d="M318.96,1000.95c16.64,0.72,26.51-0.24,29.62-2.9c0,0-1.24-8.81-3.72-26.44c0,0,0.61-11.11,1.84-33.32
			c0,0-9.28-0.64-27.84-1.91c2.02,23.43,3.03,35.15,3.03,35.15C319.94,991.15,318.96,1000.95,318.96,1000.95"/>
		<path class="st7" d="M330.36,986.04c2.58,0.94,5.53,0.58,7.95-0.96c0,0,0.84-15.14,2.52-45.41c-0.51-1.53-5.5-1.98-14.97-1.34
			C328.86,970.13,330.36,986.04,330.36,986.04"/>
		<path class="st8" d="M371.56,921.95c0.7-11.29,1.11-33.73,1.21-67.32c-1.63-90,12.19-111.14,41.48-63.42
			c1.58,40.4,0.97,49.06,0.97,49.06c-0.63,7.34-3.07,31.65-7.31,72.92c-1.28,12.62-2.22,15.09-6.68,15.32
			c-13.84,0.6-20.75,0.89-20.75,0.89C374.14,929.41,371.36,928.93,371.56,921.95"/>
		<path class="st8" d="M345.75,940.73c-4.61-0.17-11.75-0.11-21.41,0.19c-8.31,0.24-10.2-2.13-7.89-12.2
			c10.17-48.69,12.65-55.12,11.9-67.57l-3.85-63.69c12.04-10.7,32.81-18.07,60.43-22.12l-15.92,103.82
			c-2.92,15.58-9.51,29.06-16.01,54.59C351.52,938.65,350.64,940.71,345.75,940.73"/>
		<path class="st8" d="M400.16,770.04c-20.87-29.43-34.02-23.77-39.46,17C375.5,786.41,389.54,780.36,400.16,770.04"/>
		<path class="st9" d="M348.5,658.51l-7.99-19.47c-12.67,3.77-22.24,7.12-28.68,10.05c4,6.42,7.62,12.15,10.87,17.19l7.34,60.56
			h31.18c-21.54,1.97-33.09,7.13-34.64,15.49c-9.76,28.54-14.64,42.81-14.64,42.81c10.42,13.78,26.73,22.65,44.7,24.31
			c15.48-29.42,22.81-47.34,21.98-53.75c17.44,23.58,29.89,37.5,37.37,41.77c4.64,0,6.96,0,6.96,0
			c-3.02-22.84-6.46-46.39-10.32-70.62l-10.29-79.39L348.5,658.51z"/>
		<polygon class="st8" points="375.64,638.66 402.36,641.26 405.76,648.3 379.05,645.7 		"/>
		<path class="st9" d="M447.32,673.11c-7.08,13.24-9.92,24.34-10.28,29.11c-6.86-0.36-19.76-9.09-36.91-21.99
			c-9.3-24.46-19.63-42.94,18.16-25.94C439.01,665.82,447.32,673.11,447.32,673.11"/>
		<path class="st8" d="M414.1,655.89c8.56,0.41,12.84,0.62,12.84,0.62s2.5,1.39,7.5,4.17c0,0-1.58,2.16-4.75,6.48
			c0,0-5.14-2.81-15.43-8.42C414.16,656.84,414.11,655.89,414.1,655.89"/>
		<path class="st8" d="M452.63,672.53c1.17,24.36,1.28,36.27,1.28,36.27c-2.13,1.39-5.3,1.06-9.52-0.98c0,0-2.85-1.53-8.55-4.59
			c-2.2-1.23-3.79-4.6-3.95-10.21C432.04,671.42,437.59,659.81,452.63,672.53"/>
		<path class="st10" d="M464.98,715.53c-13.31-1.2-19.15-9.11-17.53-23.74l4.61-45.93h0.45c0.67,0,1.24-0.44,1.46-1.05l16.17,7.41
			l4.03,49.73C474.93,711.46,470.13,715.93,464.98,715.53"/>
		<path class="st11" d="M454.74,642.32c6.69,7.71,10.04,11.57,10.04,11.57c-5.39,1.6-9.63,0.01-12.7-4.78
			C450.92,646.97,451.81,644.7,454.74,642.32"/>
		<path class="st12" d="M348.69,641.3c1.36,6.68,6.83,11.96,13.9,13.42c7.08,1.46,14.4-1.18,18.61-6.71c0,0-2.18-7.95,1.08-18.33
			c0,0-8.19-15.67-30.37-22.45C352.49,636.13,348.69,641.3,348.69,641.3"/>
		<path class="st8" d="M370.61,668.05h3.07v58.8h-3.07V668.05z M366.93,653.29c-6.16,10.03-9.24,15.05-9.24,15.05
			c-9.38-0.71-13.89-11.12-17.32-30.19c3.92-2.55,5.94-4.59,9.85-7.16C353.08,643.13,358.65,650.57,366.93,653.29z"/>
		<path class="st13" d="M402.86,608.43c-2.86-0.81-4.28-1.22-4.28-1.22c-2.28,25.2-4.94,38.81-7.99,40.83
			c0.83,1.48,2.08,2.48,3.49,2.8C397.46,646.73,400.39,632.59,402.86,608.43"/>
		<path class="st14" d="M399.8,599.27c-1.76,8.44-2.65,12.67-2.65,12.67c9.83-2.78,15.75-5.01,17.74-6.71
			C407.78,599.4,402.75,597.42,399.8,599.27"/>
		<path class="st11" d="M355.97,628.27c2.16,5.65,5.57,10.37,9.18,13.84c6.6,6.35,15.77,7.19,17.1,3.33
			c1.15-3.39,3.34-7.19,10.08-15.04c2-2.3,2.9-5.67,2.72-10.11c-0.26-4.05,0.44-6.5,4.37-9.19c2.75-1.86,3.66-5.87,2.86-11.99
			c-1.15,0.19-2.35,0.13-3.53-0.21c-0.7-0.02-1.4-0.13-2.09-0.34l-1.09-0.08l-1.27-0.09c-0.63-0.02-1.28-0.02-1.91-0.1l-1.71-0.23
			l-1.52-0.16c-0.72-0.08-1.48-0.27-2.19-0.43c-0.63-0.13-1.18-0.35-1.78-0.57l-0.22-0.04l-0.34-0.04
			c-0.69-0.06-1.39-0.21-2.07-0.47l-1.01-0.37l0.5,0.02c-0.64-0.03-1.29-0.15-1.93-0.34c-0.37-0.05-0.73-0.12-1.1-0.22
			c-0.63-0.07-1.26-0.22-1.88-0.45l-0.45-0.17l0.5,0.02c-0.79-0.04-1.58-0.2-2.35-0.49l-0.12-0.04l-0.24,0
			c-0.79,0-1.62-0.12-2.41-0.21l-1.31-0.1c-0.7-0.05-1.4-0.21-2.09-0.34c-0.84-0.16-1.6-0.47-2.4-0.77
			c-1.71-0.63-3.07-1.78-3.99-3.2c-4.82,5.53-7.34,12.85-6.74,20.41C352.79,618.22,353.25,619.93,355.97,628.27"/>
		<path class="st15" d="M374.67,572.04l0.13,0.07l-0.2-0.01L374.67,572.04z M359.66,609.52c-0.17,4.06-4.8,8.38-5.41,4.92
			c-0.87-9.02-1.01-16.66-0.4-22.93c0.59-0.11,1.16-0.28,1.72-0.52c0.63-0.11,1.26-0.3,1.87-0.57c1.19-0.02,2.38-0.31,3.48-0.87
			l0.2-0.04c0.88-0.17,1.74-0.49,2.53-0.96c0.19-0.07,0.38-0.14,0.56-0.22c0.4-0.08,0.78-0.17,1.17-0.3
			c0.37-0.02,0.74-0.06,1.12-0.13l1.09-0.21l0.05-0.01c0.38,0.03,0.76,0.05,1.13,0.04l1.11-0.03c-0.97,1.73-1.17,3.85-0.42,5.8
			c0.9,2.45-1.31,4.24-6.24,5.56C360.21,599.94,359.83,602.78,359.66,609.52z"/>
		<path class="st11" d="M349.34,611.24c-0.41-3.23-1.71-5.97-3.92-8.23c-1.65-1.75-1.78-4.27-0.88-6.41
			c0.91-2.13,2.91-3.6,5.22-3.82c2.31-0.22,4.55,0.85,5.84,2.78c3.78,5.46,2.95,12.87-1.94,17.36c-0.74,0.63-1.76,0.8-2.66,0.45
			C350.1,613.02,349.46,612.2,349.34,611.24"/>
		<path class="st16" d="M345.81,602.49c4.12,0.57,6.19,0.86,6.19,0.86c-8.46,27.07-11.15,42.39-8.06,45.97
			c-1.76,1.11-3.87,1.53-5.86,1.16C335.49,644.58,338.07,628.58,345.81,602.49"/>
		<path class="st17" d="M374.93,601.53c10.78-0.72,24.24-0.33,40.38,1.17c-2.33-2.31-3.43-5.04-3.31-8.22
			c0.9-12.78-5.12-25.05-15.78-32.16c-10.65-7.11-24.3-7.96-35.76-2.23c-11.45,5.73-16.85,12.05-19.64,29.96
			c-1.17,8.97-1.76,13.45-1.76,13.45c14.85-4.19,22.86-5.52,24.03-4C370.99,600.85,374.93,601.53,374.93,601.53"/>
		<path class="st18" d="M363.59,598.72c3.07,1.94,4.6,2.92,4.6,2.92s-8.02,1.66-24.08,4.97c-1.49,0.28-2.61-0.45-4.31-2.27
			C355.66,600.59,363.59,598.72,363.59,598.72"/>
		<path class="st19" d="M337.38,602.48c0.04,1.47,0.66,2.28,2.1,2.58c0,0,7.57-2.33,20.87-4.72c1.88-0.39,3.12-0.18,4.14,0.37
			c7.05,3.49,5.93,2.68,16.58,2.37c14.54-0.27,26.19,0.67,34.93,2.82c0.65-1.08,0.35-2.48-0.68-3.2
			c-10.11-2.02-21.43-2.99-33.96-2.9c-9.96-0.07-9.1,0.91-13.46-1.23c15.97-1.4,31.39-0.69,46.24,2.14
			c0.41-0.01,0.75-0.33,0.77-0.74c0.02-0.41-0.28-0.77-0.68-0.81c-16.69-3.22-33.14-3.9-49.37-2.05c-2.54-1.02-3.99-0.75-5.41-0.43
			C352.03,598.4,344.67,600.34,337.38,602.48"/>
		<polygon class="st20" points="348.97,585.72 350.56,589.37 354.47,588.64 351.48,591.27 353.39,594.77 349.96,592.75 
			347.23,595.64 348.09,591.75 344.49,590.05 348.46,589.67 		"/>
		<rect x="439.72" y="630.25" class="st21" width="23.53" height="12.34"/>
		<path class="st22" d="M399.35,624.76h3.23c0.45,0,0.83,0.37,0.83,0.83v2.02h14.19c0.67,0,1.21,0.55,1.21,1.21v4.23
			c0,0.67-0.55,1.21-1.21,1.21h-19.74c-0.67,0-1.21-0.55-1.21-1.21v-4.23c0-0.67,0.55-1.21,1.21-1.21h0.67v-2.02
			C398.52,625.13,398.89,624.76,399.35,624.76"/>
		<path class="st23" d="M396.12,639.28c9.03,0.56,13.55,0.84,13.55,0.84c-0.14,4.25-2.42,8.15-6.06,10.35
			c0,0-15.92,10.09-47.77,30.28c-4.09,2.47-5.51,2.03-6.67-0.69c0,0-2.26-5.47-6.78-16.4c-0.83-1.96-0.63-2.98,0.52-3.47
			C378.39,646.26,396.12,639.28,396.12,639.28"/>
		<path class="st24" d="M437.66,627.17h81.87h5.33v-7.17c0-0.77,0.56-1.51,1.37-1.51c0.75,0,1.37,0.68,1.37,1.51v7.17h3.38h11.02
			c1.69,0,3.08,1.38,3.08,3.08c0,1.69-1.38,3.08-3.08,3.08h-10.92c-0.03,0-0.07,0-0.1,0h-79.35l-5.66,45.6
			c-0.11,0.88-0.92,1.6-1.79,1.6h-8.88c-0.88,0-1.51-0.72-1.4-1.6l2.37-19.11H406.8v-7.8h-5.29c-4.22,0.1-5.3-0.01-5.35-2.79v-3.38
			H438l1.55-12.51h-1.89c-0.86,0-1.56-0.78-1.56-1.72v-2.71C436.1,627.95,436.8,627.17,437.66,627.17"/>
		<path class="st21" d="M392.74,630.31h44.23c1.72,0,3.13,1.41,3.13,3.13v10.9c0,1.72-1.41,3.13-3.13,3.13h-44.23
			c-1.72,0-3.13-1.41-3.13-3.13v-10.9C389.61,631.71,391.02,630.31,392.74,630.31"/>
		<path class="st25" d="M374.9,674.86c-2.27,1.89-2.65,3.08-2.65,3.08c53.68,36.96,89.58,36.57,130.76-32.85
			c-4.47,0-8.62-0.51-8.62-0.51C456.01,709,425.24,706.89,374.9,674.86"/>
		<path class="st23" d="M455.88,632.92h60.69c0.86,0,1.56,0.7,1.56,1.56v11.1c0,0.86-0.7,1.56-1.56,1.56h-60.69
			c-0.86,0-1.56-0.7-1.56-1.56v-11.1C454.32,633.62,455.03,632.92,455.88,632.92"/>
		<path class="st9" d="M304.53,698.58c24.48-10.31,36.72-15.47,36.72-15.47s-3.52-10.53-10.56-31.59
			c-1.92-6.76-10.9-9.97-18.41-8.52c-7.51,1.44-15.13,7.49-13.99,14.75C302.44,684.97,304.53,698.58,304.53,698.58"/>
		<path class="st8" d="M344.49,682.76c-19.48,14.7-18.55,28.83-15.51,34.73c-7.39,6.2-15.3-1.98-22.29-11.7
			c-5.06-7.04-2.93-11.15,1.05-15.27c6.97-6.96,15.88-11.66,25.56-13.48C339.13,675.89,341.42,675.14,344.49,682.76"/>
		<path class="st26" d="M458.75,650.56c1.14,5.33,8.94,4.15,20.41-2.4c3.92-2.22,4.18-6.53,1.97-14.2c-1.46-5-9.76-5.37-16.22-2.12
			c-5.63,2.64-8.15,7.85-7.82,11.44C458.2,648.14,458.75,650.56,458.75,650.56"/>
		<polygon class="st8" points="305.19,641.64 331.27,637.15 338.43,642.79 312.36,647.28 		"/>
		<path class="st27" d="M331.72,721.81h78.01c1.74,0,3.3,1.42,3.48,3.16l0.81,8c0.17,1.74-1.1,3.16-2.84,3.16h-78.01
			c-1.74,0-3.3-1.42-3.48-3.16l-0.81-8C328.7,723.23,329.98,721.81,331.72,721.81"/>
		<path class="st11" d="M409.82,677.44c4.05,0.91,7.31-1.76,11.13-8.52c2.46-4.48-0.51-5.39-4.68-8.46
			c-1.85-1.29-1.47-1.86,0.79-1.28c0,0,3.78,0.95,11.35,2.86c1.31,0.37,2.24-1.45,2.63-2.73c0.39-1.28,0.58-3.29-0.67-3.73
			c-1.86-0.57-4.22-1.23-15.52-4.2c-4.22-0.89-8.49-0.11-11.23,0.77c0,0-8.94,2.51-19.91,7.39c0,0-21.35,10.01-64.05,30.02
			c-7.9,3.64-7.07,16.45-1.32,23.38c5.75,6.93,9.61,8.44,22,0.3c24.07-16.02,52.12-35.78,52.12-35.78c2.5-1.77,3.74-2.65,3.74-2.65
			C405.28,676.57,409.82,677.44,409.82,677.44"/>
		<path class="st28" d="M381.67,975.52h61.43c0.87,0,1.58,0.71,1.58,1.58v4.02c0,0.87-0.71,1.58-1.58,1.58h-61.43
			c-0.87,0-1.58-0.71-1.58-1.58v-4.02C380.09,976.23,380.8,975.52,381.67,975.52"/>
		<path class="st29" d="M326.34,949.24l15.73-0.65c0.57-0.02,1.04,0.42,1.04,0.99v0c0.01,0.57-0.45,1.05-1.02,1.08l-15.73,0.65
			c-0.57,0.02-1.04-0.42-1.04-0.99v0C325.31,949.75,325.77,949.26,326.34,949.24"/>
		<path class="st29" d="M326.96,953.66l14.59-0.61c0.57-0.02,1.04,0.42,1.04,0.99v0c0.01,0.57-0.45,1.05-1.02,1.08l-14.59,0.61
			c-0.57,0.02-1.04-0.42-1.04-0.99v0C325.93,954.16,326.39,953.68,326.96,953.66"/>
		<path class="st29" d="M327.59,957.82l13.42-0.56c0.57-0.02,1.04,0.42,1.04,0.99v0c0.01,0.57-0.45,1.05-1.02,1.08l-13.42,0.56
			c-0.57,0.02-1.04-0.42-1.04-0.99v0C326.57,958.32,327.03,957.84,327.59,957.82"/>
		<path class="st29" d="M328.37,961.97l11.97-0.5c0.57-0.02,1.04,0.42,1.04,0.99v0c0.01,0.57-0.45,1.05-1.02,1.08l-11.97,0.5
			c-0.57,0.02-1.04-0.42-1.04-0.99v0C327.34,962.47,327.8,961.99,328.37,961.97"/>
		<path class="st29" d="M329.11,966.14l10.58-0.44c0.57-0.02,1.04,0.42,1.04,0.99v0c0.01,0.57-0.45,1.05-1.02,1.08l-10.58,0.44
			c-0.57,0.02-1.04-0.42-1.04-0.99v0C328.08,966.65,328.54,966.17,329.11,966.14"/>
		<path class="st29" d="M329.58,970.15l9.73-0.4c0.57-0.02,1.04,0.42,1.04,0.99v0c0.01,0.57-0.45,1.05-1.02,1.08l-9.73,0.4
			c-0.57,0.02-1.04-0.42-1.04-0.99v0C328.55,970.66,329.01,970.18,329.58,970.15"/>
		<path class="st29" d="M330.25,974.06l8.47-0.35c0.57-0.02,1.04,0.42,1.04,0.99v0c0.01,0.57-0.45,1.05-1.02,1.08l-8.47,0.35
			c-0.57,0.02-1.04-0.42-1.04-0.99v0C329.23,974.57,329.69,974.09,330.25,974.06"/>
		<path class="st29" d="M331.02,977.92l7.01-0.29c0.57-0.02,1.04,0.42,1.04,0.99v0c0.01,0.57-0.45,1.05-1.02,1.08l-7.01,0.29
			c-0.57,0.02-1.04-0.42-1.04-0.99v0C330,978.43,330.46,977.95,331.02,977.92"/>
		<path class="st29" d="M331.44,982.13l6.28-0.26c0.57-0.02,1.04,0.42,1.04,0.99v0c0.01,0.57-0.45,1.05-1.02,1.08l-6.28,0.26
			c-0.57,0.02-1.04-0.42-1.04-0.99v0C330.41,982.63,330.87,982.15,331.44,982.13"/>
		<path class="st29" d="M397.09,933.53l6.29-0.52c0.56-0.05,1.03,0.38,1.03,0.95v0c0,0.57-0.46,1.07-1.02,1.12l-6.29,0.52
			c-0.56,0.05-1.03-0.38-1.03-0.95v0C396.07,934.08,396.52,933.58,397.09,933.53"/>
		<path class="st29" d="M397.27,937.27l6.29-0.52c0.56-0.05,1.03,0.38,1.03,0.95v0c0,0.57-0.46,1.07-1.02,1.12l-6.29,0.52
			c-0.56,0.05-1.03-0.38-1.03-0.95v0C396.24,937.82,396.7,937.32,397.27,937.27"/>
		<path class="st29" d="M396.91,940.88l6.29-0.52c0.56-0.05,1.03,0.38,1.03,0.95v0c0,0.57-0.46,1.07-1.02,1.12l-6.29,0.52
			c-0.56,0.05-1.03-0.38-1.03-0.95v0C395.89,941.43,396.35,940.92,396.91,940.88"/>
		<path class="st29" d="M397.09,944.62l6.29-0.52c0.56-0.05,1.03,0.38,1.03,0.95v0c0,0.57-0.46,1.07-1.02,1.12l-6.29,0.52
			c-0.56,0.05-1.03-0.38-1.03-0.95v0C396.07,945.17,396.52,944.67,397.09,944.62"/>
		<path class="st29" d="M396.98,948.44l6.29-0.52c0.56-0.05,1.03,0.38,1.03,0.95v0c0,0.57-0.46,1.07-1.02,1.12l-6.29,0.52
			c-0.56,0.05-1.03-0.38-1.03-0.95v0C395.96,948.99,396.42,948.48,396.98,948.44"/>
		<path class="st29" d="M397.16,952.18l6.29-0.52c0.56-0.05,1.03,0.38,1.03,0.95v0c0,0.57-0.46,1.07-1.02,1.12l-6.29,0.52
			c-0.56,0.05-1.03-0.38-1.03-0.95v0C396.14,952.73,396.6,952.23,397.16,952.18"/>
		<path class="st29" d="M399.78,958.64l4.42-4.5c0.4-0.4,1.03-0.39,1.4,0.04l0,0c0.37,0.43,0.36,1.11-0.04,1.51l-4.42,4.5
			c-0.4,0.4-1.03,0.39-1.4-0.04l0,0C399.36,959.72,399.38,959.04,399.78,958.64"/>
		<path class="st29" d="M403.48,960.41l4.42-4.5c0.4-0.4,1.03-0.39,1.4,0.04l0,0c0.37,0.43,0.36,1.11-0.04,1.51l-4.42,4.5
			c-0.4,0.4-1.03,0.39-1.4-0.04l0,0C403.07,961.49,403.08,960.81,403.48,960.41"/>
		<path class="st29" d="M406.8,962.49l4.42-4.5c0.4-0.4,1.03-0.39,1.4,0.04l0,0c0.37,0.43,0.36,1.11-0.04,1.51l-4.42,4.5
			c-0.4,0.4-1.03,0.39-1.4-0.04l0,0C406.39,963.58,406.41,962.9,406.8,962.49"/>
		<path class="st29" d="M410.56,965l4.42-4.5c0.4-0.4,1.03-0.39,1.4,0.04l0,0c0.37,0.43,0.36,1.11-0.04,1.51l-4.42,4.5
			c-0.4,0.4-1.03,0.39-1.4-0.04l0,0C410.15,966.08,410.17,965.4,410.56,965"/>
	</g>
</g>
</svg>
