<svg xmlns="http://www.w3.org/2000/svg" viewBox="0 0 688.45597 198.12999">
  <defs>
    <style>
      .cls-1, .cls-3, .cls-8 {
        fill: #6f6a67;
      }

      .cls-1, .cls-3 {
        stroke: #6f6a67;
      }

      .cls-1, .cls-9 {
        stroke-linecap: round;
        stroke-linejoin: round;
      }

      .cls-2 {
        fill: #f1f0f0;
      }

      .cls-10, .cls-3 {
        stroke-miterlimit: 10;
      }

      .cls-4 {
        fill: #d71f29;
      }

      .cls-5 {
        fill: none;
      }

      .cls-6 {
        fill: #3b70b7;
      }

      .cls-7 {
        fill: #f8ec22;
      }

      .cls-10, .cls-9 {
        fill: #363432;
        stroke: #363432;
      }
    </style>
  </defs>
  <title>Asset 4</title>
  <g id="Layer_2" data-name="Layer 2">
    <g id="Layer_1-2" data-name="Layer 1">
      <g>
        <circle class="cls-1" cx="128.83603" cy="150.35999" r="47.27001"/>
        <path class="cls-2" d="M93.066,150.36a35.71966,35.71966,0,0,0,35.78,35.78c20.44,0,35.78-15.33,35.78-35.78a35.78,35.78,0,1,0-71.56,0Zm29.38-8.95-16.61-5.11c3.83-6.39,8.94-11.5,16.61-12.78Zm30.67-5.11-16.61,5.11V123.52C142.896,124.8,149.28605,129.91,153.116,136.3Zm-12.78,17.89,16.61-5.11v1.28a30.55179,30.55179,0,0,1-6.39,17.89Zm-21.72,21.72,10.22-14.05,10.22,14.05a24.05845,24.05845,0,0,1-10.22,2.56C126.28605,178.47,122.446,178.47,118.616,175.91Zm-17.88995-25.55v-1.28l16.61,5.11-10.22,14.05C103.28605,163.13,100.72605,158.02,100.72605,150.36Z"/>
        <circle class="cls-3" cx="553.89603" cy="150.35999" r="47.27001"/>
        <path class="cls-4" d="M61.116,161.86h7.67c-1.28-3.83-1.28-7.67-1.28-11.5a61.33,61.33,0,1,1,122.66,0c0,6.39,0,12.78-2.56,19.17H496.80607c-1.28-6.39-2.56006-12.78-2.56006-19.17a61.33,61.33,0,1,1,122.65991,0c0,6.39,0,11.5-2.56006,17.89l71.55-1.28,2.56006-8.94-10.22-3.83V137.59h6.39s1.28-20.44-12.78-29.39c-14.05005-8.94-39.61-26.83-86.88-38.33s-95.83-11.5-134.16-8.94c-38.33,1.28-76.66,5.11-145.66,0s-125.21-17.89-192.93-17.89h-93.27l-17.89-7.67,5.11,33.22-5.11,10.22C1.066,78.81-12.984,161.86,61.116,161.86Z"/>
        <path class="cls-4" d="M450.81608,62.61c-38.33,1.28-76.66,5.11-144.38-1.28-69-5.11-125.21-17.89-192.93-17.89h-63.88c43.44-15.33,132.88-43.44,236.37-43.44,0,0,38.33,0,76.66,17.89,25.55,11.5,67.72,31.94,93.27,43.44C453.376,61.33,452.096,62.61,450.81608,62.61Z"/>
        <path class="cls-5" d="M305.156,62.61c-31.94-2.56-61.33-6.39-90.72-10.22V14.06c65.16-7.67,102.22,5.11,102.22,5.11l77.94,40.89c2.56,1.28,3.83,3.83,6.39,5.11C375.436,66.45,346.04606,66.45,305.156,62.61Z"/>
        <path class="cls-6" d="M448.706,62.2h5.11c-25.55-12.78-67.72-31.94-93.27-43.44-7.67-3.83-15.33-6.39-23-8.94l-8.94,3.83,93.27,48.55A94.09285,94.09285,0,0,1,448.706,62.2Z"/>
        <path class="cls-7" d="M597.756,72.42c1.28,12.78,14.05,30.66,67.72,30.66C651.41605,94.14,630.976,81.36,597.756,72.42Z"/>
        <path class="cls-2" d="M519.81608,150.36a35.71967,35.71967,0,0,0,35.78,35.78c20.43994,0,35.78-15.33,35.78-35.78a35.78,35.78,0,0,0-71.56,0Zm28.11-8.95-16.61-5.11c3.82995-6.39,8.93994-11.5,16.61-12.78ZM579.866,136.3l-16.61,5.11V123.52C569.646,124.8,576.03605,129.91,579.866,136.3Zm-12.78,17.89,16.61-5.11v1.28a30.55214,30.55214,0,0,1-6.39,17.89Zm-21.72,21.72,10.22-14.05,10.22,14.05a24.05868,24.05868,0,0,1-10.22,2.56C551.756,178.47,547.92606,178.47,545.366,175.91Zm-17.89-25.55v-1.28l16.61,5.11-10.22,14.05C530.03605,163.13,527.476,158.02,527.476,150.36Z"/>
        <circle class="cls-8" cx="555.58597" cy="150.35999" r="5.10999"/>
        <path class="cls-9" d="M66.236,150.36c0,3.83,0,7.67,1.28,11.5l15.33,1.28c0-3.83-1.28-7.67-1.28-12.78,0-25.55,21.72-47.27,47.27-47.27s47.27,21.72,47.27,47.27a40.888,40.888,0,0,1-3.83,17.89l11.5,1.28h3.83c1.28-6.39,2.56-12.78,2.56-19.17a61.34265,61.34265,0,0,0-61.33-61.33C95.616,89.03,67.506,117.14,66.236,150.36Z"/>
        <path class="cls-10" d="M492.986,150.36c0,6.39,0,12.78,2.56006,19.17h15.33007a51.19482,51.19482,0,0,1-3.82995-19.17c0-25.55,21.72-47.27,47.27-47.27s47.27,21.72,47.27,47.27c0,6.39,0,11.5-2.56006,16.61h15.32995c1.28-5.11,2.56006-11.5,2.56006-16.61a61.34259,61.34259,0,0,0-61.32995-61.33C521.096,89.03,494.256,117.14,492.986,150.36Z"/>
        <path class="cls-6" d="M306.436,54.95c-26.83-2.56-52.39-6.39-76.66-8.94l-7.67-1.28v-23c10.22-1.28,21.72-1.28,31.94-1.28,34.5,0,54.94,5.11,58.77,6.39l20.44,10.22,3.83,19.17C326.886,56.22,316.656,54.95,306.436,54.95Z"/>
        <path class="cls-6" d="M370.326,57.5h1.28l-38.33-20.44,3.83,19.17C348.60605,57.5,360.10605,57.5,370.326,57.5Z"/>
        <circle class="cls-8" cx="128.83603" cy="150.76999" r="5.10999"/>
      </g>
    </g>
  </g>
</svg>
