<?xml version="1.0" encoding="utf-8"?>
<!-- Generator: Adobe Illustrator 23.0.1, SVG Export Plug-In . SVG Version: 6.00 Build 0)  -->
<svg version="1.1" id="Layer_1" xmlns="http://www.w3.org/2000/svg" xmlns:xlink="http://www.w3.org/1999/xlink" x="0px" y="0px"
	 viewBox="0 0 190 361" style="enable-background:new 0 0 190 361;" xml:space="preserve">
<style type="text/css">
	.st0{fill-rule:evenodd;clip-rule:evenodd;fill:#23291E;}
	.st1{fill-rule:evenodd;clip-rule:evenodd;fill:#10120F;}
	.st2{fill-rule:evenodd;clip-rule:evenodd;fill:#010101;}
	.st3{fill-rule:evenodd;clip-rule:evenodd;fill:#384631;}
	.st4{fill-rule:evenodd;clip-rule:evenodd;fill:#151D11;}
	.st5{fill-rule:evenodd;clip-rule:evenodd;fill:#CB922E;}
	.st6{fill-rule:evenodd;clip-rule:evenodd;fill:#D2993A;}
	.st7{fill-rule:evenodd;clip-rule:evenodd;fill:#C68A2F;}
	.st8{fill-rule:evenodd;clip-rule:evenodd;fill:#2B3B22;}
	.st9{fill-rule:evenodd;clip-rule:evenodd;fill:#1C2818;}
	.st10{fill-rule:evenodd;clip-rule:evenodd;fill:#0F0F0D;}
	.st11{fill-rule:evenodd;clip-rule:evenodd;fill:#172014;}
	.st12{fill-rule:evenodd;clip-rule:evenodd;fill:#33452A;}
	.st13{fill-rule:evenodd;clip-rule:evenodd;fill:#3C5330;}
	.st14{fill-rule:evenodd;clip-rule:evenodd;fill:#69835C;}
	.st15{fill-rule:evenodd;clip-rule:evenodd;fill:#809576;}
	.st16{fill-rule:evenodd;clip-rule:evenodd;fill:#523E2E;}
	.st17{fill-rule:evenodd;clip-rule:evenodd;fill:#36291E;}
	.st18{fill-rule:evenodd;clip-rule:evenodd;fill:#A05525;}
	.st19{fill-rule:evenodd;clip-rule:evenodd;fill:#17120F;}
	.st20{fill-rule:evenodd;clip-rule:evenodd;fill:#35271A;}
	.st21{fill-rule:evenodd;clip-rule:evenodd;fill:#E2AC4C;}
	.st22{fill-rule:evenodd;clip-rule:evenodd;fill:#090C09;}
	.st23{fill-rule:evenodd;clip-rule:evenodd;fill:#A3A39E;}
	.st24{fill-rule:evenodd;clip-rule:evenodd;fill:#4C5245;}
	.st25{fill-rule:evenodd;clip-rule:evenodd;fill:#00037F;}
</style>
<g>
	<path class="st0" d="M91.1,296c-1-2.9-2.2-5.8-3.6-8.6c-3.5,0.6-5.3,0.8-5.3,0.8c-3.2,1.2-5.1,4.4-4.7,7.8
		C77.6,296,82.1,296,91.1,296"/>
	<path class="st1" d="M121.1,296c3-23.1,4.3-35.7,4.3-35.7c-13.7,0.2-20.5,0.3-20.5,0.3c1.1,12.4,1.7,18.7,1.7,18.7
		c-7.6,4.5-11.5,6.8-11.5,6.8c-6.1,1-9.2,1.5-9.2,1.5c0.8,6.4,1.1,9.6,1.1,9.6S98.6,297.6,121.1,296"/>
	<path class="st2" d="M118.6,296.2c0,0,1.5-11.2,4.5-33.7c0,0-1.9-0.4-5.7-1.3c-3.4,23.5-5,35.3-5,35.3S114.5,296.4,118.6,296.2"/>
	<path class="st1" d="M163.5,312.4c0,0-0.7-6.7-2-20.2c0,0,0.7-8.1,2.1-24.2c-12.8,0.9-19.1,1.3-19.1,1.3
		c0.8,15.3,1.3,22.9,1.3,22.9c-1.7,12.1-2.6,18.2-2.6,18.2C145.3,312.3,152.1,312.9,163.5,312.4"/>
	<path class="st2" d="M155.7,302.2c0,0,1-10.9,3.1-32.8c-6.5-0.4-9.9-0.1-10.3,0.9c1.2,20.8,1.7,31.2,1.7,31.2
		C151.9,302.6,153.9,302.8,155.7,302.2"/>
	<path class="st3" d="M127.4,258.1c0.1,4.8-1.8,5.1-6.1,5.1c0,0-4.8-0.2-14.3-0.6c-3.1-0.2-3.7-1.9-4.6-10.5
		c-2.9-28.4-4.6-45.1-5-50.2c0,0-0.4-6,0.7-33.7c20.1-32.8,29.7-18.3,28.5,43.6C126.6,234.9,126.9,250.3,127.4,258.1"/>
	<path class="st3" d="M145.1,271c-3.4,0-4-1.4-5-4.8c-4.5-17.6-9-26.8-11-37.6l-11-71.4c19,2.8,33.3,7.9,41.6,15.2l-2.6,43.8
		c-0.5,8.6,1.2,13,8.2,46.5c1.6,6.9,0.3,8.6-5.4,8.4C153.2,270.9,148.3,270.9,145.1,271"/>
	<path class="st3" d="M107.7,153.6c7.3,7.1,17,11.3,27.1,11.7C131.1,137.3,122.1,133.4,107.7,153.6"/>
	<path class="st4" d="M106.2,69.3l-7.1,54.6c-2.7,16.7-5,32.9-7.1,48.6c0,0,1.6,0,4.8,0c5.1-2.9,13.7-12.5,25.7-28.7
		c-0.6,4.4,4.5,16.7,15.1,37c12.4-1.1,23.6-7.2,30.7-16.7c0,0-3.4-9.8-10.1-29.4c-1.1-5.7-9-9.3-23.8-10.7h21.4l5.1-41.7
		c2.2-3.5,4.7-7.4,7.5-11.8c-4.4-2-11-4.3-19.7-6.9l-5.5,13.4L106.2,69.3z"/>
	<polygon class="st3" points="122.2,68.1 103.8,69.9 106.2,65 124.6,63.2 	"/>
	<path class="st4" d="M75.3,86.9c0,0,5.7-5,20-12.9c26-11.7,18.9,1,12.5,17.8C95.9,100.7,87,106.7,82.3,107
		C82.1,103.7,80.1,96,75.3,86.9"/>
	<path class="st3" d="M98.1,75.1c0,0,0,0.7-0.1,2c-7.1,3.9-10.6,5.8-10.6,5.8c-2.2-3-3.3-4.5-3.3-4.5c3.4-1.9,5.2-2.9,5.2-2.9
		S92.2,75.4,98.1,75.1"/>
	<path class="st3" d="M71.6,86.5c10.3-8.7,14.2-0.8,14.3,14.1c-0.1,3.9-1.2,6.2-2.7,7c-3.9,2.1-5.9,3.2-5.9,3.2
		c-2.9,1.4-5.1,1.6-6.5,0.7C70.7,111.5,70.8,103.3,71.6,86.5"/>
	<path class="st5" d="M63.1,116.1c-3.5,0.3-6.8-2.8-6.3-9.3l2.8-34.2l11.1-5.1c0.2,0.4,0.5,0.7,1,0.7H72l3.2,31.6
		C76.3,109.8,72.3,115.3,63.1,116.1"/>
	<path class="st6" d="M70.1,65.8c2,1.6,2.6,3.2,1.8,4.7c-2.1,3.3-5,4.4-8.7,3.3C63.2,73.7,65.5,71.1,70.1,65.8"/>
	<path class="st7" d="M143.1,65.1c0,0-2.6-3.6-2.2-23.4C125.6,46.3,120,57.1,120,57.1c2.2,7.1,0.7,12.6,0.7,12.6
		c2.9,3.8,7.9,5.6,12.8,4.6C138.4,73.3,142.2,69.6,143.1,65.1"/>
	<path class="st3" d="M128,123.9h-2.1V83.5h2.1V123.9z M142,58c2.7,1.8,4.1,3.2,6.8,4.9c-2.4,13.1-5.5,20.3-11.9,20.8
		c0,0-2.1-3.5-6.4-10.4C136.2,71.4,140.1,66.3,142,58z"/>
	<path class="st8" d="M105.8,42.4c1.7,16.6,3.7,26.3,6,29.2c1-0.2,1.8-0.9,2.4-1.9c-2.1-1.4-3.9-10.7-5.5-28.1
		C108.8,41.6,107.8,41.9,105.8,42.4"/>
	<path class="st9" d="M107.9,36.1c-2-1.3-5.5,0.1-10.4,4.1c1.4,1.2,5.4,2.7,12.2,4.6C109.8,44.9,109.2,41.9,107.9,36.1"/>
	<path class="st6" d="M138.1,56.1c1.9-5.7,2.2-6.9,0.3-12.5c0.4-5.2-1.3-10.2-4.6-14c-0.6,1-1.6,1.8-2.7,2.2
		c-0.6,0.2-1.1,0.4-1.7,0.5c-0.5,0.1-1,0.2-1.4,0.2l-0.9,0.1c-0.5,0.1-1.1,0.2-1.7,0.1h-0.2l-0.1,0c-0.5,0.2-1.1,0.3-1.6,0.3l0.3,0
		l-0.3,0.1c-0.4,0.2-0.9,0.3-1.3,0.3c-0.3,0.1-0.5,0.1-0.8,0.2c-0.4,0.1-0.9,0.2-1.3,0.2l0.3,0l-0.7,0.3c-0.5,0.2-0.9,0.3-1.4,0.3
		l-0.2,0l-0.2,0c-0.4,0.2-0.8,0.3-1.2,0.4c-0.5,0.1-1,0.2-1.5,0.3l-1,0.1l-1.2,0.2c-0.4,0.1-0.9,0.1-1.3,0.1l-0.9,0.1l-0.7,0.1
		c-0.5,0.1-1,0.2-1.4,0.2c-0.8,0.2-1.6,0.3-2.4,0.1c-0.6,4.2,0.1,7,2,8.2c2.7,1.9,3.2,3.5,3,6.3c-0.1,3.1,0.5,5.4,1.9,6.9
		c4.6,5.4,6.1,8,6.9,10.3c0.9,2.7,7.2,2.1,11.8-2.3C134.3,63.2,136.6,60,138.1,56.1"/>
	<path class="st10" d="M125.3,17.4l-0.1,0L125.3,17.4L125.3,17.4z M133.1,36c-3.4-0.9-4.9-2.1-4.3-3.8c0.5-1.3,0.4-2.8-0.3-4l0.8,0
		c0.3,0,0.5,0,0.8,0l0,0l0.7,0.1c0.3,0,0.5,0.1,0.8,0.1c0.3,0.1,0.5,0.2,0.8,0.2c0.1,0.1,0.3,0.1,0.4,0.2c0.6,0.3,1.1,0.5,1.7,0.7
		l0.1,0c0.8,0.4,1.6,0.6,2.4,0.6c0.4,0.2,0.8,0.3,1.3,0.4c0.4,0.2,0.8,0.3,1.2,0.4c0.4,4.3,0.3,9.6-0.3,15.8
		c-0.4,2.4-3.6-0.6-3.7-3.4C135.4,38.6,135.2,36.6,133.1,36z"/>
	<path class="st6" d="M142.6,44.4c-0.1,0.7-0.5,1.2-1.1,1.5c-0.6,0.2-1.3,0.1-1.8-0.3c-3.4-3.1-3.9-8.2-1.3-11.9
		c0.9-1.3,2.4-2.1,4-1.9c1.6,0.2,3,1.2,3.6,2.6c0.6,1.5,0.5,3.2-0.6,4.4C143.8,40.3,142.9,42.1,142.6,44.4"/>
	<path class="st11" d="M145.1,38.4c5.3,17.9,7.1,28.9,5.3,33c-1.4,0.3-2.8,0-4-0.8c2.1-2.5,0.3-13-5.5-31.6
		C140.8,39,142.2,38.8,145.1,38.4"/>
	<path class="st12" d="M125,37.7c0,0,2.7-0.5,8.1-1.4c0.8-1,6.3-0.1,16.5,2.8c0,0-0.4-3.1-1.2-9.3c-1.9-12.3-5.6-16.7-13.5-20.6
		s-17.3-3.4-24.6,1.5c-7.3,4.9-11.5,13.3-10.9,22.1c0.1,2.2-0.7,4.1-2.3,5.7C108.4,37.5,117.6,37.2,125,37.7"/>
	<path class="st13" d="M132.8,35.8c0,0,5.5,1.3,16.4,3.9c-1.2,1.3-1.9,1.8-3,1.6c-11-2.3-16.6-3.4-16.6-3.4S130.7,37.1,132.8,35.8"
		/>
	<path class="st14" d="M150.9,38.3c-5-1.5-10.1-2.8-15.2-4c-1-0.2-2-0.4-3.7,0.3c-11.2-1.3-22.5-0.8-34,1.4c-0.3,0-0.5,0.3-0.5,0.6
		c0,0.3,0.2,0.5,0.5,0.5c10.2-1.9,20.8-2.4,31.8-1.5c-3,1.5-2.4,0.8-9.3,0.8c-8.6-0.1-16.4,0.6-23.4,2c-0.7,0.5-0.9,1.5-0.5,2.2
		c6-1.5,14-2.1,24-1.9c7.3,0.2,6.6,0.8,11.4-1.6c0.7-0.4,1.6-0.5,2.8-0.3c9.2,1.6,14.4,3.2,14.4,3.2
		C150.4,39.9,150.9,39.4,150.9,38.3"/>
	<polygon class="st15" points="143.3,29.5 146,29.8 143.5,31 144.1,33.6 142.2,31.7 139.9,33 141.2,30.6 139.1,28.8 141.8,29.3 
		142.9,26.8 	"/>
	<rect x="64.3" y="57.5" class="st16" width="16.2" height="8.5"/>
	<path class="st17" d="M108.3,53.7c0.3,0,0.6,0.3,0.6,0.6v1.4h0.5c0.5,0,0.8,0.4,0.8,0.8v2.9c0,0.5-0.4,0.8-0.8,0.8H95.7
		c-0.5,0-0.8-0.4-0.8-0.8v-2.9c0-0.5,0.4-0.8,0.8-0.8h9.8v-1.4c0-0.3,0.3-0.6,0.6-0.6H108.3"/>
	<path class="st18" d="M110.5,63.7c0,0,12.2,4.8,36.6,14.4c0.8,0.3,0.9,1,0.4,2.4c-3.1,7.5-4.7,11.3-4.7,11.3
		c-0.8,1.9-1.8,2.2-4.6,0.5c-21.9-13.9-32.9-20.8-32.9-20.8c-2.5-1.5-4.1-4.2-4.2-7.1C101.1,64.2,104.3,64,110.5,63.7"/>
	<path class="st19" d="M81.9,55.3c0.6,0,1.1,0.5,1.1,1.2v1.9c0,0.7-0.5,1.2-1.1,1.2h-1.3l1.1,8.6h28.8v2.3c0,1.9-0.8,2-3.7,1.9h-3.6
		v5.4H82.8l1.6,13.1c0.1,0.6-0.4,1.1-1,1.1h-6.1c-0.6,0-1.2-0.5-1.2-1.1l-3.9-31.4H17.7c0,0,0,0-0.1,0h-7.5C9,59.6,8,58.6,8,57.5
		c0-1.2,0.9-2.1,2.1-2.1h7.6H20v-4.9c0-0.6,0.4-1,0.9-1c0.6,0,0.9,0.5,0.9,1v4.9h3.7H81.9"/>
	<path class="st16" d="M112.8,57.5c1.2,0,2.2,1,2.2,2.2v7.5c0,1.2-1,2.2-2.2,2.2H82.4c-1.2,0-2.2-1-2.2-2.2v-7.5
		c0-1.2,1-2.2,2.2-2.2H112.8"/>
	<path class="st20" d="M125.1,88.1c-34.6,22-55.8,23.5-82.2-20.8c0,0-2.9,0.4-5.9,0.4c28.3,47.8,53,48,89.9,22.6
		C126.9,90.3,126.6,89.4,125.1,88.1"/>
	<path class="st18" d="M69.4,59.3c0.6,0,1.1,0.5,1.1,1.1V68c0,0.6-0.5,1.1-1.1,1.1H27.6c-0.6,0-1.1-0.5-1.1-1.1v-7.6
		c0-0.6,0.5-1.1,1.1-1.1H69.4"/>
	<path class="st4" d="M173.5,104.5c0,0,1.4-9.4,4.3-28.1c0.8-5-4.5-9.2-9.6-10.1c-5.2-1-11.3,1.2-12.7,5.9
		c-4.8,14.5-7.3,21.7-7.3,21.7S156.6,97.4,173.5,104.5"/>
	<path class="st3" d="M146,93.6c2.1-5.2,3.7-4.7,7.7-3.9c6.7,1.2,12.8,4.5,17.6,9.3c2.7,2.8,4.2,5.7,0.7,10.5
		c-4.8,6.7-10.2,12.3-15.3,8C158.7,113.4,159.4,103.7,146,93.6"/>
	<path class="st21" d="M67.4,71.4c0,0,0.4-1.7,1.1-5c0.2-2.5-1.5-6.1-5.4-7.9C58.7,56.3,53,56.6,52,60c-1.5,5.3-1.3,8.2,1.4,9.8
		C61.2,74.3,66.6,75.1,67.4,71.4"/>
	<polygon class="st3" points="168.1,69.2 150.1,66.1 155.1,62.2 173,65.3 	"/>
	<path class="st22" d="M154.8,120.4c1.2,0,2.1,1,1.9,2.2l-0.6,5.5c-0.1,1.2-1.2,2.2-2.4,2.2h-53.7c-1.2,0-2.1-1-2-2.2l0.6-5.5
		c0.1-1.2,1.2-2.2,2.4-2.2H154.8"/>
	<path class="st6" d="M101,89.9c0,0,3.1-0.6,9.4-1.8c0,0,0.9,0.6,2.6,1.8c0,0,19.3,13.6,35.9,24.6c8.5,5.6,11.2,4.6,15.1-0.2
		c4-4.8,4.5-13.6-0.9-16.1C133.7,84.5,119,77.6,119,77.6c-7.6-3.4-13.7-5.1-13.7-5.1c-1.9-0.6-4.8-1.1-7.7-0.5
		c-7.8,2-9.4,2.5-10.7,2.9c-0.9,0.3-0.7,1.7-0.5,2.6c0.3,0.9,0.9,2.1,1.8,1.9c5.2-1.3,7.8-2,7.8-2c1.6-0.4,1.8,0,0.5,0.9
		c-2.9,2.1-4.9,2.7-3.2,5.8C96,88.7,98.3,90.5,101,89.9"/>
	<path class="st23" d="M120.4,294.9c0.6,0,1.1,0.5,1.1,1.1v2.8c0,0.6-0.5,1.1-1.1,1.1H78.2c-0.6,0-1.1-0.5-1.1-1.1V296
		c0-0.6,0.5-1.1,1.1-1.1H120.4"/>
	<path class="st24" d="M158.5,276.9c0.4,0,0.7,0.4,0.7,0.7l0,0c0,0.4-0.3,0.7-0.7,0.7l-10.8-0.5c-0.4,0-0.7-0.4-0.7-0.7l0,0
		c0-0.4,0.3-0.7,0.7-0.7L158.5,276.9"/>
	<path class="st24" d="M158,279.9c0.4,0,0.7,0.4,0.7,0.7l0,0c0,0.4-0.3,0.7-0.7,0.7l-10-0.4c-0.4,0-0.7-0.4-0.7-0.7l0,0
		c0-0.4,0.3-0.7,0.7-0.7L158,279.9"/>
	<path class="st24" d="M157.6,282.8c0.4,0,0.7,0.4,0.7,0.7l0,0c0,0.4-0.3,0.7-0.7,0.7l-9.2-0.4c-0.4,0-0.7-0.4-0.7-0.7l0,0
		c0-0.4,0.3-0.7,0.7-0.7L157.6,282.8"/>
	<path class="st24" d="M157.1,285.6c0.4,0,0.7,0.3,0.7,0.7l0,0c0,0.4-0.3,0.7-0.7,0.7l-8.2-0.3c-0.4,0-0.7-0.4-0.7-0.7l0,0
		c0-0.4,0.3-0.7,0.7-0.7L157.1,285.6"/>
	<path class="st24" d="M156.6,288.5c0.4,0,0.7,0.3,0.7,0.7l0,0c0,0.4-0.3,0.7-0.7,0.7l-7.3-0.3c-0.4,0-0.7-0.4-0.7-0.7l0,0
		c0-0.4,0.3-0.7,0.7-0.7L156.6,288.5"/>
	<path class="st24" d="M156.2,291.3c0.4,0,0.7,0.4,0.7,0.7l0,0c0,0.4-0.3,0.7-0.7,0.7l-6.7-0.3c-0.4,0-0.7-0.4-0.7-0.7l0,0
		c0-0.4,0.3-0.7,0.7-0.7L156.2,291.3"/>
	<path class="st24" d="M155.8,293.9c0.4,0,0.7,0.4,0.7,0.7l0,0c0,0.4-0.3,0.7-0.7,0.7l-5.8-0.2c-0.4,0-0.7-0.4-0.7-0.7l0,0
		c0-0.4,0.3-0.7,0.7-0.7L155.8,293.9"/>
	<path class="st24" d="M155.2,296.6c0.4,0,0.7,0.3,0.7,0.7l0,0c0,0.4-0.3,0.7-0.7,0.7l-4.8-0.2c-0.4,0-0.7-0.4-0.7-0.7l0,0
		c0-0.4,0.3-0.7,0.7-0.7L155.2,296.6"/>
	<path class="st24" d="M155,299.5c0.4,0,0.7,0.4,0.7,0.7l0,0c0,0.4-0.3,0.7-0.7,0.7l-4.3-0.2c-0.4,0-0.7-0.4-0.7-0.7l0,0
		c0-0.4,0.3-0.7,0.7-0.7L155,299.5"/>
	<path class="st24" d="M109.8,266.1c0.4,0,0.7,0.4,0.7,0.8l0,0c0,0.4-0.3,0.7-0.7,0.7l-4.3-0.4c-0.4,0-0.7-0.4-0.7-0.8l0,0
		c0-0.4,0.3-0.7,0.7-0.7L109.8,266.1"/>
	<path class="st24" d="M109.7,268.6c0.4,0,0.7,0.4,0.7,0.8l0,0c0,0.4-0.3,0.7-0.7,0.7l-4.3-0.4c-0.4,0-0.7-0.4-0.7-0.8l0,0
		c0-0.4,0.3-0.7,0.7-0.7L109.7,268.6"/>
	<path class="st24" d="M109.9,271.1c0.4,0,0.7,0.4,0.7,0.8l0,0c0,0.4-0.3,0.7-0.7,0.7l-4.3-0.4c-0.4,0-0.7-0.4-0.7-0.8l0,0
		c0-0.4,0.3-0.7,0.7-0.7L109.9,271.1"/>
	<path class="st24" d="M109.8,273.7c0.4,0,0.7,0.4,0.7,0.8l0,0c0,0.4-0.3,0.7-0.7,0.7l-4.3-0.4c-0.4,0-0.7-0.4-0.7-0.8l0,0
		c0-0.4,0.3-0.7,0.7-0.7L109.8,273.7"/>
	<path class="st24" d="M109.9,276.3c0.4,0,0.7,0.4,0.7,0.8l0,0c0,0.4-0.3,0.7-0.7,0.7l-4.3-0.4c-0.4,0-0.7-0.4-0.7-0.8l0,0
		c0-0.4,0.3-0.7,0.7-0.7L109.9,276.3"/>
	<path class="st24" d="M109.8,278.9c0.4,0,0.7,0.4,0.7,0.8l0,0c0,0.4-0.3,0.7-0.7,0.7l-4.3-0.4c-0.4,0-0.7-0.4-0.7-0.8l0,0
		c0-0.4,0.3-0.7,0.7-0.7L109.8,278.9"/>
	<path class="st24" d="M108,283.3c0.3,0.3,0.3,0.7,0,1l0,0c-0.3,0.3-0.7,0.3-1,0l-3-3.1c-0.3-0.3-0.3-0.7,0-1l0,0
		c0.3-0.3,0.7-0.3,1,0L108,283.3"/>
	<path class="st24" d="M105.4,284.6c0.3,0.3,0.3,0.7,0,1l0,0c-0.3,0.3-0.7,0.3-1,0l-3-3.1c-0.3-0.3-0.3-0.7,0-1l0,0
		c0.3-0.3,0.7-0.3,1,0L105.4,284.6"/>
	<path class="st24" d="M103.1,286c0.3,0.3,0.3,0.7,0,1l0,0c-0.3,0.3-0.7,0.3-1,0l-3-3.1c-0.3-0.3-0.3-0.7,0-1l0,0
		c0.3-0.3,0.7-0.3,1,0L103.1,286"/>
	<path class="st24" d="M100.5,287.7c0.3,0.3,0.3,0.7,0,1l0,0c-0.3,0.3-0.7,0.3-1,0l-3-3.1c-0.3-0.3-0.3-0.7,0-1l0,0
		c0.3-0.3,0.7-0.3,1,0L100.5,287.7"/>
</g>
<g>
	<path class="st0" d="M461,93.7c-0.7-2-1.5-4-2.5-5.9c-2.4,0.4-3.6,0.6-3.6,0.6c-2.2,0.8-3.5,3-3.2,5.4
		C451.7,93.8,454.8,93.8,461,93.7"/>
	<path class="st1" d="M481.6,93.8c2.1-15.8,2.9-24.5,2.9-24.5c-9.4,0.1-14.1,0.2-14.1,0.2c0.8,8.6,1.1,12.8,1.1,12.8
		c-5.2,3.1-7.9,4.7-7.9,4.7c-4.2,0.7-6.3,1.1-6.3,1.1c0.5,4.4,0.8,6.6,0.8,6.6S466.1,94.8,481.6,93.8"/>
	<path class="st2" d="M479.8,93.9c0,0,1-7.7,3.1-23.1c0,0-1.3-0.3-3.9-0.9c-2.3,16.2-3.5,24.3-3.5,24.3S477,94.1,479.8,93.9"/>
	<path class="st1" d="M510.8,105.1c0,0-0.5-4.6-1.4-13.9c0,0,0.5-5.5,1.4-16.6c-8.8,0.6-13.2,0.9-13.2,0.9
		c0.6,10.5,0.9,15.8,0.9,15.8c-1.2,8.3-1.8,12.5-1.8,12.5C498.2,104.9,502.9,105.4,510.8,105.1"/>
	<path class="st2" d="M505.4,98c0,0,0.7-7.5,2.1-22.6c-4.5-0.3-6.8-0.1-7.1,0.6c0.8,14.3,1.2,21.5,1.2,21.5
		C502.7,98.3,504.1,98.4,505.4,98"/>
	<path class="st25" d="M485.9,67.7c0.1,3.3-1.2,3.5-4.2,3.5c0,0-3.3-0.1-9.8-0.4c-2.1-0.1-2.6-1.3-3.2-7.2c-2-19.5-3.2-31-3.5-34.5
		c0,0-0.3-4.1,0.5-23.2c13.8-22.6,20.4-12.6,19.6,30C485.4,51.8,485.5,62.4,485.9,67.7"/>
	<path class="st25" d="M498.1,76.6c-2.3,0-2.7-1-3.4-3.3c-3.1-12.1-6.2-18.4-7.6-25.8l-7.5-49.1c13.1,1.9,22.9,5.4,28.6,10.5
		L506.3,39c-0.4,5.9,0.8,8.9,5.6,31.9c1.1,4.8,0.2,5.9-3.7,5.8C503.6,76.5,500.3,76.5,498.1,76.6"/>
	<path class="st25" d="M472.4-4.1c5,4.9,11.7,7.7,18.7,8C488.4-15.4,482.2-18,472.4-4.1"/>
	<path class="st25" d="M471.3-62.1l-4.9,37.5C464.6-13.1,463-2,461.6,8.8c0,0,1.1,0,3.3,0c3.5-2,9.4-8.6,17.7-19.7
		c-0.4,3,3.1,11.5,10.4,25.4c8.5-0.8,16.2-5,21.1-11.5c0,0-2.3-6.7-6.9-20.2c-0.7-3.9-6.2-6.4-16.4-7.3h14.7l3.5-28.6
		c1.5-2.4,3.3-5.1,5.1-8.1c-3.1-1.4-7.6-3-13.6-4.8l-3.8,9.2L471.3-62.1z"/>
	<polygon class="st3" points="482.3,-62.9 469.7,-61.7 471.3,-65 484,-66.2 	"/>
	<path class="st4" d="M450.1-49.9c0,0,3.9-3.4,13.7-8.9c17.9-8,13,0.7,8.6,12.3c-8.1,6.1-14.2,10.2-17.4,10.4
		C454.8-38.4,453.4-43.7,450.1-49.9"/>
	<path class="st3" d="M465.8-58.1c0,0,0,0.4-0.1,1.3c-4.9,2.7-7.3,4-7.3,4c-1.5-2-2.2-3.1-2.2-3.1c2.4-1.3,3.5-2,3.5-2
		S461.7-57.9,465.8-58.1"/>
	<path class="st3" d="M447.6-50.2c7.1-6,9.7-0.5,9.8,9.7c-0.1,2.6-0.8,4.2-1.9,4.8c-2.7,1.4-4,2.2-4,2.2c-2,1-3.5,1.1-4.5,0.5
		C447-33.1,447-38.7,447.6-50.2"/>
	<path class="st5" d="M441.7-29.9c-2.4,0.2-4.7-1.9-4.3-6.4l1.9-23.5l7.6-3.5c0.1,0.3,0.4,0.5,0.7,0.5h0.2l2.2,21.7
		C450.8-34.2,448-30.5,441.7-29.9"/>
	<path class="st6" d="M446.6-64.5c1.4,1.1,1.8,2.2,1.3,3.2c-1.5,2.3-3.5,3-6,2.3C441.8-59,443.4-60.9,446.6-64.5"/>
	<path class="st7" d="M496.7-65c0,0-1.8-2.4-1.5-16.1c-10.5,3.2-14.4,10.6-14.4,10.6c1.5,4.9,0.5,8.7,0.5,8.7c2,2.6,5.5,3.9,8.8,3.2
		C493.5-59.3,496.1-61.8,496.7-65"/>
	<path class="st3" d="M486.3-24.5h-1.4v-27.8h1.4V-24.5z M496-69.9c1.8,1.2,2.8,2.2,4.7,3.4c-1.6,9-3.8,13.9-8.2,14.3
		c0,0-1.5-2.4-4.4-7.1C492-60.6,494.6-64.1,496-69.9z"/>
	<path class="st8" d="M471.1-80.5c1.2,11.4,2.5,18.1,4.1,20c0.7-0.1,1.3-0.6,1.7-1.3c-1.4-1-2.7-7.4-3.8-19.3
		C473.1-81.1,472.4-80.9,471.1-80.5"/>
	<path class="st9" d="M472.5-84.9c-1.4-0.9-3.8,0.1-7.1,2.8c0.9,0.8,3.7,1.9,8.4,3.2C473.8-78.9,473.4-80.9,472.5-84.9"/>
	<path class="st6" d="M493.3-71.1c1.3-3.9,1.5-4.7,0.2-8.6c0.3-3.6-0.9-7-3.2-9.6c-0.4,0.7-1.1,1.2-1.9,1.5
		c-0.4,0.1-0.7,0.3-1.1,0.4c-0.3,0.1-0.7,0.1-1,0.2l-0.6,0c-0.4,0-0.8,0.1-1.1,0.1h-0.1l-0.1,0c-0.4,0.1-0.7,0.2-1.1,0.2l0.2,0
		l-0.2,0.1c-0.3,0.1-0.6,0.2-0.9,0.2c-0.2,0-0.3,0.1-0.5,0.1c-0.3,0.1-0.6,0.1-0.9,0.2l0.2,0l-0.5,0.2c-0.3,0.1-0.7,0.2-1,0.2
		l-0.2,0l-0.1,0c-0.3,0.1-0.5,0.2-0.8,0.3c-0.3,0.1-0.7,0.2-1,0.2l-0.7,0.1l-0.8,0.1c-0.3,0-0.6,0-0.9,0l-0.6,0l-0.5,0
		c-0.3,0.1-0.7,0.2-1,0.2c-0.6,0.2-1.1,0.2-1.7,0.1c-0.4,2.9,0,4.8,1.4,5.7c1.9,1.3,2.2,2.4,2.1,4.3c-0.1,2.1,0.3,3.7,1.3,4.8
		c3.2,3.7,4.2,5.5,4.8,7.1c0.6,1.8,5,1.4,8.1-1.6C490.6-66.2,492.2-68.5,493.3-71.1"/>
	<path class="st10" d="M484.5-97.7L484.5-97.7L484.5-97.7L484.5-97.7z M489.8-85c-2.3-0.6-3.4-1.5-2.9-2.6c0.4-0.9,0.3-1.9-0.2-2.7
		l0.5,0c0.2,0,0.4,0,0.5,0l0,0l0.5,0.1c0.2,0,0.4,0.1,0.5,0.1c0.2,0.1,0.4,0.1,0.6,0.1c0.1,0,0.2,0.1,0.3,0.1
		c0.4,0.2,0.8,0.4,1.2,0.5l0.1,0c0.5,0.3,1.1,0.4,1.6,0.4c0.3,0.1,0.6,0.2,0.9,0.3c0.3,0.1,0.5,0.2,0.8,0.2c0.3,3,0.2,6.6-0.2,10.8
		c-0.3,1.6-2.5-0.4-2.6-2.3C491.4-83.2,491.2-84.5,489.8-85z"/>
	<path class="st6" d="M496.4-79.2c-0.1,0.5-0.4,0.8-0.8,1c-0.4,0.2-0.9,0.1-1.3-0.2c-2.3-2.1-2.7-5.6-0.9-8.2
		c0.6-0.9,1.7-1.4,2.8-1.3c1.1,0.1,2,0.8,2.5,1.8c0.4,1,0.4,2.2-0.4,3C497.2-82,496.6-80.7,496.4-79.2"/>
	<path class="st11" d="M498.1-83.3c3.7,12.3,4.9,19.9,3.7,22.7c-0.9,0.2-1.9,0-2.8-0.5c1.5-1.7,0.2-8.9-3.8-21.7
		C495.1-82.9,496.1-83.1,498.1-83.3"/>
	<path class="st25" d="M484.3-83.8c0,0,1.9-0.3,5.6-1c0.6-0.7,4.3-0.1,11.4,1.9c0,0-0.3-2.1-0.8-6.4c-1.3-8.5-3.9-11.5-9.3-14.2
		s-11.9-2.3-16.9,1.1c-5,3.4-7.9,9.2-7.5,15.2c0.1,1.5-0.5,2.8-1.6,3.9C472.8-83.9,479.2-84.1,484.3-83.8"/>
	<path class="st13" d="M489.7-85.1c0,0,3.7,0.9,11.2,2.7c-0.8,0.9-1.3,1.2-2,1.1c-7.6-1.6-11.4-2.3-11.4-2.3S488.2-84.2,489.7-85.1"
		/>
	<path class="st14" d="M502-83.3c-3.4-1-6.9-1.9-10.4-2.7c-0.7-0.1-1.4-0.3-2.6,0.2c-7.7-0.9-15.5-0.6-23.3,1
		c-0.2,0-0.3,0.2-0.3,0.4c0,0.2,0.2,0.3,0.4,0.3c7-1.3,14.3-1.7,21.9-1c-2.1,1-1.7,0.5-6.4,0.6c-5.9,0-11.3,0.4-16.1,1.4
		c-0.5,0.3-0.6,1-0.3,1.5c4.1-1,9.6-1.5,16.5-1.3c5,0.1,4.5,0.5,7.8-1.1c0.5-0.3,1.1-0.4,2-0.2c6.3,1.1,9.9,2.2,9.9,2.2
		C501.7-82.3,502-82.6,502-83.3"/>
	<polygon class="st15" points="497.2,-90.8 499.1,-90.6 497.4,-89.8 497.8,-88 496.5,-89.4 494.9,-88.4 495.8,-90.1 494.4,-91.3 
		496.2,-91 497,-92.7 	"/>
	<rect x="442.5" y="-70.2" class="st16" width="11.1" height="5.8"/>
	<path class="st17" d="M472.7-72.8c0.2,0,0.4,0.2,0.4,0.4v1h0.3c0.3,0,0.6,0.3,0.6,0.6v2c0,0.3-0.3,0.6-0.6,0.6h-9.3
		c-0.3,0-0.6-0.3-0.6-0.6v-2c0-0.3,0.3-0.6,0.6-0.6h6.7v-1c0-0.2,0.2-0.4,0.4-0.4H472.7"/>
	<path class="st18" d="M474.3-65.9c0,0,8.4,3.3,25.2,9.9c0.5,0.2,0.6,0.7,0.2,1.6c-2.1,5.2-3.2,7.8-3.2,7.8
		c-0.5,1.3-1.2,1.5-3.2,0.3c-15.1-9.5-22.6-14.3-22.6-14.3c-1.7-1-2.8-2.9-2.9-4.9C467.9-65.5,470-65.7,474.3-65.9"/>
	<path class="st19" d="M454.6-71.7c0.4,0,0.7,0.4,0.7,0.8v1.3c0,0.4-0.3,0.8-0.7,0.8h-0.9l0.7,5.9h19.8v1.6c0,1.3-0.5,1.4-2.5,1.3
		h-2.5v3.7h-13.9l1.1,9c0.1,0.4-0.2,0.8-0.7,0.8h-4.2c-0.4,0-0.8-0.3-0.8-0.8L448-68.8h-37.5c0,0,0,0,0,0h-5.2
		c-0.8,0-1.5-0.7-1.5-1.5c0-0.8,0.7-1.5,1.5-1.5h5.2h1.6v-3.4c0-0.4,0.3-0.7,0.6-0.7c0.4,0,0.6,0.3,0.6,0.7v3.4h2.5H454.6"/>
	<path class="st16" d="M475.9-70.2c0.8,0,1.5,0.7,1.5,1.5v5.2c0,0.8-0.7,1.5-1.5,1.5H455c-0.8,0-1.5-0.7-1.5-1.5v-5.2
		c0-0.8,0.7-1.5,1.5-1.5H475.9"/>
	<path class="st20" d="M484.3-49.1C460.5-34,446-33,427.8-63.4c0,0-2,0.2-4.1,0.2c19.5,32.8,36.4,33,61.8,15.5
		C485.6-47.7,485.4-48.2,484.3-49.1"/>
	<path class="st18" d="M446-68.9c0.4,0,0.7,0.3,0.7,0.7v5.2c0,0.4-0.3,0.7-0.7,0.7h-28.7c-0.4,0-0.7-0.3-0.7-0.7v-5.2
		c0-0.4,0.3-0.7,0.7-0.7H446"/>
	<path class="st4" d="M517.6-37.9c0,0,1-6.4,3-19.3c0.5-3.4-3.1-6.3-6.6-7c-3.6-0.7-7.8,0.8-8.7,4c-3.3,10-5,14.9-5,14.9
		S506-42.8,517.6-37.9"/>
	<path class="st3" d="M498.7-45.4c1.5-3.6,2.5-3.2,5.3-2.7c4.6,0.9,8.8,3.1,12.1,6.4c1.9,1.9,2.9,3.9,0.5,7.2
		c-3.3,4.6-7,8.5-10.5,5.5C507.4-31.8,507.9-38.4,498.7-45.4"/>
	<path class="st21" d="M444.7-60.6c0,0,0.3-1.1,0.8-3.4c0.2-1.7-1-4.2-3.7-5.4c-3.1-1.5-7-1.4-7.7,1c-1,3.6-0.9,5.7,0.9,6.7
		C440.4-58.6,444.1-58.1,444.7-60.6"/>
	<polygon class="st3" points="513.9,-62.2 501.5,-64.3 504.9,-66.9 517.3,-64.8 	"/>
	<path class="st22" d="M504.7-26.9c0.8,0,1.4,0.7,1.3,1.5l-0.4,3.8c-0.1,0.8-0.8,1.5-1.6,1.5h-36.9c-0.8,0-1.4-0.7-1.3-1.5l0.4-3.8
		c0.1-0.8,0.8-1.5,1.6-1.5H504.7"/>
	<path class="st6" d="M467.8-47.9c0,0,2.1-0.4,6.4-1.2c0,0,0.6,0.4,1.8,1.3c0,0,13.3,9.3,24.6,16.9c5.9,3.8,7.7,3.1,10.4-0.1
		s3.1-9.3-0.6-11.1c-20.2-9.5-30.3-14.2-30.3-14.2c-5.2-2.3-9.4-3.5-9.4-3.5c-1.3-0.4-3.3-0.8-5.3-0.4c-5.3,1.4-6.5,1.7-7.3,2
		c-0.6,0.2-0.5,1.2-0.3,1.8c0.2,0.6,0.6,1.5,1.2,1.3c3.6-0.9,5.4-1.4,5.4-1.4c1.1-0.3,1.2,0,0.4,0.6c-2,1.4-3.4,1.9-2.2,4
		C464.3-48.7,465.9-47.5,467.8-47.9"/>
	<path class="st23" d="M481.1,93c0.4,0,0.7,0.3,0.7,0.7v1.9c0,0.4-0.3,0.7-0.7,0.7h-29c-0.4,0-0.7-0.3-0.7-0.7v-1.9
		c0-0.4,0.3-0.7,0.7-0.7H481.1"/>
	<path class="st24" d="M507.3,80.6c0.3,0,0.5,0.2,0.5,0.5l0,0c0,0.3-0.2,0.5-0.5,0.5l-7.4-0.3c-0.3,0-0.5-0.2-0.5-0.5l0,0
		c0-0.3,0.2-0.5,0.5-0.5L507.3,80.6"/>
	<path class="st24" d="M507,82.7c0.3,0,0.5,0.2,0.5,0.5l0,0c0,0.3-0.2,0.5-0.5,0.5l-6.9-0.3c-0.3,0-0.5-0.2-0.5-0.5l0,0
		c0-0.3,0.2-0.5,0.5-0.5L507,82.7"/>
	<path class="st24" d="M506.7,84.7c0.3,0,0.5,0.2,0.5,0.5l0,0c0,0.3-0.2,0.5-0.5,0.5l-6.3-0.3c-0.3,0-0.5-0.2-0.5-0.5l0,0
		c0-0.3,0.2-0.5,0.5-0.5L506.7,84.7"/>
	<path class="st24" d="M506.3,86.6c0.3,0,0.5,0.2,0.5,0.5l0,0c0,0.3-0.2,0.5-0.5,0.5l-5.7-0.2c-0.3,0-0.5-0.2-0.5-0.5l0,0
		c0-0.3,0.2-0.5,0.5-0.5L506.3,86.6"/>
	<path class="st24" d="M506,88.6c0.3,0,0.5,0.2,0.5,0.5l0,0c0,0.3-0.2,0.5-0.5,0.5l-5-0.2c-0.3,0-0.5-0.2-0.5-0.5l0,0
		c0-0.3,0.2-0.5,0.5-0.5L506,88.6"/>
	<path class="st24" d="M505.7,90.5c0.3,0,0.5,0.2,0.5,0.5l0,0c0,0.3-0.2,0.5-0.5,0.5l-4.6-0.2c-0.3,0-0.5-0.2-0.5-0.5l0,0
		c0-0.3,0.2-0.5,0.5-0.5L505.7,90.5"/>
	<path class="st24" d="M505.4,92.3c0.3,0,0.5,0.2,0.5,0.5l0,0c0,0.3-0.2,0.5-0.5,0.5l-4-0.2c-0.3,0-0.5-0.2-0.5-0.5l0,0
		c0-0.3,0.2-0.5,0.5-0.5L505.4,92.3"/>
	<path class="st24" d="M505,94.2c0.3,0,0.5,0.2,0.5,0.5l0,0c0,0.3-0.2,0.5-0.5,0.5l-3.3-0.1c-0.3,0-0.5-0.2-0.5-0.5l0,0
		c0-0.3,0.2-0.5,0.5-0.5L505,94.2"/>
	<path class="st24" d="M504.9,96.1c0.3,0,0.5,0.2,0.5,0.5l0,0c0,0.3-0.2,0.5-0.5,0.5l-3-0.1c-0.3,0-0.5-0.2-0.5-0.5l0,0
		c0-0.3,0.2-0.5,0.5-0.5L504.9,96.1"/>
	<path class="st24" d="M473.8,73.2c0.3,0,0.5,0.3,0.5,0.5l0,0c0,0.3-0.2,0.5-0.5,0.4l-3-0.2c-0.3,0-0.5-0.3-0.5-0.5l0,0
		c0-0.3,0.2-0.5,0.5-0.4L473.8,73.2"/>
	<path class="st24" d="M473.7,74.9c0.3,0,0.5,0.3,0.5,0.5l0,0c0,0.3-0.2,0.5-0.5,0.4l-3-0.2c-0.3,0-0.5-0.3-0.5-0.5l0,0
		c0-0.3,0.2-0.5,0.5-0.4L473.7,74.9"/>
	<path class="st24" d="M473.9,76.6c0.3,0,0.5,0.3,0.5,0.5l0,0c0,0.3-0.2,0.5-0.5,0.4l-3-0.2c-0.3,0-0.5-0.3-0.5-0.5l0,0
		c0-0.3,0.2-0.5,0.5-0.4L473.9,76.6"/>
	<path class="st24" d="M473.8,78.4c0.3,0,0.5,0.3,0.5,0.5l0,0c0,0.3-0.2,0.5-0.5,0.4l-3-0.2c-0.3,0-0.5-0.3-0.5-0.5l0,0
		c0-0.3,0.2-0.5,0.5-0.4L473.8,78.4"/>
	<path class="st24" d="M473.9,80.2c0.3,0,0.5,0.3,0.5,0.5l0,0c0,0.3-0.2,0.5-0.5,0.4l-3-0.2c-0.3,0-0.5-0.3-0.5-0.5l0,0
		c0-0.3,0.2-0.5,0.5-0.4L473.9,80.2"/>
	<path class="st24" d="M473.8,82c0.3,0,0.5,0.3,0.5,0.5l0,0c0,0.3-0.2,0.5-0.5,0.4l-3-0.2c-0.3,0-0.5-0.3-0.5-0.5l0,0
		c0-0.3,0.2-0.5,0.5-0.4L473.8,82"/>
	<path class="st24" d="M472.5,85c0.2,0.2,0.2,0.5,0,0.7l0,0c-0.2,0.2-0.5,0.2-0.7,0l-2.1-2.1c-0.2-0.2-0.2-0.5,0-0.7l0,0
		c0.2-0.2,0.5-0.2,0.7,0L472.5,85"/>
	<path class="st24" d="M470.8,85.9c0.2,0.2,0.2,0.5,0,0.7l0,0c-0.2,0.2-0.5,0.2-0.7,0l-2.1-2.1c-0.2-0.2-0.2-0.5,0-0.7l0,0
		c0.2-0.2,0.5-0.2,0.7,0L470.8,85.9"/>
	<path class="st24" d="M469.2,86.9c0.2,0.2,0.2,0.5,0,0.7l0,0c-0.2,0.2-0.5,0.2-0.7,0l-2.1-2.1c-0.2-0.2-0.2-0.5,0-0.7l0,0
		c0.2-0.2,0.5-0.2,0.7,0L469.2,86.9"/>
	<path class="st24" d="M467.4,88.1c0.2,0.2,0.2,0.5,0,0.7l0,0c-0.2,0.2-0.5,0.2-0.7,0l-2.1-2.1c-0.2-0.2-0.2-0.5,0-0.7l0,0
		c0.2-0.2,0.5-0.2,0.7,0L467.4,88.1"/>
</g>
</svg>
