<?xml version="1.0" encoding="utf-8"?>
<!-- Generator: Adobe Illustrator 23.0.2, SVG Export Plug-In . SVG Version: 6.00 Build 0)  -->
<svg version="1.1" id="Layer_1" xmlns="http://www.w3.org/2000/svg" xmlns:xlink="http://www.w3.org/1999/xlink" x="0px" y="0px"
	 viewBox="0 0 675 1200" style="enable-background:new 0 0 675 1200;" xml:space="preserve">
<style type="text/css">
	.st0{fill-rule:evenodd;clip-rule:evenodd;fill:#EAD7B9;}
	.st1{fill-rule:evenodd;clip-rule:evenodd;fill:#354053;}
	.st2{fill-rule:evenodd;clip-rule:evenodd;fill:#D2DCEA;}
	.st3{fill-rule:evenodd;clip-rule:evenodd;fill:url(#SVGID_1_);}
	.st4{fill:#B18462;}
	.st5{fill-rule:evenodd;clip-rule:evenodd;fill:#FDFEFF;}
	.st6{fill-rule:evenodd;clip-rule:evenodd;}
	.st7{fill-rule:evenodd;clip-rule:evenodd;fill:#362A33;}
	.st8{fill-rule:evenodd;clip-rule:evenodd;fill:#3B70B7;}
	.st9{fill-rule:evenodd;clip-rule:evenodd;fill:#D3C2A9;}
	.st10{fill-rule:evenodd;clip-rule:evenodd;fill:#8B8B8B;}
</style>
<path class="st0" d="M207.6,639.62l5.62,12.69c5.83,1.07,11,3.19,16.06,5.47l11.29,7.48l10.73,1.63c0.32,5.57-3.74,7.27-8.36,8.37
	l-12.33-4.45l-1.59,3.84l3.39,14.28l2.72,18.19l-0.87,8.35c-1.47,1.86-3.75,2.06-4.86,1.97l-6.57-19.98l-1.6,0.33l6.44,24.85
	l-4.13,1.01l-6.78-1.36l-4.39-7.4l-4-0.4l-13.49-21.91l-6.27-15.4l0.34-8.34l-6.42-17.05L207.6,639.62z"/>
<g>
	<polygon class="st1" points="352.4,691.61 494.72,761.07 479.39,912.06 341.78,815.56 	"/>
	<path class="st1" d="M520.82,904.93c0.96-37.14,0.63-142.93,0.63-142.93c-10.33,0.28-20.41,1.28-30.22,4.62
		c0,0-10.25,109.01-12.29,145.44C488.15,913.37,517.2,908.6,520.82,904.93z"/>
	<polygon class="st1" points="352.04,691.52 485.95,767.73 521.44,762.05 379.82,689.03 	"/>
	<path class="st1" d="M454.26,685.29l9.75-3.64c13.23,5.41,15.42,27.94,11.58,58.69l-18.71,3.68
		C465.35,700.48,459.25,695.72,454.26,685.29z"/>
	<path class="st1" d="M415.55,673.1c0.16-0.85-0.34-1.3-6.72,2.02c-12.12,6.3-13.44,17.4-14.85,36.16l15.74-5.13
		c0.61-14.61,1.07-19.23,5.48-21.5l-0.01-2.8C415.33,679.34,415.27,674.58,415.55,673.1z"/>
</g>
<polygon class="st0" points="423.86,629.74 422.42,656.07 415.03,668.18 414.93,695.24 432.1,701.88 437.05,708.51 449.58,709.68 
	458.28,694.1 454.4,685.29 464.57,681.28 465.61,673.56 454.32,654.94 453.1,632.34 "/>
<polygon class="st2" points="458.84,637.77 458.57,646.75 423.97,646.84 424.06,637.59 "/>
<linearGradient id="SVGID_1_" gradientUnits="userSpaceOnUse" x1="424.3776" y1="688.9984" x2="436.942" y2="662.5143">
	<stop  offset="0" style="stop-color:#F5A56D"/>
	<stop  offset="1" style="stop-color:#F5C377"/>
</linearGradient>
<path class="st3" d="M424.06,698.78l0.85-20.02c-0.67,1.91-1.71,5.47-1.89,10.13C422.85,693.38,423.56,696.86,424.06,698.78z"/>
<path class="st4" d="M423.48,698.92c-0.82-3.16-1.19-6.64-1.06-10.06c0.14-3.53,0.8-7.1,1.93-10.3l1.14,0.39
	c-1.09,3.1-1.73,6.54-1.86,9.96c-0.13,3.32,0.23,6.68,1.02,9.73L423.48,698.92z"/>
<path class="st5" d="M227.77,323.62c0,0,5.05-24.6,13.63-29.99c6-3.77,35.49-8.93,45.89-13.02c9.79-3.84,14.18-5.7,27.21-11.42
	c33.46,8.2,69.86,19.06,85.45,30.1c25.22,143.95,38.97,230.05,24.99,344.8L208.9,625.63C204.8,441.49,238.57,444.1,227.77,323.62z"
	/>
<path class="st6" d="M425.05,714.26c1.47-40.83,3.33-104.72,3.33-104.72l-87.53,11.33l-132.69-18.71l-0.72,4.19
	c-0.35,6.24,2.66,126.75,2.88,152.52c0.57,66.78-0.38,199.92-2.78,303.01c18.07,3.09,37.52,3.48,37.52,3.48
	s36.24-158.55,55.59-291.21c0,0,15.36-72.64,25.34-75.23c9.52,87.96,19.7,271.29,22.03,365.25c17.58-0.27,40.64-3.1,40.64-3.1
	S425.29,863.64,425.05,714.26z"/>
<path class="st6" d="M463.03,637.61l-44.87,1.85l-4.93-235.99l6.62-90.46l6.52-4.55c6.94,11.75,8.68,18.3,11.41,36.76
	c7.48,50.52,13.94,100.66,17.79,146.53C459.52,538.7,461.3,590.39,463.03,637.61z"/>
<polygon class="st7" points="165.66,1074.96 166.39,1084.69 226.39,1079.81 234.39,1075.31 237.82,1079.81 246,1079.82 
	246.96,1067.06 245.06,1063.32 207.62,1059.59 200.67,1064.08 "/>
<path class="st8" d="M329.43,313.51l18.94,10.01l-10.72,25.84l-15.28,0.16l-11.6-25.56L329.43,313.51L329.43,313.51z M314.24,566.83
	l10.6-214.76l10.59-0.11l23.69,217.64c-4.18,8.38-14.48,28.33-21.79,39.97C330.07,597.66,318.75,576.98,314.24,566.83z"/>
<path class="st6" d="M278.54,283.92c0,0,4.48,137.52,3.06,183.14c-2.44,78.82-4.87,202.51-4.87,202.51
	c-11.59,1.29-40.42-4.98-56.58-6.22c-15.36-1.18-23.95-3.54-34.82-6.38c1.86-24.04,2.37-58.68,5.06-106.79
	c4.12-73.8,6.42-89.73,9.16-135.39c2.45-40.88,5.06-109.34,5.06-109.34c13.24-6.59,34.53-13.15,52.58-17.64L278.54,283.92z"/>
<path class="st6" d="M371.16,288.92c0,0,11.54,107.55,13.09,143.43c1.54,35.69,0.66,229.31,0.66,229.31
	c9.02,0.84,45.39-2.99,54.98-6.3c1.97-56.56-7.65-230.84-13.32-346.99l-32.99-13.68L371.16,288.92z"/>
<path class="st9" d="M364.55,287.2c0,0-15.78,25.46-33.87,26.07c-19.06,0.64-43.23-31.61-43.23-31.61l1.87-45.7l69,4.83
	L364.55,287.2z"/>
<polygon class="st5" points="315.16,300.26 329.62,313.59 305.28,326.61 "/>
<polygon class="st5" points="341.88,301.17 329.22,313.7 353.21,325.81 "/>
<path class="st6" d="M247.36,299.64l2.75-16.52l24.48-10.29l13.46-2.33l-0.41,7.41l-8.22,4.99l-8.56,85.27
	c0,0-36.81-10.59-36.49-11.61C234.69,355.52,247.36,299.64,247.36,299.64z"/>
<path class="st5" d="M287.34,281.21l32.23,22.29l-21.94,40.67l-21.17-14.54c-2.19-12.7-3.78-31.01-4.86-47.07l16.06-6.66
	L287.34,281.21z"/>
<path class="st6" d="M399.42,298.44l-2.69-10.81l-18.42-11.09l-15.73-3.81l1.58,12.07l6-1.37l9.37,84.21
	c0,0,30.74-14.99,30.47-15.95C409.73,350.72,399.42,298.44,399.42,298.44z"/>
<path class="st5" d="M364.21,285.01l-25.79,19.04l23.78,40.07l19-16.87c-0.6-16.95-1.18-29.05-1.63-43.41l-16.15-5.57L364.21,285.01
	z"/>
<path class="st6" d="M223.16,480.93l6.06-84.82c-1.58-31.26-16.99-62.09-18.57-93.35c-7.35,2.94-14.84,6.31-19.89,9.2
	c-5.72,10.4-9.17,28.44-11.36,41.15c-9.69,56.39-9.78,279.36,8.01,313.79c7.42,2.93,15.25,4.78,23.47,5.68L223.16,480.93z"/>
<path class="st0" d="M285.67,182.76c-1.08,8.32-8.8,14.21-17.26,13.15c-8.46-1.04-14.45-8.62-13.39-16.94
	c1.06-8.32,8.79-14.21,17.25-13.16C280.73,166.86,286.73,174.46,285.67,182.76z"/>
<path class="st0" d="M380.52,182.87c-1.07,8.3-8.79,14.2-17.26,13.15c-8.47-1.06-14.45-8.64-13.39-16.96
	c1.07-8.31,8.79-14.2,17.26-13.16C375.58,166.96,381.58,174.55,380.52,182.87z"/>
<path class="st0" d="M370.73,201.31c2.15,33.57-8.14,41.73-6.7,56.9c-7.03,2.3-24.32,10.73-41.79,10.04
	c-17.47-0.68-35.11-10.47-42.95-11.86c-10.26-17.25-18.77-47.87-10.03-95.17c4.16-22.5,7.17-41.09,16.31-51.03
	c10.07-10.97,27.05-11.92,48.96-8.03C376.3,109.62,367.67,153.33,370.73,201.31z"/>
<path class="st6" d="M295.02,191.47c-5.9-0.72-13.72-5.43-14.9-11.86l-0.97-7.45l2.92-0.38l0.96,7.39
	c1.04,5.66,9.57,9.94,14.14,9.48l13.28-1.64c4.56-0.44,10.64-5.38,10.33-12.4l-2.59-13.77l2.89-0.54l2.63,14.06
	c0.47,9.13-7.34,14.98-12.93,15.53l-13.27,1.64C296.74,191.61,295.9,191.59,295.02,191.47z"/>
<path class="st6" d="M278.6,173.15L278.6,173.15c0.99,0.63,2.3,0.47,3.09-0.39l5.69-6.19c0.4-0.44,0.96-0.71,1.56-0.77l30.26-2.69
	c1.46-0.13,2.47-1.51,2.11-2.92l-0.33-1.28c-0.28-1.09-1.31-1.84-2.46-1.78l-33.1,1.77c-0.82,0.04-1.56,0.5-1.96,1.2l-5.65,9.92
	C277.2,171.11,277.55,172.47,278.6,173.15z"/>
<path class="st10" d="M271.81,144.02l5.42-6.62c0,0-8.08,54.11-2.23,61.38c5.85,7.29,59.24,38.7,90.18,4.13
	c3.82-15.06,2.6-43.36,2.6-43.36l4.59,2.74c0,0,10.68,38.17,8.44,65.12c-1.63,19.55-8.87,34.36-11.59,36.44
	c-13.14,10.02-35.41,21.82-45.88,18.58c-14.54-4.49-40.47-8.85-48.97-18.69c-10.39-12.01-12.94-53.06-12.82-61.78
	C261.65,193.25,271.81,144.02,271.81,144.02z"/>
<path class="st6" d="M358.1,189.55l-8.29-1.03c-3.42-0.42-13.88-1.71-14.88-10.76l-1.22-15.51l2.94-0.22l1.21,15.46
	c0.51,4.58,4.42,7.19,12.33,8.17l7.92,0.99c6.18-0.82,8.8-4.09,8.48-10.6l0-0.25l1.08-8.35l2.92,0.36l-1.06,8.24
	c0.34,8-3.43,12.54-11.24,13.49L358.1,189.55z"/>
<polygon class="st6" points="371.69,170.85 367.67,172.49 362.64,166.82 333.47,163.2 333.26,158.4 370.15,159.74 "/>
<polygon class="st6" points="280.48,165.38 265.34,167.87 264.14,171.37 281.21,171.29 "/>
<polygon class="st6" points="335.66,168.57 321.23,168.42 320.84,164.18 335.52,163.81 "/>
<polygon class="st7" points="428.39,1074.96 427.65,1084.69 367.66,1079.81 359.65,1075.31 356.22,1079.81 348.05,1079.82 
	347.08,1067.06 348.99,1063.32 386.42,1059.59 393.38,1064.08 "/>
</svg>
