<?xml version="1.0" encoding="utf-8"?>
<!-- Generator: Adobe Illustrator 23.0.1, SVG Export Plug-In . SVG Version: 6.00 Build 0)  -->
<svg version="1.1" id="Layer_1" xmlns="http://www.w3.org/2000/svg" xmlns:xlink="http://www.w3.org/1999/xlink" x="0px" y="0px"
	 viewBox="0 0 235 235" style="enable-background:new 0 0 235 235;" xml:space="preserve">
<style type="text/css">
	.st0{clip-path:url(#SVGID_2_);}
	.st1{fill-rule:evenodd;clip-rule:evenodd;fill:#EAD7B9;}
	.st2{fill-rule:evenodd;clip-rule:evenodd;fill:#354053;}
	.st3{fill-rule:evenodd;clip-rule:evenodd;fill:#D2DCEA;}
	.st4{fill-rule:evenodd;clip-rule:evenodd;fill:url(#SVGID_3_);}
	.st5{fill:#B18462;}
	.st6{fill-rule:evenodd;clip-rule:evenodd;fill:#FDFEFF;}
	.st7{fill-rule:evenodd;clip-rule:evenodd;}
	.st8{fill-rule:evenodd;clip-rule:evenodd;fill:#362A33;}
	.st9{fill-rule:evenodd;clip-rule:evenodd;fill:#3B70B7;}
	.st10{fill-rule:evenodd;clip-rule:evenodd;fill:#D3C2A9;}
	.st11{fill-rule:evenodd;clip-rule:evenodd;fill:#8B8B8B;}
</style>
<title>d11</title>
<g>
	<g id="Layer_1-2">
		<g>
			<defs>
				<rect id="SVGID_1_" x="-7.4" y="-13.6" width="234.7" height="256.2"/>
			</defs>
			<clipPath id="SVGID_2_">
				<use xlink:href="#SVGID_1_"  style="overflow:visible;"/>
			</clipPath>
			<g class="st0">
				<g>
					<path class="st1" d="M60.2,246.4l2.5,5.7c2.5,0.5,4.9,1.3,7.2,2.4l5,3.3l4.8,0.7c0.1,2.5-1.7,3.2-3.7,3.7l-5.5-2l-0.7,1.7
						l1.5,6.4l1.2,8.1l-0.4,3.7c-0.5,0.6-1.3,1-2.2,0.9l-2.9-8.9l-0.7,0.1l2.9,11.1l-1.8,0.5l-3-0.6l-2-3.3l-1.8-0.2l-6-9.8
						l-2.8-6.9l0.2-3.7l-2.9-7.6L60.2,246.4z"/>
					<g>
						<polygon class="st2" points="124.9,269.6 188.5,300.6 181.6,368.1 120.2,325 						"/>
						<path class="st2" d="M200.1,364.9c0.4-16.6,0.3-63.8,0.3-63.8c-4.6,0-9.1,0.7-13.5,2.1c0,0-4.6,48.7-5.5,65
							C185.5,368.7,198.5,366.5,200.1,364.9z"/>
						<polygon class="st2" points="124.7,269.6 184.6,303.6 200.4,301.1 137.2,268.5 						"/>
						<path class="st2" d="M170.4,266.8l4.4-1.6c5.9,2.4,6.9,12.5,5.2,26.2l-8.4,1.6C175.4,273.6,172.6,271.5,170.4,266.8z"/>
						<path class="st2" d="M153.1,261.4c0.1-0.4-0.2-0.6-3,0.9c-5.4,2.8-6,7.8-6.6,16.1l7-2.3c0.3-6.5,0.5-8.6,2.4-9.6l0-1.2
							C153,264.1,153,262,153.1,261.4z"/>
					</g>
					<polygon class="st1" points="156.8,242 156.2,253.8 152.9,259.2 152.8,271.2 160.5,274.2 162.7,277.2 168.3,277.7 172.2,270.7 
						170.5,266.8 175,265 175.5,261.6 170.4,253.2 169.9,243.2 					"/>
					<polygon class="st3" points="172.4,245.6 172.3,249.6 156.9,249.6 156.9,245.5 					"/>
					
						<linearGradient id="SVGID_3_" gradientUnits="userSpaceOnUse" x1="205.9857" y1="165.3695" x2="211.5974" y2="177.1982" gradientTransform="matrix(1 0 0 -1 -48.9318 433.8283)">
						<stop  offset="0" style="stop-color:#F5A56D"/>
						<stop  offset="1" style="stop-color:#F5C377"/>
					</linearGradient>
					<path class="st4" d="M156.9,272.8l0.4-8.9c-0.5,1.5-0.8,3-0.8,4.5C156.4,269.9,156.5,271.4,156.9,272.8z"/>
					<path class="st5" d="M156.7,272.9c-0.4-1.5-0.5-3-0.5-4.5c0.1-1.6,0.3-3.1,0.9-4.6l0.5,0.2c-0.5,1.4-0.8,2.9-0.8,4.4
						c-0.1,1.5,0.1,2.9,0.5,4.3L156.7,272.9z"/>
					<path class="st6" d="M69.2,105.3c0,0,2.3-11,6.1-13.4c2.7-1.7,15.9-4,20.5-5.8c4.4-1.7,6.3-2.5,12.2-5.1
						c14.9,3.7,31.2,8.5,38.2,13.4c11.3,64.3,17.4,102.7,11.2,154l-96.5-8.2C59,157.9,74.1,159.1,69.2,105.3z"/>
					<path class="st7" d="M157.4,279.7c0.7-18.2,1.5-46.8,1.5-46.8l-39.1,5.1l-59.3-8.4l-0.3,1.9c-0.2,2.8,1.2,56.6,1.3,68.1
						c0.3,29.8-0.2,89.3-1.2,135.3c5.5,0.9,11.1,1.4,16.8,1.6c0,0,16.2-70.8,24.8-130.1c0,0,6.9-32.4,11.3-33.6
						c4.3,39.3,8.8,121.2,9.8,163.1c7.9-0.1,18.2-1.4,18.2-1.4S157.5,346.5,157.4,279.7z"/>
					<path class="st7" d="M174.3,245.5l-20,0.8l-2.2-105.4l3-40.4l2.9-2c3.1,5.2,3.9,8.2,5.1,16.4c3.3,22.6,6.2,45,7.9,65.4
						C172.7,201.3,173.5,224.4,174.3,245.5z"/>
					<polygon class="st8" points="41.5,440.8 41.8,445.2 68.6,443 72.2,441 73.7,443 77.4,443 77.8,437.3 77,435.6 60.2,434 
						57.1,436 					"/>
					<path class="st9" d="M114.6,100.8l8.5,4.5l-4.8,11.5l-6.8,0.1l-5.2-11.4L114.6,100.8L114.6,100.8z M107.9,213.9l4.7-95.9l4.7,0
						l10.6,97.2c-1.9,3.7-6.5,12.7-9.7,17.9C114.9,227.7,109.9,218.4,107.9,213.9z"/>
					<path class="st7" d="M91.9,87.5c0,0,2,61.4,1.4,81.8c-1.1,35.2-2.2,90.4-2.2,90.4c-5.2,0.6-18.1-2.2-25.3-2.8
						c-5.3-0.4-10.5-1.4-15.6-2.8c0.8-10.7,1.1-26.2,2.3-47.7c1.8-33,2.9-40.1,4.1-60.5c1.1-18.3,2.3-48.8,2.3-48.8
						c5.9-2.9,15.4-5.9,23.5-7.9L91.9,87.5z"/>
					<path class="st7" d="M133.3,89.8c0,0,5.2,48,5.8,64.1c0.7,15.9,0.3,102.4,0.3,102.4c4,0.4,20.3-1.3,24.6-2.8
						c0.9-25.3-3.4-103.1-5.9-155l-14.7-6.1L133.3,89.8z"/>
					<path class="st10" d="M130.3,89c0,0-7,11.4-15.1,11.6c-8.5,0.3-19.3-14.1-19.3-14.1l0.8-20.4l30.8,2.2L130.3,89z"/>
					<polygon class="st6" points="108.3,94.8 114.7,100.8 103.9,106.6 					"/>
					<polygon class="st6" points="120.2,95.2 114.6,100.8 125.3,106.2 					"/>
					<path class="st7" d="M78,94.6l1.2-7.4l10.9-4.6l6-1L96,84.8l-3.7,2.2l-3.8,38.1c0,0-16.4-4.7-16.3-5.2
						C72.3,119.5,78,94.6,78,94.6z"/>
					<path class="st6" d="M95.8,86.3l14.4,10l-9.8,18.2l-9.5-6.5c-1-5.7-1.7-13.8-2.2-21l7.2-3L95.8,86.3z"/>
					<path class="st7" d="M145.9,94l-1.2-4.8l-8.2-5l-7-1.7l0.7,5.4l2.7-0.6l4.2,37.6c0,0,13.7-6.7,13.6-7.1
						C150.5,117.4,145.9,94,145.9,94z"/>
					<path class="st6" d="M130.2,88l-11.5,8.5l10.6,17.9l8.5-7.5c-0.3-7.6-0.5-13-0.7-19.4l-7.2-2.5L130.2,88z"/>
					<path class="st7" d="M67.2,175.5l2.7-37.9c-0.7-14-7.6-27.7-8.3-41.7c-3,1.2-6,2.6-8.9,4.1c-2.6,4.6-4.1,12.7-5.1,18.4
						c-4.3,25.2-4.4,124.8,3.6,140.2c3.4,1.3,6.9,2.2,10.5,2.5L67.2,175.5z"/>
					<path class="st1" d="M95.1,42.4c-0.5,3.7-4,6.4-7.7,5.9c-3.7-0.4-6.4-3.8-6-7.5c0,0,0,0,0,0c0.5-3.8,4-6.4,7.8-5.9
						C92.9,35.3,95.5,38.7,95.1,42.4L95.1,42.4z"/>
					<path class="st1" d="M137.5,42.4c-0.5,3.7-4,6.4-7.7,5.9c-3.7-0.4-6.4-3.8-6-7.5c0,0,0,0,0,0c0.5-3.7,4-6.4,7.7-5.9
						C135.2,35.3,137.9,38.6,137.5,42.4C137.5,42.4,137.5,42.4,137.5,42.4z"/>
					<path class="st1" d="M133.1,50.6c1,15-3.6,18.6-3,25.4c-3.1,1-10.9,4.8-18.7,4.5c-7.8-0.3-15.7-4.7-19.2-5.3
						c-4.6-7.7-8.4-21.4-4.5-42.5c1.9-10,3.2-18.4,7.3-22.8c4.5-4.9,12.1-5.3,21.9-3.6C135.6,9.7,131.7,29.2,133.1,50.6z"/>
					<path class="st7" d="M99.3,46.2c-2.6-0.3-6.1-2.4-6.7-5.3l-0.4-3.3l1.3-0.2l0.4,3.3c0.5,2.5,4.3,4.4,6.3,4.2l5.9-0.7
						c2.7-0.4,4.7-2.8,4.6-5.5l-1.2-6.1l1.3-0.2l1.2,6.3c0.1,3.4-2.4,6.4-5.8,6.9l-5.9,0.7C100,46.3,99.6,46.3,99.3,46.2z"/>
					<path class="st7" d="M91.9,38.1L91.9,38.1c0.4,0.3,1,0.2,1.4-0.2l2.5-2.8c0.2-0.2,0.4-0.3,0.7-0.3l13.5-1.2c0.6,0,1-0.6,1-1.1
						c0-0.1,0-0.1,0-0.2l-0.1-0.6c-0.1-0.5-0.6-0.8-1.1-0.8L95,31.7c-0.4,0-0.7,0.2-0.9,0.5l-2.5,4.4C91.3,37.2,91.5,37.8,91.9,38.1
						z"/>
					<path class="st11" d="M88.9,25.1l2.4-3c0,0-3.6,24.2-1,27.4c2.6,3.3,26.5,17.3,40.3,1.8c1.7-6.7,1.2-19.4,1.2-19.4l2,1.2
						c0,0,4.8,17,3.8,29.1c-0.7,8.7-4,15.3-5.2,16.3c-5.9,4.5-15.8,9.7-20.5,8.3c-6.5-2-18.1-4-21.9-8.3c-4.6-5.4-5.8-23.7-5.7-27.6
						C84.4,47,88.9,25.1,88.9,25.1z"/>
					<path class="st7" d="M127.5,45.4l-3.7-0.5c-1.5-0.2-6.2-0.8-6.6-4.8l-0.5-6.9l1.3-0.1l0.5,6.9c0.2,2,2,3.2,5.5,3.6l3.5,0.4
						c2.8-0.4,3.9-1.8,3.8-4.7l0-0.1l0.5-3.7l1.3,0.2l-0.5,3.7C132.7,42.9,131,45,127.5,45.4L127.5,45.4z"/>
					<polygon class="st7" points="133.5,37 131.7,37.8 129.5,35.2 116.4,33.6 116.4,31.5 132.8,32.1 					"/>
					<polygon class="st7" points="92.8,34.6 86,35.7 85.5,37.3 93.1,37.2 					"/>
					<polygon class="st7" points="117.4,36 111,36 110.8,34.1 117.4,33.9 					"/>
					<polygon class="st8" points="158.8,440.8 158.5,445.2 131.7,443 128.1,441 126.6,443 123,443 122.5,437.3 123.4,435.6 
						140.1,434 143.2,436 					"/>
				</g>
			</g>
		</g>
	</g>
</g>
</svg>
