<?xml version="1.0" encoding="utf-8"?>
<!-- Generator: Adobe Illustrator 23.0.2, SVG Export Plug-In . SVG Version: 6.00 Build 0)  -->
<svg version="1.1" id="Layer_1" xmlns="http://www.w3.org/2000/svg" xmlns:xlink="http://www.w3.org/1999/xlink" x="0px" y="0px"
	 viewBox="0 0 1577.85 1200" style="enable-background:new 0 0 1577.85 1200;" xml:space="preserve">
<style type="text/css">
	.st0{opacity:0.3;fill:#FFFFFF;}
	.st1{fill:#E38B25;}
	.st2{fill:#354053;}
	.st3{fill:#3B70B7;}
	.st4{fill:#9498A1;}
	.st5{fill:#5E636D;}
	.st6{fill:#C9CBCF;}
	.st7{fill:#797D88;}
	.st8{fill:#56C9F4;}
</style>
<polygon class="st0" points="975.13,678.76 979.6,681.21 975.13,683.66 972.68,688.13 970.23,683.66 965.76,681.21 970.23,678.76 
	972.68,674.28 "/>
<path class="st1" d="M492.88,843.89c134.22-109.3,143.1-142.76,156.14-180.12l-75.54-75.66c-26.51-15.35-129.4,12.96-164.12,69.88
	c7.2-0.81,28.08,2.6,35.24,1.84c-16.85,4.53-205.34,271.19-237.32,311.99c45.65-22.16,271.14-151.85,293.09-172.1
	C498.08,810.41,488.99,829.19,492.88,843.89z"/>
<path class="st2" d="M639.31,463.46l71.12-58.13c0,0-196.6-170.41-256.94,42.75C453.54,447.97,537.71,332.34,639.31,463.46z"/>
<path class="st2" d="M616.65,481.99l22.66-18.52c-101.6-131.12-185.78-15.49-185.82-15.38l-0.02-0.01
	C453.46,448.07,559.62,352.81,616.65,481.99z"/>
<path class="st2" d="M776.97,631.94l71.15-58.15c0,0,127.82,226.64-93.06,243.33C755.16,817.06,885.24,757.62,776.97,631.94z"/>
<path class="st2" d="M754.32,650.44l22.65-18.5c108.28,125.68-21.81,185.12-21.91,185.18l-0.02-0.01
	C755.04,817.11,869.55,732.08,754.32,650.44z"/>
<path d="M596.11,520.41c-15.22,19.18-31.9,42.96-33.46,56.59c0,0,3.23,37.43,30.66,64.32c20.88,32.25,56.94,42.85,56.94,42.85
	c13.82,1.21,40.97-10.74,62.97-21.95c-26.87-12.79-50.32-38.53-69.31-61.46C624.71,577.62,603.45,549.46,596.11,520.41z"/>
<path class="st2" d="M831.55,628.59c2.29-1.47,4.59-2.97,6.91-4.52c-16.55,3.41-31.45,3.12-45.04,0.08
	c-38.04-8.52-65.95-38.69-92.17-70.76c-26.21-32.08-50.22-65.44-50.99-104.44c-0.26-12.89,2.04-26.38,7.62-40.64
	c-3.07,3.13-6,6.25-8.85,9.34c1.37-4.41,3-8.89,4.96-13.46c-35.93,36.12-60.2,70-60.57,94.7c-0.13,7.18,0.88,14.38,2.69,21.52
	c7.36,29.05,28.6,57.21,47.8,80.36c19.01,22.94,42.44,48.67,69.31,61.49c6.96,3.31,14.16,5.77,21.57,7.09
	c24.61,4.27,63.06-13.59,105.83-42.59C837.53,627.5,834.52,628.08,831.55,628.59z"/>
<path class="st2" d="M596.37,655.79c-42.52,34.75-94.03,61.37-94.03,61.37s35.27-46.52,77.77-81.27
	c42.53-34.75,69.35-72.24,84.34-53.91C681.08,602.31,638.9,621.04,596.37,655.79z"/>
<path class="st3" d="M1126.98,354.81c20.26-41.7,64.32-128.91,68.45-167.99l0.01,0.01c8.05-45.29-37.97-46.45-37.97-46.45h-0.01
	c-39.11-3.77-133.37,22.07-178.27,33.63c-73,18.75-157.98,61.11-232.99,122.42c-75,61.29-101.41,109.97-102.32,151.62
	c-0.91,41.59,23.72,76.19,50.76,109.28c27.05,33.1,56.04,64.11,97.01,71.52c41,7.41,93.94-8.8,168.94-70.06
	C1035.6,497.48,1094.04,422.61,1126.98,354.81z"/>
<path class="st3" d="M803.43,619.8c-40.99-7.38-69.96-38.41-97.02-71.51c-27.06-33.11-51.66-67.67-50.76-109.3
	c0.9-40.58,25.99-87.82,96.65-146.94c-1.97,1.6-3.9,3.13-5.83,4.72c-74.98,61.28-101.41,109.97-102.31,151.58
	c-0.91,41.63,23.72,76.19,50.77,109.3c27.05,33.11,56.03,64.13,97,71.53c40.99,7.4,93.94-8.78,168.95-70.08
	c1.92-1.57,3.82-3.16,5.73-4.76C894.65,611.82,843.32,627.02,803.43,619.8z"/>
<g>
	<g>
		<path class="st4" d="M1142.84,255.88c1.17-2.5,0.13-5.09-2.28-5.8c-2.45-0.72-5.33,0.72-6.47,3.23c-0.79,1.68-0.58,3.39,0.38,4.56
			c0.48,0.57,1.13,1,1.92,1.23C1138.79,259.82,1141.7,258.38,1142.84,255.88z"/>
	</g>
	<path class="st5" d="M1142.84,255.88c0.27-0.55,0.4-1.12,0.45-1.68c-0.06,0.25-0.14,0.48-0.25,0.71c-1.16,2.53-4.04,3.98-6.49,3.26
		c-1.87-0.55-2.92-2.23-2.75-4.12c-0.66,2.25,0.4,4.42,2.58,5.06C1138.79,259.82,1141.7,258.38,1142.84,255.88L1142.84,255.88z"/>
	<path class="st6" d="M1137.29,251.21c-1.05,0.87-1.24,2.4-0.41,3.4c0.83,1.03,2.36,1.12,3.4,0.29c1.08-0.87,1.26-2.39,0.43-3.44
		C1139.89,250.47,1138.35,250.34,1137.29,251.21z"/>
</g>
<g>
	<g>
		<path class="st4" d="M1052.96,329.34c1.14-2.47,0.11-5.08-2.31-5.79c-2.43-0.71-5.33,0.75-6.46,3.22
			c-0.79,1.67-0.58,3.39,0.38,4.54c0.47,0.61,1.12,1.02,1.91,1.26C1048.91,333.27,1051.79,331.83,1052.96,329.34z"/>
	</g>
	<path class="st5" d="M1052.96,329.34c0.26-0.56,0.41-1.12,0.44-1.68c-0.07,0.25-0.17,0.49-0.28,0.74c-1.15,2.5-4.05,3.94-6.47,3.23
		c-1.87-0.55-2.91-2.23-2.76-4.12c-0.67,2.25,0.4,4.41,2.58,5.05C1048.91,333.27,1051.79,331.83,1052.96,329.34L1052.96,329.34z"/>
	<path class="st6" d="M1047.38,324.68c-1.03,0.86-1.23,2.39-0.41,3.42c0.83,1.01,2.38,1.12,3.42,0.24c1.07-0.87,1.28-2.39,0.44-3.39
		C1049.99,323.92,1048.45,323.84,1047.38,324.68z"/>
</g>
<g>
	<g>
		<path class="st4" d="M747.71,468.9c1.17-2.52,0.12-5.12-2.28-5.82c-2.44-0.72-5.36,0.74-6.5,3.25c-0.75,1.66-0.54,3.38,0.41,4.55
			c0.47,0.57,1.13,1.04,1.9,1.23C743.67,472.83,746.57,471.37,747.71,468.9z"/>
	</g>
	<path class="st5" d="M747.71,468.9c0.28-0.58,0.41-1.16,0.46-1.72c-0.08,0.27-0.16,0.52-0.27,0.75c-1.15,2.5-4.06,3.95-6.47,3.23
		c-1.88-0.55-2.92-2.23-2.76-4.12c-0.66,2.26,0.39,4.44,2.57,5.06C743.67,472.83,746.57,471.37,747.71,468.9L747.71,468.9z"/>
	<path class="st6" d="M742.17,464.22c-1.06,0.86-1.23,2.37-0.43,3.4c0.84,0.99,2.35,1.13,3.42,0.26c1.06-0.87,1.24-2.38,0.4-3.38
		C744.74,463.48,743.21,463.36,742.17,464.22z"/>
</g>
<g>
	<g>
		<path class="st4" d="M762.24,486.64c1.13-2.47,0.12-5.09-2.31-5.8c-2.44-0.71-5.32,0.75-6.46,3.23c-0.78,1.68-0.56,3.4,0.38,4.55
			c0.47,0.58,1.12,1.04,1.91,1.25C758.17,490.6,761.08,489.14,762.24,486.64z"/>
	</g>
	<path class="st5" d="M762.24,486.64c0.25-0.58,0.39-1.12,0.45-1.69c-0.08,0.25-0.18,0.49-0.28,0.74c-1.15,2.5-4.04,3.94-6.48,3.23
		c-1.87-0.54-2.91-2.22-2.75-4.11c-0.67,2.25,0.39,4.44,2.57,5.06C758.17,490.6,761.08,489.14,762.24,486.64L762.24,486.64z"/>
	<path class="st6" d="M756.66,481.99c-1.06,0.86-1.24,2.37-0.4,3.4c0.81,0.99,2.35,1.12,3.4,0.26c1.06-0.86,1.23-2.38,0.41-3.4
		C759.26,481.25,757.73,481.13,756.66,481.99z"/>
</g>
<g>
	<g>
		<path class="st4" d="M776.76,504.4c1.15-2.49,0.1-5.09-2.32-5.8c-2.42-0.71-5.32,0.72-6.46,3.22c-0.78,1.67-0.57,3.38,0.39,4.56
			c0.46,0.59,1.1,1.01,1.9,1.25C772.7,508.35,775.59,506.91,776.76,504.4z"/>
	</g>
	<path class="st5" d="M776.76,504.4c0.25-0.57,0.4-1.14,0.44-1.68c-0.08,0.24-0.16,0.48-0.26,0.73c-1.16,2.48-4.05,3.95-6.49,3.22
		c-1.86-0.53-2.92-2.21-2.74-4.11c-0.66,2.25,0.4,4.43,2.57,5.07C772.7,508.35,775.59,506.91,776.76,504.4L776.76,504.4z"/>
	<path class="st6" d="M771.19,499.74c-1.07,0.88-1.26,2.4-0.41,3.38c0.82,1.03,2.34,1.14,3.39,0.29c1.06-0.87,1.25-2.39,0.42-3.4
		C773.76,499,772.24,498.88,771.19,499.74z"/>
</g>
<g>
	<g>
		<path class="st4" d="M791.26,522.16c1.14-2.5,0.11-5.09-2.31-5.78c-2.42-0.73-5.3,0.7-6.47,3.2c-0.76,1.67-0.56,3.41,0.39,4.58
			c0.47,0.56,1.1,1,1.91,1.22C787.21,526.1,790.11,524.66,791.26,522.16z"/>
	</g>
	<path class="st5" d="M791.26,522.16c0.24-0.56,0.4-1.15,0.45-1.68c-0.07,0.26-0.17,0.51-0.28,0.75c-1.16,2.5-4.04,3.94-6.46,3.22
		c-1.87-0.55-2.92-2.24-2.74-4.11c-0.67,2.24,0.39,4.4,2.56,5.04C787.21,526.1,790.11,524.66,791.26,522.16L791.26,522.16z"/>
	<path class="st6" d="M785.71,517.49c-1.06,0.87-1.25,2.4-0.43,3.4c0.83,1.01,2.35,1.15,3.42,0.27c1.06-0.87,1.25-2.4,0.4-3.39
		C788.28,516.74,786.75,516.65,785.71,517.49z"/>
</g>
<g>
	<g>
		<path class="st4" d="M890.25,287.52c1.14-2.47,0.12-5.04-2.29-5.79c-2.44-0.68-5.33,0.74-6.48,3.22c-0.79,1.71-0.58,3.42,0.37,4.6
			c0.48,0.58,1.12,1,1.94,1.24C886.2,291.47,889.08,290.06,890.25,287.52z"/>
	</g>
	<path class="st5" d="M890.25,287.52c0.24-0.53,0.4-1.09,0.46-1.67c-0.08,0.24-0.18,0.49-0.28,0.74c-1.14,2.51-4.05,3.96-6.47,3.25
		c-1.87-0.56-2.92-2.24-2.75-4.15c-0.66,2.26,0.4,4.45,2.59,5.09C886.2,291.47,889.08,290.06,890.25,287.52L890.25,287.52z"/>
	<path class="st6" d="M884.69,282.9c-1.05,0.86-1.23,2.35-0.41,3.38c0.83,1.01,2.35,1.14,3.4,0.27c1.07-0.85,1.25-2.4,0.44-3.4
		C887.28,282.12,885.74,282.02,884.69,282.9z"/>
</g>
<path class="st2" d="M1200.98,181.43h0.02c7.74-43.48-36.43-44.58-36.43-44.58l0.01,0.01c-37.54-3.61-128,21.18-171.08,32.24
	c0,0,157.16,16.58,141.81,173.55C1154.74,302.66,1197.04,218.93,1200.98,181.43z"/>
<g>
	<g>
		<path class="st4" d="M1045.46,373.19c1.14-2.46,0.11-5.06-2.32-5.77c-2.42-0.72-5.31,0.7-6.46,3.21c-0.8,1.68-0.57,3.4,0.38,4.56
			c0.48,0.57,1.12,1,1.93,1.23C1041.42,377.13,1044.29,375.71,1045.46,373.19z"/>
	</g>
	<path class="st5" d="M1045.46,373.19c0.25-0.55,0.39-1.1,0.44-1.68c-0.06,0.25-0.16,0.5-0.28,0.75c-1.15,2.51-4.04,3.92-6.45,3.23
		c-1.88-0.56-2.92-2.25-2.76-4.13c-0.65,2.26,0.39,4.42,2.59,5.06C1041.42,377.13,1044.29,375.71,1045.46,373.19L1045.46,373.19z"/>
	<path class="st6" d="M1039.86,368.56c-1.03,0.84-1.21,2.36-0.38,3.39c0.82,0.99,2.35,1.13,3.41,0.26c1.05-0.85,1.25-2.39,0.42-3.39
		C1042.48,367.8,1040.94,367.68,1039.86,368.56z"/>
</g>
<g>
	<g>
		<path class="st4" d="M1024.41,390.39c1.15-2.48,0.12-5.09-2.29-5.8c-2.44-0.71-5.33,0.74-6.48,3.22
			c-0.77,1.67-0.56,3.42,0.39,4.58c0.46,0.56,1.12,1.01,1.91,1.25C1020.36,394.35,1023.26,392.89,1024.41,390.39z"/>
	</g>
	<path class="st5" d="M1024.41,390.39c0.26-0.55,0.41-1.13,0.45-1.68c-0.07,0.25-0.15,0.49-0.27,0.73
		c-1.15,2.52-4.05,3.95-6.48,3.24c-1.87-0.55-2.91-2.24-2.76-4.13c-0.67,2.26,0.4,4.45,2.57,5.08
		C1020.36,394.35,1023.26,392.89,1024.41,390.39L1024.41,390.39z"/>
	<path class="st6" d="M1018.85,385.72c-1.07,0.87-1.26,2.39-0.42,3.43c0.83,1,2.34,1.12,3.41,0.25c1.06-0.87,1.25-2.39,0.41-3.39
		C1021.43,384.98,1019.9,384.87,1018.85,385.72z"/>
</g>
<g>
	<g>
		<path class="st4" d="M1003.36,407.59c1.15-2.48,0.12-5.09-2.29-5.79c-2.44-0.72-5.33,0.71-6.47,3.22
			c-0.77,1.67-0.58,3.39,0.39,4.57c0.45,0.57,1.12,1,1.89,1.25C999.32,411.55,1002.21,410.09,1003.36,407.59z"/>
	</g>
	<path class="st5" d="M1003.36,407.59c0.26-0.55,0.42-1.14,0.45-1.7c-0.06,0.28-0.17,0.52-0.26,0.77c-1.15,2.51-4.07,3.93-6.49,3.22
		c-1.88-0.54-2.91-2.23-2.75-4.12c-0.65,2.22,0.4,4.43,2.57,5.07C999.32,411.55,1002.21,410.09,1003.36,407.59L1003.36,407.59z"/>
	<path class="st6" d="M997.81,402.91c-1.08,0.88-1.24,2.4-0.44,3.43c0.85,0.99,2.37,1.13,3.42,0.25c1.06-0.87,1.26-2.39,0.45-3.4
		C1000.4,402.19,998.86,402.06,997.81,402.91z"/>
</g>
<g>
	<g>
		<path class="st4" d="M982.32,424.78c1.15-2.49,0.14-5.08-2.3-5.8c-2.42-0.72-5.31,0.73-6.46,3.23c-0.76,1.66-0.55,3.38,0.39,4.55
			c0.45,0.59,1.12,1.01,1.93,1.25C978.28,428.73,981.17,427.28,982.32,424.78z"/>
	</g>
	<path class="st5" d="M982.32,424.78c0.26-0.56,0.41-1.13,0.46-1.68c-0.06,0.23-0.17,0.48-0.27,0.73c-1.15,2.5-4.05,3.96-6.49,3.25
		c-1.87-0.55-2.91-2.24-2.75-4.13c-0.66,2.25,0.4,4.42,2.59,5.06C978.28,428.73,981.17,427.28,982.32,424.78L982.32,424.78z"/>
	<path class="st6" d="M976.76,420.12c-1.05,0.89-1.22,2.4-0.4,3.39c0.81,1.03,2.34,1.16,3.4,0.28c1.06-0.87,1.25-2.39,0.42-3.38
		C979.36,419.38,977.84,419.25,976.76,420.12z"/>
</g>
<g>
	<g>
		<path class="st4" d="M961.28,441.99c1.15-2.5,0.12-5.08-2.3-5.8c-2.43-0.71-5.32,0.71-6.47,3.22c-0.78,1.68-0.56,3.38,0.39,4.55
			c0.45,0.59,1.12,1.01,1.91,1.25C957.24,445.93,960.13,444.49,961.28,441.99z"/>
	</g>
	<path class="st5" d="M961.28,441.99c0.27-0.58,0.42-1.15,0.45-1.7c-0.04,0.25-0.15,0.49-0.27,0.74c-1.14,2.5-4.04,3.94-6.46,3.23
		c-1.88-0.55-2.92-2.21-2.77-4.1c-0.66,2.25,0.39,4.42,2.58,5.06C957.24,445.93,960.13,444.49,961.28,441.99L961.28,441.99z"/>
	<path class="st6" d="M955.73,437.31c-1.06,0.85-1.24,2.4-0.43,3.39c0.83,1.04,2.39,1.13,3.43,0.28c1.07-0.85,1.23-2.38,0.42-3.4
		C958.32,436.58,956.77,436.44,955.73,437.31z"/>
</g>
<g>
	<g>
		<path class="st4" d="M959.08,257.56c1.15-2.51,0.11-5.09-2.3-5.81c-2.43-0.71-5.32,0.72-6.47,3.22c-0.78,1.68-0.56,3.38,0.39,4.55
			c0.46,0.59,1.12,1.01,1.92,1.25C955.04,261.5,957.92,260.05,959.08,257.56z"/>
	</g>
	<path class="st5" d="M959.08,257.56c0.27-0.58,0.41-1.15,0.45-1.71c-0.05,0.25-0.15,0.49-0.27,0.75c-1.14,2.5-4.04,3.94-6.46,3.23
		c-1.88-0.55-2.93-2.22-2.77-4.1c-0.65,2.25,0.4,4.42,2.59,5.06C955.04,261.5,957.92,260.05,959.08,257.56L959.08,257.56z"/>
	<path class="st6" d="M953.53,252.88c-1.06,0.85-1.25,2.4-0.43,3.38c0.83,1.04,2.39,1.13,3.43,0.28c1.07-0.85,1.23-2.37,0.42-3.4
		C956.11,252.14,954.57,252.01,953.53,252.88z"/>
</g>
<g>
	<g>
		<path class="st4" d="M938.03,274.74c1.16-2.49,0.13-5.1-2.3-5.8c-2.42-0.73-5.3,0.71-6.47,3.23c-0.77,1.66-0.56,3.37,0.4,4.54
			c0.46,0.57,1.12,1.03,1.91,1.24C934,278.68,936.9,277.23,938.03,274.74z"/>
	</g>
	<path class="st5" d="M938.03,274.74c0.27-0.57,0.42-1.13,0.46-1.7c-0.06,0.26-0.15,0.49-0.25,0.73c-1.17,2.5-4.07,3.97-6.49,3.24
		c-1.87-0.55-2.91-2.23-2.75-4.11c-0.66,2.26,0.38,4.4,2.56,5.05C934,278.68,936.9,277.23,938.03,274.74L938.03,274.74z"/>
	<path class="st6" d="M932.48,270.08c-1.04,0.88-1.23,2.38-0.4,3.39c0.82,1.03,2.36,1.12,3.4,0.29c1.07-0.88,1.26-2.39,0.42-3.41
		C935.07,269.34,933.55,269.21,932.48,270.08z"/>
</g>
<g>
	<g>
		<path class="st4" d="M904.2,411.45c-2.46-1.14-5.06-0.11-5.78,2.31c-0.72,2.42,0.7,5.31,3.2,6.46c1.68,0.79,3.4,0.57,4.57-0.38
			c0.57-0.49,0.99-1.12,1.22-1.92C908.14,415.48,906.72,412.61,904.2,411.45z"/>
	</g>
	<path class="st5" d="M904.2,411.45c-0.55-0.25-1.1-0.39-1.68-0.44c0.25,0.07,0.49,0.17,0.75,0.28c2.5,1.15,3.92,4.05,3.22,6.46
		c-0.55,1.87-2.24,2.92-4.13,2.76c2.26,0.65,4.42-0.39,5.06-2.58C908.14,415.48,906.72,412.61,904.2,411.45L904.2,411.45z"/>
	<path class="st6" d="M899.57,417.04c0.84,1.03,2.35,1.21,3.39,0.38c0.99-0.82,1.13-2.35,0.26-3.42c-0.86-1.04-2.4-1.24-3.38-0.41
		C898.81,414.42,898.69,415.97,899.57,417.04z"/>
</g>
<g>
	<g>
		<path class="st4" d="M921.4,432.5c-2.47-1.15-5.09-0.12-5.8,2.29c-0.71,2.44,0.74,5.33,3.22,6.48c1.67,0.77,3.42,0.56,4.57-0.38
			c0.56-0.47,1.01-1.12,1.25-1.91C925.36,436.54,923.9,433.65,921.4,432.5z"/>
	</g>
	<path class="st5" d="M921.4,432.5c-0.55-0.26-1.13-0.42-1.67-0.46c0.25,0.08,0.49,0.15,0.73,0.27c2.52,1.15,3.95,4.06,3.24,6.48
		c-0.55,1.87-2.23,2.91-4.12,2.75c2.25,0.67,4.45-0.39,5.08-2.56C925.36,436.54,923.9,433.65,921.4,432.5L921.4,432.5z"/>
	<path class="st6" d="M916.74,438.05c0.87,1.06,2.39,1.25,3.42,0.42c0.99-0.84,1.12-2.34,0.25-3.42c-0.87-1.06-2.39-1.25-3.39-0.41
		C916,435.47,915.89,437,916.74,438.05z"/>
</g>
<g>
	<path class="st5" d="M1055.41,385.63c19.87-54.85-8.87-117.13-64.11-139.03c-55.24-21.86-116.09,4.84-135.91,59.76
		c-13.28,36.85-4.74,76.95,19.01,106.02c11.63,14.23,26.96,25.81,45.15,33.04C974.79,467.31,1035.63,440.53,1055.41,385.63z
		 M877.07,314.93c15.5-42.98,63.17-63.98,106.46-46.83c14.25,5.64,26.22,14.74,35.35,25.9c18.59,22.75,25.31,54.21,14.89,83.05
		c-15.54,43.01-63.18,63.98-106.47,46.81C884,406.76,861.53,357.95,877.07,314.93z"/>
</g>
<path class="st7" d="M866.73,310.84c17.57-48.65,71.51-72.37,120.46-52.94c49,19.4,74.47,74.59,56.88,123.24
	c-17.53,48.7-71.49,72.38-120.47,52.98c-16.12-6.38-29.72-16.64-40.04-29.32C862.53,379.05,854.96,343.49,866.73,310.84
	L866.73,310.84z M983.16,269.16c-42.72-16.93-89.75,3.74-105.03,46.19c-15.37,42.42,6.83,90.6,49.56,107.49
	c42.68,16.92,89.71-3.75,105.04-46.2c10.3-28.45,3.66-59.5-14.69-81.95C1009.05,283.69,997.21,274.72,983.16,269.16L983.16,269.16z"
	/>
<g>
	<path class="st8" d="M1032.72,376.64c15.34-42.42-6.89-90.57-49.56-107.48c-42.72-16.93-89.75,3.74-105.03,46.19
		c-10.31,28.46-3.69,59.5,14.64,81.94c9.02,11.03,20.87,20,34.92,25.55C970.37,439.76,1017.4,419.09,1032.72,376.64z"/>
</g>
<path class="st8" d="M1032.72,376.64c3.5-9.59,5-19.54,4.83-29.31c-0.78,4.27-1.94,8.51-3.44,12.73
	c-15.34,42.41-62.35,63.12-105.05,46.19c-33.03-13.06-53.77-44.82-54.4-78.19c-7.28,38.96,14.52,79.55,53.03,94.79
	C970.37,439.77,1017.4,419.09,1032.72,376.64L1032.72,376.64z"/>
<g>
	<path class="st5" d="M853.07,495.79c11.47-31.68-5.13-67.67-37.04-80.32c-31.91-12.63-67.06,2.8-78.51,34.52
		c-7.67,21.28-2.74,44.45,10.98,61.24c6.72,8.23,15.57,14.91,26.08,19.09C806.49,542.98,841.64,527.51,853.07,495.79z
		 M750.04,454.96c8.96-24.84,36.49-36.96,61.5-27.06c8.23,3.26,15.15,8.51,20.42,14.97c10.74,13.14,14.62,31.32,8.6,47.98
		c-8.98,24.84-36.51,36.96-61.51,27.04C754.04,508,741.06,479.8,750.04,454.96z"/>
</g>
<path class="st7" d="M744.06,452.59c10.15-28.1,41.31-41.8,69.59-30.58c28.31,11.2,43.02,43.08,32.86,71.19
	c-10.13,28.13-41.3,41.81-69.6,30.61c-9.31-3.69-17.17-9.62-23.13-16.94C741.64,492,737.27,471.45,744.06,452.59L744.06,452.59z
	 M811.32,428.51c-24.67-9.78-51.85,2.16-60.68,26.69c-8.88,24.51,3.95,52.34,28.64,62.09c24.65,9.77,51.82-2.17,60.67-26.69
	c5.95-16.44,2.12-34.37-8.49-47.34C826.28,436.91,819.44,431.72,811.32,428.51L811.32,428.51z"/>
<g>
	<path class="st8" d="M839.96,490.61c8.86-24.51-3.98-52.33-28.63-62.09c-24.67-9.78-51.85,2.16-60.68,26.69
		c-5.95,16.43-2.13,34.37,8.46,47.33c5.21,6.37,12.06,11.55,20.17,14.76C803.94,527.07,831.1,515.13,839.96,490.61z"/>
</g>
<path class="st8" d="M839.96,490.61c2.02-5.54,2.9-11.29,2.79-16.94c-0.45,2.47-1.12,4.92-1.99,7.36
	c-8.86,24.5-36.02,36.46-60.69,26.68c-19.07-7.54-31.06-25.89-31.42-45.17c-4.21,22.5,8.39,45.95,30.64,54.76
	C803.93,527.07,831.1,515.13,839.96,490.61L839.96,490.61z"/>
</svg>
