<?xml version="1.0" encoding="utf-8"?>
<!-- Generator: Adobe Illustrator 23.0.1, SVG Export Plug-In . SVG Version: 6.00 Build 0)  -->
<svg version="1.1" id="Layer_1" xmlns="http://www.w3.org/2000/svg" xmlns:xlink="http://www.w3.org/1999/xlink" x="0px" y="0px"
	 viewBox="0 0 500 476.5" style="enable-background:new 0 0 500 476.5;" xml:space="preserve">
<style type="text/css">
	.st0{fill:#9498A1;}
	.st1{fill:#5E636D;}
	.st2{fill:#C9CBCF;}
	.st3{opacity:0.3;fill:#FFFFFF;enable-background:new    ;}
	.st4{fill:#E38B25;}
	.st5{fill:#354053;}
	.st6{fill:#3B70B7;}
	.st7{fill:#797D88;}
	.st8{fill:#56C9F4;}
</style>
<g>
	<g>
		<path class="st0" d="M603.9-163.1c1.2-2.5,0.1-5.1-2.3-5.8c-2.4-0.7-5.3,0.7-6.5,3.2c-0.8,1.7-0.6,3.4,0.4,4.6
			c0.5,0.6,1.1,1,1.9,1.2C599.9-159.2,602.8-160.6,603.9-163.1z"/>
	</g>
	<path class="st1" d="M603.9-163.1c0.3-0.6,0.4-1.1,0.4-1.7c-0.1,0.3-0.1,0.5-0.3,0.7c-1.2,2.5-4,4-6.5,3.3
		c-1.9-0.5-2.9-2.2-2.8-4.1c-0.7,2.3,0.4,4.4,2.6,5.1C599.9-159.2,602.8-160.6,603.9-163.1L603.9-163.1z"/>
	<path class="st2" d="M598.4-167.8c-1.1,0.9-1.2,2.4-0.4,3.4c0.8,1,2.4,1.1,3.4,0.3c1.1-0.9,1.3-2.4,0.4-3.4
		C601-168.5,599.4-168.7,598.4-167.8z"/>
</g>
<g>
	<g>
		<path class="st0" d="M420.2-161.4c1.2-2.5,0.1-5.1-2.3-5.8c-2.4-0.7-5.3,0.7-6.5,3.2c-0.8,1.7-0.6,3.4,0.4,4.5
			c0.5,0.6,1.1,1,1.9,1.3C416.1-157.5,419-159,420.2-161.4z"/>
	</g>
	<path class="st1" d="M420.2-161.4c0.3-0.6,0.4-1.1,0.5-1.7c0,0.2-0.2,0.5-0.3,0.7c-1.1,2.5-4,3.9-6.5,3.2c-1.9-0.5-2.9-2.2-2.8-4.1
		c-0.7,2.3,0.4,4.4,2.6,5.1C416.1-157.5,419-159,420.2-161.4L420.2-161.4z"/>
	<path class="st2" d="M414.6-166.1c-1.1,0.9-1.3,2.4-0.4,3.4c0.8,1,2.4,1.1,3.4,0.3c1.1-0.9,1.2-2.4,0.4-3.4
		C417.2-166.9,415.6-167,414.6-166.1z"/>
</g>
<g>
	<polygon class="st3" points="368.9,332.1 370.8,333.2 368.9,334.3 367.7,336.4 366.7,334.3 364.7,333.2 366.7,332 367.8,330 	"/>
	<path class="st4" d="M155.1,406.2c59.9-50,64-65.5,69.9-82.7L192,288c-11.6-7.3-57.2,5.3-72.8,31.6c3.2-0.3,12.4,1.3,15.6,1
		c-7.5,2-92.1,124.7-106.5,143.5c20.3-10,120.5-69,130.3-78.3C157.5,390.7,153.4,399.4,155.1,406.2z"/>
	<path class="st5" d="M221.8,230.5l31.7-26.6c0,0-85.9-80-113.7,18.5C139.8,222.4,177.6,169.2,221.8,230.5z"/>
	<path class="st5" d="M211.6,239l10.1-8.5c-44.2-61.3-81.9-8.1-82-8.1l0,0C139.8,222.4,187.2,178.8,211.6,239z"/>
	<path class="st5" d="M281.6,309.3l31.7-26.6c0,0,55.2,105.8-42.4,112.4C271,395.1,328.8,368.2,281.6,309.3z"/>
	<path class="st5" d="M271.5,317.8l10.1-8.5c47.1,58.8-10.6,85.7-10.7,85.8l0,0C271,395.1,322,356.3,271.5,317.8z"/>
	<path d="M202.4,256.7c-6.8,8.8-14.3,19.8-15.1,26.1c0,0,1.2,17.4,13.2,30c9,15.1,24.9,20.2,24.9,20.2c6.1,0.6,18.1-4.8,27.9-9.9
		c-11.8-6.1-22-18.1-30.3-28.9C214.7,283.4,205.5,270.2,202.4,256.7z"/>
	<path class="st5" d="M305.8,308.1c1-0.7,2-1.4,3.1-2.1c-7.3,1.5-13.9,1.3-19.9-0.2c-16.8-4.1-28.9-18.3-40.3-33.3
		c-11.4-15-21.8-30.6-22-48.7c0-6,1-12.2,3.6-18.8c-1.4,1.4-2.7,2.9-4,4.3c0.6-2,1.4-4.1,2.3-6.2c-16.1,16.6-27,32.2-27.3,43.6
		c-0.1,3.3,0.3,6.7,1.1,10c3.1,13.5,12.3,26.7,20.7,37.5c8.3,10.7,18.5,22.8,30.3,28.9c3.1,1.6,6.2,2.7,9.5,3.4
		c10.8,2.1,27.9-6,47-19.2C308.4,307.6,307.1,307.9,305.8,308.1z"/>
	<path class="st5" d="M201.8,319.5c-19,15.9-41.8,28-41.8,28s15.8-21.4,34.8-37.3c19-15.9,31-33.1,37.5-24.6
		C239.5,295.1,220.7,303.6,201.8,319.5z"/>
	<path class="st6" d="M437.7,182.6c9.2-19.2,29.1-59.5,31.1-77.6l0,0c3.8-21-16.5-21.7-16.5-21.7l0,0c-17.2-1.9-59,9.6-78.9,14.7
		c-32.3,8.3-70.1,27.5-103.5,55.6c-33.4,28-45.4,50.5-46,69.8c-0.6,19.3,10.1,35.5,21.8,50.9c11.8,15.5,24.4,30,42.5,33.7
		c18.1,3.6,41.5-3.6,75-31.6C396.6,248.3,422.8,213.9,437.7,182.6z"/>
	<path class="st6" d="M293.4,303.9c-18.1-3.6-30.7-18.2-42.5-33.7c-11.8-15.5-22.4-31.6-21.8-51c0.6-18.8,11.9-40.6,43.5-67.7
		c-0.9,0.7-1.7,1.4-2.6,2.2c-33.4,28-45.4,50.5-46,69.8c-0.6,19.3,10.1,35.5,21.8,51c11.8,15.5,24.4,30,42.4,33.7
		c18.1,3.6,41.5-3.6,75-31.6c0.9-0.7,1.7-1.4,2.6-2.2C333.7,300.6,311,307.4,293.4,303.9z"/>
	<g>
		<g>
			<path class="st0" d="M405.1,170.4c0.5-1.1,0.1-2.4-1-2.7c-1.1-0.3-2.4,0.3-2.9,1.5c-0.4,0.8-0.3,1.6,0.1,2.1
				c0.2,0.3,0.5,0.5,0.8,0.6C403.3,172.2,404.6,171.6,405.1,170.4z"/>
		</g>
		<path class="st1" d="M405.1,170.4c0.1-0.3,0.2-0.5,0.2-0.8c0,0.1-0.1,0.2-0.1,0.3c-0.5,1.2-1.8,1.8-2.9,1.5
			c-0.8-0.3-1.3-1-1.2-1.9c-0.3,1,0.2,2,1.1,2.4C403.3,172.2,404.6,171.6,405.1,170.4L405.1,170.4z"/>
		<path class="st2" d="M402.7,168.2c-0.5,0.4-0.6,1.1-0.2,1.6c0.4,0.5,1,0.5,1.5,0.1c0.5-0.4,0.6-1.1,0.2-1.6
			C403.8,167.9,403.2,167.8,402.7,168.2z"/>
	</g>
	<g>
		<g>
			<path class="st0" d="M269.6,233.6c0.5-1.2,0.1-2.4-1-2.7c-1.1-0.3-2.4,0.3-2.9,1.5c-0.3,0.8-0.3,1.6,0.2,2.1
				c0.2,0.3,0.5,0.5,0.8,0.6C267.8,235.4,269.1,234.7,269.6,233.6z"/>
		</g>
		<path class="st1" d="M269.6,233.6c0.1-0.3,0.2-0.5,0.2-0.8c0,0.1-0.1,0.2-0.1,0.3c-0.5,1.2-1.8,1.8-2.9,1.5
			c-0.8-0.3-1.3-1-1.2-1.9c-0.3,1,0.1,2.1,1.1,2.4C267.8,235.4,269.1,234.7,269.6,233.6L269.6,233.6z"/>
		<path class="st2" d="M267.2,231.4c-0.5,0.4-0.6,1.1-0.2,1.6c0.4,0.5,1,0.5,1.5,0.1c0.5-0.4,0.6-1.1,0.2-1.6
			C268.3,231.1,267.6,231,267.2,231.4z"/>
	</g>
	<g>
		<g>
			<path class="st0" d="M275.9,241.9c0.5-1.1,0.1-2.4-1-2.7c-1.1-0.3-2.4,0.3-2.9,1.5c-0.4,0.8-0.3,1.6,0.1,2.1
				c0.2,0.3,0.5,0.5,0.8,0.6C274.1,243.7,275.4,243,275.9,241.9z"/>
		</g>
		<path class="st1" d="M275.9,241.9c0.1-0.3,0.2-0.5,0.2-0.8c0,0.1-0.1,0.2-0.1,0.3c-0.5,1.2-1.8,1.8-2.9,1.5
			c-0.8-0.3-1.3-1-1.2-1.9c-0.3,1,0.1,2.1,1.1,2.4C274.1,243.7,275.4,243,275.9,241.9L275.9,241.9z"/>
		<path class="st2" d="M273.5,239.7c-0.5,0.4-0.6,1.1-0.2,1.6c0.4,0.5,1,0.5,1.5,0.1c0.5-0.4,0.6-1.1,0.2-1.6
			C274.6,239.4,273.9,239.3,273.5,239.7z"/>
	</g>
	<g>
		<g>
			<path class="st0" d="M282.2,250.2c0.5-1.1,0.1-2.4-1-2.7c-1.1-0.3-2.4,0.3-2.9,1.5c-0.4,0.8-0.3,1.6,0.1,2.1
				c0.2,0.3,0.5,0.5,0.8,0.6C280.4,252,281.7,251.4,282.2,250.2z"/>
		</g>
		<path class="st1" d="M282.2,250.2c0.1-0.3,0.2-0.5,0.2-0.8c0,0.1-0.1,0.2-0.1,0.3c-0.5,1.1-1.8,1.8-2.9,1.5
			c-0.8-0.3-1.3-1-1.2-1.9c-0.3,1,0.2,2.1,1.1,2.4C280.4,252,281.7,251.4,282.2,250.2L282.2,250.2z"/>
		<path class="st2" d="M279.8,248c-0.5,0.4-0.6,1.1-0.2,1.6c0.4,0.5,1,0.5,1.5,0.2c0.5-0.4,0.6-1.1,0.2-1.6
			C280.9,247.7,280.3,247.6,279.8,248z"/>
	</g>
	<g>
		<g>
			<path class="st0" d="M288.5,258.5c0.5-1.2,0.1-2.4-1-2.7c-1.1-0.4-2.3,0.3-2.9,1.5c-0.3,0.8-0.3,1.6,0.1,2.1
				c0.2,0.3,0.5,0.5,0.8,0.6C286.7,260.3,288,259.7,288.5,258.5z"/>
		</g>
		<path class="st1" d="M288.5,258.5c0.1-0.3,0.2-0.5,0.2-0.8c0,0.1-0.1,0.2-0.1,0.3c-0.5,1.2-1.8,1.8-2.9,1.5
			c-0.8-0.3-1.3-1.1-1.2-1.9c-0.3,1,0.1,2,1.1,2.4C286.7,260.3,288,259.7,288.5,258.5L288.5,258.5z"/>
		<path class="st2" d="M286.1,256.3c-0.5,0.4-0.6,1.1-0.2,1.6c0.4,0.5,1,0.5,1.5,0.1c0.5-0.4,0.6-1.1,0.2-1.6
			C287.2,256,286.6,255.9,286.1,256.3z"/>
	</g>
	<g>
		<g>
			<path class="st0" d="M333.5,150.2c0.5-1.1,0.1-2.3-1-2.7c-1.1-0.3-2.4,0.3-2.9,1.5c-0.4,0.8-0.3,1.6,0.1,2.1
				c0.2,0.3,0.5,0.5,0.8,0.6C331.7,152,333,151.4,333.5,150.2z"/>
		</g>
		<path class="st1" d="M333.5,150.2c0.1-0.2,0.2-0.5,0.2-0.8c0,0.1-0.1,0.2-0.1,0.3c-0.5,1.2-1.8,1.8-2.9,1.5
			c-0.8-0.3-1.3-1.1-1.2-1.9c-0.3,1,0.2,2.1,1.1,2.4C331.7,152,333,151.4,333.5,150.2L333.5,150.2z"/>
		<path class="st2" d="M331.1,148c-0.5,0.4-0.6,1.1-0.2,1.6c0.4,0.5,1,0.5,1.5,0.1c0.5-0.4,0.6-1.1,0.2-1.6
			C332.2,147.7,331.5,147.6,331.1,148z"/>
	</g>
	<path class="st5" d="M471.3,102.6L471.3,102.6c3.7-20.1-15.8-20.9-15.8-20.9l0,0c-16.6-1.9-56.6,9.2-75.7,14.1
		c0,0,69.3,8.5,61.7,81.2C450.2,158.6,469.3,119.9,471.3,102.6z"/>
	<g>
		<g>
			<path class="st0" d="M401.6,190.7c0.5-1.1,0.1-2.3-1-2.7c-1.1-0.3-2.3,0.3-2.9,1.5c-0.4,0.8-0.3,1.6,0.1,2.1
				c0.2,0.3,0.5,0.5,0.8,0.6C399.8,192.5,401,191.9,401.6,190.7z"/>
		</g>
		<path class="st1" d="M401.6,190.7c0.1-0.3,0.2-0.5,0.2-0.8c0,0.1-0.1,0.2-0.1,0.3c-0.5,1.2-1.8,1.8-2.9,1.5
			c-0.8-0.3-1.3-1.1-1.2-1.9c-0.3,1,0.1,2.1,1.1,2.4C399.8,192.5,401,191.9,401.6,190.7L401.6,190.7z"/>
		<path class="st2" d="M399.1,188.5c-0.5,0.4-0.5,1.1-0.2,1.6c0.4,0.5,1,0.5,1.5,0.1c0.5-0.4,0.6-1.1,0.2-1.6
			C400.3,188.2,399.6,188.1,399.1,188.5z"/>
	</g>
	<g>
		<g>
			<path class="st0" d="M392.2,198.6c0.5-1.1,0.1-2.4-1-2.7c-1.1-0.3-2.4,0.3-2.9,1.5c-0.3,0.8-0.3,1.6,0.1,2.1
				c0.2,0.3,0.5,0.5,0.8,0.6C390.4,200.4,391.7,199.7,392.2,198.6z"/>
		</g>
		<path class="st1" d="M392.2,198.6c0.1-0.3,0.2-0.5,0.2-0.8c0,0.1-0.1,0.2-0.1,0.3c-0.5,1.2-1.8,1.8-2.9,1.5
			c-0.8-0.3-1.3-1.1-1.2-1.9c-0.3,1,0.2,2.1,1.1,2.4C390.4,200.4,391.7,199.7,392.2,198.6L392.2,198.6z"/>
		<path class="st2" d="M389.8,196.4c-0.5,0.4-0.6,1.1-0.2,1.6c0.4,0.5,1,0.5,1.5,0.1c0.5-0.4,0.6-1.1,0.2-1.6
			C390.9,196.1,390.2,196,389.8,196.4z"/>
	</g>
	<g>
		<g>
			<path class="st0" d="M382.8,206.5c0.5-1.1,0.1-2.4-1-2.7c-1.1-0.3-2.4,0.3-2.9,1.5c-0.3,0.8-0.3,1.6,0.1,2.1
				c0.2,0.3,0.5,0.5,0.8,0.6C381,208.3,382.3,207.6,382.8,206.5z"/>
		</g>
		<path class="st1" d="M382.8,206.5c0.1-0.3,0.2-0.5,0.2-0.8c0,0.1-0.1,0.2-0.1,0.4c-0.5,1.2-1.8,1.8-2.9,1.5
			c-0.8-0.3-1.3-1-1.2-1.9c-0.3,1,0.2,2.1,1.1,2.4C381,208.3,382.3,207.6,382.8,206.5L382.8,206.5z"/>
		<path class="st2" d="M380.4,204.3c-0.5,0.4-0.6,1.1-0.2,1.6c0.4,0.5,1,0.5,1.5,0.1c0.5-0.4,0.6-1.1,0.2-1.6
			C381.5,203.9,380.8,203.9,380.4,204.3z"/>
	</g>
	<g>
		<g>
			<path class="st0" d="M373.4,214.3c0.5-1.1,0.1-2.4-1-2.7c-1.1-0.3-2.3,0.3-2.9,1.5c-0.3,0.8-0.3,1.6,0.1,2.1
				c0.2,0.3,0.5,0.5,0.8,0.6C371.6,216.1,372.9,215.5,373.4,214.3z"/>
		</g>
		<path class="st1" d="M373.4,214.3c0.1-0.3,0.2-0.5,0.2-0.8c0,0.1-0.1,0.2-0.1,0.3c-0.5,1.2-1.8,1.8-2.9,1.5
			c-0.8-0.3-1.3-1.1-1.2-1.9c-0.3,1,0.2,2.1,1.1,2.4C371.6,216.1,372.9,215.5,373.4,214.3L373.4,214.3z"/>
		<path class="st2" d="M371,212.1c-0.5,0.4-0.6,1.1-0.2,1.6c0.4,0.5,1,0.5,1.5,0.1c0.5-0.4,0.6-1.1,0.2-1.6
			C372.1,211.8,371.5,211.7,371,212.1z"/>
	</g>
	<g>
		<g>
			<path class="st0" d="M364,222.2c0.5-1.2,0.1-2.4-1-2.7c-1.1-0.3-2.4,0.3-2.9,1.5c-0.4,0.8-0.3,1.6,0.1,2.1
				c0.2,0.3,0.5,0.5,0.8,0.6C362.2,224,363.5,223.3,364,222.2z"/>
		</g>
		<path class="st1" d="M364,222.2c0.1-0.3,0.2-0.5,0.2-0.8c0,0.1-0.1,0.2-0.1,0.3c-0.5,1.2-1.8,1.8-2.9,1.5c-0.8-0.3-1.3-1-1.2-1.9
			c-0.3,1,0.1,2.1,1.1,2.4C362.2,224,363.5,223.3,364,222.2L364,222.2z"/>
		<path class="st2" d="M361.6,220c-0.5,0.4-0.6,1.1-0.2,1.6c0.4,0.5,1,0.5,1.5,0.1c0.5-0.4,0.6-1.1,0.2-1.6
			C362.8,219.7,362.1,219.6,361.6,220z"/>
	</g>
	<g>
		<g>
			<path class="st0" d="M354.7,144.5c0.5-1.1,0.1-2.4-1-2.7c-1.1-0.4-2.3,0.3-2.9,1.5c-0.3,0.8-0.3,1.6,0.2,2.1
				c0.2,0.3,0.5,0.5,0.8,0.6C352.9,146.3,354.2,145.7,354.7,144.5z"/>
		</g>
		<path class="st1" d="M354.7,144.5c0.1-0.3,0.2-0.5,0.2-0.8c0,0.1-0.1,0.2-0.1,0.3c-0.5,1.2-1.8,1.8-2.9,1.5
			c-0.8-0.3-1.3-1-1.2-1.9c-0.3,1,0.1,2,1.1,2.4C352.9,146.3,354.2,145.7,354.7,144.5L354.7,144.5z"/>
		<path class="st2" d="M352.2,142.3c-0.5,0.4-0.6,1.1-0.2,1.6c0.4,0.5,1,0.5,1.5,0.2c0.5-0.4,0.6-1.1,0.2-1.6
			C353.4,142,352.7,141.9,352.2,142.3z"/>
	</g>
	<g>
		<g>
			<path class="st0" d="M339,207.7c-1.1-0.5-2.2-0.1-2.6,1c-0.3,1.1,0.3,2.5,1.4,3c0.7,0.4,1.5,0.3,2-0.2c0.3-0.2,0.4-0.5,0.5-0.9
				C340.7,209.6,340.1,208.3,339,207.7z"/>
		</g>
		<path class="st1" d="M339,207.7c-0.2-0.1-0.5-0.2-0.7-0.2c0.1,0,0.2,0.1,0.3,0.1c1.1,0.5,1.7,1.9,1.4,3c-0.3,0.9-1,1.3-1.8,1.3
			c1,0.3,2-0.2,2.2-1.2C340.7,209.6,340.1,208.3,339,207.7L339,207.7z"/>
		<path class="st2" d="M336.9,210.3c0.4,0.5,1,0.6,1.5,0.2c0.4-0.4,0.5-1.1,0.1-1.6c-0.4-0.5-1.1-0.6-1.5-0.2
			C336.6,209.1,336.5,209.8,336.9,210.3z"/>
	</g>
	<g>
		<g>
			<path class="st0" d="M346.5,217.6c-1.1-0.5-2.2-0.1-2.6,1c-0.3,1.1,0.3,2.5,1.4,3c0.7,0.4,1.5,0.3,2-0.2c0.2-0.2,0.5-0.5,0.6-0.9
				C348.2,219.5,347.6,218.1,346.5,217.6z"/>
		</g>
		<path class="st1" d="M346.5,217.6c-0.2-0.1-0.5-0.2-0.7-0.2c0.1,0,0.2,0.1,0.3,0.1c1.1,0.5,1.7,1.9,1.4,3c-0.3,0.9-1,1.3-1.8,1.3
			c1,0.3,2-0.2,2.3-1.2C348.2,219.5,347.6,218.1,346.5,217.6L346.5,217.6z"/>
		<path class="st2" d="M344.4,220.1c0.4,0.5,1,0.6,1.5,0.2c0.4-0.4,0.5-1.1,0.1-1.6c-0.4-0.5-1-0.6-1.5-0.2
			C344.1,218.9,344,219.6,344.4,220.1z"/>
	</g>
	<g>
		<path class="st1" d="M405.9,196.5c9.1-25.3-3.3-54.4-27.6-64.8c-24.3-10.4-51.3,1.7-60.3,27c-6.1,17-2.5,35.7,7.8,49.3
			c5.1,6.7,11.8,12.1,19.8,15.6C369.9,234,396.9,221.9,405.9,196.5z M327.5,162.8c7.1-19.9,28.2-29.4,47.3-21.2
			c6.3,2.7,11.5,7,15.5,12.2c8.1,10.6,10.9,25.3,6.1,38.6c-7.1,19.9-28.2,29.3-47.3,21.2C330.1,205.5,320.4,182.7,327.5,162.8z"/>
	</g>
	<path class="st7" d="M323,160.9c8-22.5,32-33.2,53.5-23.9c21.5,9.2,32.5,35,24.5,57.4c-8,22.5-32,33.2-53.5,24
		c-7.1-3-13-7.9-17.5-13.8C320.8,192.5,317.6,176,323,160.9L323,160.9z M374.6,142.1c-18.8-8.1-39.6,1.3-46.6,20.9
		c-7,19.6,2.5,42.1,21.3,50.1c18.8,8.1,39.6-1.3,46.6-20.9c4.7-13.1,1.9-27.6-6-38.1C386,149,380.8,144.8,374.6,142.1L374.6,142.1z"
		/>
	<g>
		<path class="st8" d="M395.9,192.3c7-19.6-2.6-42-21.3-50.1c-18.8-8.1-39.6,1.3-46.6,20.9c-4.7,13.1-1.9,27.6,6,38.1
			c3.9,5.2,9.1,9.4,15.3,12C368.1,221.2,388.9,211.9,395.9,192.3z"/>
	</g>
	<path class="st8" d="M395.9,192.3c1.6-4.4,2.3-9,2.3-13.6c-0.4,2-0.9,3.9-1.6,5.9c-7,19.6-27.9,29-46.6,20.9
		c-14.5-6.2-23.5-21.1-23.6-36.5c-3.4,18,6,37,22.9,44.2C368.1,221.2,388.9,211.9,395.9,192.3L395.9,192.3z"/>
	<g>
		<path class="st1" d="M316,246.6c5.2-14.6-1.9-31.4-15.9-37.4c-14-6-29.6,1-34.9,15.6c-3.5,9.8-1.4,20.6,4.5,28.5
			c2.9,3.9,6.8,7,11.4,9C295.1,268.2,310.7,261.2,316,246.6z M270.7,227.1c4.1-11.5,16.3-17,27.3-12.2c3.6,1.6,6.6,4,8.9,7
			c4.7,6.1,6.3,14.6,3.5,22.3c-4.1,11.5-16.3,17-27.3,12.2C272.2,251.7,266.6,238.6,270.7,227.1z"/>
	</g>
	<path class="st7" d="M268.1,226c4.6-13,18.5-19.2,30.9-13.8c12.4,5.3,18.8,20.2,14.1,33.2c-4.6,13-18.5,19.2-30.9,13.8
		c-4.1-1.8-7.5-4.5-10.1-8C266.8,244.3,265,234.7,268.1,226L268.1,226z M297.9,215.2c-10.8-4.7-22.9,0.7-26.9,12.1
		c-4.1,11.3,1.5,24.3,12.3,28.9c10.8,4.7,22.9-0.7,26.9-12.1c2.7-7.6,1.1-15.9-3.5-22C304.5,219.1,301.5,216.7,297.9,215.2
		L297.9,215.2z"/>
	<g>
		<path class="st8" d="M310.2,244.1c4-11.3-1.5-24.3-12.3-28.9c-10.8-4.7-22.9,0.7-26.9,12.1c-2.7,7.6-1.1,15.9,3.5,22
			c2.3,3,5.3,5.4,8.8,6.9C294.1,260.8,306.2,255.4,310.2,244.1z"/>
	</g>
	<path class="st8" d="M310.2,244.1c0.9-2.6,1.3-5.2,1.3-7.8c-0.2,1.1-0.5,2.3-0.9,3.4c-4,11.3-16.1,16.7-26.9,12.1
		c-8.4-3.6-13.6-12.2-13.6-21.1c-2,10.4,3.5,21.4,13.2,25.6C294.1,260.8,306.2,255.4,310.2,244.1L310.2,244.1z"/>
</g>
</svg>
