<?xml version="1.0" encoding="utf-8"?>
<!-- Generator: Adobe Illustrator 23.0.1, SVG Export Plug-In . SVG Version: 6.00 Build 0)  -->
<svg version="1.1" id="Layer_1" xmlns="http://www.w3.org/2000/svg" xmlns:xlink="http://www.w3.org/1999/xlink" x="0px" y="0px"
	 viewBox="0 0 500 400" style="enable-background:new 0 0 500 400;" xml:space="preserve">
<style type="text/css">
	.st0{fill:#9498A1;}
	.st1{fill:#5E636D;}
	.st2{fill:#C9CBCF;}
	.st3{opacity:0.3;fill:#FFFFFF;enable-background:new    ;}
	.st4{fill:#E38B25;}
	.st5{fill:#354053;}
	.st6{fill:#3B70B7;}
	.st7{fill:#797D88;}
	.st8{fill:#56C9F4;}
</style>
<g>
	<g>
		<path class="st0" d="M603.9-235.4c1.2-2.5,0.1-5.1-2.3-5.8c-2.4-0.7-5.3,0.7-6.5,3.2c-0.8,1.7-0.6,3.4,0.4,4.6
			c0.5,0.6,1.1,1,1.9,1.2C599.9-231.4,602.8-232.9,603.9-235.4z"/>
	</g>
	<path class="st1" d="M603.9-235.4c0.3-0.6,0.4-1.1,0.4-1.7c-0.1,0.3-0.1,0.5-0.3,0.7c-1.2,2.5-4,4-6.5,3.3
		c-1.9-0.5-2.9-2.2-2.8-4.1c-0.7,2.3,0.4,4.4,2.6,5.1C599.9-231.4,602.8-232.9,603.9-235.4L603.9-235.4z"/>
	<path class="st2" d="M598.4-240.1c-1.1,0.9-1.2,2.4-0.4,3.4s2.4,1.1,3.4,0.3c1.1-0.9,1.3-2.4,0.4-3.4
		C601-240.8,599.4-240.9,598.4-240.1z"/>
</g>
<g>
	<g>
		<path class="st0" d="M420.2-233.6c1.2-2.5,0.1-5.1-2.3-5.8s-5.3,0.7-6.5,3.2c-0.8,1.7-0.6,3.4,0.4,4.5c0.5,0.6,1.1,1,1.9,1.3
			C416.1-229.8,419-231.3,420.2-233.6z"/>
	</g>
	<path class="st1" d="M420.2-233.6c0.3-0.6,0.4-1.1,0.5-1.7c0,0.2-0.2,0.5-0.3,0.7c-1.1,2.5-4,3.9-6.5,3.2c-1.9-0.5-2.9-2.2-2.8-4.1
		c-0.7,2.3,0.4,4.4,2.6,5.1C416.1-229.8,419-231.3,420.2-233.6L420.2-233.6z"/>
	<path class="st2" d="M414.6-238.4c-1.1,0.9-1.3,2.4-0.4,3.4c0.8,1,2.4,1.1,3.4,0.3c1.1-0.9,1.2-2.4,0.4-3.4
		C417.2-239.1,415.6-239.3,414.6-238.4z"/>
</g>
<g>
	<polygon class="st3" points="368.9,259.9 370.8,261 368.9,262 367.7,264.1 366.7,262 364.7,261 366.7,259.8 367.8,257.8 	"/>
	<path class="st4" d="M155.1,334c59.9-50,64-65.5,69.9-82.7l-33-35.5c-11.6-7.3-57.2,5.3-72.8,31.6c3.2-0.3,12.4,1.3,15.6,1
		c-7.5,2-92.1,124.7-106.5,143.5c20.3-10,120.5-69,130.3-78.3C157.5,318.5,153.4,327.1,155.1,334z"/>
	<path class="st5" d="M221.8,158.3l31.7-26.6c0,0-85.9-80-113.7,18.5C139.8,150.1,177.6,96.9,221.8,158.3z"/>
	<path class="st5" d="M211.6,166.8l10.1-8.5c-44.2-61.3-81.9-8.1-82-8.1l0,0C139.8,150.1,187.2,106.6,211.6,166.8z"/>
	<path class="st5" d="M281.6,237l31.7-26.6c0,0,55.2,105.8-42.4,112.4C271,322.9,328.8,296,281.6,237z"/>
	<path class="st5" d="M271.5,245.5l10.1-8.5c47.1,58.8-10.6,85.7-10.7,85.8l0,0C271,322.9,322,284,271.5,245.5z"/>
	<path d="M202.4,184.5c-6.8,8.8-14.3,19.8-15.1,26.1c0,0,1.2,17.4,13.2,30c9,15.1,24.9,20.2,24.9,20.2c6.1,0.6,18.1-4.8,27.9-9.9
		c-11.8-6.1-22-18.1-30.3-28.9C214.7,211.1,205.5,198,202.4,184.5z"/>
	<path class="st5" d="M305.8,235.9c1-0.7,2-1.4,3.1-2.1c-7.3,1.5-13.9,1.3-19.9-0.2c-16.8-4.1-28.9-18.3-40.3-33.3
		c-11.4-15-21.8-30.6-22-48.7c0-6,1-12.2,3.6-18.8c-1.4,1.4-2.7,2.9-4,4.3c0.6-2,1.4-4.1,2.3-6.2c-16.1,16.6-27,32.2-27.3,43.6
		c-0.1,3.3,0.3,6.7,1.1,10c3.1,13.5,12.3,26.7,20.7,37.5c8.3,10.7,18.5,22.8,30.3,28.9c3.1,1.6,6.2,2.7,9.5,3.4
		c10.8,2.1,27.9-6,47-19.2C308.4,235.4,307.1,235.6,305.8,235.9z"/>
	<path class="st5" d="M201.8,247.3c-19,15.9-41.8,28-41.8,28s15.8-21.4,34.8-37.3s31-33.1,37.5-24.6
		C239.5,222.9,220.7,231.4,201.8,247.3z"/>
	<path class="st6" d="M437.7,110.4c9.2-19.2,29.1-59.5,31.1-77.6l0,0c3.8-21-16.5-21.7-16.5-21.7l0,0c-17.2-1.9-59,9.6-78.9,14.7
		c-32.3,8.3-70.1,27.5-103.5,55.6c-33.4,28-45.4,50.5-46,69.8s10.1,35.5,21.8,50.9c11.8,15.5,24.4,30,42.5,33.7
		c18.1,3.6,41.5-3.6,75-31.6C396.6,176.1,422.8,141.6,437.7,110.4z"/>
	<path class="st6" d="M293.4,231.6c-18.1-3.6-30.7-18.2-42.5-33.7c-11.8-15.5-22.4-31.6-21.8-51c0.6-18.8,11.9-40.6,43.5-67.7
		c-0.9,0.7-1.7,1.4-2.6,2.2c-33.4,28-45.4,50.5-46,69.8s10.1,35.5,21.8,51c11.8,15.5,24.4,30,42.4,33.7c18.1,3.6,41.5-3.6,75-31.6
		c0.9-0.7,1.7-1.4,2.6-2.2C333.7,228.4,311,235.1,293.4,231.6z"/>
	<g>
		<g>
			<path class="st0" d="M405.1,98.1c0.5-1.1,0.1-2.4-1-2.7s-2.4,0.3-2.9,1.5c-0.4,0.8-0.3,1.6,0.1,2.1c0.2,0.3,0.5,0.5,0.8,0.6
				C403.3,99.9,404.6,99.4,405.1,98.1z"/>
		</g>
		<path class="st1" d="M405.1,98.1c0.1-0.3,0.2-0.5,0.2-0.8c0,0.1-0.1,0.2-0.1,0.3c-0.5,1.2-1.8,1.8-2.9,1.5c-0.8-0.3-1.3-1-1.2-1.9
			c-0.3,1,0.2,2,1.1,2.4C403.3,99.9,404.6,99.4,405.1,98.1L405.1,98.1z"/>
		<path class="st2" d="M402.7,95.9c-0.5,0.4-0.6,1.1-0.2,1.6s1,0.5,1.5,0.1s0.6-1.1,0.2-1.6C403.8,95.6,403.2,95.6,402.7,95.9z"/>
	</g>
	<g>
		<g>
			<path class="st0" d="M269.6,161.4c0.5-1.2,0.1-2.4-1-2.7s-2.4,0.3-2.9,1.5c-0.3,0.8-0.3,1.6,0.2,2.1c0.2,0.3,0.5,0.5,0.8,0.6
				C267.8,163.1,269.1,162.4,269.6,161.4z"/>
		</g>
		<path class="st1" d="M269.6,161.4c0.1-0.3,0.2-0.5,0.2-0.8c0,0.1-0.1,0.2-0.1,0.3c-0.5,1.2-1.8,1.8-2.9,1.5
			c-0.8-0.3-1.3-1-1.2-1.9c-0.3,1,0.1,2.1,1.1,2.4C267.8,163.1,269.1,162.4,269.6,161.4L269.6,161.4z"/>
		<path class="st2" d="M267.2,159.1c-0.5,0.4-0.6,1.1-0.2,1.6s1,0.5,1.5,0.1s0.6-1.1,0.2-1.6C268.3,158.9,267.6,158.8,267.2,159.1z"
			/>
	</g>
	<g>
		<g>
			<path class="st0" d="M275.9,169.6c0.5-1.1,0.1-2.4-1-2.7s-2.4,0.3-2.9,1.5c-0.4,0.8-0.3,1.6,0.1,2.1c0.2,0.3,0.5,0.5,0.8,0.6
				C274.1,171.4,275.4,170.8,275.9,169.6z"/>
		</g>
		<path class="st1" d="M275.9,169.6c0.1-0.3,0.2-0.5,0.2-0.8c0,0.1-0.1,0.2-0.1,0.3c-0.5,1.2-1.8,1.8-2.9,1.5
			c-0.8-0.3-1.3-1-1.2-1.9c-0.3,1,0.1,2.1,1.1,2.4C274.1,171.4,275.4,170.8,275.9,169.6L275.9,169.6z"/>
		<path class="st2" d="M273.5,167.4c-0.5,0.4-0.6,1.1-0.2,1.6s1,0.5,1.5,0.1s0.6-1.1,0.2-1.6C274.6,167.1,273.9,167.1,273.5,167.4z"
			/>
	</g>
	<g>
		<g>
			<path class="st0" d="M282.2,177.9c0.5-1.1,0.1-2.4-1-2.7s-2.4,0.3-2.9,1.5c-0.4,0.8-0.3,1.6,0.1,2.1c0.2,0.3,0.5,0.5,0.8,0.6
				C280.4,179.8,281.7,179.1,282.2,177.9z"/>
		</g>
		<path class="st1" d="M282.2,177.9c0.1-0.3,0.2-0.5,0.2-0.8c0,0.1-0.1,0.2-0.1,0.3c-0.5,1.1-1.8,1.8-2.9,1.5
			c-0.8-0.3-1.3-1-1.2-1.9c-0.3,1,0.2,2.1,1.1,2.4C280.4,179.8,281.7,179.1,282.2,177.9L282.2,177.9z"/>
		<path class="st2" d="M279.8,175.8c-0.5,0.4-0.6,1.1-0.2,1.6s1,0.5,1.5,0.2c0.5-0.4,0.6-1.1,0.2-1.6S280.3,175.4,279.8,175.8z"/>
	</g>
	<g>
		<g>
			<path class="st0" d="M288.5,186.3c0.5-1.2,0.1-2.4-1-2.7c-1.1-0.4-2.3,0.3-2.9,1.5c-0.3,0.8-0.3,1.6,0.1,2.1
				c0.2,0.3,0.5,0.5,0.8,0.6C286.7,188,288,187.5,288.5,186.3z"/>
		</g>
		<path class="st1" d="M288.5,186.3c0.1-0.3,0.2-0.5,0.2-0.8c0,0.1-0.1,0.2-0.1,0.3c-0.5,1.2-1.8,1.8-2.9,1.5
			c-0.8-0.3-1.3-1.1-1.2-1.9c-0.3,1,0.1,2,1.1,2.4C286.7,188,288,187.5,288.5,186.3L288.5,186.3z"/>
		<path class="st2" d="M286.1,184c-0.5,0.4-0.6,1.1-0.2,1.6s1,0.5,1.5,0.1s0.6-1.1,0.2-1.6C287.2,183.8,286.6,183.6,286.1,184z"/>
	</g>
	<g>
		<g>
			<path class="st0" d="M333.5,77.9c0.5-1.1,0.1-2.3-1-2.7c-1.1-0.3-2.4,0.3-2.9,1.5c-0.4,0.8-0.3,1.6,0.1,2.1
				c0.2,0.3,0.5,0.5,0.8,0.6C331.7,79.8,333,79.1,333.5,77.9z"/>
		</g>
		<path class="st1" d="M333.5,77.9c0.1-0.2,0.2-0.5,0.2-0.8c0,0.1-0.1,0.2-0.1,0.3c-0.5,1.2-1.8,1.8-2.9,1.5
			c-0.8-0.3-1.3-1.1-1.2-1.9c-0.3,1,0.2,2.1,1.1,2.4C331.7,79.8,333,79.1,333.5,77.9L333.5,77.9z"/>
		<path class="st2" d="M331.1,75.8c-0.5,0.4-0.6,1.1-0.2,1.6s1,0.5,1.5,0.1s0.6-1.1,0.2-1.6C332.2,75.4,331.5,75.4,331.1,75.8z"/>
	</g>
	<path class="st5" d="M471.3,30.3L471.3,30.3c3.7-20.1-15.8-20.9-15.8-20.9l0,0c-16.6-1.9-56.6,9.2-75.7,14.1
		c0,0,69.3,8.5,61.7,81.2C450.2,86.4,469.3,47.7,471.3,30.3z"/>
	<g>
		<g>
			<path class="st0" d="M401.6,118.4c0.5-1.1,0.1-2.3-1-2.7c-1.1-0.3-2.3,0.3-2.9,1.5c-0.4,0.8-0.3,1.6,0.1,2.1
				c0.2,0.3,0.5,0.5,0.8,0.6C399.8,120.3,401,119.6,401.6,118.4z"/>
		</g>
		<path class="st1" d="M401.6,118.4c0.1-0.3,0.2-0.5,0.2-0.8c0,0.1-0.1,0.2-0.1,0.3c-0.5,1.2-1.8,1.8-2.9,1.5
			c-0.8-0.3-1.3-1.1-1.2-1.9c-0.3,1,0.1,2.1,1.1,2.4C399.8,120.3,401,119.6,401.6,118.4L401.6,118.4z"/>
		<path class="st2" d="M399.1,116.3c-0.5,0.4-0.5,1.1-0.2,1.6c0.4,0.5,1,0.5,1.5,0.1s0.6-1.1,0.2-1.6
			C400.3,115.9,399.6,115.9,399.1,116.3z"/>
	</g>
	<g>
		<g>
			<path class="st0" d="M392.2,126.4c0.5-1.1,0.1-2.4-1-2.7s-2.4,0.3-2.9,1.5c-0.3,0.8-0.3,1.6,0.1,2.1c0.2,0.3,0.5,0.5,0.8,0.6
				C390.4,128.1,391.7,127.4,392.2,126.4z"/>
		</g>
		<path class="st1" d="M392.2,126.4c0.1-0.3,0.2-0.5,0.2-0.8c0,0.1-0.1,0.2-0.1,0.3c-0.5,1.2-1.8,1.8-2.9,1.5
			c-0.8-0.3-1.3-1.1-1.2-1.9c-0.3,1,0.2,2.1,1.1,2.4C390.4,128.1,391.7,127.4,392.2,126.4L392.2,126.4z"/>
		<path class="st2" d="M389.8,124.1c-0.5,0.4-0.6,1.1-0.2,1.6s1,0.5,1.5,0.1s0.6-1.1,0.2-1.6C390.9,123.9,390.2,123.8,389.8,124.1z"
			/>
	</g>
	<g>
		<g>
			<path class="st0" d="M382.8,134.3c0.5-1.1,0.1-2.4-1-2.7s-2.4,0.3-2.9,1.5c-0.3,0.8-0.3,1.6,0.1,2.1c0.2,0.3,0.5,0.5,0.8,0.6
				C381,136.1,382.3,135.4,382.8,134.3z"/>
		</g>
		<path class="st1" d="M382.8,134.3c0.1-0.3,0.2-0.5,0.2-0.8c0,0.1-0.1,0.2-0.1,0.4c-0.5,1.2-1.8,1.8-2.9,1.5
			c-0.8-0.3-1.3-1-1.2-1.9c-0.3,1,0.2,2.1,1.1,2.4C381,136.1,382.3,135.4,382.8,134.3L382.8,134.3z"/>
		<path class="st2" d="M380.4,132.1c-0.5,0.4-0.6,1.1-0.2,1.6s1,0.5,1.5,0.1s0.6-1.1,0.2-1.6C381.5,131.6,380.8,131.6,380.4,132.1z"
			/>
	</g>
	<g>
		<g>
			<path class="st0" d="M373.4,142.1c0.5-1.1,0.1-2.4-1-2.7s-2.3,0.3-2.9,1.5c-0.3,0.8-0.3,1.6,0.1,2.1c0.2,0.3,0.5,0.5,0.8,0.6
				C371.6,143.9,372.9,143.3,373.4,142.1z"/>
		</g>
		<path class="st1" d="M373.4,142.1c0.1-0.3,0.2-0.5,0.2-0.8c0,0.1-0.1,0.2-0.1,0.3c-0.5,1.2-1.8,1.8-2.9,1.5
			c-0.8-0.3-1.3-1.1-1.2-1.9c-0.3,1,0.2,2.1,1.1,2.4C371.6,143.9,372.9,143.3,373.4,142.1L373.4,142.1z"/>
		<path class="st2" d="M371,139.9c-0.5,0.4-0.6,1.1-0.2,1.6s1,0.5,1.5,0.1s0.6-1.1,0.2-1.6C372.1,139.6,371.5,139.4,371,139.9z"/>
	</g>
	<g>
		<g>
			<path class="st0" d="M364,149.9c0.5-1.2,0.1-2.4-1-2.7s-2.4,0.3-2.9,1.5c-0.4,0.8-0.3,1.6,0.1,2.1c0.2,0.3,0.5,0.5,0.8,0.6
				C362.2,151.8,363.5,151.1,364,149.9z"/>
		</g>
		<path class="st1" d="M364,149.9c0.1-0.3,0.2-0.5,0.2-0.8c0,0.1-0.1,0.2-0.1,0.3c-0.5,1.2-1.8,1.8-2.9,1.5c-0.8-0.3-1.3-1-1.2-1.9
			c-0.3,1,0.1,2.1,1.1,2.4C362.2,151.8,363.5,151.1,364,149.9L364,149.9z"/>
		<path class="st2" d="M361.6,147.8c-0.5,0.4-0.6,1.1-0.2,1.6s1,0.5,1.5,0.1s0.6-1.1,0.2-1.6C362.8,147.4,362.1,147.4,361.6,147.8z"
			/>
	</g>
	<g>
		<g>
			<path class="st0" d="M354.7,72.3c0.5-1.1,0.1-2.4-1-2.7c-1.1-0.4-2.3,0.3-2.9,1.5c-0.3,0.8-0.3,1.6,0.2,2.1
				c0.2,0.3,0.5,0.5,0.8,0.6C352.9,74.1,354.2,73.4,354.7,72.3z"/>
		</g>
		<path class="st1" d="M354.7,72.3c0.1-0.3,0.2-0.5,0.2-0.8c0,0.1-0.1,0.2-0.1,0.3c-0.5,1.2-1.8,1.8-2.9,1.5c-0.8-0.3-1.3-1-1.2-1.9
			c-0.3,1,0.1,2,1.1,2.4C352.9,74.1,354.2,73.4,354.7,72.3L354.7,72.3z"/>
		<path class="st2" d="M352.2,70.1c-0.5,0.4-0.6,1.1-0.2,1.6s1,0.5,1.5,0.2c0.5-0.4,0.6-1.1,0.2-1.6
			C353.4,69.8,352.7,69.6,352.2,70.1z"/>
	</g>
	<g>
		<g>
			<path class="st0" d="M339,135.4c-1.1-0.5-2.2-0.1-2.6,1c-0.3,1.1,0.3,2.5,1.4,3c0.7,0.4,1.5,0.3,2-0.2c0.3-0.2,0.4-0.5,0.5-0.9
				C340.7,137.4,340.1,136.1,339,135.4z"/>
		</g>
		<path class="st1" d="M339,135.4c-0.2-0.1-0.5-0.2-0.7-0.2c0.1,0,0.2,0.1,0.3,0.1c1.1,0.5,1.7,1.9,1.4,3c-0.3,0.9-1,1.3-1.8,1.3
			c1,0.3,2-0.2,2.2-1.2C340.7,137.4,340.1,136.1,339,135.4L339,135.4z"/>
		<path class="st2" d="M336.9,138.1c0.4,0.5,1,0.6,1.5,0.2c0.4-0.4,0.5-1.1,0.1-1.6s-1.1-0.6-1.5-0.2S336.5,137.6,336.9,138.1z"/>
	</g>
	<g>
		<g>
			<path class="st0" d="M346.5,145.4c-1.1-0.5-2.2-0.1-2.6,1c-0.3,1.1,0.3,2.5,1.4,3c0.7,0.4,1.5,0.3,2-0.2c0.2-0.2,0.5-0.5,0.6-0.9
				C348.2,147.3,347.6,145.9,346.5,145.4z"/>
		</g>
		<path class="st1" d="M346.5,145.4c-0.2-0.1-0.5-0.2-0.7-0.2c0.1,0,0.2,0.1,0.3,0.1c1.1,0.5,1.7,1.9,1.4,3c-0.3,0.9-1,1.3-1.8,1.3
			c1,0.3,2-0.2,2.3-1.2C348.2,147.3,347.6,145.9,346.5,145.4L346.5,145.4z"/>
		<path class="st2" d="M344.4,147.9c0.4,0.5,1,0.6,1.5,0.2c0.4-0.4,0.5-1.1,0.1-1.6s-1-0.6-1.5-0.2
			C344.1,146.6,344,147.4,344.4,147.9z"/>
	</g>
	<g>
		<path class="st1" d="M405.9,124.3c9.1-25.3-3.3-54.4-27.6-64.8C354,49,327,61.1,318,86.4c-6.1,17-2.5,35.7,7.8,49.3
			c5.1,6.7,11.8,12.1,19.8,15.6C369.9,161.8,396.9,149.6,405.9,124.3z M327.5,90.6c7.1-19.9,28.2-29.4,47.3-21.2
			c6.3,2.7,11.5,7,15.5,12.2c8.1,10.6,10.9,25.3,6.1,38.6c-7.1,19.9-28.2,29.3-47.3,21.2C330.1,133.3,320.4,110.4,327.5,90.6z"/>
	</g>
	<path class="st7" d="M323,88.6c8-22.5,32-33.2,53.5-23.9c21.5,9.2,32.5,35,24.5,57.4c-8,22.5-32,33.2-53.5,24
		c-7.1-3-13-7.9-17.5-13.8C320.8,120.3,317.6,103.8,323,88.6L323,88.6z M374.6,69.9c-18.8-8.1-39.6,1.3-46.6,20.9
		s2.5,42.1,21.3,50.1c18.8,8.1,39.6-1.3,46.6-20.9c4.7-13.1,1.9-27.6-6-38.1C386,76.8,380.8,72.6,374.6,69.9L374.6,69.9z"/>
	<g>
		<path class="st8" d="M395.9,120.1c7-19.6-2.6-42-21.3-50.1c-18.8-8.1-39.6,1.3-46.6,20.9c-4.7,13.1-1.9,27.6,6,38.1
			c3.9,5.2,9.1,9.4,15.3,12C368.1,148.9,388.9,139.6,395.9,120.1z"/>
	</g>
	<path class="st8" d="M395.9,120.1c1.6-4.4,2.3-9,2.3-13.6c-0.4,2-0.9,3.9-1.6,5.9c-7,19.6-27.9,29-46.6,20.9
		c-14.5-6.2-23.5-21.1-23.6-36.5c-3.4,18,6,37,22.9,44.2C368.1,148.9,388.9,139.6,395.9,120.1L395.9,120.1z"/>
	<g>
		<path class="st1" d="M316,174.4c5.2-14.6-1.9-31.4-15.9-37.4s-29.6,1-34.9,15.6c-3.5,9.8-1.4,20.6,4.5,28.5c2.9,3.9,6.8,7,11.4,9
			C295.1,196,310.7,189,316,174.4z M270.7,154.9c4.1-11.5,16.3-17,27.3-12.2c3.6,1.6,6.6,4,8.9,7c4.7,6.1,6.3,14.6,3.5,22.3
			c-4.1,11.5-16.3,17-27.3,12.2C272.2,179.4,266.6,166.4,270.7,154.9z"/>
	</g>
	<path class="st7" d="M268.1,153.8c4.6-13,18.5-19.2,30.9-13.8c12.4,5.3,18.8,20.2,14.1,33.2c-4.6,13-18.5,19.2-30.9,13.8
		c-4.1-1.8-7.5-4.5-10.1-8C266.8,172.1,265,162.4,268.1,153.8L268.1,153.8z M297.9,142.9c-10.8-4.7-22.9,0.7-26.9,12.1
		c-4.1,11.3,1.5,24.3,12.3,28.9c10.8,4.7,22.9-0.7,26.9-12.1c2.7-7.6,1.1-15.9-3.5-22C304.5,146.9,301.5,144.4,297.9,142.9
		L297.9,142.9z"/>
	<g>
		<path class="st8" d="M310.2,171.9c4-11.3-1.5-24.3-12.3-28.9c-10.8-4.7-22.9,0.7-26.9,12.1c-2.7,7.6-1.1,15.9,3.5,22
			c2.3,3,5.3,5.4,8.8,6.9C294.1,188.5,306.2,183.1,310.2,171.9z"/>
	</g>
	<path class="st8" d="M310.2,171.9c0.9-2.6,1.3-5.2,1.3-7.8c-0.2,1.1-0.5,2.3-0.9,3.4c-4,11.3-16.1,16.7-26.9,12.1
		c-8.4-3.6-13.6-12.2-13.6-21.1c-2,10.4,3.5,21.4,13.2,25.6C294.1,188.5,306.2,183.1,310.2,171.9L310.2,171.9z"/>
</g>
</svg>
