<?xml version="1.0" encoding="utf-8"?>
<!-- Generator: Adobe Illustrator 23.0.2, SVG Export Plug-In . SVG Version: 6.00 Build 0)  -->
<svg version="1.1" id="Layer_1" xmlns="http://www.w3.org/2000/svg" xmlns:xlink="http://www.w3.org/1999/xlink" x="0px" y="0px"
	 viewBox="0 0 1138.11 1200" style="enable-background:new 0 0 1138.11 1200;" xml:space="preserve">
<style type="text/css">
	.st0{fill:#231F20;}
	.st1{fill:none;stroke:#231F20;stroke-width:12;stroke-miterlimit:10;}
	.st2{fill:#EAD7B9;}
	.st3{fill:#5BC0EE;}
	.st4{fill:#4E5068;}
	.st5{fill:#354053;}
	.st6{fill:#8B8B8B;}
	.st7{fill:none;stroke:#181B3B;stroke-miterlimit:10;}
	.st8{fill:#D3C2A9;}
</style>
<rect x="775.42" y="393.05" class="st0" width="26.32" height="211.06"/>
<rect x="260.95" y="392.48" class="st0" width="26.32" height="211.06"/>
<rect x="933.43" y="391.91" class="st0" width="26.32" height="211.06"/>
<rect x="902.35" y="391.91" class="st0" width="26.32" height="211.06"/>
<rect x="871.46" y="391.91" class="st0" width="26.32" height="211.06"/>
<rect x="839.03" y="393.01" class="st0" width="26.32" height="211.06"/>
<rect x="808.14" y="393.01" class="st0" width="26.32" height="211.06"/>
<path class="st1" d="M60.49,506.98c0,0,354.77-54.25,466.86-54.25c107.61,0,474.34,54.25,474.34,54.25"/>
<rect x="227.68" y="392.62" class="st0" width="26.32" height="211.06"/>
<rect x="196.61" y="392.62" class="st0" width="26.32" height="211.06"/>
<rect x="165.72" y="392.62" class="st0" width="26.32" height="211.06"/>
<rect x="377.28" y="854.06" class="st2" width="36.36" height="47.35"/>
<rect x="672.72" y="854.06" class="st2" width="36.36" height="47.35"/>
<polygon class="st3" points="515.22,466.37 462.99,479.86 452.45,588.45 446.23,730.64 626.16,734.44 616.13,592.93 607.1,480.62 
	573.13,466.37 "/>
<path class="st4" d="M411.9,743.79l29.98,26.87c8.71,7.8,19.98,12.12,31.67,12.12h115.31c10.62,0,20.94-3.56,29.3-10.12l45.57-35.75
	l-5.64-79.27l-96.94,41.03h-65.14l-84.11-45.67l-9.24,28.75L411.9,743.79z"/>
<path class="st5" d="M411.9,743.79l29.98,26.87c8.71,7.8,19.98,12.12,31.67,12.12h115.31c10.62,0,20.94-3.56,29.3-10.12l45.57-35.75
	l-5.64-79.27l-96.94,41.03h-65.14l-84.11-45.67l-9.24,28.75L411.9,743.79z"/>
<path class="st6" d="M377.03,891.88c0,0-3.08,26.3-24.11,50.92v11.71h70.57l1.37-16.32c0,0-10.39-26.16-11.41-38.47
	C413.44,899.71,409.85,881.84,377.03,891.88z"/>
<path d="M424.51,942.3c0,0-58.86-3.55-71.59,0.5v11.71h70.57L424.51,942.3z"/>
<line class="st7" x1="377.28" y1="906.8" x2="397.03" y2="906.8"/>
<line class="st7" x1="375.58" y1="914.07" x2="395.32" y2="914.07"/>
<line class="st7" x1="371.73" y1="923.35" x2="391.48" y2="923.35"/>
<path class="st6" d="M708.49,891.88c0,0,3.08,26.3,24.11,50.92v11.71h-70.57l-1.37-16.32c0,0,10.39-26.16,11.41-38.47
	C672.08,899.71,675.67,881.84,708.49,891.88z"/>
<path d="M661.01,942.3c0,0,58.86-3.55,71.59,0.5v11.71h-70.57L661.01,942.3z"/>
<line class="st7" x1="708.24" y1="906.8" x2="688.49" y2="906.8"/>
<line class="st7" x1="709.95" y1="914.07" x2="690.2" y2="914.07"/>
<line class="st7" x1="713.79" y1="923.35" x2="694.05" y2="923.35"/>
<path class="st5" d="M377.54,887.4h39.49c0,0,9.8-159.42,5.25-222.81c-0.48-6.69-6.07-11.84-12.78-11.84h-14.08
	c-25.76,0-43.68,21.37-45.49,47.07C345.23,766.36,377.54,887.4,377.54,887.4z"/>
<path class="st5" d="M708.8,891.88H669.3c0,0-22.68-161.9-19.36-224.26c0.31-5.83,5.1-10.39,10.93-10.39h15.68
	c25.76,0,46.39,21.33,45.49,47.07C719.84,767.42,708.8,891.88,708.8,891.88z"/>
<path class="st2" d="M577.87,537.14l132.12,81.53c6.68,3.98,15.28,0.18,16.84-7.43l20.03-101.66l10.47-17.42l-1.5-20.84l-5.44-19.72
	l-15.69-5.32c-2.06-0.7-4.28,0.54-4.77,2.66l-4.28,18.52l-8.49,10.67l1.19-5.16l2.45-6.21c1.48-3.76-0.72-7.96-4.66-8.87l0,0
	l-9.73,10.9l-3.39,12.38l11.31,18.63l-13.83,64.65L594.9,495.73L577.87,537.14z"/>
<path class="st3" d="M576.37,562.97l-10.94-96.6l55.13,10.26c13.49,2.51,24.37,9.69,29.01,19.16l37.31,54.72l-50.99,6.05
	L576.37,562.97z"/>
<path class="st8" d="M537.14,524.43L537.14,524.43c-14.21,0-25.73-11.52-25.73-25.73v-44.64h51.46v44.64
	C562.87,512.91,551.35,524.43,537.14,524.43z"/>
<g>
	<path d="M582.28,410.48c-1.05,13.11-1.6,28.47-14.41,35.91c-0.99,0.57-2.04,1.09-3.16,1.31c-0.93,0.19-1.89,0.17-2.83,0.11
		c-3.85-0.26-7.63-1.33-11.05-3.11c-1.19-0.62-2.37-1.34-3.69-1.61c-4.3-0.85-7.78,3.17-11.4,5.64c-6.83,4.65-15.95,3.99-23.92,1.85
		c-4.54-1.22-9.67-3.67-10.4-8.32c-0.36-2.35,0.52-4.88-0.42-7.06c-0.75-1.74-2.48-2.82-3.96-4c-3.39-2.72-3.13-8.05-3.22-12.1
		c-0.07-3.26-0.15-6.53-0.22-9.79c-0.04-1.62-0.07-3.24-0.39-4.83c-0.39-1.92-1.18-3.76-1.38-5.72c-0.25-2.39,0.98-3.14,1.76-5.04
		c0.66-1.61,0.35-3.43,1.27-5.05c1.08-1.92,2.69-3.49,3.98-5.28c1.71-2.37,2.84-5.1,4.45-7.53c1.61-2.44,3.87-4.67,6.74-5.21
		c1.08-0.2,2.2-0.15,3.28-0.35c3.24-0.6,5.6-3.28,8.11-5.42c2.45-2.08,5.25-3.75,8.25-4.91c2.11-0.82,4.37-1.39,6.63-1.17
		c3,0.3,5.8,1.99,8.81,1.86c1.43-0.06,2.82-0.54,4.25-0.6c3.48-0.16,6.64,2.1,10.11,2.4c8.88,0.77,18.99,8.94,18.59,18.26
		c-0.05,1.14-0.18,2.32,0.21,3.39c0.6,1.63,2.27,2.61,3.14,4.11c2.03,3.47-0.86,7.85-0.27,11.83c0.17,1.17,0.65,2.26,0.93,3.41
		C582.65,405.72,582.47,408.12,582.28,410.48z"/>
</g>
<path class="st2" d="M513.74,455.09c0,0-10.13,1.49-13.01-9c0,0-7.89-21.26,0-22.29c0,0,16.6,10.84,16.6,15.68
	C517.33,444.32,513.74,455.09,513.74,455.09z"/>
<path class="st2" d="M566.46,455.09c0,0,10.13,1.49,13.01-9c0,0,7.89-21.26,0-22.29c0,0-16.6,10.84-16.6,15.68
	C562.87,444.32,566.46,455.09,566.46,455.09z"/>
<path class="st2" d="M555.45,491.4l-0.92,0.53c-4.75,2.72-10.14,4.15-15.61,4.15l0,0c-5.73,0-11.36-1.57-16.27-4.53l0,0
	c-11.43-6.9-18.42-19.28-18.42-32.64v-62.8h70.43v62.19C574.66,471.98,567.33,484.61,555.45,491.4z"/>
<g>
	<path d="M496.6,422.94c2.32-0.23,5.89-0.13,7.84-1.38c1.58-1.01,2.6-2.85,2.62-4.73c0-0.56-0.05-1.18,0.33-1.59
		c0.48-0.51,1.29-0.34,1.98-0.26c1.95,0.23,4-0.62,5.21-2.16c1.22-1.54,1.56-3.73,0.88-5.58c1.23,0.58,2.77,0.05,3.71-0.94
		c2.28-2.37,0.83-6.9,3.17-9.02c3.75-3.39,6.43,2.92,9.48,4.79c2.84,1.74,6.8,1.41,9.31-0.79c-1.42,2.7,0.64,6.27,3.54,7.23
		c2.9,0.96,6.12-0.09,8.66-1.79c0.24,0.54,0.47,1.08,0.68,1.63c11.36,7.86,28.25,12.37,30.96-6.23c0.67-4.62-1.7-15.53-4.46-19.44
		c-1.48-2.09-3.69-3.55-5.93-4.79c-22.57-12.6-53.52-7.61-70.98,11.46c-2.41,2.64-4.61,5.53-6,8.83
		c-3.22,7.64-1.77,16.37,0.06,24.46"/>
</g>
<path class="st2" d="M491.37,540.43l-132.12,81.53c-6.68,3.98-15.28,0.18-16.84-7.43l-20.03-101.66l-10.47-17.42l1.5-20.84
	l5.44-19.72l15.69-5.32c2.06-0.7,4.28,0.54,4.77,2.66l4.28,18.52l8.49,10.67l-1.19-5.16l-2.45-6.21c-1.48-3.76,0.72-7.96,4.66-8.87
	l0,0l9.73,10.9l3.39,12.38l-11.31,18.63l13.83,64.65l105.59-68.73L491.37,540.43z"/>
<path class="st3" d="M492.87,566.26l10.94-96.6l-55.13,10.26c-13.49,2.51-24.37,9.69-29.01,19.16l-37.31,54.72l50.99,6.05
	L492.87,566.26z"/>
<rect x="133.28" y="393.72" class="st0" width="26.32" height="211.06"/>
<rect x="102.39" y="393.72" class="st0" width="26.32" height="211.06"/>
</svg>
