<?xml version="1.0" encoding="utf-8"?>
<!-- Generator: Adobe Illustrator 23.0.1, SVG Export Plug-In . SVG Version: 6.00 Build 0)  -->
<svg version="1.1" id="Layer_1" xmlns="http://www.w3.org/2000/svg" xmlns:xlink="http://www.w3.org/1999/xlink" x="0px" y="0px"
	 viewBox="0 0 230 190" style="enable-background:new 0 0 230 190;" xml:space="preserve">
<style type="text/css">
	.st0{fill:none;stroke:#FFFFFF;stroke-width:12;stroke-miterlimit:10;}
	.st1{fill:#231F20;stroke:#FFFFFF;stroke-miterlimit:10;}
	.st2{fill:#EAD7B9;}
	.st3{fill:#5BC0EE;}
	.st4{fill:#4E5068;}
	.st5{fill:#354053;}
	.st6{fill:#8B8B8B;}
	.st7{fill:none;stroke:#181B3B;stroke-miterlimit:10;}
	.st8{fill:#D3C2A9;}
</style>
<path class="st0" d="M229.7,68.7c0,0-86.6-14-113.9-14C89.5,54.7,0,68.7,0,68.7"/>
<rect x="40.8" y="39.3" class="st1" width="6.4" height="54.4"/>
<rect x="182.4" y="39.2" class="st1" width="6.4" height="54.4"/>
<rect x="190" y="39.2" class="st1" width="6.4" height="54.4"/>
<rect x="197.6" y="39.2" class="st1" width="6.4" height="54.4"/>
<rect x="143.5" y="158.2" class="st2" width="8.9" height="12.2"/>
<rect x="71.4" y="158.2" class="st2" width="8.9" height="12.2"/>
<polygon class="st3" points="118.7,58.2 131.4,61.7 134,89.7 135.5,126.4 91.6,127.4 94.1,90.9 96.3,61.9 104.6,58.2 "/>
<path class="st4" d="M143.9,129.8l-7.3,6.9c-2.1,2-4.9,3.1-7.7,3.1h-28.1c-2.6,0-5.1-0.9-7.2-2.6L82.5,128l1.4-20.4l23.7,10.6h15.9
	l20.5-11.8l2.3,7.4L143.9,129.8z"/>
<path class="st5" d="M143.9,129.8l-7.3,6.9c-2.1,2-4.9,3.1-7.7,3.1h-28.1c-2.6,0-5.1-0.9-7.2-2.6L82.5,128l1.4-20.4l23.7,10.6h15.9
	l20.5-11.8l2.3,7.4L143.9,129.8z"/>
<path class="st6" d="M152.4,167.9c0,0,0.8,6.8,5.9,13.1v3h-17.2l-0.3-4.2c0,0,2.5-6.7,2.8-9.9C143.5,170,144.4,165.4,152.4,167.9z"
	/>
<path d="M140.8,180.9c0,0,14.4-0.9,17.5,0.1v3h-17.2L140.8,180.9z"/>
<line class="st7" x1="152.4" y1="171.8" x2="147.5" y2="171.8"/>
<line class="st7" x1="152.8" y1="173.7" x2="148" y2="173.7"/>
<line class="st7" x1="153.7" y1="176.1" x2="148.9" y2="176.1"/>
<path class="st6" d="M71.5,167.9c0,0-0.8,6.8-5.9,13.1v3h17.2l0.3-4.2c0,0-2.5-6.7-2.8-9.9C80.4,170,79.5,165.4,71.5,167.9z"/>
<path d="M83.1,180.9c0,0-14.4-0.9-17.5,0.1v3h17.2L83.1,180.9z"/>
<line class="st7" x1="71.6" y1="171.8" x2="76.4" y2="171.8"/>
<line class="st7" x1="71.2" y1="173.7" x2="76" y2="173.7"/>
<line class="st7" x1="70.2" y1="176.1" x2="75.1" y2="176.1"/>
<path class="st5" d="M152.3,166.8h-9.6c0,0-2.4-41.1-1.3-57.4c0.1-1.7,1.5-3.1,3.1-3.1h3.4c6.3,0,10.7,5.5,11.1,12.1
	C160.2,135.6,152.3,166.8,152.3,166.8z"/>
<path class="st5" d="M71.5,167.9h9.6c0,0,5.5-41.7,4.7-57.8c-0.1-1.5-1.2-2.7-2.7-2.7h-3.8c-6.3,0-11.3,5.5-11.1,12.1
	C68.8,135.9,71.5,167.9,71.5,167.9z"/>
<path class="st2" d="M103.4,76.5l-32.2,21c-1.6,1-3.7,0-4.1-1.9l-4.9-26.2l-2.6-4.5l0.4-5.4l1.3-5.1l3.8-1.4c0.5-0.2,1,0.1,1.2,0.7
	l1,4.8l2.1,2.8L69.1,60l-0.6-1.6c-0.4-1,0.2-2.1,1.1-2.3l0,0l2.4,2.8l0.8,3.2L70,66.9l3.4,16.7l25.8-17.7L103.4,76.5z"/>
<path class="st3" d="M103.8,83.1l2.7-24.9L93,60.9c-3.3,0.6-5.9,2.5-7.1,4.9l-9.1,14.1l12.4,1.6L103.8,83.1z"/>
<path class="st8" d="M113.3,73.2L113.3,73.2c3.5,0,6.3-3,6.3-6.6V55.1H107v11.5C107.1,70.2,109.9,73.2,113.3,73.2z"/>
<g>
	<path d="M102.3,43.8c0.3,3.4,0.4,7.3,3.5,9.3c0.2,0.1,0.5,0.3,0.8,0.3c0.2,0,0.5,0,0.7,0c0.9-0.1,1.9-0.3,2.7-0.8
		c0.3-0.2,0.6-0.3,0.9-0.4c1-0.2,1.9,0.8,2.8,1.5c1.7,1.2,3.9,1,5.8,0.5c1.1-0.3,2.4-0.9,2.5-2.1c0.1-0.6-0.1-1.3,0.1-1.8
		c0.2-0.4,0.6-0.7,1-1c0.8-0.7,0.8-2.1,0.8-3.1c0-0.8,0-1.7,0.1-2.5c0-0.4,0-0.8,0.1-1.2c0.1-0.5,0.3-1,0.3-1.5
		c0.1-0.6-0.2-0.8-0.4-1.3c-0.2-0.4-0.1-0.9-0.3-1.3c-0.3-0.5-0.7-0.9-1-1.4c-0.4-0.6-0.7-1.3-1.1-1.9c-0.4-0.6-0.9-1.2-1.6-1.3
		c-0.3-0.1-0.5,0-0.8-0.1c-0.8-0.2-1.4-0.8-2-1.4c-0.6-0.5-1.3-1-2-1.3c-0.5-0.2-1.1-0.4-1.6-0.3c-0.7,0.1-1.4,0.5-2.2,0.5
		c-0.3,0-0.7-0.1-1-0.2c-0.8,0-1.6,0.5-2.5,0.6c-2.2,0.2-4.6,2.3-4.5,4.7c0,0.3,0,0.6-0.1,0.9c-0.1,0.4-0.6,0.7-0.8,1.1
		c-0.5,0.9,0.2,2,0.1,3c0,0.3-0.2,0.6-0.2,0.9C102.2,42.6,102.3,43.2,102.3,43.8z"/>
</g>
<path class="st2" d="M119.1,55.3c0,0,2.5,0.4,3.2-2.3c0,0,1.9-5.5,0-5.7c0,0-4.1,2.8-4.1,4C118.2,52.6,119.1,55.3,119.1,55.3z"/>
<path class="st2" d="M106.2,55.3c0,0-2.5,0.4-3.2-2.3c0,0-1.9-5.5,0-5.7c0,0,4.1,2.8,4.1,4C107.1,52.6,106.2,55.3,106.2,55.3z"/>
<path class="st2" d="M108.9,64.7l0.2,0.1c1.2,0.7,2.5,1.1,3.8,1.1l0,0c1.4,0,2.8-0.4,4-1.2l0,0c2.8-1.8,4.5-5,4.5-8.4V40.1h-17.2v16
	C104.2,59.7,106,62.9,108.9,64.7z"/>
<g>
	<path d="M123.2,47c-0.6-0.1-1.4,0-1.9-0.4c-0.4-0.3-0.6-0.7-0.6-1.2c0-0.1,0-0.3-0.1-0.4c-0.1-0.1-0.3-0.1-0.5-0.1
		c-0.5,0.1-1-0.2-1.3-0.6c-0.3-0.4-0.4-1-0.2-1.4c-0.3,0.1-0.7,0-0.9-0.2c-0.6-0.6-0.2-1.8-0.8-2.3c-0.9-0.9-1.6,0.8-2.3,1.2
		c-0.7,0.4-1.7,0.4-2.3-0.2c0.3,0.7-0.2,1.6-0.9,1.9c-0.7,0.2-1.5,0-2.1-0.5c-0.1,0.1-0.1,0.3-0.2,0.4c-2.8,2-6.9,3.2-7.6-1.6
		c-0.2-1.2,0.4-4,1.1-5c0.4-0.5,0.9-0.9,1.4-1.2c5.5-3.2,13.1-2,17.3,3c0.6,0.7,1.1,1.4,1.5,2.3c0.8,2,0.4,4.2,0,6.3"/>
</g>
<path class="st2" d="M124.5,77.3l32.2,21c1.6,1,3.7,0,4.1-1.9l4.9-26.2l2.6-4.5l-0.4-5.4l-1.3-5.1l-3.8-1.4c-0.5-0.2-1,0.1-1.2,0.7
	l-1,4.8l-2.1,2.8l0.3-1.3l0.6-1.6c0.4-1-0.2-2.1-1.1-2.3l0,0l-2.4,2.8l-0.8,3.2l2.8,4.8l-3.4,16.7l-25.8-17.7L124.5,77.3z"/>
<path class="st3" d="M124.2,84l-2.7-24.9l13.5,2.6c3.3,0.6,5.9,2.5,7.1,4.9l9.1,14.1l-12.4,1.6L124.2,84z"/>
<rect x="205.5" y="39.5" class="st1" width="6.4" height="54.4"/>
<rect x="213" y="39.5" class="st1" width="6.4" height="54.4"/>
<rect x="33.2" y="39.3" class="st1" width="6.4" height="54.4"/>
<rect x="48.8" y="39.3" class="st1" width="6.4" height="54.4"/>
<rect x="174.3" y="39.2" class="st1" width="6.4" height="54.4"/>
<rect x="25.3" y="39" class="st1" width="6.4" height="54.4"/>
<rect x="17.8" y="39" class="st1" width="6.4" height="54.4"/>
<rect x="10.2" y="39" class="st1" width="6.4" height="54.4"/>
</svg>
