<?xml version="1.0" encoding="utf-8"?>
<!-- Generator: Adobe Illustrator 23.0.1, SVG Export Plug-In . SVG Version: 6.00 Build 0)  -->
<svg version="1.1" id="Layer_1" xmlns="http://www.w3.org/2000/svg" xmlns:xlink="http://www.w3.org/1999/xlink" x="0px" y="0px"
	 viewBox="0 0 650 370" style="enable-background:new 0 0 650 370;" xml:space="preserve">
<style type="text/css">
	.st0{fill-rule:evenodd;clip-rule:evenodd;fill:#23291E;}
	.st1{fill-rule:evenodd;clip-rule:evenodd;fill:#10120F;}
	.st2{fill-rule:evenodd;clip-rule:evenodd;fill:#010101;}
	.st3{fill-rule:evenodd;clip-rule:evenodd;fill:#384631;}
	.st4{fill-rule:evenodd;clip-rule:evenodd;fill:#151D11;}
	.st5{fill-rule:evenodd;clip-rule:evenodd;fill:#CB922E;}
	.st6{fill-rule:evenodd;clip-rule:evenodd;fill:#D2993A;}
	.st7{fill-rule:evenodd;clip-rule:evenodd;fill:#C68A2F;}
	.st8{fill-rule:evenodd;clip-rule:evenodd;fill:#2B3B22;}
	.st9{fill-rule:evenodd;clip-rule:evenodd;fill:#1C2818;}
	.st10{fill-rule:evenodd;clip-rule:evenodd;fill:#0F0F0D;}
	.st11{fill-rule:evenodd;clip-rule:evenodd;fill:#172014;}
	.st12{fill-rule:evenodd;clip-rule:evenodd;fill:#33452A;}
	.st13{fill-rule:evenodd;clip-rule:evenodd;fill:#3C5330;}
	.st14{fill-rule:evenodd;clip-rule:evenodd;fill:#69835C;}
	.st15{fill-rule:evenodd;clip-rule:evenodd;fill:#809576;}
	.st16{fill-rule:evenodd;clip-rule:evenodd;fill:#523E2E;}
	.st17{fill-rule:evenodd;clip-rule:evenodd;fill:#36291E;}
	.st18{fill-rule:evenodd;clip-rule:evenodd;fill:#A05525;}
	.st19{fill-rule:evenodd;clip-rule:evenodd;fill:#17120F;}
	.st20{fill-rule:evenodd;clip-rule:evenodd;fill:#35271A;}
	.st21{fill-rule:evenodd;clip-rule:evenodd;fill:#E2AC4C;}
	.st22{fill-rule:evenodd;clip-rule:evenodd;fill:#090C09;}
	.st23{fill-rule:evenodd;clip-rule:evenodd;fill:#A3A39E;}
	.st24{fill-rule:evenodd;clip-rule:evenodd;fill:#4C5245;}
	.st25{fill:#D40047;}
	.st26{fill:#8A8546;}
	.st27{fill:#4A4720;}
	.st28{fill:#504D26;}
	.st29{fill:#9C9764;}
	.st30{fill:#57532D;}
	.st31{fill-rule:evenodd;clip-rule:evenodd;fill:#D40047;}
	.st32{fill-rule:evenodd;clip-rule:evenodd;fill:#007F11;}
	.st33{fill-rule:evenodd;clip-rule:evenodd;fill:#00037F;}
	.st34{fill-rule:evenodd;clip-rule:evenodd;fill:#6A0005;}
	.st35{fill-rule:evenodd;clip-rule:evenodd;fill:#94B5FF;}
	.st36{fill:#8B8B5A;}
	.st37{fill:none;stroke:#505050;stroke-width:4;stroke-linecap:round;stroke-linejoin:round;stroke-miterlimit:10;}
	.st38{fill:#FFFFFF;stroke:#FFFFFF;stroke-width:4;stroke-linecap:round;stroke-linejoin:round;stroke-miterlimit:10;}
	.st39{fill:#8B8B5A;stroke:#8B8B5A;stroke-width:4;stroke-linecap:round;stroke-linejoin:round;stroke-miterlimit:10;}
	.st40{fill:#FFFFFF;stroke:#8B8B5A;stroke-width:4;stroke-linecap:round;stroke-linejoin:round;stroke-miterlimit:10;}
</style>
<g>
	<path class="st0" d="M85,331.2c5.2,0,7.8,0,7.8,0c0.3-1.9-0.9-3.8-2.7-4.5c0,0-1-0.2-3-0.5C86.2,327.9,85.6,329.5,85,331.2"/>
	<path class="st1" d="M67.7,331.3c13,0.9,19.6,0.7,19.6,0.7s0.2-1.8,0.7-5.5c0,0-1.8-0.3-5.3-0.9c0,0-2.2-1.3-6.6-3.9
		c0,0,0.3-3.6,1-10.7c0,0-3.9-0.1-11.8-0.2C65.3,310.7,66,318,67.7,331.3"/>
	<path class="st2" d="M69.2,331.4c2.4,0.1,3.5,0.2,3.5,0.2s-1-6.8-2.9-20.3c-2.2,0.5-3.3,0.7-3.3,0.7
		C68.3,324.9,69.2,331.4,69.2,331.4"/>
	<path class="st1" d="M43.3,340.7c6.6,0.3,10.5-0.1,11.7-1.1c0,0-0.5-3.5-1.5-10.5c0,0,0.2-4.4,0.7-13.2c0,0-3.7-0.3-11-0.8
		c0.8,9.3,1.2,13.9,1.2,13.9C43.7,336.8,43.3,340.7,43.3,340.7"/>
	<path class="st2" d="M47.8,334.8c1,0.4,2.2,0.2,3.1-0.4c0,0,0.3-6,1-18c-0.2-0.6-2.2-0.8-5.9-0.5C47.2,328.5,47.8,334.8,47.8,334.8
		"/>
	<path class="st3" d="M64.1,309.4c0.3-4.5,0.4-13.4,0.5-26.6c-0.6-35.6,4.8-44,16.4-25.1c0.6,16,0.4,19.4,0.4,19.4
		c-0.3,2.9-1.2,12.5-2.9,28.9c-0.5,5-0.9,6-2.6,6.1c-5.5,0.2-8.2,0.4-8.2,0.4C65.2,312.4,64.1,312.2,64.1,309.4"/>
	<path class="st3" d="M53.9,316.9c-1.8-0.1-4.7,0-8.5,0.1c-3.3,0.1-4-0.8-3.1-4.8c4-19.3,5-21.8,4.7-26.7l-1.5-25.2
		c4.8-4.2,13-7.2,23.9-8.8l-6.3,41.1c-1.2,6.2-3.8,11.5-6.3,21.6C56.2,316.1,55.9,316.9,53.9,316.9"/>
	<path class="st3" d="M75.5,249.3c-8.3-11.6-13.5-9.4-15.6,6.7C65.7,255.8,71.3,253.4,75.5,249.3"/>
	<path class="st4" d="M55,205.2l-3.2-7.7c-5,1.5-8.8,2.8-11.4,4c1.6,2.5,3,4.8,4.3,6.8l2.9,24H60c-8.5,0.8-13.1,2.8-13.7,6.1
		c-3.9,11.3-5.8,16.9-5.8,16.9c4.1,5.5,10.6,9,17.7,9.6c6.1-11.6,9-18.7,8.7-21.3c6.9,9.3,11.8,14.8,14.8,16.5c1.8,0,2.8,0,2.8,0
		c-1.2-9-2.6-18.4-4.1-28l-4.1-31.4L55,205.2z"/>
	<polygon class="st3" points="65.8,197.3 76.3,198.3 77.7,201.1 67.1,200.1 	"/>
	<path class="st4" d="M94.1,211c-2.8,5.2-3.9,9.6-4.1,11.5c-2.7-0.1-7.8-3.6-14.6-8.7c-3.7-9.7-7.8-17,7.2-10.3
		C90.8,208.1,94.1,211,94.1,211"/>
	<path class="st3" d="M81,204.1c3.4,0.2,5.1,0.2,5.1,0.2s1,0.5,3,1.6c0,0-0.6,0.9-1.9,2.6c0,0-2-1.1-6.1-3.3
		C81,204.5,81,204.1,81,204.1"/>
	<path class="st3" d="M96.2,210.7c0.5,9.6,0.5,14.4,0.5,14.4c-0.8,0.5-2.1,0.4-3.8-0.4c0,0-1.1-0.6-3.4-1.8c-0.9-0.5-1.5-1.8-1.6-4
		C88.1,210.3,90.3,205.7,96.2,210.7"/>
	<path class="st5" d="M101.1,227.7c-5.3-0.5-7.6-3.6-6.9-9.4l1.8-18.2h0.2c0.3,0,0.5-0.2,0.6-0.4l6.4,2.9l1.6,19.7
		C105.1,226.1,103.1,227.9,101.1,227.7"/>
	<path class="st6" d="M97.1,198.8c2.7,3.1,4,4.6,4,4.6c-2.1,0.6-3.8,0-5-1.9C95.5,200.6,95.9,199.7,97.1,198.8"/>
	<path class="st7" d="M55.1,198.4c0.5,2.6,2.7,4.7,5.5,5.3s5.7-0.5,7.4-2.7c0,0-0.9-3.1,0.4-7.3c0,0-3.2-6.2-12-8.9
		C56.6,196.3,55.1,198.4,55.1,198.4"/>
	<path class="st3" d="M63.8,209H65v23.3h-1.2V209z M62.3,203.1c-2.4,4-3.7,6-3.7,6c-3.7-0.3-5.5-4.4-6.9-11.9c1.6-1,2.4-1.8,3.9-2.8
		C56.8,199.1,59,202,62.3,203.1z"/>
	<path class="st8" d="M76.5,185.4c-1.1-0.3-1.7-0.5-1.7-0.5c-0.9,10-2,15.4-3.2,16.2c0.3,0.6,0.8,1,1.4,1.1
		C74.4,200.5,75.5,194.9,76.5,185.4"/>
	<path class="st9" d="M75.3,181.7c-0.7,3.3-1,5-1,5c3.9-1.1,6.2-2,7-2.7C78.5,181.8,76.5,181,75.3,181.7"/>
	<path class="st6" d="M58,193.2c0.9,2.2,2.2,4.1,3.6,5.5c2.6,2.5,6.2,2.8,6.8,1.3c0.5-1.3,1.3-2.8,4-6c0.8-0.9,1.1-2.2,1.1-4
		c-0.1-1.6,0.2-2.6,1.7-3.6c1.1-0.7,1.5-2.3,1.1-4.7c-0.5,0.1-0.9,0.1-1.4-0.1c-0.3,0-0.6-0.1-0.8-0.1h-0.4h-0.5c-0.3,0-0.5,0-0.8,0
		l-0.7-0.1l-0.6-0.1c-0.3,0-0.6-0.1-0.9-0.2c-0.2-0.1-0.5-0.1-0.7-0.2h-0.1h-0.1c-0.3,0-0.5-0.1-0.8-0.2l-0.4-0.1h0.2
		c-0.3,0-0.5-0.1-0.8-0.1c-0.1,0-0.3,0-0.4-0.1c-0.3,0-0.5-0.1-0.7-0.2l-0.2-0.1h0.2c-0.3,0-0.6-0.1-0.9-0.2l0,0h-0.1
		c-0.3,0-0.6,0-1-0.1h-0.5c-0.3,0-0.6-0.1-0.8-0.1c-0.3-0.1-0.6-0.2-0.9-0.3c-0.7-0.3-1.2-0.7-1.6-1.3c-1.9,2.2-2.9,5.1-2.7,8.1
		C56.7,189.2,56.9,189.9,58,193.2"/>
	<path class="st10" d="M65.4,171L65.4,171L65.4,171L65.4,171z M59.4,185.8c-0.1,1.6-1.9,3.3-2.1,1.9c-0.3-3.6-0.4-6.6-0.2-9.1
		c0.2,0,0.5-0.1,0.7-0.2c0.3,0,0.5-0.1,0.7-0.2c0.5,0,0.9-0.1,1.4-0.3H60c0.3-0.1,0.7-0.2,1-0.4c0.1,0,0.1-0.1,0.2-0.1
		c0.2,0,0.3-0.1,0.5-0.1c0.1,0,0.3,0,0.4-0.1l0.4-0.1l0,0c0.2,0,0.3,0,0.4,0h0.4c-0.4,0.7-0.5,1.5-0.2,2.3c0.4,1-0.5,1.7-2.5,2.2
		C59.6,182,59.5,183.1,59.4,185.8z"/>
	<path class="st6" d="M55.3,186.5c-0.2-1.3-0.7-2.4-1.6-3.3c-0.7-0.7-0.7-1.7-0.3-2.5s1.2-1.4,2.1-1.5c0.9-0.1,1.8,0.3,2.3,1.1
		c1.5,2.2,1.2,5.1-0.8,6.9c-0.3,0.2-0.7,0.3-1.1,0.2C55.6,187.2,55.4,186.8,55.3,186.5"/>
	<path class="st11" d="M53.9,183c1.6,0.2,2.4,0.3,2.4,0.3c-3.4,10.7-4.4,16.8-3.2,18.2c-0.7,0.4-1.5,0.6-2.3,0.5
		C49.9,199.7,50.9,193.3,53.9,183"/>
	<path class="st12" d="M65.5,182.6c4.3-0.3,9.6-0.1,16,0.5c-0.9-0.9-1.4-2-1.3-3.3c0.4-5.1-2-9.9-6.2-12.7s-9.6-3.2-14.2-0.9
		c-4.5,2.3-6.7,4.8-7.8,11.9c-0.5,3.5-0.7,5.3-0.7,5.3c5.9-1.7,9-2.2,9.5-1.6C63.9,182.4,65.5,182.6,65.5,182.6"/>
	<path class="st13" d="M61,181.5c1.2,0.8,1.8,1.2,1.8,1.2s-3.2,0.7-9.5,2c-0.6,0.1-1-0.2-1.7-0.9C57.8,182.3,61,181.5,61,181.5"/>
	<path class="st14" d="M50.6,183c0,0.6,0.3,0.9,0.8,1c0,0,3-0.9,8.3-1.9c0.7-0.2,1.2-0.1,1.6,0.1c2.8,1.4,2.3,1.1,6.6,0.9
		c5.8-0.1,10.4,0.3,13.8,1.1c0.3-0.4,0.1-1-0.3-1.3c-4-0.8-8.5-1.2-13.4-1.1c-3.9,0-3.6,0.4-5.3-0.5c6.3-0.6,12.4-0.3,18.3,0.8
		c0.2,0,0.3-0.1,0.3-0.3s-0.1-0.3-0.3-0.3c-6.6-1.3-13.1-1.5-19.5-0.8c-1-0.4-1.6-0.3-2.1-0.2C56.4,181.4,53.5,182.2,50.6,183"/>
	<polygon class="st15" points="55.2,176.4 55.8,177.8 57.4,177.5 56.2,178.6 56.9,180 55.6,179.1 54.5,180.3 54.8,178.8 53.4,178.1 
		55,177.9 	"/>
	<rect x="91.1" y="194" class="st16" width="9.3" height="4.9"/>
	<path class="st17" d="M75.1,191.8h1.3c0.2,0,0.3,0.1,0.3,0.3v0.8h5.6c0.3,0,0.5,0.2,0.5,0.5v1.7c0,0.3-0.2,0.5-0.5,0.5h-7.8
		c-0.3,0-0.5-0.2-0.5-0.5v-1.7c0-0.3,0.2-0.5,0.5-0.5h0.3v-0.8C74.8,192,75,191.8,75.1,191.8"/>
	<path class="st18" d="M73.9,197.6c3.6,0.2,5.4,0.3,5.4,0.3c-0.1,1.7-1,3.2-2.4,4.1c0,0-6.3,4-18.9,12c-1.6,1-2.2,0.8-2.6-0.3
		c0,0-0.9-2.2-2.7-6.5c-0.3-0.8-0.3-1.2,0.2-1.4C66.8,200.3,73.9,197.6,73.9,197.6"/>
	<path class="st19" d="M90.3,192.8h32.4h2.1V190c0-0.3,0.2-0.6,0.5-0.6s0.5,0.3,0.5,0.6v2.8h1.3h4.4c0.7,0,1.2,0.5,1.2,1.2
		s-0.5,1.2-1.2,1.2h-4.3l0,0H95.8l-2.2,18c0,0.3-0.4,0.6-0.7,0.6h-3.5c-0.3,0-0.6-0.3-0.6-0.6l0.9-7.6H78.1v-3.1H76
		c-1.7,0-2.1,0-2.1-1.1v-1.3h16.6l0.6-5h-0.7c-0.3,0-0.6-0.3-0.6-0.7v-1.1C89.7,193.1,90,192.8,90.3,192.8"/>
	<path class="st16" d="M72.5,194H90c0.7,0,1.2,0.6,1.2,1.2v4.3c0,0.7-0.6,1.2-1.2,1.2H72.5c-0.7,0-1.2-0.6-1.2-1.2v-4.3
		C71.3,194.6,71.8,194,72.5,194"/>
	<path class="st20" d="M65.5,211.6c-0.9,0.7-1,1.2-1,1.2c21.2,14.6,35.5,14.5,51.8-13c-1.8,0-3.4-0.2-3.4-0.2
		C97.6,225.2,85.4,224.3,65.5,211.6"/>
	<path class="st18" d="M97.5,195h24c0.3,0,0.6,0.3,0.6,0.6v4.4c0,0.3-0.3,0.6-0.6,0.6h-24c-0.3,0-0.6-0.3-0.6-0.6v-4.4
		C96.9,195.3,97.2,195,97.5,195"/>
	<path class="st4" d="M37.6,221c9.7-4.1,14.5-6.1,14.5-6.1s-1.4-4.2-4.2-12.5c-0.8-2.7-4.3-3.9-7.3-3.4c-3,0.6-6,3-5.5,5.8
		C36.8,215.7,37.6,221,37.6,221"/>
	<path class="st3" d="M53.4,214.8c-7.7,5.8-7.3,11.4-6.1,13.7c-2.9,2.5-6.1-0.8-8.8-4.6c-2-2.8-1.2-4.4,0.4-6
		c2.8-2.8,6.3-4.6,10.1-5.3C51.3,212.1,52.2,211.8,53.4,214.8"/>
	<path class="st21" d="M98.6,202c0.5,2.1,3.5,1.6,8.1-0.9c1.6-0.9,1.7-2.6,0.8-5.6c-0.6-2-3.9-2.1-6.4-0.8c-2.2,1-3.2,3.1-3.1,4.5
		C98.4,201.1,98.6,202,98.6,202"/>
	<polygon class="st3" points="37.9,198.5 48.2,196.7 51,199 40.7,200.7 	"/>
	<path class="st22" d="M48.4,230.2h30.9c0.7,0,1.3,0.6,1.4,1.3l0.3,3.2c0.1,0.7-0.4,1.3-1.1,1.3h-31c-0.7,0-1.3-0.6-1.4-1.3
		l-0.3-3.2C47.2,230.8,47.7,230.2,48.4,230.2"/>
	<path class="st6" d="M79.3,212.7c1.6,0.4,2.9-0.7,4.4-3.4c1-1.8-0.2-2.1-1.9-3.3c-0.7-0.5-0.6-0.7,0.3-0.5c0,0,1.5,0.4,4.5,1.1
		c0.5,0.1,0.9-0.6,1-1.1c0.2-0.5,0.2-1.3-0.3-1.5c-0.7-0.2-1.7-0.5-6.1-1.7c-1.7-0.4-3.4,0-4.4,0.3c0,0-3.5,1-7.9,2.9
		c0,0-8.4,4-25.4,11.9c-3.1,1.4-2.8,6.5-0.5,9.3c2.3,2.7,3.8,3.3,8.7,0.1c9.5-6.3,20.6-14.2,20.6-14.2c1-0.7,1.5-1,1.5-1
		C77.5,212.3,79.3,212.7,79.3,212.7"/>
	<path class="st23" d="M68.1,330.6h24.3c0.3,0,0.6,0.3,0.6,0.6v1.6c0,0.3-0.3,0.6-0.6,0.6H68.1c-0.3,0-0.6-0.3-0.6-0.6v-1.6
		C67.5,330.9,67.8,330.6,68.1,330.6"/>
	<path class="st24" d="M46.2,320.2l6.2-0.3c0.2,0,0.4,0.2,0.4,0.4l0,0c0,0.2-0.2,0.4-0.4,0.4l-6.2,0.3c-0.2,0-0.4-0.2-0.4-0.4l0,0
		C45.8,320.4,46,320.3,46.2,320.2"/>
	<path class="st24" d="M46.5,322l5.8-0.2c0.2,0,0.4,0.2,0.4,0.4l0,0c0,0.2-0.2,0.4-0.4,0.4l-5.8,0.2c-0.2,0-0.4-0.2-0.4-0.4l0,0
		C46.1,322.2,46.3,322,46.5,322"/>
	<path class="st24" d="M46.7,323.6l5.3-0.2c0.2,0,0.4,0.2,0.4,0.4l0,0c0,0.2-0.2,0.4-0.4,0.4l-5.3,0.2c-0.2,0-0.4-0.2-0.4-0.4l0,0
		C46.3,323.8,46.5,323.7,46.7,323.6"/>
	<path class="st24" d="M47,325.3l4.7-0.2c0.2,0,0.4,0.2,0.4,0.4l0,0c0,0.2-0.2,0.4-0.4,0.4l-4.7,0.2c-0.2,0-0.4-0.2-0.4-0.4l0,0
		C46.6,325.5,46.8,325.3,47,325.3"/>
	<path class="st24" d="M47.3,326.9l4.2-0.2c0.2,0,0.4,0.2,0.4,0.4l0,0c0,0.2-0.2,0.4-0.4,0.4l-4.2,0.2c-0.2,0-0.4-0.2-0.4-0.4l0,0
		C46.9,327.1,47.1,326.9,47.3,326.9"/>
	<path class="st24" d="M47.5,328.5l3.9-0.2c0.2,0,0.4,0.2,0.4,0.4l0,0c0,0.2-0.2,0.4-0.4,0.4l-3.9,0.2c-0.2,0-0.4-0.2-0.4-0.4l0,0
		C47.1,328.7,47.3,328.5,47.5,328.5"/>
	<path class="st24" d="M47.8,330.1l3.4-0.1c0.2,0,0.4,0.2,0.4,0.4l0,0c0,0.2-0.2,0.4-0.4,0.4l-3.4,0.1c-0.2,0-0.4-0.2-0.4-0.4l0,0
		C47.4,330.3,47.6,330.1,47.8,330.1"/>
	<path class="st24" d="M48.1,331.6l2.8-0.1c0.2,0,0.4,0.2,0.4,0.4l0,0c0,0.2-0.2,0.4-0.4,0.4l-2.8,0.1c-0.2,0-0.4-0.2-0.4-0.4l0,0
		C47.7,331.8,47.9,331.6,48.1,331.6"/>
	<path class="st24" d="M48.3,333.3l2.5-0.1c0.2,0,0.4,0.2,0.4,0.4l0,0c0,0.2-0.2,0.4-0.4,0.4l-2.5,0.1c-0.2,0-0.4-0.2-0.4-0.4l0,0
		C47.9,333.5,48,333.3,48.3,333.3"/>
	<path class="st24" d="M74.2,314l2.5-0.2c0.2,0,0.4,0.2,0.4,0.4l0,0c0,0.2-0.2,0.4-0.4,0.4l-2.5,0.2c-0.2,0-0.4-0.2-0.4-0.4l0,0
		C73.8,314.2,74,314,74.2,314"/>
	<path class="st24" d="M74.3,315.5l2.5-0.2c0.2,0,0.4,0.2,0.4,0.4l0,0c0,0.2-0.2,0.4-0.4,0.4l-2.5,0.2c-0.2,0-0.4-0.2-0.4-0.4l0,0
		C73.9,315.7,74.1,315.5,74.3,315.5"/>
	<path class="st24" d="M74.2,316.9l2.5-0.2c0.2,0,0.4,0.2,0.4,0.4l0,0c0,0.2-0.2,0.4-0.4,0.4l-2.5,0.2c-0.2,0-0.4-0.2-0.4-0.4l0,0
		C73.8,317.2,73.9,317,74.2,316.9"/>
	<path class="st24" d="M74.2,318.4l2.5-0.2c0.2,0,0.4,0.2,0.4,0.4l0,0c0,0.2-0.2,0.4-0.4,0.4l-2.5,0.2c-0.2,0-0.4-0.2-0.4-0.4l0,0
		C73.8,318.6,74,318.4,74.2,318.4"/>
	<path class="st24" d="M74.2,319.9l2.5-0.2c0.2,0,0.4,0.2,0.4,0.4l0,0c0,0.2-0.2,0.4-0.4,0.4l-2.5,0.2c-0.2,0-0.4-0.2-0.4-0.4l0,0
		C73.8,320.1,74,319.9,74.2,319.9"/>
	<path class="st24" d="M74.3,321.4l2.5-0.2c0.2,0,0.4,0.2,0.4,0.4l0,0c0,0.2-0.2,0.4-0.4,0.4l-2.5,0.2c-0.2,0-0.4-0.2-0.4-0.4l0,0
		C73.9,321.6,74,321.4,74.3,321.4"/>
	<path class="st24" d="M75.3,324l1.7-1.8c0.2-0.2,0.4-0.2,0.6,0l0,0c0.1,0.2,0.1,0.4,0,0.6l-1.7,1.8c-0.2,0.2-0.4,0.2-0.6,0l0,0
		C75.1,324.4,75.1,324.1,75.3,324"/>
	<path class="st24" d="M76.8,324.7l1.7-1.8c0.2-0.2,0.4-0.2,0.6,0l0,0c0.1,0.2,0.1,0.4,0,0.6l-1.7,1.8c-0.2,0.2-0.4,0.2-0.6,0l0,0
		C76.6,325.1,76.6,324.8,76.8,324.7"/>
	<path class="st24" d="M78.1,325.5l1.7-1.8c0.2-0.2,0.4-0.2,0.6,0l0,0c0.1,0.2,0.1,0.4,0,0.6l-1.7,1.8c-0.2,0.2-0.4,0.2-0.6,0l0,0
		C77.9,325.9,77.9,325.7,78.1,325.5"/>
	<path class="st24" d="M79.6,326.5l1.7-1.8c0.2-0.2,0.4-0.2,0.6,0l0,0c0.1,0.2,0.1,0.4,0,0.6l-1.7,1.8c-0.2,0.2-0.4,0.2-0.6,0l0,0
		C79.4,326.9,79.4,326.6,79.6,326.5"/>
</g>
<polygon class="st25" points="214.4,156.3 366.1,169 365.6,178.2 213.8,165.4 "/>
<polygon class="st26" points="223.9,155.5 227.4,155.8 226.6,168.2 223.1,167.9 "/>
<polygon class="st26" points="268.7,159.2 272.2,159.5 271.5,171.9 268,171.6 "/>
<polygon class="st25" points="352.4,167.9 363.8,164.6 362.7,182.1 351.8,177 "/>
<polygon class="st25" points="199.2,153.4 217.6,154.9 216.8,167.3 198.4,165.8 "/>
<polygon class="st26" points="268.7,159.2 272.2,159.5 271.5,171.9 268,171.6 "/>
<polygon class="st25" points="362.2,161.3 395.5,164.1 383.6,187.1 360.7,185.2 "/>
<rect x="428.6" y="150.9" class="st26" width="68.2" height="3.6"/>
<polygon class="st25" points="528.1,154.5 520.9,154.5 531.2,196.6 546.1,195.4 546.1,187.5 "/>
<polygon class="st25" points="403.4,154.5 520.9,154.5 531.2,196.6 441.3,206.3 374.4,206.3 377.3,194.3 394.4,157.3 "/>
<path class="st27" d="M630.1,219.5H301.3l-7.9,10l1.3,10.9c0,0,1.3,6.8,3.1,15c1.8,8.1,41.6,25.4,41.6,25.4l234,2.7
	c0,0,50.1-23.6,52.8-28.2c2.7-4.6,13.8-24.9,13.8-24.9L630.1,219.5z"/>
<g>
	<g>
		<path class="st28" d="M558.7,294.6c1.1,0,1.9,1.1,1.9,2.4l0,0c0,1.3-0.9,2.3-2,2.2l-7.5-0.3c-1.1,0-1.9-1.1-1.9-2.4l0,0
			c0-1.3,0.9-2.3,2-2.2L558.7,294.6z"/>
		<path class="st28" d="M547.1,294.6c1.1,0,1.9,1.1,1.9,2.4l0,0c0,1.3-0.9,2.3-2,2.2l-7.5-0.3c-1.1,0-1.9-1.1-1.9-2.4l0,0
			c0-1.3,0.9-2.3,2-2.2L547.1,294.6z"/>
		<path class="st28" d="M535.5,294.6c1.1,0,1.9,1.1,1.9,2.4l0,0c0,1.3-0.9,2.3-2,2.2l-7.5-0.3c-1.1,0-1.9-1.1-1.9-2.4l0,0
			c0-1.3,0.9-2.3,2-2.2L535.5,294.6z"/>
		<path class="st28" d="M523.9,294.6c1.1,0,1.9,1.1,1.9,2.4l0,0c0,1.3-0.9,2.3-2,2.2l-7.5-0.3c-1.1,0-1.9-1.1-1.9-2.4l0,0
			c0-1.3,0.9-2.3,2-2.2L523.9,294.6z"/>
		<path class="st28" d="M512.3,294.6c1.1,0,1.9,1.1,1.9,2.4l0,0c0,1.3-0.9,2.3-2,2.2l-7.5-0.3c-1.1,0-1.9-1.1-1.9-2.4l0,0
			c0-1.3,0.9-2.3,2-2.2L512.3,294.6z"/>
		<path class="st28" d="M500.6,294.6c1.1,0,1.9,1.1,1.9,2.4l0,0c0,1.3-0.9,2.3-2,2.2L493,299c-1.1,0-1.9-1.1-1.9-2.4l0,0
			c0-1.3,0.9-2.3,2-2.2L500.6,294.6z"/>
		<path class="st28" d="M489,294.6c1.1,0,1.9,1.1,1.9,2.4l0,0c0,1.3-0.9,2.3-2,2.2l-7.5-0.3c-1.1,0-1.9-1.1-1.9-2.4l0,0
			c0-1.3,0.9-2.3,2-2.2L489,294.6z"/>
		<path class="st28" d="M477.4,294.6c1.1,0,1.9,1.1,1.9,2.4l0,0c0,1.3-0.9,2.3-2,2.2l-7.5-0.3c-1.1,0-1.9-1.1-1.9-2.4l0,0
			c0-1.3,0.9-2.3,2-2.2L477.4,294.6z"/>
		<path class="st28" d="M465.8,294.6c1.1,0,1.9,1.1,1.9,2.4l0,0c0,1.3-0.9,2.3-2,2.2l-7.5-0.3c-1.1,0-1.9-1.1-1.9-2.4l0,0
			c0-1.3,0.9-2.3,2-2.2L465.8,294.6z"/>
		<path class="st28" d="M454.2,294.4c1.1,0,1.9,1.1,1.9,2.3l0,0c0,1.3-0.9,2.3-2,2.2l-7.5-0.3c-1.1,0-1.9-1.1-1.9-2.4l0,0
			c0-1.3,0.9-2.3,2-2.2L454.2,294.4z"/>
		<path class="st28" d="M442.6,294.4c1.1,0,1.9,1.1,1.9,2.3l0,0c0,1.3-0.9,2.3-2,2.2l-7.5-0.3c-1.1,0-1.9-1.1-1.9-2.4l0,0
			c0-1.3,0.9-2.3,2-2.2L442.6,294.4z"/>
		<path class="st28" d="M431,294.4c1.1,0,1.9,1.1,1.9,2.3l0,0c0,1.3-0.9,2.3-2,2.2l-7.5-0.3c-1.1,0-1.9-1.1-1.9-2.4l0,0
			c0-1.3,0.9-2.3,2-2.2L431,294.4z"/>
		<path class="st28" d="M419.4,294.4c1.1,0,1.9,1.1,1.9,2.3l0,0c0,1.3-0.9,2.3-2,2.2l-7.5-0.3c-1.1,0-1.9-1.1-1.9-2.4l0,0
			c0-1.3,0.9-2.3,2-2.2L419.4,294.4z"/>
		<path class="st28" d="M407.8,294.4c1.1,0,1.9,1.1,1.9,2.3l0,0c0,1.3-0.9,2.3-2,2.2l-7.5-0.3c-1.1,0-1.9-1.1-1.9-2.4l0,0
			c0-1.3,0.9-2.3,2-2.2L407.8,294.4z"/>
		<path class="st28" d="M396.2,294.4c1.1,0,1.9,1.1,1.9,2.3l0,0c0,1.3-0.9,2.3-2,2.2l-7.5-0.3c-1.1,0-1.9-1.1-1.9-2.4l0,0
			c0-1.3,0.9-2.3,2-2.2L396.2,294.4z"/>
		<path class="st28" d="M384.5,294.4c1.1,0,1.9,1.1,1.9,2.3l0,0c0,1.3-0.9,2.3-2,2.2l-7.5-0.3c-1.1,0-1.9-1.1-1.9-2.4l0,0
			c0-1.3,0.9-2.3,2-2.2L384.5,294.4z"/>
		<path class="st28" d="M372.9,294.4c1.1,0,1.9,1.1,1.9,2.3l0,0c0,1.3-0.9,2.3-2,2.2l-7.5-0.3c-1.1,0-1.9-1.1-1.9-2.4l0,0
			c0-1.3,0.9-2.3,2-2.2L372.9,294.4z"/>
		<path class="st28" d="M361.3,294.4c1.1,0,1.9,1.1,1.9,2.3l0,0c0,1.3-0.9,2.3-2,2.2l-7.5-0.3c-1.1,0-1.9-1.1-1.9-2.4l0,0
			c0-1.3,0.9-2.3,2-2.2L361.3,294.4z"/>
	</g>
	<g>
		<path class="st28" d="M578.8,301.1c0.8-0.8,2.1-0.7,2.8,0.3l0,0c0.7,1,0.6,2.4-0.3,3.2l-5.8,5.5c-0.8,0.8-2.1,0.7-2.8-0.3l0,0
			c-0.7-1-0.6-2.4,0.3-3.2L578.8,301.1z"/>
		<path class="st28" d="M345.2,300.8c-0.8-0.8-2.1-0.7-2.8,0.3l0,0c-0.7,1-0.6,2.4,0.3,3.2l5.8,5.5c0.8,0.8,2.1,0.7,2.8-0.3l0,0
			c0.7-1,0.6-2.4-0.3-3.2L345.2,300.8z"/>
		<path class="st28" d="M570.3,307.8c1.1,0,1.9,1.1,1.9,2.4l0,0c0,1.3-0.9,2.3-2,2.2l-7.5-0.3c-1.1,0-1.9-1.1-1.9-2.4l0,0
			c0-1.3,0.9-2.3,2-2.2L570.3,307.8z"/>
		<path class="st28" d="M558.7,307.8c1.1,0,1.9,1.1,1.9,2.4l0,0c0,1.3-0.9,2.3-2,2.2l-7.5-0.3c-1.1,0-1.9-1.1-1.9-2.4l0,0
			c0-1.3,0.9-2.3,2-2.2L558.7,307.8z"/>
		<path class="st28" d="M547.1,307.8c1.1,0,1.9,1.1,1.9,2.4l0,0c0,1.3-0.9,2.3-2,2.2l-7.5-0.3c-1.1,0-1.9-1.1-1.9-2.4l0,0
			c0-1.3,0.9-2.3,2-2.2L547.1,307.8z"/>
		<path class="st28" d="M535.5,307.8c1.1,0,1.9,1.1,1.9,2.4l0,0c0,1.3-0.9,2.3-2,2.2l-7.5-0.3c-1.1,0-1.9-1.1-1.9-2.4l0,0
			c0-1.3,0.9-2.3,2-2.2L535.5,307.8z"/>
		<path class="st28" d="M523.9,307.8c1.1,0,1.9,1.1,1.9,2.4l0,0c0,1.3-0.9,2.3-2,2.2l-7.5-0.3c-1.1,0-1.9-1.1-1.9-2.4l0,0
			c0-1.3,0.9-2.3,2-2.2L523.9,307.8z"/>
		<path class="st28" d="M512.3,307.8c1.1,0,1.9,1.1,1.9,2.4l0,0c0,1.3-0.9,2.3-2,2.2l-7.5-0.3c-1.1,0-1.9-1.1-1.9-2.4l0,0
			c0-1.3,0.9-2.3,2-2.2L512.3,307.8z"/>
		<path class="st28" d="M500.6,307.8c1.1,0,1.9,1.1,1.9,2.4l0,0c0,1.3-0.9,2.3-2,2.2l-7.5-0.3c-1.1,0-1.9-1.1-1.9-2.4l0,0
			c0-1.3,0.9-2.3,2-2.2L500.6,307.8z"/>
		<path class="st28" d="M489,307.8c1.1,0,1.9,1.1,1.9,2.4l0,0c0,1.3-0.9,2.3-2,2.2l-7.5-0.3c-1.1,0-1.9-1.1-1.9-2.4l0,0
			c0-1.3,0.9-2.3,2-2.2L489,307.8z"/>
		<path class="st28" d="M477.4,307.8c1.1,0,1.9,1.1,1.9,2.4l0,0c0,1.3-0.9,2.3-2,2.2l-7.5-0.3c-1.1,0-1.9-1.1-1.9-2.4l0,0
			c0-1.3,0.9-2.3,2-2.2L477.4,307.8z"/>
		<path class="st28" d="M465.8,307.8c1.1,0,1.9,1.1,1.9,2.4l0,0c0,1.3-0.9,2.3-2,2.2l-7.5-0.3c-1.1,0-1.9-1.1-1.9-2.4l0,0
			c0-1.3,0.9-2.3,2-2.2L465.8,307.8z"/>
		<path class="st28" d="M454.2,307.8c1.1,0,1.9,1.1,1.9,2.4l0,0c0,1.3-0.9,2.3-2,2.2l-7.5-0.3c-1.1,0-1.9-1.1-1.9-2.4l0,0
			c0-1.3,0.9-2.3,2-2.2L454.2,307.8z"/>
		<path class="st28" d="M442.6,307.8c1.1,0,1.9,1.1,1.9,2.4l0,0c0,1.3-0.9,2.3-2,2.2l-7.5-0.3c-1.1,0-1.9-1.1-1.9-2.4l0,0
			c0-1.3,0.9-2.3,2-2.2L442.6,307.8z"/>
		<path class="st28" d="M431,307.8c1.1,0,1.9,1.1,1.9,2.4l0,0c0,1.3-0.9,2.3-2,2.2l-7.5-0.3c-1.1,0-1.9-1.1-1.9-2.4l0,0
			c0-1.3,0.9-2.3,2-2.2L431,307.8z"/>
		<path class="st28" d="M419.4,307.8c1.1,0,1.9,1.1,1.9,2.4l0,0c0,1.3-0.9,2.3-2,2.2l-7.5-0.3c-1.1,0-1.9-1.1-1.9-2.4l0,0
			c0-1.3,0.9-2.3,2-2.2L419.4,307.8z"/>
		<path class="st28" d="M407.8,307.8c1.1,0,1.9,1.1,1.9,2.4l0,0c0,1.3-0.9,2.3-2,2.2l-7.5-0.3c-1.1,0-1.9-1.1-1.9-2.4l0,0
			c0-1.3,0.9-2.3,2-2.2L407.8,307.8z"/>
		<path class="st28" d="M396.2,307.8c1.1,0,1.9,1.1,1.9,2.4l0,0c0,1.3-0.9,2.3-2,2.2l-7.5-0.3c-1.1,0-1.9-1.1-1.9-2.4l0,0
			c0-1.3,0.9-2.3,2-2.2L396.2,307.8z"/>
		<path class="st28" d="M384.5,307.8c1.1,0,1.9,1.1,1.9,2.4l0,0c0,1.3-0.9,2.3-2,2.2l-7.5-0.3c-1.1,0-1.9-1.1-1.9-2.4l0,0
			c0-1.3,0.9-2.3,2-2.2L384.5,307.8z"/>
		<path class="st28" d="M372.9,307.8c1.1,0,1.9,1.1,1.9,2.4l0,0c0,1.3-0.9,2.3-2,2.2l-7.5-0.3c-1.1,0-1.9-1.1-1.9-2.4l0,0
			c0-1.3,0.9-2.3,2-2.2L372.9,307.8z"/>
		<path class="st28" d="M361.3,307.8c1.1,0,1.9,1.1,1.9,2.4l0,0c0,1.3-0.9,2.3-2,2.2l-7.5-0.3c-1.1,0-1.9-1.1-1.9-2.4l0,0
			c0-1.3,0.9-2.3,2-2.2L361.3,307.8z"/>
		<g>
			<path class="st28" d="M623.6,257.6c0.7-0.9,2-1,2.8-0.1l0,0c0.8,0.9,0.8,2.3,0.1,3.2l-5.1,6.4c-0.7,0.9-2,1-2.8,0.1l0,0
				c-0.8-0.9-0.8-2.3-0.1-3.2L623.6,257.6z"/>
			<path class="st28" d="M616,267.7c0.8-0.8,2.1-0.8,2.8,0.2l0,0c0.7,0.9,0.7,2.4-0.2,3.2l-5.6,5.8c-0.8,0.8-2.1,0.8-2.8-0.2l0,0
				c-0.7-0.9-0.7-2.4,0.2-3.2L616,267.7z"/>
			<path class="st28" d="M606.5,275.9c0.7-0.9,2-1,2.8-0.1l0,0c0.8,0.9,0.8,2.3,0.1,3.2l-5.1,6.4c-0.7,0.9-2,1-2.8,0.1l0,0
				c-0.8-0.9-0.8-2.3-0.1-3.2L606.5,275.9z"/>
			<path class="st28" d="M597.7,285.3c0.8-0.8,2.1-0.7,2.8,0.3l0,0c0.7,1,0.6,2.4-0.3,3.2l-5.8,5.5c-0.8,0.8-2.1,0.7-2.8-0.3l0,0
				c-0.7-1-0.6-2.4,0.3-3.2L597.7,285.3z"/>
			<path class="st28" d="M588.5,293.6c0.8-0.8,2.1-0.7,2.8,0.3l0,0c0.7,1,0.6,2.4-0.3,3.2l-5.8,5.5c-0.8,0.8-2.1,0.7-2.8-0.3l0,0
				c-0.7-1-0.6-2.4,0.3-3.2L588.5,293.6z"/>
			<path class="st28" d="M300.4,257.3c-0.7-0.9-2-1-2.8-0.1l0,0c-0.8,0.9-0.8,2.3-0.1,3.2l5.1,6.4c0.7,0.9,2,1,2.8,0.1l0,0
				c0.8-0.9,0.8-2.3,0.1-3.2L300.4,257.3z"/>
			<path class="st28" d="M308.1,267.4c-0.8-0.8-2.1-0.8-2.8,0.2l0,0c-0.7,0.9-0.7,2.4,0.2,3.2l5.6,5.8c0.8,0.8,2.1,0.8,2.8-0.2l0,0
				c0.7-0.9,0.7-2.4-0.2-3.2L308.1,267.4z"/>
			<path class="st28" d="M317.5,275.7c-0.7-0.9-2-1-2.8-0.1l0,0c-0.8,0.9-0.8,2.3-0.1,3.2l5.1,6.4c0.7,0.9,2,1,2.8,0.1l0,0
				c0.8-0.9,0.8-2.3,0.1-3.2L317.5,275.7z"/>
			<path class="st28" d="M326.4,285c-0.8-0.8-2.1-0.7-2.8,0.3l0,0c-0.7,1-0.6,2.4,0.3,3.2l5.8,5.5c0.8,0.8,2.1,0.7,2.8-0.3l0,0
				c0.7-1,0.6-2.4-0.3-3.2L326.4,285z"/>
			<path class="st28" d="M335.5,293.4c-0.8-0.8-2.1-0.7-2.8,0.3l0,0c-0.7,1-0.6,2.4,0.3,3.2l5.8,5.5c0.8,0.8,2.1,0.7,2.8-0.3l0,0
				c0.7-1,0.6-2.4-0.3-3.2L335.5,293.4z"/>
			<path class="st28" d="M570.3,221.1c1.1,0,1.9,1.1,1.9,2.4l0,0c0,1.3-0.9,2.3-2,2.2l-7.5-0.3c-1.1,0-1.9-1.1-1.9-2.4l0,0
				c0-1.3,0.9-2.3,2-2.2L570.3,221.1z"/>
			<path class="st28" d="M581.8,221.1c1.1,0,1.9,1.1,1.9,2.4l0,0c0,1.3-0.9,2.3-2,2.2l-7.5-0.3c-1.1,0-1.9-1.1-1.9-2.4l0,0
				c0-1.3,0.9-2.3,2-2.2L581.8,221.1z"/>
			<path class="st28" d="M593.2,221.1c1.1,0,1.9,1.1,1.9,2.4l0,0c0,1.3-0.9,2.3-2,2.2l-7.5-0.3c-1.1,0-1.9-1.1-1.9-2.4l0,0
				c0-1.3,0.9-2.3,2-2.2L593.2,221.1z"/>
			<path class="st28" d="M604.7,221.1c1.1,0,1.9,1.1,1.9,2.4l0,0c0,1.3-0.9,2.3-2,2.2l-7.5-0.3c-1.1,0-1.9-1.1-1.9-2.4l0,0
				c0-1.3,0.9-2.3,2-2.2L604.7,221.1z"/>
			<path class="st28" d="M558.7,221.1c1.1,0,1.9,1.1,1.9,2.4l0,0c0,1.3-0.9,2.3-2,2.2l-7.5-0.3c-1.1,0-1.9-1.1-1.9-2.4l0,0
				c0-1.3,0.9-2.3,2-2.2L558.7,221.1z"/>
			<path class="st28" d="M547.1,221.1c1.1,0,1.9,1.1,1.9,2.4l0,0c0,1.3-0.9,2.3-2,2.2l-7.5-0.3c-1.1,0-1.9-1.1-1.9-2.4l0,0
				c0-1.3,0.9-2.3,2-2.2L547.1,221.1z"/>
			<path class="st28" d="M535.5,221.1c1.1,0,1.9,1.1,1.9,2.4l0,0c0,1.3-0.9,2.3-2,2.2l-7.5-0.3c-1.1,0-1.9-1.1-1.9-2.4l0,0
				c0-1.3,0.9-2.3,2-2.2L535.5,221.1z"/>
			<path class="st28" d="M523.9,221.1c1.1,0,1.9,1.1,1.9,2.4l0,0c0,1.3-0.9,2.3-2,2.2l-7.5-0.3c-1.1,0-1.9-1.1-1.9-2.4l0,0
				c0-1.3,0.9-2.3,2-2.2L523.9,221.1z"/>
			<path class="st28" d="M512.3,221.1c1.1,0,1.9,1.1,1.9,2.4l0,0c0,1.3-0.9,2.3-2,2.2l-7.5-0.3c-1.1,0-1.9-1.1-1.9-2.4l0,0
				c0-1.3,0.9-2.3,2-2.2L512.3,221.1z"/>
			<path class="st28" d="M500.6,221.1c1.1,0,1.9,1.1,1.9,2.4l0,0c0,1.3-0.9,2.3-2,2.2l-7.5-0.3c-1.1,0-1.9-1.1-1.9-2.4l0,0
				c0-1.3,0.9-2.3,2-2.2L500.6,221.1z"/>
			<path class="st28" d="M489,221.1c1.1,0,1.9,1.1,1.9,2.4l0,0c0,1.3-0.9,2.3-2,2.2l-7.5-0.3c-1.1,0-1.9-1.1-1.9-2.4l0,0
				c0-1.3,0.9-2.3,2-2.2L489,221.1z"/>
			<path class="st28" d="M477.4,221.1c1.1,0,1.9,1.1,1.9,2.4l0,0c0,1.3-0.9,2.3-2,2.2l-7.5-0.3c-1.1,0-1.9-1.1-1.9-2.4l0,0
				c0-1.3,0.9-2.3,2-2.2L477.4,221.1z"/>
			<path class="st28" d="M465.8,221.1c1.1,0,1.9,1.1,1.9,2.4l0,0c0,1.3-0.9,2.3-2,2.2l-7.5-0.3c-1.1,0-1.9-1.1-1.9-2.4l0,0
				c0-1.3,0.9-2.3,2-2.2L465.8,221.1z"/>
			<path class="st28" d="M454.2,221.1c1.1,0,1.9,1.1,1.9,2.4l0,0c0,1.3-0.9,2.3-2,2.2l-7.5-0.3c-1.1,0-1.9-1.1-1.9-2.4l0,0
				c0-1.3,0.9-2.3,2-2.2L454.2,221.1z"/>
			<path class="st28" d="M442.6,221.1c1.1,0,1.9,1.1,1.9,2.4l0,0c0,1.3-0.9,2.3-2,2.2l-7.5-0.3c-1.1,0-1.9-1.1-1.9-2.4l0,0
				c0-1.3,0.9-2.3,2-2.2L442.6,221.1z"/>
			<path class="st28" d="M431,221.1c1.1,0,1.9,1.1,1.9,2.4l0,0c0,1.3-0.9,2.3-2,2.2l-7.5-0.3c-1.1,0-1.9-1.1-1.9-2.4l0,0
				c0-1.3,0.9-2.3,2-2.2L431,221.1z"/>
			<path class="st28" d="M419.4,221.1c1.1,0,1.9,1.1,1.9,2.4l0,0c0,1.3-0.9,2.3-2,2.2l-7.5-0.3c-1.1,0-1.9-1.1-1.9-2.4l0,0
				c0-1.3,0.9-2.3,2-2.2L419.4,221.1z"/>
			<path class="st28" d="M407.8,221.1c1.1,0,1.9,1.1,1.9,2.4l0,0c0,1.3-0.9,2.3-2,2.2l-7.5-0.3c-1.1,0-1.9-1.1-1.9-2.4l0,0
				c0-1.3,0.9-2.3,2-2.2L407.8,221.1z"/>
			<path class="st28" d="M396.2,221.1c1.1,0,1.9,1.1,1.9,2.4l0,0c0,1.3-0.9,2.3-2,2.2l-7.5-0.3c-1.1,0-1.9-1.1-1.9-2.4l0,0
				c0-1.3,0.9-2.3,2-2.2L396.2,221.1z"/>
			<path class="st28" d="M384.5,221.1c1.1,0,1.9,1.1,1.9,2.4l0,0c0,1.3-0.9,2.3-2,2.2l-7.5-0.3c-1.1,0-1.9-1.1-1.9-2.4l0,0
				c0-1.3,0.9-2.3,2-2.2L384.5,221.1z"/>
			<path class="st28" d="M372.9,221.1c1.1,0,1.9,1.1,1.9,2.4l0,0c0,1.3-0.9,2.3-2,2.2l-7.5-0.3c-1.1,0-1.9-1.1-1.9-2.4l0,0
				c0-1.3,0.9-2.3,2-2.2L372.9,221.1z"/>
			<path class="st28" d="M361.3,221.1c1.1,0,1.9,1.1,1.9,2.4l0,0c0,1.3-0.9,2.3-2,2.2l-7.5-0.3c-1.1,0-1.9-1.1-1.9-2.4l0,0
				c0-1.3,0.9-2.3,2-2.2L361.3,221.1z"/>
			<path class="st28" d="M349.4,221.1c1.1,0,1.9,1.1,1.9,2.4l0,0c0,1.3-0.9,2.3-2,2.2l-7.5-0.3c-1.1,0-1.9-1.1-1.9-2.4l0,0
				c0-1.3,0.9-2.3,2-2.2L349.4,221.1z"/>
			<path class="st28" d="M337.5,221.1c1.1,0,1.9,1.1,1.9,2.4l0,0c0,1.3-0.9,2.3-2,2.2l-7.5-0.3c-1.1,0-1.9-1.1-1.9-2.4l0,0
				c0-1.3,0.9-2.3,2-2.2L337.5,221.1z"/>
			<path class="st28" d="M325.7,221.1c1.1,0,1.9,1.1,1.9,2.4l0,0c0,1.3-0.9,2.3-2,2.2l-7.5-0.3c-1.1,0-1.9-1.1-1.9-2.4l0,0
				c0-1.3,0.9-2.3,2-2.2L325.7,221.1z"/>
			<path class="st28" d="M313.8,221.1c1.1,0,1.9,1.1,1.9,2.4l0,0c0,1.3-0.9,2.3-2,2.2l-7.5-0.3c-1.1,0-1.9-1.1-1.9-2.4l0,0
				c0-1.3,0.9-2.3,2-2.2L313.8,221.1z"/>
		</g>
		<path class="st28" d="M295.6,244.6c0,0,0.5,2.7,2.3,10.9c1.8,8.1,18.4,25.4,28.1,33.1c9.6,7.7,26.6,21,26.6,21h220.6
			c0,0,52.4-47.2,55.1-51.8c2.7-4.6,5-18.5,5-18.5L618,221H306.3l-6.8,9.1L295.6,244.6z M309.5,259.6l3.4-36.3l300,2.4l2.1,34.9
			l-42.9,36.2H351.8L309.5,259.6z"/>
	</g>
</g>
<path class="st26" d="M570.3,294.4c1.1,0,1.9,1.1,1.9,2.3l0,0c0,1.3-0.9,2.3-2,2.2l-7.5-0.3c-1.1,0-1.9-1.1-1.9-2.4l0,0
	c0-1.3,0.9-2.3,2-2.2L570.3,294.4z"/>
<polygon class="st25" points="301.2,214.6 303.9,209.3 322.5,208.9 335.6,202.8 376.4,204.7 382,200.1 491.1,200.9 495.1,194.4 
	522.9,194.4 546.1,187.5 595.4,186.4 598.7,188.4 621.3,190.4 626.8,194 625.3,202.4 628.2,206.2 628.2,216.9 "/>
<path class="st29" d="M293.5,229.5c0,0,5.3-7,7.9-10h328.9l8.6,12.4l2.2-2.9l-10.8-15.3H299.9l-10.3,12.8L293.5,229.5z"/>
<g>
	<path class="st25" d="M317.4,227.5c9.9,0,17.9,9.3,17.9,20.8c0,11.5-8,20.8-17.9,20.8s-17.9-9.3-17.9-20.8
		C299.5,236.8,307.5,227.5,317.4,227.5z"/>
	<path class="st27" d="M317.4,234.9c6.4,0,11.5,6,11.5,13.4s-5.2,13.4-11.5,13.4s-11.5-6-11.5-13.4S311,234.9,317.4,234.9z"/>
	<path class="st30" d="M317.4,243.2c2.5,0,4.5,2.3,4.5,5.2s-2,5.2-4.5,5.2s-4.5-2.3-4.5-5.2S314.9,243.2,317.4,243.2z"/>
</g>
<g>
	<path class="st25" d="M610.8,225.6c9.7,0,17.5,9.1,17.5,20.3s-7.8,20.3-17.5,20.3s-17.5-9.1-17.5-20.3S601.1,225.6,610.8,225.6z"/>
	<path class="st27" d="M610.8,232.8c6.2,0,11.3,5.8,11.3,13.1c0,7.2-5,13-11.3,13c-6.2,0-11.3-5.8-11.3-13
		C599.5,238.6,604.5,232.8,610.8,232.8z"/>
	<path class="st30" d="M610.8,240.8c2.4,0,4.3,2.3,4.3,5c0,2.8-1.9,5-4.3,5s-4.3-2.3-4.3-5S608.4,240.8,610.8,240.8z"/>
</g>
<path class="st25" d="M356.9,260.6c9.7,0,17.5,9.1,17.5,20.3c0,11.2-7.8,20.3-17.5,20.3s-17.5-9.1-17.5-20.3
	C339.4,269.6,347.2,260.6,356.9,260.6z"/>
<path class="st27" d="M356.9,267.8c6.2,0,11.3,5.8,11.3,13s-5,13.1-11.3,13.1c-6.2,0-11.3-5.8-11.3-13.1S350.7,267.8,356.9,267.8z"
	/>
<path class="st30" d="M356.9,275.8c2.4,0,4.3,2.3,4.3,5c0,2.8-1.9,5-4.3,5s-4.3-2.3-4.3-5C352.5,278,354.5,275.8,356.9,275.8z"/>
<path class="st25" d="M400.6,263.3c9.7,0,17.5,9.1,17.5,20.3c0,11.2-7.8,20.3-17.5,20.3s-17.5-9.1-17.5-20.3
	C383.1,272.3,390.9,263.2,400.6,263.3z"/>
<path class="st27" d="M400.6,270.5c6.2,0,11.3,5.8,11.3,13s-5,13.1-11.3,13.1s-11.3-5.8-11.3-13.1
	C389.3,276.3,394.4,270.5,400.6,270.5z"/>
<path class="st30" d="M400.6,278.5c2.4,0,4.3,2.3,4.3,5c0,2.8-1.9,5-4.3,5s-4.3-2.3-4.3-5C396.2,280.7,398.2,278.5,400.6,278.5z"/>
<path class="st25" d="M439.4,263.3c9.7,0,17.5,9.1,17.5,20.3c0,11.2-7.8,20.3-17.5,20.3s-17.5-9.1-17.5-20.3
	C421.9,272.3,429.7,263.2,439.4,263.3z"/>
<path class="st27" d="M439.4,270.5c6.2,0,11.3,5.8,11.3,13s-5,13.1-11.3,13.1s-11.3-5.8-11.3-13.1
	C428.1,276.3,433.2,270.5,439.4,270.5z"/>
<path class="st30" d="M439.4,278.5c2.4,0,4.3,2.3,4.3,5c0,2.8-1.9,5-4.3,5s-4.3-2.3-4.3-5C435,280.7,437,278.5,439.4,278.5z"/>
<path class="st25" d="M480.3,263.3c9.7,0,17.5,9.1,17.5,20.3c0,11.2-7.8,20.3-17.5,20.3s-17.5-9.1-17.5-20.3
	C462.8,272.3,470.6,263.2,480.3,263.3z"/>
<path class="st27" d="M480.3,270.5c6.2,0,11.3,5.8,11.3,13s-5,13.1-11.3,13.1s-11.3-5.8-11.3-13.1
	C469,276.3,474.1,270.5,480.3,270.5z"/>
<path class="st30" d="M480.3,278.5c2.4,0,4.3,2.3,4.3,5c0,2.8-1.9,5-4.3,5s-4.3-2.3-4.3-5C475.9,280.7,477.9,278.5,480.3,278.5z"/>
<path class="st25" d="M521.7,263.3c9.7,0,17.5,9.1,17.5,20.3c0,11.2-7.8,20.3-17.5,20.3s-17.5-9.1-17.5-20.3
	C504.2,272.3,512,263.2,521.7,263.3z"/>
<path class="st27" d="M521.7,270.5c6.2,0,11.3,5.8,11.3,13s-5,13.1-11.3,13.1c-6.2,0-11.3-5.8-11.3-13.1
	C510.4,276.3,515.4,270.5,521.7,270.5z"/>
<path class="st30" d="M521.7,278.5c2.4,0,4.3,2.3,4.3,5c0,2.8-1.9,5-4.3,5s-4.3-2.3-4.3-5C517.3,280.7,519.3,278.5,521.7,278.5z"/>
<path class="st25" d="M565,263.3c9.7,0,17.5,9.1,17.5,20.3c0,11.2-7.8,20.3-17.5,20.3s-17.5-9.1-17.5-20.3
	C547.5,272.3,555.3,263.2,565,263.3z"/>
<path class="st27" d="M565,270.5c6.2,0,11.3,5.8,11.3,13s-5,13.1-11.3,13.1s-11.3-5.8-11.3-13.1C553.7,276.3,558.7,270.5,565,270.5z
	"/>
<ellipse class="st30" cx="565" cy="283.5" rx="4.3" ry="5"/>
<path class="st26" d="M551.8,227.5c4.9,0,8.9,4.6,8.9,10.4c0,5.7-4,10.4-8.9,10.4s-8.9-4.6-8.9-10.4
	C542.9,232.2,546.9,227.5,551.8,227.5z"/>
<path class="st27" d="M551.8,231.2c3.2,0,5.8,3,5.8,6.7s-2.6,6.7-5.8,6.7s-5.8-3-5.8-6.7C546.1,234.2,548.6,231.2,551.8,231.2z"/>
<path class="st30" d="M551.8,235.3c1.2,0,2.2,1.2,2.2,2.6s-1,2.6-2.2,2.6s-2.2-1.2-2.2-2.6S550.6,235.3,551.8,235.3z"/>
<path class="st26" d="M506.7,227.5c4.9,0,8.9,4.6,8.9,10.4c0,5.7-4,10.4-8.9,10.4s-8.9-4.6-8.9-10.4
	C497.8,232.2,501.8,227.5,506.7,227.5z"/>
<path class="st27" d="M506.7,231.2c3.2,0,5.8,3,5.8,6.7s-2.6,6.7-5.8,6.7s-5.8-3-5.8-6.7C500.9,234.2,503.5,231.2,506.7,231.2z"/>
<path class="st30" d="M506.7,235.3c1.2,0,2.2,1.2,2.2,2.6s-1,2.6-2.2,2.6s-2.2-1.2-2.2-2.6S505.5,235.3,506.7,235.3z"/>
<path class="st26" d="M467.3,227.5c4.9,0,8.9,4.6,8.9,10.4c0,5.7-4,10.4-8.9,10.4s-8.9-4.6-8.9-10.4
	C458.4,232.2,462.4,227.5,467.3,227.5z"/>
<path class="st27" d="M467.3,231.2c3.2,0,5.8,3,5.8,6.7s-2.6,6.7-5.8,6.7s-5.8-3-5.8-6.7C461.6,234.2,464.1,231.2,467.3,231.2z"/>
<path class="st30" d="M467.3,235.3c1.2,0,2.2,1.2,2.2,2.6s-1,2.6-2.2,2.6s-2.2-1.2-2.2-2.6S466.1,235.3,467.3,235.3z"/>
<ellipse class="st26" cx="424.8" cy="237.9" rx="8.9" ry="10.4"/>
<path class="st27" d="M424.8,231.2c3.2,0,5.8,3,5.8,6.7s-2.6,6.7-5.8,6.7s-5.8-3-5.8-6.7C419.1,234.2,421.6,231.2,424.8,231.2z"/>
<path class="st30" d="M424.8,235.3c1.2,0,2.2,1.2,2.2,2.6s-1,2.6-2.2,2.6s-2.2-1.2-2.2-2.6S423.6,235.3,424.8,235.3z"/>
<path class="st26" d="M384.4,227.5c4.9,0,8.9,4.6,8.9,10.4c0,5.7-4,10.4-8.9,10.4s-8.9-4.6-8.9-10.4
	C375.5,232.2,379.5,227.5,384.4,227.5z"/>
<path class="st27" d="M384.4,231.2c3.2,0,5.8,3,5.8,6.7s-2.6,6.7-5.8,6.7s-5.8-3-5.8-6.7C378.7,234.2,381.3,231.2,384.4,231.2z"/>
<path class="st30" d="M384.4,235.3c1.2,0,2.2,1.2,2.2,2.6s-1,2.6-2.2,2.6s-2.2-1.2-2.2-2.6S383.2,235.3,384.4,235.3z"/>
<g>
	<g>
		<path class="st0" d="M325.2,291.5c-0.5-1.5-1.1-2.9-1.8-4.3c-1.8,0.3-2.6,0.4-2.6,0.4c-1.6,0.6-2.6,2.2-2.3,3.9
			C318.4,291.6,320.7,291.6,325.2,291.5"/>
		<path class="st1" d="M340.2,291.6c1.5-11.5,2.1-17.8,2.1-17.8c-6.9,0.1-10.3,0.2-10.3,0.2c0.6,6.2,0.8,9.3,0.8,9.3
			c-3.8,2.3-5.7,3.4-5.7,3.4c-3.1,0.5-4.6,0.8-4.6,0.8c0.4,3.2,0.6,4.8,0.6,4.8S328.9,292.4,340.2,291.6"/>
		<path class="st2" d="M339,291.7c0,0,0.8-5.6,2.3-16.8c0,0-0.9-0.2-2.8-0.6c-1.7,11.8-2.5,17.7-2.5,17.7S336.9,291.8,339,291.7"/>
		<path class="st1" d="M361.5,299.8c0,0-0.3-3.4-1-10.1c0,0,0.3-4,1-12.1c-6.4,0.4-9.6,0.7-9.6,0.7c0.4,7.6,0.6,11.5,0.6,11.5
			c-0.9,6.1-1.3,9.1-1.3,9.1C352.3,299.7,355.7,300,361.5,299.8"/>
		<path class="st2" d="M357.5,294.7c0,0,0.5-5.5,1.5-16.4c-3.3-0.2-5-0.1-5.2,0.5c0.6,10.4,0.9,15.6,0.9,15.6
			C355.6,294.9,356.6,295,357.5,294.7"/>
		<path class="st31" d="M343.3,272.6c0.1,2.4-0.9,2.6-3.1,2.6c0,0-2.4-0.1-7.1-0.3c-1.5-0.1-1.9-0.9-2.3-5.3
			c-1.5-14.2-2.3-22.6-2.5-25.1c0,0-0.2-3,0.3-16.9c10.1-16.4,14.8-9.1,14.3,21.8C343,261,343.1,268.7,343.3,272.6"/>
		<path class="st31" d="M352.2,279.1c-1.7,0-2-0.7-2.5-2.4c-2.2-8.8-4.5-13.4-5.5-18.8l-5.5-35.7c9.5,1.4,16.7,3.9,20.8,7.6
			l-1.3,21.9c-0.3,4.3,0.6,6.5,4.1,23.3c0.8,3.5,0.1,4.3-2.7,4.2C356.3,279,353.8,279,352.2,279.1"/>
		<path class="st31" d="M333.5,220.3c3.7,3.6,8.5,5.6,13.6,5.8C345.2,212.1,340.7,210.2,333.5,220.3"/>
		<path class="st31" d="M332.8,178.1l-3.5,27.3c-1.3,8.3-2.5,16.4-3.6,24.3c0,0,0.8,0,2.4,0c2.6-1.5,6.9-6.3,12.9-14.4
			c-0.3,2.2,2.2,8.4,7.6,18.5c6.2-0.6,11.8-3.6,15.4-8.4c0,0-1.7-4.9-5-14.7c-0.5-2.9-4.5-4.7-11.9-5.3h10.7l2.5-20.8
			c1.1-1.7,2.4-3.7,3.7-5.9c-2.2-1-5.5-2.2-9.9-3.5l-2.8,6.7L332.8,178.1z"/>
		<polygon class="st3" points="340.8,177.5 331.6,178.4 332.7,176 341.9,175.1 		"/>
		<path class="st4" d="M317.3,187c0,0,2.9-2.5,10-6.5c13-5.8,9.4,0.5,6.2,8.9c-5.9,4.4-10.3,7.4-12.7,7.6
			C320.7,195.3,319.7,191.5,317.3,187"/>
		<path class="st3" d="M328.7,181c0,0,0,0.3-0.1,1c-3.5,1.9-5.3,2.9-5.3,2.9c-1.1-1.5-1.6-2.2-1.6-2.2c1.7-1,2.6-1.4,2.6-1.4
			S325.8,181.2,328.7,181"/>
		<path class="st3" d="M315.4,186.8c5.2-4.4,7.1-0.4,7.1,7.1c-0.1,1.9-0.6,3.1-1.4,3.5c-2,1.1-2.9,1.6-2.9,1.6
			c-1.5,0.7-2.5,0.8-3.3,0.3C315,199.2,315,195.1,315.4,186.8"/>
		<path class="st5" d="M311.2,201.6c-1.8,0.1-3.4-1.4-3.2-4.7l1.4-17.1l5.6-2.6c0.1,0.2,0.3,0.4,0.5,0.4h0.2l1.6,15.8
			C317.8,198.4,315.8,201.1,311.2,201.6"/>
		<path class="st6" d="M314.7,176.4c1,0.8,1.3,1.6,0.9,2.3c-1.1,1.6-2.5,2.2-4.4,1.6C311.3,180.3,312.4,179,314.7,176.4"/>
		<path class="st7" d="M351.2,176c0,0-1.3-1.8-1.1-11.7c-7.6,2.3-10.5,7.7-10.5,7.7c1.1,3.6,0.4,6.3,0.4,6.3c1.5,1.9,4,2.8,6.4,2.3
			C348.9,180.1,350.8,178.3,351.2,176"/>
		<path class="st3" d="M343.7,205.5h-1.1v-20.2h1.1V205.5z M350.7,172.5c1.3,0.9,2,1.6,3.4,2.5c-1.2,6.6-2.7,10.1-6,10.4
			c0,0-1.1-1.7-3.2-5.2C347.8,179.2,349.7,176.6,350.7,172.5z"/>
		<path class="st8" d="M332.6,164.7c0.9,8.3,1.9,13.2,3,14.6c0.5-0.1,0.9-0.5,1.2-1c-1-0.7-2-5.4-2.7-14.1
			C334.1,164.3,333.6,164.4,332.6,164.7"/>
		<path class="st9" d="M333.6,161.5c-1-0.6-2.7,0-5.2,2c0.7,0.6,2.7,1.4,6.1,2.3C334.5,165.9,334.2,164.5,333.6,161.5"/>
		<path class="st6" d="M348.7,171.5c0.9-2.9,1.1-3.5,0.1-6.3c0.2-2.6-0.7-5.1-2.3-7c-0.3,0.5-0.8,0.9-1.4,1.1
			c-0.3,0.1-0.5,0.2-0.8,0.3c-0.2,0-0.5,0.1-0.7,0.1h-0.4c-0.3,0-0.6,0.1-0.8,0.1h-0.1l0,0c-0.3,0.1-0.5,0.2-0.8,0.2h0.2l-0.2,0.1
			c-0.2,0.1-0.4,0.1-0.6,0.2c-0.1,0-0.3,0.1-0.4,0.1c-0.2,0.1-0.4,0.1-0.7,0.1h0.2l-0.3,0.1c-0.2,0.1-0.5,0.1-0.7,0.2h-0.1h-0.1
			c-0.2,0.1-0.4,0.1-0.6,0.2c-0.2,0.1-0.5,0.1-0.8,0.1l-0.5,0.1l-0.6,0.1c-0.2,0-0.4,0-0.7,0h-0.4h-0.4c-0.2,0.1-0.5,0.1-0.7,0.1
			c-0.4,0.1-0.8,0.1-1.2,0.1c-0.3,2.1,0,3.5,1,4.1c1.4,0.9,1.6,1.8,1.5,3.2c-0.1,1.5,0.2,2.7,0.9,3.5c2.3,2.7,3.1,4,3.5,5.2
			c0.5,1.3,3.6,1,5.9-1.1C346.8,175.1,348,173.5,348.7,171.5"/>
		<path class="st10" d="M342.3,152.2L342.3,152.2L342.3,152.2L342.3,152.2z M346.2,161.5c-1.7-0.5-2.5-1.1-2.1-1.9
			c0.3-0.7,0.2-1.4-0.1-2h0.4c0.1,0,0.3,0,0.4,0l0,0l0.4,0.1c0.1,0,0.3,0,0.4,0s0.3,0.1,0.4,0.1s0.1,0.1,0.2,0.1
			c0.3,0.2,0.6,0.3,0.9,0.3h0.1c0.4,0.2,0.8,0.3,1.2,0.3c0.2,0.1,0.4,0.2,0.6,0.2c0.2,0.1,0.4,0.1,0.6,0.2c0.2,2.2,0.2,4.8-0.1,7.9
			c-0.2,1.2-1.8-0.3-1.9-1.7C347.4,162.8,347.3,161.8,346.2,161.5z"/>
		<path class="st6" d="M351,165.7c0,0.3-0.3,0.6-0.6,0.7c-0.3,0.1-0.7,0.1-0.9-0.2c-1.7-1.5-2-4.1-0.7-6c0.4-0.7,1.2-1,2-1
			c0.8,0.1,1.5,0.6,1.8,1.3s0.3,1.6-0.3,2.2C351.6,163.6,351.1,164.6,351,165.7"/>
		<path class="st11" d="M352.2,162.7c2.7,9,3.6,14.5,2.7,16.5c-0.7,0.1-1.4,0-2-0.4c1.1-1.2,0.1-6.5-2.8-15.8
			C350.1,163,350.8,162.9,352.2,162.7"/>
		<path class="st31" d="M342.2,162.3c0,0,1.4-0.2,4.1-0.7c0.4-0.5,3.2-0.1,8.3,1.4c0,0-0.2-1.5-0.6-4.6c-1-6.2-2.8-8.3-6.8-10.3
			c-3.9-2-8.6-1.7-12.3,0.8c-3.7,2.4-5.7,6.7-5.4,11.1c0,1.1-0.3,2-1.1,2.8C333.8,162.2,338.5,162.1,342.2,162.3"/>
		<path class="st13" d="M346.1,161.4c0,0,2.7,0.6,8.2,1.9c-0.6,0.6-1,0.9-1.5,0.8c-5.5-1.1-8.3-1.7-8.3-1.7S345,162,346.1,161.4"/>
		<path class="st14" d="M355.1,162.7c-2.5-0.7-5-1.4-7.6-2c-0.5-0.1-1-0.2-1.9,0.1c-5.6-0.6-11.2-0.4-17,0.7c-0.1,0-0.2,0.1-0.2,0.3
			c0,0.1,0.1,0.3,0.3,0.3c5.1-1,10.4-1.2,15.9-0.7c-1.5,0.7-1.2,0.4-4.6,0.4c-4.3,0-8.2,0.3-11.7,1c-0.4,0.2-0.5,0.7-0.2,1.1
			c3-0.7,7-1.1,12-1c3.7,0.1,3.3,0.4,5.7-0.8c0.3-0.2,0.8-0.3,1.4-0.1c4.6,0.8,7.2,1.6,7.2,1.6C354.9,163.4,355.1,163.2,355.1,162.7
			"/>
		<polygon class="st15" points="351.3,158.2 352.7,158.4 351.4,159 351.7,160.3 350.8,159.3 349.6,160 350.3,158.8 349.2,157.9 
			350.6,158.1 351.1,156.9 		"/>
		<rect x="311.8" y="172.2" class="st16" width="8.1" height="4.2"/>
		<path class="st17" d="M333.8,170.3c0.2,0,0.3,0.1,0.3,0.3v0.7h0.2c0.2,0,0.4,0.2,0.4,0.4v1.5c0,0.2-0.2,0.4-0.4,0.4h-6.8
			c-0.2,0-0.4-0.2-0.4-0.4v-1.5c0-0.2,0.2-0.4,0.4-0.4h4.9v-0.7c0-0.2,0.1-0.3,0.3-0.3H333.8"/>
		<path class="st18" d="M334.9,175.3c0,0,6.1,2.4,18.3,7.2c0.4,0.2,0.5,0.5,0.2,1.2c-1.6,3.8-2.3,5.6-2.3,5.6
			c-0.4,0.9-0.9,1.1-2.3,0.2c-11-6.9-16.4-10.4-16.4-10.4c-1.3-0.8-2-2.1-2.1-3.6C330.2,175.6,331.8,175.5,334.9,175.3"/>
		<path class="st19" d="M320.6,171.2c0.3,0,0.5,0.3,0.5,0.6v0.9c0,0.3-0.2,0.6-0.5,0.6h-0.7l0.5,4.3h14.4v1.2c0,1-0.4,1-1.8,1h-1.8
			v2.7h-10.1l0.8,6.6c0,0.3-0.2,0.5-0.5,0.5h-3.1c-0.3,0-0.6-0.2-0.6-0.5l-1.9-15.7h-27.3l0,0h-3.8c-0.6,0-1.1-0.5-1.1-1.1
			s0.5-1.1,1.1-1.1h3.8h1.2v-2.5c0-0.3,0.2-0.5,0.5-0.5s0.5,0.3,0.5,0.5v2.5h1.8H320.6"/>
		<path class="st16" d="M336.1,172.2c0.6,0,1.1,0.5,1.1,1.1v3.8c0,0.6-0.5,1.1-1.1,1.1h-15.2c-0.6,0-1.1-0.5-1.1-1.1v-3.8
			c0-0.6,0.5-1.1,1.1-1.1H336.1"/>
		<path class="st20" d="M342.2,187.6c-17.3,11-27.9,11.8-41.1-10.4c0,0-1.4,0.2-3,0.2c14.2,23.9,26.5,24,45,11.3
			C343.1,188.6,343,188.2,342.2,187.6"/>
		<path class="st18" d="M314.3,173.1c0.3,0,0.5,0.2,0.5,0.5v3.8c0,0.3-0.2,0.5-0.5,0.5h-20.9c-0.3,0-0.5-0.2-0.5-0.5v-3.8
			c0-0.3,0.2-0.5,0.5-0.5H314.3"/>
		<path class="st4" d="M366.4,195.7c0,0,0.7-4.7,2.2-14.1c0.4-2.5-2.2-4.6-4.8-5.1c-2.6-0.5-5.7,0.6-6.3,2.9
			c-2.4,7.2-3.6,10.9-3.6,10.9S358,192.2,366.4,195.7"/>
		<path class="st3" d="M352.7,190.3c1.1-2.6,1.8-2.4,3.9-2c3.3,0.6,6.4,2.2,8.8,4.6c1.4,1.4,2.1,2.8,0.4,5.3c-2.4,3.3-5.1,6.2-7.7,4
			C359,200.2,359.4,195.3,352.7,190.3"/>
		<path class="st21" d="M313.3,179.2c0,0,0.2-0.8,0.6-2.5c0.1-1.2-0.8-3-2.7-3.9c-2.2-1.1-5.1-1-5.6,0.7c-0.8,2.6-0.7,4.1,0.7,4.9
			C310.3,180.6,312.9,181,313.3,179.2"/>
		<polygon class="st3" points="363.7,178.1 354.8,176.5 357.2,174.6 366.2,176.1 		"/>
		<path class="st22" d="M357.1,203.7c0.6,0,1,0.5,1,1.1l-0.3,2.8c-0.1,0.6-0.6,1.1-1.2,1.1h-26.8c-0.6,0-1-0.5-1-1.1l0.3-2.8
			c0.1-0.6,0.6-1.1,1.2-1.1H357.1"/>
		<path class="st6" d="M330.2,188.5c0,0,1.6-0.3,4.7-0.9c0,0,0.4,0.3,1.3,0.9c0,0,9.7,6.8,17.9,12.3c4.3,2.8,5.6,2.3,7.6-0.1
			s2.3-6.8-0.5-8c-14.7-6.9-22-10.3-22-10.3c-3.8-1.7-6.9-2.5-6.9-2.5c-0.9-0.3-2.4-0.6-3.9-0.3c-3.9,1-4.7,1.3-5.3,1.4
			c-0.4,0.2-0.4,0.8-0.2,1.3c0.1,0.4,0.5,1.1,0.9,0.9c2.6-0.7,3.9-1,3.9-1c0.8-0.2,0.9,0,0.3,0.4c-1.4,1.1-2.5,1.4-1.6,2.9
			C327.7,187.8,328.8,188.8,330.2,188.5"/>
		<path class="st23" d="M339.9,291c0.3,0,0.5,0.2,0.5,0.5v1.4c0,0.3-0.2,0.5-0.5,0.5h-21.1c-0.3,0-0.5-0.2-0.5-0.5v-1.4
			c0-0.3,0.2-0.5,0.5-0.5H339.9"/>
		<path class="st24" d="M358.9,282c0.2,0,0.4,0.2,0.4,0.4l0,0c0,0.2-0.2,0.3-0.4,0.3l-5.4-0.2c-0.2,0-0.4-0.2-0.4-0.4l0,0
			c0-0.2,0.2-0.3,0.4-0.3L358.9,282"/>
		<path class="st24" d="M358.7,283.5c0.2,0,0.4,0.2,0.4,0.4l0,0c0,0.2-0.2,0.3-0.4,0.3l-5-0.2c-0.2,0-0.4-0.2-0.4-0.4l0,0
			c0-0.2,0.2-0.3,0.4-0.3L358.7,283.5"/>
		<path class="st24" d="M358.5,284.9c0.2,0,0.4,0.2,0.4,0.4l0,0c0,0.2-0.2,0.3-0.4,0.3l-4.6-0.2c-0.2,0-0.4-0.2-0.4-0.4l0,0
			c0-0.2,0.2-0.3,0.4-0.3L358.5,284.9"/>
		<path class="st24" d="M358.2,286.4c0.2,0,0.4,0.2,0.4,0.4l0,0c0,0.2-0.2,0.3-0.4,0.3l-4.1-0.2c-0.2,0-0.4-0.2-0.4-0.4l0,0
			c0-0.2,0.2-0.3,0.4-0.3L358.2,286.4"/>
		<path class="st24" d="M358,287.8c0.2,0,0.4,0.2,0.4,0.4l0,0c0,0.2-0.2,0.3-0.4,0.3l-3.6-0.2c-0.2,0-0.4-0.2-0.4-0.4l0,0
			c0-0.2,0.2-0.3,0.4-0.3L358,287.8"/>
		<path class="st24" d="M357.8,289.2c0.2,0,0.4,0.2,0.4,0.4l0,0c0,0.2-0.2,0.3-0.4,0.3l-3.3-0.1c-0.2,0-0.4-0.2-0.4-0.4l0,0
			c0-0.2,0.2-0.3,0.4-0.3L357.8,289.2"/>
		<path class="st24" d="M357.6,290.5c0.2,0,0.4,0.2,0.4,0.4l0,0c0,0.2-0.2,0.3-0.4,0.3l-2.9-0.1c-0.2,0-0.4-0.2-0.4-0.4l0,0
			c0-0.2,0.2-0.3,0.4-0.3L357.6,290.5"/>
		<path class="st24" d="M357.3,291.9c0.2,0,0.4,0.2,0.4,0.4l0,0c0,0.2-0.2,0.3-0.4,0.3l-2.4-0.1c-0.2,0-0.4-0.2-0.4-0.4l0,0
			c0-0.2,0.2-0.3,0.4-0.3L357.3,291.9"/>
		<path class="st24" d="M357.2,293.3c0.2,0,0.4,0.2,0.4,0.4l0,0c0,0.2-0.2,0.3-0.4,0.3l-2.2-0.1c-0.2,0-0.4-0.2-0.4-0.4l0,0
			c0-0.2,0.2-0.3,0.4-0.3L357.2,293.3"/>
		<path class="st24" d="M334.6,276.6c0.2,0,0.4,0.2,0.4,0.4l0,0c0,0.2-0.2,0.3-0.4,0.3l-2.2-0.2c-0.2,0-0.4-0.2-0.4-0.4l0,0
			c0-0.2,0.2-0.3,0.4-0.3L334.6,276.6"/>
		<path class="st24" d="M334.5,277.9c0.2,0,0.4,0.2,0.4,0.4l0,0c0,0.2-0.2,0.3-0.4,0.3l-2.2-0.2c-0.2,0-0.4-0.2-0.4-0.4l0,0
			c0-0.2,0.2-0.3,0.4-0.3L334.5,277.9"/>
		<path class="st24" d="M334.6,279.1c0.2,0,0.4,0.2,0.4,0.4l0,0c0,0.2-0.2,0.3-0.4,0.3l-2.2-0.2c-0.2,0-0.4-0.2-0.4-0.4l0,0
			c0-0.2,0.2-0.3,0.4-0.3L334.6,279.1"/>
		<path class="st24" d="M334.6,280.4c0.2,0,0.4,0.2,0.4,0.4l0,0c0,0.2-0.2,0.3-0.4,0.3l-2.2-0.2c-0.2,0-0.4-0.2-0.4-0.4l0,0
			c0-0.2,0.2-0.3,0.4-0.3L334.6,280.4"/>
		<path class="st24" d="M334.6,281.7c0.2,0,0.4,0.2,0.4,0.4l0,0c0,0.2-0.2,0.3-0.4,0.3l-2.2-0.2c-0.2,0-0.4-0.2-0.4-0.4l0,0
			c0-0.2,0.2-0.3,0.4-0.3L334.6,281.7"/>
		<path class="st24" d="M334.5,283c0.2,0,0.4,0.2,0.4,0.4l0,0c0,0.2-0.2,0.3-0.4,0.3l-2.2-0.2c-0.2,0-0.4-0.2-0.4-0.4l0,0
			c0-0.2,0.2-0.3,0.4-0.3L334.5,283"/>
		<path class="st24" d="M333.6,285.2c0.1,0.1,0.1,0.4,0,0.5l0,0c-0.1,0.1-0.3,0.2-0.5,0l-1.5-1.6c-0.1-0.1-0.1-0.4,0-0.5l0,0
			c0.1-0.1,0.3-0.2,0.5,0L333.6,285.2"/>
		<path class="st24" d="M332.4,285.8c0.1,0.1,0.1,0.4,0,0.5l0,0c-0.1,0.1-0.3,0.2-0.5,0l-1.5-1.6c-0.1-0.1-0.1-0.4,0-0.5l0,0
			c0.1-0.1,0.3-0.2,0.5,0L332.4,285.8"/>
		<path class="st24" d="M331.2,286.6c0.1,0.1,0.1,0.4,0,0.5l0,0c-0.1,0.1-0.3,0.2-0.5,0l-1.5-1.6c-0.1-0.1-0.1-0.4,0-0.5l0,0
			c0.1-0.1,0.3-0.2,0.5,0L331.2,286.6"/>
		<path class="st24" d="M329.9,287.4c0.1,0.1,0.1,0.4,0,0.5l0,0c-0.1,0.1-0.3,0.2-0.5,0l-1.5-1.6c-0.1-0.1-0.1-0.4,0-0.5l0,0
			c0.1-0.1,0.3-0.2,0.5,0L329.9,287.4"/>
		<path class="st0" d="M378,307.3c-0.5-1.5-1.1-2.9-1.8-4.3c-1.8,0.3-2.6,0.4-2.6,0.4c-1.6,0.6-2.6,2.2-2.3,3.9
			C371.2,307.4,373.5,307.4,378,307.3"/>
		<path class="st1" d="M393,307.4c1.5-11.5,2.1-17.8,2.1-17.8c-6.9,0.1-10.3,0.2-10.3,0.2c0.6,6.2,0.8,9.3,0.8,9.3
			c-3.8,2.3-5.7,3.4-5.7,3.4c-3.1,0.5-4.6,0.8-4.6,0.8c0.4,3.2,0.6,4.8,0.6,4.8S381.7,308.1,393,307.4"/>
		<path class="st2" d="M391.7,307.5c0,0,0.8-5.6,2.3-16.8c0,0-0.9-0.2-2.8-0.6c-1.7,11.8-2.5,17.7-2.5,17.7S389.7,307.6,391.7,307.5
			"/>
		<path class="st1" d="M414.2,315.6c0,0-0.3-3.4-1-10.1c0,0,0.3-4,1-12.1c-6.4,0.4-9.6,0.7-9.6,0.7c0.4,7.6,0.6,11.5,0.6,11.5
			c-0.9,6.1-1.3,9.1-1.3,9.1C405.1,315.5,408.5,315.8,414.2,315.6"/>
		<path class="st2" d="M410.3,310.5c0,0,0.5-5.5,1.5-16.4c-3.3-0.2-5-0.1-5.2,0.5c0.6,10.4,0.9,15.6,0.9,15.6
			C408.4,310.7,409.4,310.8,410.3,310.5"/>
		<path class="st32" d="M396.1,288.4c0.1,2.4-0.9,2.6-3.1,2.6c0,0-2.4-0.1-7.1-0.3c-1.5-0.1-1.9-0.9-2.3-5.3
			c-1.5-14.2-2.3-22.6-2.5-25.1c0,0-0.2-3,0.3-16.9c10.1-16.4,14.8-9.1,14.3,21.8C395.7,276.8,395.9,284.5,396.1,288.4"/>
		<path class="st32" d="M405,294.9c-1.7,0-2-0.7-2.5-2.4c-2.2-8.8-4.5-13.4-5.5-18.8l-5.5-35.7c9.5,1.4,16.7,3.9,20.8,7.6l-1.3,21.9
			c-0.3,4.3,0.6,6.5,4.1,23.3c0.8,3.5,0.1,4.3-2.7,4.2C409,294.8,406.6,294.8,405,294.9"/>
		<path class="st32" d="M386.3,236.1c3.7,3.6,8.5,5.6,13.6,5.8C398,227.9,393.5,226,386.3,236.1"/>
		<path class="st32" d="M385.5,193.9l-3.5,27.3c-1.3,8.3-2.5,16.4-3.6,24.3c0,0,0.8,0,2.4,0c2.6-1.5,6.9-6.3,12.9-14.4
			c-0.3,2.2,2.2,8.4,7.6,18.5c6.2-0.6,11.8-3.6,15.4-8.4c0,0-1.7-4.9-5-14.7c-0.5-2.9-4.5-4.7-11.9-5.3h10.7l2.5-20.8
			c1.1-1.7,2.4-3.7,3.7-5.9c-2.2-1-5.5-2.2-9.9-3.5l-2.8,6.7L385.5,193.9z"/>
		<polygon class="st3" points="393.5,193.3 384.4,194.2 385.5,191.8 394.7,190.9 		"/>
		<path class="st4" d="M370,202.7c0,0,2.9-2.5,10-6.5c13-5.8,9.4,0.5,6.2,8.9c-5.9,4.4-10.3,7.4-12.7,7.6
			C373.5,211.1,372.5,207.3,370,202.7"/>
		<path class="st3" d="M381.5,196.8c0,0,0,0.3-0.1,1c-3.5,1.9-5.3,2.9-5.3,2.9c-1.1-1.5-1.6-2.2-1.6-2.2c1.7-1,2.6-1.4,2.6-1.4
			S378.5,197,381.5,196.8"/>
		<path class="st3" d="M368.2,202.5c5.2-4.4,7.1-0.4,7.1,7.1c-0.1,1.9-0.6,3.1-1.4,3.5c-2,1.1-2.9,1.6-2.9,1.6
			c-1.5,0.7-2.5,0.8-3.3,0.3C367.8,215,367.8,210.9,368.2,202.5"/>
		<path class="st5" d="M364,217.3c-1.8,0.1-3.4-1.4-3.2-4.7l1.4-17.1l5.6-2.6c0.1,0.2,0.3,0.4,0.5,0.4h0.2l1.6,15.8
			C370.6,214.2,368.6,216.9,364,217.3"/>
		<path class="st6" d="M367.5,192.2c1,0.8,1.3,1.6,0.9,2.3c-1.1,1.6-2.5,2.2-4.4,1.6C364,196.1,365.2,194.8,367.5,192.2"/>
		<path class="st7" d="M404,191.8c0,0-1.3-1.8-1.1-11.7c-7.6,2.3-10.5,7.7-10.5,7.7c1.1,3.6,0.4,6.3,0.4,6.3c1.5,1.9,4,2.8,6.4,2.3
			S403.5,194.1,404,191.8"/>
		<path class="st3" d="M396.4,221.2h-1.1V201h1.1V221.2z M403.5,188.3c1.3,0.9,2,1.6,3.4,2.5c-1.2,6.6-2.7,10.1-6,10.4
			c0,0-1.1-1.7-3.2-5.2C400.6,195,402.5,192.4,403.5,188.3z"/>
		<path class="st8" d="M385.3,180.5c0.8,8.3,1.9,13.2,3,14.6c0.5-0.1,0.9-0.5,1.2-1c-1-0.7-2-5.4-2.7-14.1
			C386.8,180.1,386.3,180.2,385.3,180.5"/>
		<path class="st9" d="M386.4,177.3c-1-0.6-2.7,0-5.2,2c0.7,0.6,2.7,1.4,6.1,2.3C387.3,181.7,387,180.2,386.4,177.3"/>
		<path class="st6" d="M401.5,187.3c0.9-2.9,1.1-3.5,0.1-6.3c0.2-2.6-0.7-5.1-2.3-7c-0.3,0.5-0.8,0.9-1.4,1.1
			c-0.3,0.1-0.5,0.2-0.8,0.3c-0.2,0-0.5,0.1-0.7,0.1H396c-0.3,0-0.6,0.1-0.8,0.1H395l0,0c-0.3,0.1-0.5,0.2-0.8,0.2h0.2l-0.2,0.1
			c-0.2,0.1-0.4,0.1-0.6,0.2c-0.1,0-0.3,0.1-0.4,0.1c-0.2,0.1-0.4,0.1-0.7,0.1h0.2l-0.3,0.1c-0.2,0.1-0.5,0.1-0.7,0.2h-0.1h-0.1
			c-0.2,0.1-0.4,0.1-0.6,0.2c-0.2,0.1-0.5,0.1-0.8,0.1l-0.5,0.1l-0.6,0.1c-0.2,0-0.4,0-0.7,0h-0.4h-0.4c-0.2,0.1-0.5,0.1-0.7,0.1
			c-0.4,0.1-0.8,0.1-1.2,0.1c-0.3,2.1,0,3.5,1,4.1c1.4,0.9,1.6,1.8,1.5,3.2c-0.1,1.5,0.2,2.7,0.9,3.5c2.3,2.7,3.1,4,3.5,5.2
			c0.5,1.3,3.6,1,5.9-1.1C399.6,190.9,400.7,189.3,401.5,187.3"/>
		<path class="st10" d="M395.1,168L395.1,168L395.1,168L395.1,168z M399,177.3c-1.7-0.5-2.5-1.1-2.1-1.9c0.3-0.7,0.2-1.4-0.1-2h0.4
			c0.1,0,0.3,0,0.4,0l0,0l0.4,0.1c0.1,0,0.3,0,0.4,0s0.3,0.1,0.4,0.1s0.1,0.1,0.2,0.1c0.3,0.2,0.6,0.3,0.9,0.3h0.1
			c0.4,0.2,0.8,0.3,1.2,0.3c0.2,0.1,0.4,0.2,0.6,0.2c0.2,0.1,0.4,0.1,0.6,0.2c0.2,2.2,0.2,4.8-0.1,7.9c-0.2,1.2-1.8-0.3-1.9-1.7
			C400.2,178.5,400,177.6,399,177.3z"/>
		<path class="st6" d="M403.8,181.5c0,0.3-0.3,0.6-0.6,0.7c-0.3,0.1-0.7,0.1-0.9-0.2c-1.7-1.5-2-4.1-0.7-6c0.4-0.7,1.2-1,2-1
			c0.8,0.1,1.5,0.6,1.8,1.3s0.3,1.6-0.3,2.2C404.4,179.4,403.9,180.3,403.8,181.5"/>
		<path class="st11" d="M405,178.4c2.7,9,3.6,14.5,2.7,16.5c-0.7,0.1-1.4,0-2-0.4c1.1-1.2,0.1-6.5-2.8-15.8
			C402.9,178.7,403.6,178.6,405,178.4"/>
		<path class="st32" d="M395,178.1c0,0,1.4-0.2,4.1-0.7c0.4-0.5,3.2-0.1,8.3,1.4c0,0-0.2-1.5-0.6-4.6c-1-6.2-2.8-8.3-6.8-10.3
			c-3.9-2-8.6-1.7-12.3,0.8c-3.7,2.4-5.7,6.7-5.4,11.1c0,1.1-0.3,2-1.1,2.8C386.6,178,391.3,177.9,395,178.1"/>
		<path class="st13" d="M398.9,177.1c0,0,2.7,0.6,8.2,1.9c-0.6,0.6-1,0.9-1.5,0.8c-5.5-1.1-8.3-1.7-8.3-1.7S397.8,177.8,398.9,177.1
			"/>
		<path class="st14" d="M407.9,178.4c-2.5-0.7-5-1.4-7.6-2c-0.5-0.1-1-0.2-1.9,0.1c-5.6-0.6-11.2-0.4-17,0.7c-0.1,0-0.2,0.1-0.2,0.3
			c0,0.1,0.1,0.3,0.3,0.3c5.1-1,10.4-1.2,15.9-0.7c-1.5,0.7-1.2,0.4-4.6,0.4c-4.3,0-8.2,0.3-11.7,1c-0.4,0.2-0.5,0.7-0.2,1.1
			c3-0.7,7-1.1,12-1c3.7,0.1,3.3,0.4,5.7-0.8c0.3-0.2,0.8-0.3,1.4-0.1c4.6,0.8,7.2,1.6,7.2,1.6C407.7,179.2,407.9,178.9,407.9,178.4
			"/>
		<polygon class="st15" points="404.1,174 405.4,174.2 404.2,174.8 404.5,176.1 403.6,175.1 402.4,175.8 403,174.6 402,173.7 
			403.3,173.9 403.9,172.7 		"/>
		<rect x="364.6" y="188" class="st16" width="8.1" height="4.2"/>
		<path class="st17" d="M386.6,186.1c0.2,0,0.3,0.1,0.3,0.3v0.7h0.2c0.2,0,0.4,0.2,0.4,0.4v1.5c0,0.2-0.2,0.4-0.4,0.4h-6.8
			c-0.2,0-0.4-0.2-0.4-0.4v-1.5c0-0.2,0.2-0.4,0.4-0.4h4.9v-0.7c0-0.2,0.1-0.3,0.3-0.3H386.6"/>
		<path class="st18" d="M387.7,191.1c0,0,6.1,2.4,18.3,7.2c0.4,0.2,0.5,0.5,0.2,1.2c-1.6,3.8-2.3,5.6-2.3,5.6
			c-0.4,0.9-0.9,1.1-2.3,0.2c-11-6.9-16.4-10.4-16.4-10.4c-1.3-0.8-2-2.1-2.1-3.6C383,191.4,384.6,191.3,387.7,191.1"/>
		<path class="st19" d="M373.4,186.9c0.3,0,0.5,0.3,0.5,0.6v0.9c0,0.3-0.2,0.6-0.5,0.6h-0.7l0.5,4.3h14.4v1.2c0,1-0.4,1-1.8,1H384
			v2.7h-10.1l0.8,6.6c0,0.3-0.2,0.5-0.5,0.5h-3.1c-0.3,0-0.6-0.2-0.6-0.5l-1.9-15.7h-27.3l0,0h-3.8c-0.6,0-1.1-0.5-1.1-1.1
			s0.5-1.1,1.1-1.1h3.8h1.2v-2.5c0-0.3,0.2-0.5,0.5-0.5s0.5,0.3,0.5,0.5v2.5h1.8H373.4"/>
		<path class="st16" d="M388.8,188c0.6,0,1.1,0.5,1.1,1.1v3.8c0,0.6-0.5,1.1-1.1,1.1h-15.2c-0.6,0-1.1-0.5-1.1-1.1v-3.8
			c0-0.6,0.5-1.1,1.1-1.1H388.8"/>
		<path class="st20" d="M395,203.4c-17.3,11-27.9,11.7-41.1-10.4c0,0-1.4,0.2-3,0.2c14.2,23.9,26.5,24,45,11.3
			C395.9,204.4,395.8,204,395,203.4"/>
		<path class="st18" d="M367.1,188.9c0.3,0,0.5,0.2,0.5,0.5v3.8c0,0.3-0.2,0.5-0.5,0.5h-20.9c-0.3,0-0.5-0.2-0.5-0.5v-3.8
			c0-0.3,0.2-0.5,0.5-0.5H367.1"/>
		<path class="st4" d="M419.2,211.5c0,0,0.7-4.7,2.2-14.1c0.4-2.5-2.2-4.6-4.8-5.1c-2.6-0.5-5.7,0.6-6.3,2.9
			c-2.4,7.2-3.6,10.9-3.6,10.9S410.8,208,419.2,211.5"/>
		<path class="st3" d="M405.4,206.1c1.1-2.6,1.8-2.4,3.9-2c3.3,0.6,6.4,2.2,8.8,4.6c1.4,1.4,2.1,2.8,0.4,5.3c-2.4,3.3-5.1,6.2-7.7,4
			C411.8,216,412.1,211.1,405.4,206.1"/>
		<path class="st21" d="M366.1,195c0,0,0.2-0.8,0.6-2.5c0.1-1.2-0.8-3-2.7-3.9c-2.2-1.1-5.1-1-5.6,0.7c-0.8,2.6-0.7,4.1,0.7,4.9
			C363,196.4,365.7,196.8,366.1,195"/>
		<polygon class="st3" points="416.5,193.9 407.5,192.3 410,190.4 419,191.9 		"/>
		<path class="st22" d="M409.8,219.5c0.6,0,1,0.5,1,1.1l-0.3,2.8c-0.1,0.6-0.6,1.1-1.2,1.1h-26.8c-0.6,0-1-0.5-1-1.1l0.3-2.8
			c0.1-0.6,0.6-1.1,1.2-1.1H409.8"/>
		<path class="st6" d="M383,204.2c0,0,1.6-0.3,4.7-0.9c0,0,0.4,0.3,1.3,0.9c0,0,9.7,6.8,17.9,12.3c4.3,2.8,5.6,2.3,7.6-0.1
			c2-2.4,2.3-6.8-0.5-8c-14.7-6.9-22-10.3-22-10.3c-3.8-1.7-6.9-2.5-6.9-2.5c-0.9-0.3-2.4-0.6-3.9-0.3c-3.9,1-4.7,1.3-5.3,1.4
			c-0.4,0.2-0.4,0.8-0.2,1.3c0.1,0.4,0.5,1.1,0.9,0.9c2.6-0.7,3.9-1,3.9-1c0.8-0.2,0.9,0,0.3,0.4c-1.4,1.1-2.5,1.4-1.6,2.9
			C380.4,203.6,381.6,204.6,383,204.2"/>
		<path class="st23" d="M392.6,306.8c0.3,0,0.5,0.2,0.5,0.5v1.4c0,0.3-0.2,0.5-0.5,0.5h-21.1c-0.3,0-0.5-0.2-0.5-0.5v-1.4
			c0-0.3,0.2-0.5,0.5-0.5H392.6"/>
		<path class="st24" d="M411.7,297.8c0.2,0,0.4,0.2,0.4,0.4l0,0c0,0.2-0.2,0.3-0.4,0.3l-5.4-0.2c-0.2,0-0.4-0.2-0.4-0.4l0,0
			c0-0.2,0.2-0.3,0.4-0.3L411.7,297.8"/>
		<path class="st24" d="M411.5,299.3c0.2,0,0.4,0.2,0.4,0.4l0,0c0,0.2-0.2,0.3-0.4,0.3l-5-0.2c-0.2,0-0.4-0.2-0.4-0.4l0,0
			c0-0.2,0.2-0.3,0.4-0.3L411.5,299.3"/>
		<path class="st24" d="M411.3,300.7c0.2,0,0.4,0.2,0.4,0.4l0,0c0,0.2-0.2,0.3-0.4,0.3l-4.6-0.2c-0.2,0-0.4-0.2-0.4-0.4l0,0
			c0-0.2,0.2-0.3,0.4-0.3L411.3,300.7"/>
		<path class="st24" d="M411,302.2c0.2,0,0.4,0.2,0.4,0.4l0,0c0,0.2-0.2,0.3-0.4,0.3l-4.1-0.2c-0.2,0-0.4-0.2-0.4-0.4l0,0
			c0-0.2,0.2-0.3,0.4-0.3L411,302.2"/>
		<path class="st24" d="M410.7,303.6c0.2,0,0.4,0.2,0.4,0.4l0,0c0,0.2-0.2,0.3-0.4,0.3l-3.6-0.2c-0.2,0-0.4-0.2-0.4-0.4l0,0
			c0-0.2,0.2-0.3,0.4-0.3L410.7,303.6"/>
		<path class="st24" d="M410.6,305c0.2,0,0.4,0.2,0.4,0.4l0,0c0,0.2-0.2,0.3-0.4,0.3l-3.3-0.1c-0.2,0-0.4-0.2-0.4-0.4l0,0
			c0-0.2,0.2-0.3,0.4-0.3L410.6,305"/>
		<path class="st24" d="M410.3,306.3c0.2,0,0.4,0.2,0.4,0.4l0,0c0,0.2-0.2,0.3-0.4,0.3l-2.9-0.1c-0.2,0-0.4-0.2-0.4-0.4l0,0
			c0-0.2,0.2-0.3,0.4-0.3L410.3,306.3"/>
		<path class="st24" d="M410.1,307.7c0.2,0,0.4,0.2,0.4,0.4l0,0c0,0.2-0.2,0.3-0.4,0.3l-2.4-0.1c-0.2,0-0.4-0.2-0.4-0.4l0,0
			c0-0.2,0.2-0.3,0.4-0.3L410.1,307.7"/>
		<path class="st24" d="M409.9,309.1c0.2,0,0.4,0.2,0.4,0.4l0,0c0,0.2-0.2,0.3-0.4,0.3l-2.2-0.1c-0.2,0-0.4-0.2-0.4-0.4l0,0
			c0-0.2,0.2-0.3,0.4-0.3L409.9,309.1"/>
		<path class="st24" d="M387.3,292.4c0.2,0,0.4,0.2,0.4,0.4l0,0c0,0.2-0.2,0.3-0.4,0.3l-2.2-0.2c-0.2,0-0.4-0.2-0.4-0.4l0,0
			c0-0.2,0.2-0.3,0.4-0.3L387.3,292.4"/>
		<path class="st24" d="M387.3,293.7c0.2,0,0.4,0.2,0.4,0.4l0,0c0,0.2-0.2,0.3-0.4,0.3l-2.2-0.2c-0.2,0-0.4-0.2-0.4-0.4l0,0
			c0-0.2,0.2-0.3,0.4-0.3L387.3,293.7"/>
		<path class="st24" d="M387.4,294.9c0.2,0,0.4,0.2,0.4,0.4l0,0c0,0.2-0.2,0.3-0.4,0.3l-2.2-0.2c-0.2,0-0.4-0.2-0.4-0.4l0,0
			c0-0.2,0.2-0.3,0.4-0.3L387.4,294.9"/>
		<path class="st24" d="M387.3,296.2c0.2,0,0.4,0.2,0.4,0.4l0,0c0,0.2-0.2,0.3-0.4,0.3l-2.2-0.2c-0.2,0-0.4-0.2-0.4-0.4l0,0
			c0-0.2,0.2-0.3,0.4-0.3L387.3,296.2"/>
		<path class="st24" d="M387.4,297.5c0.2,0,0.4,0.2,0.4,0.4l0,0c0,0.2-0.2,0.3-0.4,0.3l-2.2-0.2c-0.2,0-0.4-0.2-0.4-0.4l0,0
			c0-0.2,0.2-0.3,0.4-0.3L387.4,297.5"/>
		<path class="st24" d="M387.3,298.8c0.2,0,0.4,0.2,0.4,0.4l0,0c0,0.2-0.2,0.3-0.4,0.3l-2.2-0.2c-0.2,0-0.4-0.2-0.4-0.4l0,0
			c0-0.2,0.2-0.3,0.4-0.3L387.3,298.8"/>
		<path class="st24" d="M386.4,301c0.1,0.1,0.1,0.4,0,0.5l0,0c-0.1,0.1-0.3,0.2-0.5,0l-1.5-1.6c-0.1-0.1-0.1-0.4,0-0.5l0,0
			c0.1-0.1,0.3-0.2,0.5,0L386.4,301"/>
		<path class="st24" d="M385.1,301.6c0.1,0.1,0.1,0.4,0,0.5l0,0c-0.1,0.1-0.3,0.2-0.5,0l-1.5-1.6c-0.1-0.1-0.1-0.4,0-0.5l0,0
			c0.1-0.1,0.3-0.2,0.5,0L385.1,301.6"/>
		<path class="st24" d="M384,302.3c0.1,0.1,0.1,0.4,0,0.5l0,0c-0.1,0.1-0.3,0.2-0.5,0l-1.5-1.6c-0.1-0.1-0.1-0.4,0-0.5l0,0
			c0.1-0.1,0.3-0.2,0.5,0L384,302.3"/>
		<path class="st24" d="M382.7,303.2c0.1,0.1,0.1,0.4,0,0.5l0,0c-0.1,0.1-0.3,0.2-0.5,0l-1.5-1.6c-0.1-0.1-0.1-0.4,0-0.5l0,0
			c0.1-0.1,0.3-0.2,0.5,0L382.7,303.2"/>
		<path class="st0" d="M427.7,328.7c-0.5-1.5-1.1-2.9-1.8-4.3c-1.8,0.3-2.6,0.4-2.6,0.4c-1.6,0.6-2.6,2.2-2.3,3.9
			C421,328.7,423.2,328.7,427.7,328.7"/>
		<path class="st1" d="M442.8,328.7c1.5-11.5,2.1-17.8,2.1-17.8c-6.9,0.1-10.3,0.2-10.3,0.2c0.6,6.2,0.8,9.3,0.8,9.3
			c-3.8,2.3-5.7,3.4-5.7,3.4c-3.1,0.5-4.6,0.8-4.6,0.8c0.4,3.2,0.6,4.8,0.6,4.8S431.5,329.5,442.8,328.7"/>
		<path class="st2" d="M441.5,328.8c0,0,0.8-5.6,2.3-16.8c0,0-0.9-0.2-2.8-0.6c-1.7,11.8-2.5,17.7-2.5,17.7S439.4,328.9,441.5,328.8
			"/>
		<path class="st1" d="M464,336.9c0,0-0.3-3.4-1-10.1c0,0,0.3-4,1-12.1c-6.4,0.4-9.6,0.7-9.6,0.7c0.4,7.6,0.6,11.5,0.6,11.5
			c-0.9,6.1-1.3,9.1-1.3,9.1C454.8,336.8,458.2,337.2,464,336.9"/>
		<path class="st2" d="M460.1,331.8c0,0,0.5-5.5,1.5-16.4c-3.3-0.2-5-0.1-5.2,0.5c0.6,10.4,0.9,15.6,0.9,15.6
			C458.1,332,459.2,332.1,460.1,331.8"/>
		<path class="st33" d="M445.9,309.7c0.1,2.4-0.9,2.6-3.1,2.6c0,0-2.4-0.1-7.1-0.3c-1.5-0.1-1.9-0.9-2.3-5.3
			c-1.5-14.2-2.3-22.6-2.5-25.1c0,0-0.2-3,0.3-16.9c10.1-16.4,14.8-9.1,14.3,21.8C445.5,298.1,445.6,305.9,445.9,309.7"/>
		<path class="st33" d="M454.8,316.2c-1.7,0-2-0.7-2.5-2.4c-2.2-8.8-4.5-13.4-5.5-18.8l-5.5-35.7c9.5,1.4,16.7,3.9,20.8,7.6
			l-1.3,21.9c-0.3,4.3,0.6,6.5,4.1,23.3c0.8,3.5,0.1,4.3-2.7,4.2C458.8,316.2,456.3,316.1,454.8,316.2"/>
		<path class="st33" d="M436,257.5c3.7,3.6,8.5,5.6,13.6,5.8C447.7,249.3,443.2,247.3,436,257.5"/>
		<path class="st33" d="M435.3,215.3l-3.5,27.3c-1.3,8.3-2.5,16.4-3.6,24.3c0,0,0.8,0,2.4,0c2.6-1.5,6.9-6.3,12.9-14.4
			c-0.3,2.2,2.2,8.4,7.6,18.5c6.2-0.6,11.8-3.6,15.4-8.4c0,0-1.7-4.9-5-14.7c-0.5-2.9-4.5-4.7-11.9-5.3h10.7l2.5-20.8
			c1.1-1.7,2.4-3.7,3.7-5.9c-2.2-1-5.5-2.2-9.9-3.5l-2.8,6.7L435.3,215.3z"/>
		<polygon class="st3" points="443.3,214.7 434.1,215.6 435.3,213.1 444.5,212.2 		"/>
		<path class="st4" d="M419.8,224.1c0,0,2.9-2.5,10-6.5c13-5.8,9.4,0.5,6.2,8.9c-5.9,4.4-10.3,7.4-12.7,7.6
			C423.2,232.5,422.2,228.6,419.8,224.1"/>
		<path class="st3" d="M431.2,218.2c0,0,0,0.3-0.1,1c-3.5,1.9-5.3,2.9-5.3,2.9c-1.1-1.5-1.6-2.2-1.6-2.2c1.7-1,2.6-1.4,2.6-1.4
			S428.3,218.3,431.2,218.2"/>
		<path class="st3" d="M418,223.9c5.2-4.4,7.1-0.4,7.1,7.1c-0.1,1.9-0.6,3.1-1.4,3.5c-2,1.1-2.9,1.6-2.9,1.6
			c-1.5,0.7-2.5,0.8-3.3,0.3C417.5,236.4,417.6,232.3,418,223.9"/>
		<path class="st5" d="M413.7,238.7c-1.8,0.1-3.4-1.4-3.2-4.7l1.4-17.1l5.6-2.6c0.1,0.2,0.3,0.4,0.5,0.4h0.2l1.6,15.8
			C420.3,235.6,418.3,238.3,413.7,238.7"/>
		<path class="st6" d="M417.2,213.5c1,0.8,1.3,1.6,0.9,2.3c-1.1,1.6-2.5,2.2-4.4,1.6C413.8,217.5,414.9,216.2,417.2,213.5"/>
		<path class="st7" d="M453.7,213.1c0,0-1.3-1.8-1.1-11.7c-7.6,2.3-10.5,7.7-10.5,7.7c1.1,3.6,0.4,6.3,0.4,6.3
			c1.5,1.9,4,2.8,6.4,2.3C451.4,217.3,453.3,215.4,453.7,213.1"/>
		<path class="st3" d="M446.2,242.6h-1.1v-20.2h1.1V242.6z M453.2,209.6c1.3,0.9,2,1.6,3.4,2.5c-1.2,6.6-2.7,10.1-6,10.4
			c0,0-1.1-1.7-3.2-5.2C450.3,216.3,452.2,213.8,453.2,209.6z"/>
		<path class="st8" d="M435.1,201.8c0.8,8.3,1.9,13.2,3,14.6c0.5-0.1,0.9-0.5,1.2-1c-1-0.7-2-5.4-2.7-14.1
			C436.6,201.4,436.1,201.6,435.1,201.8"/>
		<path class="st9" d="M436.2,198.7c-1-0.6-2.7,0-5.2,2c0.7,0.6,2.7,1.4,6.1,2.3C437.1,203,436.8,201.6,436.2,198.7"/>
		<path class="st6" d="M451.2,208.7c0.9-2.9,1.1-3.5,0.1-6.3c0.2-2.6-0.7-5.1-2.3-7c-0.3,0.5-0.8,0.9-1.4,1.1
			c-0.3,0.1-0.5,0.2-0.8,0.3c-0.2,0-0.5,0.1-0.7,0.1h-0.4c-0.3,0-0.6,0.1-0.8,0.1h-0.1l0,0c-0.3,0.1-0.5,0.2-0.8,0.2h0.2l-0.2,0.1
			c-0.2,0.1-0.4,0.1-0.6,0.2c-0.1,0-0.3,0.1-0.4,0.1c-0.2,0.1-0.4,0.1-0.7,0.1h0.2l-0.3,0.1c-0.2,0.1-0.5,0.1-0.7,0.2h-0.1h-0.1
			c-0.2,0.1-0.4,0.1-0.6,0.2c-0.2,0.1-0.5,0.1-0.8,0.1l-0.5,0.1l-0.6,0.1c-0.2,0-0.4,0-0.7,0h-0.4h-0.4c-0.2,0.1-0.5,0.1-0.7,0.1
			c-0.4,0.1-0.8,0.1-1.2,0.1c-0.3,2.1,0,3.5,1,4.1c1.4,0.9,1.6,1.8,1.5,3.2c-0.1,1.5,0.2,2.7,0.9,3.5c2.3,2.7,3.1,4,3.5,5.2
			c0.5,1.3,3.6,1,5.9-1.1C449.3,212.2,450.5,210.6,451.2,208.7"/>
		<path class="st10" d="M444.8,189.3L444.8,189.3L444.8,189.3L444.8,189.3z M448.7,198.6c-1.7-0.5-2.5-1.1-2.1-1.9
			c0.3-0.7,0.2-1.4-0.1-2h0.4c0.1,0,0.3,0,0.4,0l0,0l0.4,0.1c0.1,0,0.3,0,0.4,0s0.3,0.1,0.4,0.1s0.1,0.1,0.2,0.1
			c0.3,0.2,0.6,0.3,0.9,0.3h0.1c0.4,0.2,0.8,0.3,1.2,0.3c0.2,0.1,0.4,0.2,0.6,0.2c0.2,0.1,0.4,0.1,0.6,0.2c0.2,2.2,0.2,4.8-0.1,7.9
			c-0.2,1.2-1.8-0.3-1.9-1.7C449.9,199.9,449.8,198.9,448.7,198.6z"/>
		<path class="st6" d="M453.5,202.8c0,0.3-0.3,0.6-0.6,0.7c-0.3,0.1-0.7,0.1-0.9-0.2c-1.7-1.5-2-4.1-0.7-6c0.4-0.7,1.2-1,2-1
			c0.8,0.1,1.5,0.6,1.8,1.3s0.3,1.6-0.3,2.2C454.1,200.7,453.7,201.7,453.5,202.8"/>
		<path class="st11" d="M454.7,199.8c2.7,9,3.6,14.5,2.7,16.5c-0.7,0.1-1.4,0-2-0.4c1.1-1.2,0.1-6.5-2.8-15.8
			C452.6,200.1,453.3,200,454.7,199.8"/>
		<path class="st33" d="M444.7,199.5c0,0,1.4-0.2,4.1-0.7c0.4-0.5,3.2-0.1,8.3,1.4c0,0-0.2-1.5-0.6-4.6c-1-6.2-2.8-8.3-6.8-10.3
			c-3.9-2-8.6-1.7-12.3,0.8c-3.7,2.4-5.7,6.7-5.4,11.1c0,1.1-0.3,2-1.1,2.8C436.4,199.3,441,199.2,444.7,199.5"/>
		<path class="st13" d="M448.6,198.5c0,0,2.7,0.6,8.2,1.9c-0.6,0.6-1,0.9-1.5,0.8c-5.5-1.1-8.3-1.7-8.3-1.7S447.6,199.2,448.6,198.5
			"/>
		<path class="st14" d="M457.6,199.8c-2.5-0.7-5-1.4-7.6-2c-0.5-0.1-1-0.2-1.9,0.1c-5.6-0.6-11.2-0.4-17,0.7c-0.1,0-0.2,0.1-0.2,0.3
			c0,0.1,0.1,0.3,0.3,0.3c5.1-1,10.4-1.2,15.9-0.7c-1.5,0.7-1.2,0.4-4.6,0.4c-4.3,0-8.2,0.3-11.7,1c-0.4,0.2-0.5,0.7-0.2,1.1
			c3-0.7,7-1.1,12-1c3.7,0.1,3.3,0.4,5.7-0.8c0.3-0.2,0.8-0.3,1.4-0.1c4.6,0.8,7.2,1.6,7.2,1.6C457.4,200.6,457.6,200.3,457.6,199.8
			"/>
		<polygon class="st15" points="453.8,195.4 455.2,195.5 453.9,196.1 454.2,197.4 453.3,196.4 452.1,197.1 452.8,195.9 451.8,195 
			453.1,195.3 453.6,194 		"/>
		<rect x="414.3" y="209.3" class="st16" width="8.1" height="4.2"/>
		<path class="st17" d="M436.3,207.5c0.2,0,0.3,0.1,0.3,0.3v0.7h0.2c0.2,0,0.4,0.2,0.4,0.4v1.5c0,0.2-0.2,0.4-0.4,0.4H430
			c-0.2,0-0.4-0.2-0.4-0.4v-1.5c0-0.2,0.2-0.4,0.4-0.4h4.9v-0.7c0-0.2,0.1-0.3,0.3-0.3H436.3"/>
		<path class="st18" d="M437.4,212.5c0,0,6.1,2.4,18.3,7.2c0.4,0.2,0.5,0.5,0.2,1.2c-1.6,3.8-2.3,5.6-2.3,5.6
			c-0.4,0.9-0.9,1.1-2.3,0.2c-11-6.9-16.4-10.4-16.4-10.4c-1.3-0.8-2-2.1-2.1-3.6C432.8,212.7,434.3,212.6,437.4,212.5"/>
		<path class="st19" d="M423.1,208.3c0.3,0,0.5,0.3,0.5,0.6v0.9c0,0.3-0.2,0.6-0.5,0.6h-0.7l0.5,4.3h14.4v1.2c0,1-0.4,1-1.8,1h-1.8
			v2.7h-10.1l0.8,6.6c0,0.3-0.2,0.5-0.5,0.5h-3.1c-0.3,0-0.6-0.2-0.6-0.5l-1.9-15.7H391l0,0h-3.8c-0.6,0-1.1-0.5-1.1-1.1
			s0.5-1.1,1.1-1.1h3.8h1.2v-2.5c0-0.3,0.2-0.5,0.5-0.5s0.5,0.3,0.5,0.5v2.5h1.8H423.1"/>
		<path class="st16" d="M438.6,209.4c0.6,0,1.1,0.5,1.1,1.1v3.8c0,0.6-0.5,1.1-1.1,1.1h-15.2c-0.6,0-1.1-0.5-1.1-1.1v-3.8
			c0-0.6,0.5-1.1,1.1-1.1H438.6"/>
		<path class="st20" d="M444.7,224.7c-17.3,11-27.9,11.8-41.1-10.4c0,0-1.4,0.2-3,0.2c14.2,23.9,26.5,24,45,11.3
			C445.6,225.8,445.5,225.3,444.7,224.7"/>
		<path class="st18" d="M416.8,210.3c0.3,0,0.5,0.2,0.5,0.5v3.8c0,0.3-0.2,0.5-0.5,0.5H396c-0.3,0-0.5-0.2-0.5-0.5v-3.8
			c0-0.3,0.2-0.5,0.5-0.5H416.8"/>
		<path class="st4" d="M468.9,232.9c0,0,0.7-4.7,2.2-14.1c0.4-2.5-2.2-4.6-4.8-5.1c-2.6-0.5-5.7,0.6-6.3,2.9
			c-2.4,7.2-3.6,10.9-3.6,10.9S460.5,229.3,468.9,232.9"/>
		<path class="st3" d="M455.2,227.4c1.1-2.6,1.8-2.4,3.9-2c3.3,0.6,6.4,2.2,8.8,4.6c1.4,1.4,2.1,2.8,0.4,5.3c-2.4,3.3-5.1,6.2-7.7,4
			C461.6,237.3,461.9,232.5,455.2,227.4"/>
		<path class="st21" d="M415.9,216.3c0,0,0.2-0.8,0.6-2.5c0.1-1.2-0.8-3-2.7-3.9c-2.2-1.1-5.1-1-5.6,0.7c-0.8,2.6-0.7,4.1,0.7,4.9
			C412.8,217.8,415.5,218.2,415.9,216.3"/>
		<polygon class="st3" points="466.2,215.2 457.3,213.7 459.7,211.7 468.7,213.3 		"/>
		<path class="st22" d="M459.6,240.9c0.6,0,1,0.5,1,1.1l-0.3,2.8c-0.1,0.6-0.6,1.1-1.2,1.1h-26.8c-0.6,0-1-0.5-1-1.1l0.3-2.8
			c0.1-0.6,0.6-1.1,1.2-1.1H459.6"/>
		<path class="st6" d="M432.7,225.6c0,0,1.6-0.3,4.7-0.9c0,0,0.4,0.3,1.3,0.9c0,0,9.7,6.8,17.9,12.3c4.3,2.8,5.6,2.3,7.6-0.1
			s2.3-6.8-0.5-8c-14.7-6.9-22-10.3-22-10.3c-3.8-1.7-6.9-2.5-6.9-2.5c-0.9-0.3-2.4-0.6-3.9-0.3c-3.9,1-4.7,1.3-5.3,1.4
			c-0.4,0.2-0.4,0.8-0.2,1.3c0.1,0.4,0.5,1.1,0.9,0.9c2.6-0.7,3.9-1,3.9-1c0.8-0.2,0.9,0,0.3,0.4c-1.4,1.1-2.5,1.4-1.6,2.9
			C430.2,225,431.3,225.9,432.7,225.6"/>
		<path class="st23" d="M442.4,328.2c0.3,0,0.5,0.2,0.5,0.5v1.4c0,0.3-0.2,0.5-0.5,0.5h-21.1c-0.3,0-0.5-0.2-0.5-0.5v-1.4
			c0-0.3,0.2-0.5,0.5-0.5H442.4"/>
		<path class="st24" d="M461.4,319.1c0.2,0,0.4,0.2,0.4,0.4l0,0c0,0.2-0.2,0.3-0.4,0.3l-5.4-0.2c-0.2,0-0.4-0.2-0.4-0.4l0,0
			c0-0.2,0.2-0.3,0.4-0.3L461.4,319.1"/>
		<path class="st24" d="M461.2,320.6c0.2,0,0.4,0.2,0.4,0.4l0,0c0,0.2-0.2,0.3-0.4,0.3l-5-0.2c-0.2,0-0.4-0.2-0.4-0.4l0,0
			c0-0.2,0.2-0.3,0.4-0.3L461.2,320.6"/>
		<path class="st24" d="M461,322.1c0.2,0,0.4,0.2,0.4,0.4l0,0c0,0.2-0.2,0.3-0.4,0.3l-4.6-0.2c-0.2,0-0.4-0.2-0.4-0.4l0,0
			c0-0.2,0.2-0.3,0.4-0.3L461,322.1"/>
		<path class="st24" d="M460.7,323.5c0.2,0,0.4,0.2,0.4,0.4l0,0c0,0.2-0.2,0.3-0.4,0.3l-4.1-0.2c-0.2,0-0.4-0.2-0.4-0.4l0,0
			c0-0.2,0.2-0.3,0.4-0.3L460.7,323.5"/>
		<path class="st24" d="M460.5,324.9c0.2,0,0.4,0.2,0.4,0.4l0,0c0,0.2-0.2,0.3-0.4,0.3l-3.6-0.2c-0.2,0-0.4-0.2-0.4-0.4l0,0
			c0-0.2,0.2-0.3,0.4-0.3L460.5,324.9"/>
		<path class="st24" d="M460.3,326.3c0.2,0,0.4,0.2,0.4,0.4l0,0c0,0.2-0.2,0.3-0.4,0.3l-3.3-0.1c-0.2,0-0.4-0.2-0.4-0.4l0,0
			c0-0.2,0.2-0.3,0.4-0.3L460.3,326.3"/>
		<path class="st24" d="M460.1,327.7c0.2,0,0.4,0.2,0.4,0.4l0,0c0,0.2-0.2,0.3-0.4,0.3l-2.9-0.1c-0.2,0-0.4-0.2-0.4-0.4l0,0
			c0-0.2,0.2-0.3,0.4-0.3L460.1,327.7"/>
		<path class="st24" d="M459.8,329c0.2,0,0.4,0.2,0.4,0.4l0,0c0,0.2-0.2,0.3-0.4,0.3l-2.4-0.1c-0.2,0-0.4-0.2-0.4-0.4l0,0
			c0-0.2,0.2-0.3,0.4-0.3L459.8,329"/>
		<path class="st24" d="M459.7,330.4c0.2,0,0.4,0.2,0.4,0.4l0,0c0,0.2-0.2,0.3-0.4,0.3l-2.2-0.1c-0.2,0-0.4-0.2-0.4-0.4l0,0
			c0-0.2,0.2-0.3,0.4-0.3L459.7,330.4"/>
		<path class="st24" d="M437.1,313.7c0.2,0,0.4,0.2,0.4,0.4l0,0c0,0.2-0.2,0.3-0.4,0.3l-2.2-0.2c-0.2,0-0.4-0.2-0.4-0.4l0,0
			c0-0.2,0.2-0.3,0.4-0.3L437.1,313.7"/>
		<path class="st24" d="M437,315c0.2,0,0.4,0.2,0.4,0.4l0,0c0,0.2-0.2,0.3-0.4,0.3l-2.2-0.2c-0.2,0-0.4-0.2-0.4-0.4l0,0
			c0-0.2,0.2-0.3,0.4-0.3L437,315"/>
		<path class="st24" d="M437.1,316.3c0.2,0,0.4,0.2,0.4,0.4l0,0c0,0.2-0.2,0.3-0.4,0.3l-2.2-0.2c-0.2,0-0.4-0.2-0.4-0.4l0,0
			c0-0.2,0.2-0.3,0.4-0.3L437.1,316.3"/>
		<path class="st24" d="M437.1,317.5c0.2,0,0.4,0.2,0.4,0.4l0,0c0,0.2-0.2,0.3-0.4,0.3l-2.2-0.2c-0.2,0-0.4-0.2-0.4-0.4l0,0
			c0-0.2,0.2-0.3,0.4-0.3L437.1,317.5"/>
		<path class="st24" d="M437.1,318.9c0.2,0,0.4,0.2,0.4,0.4l0,0c0,0.2-0.2,0.3-0.4,0.3l-2.2-0.2c-0.2,0-0.4-0.2-0.4-0.4l0,0
			c0-0.2,0.2-0.3,0.4-0.3L437.1,318.9"/>
		<path class="st24" d="M437.1,320.1c0.2,0,0.4,0.2,0.4,0.4l0,0c0,0.2-0.2,0.3-0.4,0.3l-2.2-0.2c-0.2,0-0.4-0.2-0.4-0.4l0,0
			c0-0.2,0.2-0.3,0.4-0.3L437.1,320.1"/>
		<path class="st24" d="M436.2,322.4c0.1,0.1,0.1,0.4,0,0.5l0,0c-0.1,0.1-0.3,0.2-0.5,0l-1.5-1.6c-0.1-0.1-0.1-0.4,0-0.5l0,0
			c0.1-0.1,0.3-0.2,0.5,0L436.2,322.4"/>
		<path class="st24" d="M434.9,323c0.1,0.1,0.1,0.4,0,0.5l0,0c-0.1,0.1-0.3,0.2-0.5,0l-1.5-1.6c-0.1-0.1-0.1-0.4,0-0.5l0,0
			c0.1-0.1,0.3-0.2,0.5,0L434.9,323"/>
		<path class="st24" d="M433.7,323.7c0.1,0.1,0.1,0.4,0,0.5l0,0c-0.1,0.1-0.3,0.2-0.5,0l-1.5-1.6c-0.1-0.1-0.1-0.4,0-0.5l0,0
			c0.1-0.1,0.3-0.2,0.5,0L433.7,323.7"/>
		<path class="st24" d="M432.4,324.6c0.1,0.1,0.1,0.4,0,0.5l0,0c-0.1,0.1-0.3,0.2-0.5,0l-1.5-1.6c-0.1-0.1-0.1-0.4,0-0.5l0,0
			c0.1-0.1,0.3-0.2,0.5,0L432.4,324.6"/>
	</g>
	<path class="st0" d="M367.7,350.1c-0.5-1.5-1.1-3-1.9-4.4c-1.8,0.3-2.7,0.4-2.7,0.4c-1.7,0.6-2.7,2.3-2.4,4
		C360.6,350.2,363,350.2,367.7,350.1"/>
	<path class="st1" d="M383.2,350.2c1.6-12,2.2-18.5,2.2-18.5c-7.1,0.1-10.7,0.2-10.7,0.2c0.6,6.5,0.9,9.7,0.9,9.7
		c-4,2.4-5.9,3.5-5.9,3.5c-3.2,0.5-4.8,0.8-4.8,0.8c0.4,3.3,0.6,5,0.6,5S371.5,351,383.2,350.2"/>
	<path class="st2" d="M381.9,350.3c0,0,0.8-5.8,2.3-17.5c0,0-1-0.2-2.9-0.7c-1.7,12.2-2.6,18.3-2.6,18.3S379.8,350.4,381.9,350.3"/>
	<path class="st1" d="M405.3,358.7c0,0-0.4-3.5-1-10.5c0,0,0.4-4.2,1.1-12.5c-6.6,0.5-9.9,0.7-9.9,0.7c0.4,7.9,0.7,11.9,0.7,11.9
		c-0.9,6.3-1.3,9.4-1.3,9.4C395.8,358.6,399.3,358.9,405.3,358.7"/>
	<path class="st2" d="M401.2,353.4c0,0,0.5-5.7,1.6-17c-3.4-0.2-5.2-0.1-5.3,0.5c0.6,10.8,0.9,16.2,0.9,16.2
		C399.2,353.6,400.3,353.7,401.2,353.4"/>
	<path class="st34" d="M386.5,330.5c0.1,2.5-0.9,2.7-3.2,2.7c0,0-2.5-0.1-7.4-0.3c-1.6-0.1-1.9-1-2.4-5.5c-1.5-14.7-2.4-23.4-2.6-26
		c0,0-0.2-3.1,0.3-17.5c10.5-17,15.4-9.5,14.8,22.6C386.1,318.5,386.2,326.5,386.5,330.5"/>
	<path class="st34" d="M395.7,337.2c-1.7,0-2.1-0.7-2.6-2.5c-2.3-9.1-4.7-13.9-5.7-19.5l-5.7-37.1c9.9,1.4,17.3,4.1,21.6,7.9
		l-1.4,22.7c-0.3,4.4,0.6,6.7,4.2,24.1c0.8,3.6,0.2,4.4-2.8,4.4C399.9,337.2,397.3,337.1,395.7,337.2"/>
	<path class="st34" d="M376.3,276.3c3.8,3.7,8.8,5.8,14.1,6.1C388.4,267.8,383.7,265.8,376.3,276.3"/>
	<path class="st34" d="M375.5,232.5l-3.7,28.3c-1.4,8.6-2.6,17.1-3.7,25.2c0,0,0.8,0,2.5,0c2.7-1.5,7.1-6.5,13.3-14.9
		c-0.3,2.3,2.3,8.7,7.8,19.2c6.4-0.6,12.2-3.8,16-8.7c0,0-1.7-5.1-5.2-15.3c-0.6-3-4.7-4.8-12.4-5.5h11.1l2.6-21.6
		c1.2-1.8,2.5-3.8,3.9-6.1c-2.3-1-5.7-2.2-10.2-3.6l-2.9,6.9L375.5,232.5z"/>
	<polygon class="st3" points="383.8,231.9 374.3,232.8 375.5,230.3 385,229.4 	"/>
	<path class="st4" d="M359.4,241.7c0,0,3-2.6,10.4-6.7c13.5-6.1,9.8,0.5,6.5,9.3c-6.1,4.6-10.7,7.7-13.2,7.8
		C363,250.4,362,246.4,359.4,241.7"/>
	<path class="st3" d="M371.3,235.5c0,0,0,0.3-0.1,1c-3.7,2-5.5,3-5.5,3c-1.1-1.5-1.7-2.3-1.7-2.3c1.8-1,2.7-1.5,2.7-1.5
		S368.2,235.7,371.3,235.5"/>
	<path class="st3" d="M357.5,241.5c5.4-4.5,7.3-0.4,7.4,7.3c-0.1,2-0.6,3.2-1.4,3.6c-2,1.1-3.1,1.6-3.1,1.6
		c-1.5,0.7-2.6,0.8-3.4,0.3C357.1,254.4,357.1,250.2,357.5,241.5"/>
	<path class="st5" d="M353.1,256.8c-1.8,0.1-3.6-1.4-3.3-4.8l1.4-17.7l5.8-2.6c0.1,0.2,0.3,0.4,0.5,0.4h0.2l1.6,16.4
		C360,253.6,357.9,256.4,353.1,256.8"/>
	<path class="st6" d="M356.8,230.7c1,0.9,1.4,1.7,1,2.4c-1.1,1.7-2.6,2.3-4.5,1.7C353.2,234.8,354.4,233.4,356.8,230.7"/>
	<path class="st7" d="M394.6,230.3c0,0-1.4-1.8-1.2-12.2c-7.9,2.4-10.8,8-10.8,8c1.2,3.7,0.4,6.5,0.4,6.5c1.5,2,4.1,2.9,6.6,2.4
		S394.2,232.7,394.6,230.3"/>
	<path class="st3" d="M386.8,260.9h-1.1v-21h1.1V260.9z M394.1,226.6c1.4,0.9,2.1,1.6,3.5,2.6c-1.2,6.8-2.8,10.5-6.2,10.8
		c0,0-1.1-1.8-3.3-5.4C391.1,233.6,393.1,231,394.1,226.6z"/>
	<path class="st8" d="M375.3,218.6c0.9,8.6,1.9,13.7,3.1,15.1c0.5-0.1,1-0.5,1.2-1c-1.1-0.7-2-5.6-2.9-14.6
		C376.8,218.2,376.3,218.3,375.3,218.6"/>
	<path class="st9" d="M376.4,215.3c-1.1-0.7-2.8,0-5.4,2.1c0.7,0.6,2.8,1.4,6.3,2.4C377.3,219.8,377,218.3,376.4,215.3"/>
	<path class="st6" d="M392,225.7c1-3,1.1-3.6,0.1-6.5c0.2-2.7-0.7-5.3-2.4-7.3c-0.3,0.5-0.8,0.9-1.4,1.1c-0.3,0.1-0.6,0.2-0.9,0.3
		c-0.2,0-0.5,0.1-0.7,0.1h-0.5c-0.3,0-0.6,0.1-0.9,0.1h-0.1l0,0c-0.3,0.1-0.6,0.2-0.8,0.2h0.2l-0.2,0.1c-0.2,0.1-0.4,0.1-0.7,0.2
		c-0.1,0-0.3,0.1-0.4,0.1c-0.2,0.1-0.5,0.1-0.7,0.1h0.2l-0.4,0.1c-0.2,0.1-0.5,0.1-0.7,0.2h-0.1h-0.1c-0.2,0.1-0.4,0.2-0.6,0.2
		c-0.3,0.1-0.5,0.1-0.8,0.2l-0.5,0.1l-0.6,0c-0.2,0-0.5,0-0.7,0h-0.5h-0.4c-0.2,0.1-0.5,0.1-0.7,0.1c-0.4,0.1-0.8,0.1-1.3,0.1
		c-0.3,2.2,0,3.6,1,4.3c1.4,1,1.7,1.8,1.6,3.3c-0.1,1.6,0.3,2.8,1,3.6c2.4,2.8,3.2,4.2,3.6,5.4c0.5,1.4,3.7,1.1,6.1-1.2
		C390.1,229.4,391.3,227.7,392,225.7"/>
	<path class="st10" d="M385.4,205.6L385.4,205.6L385.4,205.6L385.4,205.6z M389.5,215.2c-1.8-0.5-2.5-1.1-2.2-2
		c0.3-0.7,0.2-1.5-0.2-2.1h0.4c0.1,0,0.3,0,0.4,0l0,0l0.4,0.1c0.1,0,0.3,0,0.4,0s0.3,0.1,0.4,0.1s0.1,0.1,0.2,0.1
		c0.3,0.2,0.6,0.3,0.9,0.3h0.1c0.4,0.2,0.8,0.3,1.2,0.3c0.2,0.1,0.4,0.2,0.7,0.2c0.2,0.1,0.4,0.1,0.6,0.2c0.2,2.2,0.2,5-0.1,8.2
		c-0.2,1.2-1.9-0.3-1.9-1.8C390.7,216.6,390.5,215.6,389.5,215.2z"/>
	<path class="st6" d="M394.4,219.6c0,0.3-0.3,0.6-0.6,0.8c-0.3,0.1-0.7,0.1-1-0.2c-1.7-1.6-2-4.2-0.7-6.2c0.5-0.7,1.3-1.1,2.1-1
		s1.5,0.6,1.9,1.4c0.3,0.8,0.3,1.7-0.3,2.3C395,217.5,394.6,218.4,394.4,219.6"/>
	<path class="st11" d="M395.7,216.5c2.8,9.3,3.7,15,2.8,17.1c-0.7,0.1-1.5,0-2.1-0.4c1.1-1.3,0.1-6.7-2.9-16.4
		C393.5,216.8,394.2,216.7,395.7,216.5"/>
	<path class="st34" d="M385.3,216.1c0,0,1.4-0.2,4.2-0.7c0.4-0.5,3.3-0.1,8.6,1.4c0,0-0.2-1.6-0.6-4.8c-1-6.4-2.9-8.6-7-10.7
		s-9-1.7-12.8,0.8s-6,6.9-5.6,11.5c0,1.1-0.3,2.1-1.2,2.9C376.6,216,381.4,215.9,385.3,216.1"/>
	<path class="st13" d="M389.3,215.1c0,0,2.8,0.7,8.5,2c-0.6,0.7-1,0.9-1.5,0.8c-5.7-1.2-8.6-1.8-8.6-1.8S388.2,215.8,389.3,215.1"/>
	<path class="st14" d="M398.7,216.5c-2.6-0.8-5.2-1.5-7.9-2.1c-0.5-0.1-1-0.2-1.9,0.2c-5.8-0.7-11.7-0.4-17.6,0.7
		c-0.1,0-0.3,0.1-0.2,0.3c0,0.1,0.1,0.3,0.3,0.3c5.3-1,10.8-1.3,16.5-0.8c-1.6,0.8-1.3,0.4-4.8,0.4c-4.5,0-8.5,0.3-12.1,1
		c-0.4,0.3-0.5,0.8-0.2,1.1c3.1-0.8,7.3-1.1,12.5-1c3.8,0.1,3.4,0.4,5.9-0.8c0.4-0.2,0.8-0.3,1.5-0.1c4.7,0.9,7.4,1.7,7.4,1.7
		C398.4,217.3,398.7,217,398.7,216.5"/>
	<polygon class="st15" points="394.7,211.9 396.1,212 394.9,212.6 395.2,214 394.2,213 393,213.7 393.6,212.5 392.6,211.5 
		394,211.8 394.5,210.5 	"/>
	<rect x="353.8" y="226.4" class="st16" width="8.4" height="4.4"/>
	<path class="st17" d="M376.6,224.4c0.2,0,0.3,0.1,0.3,0.3v0.7h0.2c0.2,0,0.4,0.2,0.4,0.4v1.5c0,0.2-0.2,0.4-0.4,0.4h-7
		c-0.2,0-0.4-0.2-0.4-0.4v-1.5c0-0.2,0.2-0.4,0.4-0.4h5.1v-0.7c0-0.2,0.1-0.3,0.3-0.3H376.6"/>
	<path class="st18" d="M377.7,229.6c0,0,6.3,2.5,19,7.5c0.4,0.2,0.5,0.5,0.2,1.2c-1.6,3.9-2.4,5.9-2.4,5.9c-0.4,1-0.9,1.1-2.4,0.2
		c-11.4-7.2-17.1-10.8-17.1-10.8c-1.3-0.8-2.1-2.2-2.2-3.7C372.9,229.9,374.5,229.8,377.7,229.6"/>
	<path class="st19" d="M362.9,225.3c0.3,0,0.6,0.3,0.5,0.6v1c0,0.3-0.3,0.6-0.6,0.6h-0.7l0.6,4.5h14.9v1.2c0,1-0.4,1-1.9,1h-1.9v2.8
		h-10.5l0.8,6.8c0,0.3-0.2,0.6-0.5,0.6h-3.2c-0.3,0-0.6-0.3-0.6-0.6l-2-16.3h-28.3l0,0h-3.9c-0.6,0-1.1-0.5-1.1-1.1s0.5-1.1,1.1-1.1
		h3.9h1.2v-2.6c0-0.3,0.2-0.5,0.5-0.5s0.5,0.3,0.5,0.5v2.6h1.9H362.9"/>
	<path class="st16" d="M378.9,226.4c0.6,0,1.1,0.5,1.1,1.1v3.9c0,0.6-0.5,1.1-1.1,1.1h-15.8c-0.6,0-1.1-0.5-1.1-1.1v-3.9
		c0-0.6,0.5-1.1,1.1-1.1H378.9"/>
	<path class="st20" d="M385.3,242.3c-18,11.4-29,12.2-42.6-10.8c0,0-1.5,0.2-3.1,0.2c14.7,24.8,27.5,24.9,46.7,11.7
		C386.2,243.4,386.1,243,385.3,242.3"/>
	<path class="st18" d="M356.4,227.3c0.3,0,0.6,0.3,0.6,0.6v4c0,0.3-0.3,0.6-0.6,0.6h-21.7c-0.3,0-0.6-0.3-0.6-0.6v-4
		c0-0.3,0.3-0.6,0.6-0.6H356.4"/>
	<path class="st4" d="M410.4,250.8c0,0,0.7-4.9,2.2-14.6c0.4-2.6-2.3-4.7-5-5.3c-2.7-0.5-5.9,0.6-6.6,3c-2.5,7.5-3.8,11.3-3.8,11.3
		S401.7,247.1,410.4,250.8"/>
	<path class="st3" d="M396.1,245.1c1.1-2.7,1.9-2.5,4-2c3.5,0.6,6.6,2.3,9.1,4.8c1.4,1.5,2.2,2.9,0.4,5.5c-2.5,3.5-5.3,6.4-8,4.2
		C402.8,255.4,403.1,250.4,396.1,245.1"/>
	<path class="st21" d="M355.4,233.6c0,0,0.2-0.9,0.6-2.6c0.1-1.3-0.8-3.1-2.8-4.1c-2.3-1.2-5.3-1-5.8,0.8c-0.8,2.7-0.7,4.3,0.7,5.1
		C352.2,235.1,355,235.5,355.4,233.6"/>
	<polygon class="st3" points="407.6,232.5 398.3,230.9 400.9,228.8 410.2,230.4 	"/>
	<path class="st22" d="M400.7,259.1c0.6,0,1.1,0.5,1,1.1l-0.3,2.9c-0.1,0.6-0.6,1.1-1.2,1.1h-27.8c-0.6,0-1.1-0.5-1-1.1l0.3-2.9
		c0.1-0.6,0.6-1.1,1.2-1.1H400.7"/>
	<path class="st6" d="M372.8,243.2c0,0,1.6-0.3,4.9-0.9c0,0,0.4,0.3,1.3,0.9c0,0,10,7,18.6,12.8c4.4,2.9,5.8,2.4,7.9-0.1
		s2.4-7-0.5-8.3c-15.2-7.1-22.9-10.7-22.9-10.7c-3.9-1.7-7.1-2.6-7.1-2.6c-1-0.3-2.5-0.6-4-0.3c-4,1.1-4.9,1.3-5.5,1.5
		c-0.4,0.2-0.4,0.9-0.2,1.3c0.1,0.5,0.5,1.1,0.9,1c2.7-0.7,4.1-1,4.1-1c0.8-0.2,0.9,0,0.3,0.5c-1.5,1.1-2.5,1.4-1.7,3
		C370.2,242.6,371.4,243.6,372.8,243.2"/>
	<path class="st23" d="M382.9,349.6c0.3,0,0.6,0.3,0.6,0.6v1.4c0,0.3-0.3,0.6-0.6,0.6H361c-0.3,0-0.6-0.3-0.6-0.6v-1.4
		c0-0.3,0.3-0.6,0.6-0.6H382.9"/>
	<path class="st24" d="M402.6,340.2c0.2,0,0.4,0.2,0.4,0.4l0,0c0,0.2-0.2,0.4-0.4,0.4l-5.6-0.2c-0.2,0-0.4-0.2-0.4-0.4l0,0
		c0-0.2,0.2-0.4,0.4-0.4L402.6,340.2"/>
	<path class="st24" d="M402.4,341.8c0.2,0,0.4,0.2,0.4,0.4l0,0c0,0.2-0.2,0.4-0.4,0.4l-5.2-0.2c-0.2,0-0.4-0.2-0.4-0.4l0,0
		c0-0.2,0.2-0.4,0.4-0.4L402.4,341.8"/>
	<path class="st24" d="M402.2,343.3c0.2,0,0.4,0.2,0.4,0.4l0,0c0,0.2-0.2,0.4-0.4,0.4l-4.8-0.2c-0.2,0-0.4-0.2-0.4-0.4l0,0
		c0-0.2,0.2-0.4,0.4-0.4L402.2,343.3"/>
	<path class="st24" d="M401.9,344.8c0.2,0,0.4,0.2,0.4,0.4l0,0c0,0.2-0.2,0.4-0.4,0.4l-4.3-0.2c-0.2,0-0.4-0.2-0.4-0.4l0,0
		c0-0.2,0.2-0.4,0.4-0.4L401.9,344.8"/>
	<path class="st24" d="M401.6,346.3c0.2,0,0.4,0.2,0.4,0.4l0,0c0,0.2-0.2,0.4-0.4,0.4l-3.8-0.2c-0.2,0-0.4-0.2-0.4-0.4l0,0
		c0-0.2,0.2-0.4,0.4-0.4L401.6,346.3"/>
	<path class="st24" d="M401.5,347.7c0.2,0,0.4,0.2,0.4,0.4l0,0c0,0.2-0.2,0.4-0.4,0.4l-3.5-0.1c-0.2,0-0.4-0.2-0.4-0.4l0,0
		c0-0.2,0.2-0.4,0.4-0.4L401.5,347.7"/>
	<path class="st24" d="M401.2,349.1c0.2,0,0.4,0.2,0.4,0.4l0,0c0,0.2-0.2,0.4-0.4,0.4l-3-0.1c-0.2,0-0.4-0.2-0.4-0.4l0,0
		c0-0.2,0.2-0.4,0.4-0.4L401.2,349.1"/>
	<path class="st24" d="M400.9,350.5c0.2,0,0.4,0.2,0.4,0.4l0,0c0,0.2-0.2,0.4-0.4,0.4l-2.5-0.1c-0.2,0-0.4-0.2-0.4-0.4l0,0
		c0-0.2,0.2-0.4,0.4-0.4L400.9,350.5"/>
	<path class="st24" d="M400.8,352c0.2,0,0.4,0.2,0.4,0.4l0,0c0,0.2-0.2,0.4-0.4,0.4l-2.2-0.1c-0.2,0-0.4-0.2-0.4-0.4l0,0
		c0-0.2,0.2-0.4,0.4-0.4L400.8,352"/>
	<path class="st24" d="M377.4,334.6c0.2,0,0.4,0.2,0.4,0.4l0,0c0,0.2-0.2,0.4-0.4,0.3l-2.2-0.2c-0.2,0-0.4-0.2-0.4-0.4l0,0
		c0-0.2,0.2-0.4,0.4-0.3L377.4,334.6"/>
	<path class="st24" d="M377.3,336c0.2,0,0.4,0.2,0.4,0.4l0,0c0,0.2-0.2,0.4-0.4,0.3l-2.2-0.2c-0.2,0-0.4-0.2-0.4-0.4l0,0
		c0-0.2,0.2-0.4,0.4-0.3L377.3,336"/>
	<path class="st24" d="M377.4,337.2c0.2,0,0.4,0.2,0.4,0.4l0,0c0,0.2-0.2,0.4-0.4,0.3l-2.2-0.2c-0.2,0-0.4-0.2-0.4-0.4l0,0
		c0-0.2,0.2-0.4,0.4-0.3L377.4,337.2"/>
	<path class="st24" d="M377.4,338.6c0.2,0,0.4,0.2,0.4,0.4l0,0c0,0.2-0.2,0.4-0.4,0.3l-2.2-0.2c-0.2,0-0.4-0.2-0.4-0.4l0,0
		c0-0.2,0.2-0.4,0.4-0.3L377.4,338.6"/>
	<path class="st24" d="M377.4,339.9c0.2,0,0.4,0.2,0.4,0.4l0,0c0,0.2-0.2,0.4-0.4,0.3l-2.2-0.2c-0.2,0-0.4-0.2-0.4-0.4l0,0
		c0-0.2,0.2-0.4,0.4-0.3L377.4,339.9"/>
	<path class="st24" d="M377.3,341.3c0.2,0,0.4,0.2,0.4,0.4l0,0c0,0.2-0.2,0.4-0.4,0.3l-2.2-0.2c-0.2,0-0.4-0.2-0.4-0.4l0,0
		c0-0.2,0.2-0.4,0.4-0.3L377.3,341.3"/>
	<path class="st24" d="M376.4,343.6c0.1,0.1,0.1,0.4,0,0.5l0,0c-0.1,0.2-0.4,0.2-0.5,0l-1.6-1.6c-0.1-0.1-0.1-0.4,0-0.5l0,0
		c0.1-0.2,0.4-0.2,0.5,0L376.4,343.6"/>
	<path class="st24" d="M375.1,344.2c0.1,0.1,0.2,0.4,0,0.5l0,0c-0.1,0.2-0.4,0.2-0.5,0l-1.6-1.6c-0.1-0.1-0.1-0.4,0-0.5l0,0
		c0.1-0.2,0.4-0.2,0.5,0L375.1,344.2"/>
	<path class="st24" d="M373.9,345c0.1,0.1,0.1,0.4,0,0.5l0,0c-0.1,0.2-0.4,0.2-0.5,0l-1.6-1.6c-0.1-0.1-0.1-0.4,0-0.5l0,0
		c0.1-0.2,0.4-0.2,0.5,0L373.9,345"/>
	<path class="st24" d="M372.6,345.9c0.1,0.1,0.1,0.4,0,0.5l0,0c-0.1,0.2-0.4,0.2-0.5,0l-1.6-1.6c-0.1-0.1-0.1-0.4,0-0.5l0,0
		c0.1-0.2,0.4-0.2,0.5,0L372.6,345.9"/>
	<path class="st0" d="M311.3,333.7c-0.5-1.5-1.1-3-1.9-4.4c-1.8,0.3-2.7,0.4-2.7,0.4c-1.7,0.6-2.7,2.3-2.4,4
		C304.3,333.7,306.6,333.7,311.3,333.7"/>
	<path class="st1" d="M326.9,333.7c1.6-12,2.2-18.5,2.2-18.5c-7.1,0.1-10.7,0.2-10.7,0.2c0.6,6.5,0.9,9.7,0.9,9.7
		c-4,2.4-5.9,3.5-5.9,3.5c-3.2,0.5-4.8,0.8-4.8,0.8c0.4,3.3,0.6,5,0.6,5S315.2,334.5,326.9,333.7"/>
	<path class="st2" d="M325.6,333.8c0,0,0.8-5.8,2.3-17.5c0,0-1-0.2-2.9-0.7c-1.7,12.2-2.6,18.3-2.6,18.3S323.4,333.9,325.6,333.8"/>
	<path class="st1" d="M348.9,342.2c0,0-0.3-3.5-1-10.5c0,0,0.4-4.2,1.1-12.5c-6.6,0.5-9.9,0.7-9.9,0.7c0.4,7.9,0.7,11.9,0.7,11.9
		c-0.9,6.3-1.3,9.4-1.3,9.4C339.4,342.1,343,342.5,348.9,342.2"/>
	<path class="st2" d="M344.8,336.9c0,0,0.5-5.7,1.6-17c-3.4-0.2-5.2-0.1-5.3,0.5c0.6,10.8,0.9,16.2,0.9,16.2
		C342.9,337.1,343.9,337.2,344.8,336.9"/>
	<path class="st35" d="M330.1,314c0.1,2.5-0.9,2.7-3.2,2.7c0,0-2.5-0.1-7.4-0.3c-1.6-0.1-1.9-1-2.4-5.5c-1.5-14.7-2.4-23.4-2.6-26
		c0,0-0.2-3.1,0.3-17.5c10.5-17,15.4-9.5,14.8,22.6C329.7,302,329.9,310,330.1,314"/>
	<path class="st35" d="M339.3,320.7c-1.7,0-2.1-0.7-2.6-2.5c-2.3-9.1-4.7-13.9-5.7-19.5l-5.7-37.1c9.9,1.4,17.3,4.1,21.6,7.9
		l-1.4,22.7c-0.3,4.4,0.6,6.7,4.2,24.1c0.8,3.6,0.2,4.4-2.8,4.4C343.5,320.7,341,320.7,339.3,320.7"/>
	<path class="st35" d="M319.9,259.8c3.8,3.7,8.8,5.8,14.1,6.1C332.1,251.3,327.4,249.3,319.9,259.8"/>
	<path class="st35" d="M319.2,216l-3.7,28.3c-1.4,8.6-2.6,17.1-3.7,25.2c0,0,0.8,0,2.5,0c2.7-1.5,7.1-6.5,13.3-14.9
		c-0.3,2.3,2.3,8.7,7.8,19.2c6.4-0.6,12.2-3.8,16-8.7c0,0-1.7-5.1-5.2-15.3c-0.6-3-4.7-4.8-12.4-5.5H345l2.6-21.6
		c1.2-1.8,2.5-3.8,3.9-6.1c-2.3-1-5.7-2.2-10.2-3.6l-2.9,6.9L319.2,216z"/>
	<polygon class="st3" points="327.5,215.4 317.9,216.3 319.1,213.8 328.7,212.9 	"/>
	<path class="st4" d="M303.1,225.2c0,0,3-2.6,10.4-6.7c13.5-6.1,9.8,0.5,6.5,9.3c-6.1,4.6-10.7,7.7-13.2,7.8
		C306.6,233.9,305.6,229.9,303.1,225.2"/>
	<path class="st3" d="M314.9,219.1c0,0,0,0.3-0.1,1c-3.7,2-5.5,3-5.5,3c-1.1-1.5-1.7-2.3-1.7-2.3c1.8-1,2.7-1.5,2.7-1.5
		S311.9,219.2,314.9,219.1"/>
	<path class="st3" d="M301.2,225c5.4-4.5,7.3-0.4,7.4,7.3c-0.1,2-0.6,3.2-1.4,3.6c-2,1.1-3.1,1.6-3.1,1.6c-1.5,0.7-2.6,0.8-3.4,0.3
		C300.7,237.9,300.8,233.7,301.2,225"/>
	<path class="st5" d="M296.8,240.3c-1.8,0.1-3.6-1.4-3.3-4.8l1.4-17.7l5.8-2.6c0.1,0.2,0.3,0.4,0.5,0.4h0.2L303,232
		C303.6,237.1,301.5,239.9,296.8,240.3"/>
	<path class="st6" d="M300.4,214.2c1,0.9,1.4,1.7,1,2.4c-1.1,1.7-2.6,2.3-4.5,1.7C296.9,218.3,298.1,217,300.4,214.2"/>
	<path class="st7" d="M338.3,213.8c0,0-1.4-1.8-1.2-12.2c-7.9,2.4-10.8,8-10.8,8c1.2,3.7,0.4,6.5,0.4,6.5c1.5,2,4.1,2.9,6.6,2.4
		S337.8,216.2,338.3,213.8"/>
	<path class="st3" d="M330.5,244.4h-1.1v-21h1.1V244.4z M337.8,210.2c1.4,0.9,2.1,1.6,3.5,2.6c-1.2,6.8-2.8,10.5-6.2,10.8
		c0,0-1.1-1.8-3.3-5.4C334.7,217.2,336.7,214.5,337.8,210.2z"/>
	<path class="st8" d="M319,202.1c0.9,8.6,1.9,13.7,3.1,15.1c0.5-0.1,1-0.5,1.2-1c-1.1-0.7-2-5.6-2.9-14.6
		C320.5,201.7,320,201.8,319,202.1"/>
	<path class="st9" d="M320.1,198.8c-1.1-0.7-2.8,0-5.4,2.1c0.7,0.6,2.8,1.4,6.3,2.4C321,203.4,320.7,201.9,320.1,198.8"/>
	<path class="st6" d="M335.7,209.2c1-3,1.1-3.6,0.1-6.5c0.2-2.7-0.7-5.3-2.4-7.3c-0.3,0.5-0.8,0.9-1.4,1.1c-0.3,0.1-0.6,0.2-0.9,0.3
		c-0.2,0-0.5,0.1-0.7,0.1h-0.5c-0.3,0-0.6,0.1-0.9,0.1h0l0,0c-0.3,0.1-0.6,0.2-0.8,0.2h0.2l-0.2,0.1c-0.2,0.1-0.4,0.1-0.7,0.2
		c-0.1,0-0.3,0.1-0.4,0.1c-0.2,0.1-0.5,0.1-0.7,0.1h0.2l-0.4,0.1c-0.2,0.1-0.5,0.1-0.7,0.2h-0.1h-0.1c-0.2,0.1-0.4,0.2-0.6,0.2
		c-0.3,0.1-0.5,0.1-0.8,0.2l-0.5,0.1l-0.6,0.1c-0.2,0-0.5,0-0.7,0h-0.5h-0.4c-0.2,0.1-0.5,0.1-0.7,0.1c-0.4,0.1-0.8,0.1-1.3,0.1
		c-0.3,2.2,0,3.6,1,4.3c1.4,1,1.7,1.8,1.6,3.3c-0.1,1.6,0.3,2.8,1,3.6c2.4,2.8,3.2,4.2,3.6,5.4c0.5,1.4,3.7,1.1,6.1-1.2
		C333.7,212.9,334.9,211.2,335.7,209.2"/>
	<path class="st10" d="M329.1,189.1L329.1,189.1L329.1,189.1L329.1,189.1z M333.1,198.8c-1.8-0.5-2.5-1.1-2.2-2
		c0.3-0.7,0.2-1.5-0.2-2.1h0.4c0.1,0,0.3,0,0.4,0l0,0l0.4,0.1c0.1,0,0.3,0,0.4,0s0.3,0.1,0.4,0.1s0.1,0.1,0.2,0.1
		c0.3,0.2,0.6,0.3,0.9,0.3h0.1c0.4,0.2,0.8,0.3,1.2,0.3c0.2,0.1,0.4,0.2,0.7,0.2c0.2,0.1,0.4,0.1,0.6,0.2c0.2,2.2,0.2,5-0.1,8.2
		c-0.2,1.2-1.9-0.3-1.9-1.8C334.3,200.1,334.2,199.1,333.1,198.8z"/>
	<path class="st6" d="M338.1,203.1c0,0.3-0.3,0.6-0.6,0.8c-0.3,0.1-0.7,0.1-1-0.2c-1.7-1.6-2-4.2-0.7-6.2c0.5-0.7,1.3-1.1,2.1-1
		c0.8,0.1,1.5,0.6,1.9,1.4c0.3,0.8,0.3,1.7-0.3,2.3C338.7,201,338.2,202,338.1,203.1"/>
	<path class="st11" d="M339.3,200c2.8,9.3,3.7,15,2.8,17.1c-0.7,0.1-1.5,0-2.1-0.4c1.1-1.3,0.1-6.7-2.9-16.4
		C337.1,200.3,337.9,200.2,339.3,200"/>
	<path class="st35" d="M328.9,199.7c0,0,1.4-0.2,4.2-0.7c0.4-0.5,3.3-0.1,8.6,1.4c0,0-0.2-1.6-0.6-4.8c-1-6.4-2.9-8.6-7-10.7
		c-4.1-2-9-1.7-12.8,0.8s-6,6.9-5.6,11.5c0,1.1-0.3,2.1-1.2,2.9C320.3,199.5,325.1,199.4,328.9,199.7"/>
	<path class="st13" d="M333,198.7c0,0,2.8,0.7,8.5,2c-0.6,0.7-1,0.9-1.5,0.8c-5.7-1.2-8.6-1.8-8.6-1.8S331.9,199.3,333,198.7"/>
	<path class="st14" d="M342.3,200c-2.6-0.8-5.2-1.5-7.9-2.1c-0.5-0.1-1-0.2-1.9,0.2c-5.8-0.7-11.7-0.4-17.6,0.7
		c-0.1,0-0.3,0.1-0.2,0.3c0,0.1,0.1,0.3,0.3,0.3c5.3-1,10.8-1.3,16.5-0.8c-1.6,0.8-1.3,0.4-4.8,0.4c-4.5,0-8.5,0.3-12.1,1
		c-0.4,0.3-0.5,0.8-0.2,1.1c3.1-0.8,7.3-1.1,12.5-1c3.8,0.1,3.4,0.4,5.9-0.8c0.4-0.2,0.8-0.3,1.5-0.1c4.7,0.9,7.4,1.7,7.4,1.7
		C342.1,200.8,342.3,200.5,342.3,200"/>
	<polygon class="st15" points="338.4,195.4 339.8,195.6 338.5,196.2 338.8,197.6 337.8,196.5 336.6,197.2 337.3,196 336.2,195.1 
		337.6,195.3 338.2,194 	"/>
	<rect x="297.4" y="209.9" class="st16" width="8.4" height="4.4"/>
	<path class="st17" d="M320.2,207.9c0.2,0,0.3,0.1,0.3,0.3v0.7h0.2c0.2,0,0.4,0.2,0.4,0.4v1.5c0,0.2-0.2,0.4-0.4,0.4h-7
		c-0.2,0-0.4-0.2-0.4-0.4v-1.5c0-0.2,0.2-0.4,0.4-0.4h5.1v-0.7c0-0.2,0.1-0.3,0.3-0.3H320.2"/>
	<path class="st18" d="M321.4,213.1c0,0,6.3,2.5,19,7.5c0.4,0.2,0.5,0.5,0.2,1.2c-1.6,3.9-2.4,5.9-2.4,5.9c-0.4,1-0.9,1.1-2.4,0.2
		c-11.4-7.2-17.1-10.8-17.1-10.8c-1.3-0.8-2.1-2.2-2.2-3.7C316.5,213.4,318.1,213.3,321.4,213.1"/>
	<path class="st19" d="M306.5,208.8c0.3,0,0.6,0.3,0.5,0.6v1c0,0.3-0.3,0.6-0.6,0.6h-0.7l0.6,4.5h14.9v1.2c0,1-0.4,1-1.9,1h-1.9v2.8
		H307l0.8,6.8c0,0.3-0.2,0.6-0.5,0.6h-3.2c-0.3,0-0.6-0.3-0.6-0.6l-2-16.3h-28.3l0,0h-3.9c-0.6,0-1.1-0.5-1.1-1.1s0.5-1.1,1.1-1.1
		h3.9h1.2v-2.6c0-0.3,0.2-0.5,0.5-0.5s0.5,0.3,0.5,0.5v2.6h1.9H306.5"/>
	<path class="st16" d="M322.6,209.9c0.6,0,1.1,0.5,1.1,1.1v3.9c0,0.6-0.5,1.1-1.1,1.1h-15.8c-0.6,0-1.1-0.5-1.1-1.1V211
		c0-0.6,0.5-1.1,1.1-1.1H322.6"/>
	<path class="st20" d="M328.9,225.8c-18,11.4-29,12.2-42.6-10.8c0,0-1.5,0.2-3.1,0.2c14.7,24.8,27.5,24.9,46.7,11.7
		C329.9,226.9,329.7,226.5,328.9,225.8"/>
	<path class="st18" d="M300,210.9c0.3,0,0.6,0.3,0.6,0.6v4c0,0.3-0.3,0.6-0.6,0.6h-21.7c-0.3,0-0.6-0.3-0.6-0.6v-4
		c0-0.3,0.3-0.6,0.6-0.6H300"/>
	<path class="st4" d="M354.1,234.3c0,0,0.7-4.9,2.2-14.6c0.4-2.6-2.3-4.7-5-5.3c-2.7-0.5-5.9,0.6-6.6,3c-2.5,7.5-3.8,11.3-3.8,11.3
		S345.3,230.6,354.1,234.3"/>
	<path class="st3" d="M339.8,228.6c1.1-2.7,1.9-2.5,4-2c3.5,0.6,6.6,2.3,9.1,4.8c1.4,1.5,2.2,2.9,0.4,5.5c-2.5,3.5-5.3,6.4-8,4.2
		C346.4,238.9,346.7,233.9,339.8,228.6"/>
	<path class="st21" d="M299,217.2c0,0,0.2-0.9,0.6-2.6c0.1-1.3-0.8-3.1-2.8-4.1c-2.3-1.2-5.3-1-5.8,0.8c-0.8,2.7-0.7,4.3,0.7,5.1
		C295.8,218.6,298.6,219.1,299,217.2"/>
	<polygon class="st3" points="351.3,216 342,214.4 344.5,212.4 353.8,214 	"/>
	<path class="st22" d="M344.4,242.6c0.6,0,1.1,0.5,1,1.1l-0.3,2.9c-0.1,0.6-0.6,1.1-1.2,1.1H316c-0.6,0-1.1-0.5-1-1.1l0.3-2.9
		c0.1-0.6,0.6-1.1,1.2-1.1H344.4"/>
	<path class="st6" d="M316.5,226.8c0,0,1.6-0.3,4.9-0.9c0,0,0.4,0.3,1.3,0.9c0,0,10,7,18.6,12.8c4.4,2.9,5.8,2.4,7.9-0.1
		s2.4-7-0.5-8.3c-15.2-7.1-22.9-10.7-22.9-10.7c-3.9-1.7-7.1-2.6-7.1-2.6c-1-0.3-2.5-0.6-4-0.3c-4,1.1-4.9,1.3-5.5,1.5
		c-0.4,0.2-0.4,0.9-0.2,1.3c0.1,0.5,0.5,1.1,0.9,1c2.7-0.7,4.1-1,4.1-1c0.8-0.2,0.9,0,0.3,0.5c-1.5,1.1-2.5,1.4-1.7,3
		C313.9,226.1,315,227.1,316.5,226.8"/>
	<path class="st23" d="M326.5,333.1c0.3,0,0.6,0.3,0.6,0.6v1.4c0,0.3-0.3,0.6-0.6,0.6h-21.9c-0.3,0-0.6-0.3-0.6-0.6v-1.4
		c0-0.3,0.3-0.6,0.6-0.6H326.5"/>
	<path class="st24" d="M346.3,323.8c0.2,0,0.4,0.2,0.4,0.4l0,0c0,0.2-0.2,0.4-0.4,0.4l-5.6-0.2c-0.2,0-0.4-0.2-0.4-0.4l0,0
		c0-0.2,0.2-0.4,0.4-0.4L346.3,323.8"/>
	<path class="st24" d="M346.1,325.3c0.2,0,0.4,0.2,0.4,0.4l0,0c0,0.2-0.2,0.4-0.4,0.4l-5.2-0.2c-0.2,0-0.4-0.2-0.4-0.4l0,0
		c0-0.2,0.2-0.4,0.4-0.4L346.1,325.3"/>
	<path class="st24" d="M345.8,326.8c0.2,0,0.4,0.2,0.4,0.4l0,0c0,0.2-0.2,0.4-0.4,0.4l-4.8-0.2c-0.2,0-0.4-0.2-0.4-0.4l0,0
		c0-0.2,0.2-0.4,0.4-0.4L345.8,326.8"/>
	<path class="st24" d="M345.5,328.3c0.2,0,0.4,0.2,0.4,0.4l0,0c0,0.2-0.2,0.4-0.4,0.4l-4.3-0.2c-0.2,0-0.4-0.2-0.4-0.4l0,0
		c0-0.2,0.2-0.4,0.4-0.4L345.5,328.3"/>
	<path class="st24" d="M345.3,329.8c0.2,0,0.4,0.2,0.4,0.4l0,0c0,0.2-0.2,0.4-0.4,0.4l-3.8-0.2c-0.2,0-0.4-0.2-0.4-0.4l0,0
		c0-0.2,0.2-0.4,0.4-0.4L345.3,329.8"/>
	<path class="st24" d="M345.1,331.2c0.2,0,0.4,0.2,0.4,0.4l0,0c0,0.2-0.2,0.4-0.4,0.4l-3.5-0.1c-0.2,0-0.4-0.2-0.4-0.4l0,0
		c0-0.2,0.2-0.4,0.4-0.4L345.1,331.2"/>
	<path class="st24" d="M344.9,332.6c0.2,0,0.4,0.2,0.4,0.4l0,0c0,0.2-0.2,0.4-0.4,0.4l-3-0.1c-0.2,0-0.4-0.2-0.4-0.4l0,0
		c0-0.2,0.2-0.4,0.4-0.4L344.9,332.6"/>
	<path class="st24" d="M344.6,334c0.2,0,0.4,0.2,0.4,0.4l0,0c0,0.2-0.2,0.4-0.4,0.4l-2.5-0.1c-0.2,0-0.4-0.2-0.4-0.4l0,0
		c0-0.2,0.2-0.4,0.4-0.4L344.6,334"/>
	<path class="st24" d="M344.5,335.5c0.2,0,0.4,0.2,0.4,0.4l0,0c0,0.2-0.2,0.4-0.4,0.4l-2.2-0.1c-0.2,0-0.4-0.2-0.4-0.4l0,0
		c0-0.2,0.2-0.4,0.4-0.4L344.5,335.5"/>
	<path class="st24" d="M321,318.2c0.2,0,0.4,0.2,0.4,0.4l0,0c0,0.2-0.2,0.4-0.4,0.3l-2.2-0.2c-0.2,0-0.4-0.2-0.4-0.4l0,0
		c0-0.2,0.2-0.4,0.4-0.3L321,318.2"/>
	<path class="st24" d="M321,319.5c0.2,0,0.4,0.2,0.4,0.4l0,0c0,0.2-0.2,0.4-0.4,0.3l-2.2-0.2c-0.2,0-0.4-0.2-0.4-0.4l0,0
		c0-0.2,0.2-0.4,0.4-0.3L321,319.5"/>
	<path class="st24" d="M321.1,320.8c0.2,0,0.4,0.2,0.4,0.4l0,0c0,0.2-0.2,0.4-0.4,0.3l-2.2-0.2c-0.2,0-0.4-0.2-0.4-0.4l0,0
		c0-0.2,0.2-0.4,0.4-0.3L321.1,320.8"/>
	<path class="st24" d="M321,322.1c0.2,0,0.4,0.2,0.4,0.4l0,0c0,0.2-0.2,0.4-0.4,0.3l-2.2-0.2c-0.2,0-0.4-0.2-0.4-0.4l0,0
		c0-0.2,0.2-0.4,0.4-0.3L321,322.1"/>
	<path class="st24" d="M321.1,323.5c0.2,0,0.4,0.2,0.4,0.4l0,0c0,0.2-0.2,0.4-0.4,0.3l-2.2-0.2c-0.2,0-0.4-0.2-0.4-0.4l0,0
		c0-0.2,0.2-0.4,0.4-0.3L321.1,323.5"/>
	<path class="st24" d="M321,324.8c0.2,0,0.4,0.2,0.4,0.4l0,0c0,0.2-0.2,0.4-0.4,0.3l-2.2-0.2c-0.2,0-0.4-0.2-0.4-0.4l0,0
		c0-0.2,0.2-0.4,0.4-0.3L321,324.8"/>
	<path class="st24" d="M320.1,327.1c0.1,0.1,0.1,0.4,0,0.5l0,0c-0.1,0.2-0.4,0.2-0.5,0L318,326c-0.1-0.1-0.1-0.4,0-0.5l0,0
		c0.1-0.2,0.4-0.2,0.5,0L320.1,327.1"/>
	<path class="st24" d="M318.7,327.7c0.1,0.1,0.1,0.4,0,0.5l0,0c-0.1,0.2-0.4,0.2-0.5,0l-1.6-1.6c-0.1-0.1-0.1-0.4,0-0.5l0,0
		c0.1-0.2,0.4-0.2,0.5,0L318.7,327.7"/>
	<path class="st24" d="M317.6,328.5c0.1,0.1,0.1,0.4,0,0.5l0,0c-0.1,0.2-0.4,0.2-0.5,0l-1.6-1.6c-0.1-0.1-0.1-0.4,0-0.5l0,0
		c0.1-0.2,0.4-0.2,0.5,0L317.6,328.5"/>
	<path class="st24" d="M316.2,329.4c0.1,0.1,0.1,0.4,0,0.5l0,0c-0.1,0.2-0.4,0.2-0.5,0l-1.6-1.6c-0.1-0.1-0.1-0.4,0-0.5l0,0
		c0.1-0.2,0.4-0.2,0.5,0L316.2,329.4"/>
</g>
<path class="st25" d="M469,76.4l13.3,1.7l7.4-43.1h-6.9l-1.1,3.2c-0.3-0.1-0.5-0.1-0.8-0.1c-1.6,0-2.9,1.3-2.9,2.9
	c0,1.3,0.8,2.3,1.9,2.7L469,76.4z"/>
<path class="st36" d="M354.9,65.5l-7,22.5l81.7,0.4l3.4-3.1h7c0.1,0.8,0.6,1.3,1.1,1.3h10.6c0.6,0,1-0.6,1.1-1.3h29.8v-7.5
	l-52.5-7.1l-12.7-23.6c-9.2,0-22.1,0-28.7,0c-5.9,0-9.7,6.8-9.7,6.8C378.4,53.9,354.9,65.5,354.9,65.5z"/>
<path class="st25" d="M354.9,65.5l-7,22.5l81.7,0.4l3.4-3.1h7c0.1,0.8,0.6,1.3,1.1,1.3h10.6c0.6,0,1-0.6,1.1-1.3h29.8v-7.5
	l-52.5-7.1l-12.7-23.6c-9.2,0-22.1,0-28.7,0c-5.9,0-9.7,6.8-9.7,6.8C378.4,53.9,354.9,65.5,354.9,65.5z"/>
<path class="st27" d="M376,95.8c1.9-0.3,3.6,1,3.9,2.9s-1,3.6-2.9,3.9s-3.6-1-3.9-2.9C372.8,97.8,374.1,96,376,95.8z"/>
<path class="st37" d="M362.1,93c-0.1,0,5.6,4.9,5.6,4.9l8.8,1.2"/>
<path class="st27" d="M485.9,87.8c1.9-0.3,3.6,1,3.9,2.9s-1,3.6-2.9,3.9s-3.6-1-3.9-2.9S484,88.1,485.9,87.8z"/>
<path class="st37" d="M478.1,85.7c-0.1,0,1,2.6,1,2.6l7.2,2.8"/>
<rect x="395.2" y="44.4" class="st27" width="7.4" height="8.8"/>
<g>
	<path class="st27" d="M392.7,78.9h21c2.1,0,3.8-1.7,3.8-3.8v-4.4c0-2.1-1.7-3.8-3.8-3.8h-21V78.9z"/>
	<rect x="388.9" y="68.8" class="st27" width="3.7" height="8.4"/>
	<rect x="385.2" y="71.6" class="st27" width="3.7" height="2.7"/>
</g>
<polygon class="st38" points="370.8,60.4 379.3,56.6 378.9,67.4 372,68.8 "/>
<polygon class="st38" points="369.4,69.4 356.4,74.3 357.9,67.2 368,62.3 "/>
<path class="st25" d="M344.2,88l25.4-4h53.2v8.9h-75.6C342.4,93,344.2,88,344.2,88z"/>
<polygon class="st27" points="391.8,53.1 416.4,53.1 416.4,59.2 388.9,59.2 "/>
<rect x="386.1" y="59.1" class="st27" width="25.3" height="4.4"/>
<polyline class="st37" points="369.4,93 369.8,98.2 376.5,99.2 "/>
<line class="st37" x1="398.5" y1="36.5" x2="398.5" y2="44.4"/>
<g>
	<path class="st39" d="M398.5,41.2v-2.3c0,0-39.2-1.8-43.9-1.8c-4.9,0-4.9,2.3-4.9,2.3L398.5,41.2L398.5,41.2z"/>
	<path class="st40" d="M354.7,37.1c-4.9,0-4.9,2.3-4.9,2.3L367,40l-2.6-2.6C358.1,37.2,356.2,37.1,354.7,37.1z"/>
</g>
<g>
	<path class="st39" d="M398.5,41.2v-2.3c0,0,39.2-1.8,43.9-1.8c4.9,0,4.9,2.3,4.9,2.3L398.5,41.2L398.5,41.2z"/>
	<path class="st40" d="M442.4,37.1c4.9,0,4.9,2.3,4.9,2.3L430.1,40l2.6-2.6C439,37.2,440.9,37.1,442.4,37.1z"/>
</g>
<path class="st40" d="M418.9,38h-40.7c0,0,0,2.3,6.5,2.3c3.1,0,8.5,0,13.9,0s10.8,0,13.9,0C418.9,40.3,418.9,38,418.9,38z"/>
<path class="st25" d="M466,33.2c-0.1,0.9,0.4,1.8,1.3,2.1l12.5,4.2l-9.5,11.7c-0.3,0.4-0.4,0.6-0.4,1c-0.1,0.6,0.1,1.3,0.7,1.7
	c0.4,0.3,0.6,0.4,1,0.4c0.6,0,1.3-0.1,1.7-0.8l9.4-11.5l6.7,13.1c0.5,0.9,1.7,1.3,2.6,0.8c0.6-0.3,1-1,1-1.6c0-0.3-0.1-0.8-0.2-1.1
	L486.3,40l13.1-1.5c0.9-0.1,1.7-0.8,1.7-1.7c0-0.1,0-0.3,0-0.4c-0.1-1.1-1.1-1.8-2.1-1.7l-13.5,1.6l1.1-12.2c0.1-1-0.6-2.1-1.8-2.1
	c-1-0.1-2.1,0.7-2.1,1.8l-1.4,12.4l-12.9-4.3c-1-0.4-2.1,0.3-2.4,1.2C466.1,33,466,33.1,466,33.2z"/>
</svg>
