<svg xmlns="http://www.w3.org/2000/svg" viewBox="0 0 230.92001 466.53514">
  <defs>
    <style>
      .cls-1 {
        fill-rule: evenodd;
      }

      .cls-2 {
        fill: #ead7b9;
      }

      .cls-3 {
        fill: #d2dcea;
      }

      .cls-4 {
        fill: #354053;
      }

      .cls-5 {
        fill: #3b70b7;
      }

      .cls-6 {
        fill: #d3c2a9;
      }

      .cls-7 {
        fill: #8b8b8b;
      }
    </style>
  </defs>
  <title>Asset 3</title>
  <g id="Layer_2" data-name="Layer 2">
    <g id="Layer_1-2" data-name="Layer 1">
      <g>
        <polygon class="cls-1" points="153.13 220.513 200.53 243.643 195.42 293.923 149.6 261.793 153.13 220.513"/>
        <path class="cls-1" d="M209.22,291.55337c.32-12.37.21-47.59.21-47.59a33.5348,33.5348,0,0,0-10.06,1.54s-3.41,36.3-4.09,48.43C198.34,294.36337,208.01,292.77338,209.22,291.55337Z"/>
        <polygon class="cls-1" points="153.01 220.493 197.6 245.863 209.42 243.973 162.26 219.663 153.01 220.493"/>
        <path class="cls-1" d="M187.05,218.41336l3.25-1.21c4.4,1.8,5.13,9.3,3.85,19.54l-6.23,1.23C190.75,223.47336,188.71,221.88336,187.05,218.41336Z"/>
        <path class="cls-1" d="M174.16,214.35336c.05-.28-.11-.43-2.24.67-4.04,2.1-4.48,5.79-4.94,12.04l5.24-1.71c.2-4.86.36-6.4,1.82-7.16v-.93C174.09,216.43338,174.07,214.84335,174.16,214.35336Z"/>
      </g>
      <path d="M179.89,462.23337c-.72.94-.18,3.42-.18,3.42s12.6,1.55,16.65.54a21.26143,21.26143,0,0,0,4.5-2.26c.29-.18.78-1.22,1.05-1.39.51-.32.78.22,1.21-.07a13.588,13.588,0,0,0,1.92-1.43c1.08-6.22-.39-8.73-.39-8.73s-10.74-3.88-12.74-1.21C187.2,457.39334,181.47,460.18338,179.89,462.23337Z"/>
      <path d="M113.52,454.14334l-1.87,10.07h-4.91s-.55-1.43-1.39-1.43c-.71,0-1.63,1.43-2.6,1.43h-25.34s-.45-2.12.1-2.85a9.37928,9.37928,0,0,1,3.06-1.35c5.15-1.49,19.87-6.15,22.43-11.22C106.12,442.64334,113.52,454.14334,113.52,454.14334Z"/>
      <path class="cls-2" d="M203.81,169.33337l-33.11,44.99a8.39307,8.39307,0,0,1,6.4,3.33c3.34,4.47,2.81-4.34,4.69-5.43,7.58-4.37,21.71-12.57,28.21-19.47a111.44033,111.44033,0,0,0,14.5-19.89Z"/>
      <polygon class="cls-2" points="182.1 232.433 192.6 226.693 193.84 225.413 192.38 223.113 190.08 223.393 190.48 216.673 179.48 214.753 173.85 212.163 179.05 230.383 182.1 232.433"/>
      <path class="cls-3" d="M123.86,83.71336s9.64,10.43-20.03,37.96c-29.67,27.54-35.08,19.48-35.08,19.48l-8.96-5.86-6.65-30.64,14.32-3.26,1.55,1.81s3.08.3,4.63-1.86c1.54-2.16,11.37-9.4,25.54-27.29C105.72,65.80336,122.02,81.69336,123.86,83.71336Z"/>
      <path class="cls-2" d="M53.37,105.34337s-10.14-5.01-18.42-18.89c-3.56-5.97-8.49-12.36-9.3-22.72-.8-10.24-12.29,10.77-12.29,10.77s9.39,26.34,14.48,34.08c6.65,10.1,31.86,33.39,38.81,28.87C73.6,132.92337,53.37,105.34337,53.37,105.34337Z"/>
      <path class="cls-4" d="M103.84,454.19339s5.67,8.08,9.84.53c9.62-17.42,23.92-60.46,24.4-80.05.7-28.09-4.15-47.62-4.15-47.62l-30.46-9.77Z"/>
      <path class="cls-4" d="M104.85,188.57336l-1.39,128.71,27.69,15.03s16.62-30.71,18.7-69.91c.88-16.64,1.32-53.97-8.16-66.67C128.86,178.54337,104.85,188.57336,104.85,188.57336Z"/>
      <path class="cls-4" d="M114.96,188.57336l4.53,44.56,12.3,48.32,13.1,45.17,46.78,125.37,13.61,1.09s-1.72-94.11-18.33-121.55c-8.79-14.52-8.78-46.75-12.85-81.46-.73-6.25,2.88-20.37,2.29-26.08-2.29-22.49-18.92-34.2-18.57-38.96Z"/>
      <path class="cls-3" d="M104.83,190.49338l55.37-1.07,24.73-72.5s16.04-43.83-14.71-44.4c-30.75-.56-66.18-.56-66.18-.56S81.21,112.79337,104.83,190.49338Z"/>
      <path class="cls-5" d="M136.99,80.52336s-23.37,39.58-22.04,94.75c.1,4.17,7.67,11.95,7.67,11.95l11.22-12.6C133.85,174.61337,128.95,122.09337,136.99,80.52336Z"/>
      <polygon class="cls-5" points="137.99 79.263 140 93.053 157.75 72.743 157.75 70.123 137.99 79.263"/>
      <polygon class="cls-5" points="132.01 70.123 126.88 87.963 137.15 79.263 132.01 70.123"/>
      <path class="cls-3" d="M182.62,116.35336l17.77,51.75,3.6,1.64-1.89,3.35,20.36,4.4,8.46-16.5-25.48-70.27a44.8357,44.8357,0,0,0-29.96-17.9C160.65,70.62337,181.32,112.04337,182.62,116.35336Z"/>
      <path class="cls-6" d="M160.01,57.49336a65.17054,65.17054,0,0,1-3.23,11.18c-2.07,4.57-20.08,10.45-22.85,11.11-2.77.65.7-13.72.7-16.99,0-2.49,1.64-1.72-.33-5.31h25.71Z"/>
      <path class="cls-2" d="M129.25,50.22336a5.15459,5.15459,0,0,0,4.33,5.88l23.22,3.65a5.19864,5.19864,0,0,0,5.98-4.25l5.52-33.79a5.13484,5.13484,0,0,0-4.33-5.88l-23.21-3.66a5.21391,5.21391,0,0,0-5.99,4.25Z"/>
      <path class="cls-7" d="M168.18,37.29337s5.63-12.43,5.61-16.33c-.03-3.91-.03-6.61-4.68-7.78-6.98-1.75-7.3-.29-10.4-2.94-3.1-2.66-8.45-8.72-10.5-9.56-3.41-1.4-9.15-1.12-10.44,5.4a7.39974,7.39974,0,0,1-4.19,5.7c.18.64,1.38,1.39,3.45,2.85,5.93,4.19,9.7,5.43,14.85,4.94s14.81-1.78,15.3,1.98c.48,3.76-1.73,14.68-1.45,15.59C166.04,38.04337,167.22,37.79337,168.18,37.29337Z"/>
      <path class="cls-2" d="M159.22,46.27336a1.72681,1.72681,0,0,0,1.44,1.97l5.02.79a1.74972,1.74972,0,0,0,2-1.42l1.47-9.01a1.72234,1.72234,0,0,0-1.45-1.96l-5.02-.79a1.73437,1.73437,0,0,0-1.99,1.42Z"/>
      <path class="cls-2" d="M129.3,41.56337a1.71514,1.71514,0,0,0,1.44,1.96l5.01.79a1.74972,1.74972,0,0,0,2-1.42l1.47-9.01a1.71514,1.71514,0,0,0-1.44-1.96l-5.02-.79a1.74217,1.74217,0,0,0-2,1.42Z"/>
      <path class="cls-7" d="M165.48,39.90337s-2.17,13.3-2.9,17.74c-.66,4.01-3.72,12.55-26.77,8.92-13.65-2.15-11.54-11.93-11.01-15.17.4-2.46,4.45-9.4,6.12-10.59.05-.04-.9,5.49-.9,5.49a11.123,11.123,0,0,1,10.2-3.88c10.47,1.65,11.86,8.05,16.49,8.66C160.27,51.56337,163.87,46.29337,165.48,39.90337Z"/>
      <path class="cls-2" d="M143.1,51.82336l-7.17-1.13a1.708,1.708,0,0,1-1.44-1.96l.16-.99,10.6,1.67-.16.99A1.73435,1.73435,0,0,1,143.1,51.82336Z"/>
      <g>
        <path class="cls-2" d="M16.35,73.42337s9-6.61,9.29-9.7c.29-3.08.6-14.39.6-14.39l-.19-2.88s-3.29-1.33-3.42,6.27-2.08,4-2.08,4l-2.5-6.74-3.73-7.98-1.19-3.78s-.51-2.21-1.09-2.6c-1.66-1.13-2,.63-2,.63l3.34,15.18-6.94-12.89s-1.17-1.48-2.16-1.13c-.93.33-.68.89-.68.89l4.3,16.7-4.36-6.2s-1.19-1.42-2.17-1.13c-1.07.32-1.37.38-1.37.38l13.34,26.44Z"/>
        <path class="cls-2" d="M10.59,52.03337l-5.44-8.76a7.77413,7.77413,0,0,0-2.08-2.75,1.46137,1.46137,0,0,0-2.01.37l6.85,14.1Z"/>
      </g>
    </g>
  </g>
</svg>
