<svg xmlns="http://www.w3.org/2000/svg" viewBox="0 0 194.98999 442.29999">
  <defs>
    <style>
      .cls-1 {
        fill: #33612f;
      }

      .cls-2 {
        fill: #8dc641;
      }

      .cls-3 {
        fill: #046937;
      }

      .cls-4 {
        fill: #fdc110;
      }

      .cls-5 {
        fill: #6b8163;
      }

      .cls-6 {
        fill: #3b70b7;
      }

      .cls-7 {
        fill: #dc8727;
      }

      .cls-8 {
        fill: #26773b;
      }

      .cls-9 {
        fill: #37964a;
      }

      .cls-10 {
        fill: #628b3c;
      }
    </style>
  </defs>
  <title>Asset 1</title>
  <g id="Layer_2" data-name="Layer 2">
    <g id="Layer_1-2" data-name="Layer 1">
      <g>
        <path class="cls-1" d="M83.05,26.57s-3.63-1.58-2.92-4.94-8.43,8.2-2.11,22.92c0,0,4.74,9.94,8.77,15.04s1.66-6.29,2.24-7.87a28.88225,28.88225,0,0,0,13.81,1.49s2-4.09-.33-6.18c0,0,11.39-6.58,14.83-8.54a5.17677,5.17677,0,0,0-2.51-1.42c-1.57-.36,5.08-.27,17.08-11.98,0,0-9.59-9.68-34.7-2.82s-1.09.28-1.09.28-2.62-3.41-.28-5.3C95.85,17.25,84.83,18.28,83.05,26.57Z"/>
        <path class="cls-2" d="M78.77,47.16c14.33-22.03,44.12-19.97,44.12-19.97-.3-.04-30.38-3.24-45.04,19.3Z"/>
        <path class="cls-3" d="M133.77,241.73l-1.63-.96c.04-.07,4.36-7.55.04-13.6l1.54-1.1C138.77,233.13,133.98,241.39,133.77,241.73Z"/>
        <path class="cls-4" d="M134.18,230.65s-4.56,5.34-3.42,9.15c0,0-7.99.82-9.13,1.55s3.42,3.14,6.28,2.89c0,0-1.51,6.74-.09,7.81,0,0,3.7-2.74,4.84-5.59,0,0,5.16,3.23,7.34,3.61,0,0-1.78-7.06-3.91-7.89-.67-.26,5.71-1.62,7.99-2.38s-5.7-2.66-7.99-1.52S136.84,237.86,134.18,230.65Z"/>
        <path class="cls-4" d="M133.5,236.8s-2.47,2.49-1.87,4.5a34.01471,34.01471,0,0,0-4.74,1.13c-.6.39,1.8,1.65,3.3,1.52,0,0-.8,3.55-.05,4.11a8.82657,8.82657,0,0,0,2.55-2.94,18.3933,18.3933,0,0,0,3.86,1.9s-1.49-4.79-1.86-4.59c-.95.51,3.75-1.72,4.96-2.12,1.2-.4-3.95-.09-5.16.51C133.3,241.41,134.91,240.59,133.5,236.8Z"/>
        <path class="cls-5" d="M132.78,239.37s-1.22,1.43-.91,2.44a14.8727,14.8727,0,0,0-2.44.41c-.31.2.91.84,1.68.77,0,0-.4,1.8-.02,2.09a4.43188,4.43188,0,0,0,1.29-1.49,9.69684,9.69684,0,0,0,1.96.97s-.47-2.09-.98-1.89a13.5635,13.5635,0,0,1,2.18-1.39c.61-.2-1.63-.17-2.24.14C132.68,241.71,133.49,241.3,132.78,239.37Z"/>
        <path class="cls-3" d="M41.25,208.37l-1.85-.4c7.78-35.75,25.16-42.39,25.9-42.66,14.34-5.53,26.98-1.04,36.56,13l-1.56,1.07c-9.15-13.42-20.71-17.55-34.34-12.3C65.77,167.15,48.78,173.76,41.25,208.37Z"/>
        <polygon class="cls-6" points="148.93 442.3 65.36 442.3 37.92 315.89 173.28 315.89 148.93 442.3"/>
        <rect class="cls-6" x="24.47998" y="299.03998" width="161.52" height="16.84998"/>
        <path class="cls-1" d="M75.09,51.1S57.46,47.99,51.21,62.96c0,0,6.35,1.64,7.94.42,0,0-11.11,8.19-11.06,20.5a82.4595,82.4595,0,0,1,8.01-3.27s-6.99,6.47-1.89,14.51c0,0,2.87-4.75,4.24-5.8,0,0-1.33,3.93,5.25,10.11a4.27168,4.27168,0,0,1,1.63-3.07s6.75,6.41,10.66,6.3c0,0-5.72-11.2-2.3-13.83,1.37-1.05,3.17.82,4.58,2.64,1.4,1.82.38-10.81-1.36-11.65s3.84-1.14,5.17-.35-2.59-8.54-1.73-11.19,1.55,1.54,6.56,2.39C91.92,71.53,81.68,51.24,75.09,51.1Z"/>
        <path class="cls-2" d="M75.34,44.18c-17.63,19.49-8.02,47.76-8.02,47.76-.11-.28-10.91-28.54,7.13-48.48Z"/>
        <path class="cls-3" d="M168.4,271.06c-7.56-34.73-24.52-41.22-24.69-41.28-8.23-3.17-15.77-2.92-22.42.76-17.59,9.72-23.71,40.2-23.77,40.5l-1.86-.36a98.78728,98.78728,0,0,1,5.36-16.99c3.51-8.38,9.72-19.48,19.35-24.8,7.16-3.96,15.23-4.26,23.99-.88.72.26,18.1,6.9,25.88,42.65Z"/>
        <path class="cls-3" d="M170.74,235.37c-.13-.11-13.54-10.79-26.36-5.61l-.71-1.75c5.76-2.33,12.48-2.04,19.44.83a38.22582,38.22582,0,0,1,8.82,5.06Z"/>
        <path class="cls-7" d="M160.78,242.26s4.3,8.84,5.82,12.86c1.51,4.02,3.02-11.1,2.45-12.54-.58-1.44,3.49,3.5,16.71,3.79L176,236.45s7.78-1.98,11.52-6.3H176.6C176.59,230.15,160.49,238.32,160.78,242.26Z"/>
        <path class="cls-4" d="M162.77,241.25s12.38,8.91,13.24,11.21c0,0-2.88-18.11-4.03-17.82a24.61752,24.61752,0,0,0,12.07-8.02s-11.5-.86-19.55,7.32C156.47,242.11,162.77,241.25,162.77,241.25Z"/>
        <path class="cls-8" d="M170.27,227.39s-14.37,3.8-9.2,19.04a55.60837,55.60837,0,0,0,2.3-7.76c.29-2.3,3.16,1.44,5.18,2.59,2.01,1.15-.58-2.08-1.15-4.34-.57-2.27,4.03-4.06,5.75-5.89,1.73-1.84-2.57,1.19-5.17,0C165.36,229.83,168.83,228.48,170.27,227.39Z"/>
        <path class="cls-3" d="M29.39,95.13l-1.85-.4c7.78-35.75,25.16-42.39,25.9-42.66,14.34-5.53,26.98-1.04,36.56,13l-1.56,1.07C79.29,52.72,67.73,48.59,54.1,53.84,53.92,53.91,36.93,60.52,29.39,95.13Z"/>
        <path class="cls-3" d="M27.05,59.44l-1.19-1.47a38.49646,38.49646,0,0,1,8.82-5.06c6.96-2.87,13.68-3.16,19.44-.83l-.71,1.75C40.58,48.65,27.18,59.33,27.05,59.44Z"/>
        <path class="cls-7" d="M26.74,66.58s-4.3,8.71-5.82,12.74c-1.51,4.02-3.02-11.17-2.45-12.61.58-1.44-3.49,3.47-16.71,3.76l9.76-9.68S3.74,58.38,0,54.73H10.92C10.93,54.73,27.03,62.64,26.74,66.58Z"/>
        <path class="cls-4" d="M24.75,65.32S12.37,74.23,11.51,76.53c0,0,2.87-18.11,4.02-17.82A24.61723,24.61723,0,0,1,3.46,50.69s11.5-.86,19.55,7.32C31.05,66.18,24.75,65.32,24.75,65.32Z"/>
        <path class="cls-8" d="M17.25,51.46s14.37,3.8,9.2,19.04a55.60459,55.60459,0,0,1-2.3-7.76c-.29-2.3-3.16,1.44-5.17,2.59s.57-2.07,1.15-4.34c.57-2.27-4.02-4.06-5.75-5.89-1.72-1.84,2.57,1.19,5.17,0C22.16,53.89,18.69,52.54,17.25,51.46Z"/>
        <path class="cls-8" d="M93.98,308.43l-2.81-.37a873.022,873.022,0,0,0,7.45-109.13c.27-55.19-5.33-131.39-33.53-181.02l2.5-1.27c28.49,50.13,34.14,126.83,33.86,182.34A876.17645,876.17645,0,0,1,93.98,308.43Z"/>
        <path class="cls-4" d="M101.55,39.44s-8.16,9.55-6.12,16.35c0,0-14.27,1.46-16.31,2.77s6.12,5.61,11.21,5.16c0,0-2.7,12.05-.16,13.96,0,0,6.62-4.89,8.66-9.99,0,0,9.22,5.78,13.11,6.46,0,0-3.18-12.62-6.99-14.1-1.19-.46,10.2-2.89,14.27-4.25,4.08-1.36-10.19-4.76-14.27-2.72C100.87,55.11,106.31,52.32,101.55,39.44Z"/>
        <path class="cls-4" d="M100.35,50.42s-4.41,4.46-3.34,8.03c0,0-7.39,1.34-8.47,2.03-1.07.69,3.22,2.95,5.9,2.71,0,0-1.42,6.34-.08,7.35,0,0,3.48-2.58,4.56-5.26,0,0,4.86,3.04,6.9,3.4,0,0-2.66-8.56-3.32-8.2-1.69.9,6.71-3.08,8.86-3.79,2.15-.72-7.07-.17-9.21.9C99.99,58.67,102.86,57.2,100.35,50.42Z"/>
        <path class="cls-5" d="M99.05,55.02s-2.18,2.55-1.63,4.37a25.54766,25.54766,0,0,0-4.36.74c-.55.35,1.63,1.5,3,1.38,0,0-.72,3.22-.04,3.73a7.9936,7.9936,0,0,0,2.31-2.67,16.88179,16.88179,0,0,0,3.5,1.73s-.84-3.73-1.75-3.38a24.24079,24.24079,0,0,1,3.89-2.49c1.09-.36-2.92-.3-4.01.25C98.87,59.21,100.33,58.46,99.05,55.02Z"/>
        <path class="cls-1" d="M75.19,88.76s4.67-4.07,19.57,6.03,15.88,11.18,13.59,16.45l-6.09-2.65s-3.69,10.71-7.34,12.98a6.09083,6.09083,0,0,0-1.48-2.69c-.93-.65-12.79,11.74-16.08,13.21,0,0-.88-3.07-.61-3.67.26-.61-6.5,7.79-16.26,10.76-.84.26-.81-.36-.81-.36s1.4-12.65,4.31-17.67c2.9-5.01.49-1.12.49-1.12s1.51-2.9.05-2.33,2.83-7.06,7.17-9.27c0,0,.62-5.32-2.83-5.14-3.45.19,8.9-11.59,11.31-11.02C82.58,92.85,75.19,88.76,75.19,88.76Z"/>
        <path class="cls-9" d="M101.69,97.16c-25.65,5.71-34.15,34.34-34.15,34.34.07-.29,7.59-29.59,33.84-35.44Z"/>
        <path class="cls-1" d="M120.51,76.83s-2.28-3.23.06-5.74c2.35-2.51-11.45,2.65-13.67,18.52,0,0-1.09,10.95-.28,17.41.81,6.45,4.68-4.52,5.99-5.57a28.97237,28.97237,0,0,0,11.04,8.42s3.83-2.47,2.92-5.46c0,0,13.15.26,17.11.37a5.2222,5.2222,0,0,0-1.41-2.51c-1.16-1.12,4.48,2.4,20.82-1.4,0,0-3.2-13.25-28.23-20.38s-1.08-.33-1.08-.33-.47-4.27,2.5-4.68C136.28,75.49,126.32,70.66,120.51,76.83Z"/>
        <path class="cls-2" d="M106.19,92.23c23.66-11.43,48.09,5.75,48.09,5.75-.24-.19-24.31-18.5-48.52-6.81Z"/>
        <path class="cls-10" d="M111.02,93.49s1.77-3.54,5.09-2.65c3.32.88-7.74-8.85-22.78-3.32,0,0-10.17,4.2-15.48,7.96s6.2,1.99,7.74,2.65a28.82537,28.82537,0,0,0-2.21,13.71s3.98,2.21,6.19,0c0,0,5.97,11.72,7.74,15.26a5.22457,5.22457,0,0,0,1.55-2.43c.44-1.55,0,5.08,11.06,17.69,0,0,10.17-9.07,4.64-34.51s-.22-1.1-.22-1.1,3.54-2.43,5.31,0C119.65,106.76,119.21,95.7,111.02,93.49Z"/>
        <path class="cls-2" d="M90.69,88.12c21.24,15.47,17.62,45.11,17.62,45.11.05-.3,4.84-30.16-16.89-45.99Z"/>
        <path class="cls-1" d="M115.45,158.31s-2.24-3.26.13-5.73c2.38-2.48-11.48,2.5-13.91,18.34,0,0-1.23,10.94-.5,17.4s4.73-4.46,6.06-5.5a28.93677,28.93677,0,0,0,10.94,8.56s3.86-2.42,2.99-5.42c0,0,13.15.43,17.1.59a5.21748,5.21748,0,0,0-1.38-2.53c-1.14-1.14,4.45,2.45,20.83-1.14,0,0-3.03-13.29-27.97-20.73s-1.07-.34-1.07-.34-.42-4.27,2.56-4.65C131.24,157.16,121.34,152.21,115.45,158.31Z"/>
        <path class="cls-2" d="M100.94,173.52c23.8-11.13,48.01,6.36,48.01,6.36-.24-.19-24.07-18.81-48.44-7.42Z"/>
        <path class="cls-1" d="M146.27,204.9s-3.43-1.97-2.35-5.23-9.29,7.21-4.65,22.55c0,0,3.6,10.4,7.04,15.92s2.35-6.07,3.1-7.57a28.97441,28.97441,0,0,0,13.56,3.02s2.44-3.84.36-6.18c0,0,12.05-5.27,15.69-6.83a5.26445,5.26445,0,0,0-2.34-1.69c-1.52-.53,5.08.3,18.31-10,0,0-8.46-10.69-34.17-6.67-25.72,4.03-1.12.15-1.12.15s-2.22-3.68.31-5.3C160.03,197.07,148.96,196.86,146.27,204.9Z"/>
        <path class="cls-2" d="M139.72,224.88c16.69-20.29,46.07-14.93,46.07-14.93-.29-.07-29.83-6.61-46.91,14.16Z"/>
        <path class="cls-1" d="M108.55,280.19s-2.24-3.26.13-5.73c2.38-2.48-11.48,2.5-13.91,18.35,0,0-1.23,10.94-.5,17.4s4.73-4.46,6.06-5.5a28.93666,28.93666,0,0,0,10.94,8.56s3.86-2.42,2.99-5.42c0,0,13.15.43,17.1.59a5.21741,5.21741,0,0,0-1.38-2.53c-1.14-1.14,4.45,2.45,20.83-1.14,0,0-3.03-13.29-27.97-20.73s-1.07-.34-1.07-.34-.42-4.27,2.56-4.65C124.34,279.05,114.44,274.1,108.55,280.19Z"/>
        <path class="cls-2" d="M96,292.44c24.98-11.68,50.39,6.68,50.39,6.68-.25-.2-25.27-19.74-50.83-7.79Z"/>
        <path class="cls-1" d="M68.4,292.82s-1.64-3.6-4.98-2.84c-3.35.76,8.06-8.56,22.89-2.49,0,0,10.01,4.57,15.18,8.52s-6.26,1.76-7.83,2.37a28.83429,28.83429,0,0,1,1.71,13.78s-4.06,2.06-6.19-.23c0,0-6.39,11.5-8.29,14.97a5.2,5.2,0,0,1-1.46-2.49c-.39-1.56-.18,5.08-11.7,17.28,0,0-9.84-9.43-3.39-34.65s.26-1.09.26-1.09-3.45-2.56-5.3-.19C59.3,305.77,60.14,294.73,68.4,292.82Z"/>
        <path class="cls-2" d="M88.91,288.2c-21.79,14.69-19.24,44.44-19.24,44.44-.04-.3-3.74-30.32,18.55-45.35Z"/>
        <path class="cls-10" d="M118.66,192.94s.88-3.86,4.32-3.78c3.43.08-9.6-6.78-22.92,2.14,0,0-8.9,6.48-13.17,11.38-4.28,4.9,6.49.48,8.15.76a28.89658,28.89658,0,0,0,1.08,13.85s4.39,1.21,6.02-1.46c0,0,8.56,9.98,11.12,13.01a5.14989,5.14989,0,0,0,.93-2.73c.07-1.61,1.2,4.94,14.91,14.59,0,0,7.75-11.21-3.61-34.63s-.47-1.02-.47-1.02,2.87-3.2,5.16-1.25C130.17,203.81,127.14,193.16,118.66,192.94Z"/>
        <path class="cls-2" d="M97.64,192.51c24.29,10.03,27.74,39.7,27.74,39.7-.02-.3-2.39-30.45-27.24-40.72Z"/>
        <path class="cls-10" d="M75.51,234.64s-.19-3.95-3.58-4.48,10.65-4.97,22.18,6.16c0,0,7.61,7.96,10.95,13.54s-6.47-.68-8.16-.7a28.94653,28.94653,0,0,1-3.51,13.44s-4.53.42-5.66-2.5c0,0-10.2,8.31-13.24,10.84a5.20112,5.20112,0,0,1-.43-2.85c.22-1.6-2.05,4.65-17.26,11.72,0,0-5.65-12.4,9.68-33.44s.65-.92.65-.92-2.26-3.65-4.86-2.14C62.26,243.3,67.13,233.36,75.51,234.64Z"/>
        <path class="cls-2" d="M96.28,237.95c-25.68,5.57-34.33,34.16-34.33,34.16.07-.29,7.75-29.55,34.03-35.26Z"/>
        <path class="cls-1" d="M90.58,150.94s3.34-2.12,2.13-5.33,9.58,6.81,5.6,22.33c0,0-3.16,10.55-6.36,16.21s-2.61-5.96-3.42-7.43a28.86394,28.86394,0,0,1-13.42,3.59s-2.6-3.74-.63-6.16c0,0-12.26-4.76-15.97-6.16a5.23091,5.23091,0,0,1,2.26-1.79c1.5-.6-5.06.51-18.72-9.22,0,0,8-11.04,33.86-8.11s1.12.11,1.12.11,2.06-3.77-.54-5.28C76.51,143.69,87.55,143.02,90.58,150.94Z"/>
        <path class="cls-2" d="M97.97,170.62c-17.54-19.57-46.66-12.97-46.66-12.97.29-.08,29.52-7.86,47.46,12.16Z"/>
        <path class="cls-7" d="M164.64,272.48s.6,9.81.45,14.11c-.14,4.3,7.04-9.1,7.06-10.65s1.88,4.57,13.99,9.89l-5.22-12.9s7.94,1.15,13.05-1.41l-10.09-4.18S165.88,268.73,164.64,272.48Z"/>
        <path class="cls-4" d="M166.87,272.31s8.03,12.97,7.95,15.43c0,0,4.27-17.83,3.1-18.01a24.54947,24.54947,0,0,0,14.22-2.79s-10.29-5.2-20.86-.72S166.87,272.31,166.87,272.31Z"/>
        <path class="cls-8" d="M179.1,262.37s-14.73-1.99-15.78,14.07a55.20844,55.20844,0,0,0,5.09-6.29c1.15-2.02,2.37,2.54,3.79,4.37s.26-2.14.6-4.45c.34-2.32,5.27-2.21,7.57-3.25s-2.83.11-4.78-1.98C173.63,262.75,177.35,262.83,179.1,262.37Z"/>
        <path class="cls-7" d="M43.65,209.09s-.85,7.32-.9,10.58-5.01-7.2-4.97-8.38c.04-1.17-1.6,3.37-10.97,6.96l4.49-9.41s-6.17.27-9.77-1.38l7.8-2.79C29.33,204.67,42.85,206.2,43.65,209.09Z"/>
        <path class="cls-4" d="M41.91,208.69s-6.57,9.53-6.59,11.39c0,0-2.58-13.67-1.68-13.76a18.69983,18.69983,0,0,1-10.67-2.64s7.99-3.56,15.83.23C46.63,207.7,41.91,208.69,41.91,208.69Z"/>
        <path class="cls-8" d="M33.01,200.71s11.24-.96,11.44,11.25a42.75628,42.75628,0,0,1-3.63-4.96c-.79-1.57-1.89,1.83-3.03,3.17s-.12-1.63-.29-3.4-3.91-1.87-5.61-2.74,2.14.19,3.7-1.32C37.13,201.2,34.31,201.12,33.01,200.71Z"/>
        <path class="cls-3" d="M68.88,194.38c-.11-.09-11.32-9.02-22.04-4.69l-.59-1.46c4.82-1.95,10.44-1.71,16.25.69a32.45255,32.45255,0,0,1,7.38,4.23Z"/>
        <path class="cls-7" d="M64.86,198.38s3.85,7.92,5.21,11.52,2.71-9.94,2.19-11.23,3.12,3.14,14.96,3.39l-8.74-8.89s6.97-1.77,10.31-5.64H79.01C79.02,187.54,64.6,194.85,64.86,198.38Z"/>
        <path class="cls-4" d="M66.64,197.48s11.09,7.98,11.86,10.04c0,0-2.58-16.22-3.61-15.96a21.99339,21.99339,0,0,0,10.81-7.18s-10.3-.77-17.51,6.55C61,198.25,66.64,197.48,66.64,197.48Z"/>
        <path class="cls-8" d="M73.35,185.06s-12.87,3.4-8.24,17.05a49.8347,49.8347,0,0,0,2.06-6.95c.26-2.06,2.83,1.29,4.63,2.32s-.51-1.86-1.03-3.89c-.51-2.03,3.61-3.63,5.15-5.28,1.55-1.65-2.3,1.06-4.63,0S72.07,186.04,73.35,185.06Z"/>
        <path class="cls-4" d="M95.9,136.07s-4.56,5.34-3.42,9.15c0,0-7.99.82-9.13,1.55s3.42,3.14,6.28,2.89c0,0-1.51,6.74-.09,7.81,0,0,3.7-2.74,4.84-5.59,0,0,5.16,3.23,7.34,3.61,0,0-1.78-7.06-3.91-7.89-.67-.26,5.71-1.62,7.99-2.38s-5.7-2.66-7.99-1.52C95.52,144.83,98.56,143.27,95.9,136.07Z"/>
        <path class="cls-4" d="M95.23,142.21s-2.47,2.49-1.87,4.5a34.01317,34.01317,0,0,0-4.74,1.13c-.6.39,1.8,1.65,3.3,1.52,0,0-.8,3.55-.05,4.11a8.82668,8.82668,0,0,0,2.55-2.94,18.3933,18.3933,0,0,0,3.86,1.9s-1.49-4.79-1.86-4.59c-.95.51,3.75-1.72,4.96-2.12,1.2-.4-3.95-.09-5.16.51C95.03,146.83,96.63,146.01,95.23,142.21Z"/>
        <path class="cls-5" d="M94.5,144.79s-1.22,1.43-.91,2.44a14.8727,14.8727,0,0,0-2.44.41c-.31.2.91.84,1.68.77,0,0-.4,1.8-.02,2.09a4.432,4.432,0,0,0,1.29-1.49,9.69615,9.69615,0,0,0,1.96.97s-.47-2.09-.98-1.89a13.56339,13.56339,0,0,1,2.18-1.39c.61-.2-1.63-.17-2.24.14C94.4,147.13,95.21,146.71,94.5,144.79Z"/>
        <path class="cls-4" d="M76,32.11s-3.68,4.3-2.76,7.37c0,0-6.43.66-7.35,1.25s2.76,2.53,5.05,2.32c0,0-1.22,5.43-.07,6.29,0,0,2.98-2.2,3.9-4.5,0,0,4.16,2.6,5.91,2.91,0,0-1.43-5.69-3.15-6.36-.54-.21,4.6-1.3,6.43-1.92,1.84-.61-4.59-2.14-6.43-1.23C75.7,39.17,78.15,37.91,76,32.11Z"/>
        <path class="cls-4" d="M75.46,37.06s-1.99,2.01-1.51,3.62a27.07633,27.07633,0,0,0-3.82.91c-.48.31,1.45,1.33,2.66,1.22,0,0-.64,2.86-.04,3.31a7.07206,7.07206,0,0,0,2.05-2.37,14.73139,14.73139,0,0,0,3.11,1.53s-1.2-3.86-1.5-3.7c-.76.41,3.02-1.39,3.99-1.71s-3.18-.08-4.15.41C75.3,40.78,76.59,40.11,75.46,37.06Z"/>
        <path class="cls-5" d="M74.88,39.13s-.98,1.15-.74,1.97a12.08764,12.08764,0,0,0-1.96.33c-.25.16.74.68,1.35.62,0,0-.33,1.45-.02,1.68a3.573,3.573,0,0,0,1.04-1.2,7.332,7.332,0,0,0,1.58.78s-.38-1.68-.79-1.52a10.78838,10.78838,0,0,1,1.75-1.12c.49-.16-1.32-.13-1.81.11C74.8,41.02,75.45,40.68,74.88,39.13Z"/>
        <path class="cls-7" d="M32.4,96.64s.62,6.01,1.16,8.63-5.33-4.82-5.5-5.77-.69,2.99-7.61,7.61l1.95-8.36s-4.93,1.37-8.13.72l5.8-3.69C20.07,95.79,31.24,94.48,32.4,96.64Z"/>
        <path class="cls-4" d="M30.92,96.65s-3.6,8.85-3.29,10.34c0,0-4.51-10.45-3.81-10.69a15.59048,15.59048,0,0,1-9.08-.11s5.81-4.34,12.81-2.78C34.56,94.97,30.92,96.65,30.92,96.65Z"/>
        <path class="cls-8" d="M22.33,91.93s8.89-2.87,11.23,6.85a34.53428,34.53428,0,0,1-3.81-3.28c-.92-1.11-1.2,1.82-1.88,3.1s-.39-1.28-.84-2.66-3.49-.76-5.02-1.14,1.76-.25,2.75-1.75C25.74,91.55,23.45,92.02,22.33,91.93Z"/>
        <path class="cls-7" d="M68.45,26.44s-8.55,4.61-12.12,7.02c-3.56,2.41,4-10.86,5.3-11.7s-4.85.81-15.8-6.61L59.39,12.9S54.44,6.43,53.5,1.3l8.91,6.32C62.41,7.63,70.96,23.4,68.45,26.44Z"/>
        <path class="cls-4" d="M67.56,24.26s-15.26.1-17.29,1.48c0,0,12.83-13.11,13.6-12.21A24.61575,24.61575,0,0,1,58.67,0s9.88,5.95,11.71,17.28C72.2,28.61,67.56,24.26,67.56,24.26Z"/>
        <path class="cls-8" d="M69.47,8.62s9.52,11.42-3.52,20.85a54.90538,54.90538,0,0,1,2.62-7.66c1.1-2.04-3.41-.66-5.72-.89s1.67-1.36,3.45-2.88-.93-5.64-1.28-8.13c-.34-2.5,1.41,2.46,4.22,2.99C72.05,13.44,70.01,10.33,69.47,8.62Z"/>
      </g>
    </g>
  </g>
</svg>
