<svg xmlns="http://www.w3.org/2000/svg" xmlns:xlink="http://www.w3.org/1999/xlink" viewBox="0 0 404.00983 693.31085">
  <defs>
    <style>
      .cls-1 {
        fill: none;
      }

      .cls-2 {
        fill: #26773b;
      }

      .cls-3 {
        fill: #33612f;
      }

      .cls-4 {
        fill: #37964a;
      }

      .cls-5 {
        fill: #8dc641;
      }

      .cls-6 {
        fill: #f04c24;
      }

      .cls-7 {
        fill: #046937;
      }

      .cls-8 {
        fill: #628b3c;
      }

      .cls-9 {
        fill: #3b70b7;
      }

      .cls-10 {
        fill: #854500;
      }

      .cls-11 {
        fill: #7b2800;
      }

      .cls-12 {
        fill: #bf5825;
      }

      .cls-13 {
        fill: url(#linear-gradient);
      }

      .cls-14 {
        fill: url(#linear-gradient-2);
      }

      .cls-15 {
        fill: url(#linear-gradient-3);
      }

      .cls-16 {
        fill: url(#linear-gradient-4);
      }

      .cls-17 {
        fill: url(#linear-gradient-5);
      }

      .cls-18 {
        clip-path: url(#clip-path);
      }

      .cls-19 {
        fill: #e34526;
      }

      .cls-20 {
        fill: #f04d25;
      }

      .cls-21 {
        fill: #821000;
      }

      .cls-22 {
        fill: #2f6326;
      }

      .cls-23 {
        fill: #e44425;
      }

      .cls-24 {
        fill: url(#linear-gradient-6);
      }
    </style>
    <linearGradient id="linear-gradient" x1="26.30994" y1="189.27296" x2="258.16127" y2="189.27296" gradientTransform="matrix(1, 0, 0, -1, 0, 715.8503)" gradientUnits="userSpaceOnUse">
      <stop offset="0.05" stop-color="#cb7346"/>
      <stop offset="0.7022" stop-color="#bf5825"/>
      <stop offset="1" stop-color="#c46535"/>
    </linearGradient>
    <linearGradient id="linear-gradient-2" x1="90.88013" y1="189.27053" x2="255.51007" y2="189.27053" xlink:href="#linear-gradient"/>
    <linearGradient id="linear-gradient-3" x1="29.01007" y1="177.77513" x2="92.58008" y2="177.77513" gradientTransform="matrix(1, 0, 0, -1, 0, 715.8503)" gradientUnits="userSpaceOnUse">
      <stop offset="0" stop-color="#cb7346"/>
      <stop offset="0.1461" stop-color="#c86c3d"/>
      <stop offset="0.9438" stop-color="#cb7346"/>
    </linearGradient>
    <linearGradient id="linear-gradient-4" x1="76.22003" y1="119.60514" x2="94.36005" y2="119.60514" gradientTransform="matrix(1, 0, 0, -1, 0, 715.8503)" gradientUnits="userSpaceOnUse">
      <stop offset="0" stop-color="#ce8a2a"/>
      <stop offset="1" stop-color="#d89d51"/>
    </linearGradient>
    <linearGradient id="linear-gradient-5" x1="59.91041" y1="134.19568" x2="57.14295" y2="117.14068" gradientTransform="matrix(1, 0, 0, -1, 0, 715.8503)" gradientUnits="userSpaceOnUse">
      <stop offset="0.118" stop-color="#d59847"/>
      <stop offset="0.3315" stop-color="#daa35b"/>
      <stop offset="0.6067" stop-color="#daa35b"/>
      <stop offset="0.9045" stop-color="#ce8a2a"/>
    </linearGradient>
    <clipPath id="clip-path">
      <path class="cls-1" d="M142.26007,506.34513c18.61,0,36.68-.69,52.82-1.99a16.95073,16.95073,0,0,1,3.69-6.31,16.61323,16.61323,0,0,1,10.37-5.38,13.4337,13.4337,0,0,1,10.62,3.24,12.87879,12.87879,0,0,1,3.54,5.25c17.79-2.77,24.84-5.71,27.49-7.25,24.64-47.6-32.48-75.32-108.52-75.32s-139.06,27.71-108.52,75.32c2.84,1.66,10.74,4.91,31.5,7.84C86.27,504.70518,113.62006,506.34513,142.26007,506.34513Z"/>
    </clipPath>
    <linearGradient id="linear-gradient-6" x1="73.91003" y1="120.14512" x2="94.91003" y2="120.14512" xlink:href="#linear-gradient-5"/>
  </defs>
  <title>Asset 4</title>
  <g id="Layer_2" data-name="Layer 2">
    <g id="Layer_1-2" data-name="Layer 1">
      <path class="cls-2" d="M173.32007,630.70518l-4.38-.61c.11-.8,11.14-80.97,11.6-179.47.42-90.76-8.3-216.08-52.22-297.7l3.89-2.09c44.37,82.45,53.17,208.58,52.75,299.87C184.50006,549.48515,173.43005,629.89512,173.32007,630.70518Z"/>
      <path class="cls-3" d="M126.93005,236.03514s7.27-6.34,30.48,9.39,24.74,17.41,21.16,25.63l-9.48-4.13s-5.75,16.68-11.43,20.22c0,0-.87-3.18-2.31-4.19s-19.92,18.29-25.04,20.58c0,0-1.37-4.77-.96-5.72s-10.12,12.13-25.32,16.76c-1.31.4-1.26-.56-1.26-.56s2.19-19.71,6.71-27.52c4.52-7.8.76-1.74.76-1.74s2.35-4.52.08-3.63,4.41-11,11.16-14.45c0,0,.96-8.29-4.41-8-5.38.29,13.86-18.05,17.62-17.17C138.45007,242.39515,126.93005,236.03514,126.93005,236.03514Z"/>
      <path class="cls-4" d="M168.20007,249.11515c-39.95,8.9-53.19,53.49-53.19,53.49.11-.46,11.82-46.09,52.71-55.2Z"/>
      <path class="cls-3" d="M142.04,147.90516s-27.47-4.84-37.2,18.48c0,0,9.89,2.56,12.37.65,0,0-17.3,12.76-17.23,31.93,0,0,9.17-4.24,12.47-5.09,0,0-10.89,10.08-2.94,22.61,0,0,4.47-7.4,6.6-9.04,0,0-2.07,6.12,8.17,15.75a6.65547,6.65547,0,0,1,2.54-4.78s10.52,9.99,16.61,9.82c0,0-8.91-17.44-3.59-21.54,2.13-1.64,4.94,1.28,7.13,4.12s.59-16.84-2.11-18.15,5.98-1.78,8.05-.55c2.08,1.23-4.03-13.31-2.69-17.44s2.41,2.39,10.22,3.73C168.24005,179.72514,152.29,148.11515,142.04,147.90516Z"/>
      <path class="cls-5" d="M141.41,144.12516c-27.46,30.35-12.49,74.4-12.49,74.4-.17-.44-16.99-44.45,11.11-75.51Z"/>
      <path class="cls-6" d="M207.22,365.31516c-1.01-9,3.69-18.66,11.82-22.85,1.72-.89,6.79-6.41,7.52-8.21,3.47-8.46,12.68994-13.98,21.74-13.75,10.75.27,20.23,5.97,26.74,13.99,8.28,10.2,9.93,21.56,3.8,34.16-3.42005,7.04-6.26,8.35-9.74,12.16-3.49,3.8-4.56006,6.74-11.27,10.76-12.03,7.2-23.49,6.53-34.36-.84C214.9101,384.95518,208.41,376.00517,207.22,365.31516Z"/>
      <path class="cls-6" d="M207.22,365.31516c-1.01-9,3.69-18.66,11.82-22.85,1.72-.89,6.79-6.41,7.52-8.21a21.1111,21.1111,0,0,1,5.09-7.29c-2.53,4.33,1.93006,8.65-9.28,19.2-10.43,9.8-1.93005,31.88,16.41,37.69,11.39,3.61,28.43-4.12,42.57995-21.8a38.87306,38.87306,0,0,1-2.53,6.6c-3.42005,7.04-6.26,8.35-9.74,12.16-3.49,3.8-4.56,6.74-11.27,10.76-12.03,7.2-23.49,6.53-34.36-.84C214.9101,384.95518,208.41,376.00517,207.22,365.31516Z"/>
      <path class="cls-2" d="M220.59,335.96516a10.27463,10.27463,0,0,1,1.41-10.58,10.946,10.946,0,0,0,2.13,7.11c.52-2.24,3.59-6.79,7.16-7.55-2.35,3.22-3.18,5.43-2.78,8.92a7.10748,7.10748,0,0,1,3.63.69,17.71982,17.71982,0,0,1,2.77,2.7c-4.2-.54-6.84,4.95-9.7,2.7,0,0-3.22,5.21-1.71,9.71-4.34-3.38-3.26-5.99-3.26-5.99-3.06006.63-5.31006,5.01-6.52,7.57-.73-3.06.25-7.41,2.99-9.69a8.5351,8.5351,0,0,0-7.82,2.15c1.86993-4.29007,6.16986-8.89005,11.69989-7.74Z"/>
      <path class="cls-2" d="M208.03,328.39515c6.03-.97,12.46,5.63,15.33,9.02a1.22253,1.22253,0,0,1-.92005.86c-1.98-1.79-5.17-4.45-7.89-5.6-3.92-1.65-6.33-.81-6.33-.81A2.24519,2.24519,0,0,1,208.03,328.39515Z"/>
      <path class="cls-6" d="M269.71,365.95518a5.21739,5.21739,0,0,1-1.64-.27,5.15141,5.15141,0,0,1-3.24-6.53c5.72-17.02-11.49-23.82-12.23-24.1a5.14993,5.14993,0,0,1,3.68-9.62,37.75316,37.75316,0,0,1,12.26,8.3c5.32,5.5,10.68,14.95,6.06006,28.71A5.17331,5.17331,0,0,1,269.71,365.95518Z"/>
      <path class="cls-2" d="M236.12006,528.43516a9.15127,9.15127,0,0,0-8.73-3.83,9.7457,9.7457,0,0,1,4.43994,4.93c-1.96-.64-6.85-.41-9.08,1.97,3.55-.3,5.62.09,8.1,2.02a6.33764,6.33764,0,0,0-1.15,3.09,15.13163,15.13163,0,0,0,.78,3.37c1.54-3.47,6.96-2.93,6.56006-6.15,0,0,5.47-.04,8.21,3.2-.56995-4.88-3.06006-5.27-3.06006-5.27,1.9-2.04,6.29-1.73,8.8-1.47a9.24119,9.24119,0,0,0-8.79-2.21,7.62834,7.62834,0,0,1,5.27-4.97c-4.16-.58-9.66.57-11.35,5.32Z"/>
      <path class="cls-2" d="M236.1701,515.33512c-3.54,4.15-1.48,12.13-.22,15.89a1.08138,1.08138,0,0,0,1.08-.3,29.19947,29.19947,0,0,1-.61-8.62c.55-3.76,2.31006-5.21,2.31006-5.21A2.00639,2.00639,0,0,0,236.1701,515.33512Z"/>
      <path class="cls-7" d="M289.25006,572.49516c-11.78-54.1-38.2-64.21-38.46-64.3-12.82-4.94-24.56006-4.54-34.92,1.18-27.4,15.15-36.93,62.61-37.02,63.09l-2.89-.56a152.42076,152.42076,0,0,1,8.35-26.46c5.47-13.05,15.14-30.35,30.14-38.64,11.16-6.17,23.73-6.63,37.37-1.37,1.12.4,28.18994,10.75,40.31006,66.43Z"/>
      <path class="cls-7" d="M235.31,526.81516l-2.53-1.5c.06994-.12,6.8-11.77.06994-21.19l2.4-1.71C243.1,513.41514,235.63007,526.27513,235.31,526.81516Z"/>
      <path class="cls-2" d="M147.66,156.86515c-3.11,5.64,1.16,14.37,3.51,18.42a1.28285,1.28285,0,0,0,1.18-.6c-1.08-2.6-2.58-6.72-2.76-9.82-.25-4.48,1.44-6.57,1.44-6.57A2.36017,2.36017,0,0,0,147.66,156.86515Z"/>
      <path class="cls-3" d="M100.64008,108.29515s6.96-6.68,30.9,7.92,25.54,16.2,22.37,24.58l-9.67-3.66s-4.95,16.93-10.44,20.75c0,0-1.02-3.13-2.51-4.07s-19.02,19.23-24.03,21.75c0,0-1.6-4.7-1.23-5.67s-9.52,12.6-24.49,17.96c-1.29.46-1.28-.5-1.28-.5s1.24-19.8,5.38-27.81.67-1.77.67-1.77,2.13-4.63-.1-3.63c-2.22,1,3.87-11.2,10.46-14.96,0,0,.57-8.33-4.79-7.78s12.98-18.69,16.77-17.99C112.45007,114.10514,100.64008,108.29515,100.64008,108.29515Z"/>
      <path class="cls-4" d="M142.49005,119.38514c-39.48,10.8-50.56,55.98-50.56,55.98.09-.46,9.6-46.61,50-57.66Z"/>
      <path class="cls-8" d="M171.22,122.16514s2.75-5.51,7.92-4.13-12.06-13.78-35.48-5.17c0,0-15.85,6.55-24.11,12.4-8.27,5.85,9.65,3.1,12.06,4.13a45.05659,45.05659,0,0,0-3.45,21.36s6.2,3.44,9.65,0c0,0,9.3,18.26,12.06,23.77a8.04941,8.04941,0,0,0,2.41-3.79c.69-2.41,0,7.92,17.23,27.56,0,0,15.85-14.13,7.24-53.74-8.61-39.62-.34-1.72-.34-1.72s5.52-3.79,8.27,0C184.65,142.83515,183.96,125.61515,171.22,122.16514Z"/>
      <path class="cls-5" d="M139.55005,113.81516c33.09,24.1,27.44,70.27,27.44,70.27.08-.47,7.54-46.98-26.31-71.64Z"/>
      <path class="cls-3" d="M144.06006,288.54515s7.27-6.34,30.48,9.39,24.74,17.41,21.16,25.63l-9.48-4.13s-5.75,16.68-11.43,20.22c0,0-.87-3.18-2.31-4.19s-19.92,18.29-25.04,20.58c0,0-1.37-4.77-.96-5.72s-10.12,12.13-25.32,16.76c-1.31.4-1.26-.56-1.26-.56s2.19-19.71,6.71-27.52c4.52-7.8.76-1.74.76-1.74s2.35-4.52.08-3.63,4.41-11,11.16-14.45c0,0,.96-8.29-4.41-8-5.38.29,13.86-18.05,17.62-17.17C155.58,294.91514,144.06006,288.54515,144.06006,288.54515Z"/>
      <path class="cls-4" d="M185.33,301.62516c-39.95,8.9-53.19,53.49-53.19,53.49.11-.46,11.82-46.09,52.7-55.2Z"/>
      <path class="cls-3" d="M214.64008,269.96516s-3.56-5.03.09-8.93c3.65-3.91-17.84,4.13-21.3,28.85,0,0-1.7,17.06-.44,27.11s7.29-7.04,9.33-8.68a44.98136,44.98136,0,0,0,17.2,13.12s5.96-3.84,4.55-8.5c0,0,20.49.41,26.65.58a8.09634,8.09634,0,0,0-2.2-3.91c-1.8-1.75,6.98,3.74,32.42005-2.19,0,0-4.98-20.64-43.97-31.74s-1.68006-.51-1.68006-.51-.74-6.65,3.9-7.29C239.21,267.86515,223.7,260.34516,214.64008,269.96516Z"/>
      <path class="cls-5" d="M192.34,293.94514c36.85-17.8,74.9,8.96,74.9,8.96-.37-.29-37.87-28.82-75.58-10.6Z"/>
      <path class="cls-8" d="M199.87006,295.90516s2.75-5.51,7.92-4.13-12.05-13.78-35.48-5.17c0,0-15.85,6.55-24.11,12.4-8.27,5.85,9.65,3.1,12.06,4.13a45.05659,45.05659,0,0,0-3.45,21.36s6.2,3.44,9.65,0c0,0,9.3,18.26,12.06,23.77a8.04941,8.04941,0,0,0,2.41-3.79c.69-2.41,0,7.92,17.23,27.56,0,0,15.84-14.13,7.23-53.75s-.34-1.72-.34-1.72,5.52-3.79,8.27,0C213.31,316.57514,212.62006,299.34516,199.87006,295.90516Z"/>
      <path class="cls-5" d="M168.20007,287.54515c33.09,24.1,27.44,70.27,27.44,70.27.08-.47,7.54-46.98-26.31-71.64Z"/>
      <path class="cls-3" d="M206.77,396.86515s-3.5-5.07.2-8.93-17.89,3.9-21.66,28.57c0,0-1.92,17.04-.78,27.11,1.13,10.07,7.37-6.95,9.44-8.56a44.94119,44.94119,0,0,0,17.04,13.33s6.01-3.76,4.66-8.45c0,0,20.48.67,26.64.92a8.062,8.062,0,0,0-2.15-3.94c-1.78-1.77,6.93006,3.82,32.45-1.78,0,0-4.72-20.7-43.56994-32.29s-1.67005-.53-1.67005-.53-.65-6.66,3.99-7.24C231.36005,395.08512,215.94,387.36515,206.77,396.86515Z"/>
      <path class="cls-5" d="M184.16,420.56516c37.08-17.34,74.78,9.91,74.78,9.91-.37-.29-37.5-29.29-75.44-11.55Z"/>
      <path class="cls-3" d="M254.78009,469.44517s-5.34-3.07-3.66-8.15-14.46,11.22-7.24,35.12c0,0,5.61,16.2,10.96,24.8,5.36,8.6,3.66-9.45,4.82995-11.8a45.04065,45.04065,0,0,0,21.12,4.7s3.8-5.99.56994-9.63c0,0,18.77-8.21,24.44-10.64a8.14583,8.14583,0,0,0-3.64-2.63c-2.37-.83,7.91.47,28.52-15.57,0,0-13.17-16.65-53.23-10.38-40.05,6.27-1.74.24-1.74.24s-3.46-5.73.49-8.25C276.2,457.25517,258.97,456.92515,254.78009,469.44517Z"/>
      <path class="cls-5" d="M244.58,500.56516c26-31.61,71.76-23.26,71.76-23.26-.46-.11-46.46-10.29-73.06006,22.06Z"/>
      <path class="cls-3" d="M196.02,586.72514s-3.5-5.07.21-8.93c3.7-3.86-17.89,3.9-21.66,28.57,0,0-1.92,17.04-.79,27.11s7.38-6.95,9.44-8.56a44.94127,44.94127,0,0,0,17.04,13.33s6.01-3.77,4.66-8.45c0,0,20.48005.67,26.64.92a8.062,8.062,0,0,0-2.15-3.94c-1.78-1.77,6.93006,3.82,32.45-1.78,0,0-4.72-20.7-43.56994-32.29s-1.67005-.53-1.67005-.53-.65-6.66,3.99-7.24C220.61005,584.94517,205.20007,577.22514,196.02,586.72514Z"/>
      <path class="cls-5" d="M173.41,610.42515c37.08-17.34,74.78,9.91,74.78,9.91-.37-.29-37.5-29.29-75.44-11.55Z"/>
      <path class="cls-8" d="M211.77,450.81516s1.37994-6,6.73-5.88-14.96-10.56-35.7,3.33c0,0-13.86,10.1-20.52,17.73-6.66,7.64,10.11.74,12.69,1.18a44.93962,44.93962,0,0,0,1.68,21.57s6.83,1.89,9.37-2.27c0,0,13.34,15.55,17.32,20.26a8.05663,8.05663,0,0,0,1.45-4.25c.1-2.51,1.86,7.7,23.23,22.73,0,0,12.08-17.46-5.62-53.94s-.74-1.59-.74-1.59,4.47-4.98,8.04-1.95C229.7,467.73515,224.97,451.16514,211.77,450.81516Z"/>
      <path class="cls-5" d="M179.02,450.14512c37.83,15.63,43.21,61.83,43.21,61.83-.03-.47-3.73-47.43-42.44-63.43Z"/>
      <path class="cls-8" d="M144.57007,515.77513s-.29-6.15-5.58-6.98c-5.28-.83,16.59-7.74,34.55,9.6,0,0,11.85,12.39,17.05,21.08,5.2,8.7-10.08-1.06-12.7-1.09a44.92218,44.92218,0,0,1-5.47,20.93s-7.06.65-8.82-3.89c0,0-15.88,12.95-20.63,16.88a8.089,8.089,0,0,1-.68-4.44c.34-2.49-3.2,7.25-26.89,18.26,0,0-8.79-19.32,15.08-52.09,23.88-32.77,1.01-1.43,1.01-1.43s-3.52-5.69-7.56-3.34C123.93005,529.25517,131.51007,513.77513,144.57007,515.77513Z"/>
      <path class="cls-5" d="M176.91,520.91514c-40,8.68-53.48,53.21-53.48,53.21.12-.46,12.07-46.03,53-54.92Z"/>
      <path class="cls-3" d="M168.04,385.38517s5.2-3.3,3.31-8.3,14.93,10.6,8.73,34.78c0,0-4.92,16.43-9.91,25.24-4.99,8.82-4.06-9.28-5.33-11.58a45.0047,45.0047,0,0,1-20.9,5.59s-4.05-5.82-.97-9.6c0,0-19.1-7.41-24.87-9.59a8.05567,8.05567,0,0,1,3.52-2.78c2.33-.93-7.88.8-29.16-14.36,0,0,12.45-17.19,52.74-12.62s1.75.17,1.75.17,3.21-5.87-.84-8.22C146.11005,374.10514,163.32007,373.05516,168.04,385.38517Z"/>
      <path class="cls-5" d="M179.55005,416.04515c-27.31-30.48-72.68-20.2-72.68-20.2.46-.12,45.98-12.25,73.93,18.94Z"/>
      <polygon class="cls-9" points="287.71 654.375 207.62 654.375 181.32 533.235 311.05 533.235 287.71 654.375"/>
      <rect class="cls-9" x="168.45007" y="517.08512" width="154.78998" height="16.15002"/>
      <path class="cls-3" d="M217.24005,123.11515s-27.47-4.84-37.2,18.48c0,0,9.89,2.56,12.37.65,0,0-17.3,12.76-17.23,31.93,0,0,9.17-4.24,12.47-5.09,0,0-10.89,10.08-2.94,22.61,0,0,4.47-7.4,6.6-9.04,0,0-2.07,6.12,8.17,15.75a6.65548,6.65548,0,0,1,2.54-4.78s10.52,9.99,16.6,9.82c0,0-8.91-17.44-3.59-21.54,2.13-1.64,4.93994,1.28,7.13,4.12s.59-16.84-2.11-18.15,5.98-1.78,8.05-.55c2.07995,1.23-4.03-13.31-2.68994-17.44s2.41,2.39,10.22,3.73C243.45,154.92515,227.50006,123.32514,217.24005,123.11515Z"/>
      <path class="cls-5" d="M217.62006,112.33515c-27.46,30.35-12.49,74.4-12.49,74.4-.17-.44-16.99-44.45,11.11-75.51Z"/>
      <path class="cls-6" d="M280.55,258.54515c-1.01-9,3.68994-18.66,11.81994-22.85,1.72-.89,6.79-6.41,7.52-8.21,3.47-8.46,12.69-13.98,21.74-13.75,10.75.27,20.23,5.97,26.74,13.99,8.28,10.2,9.93006,21.56,3.8,34.16-3.42,7.04-6.26,8.35-9.74,12.16-3.49,3.8-4.56006,6.74-11.27,10.76-12.03,7.2-23.49,6.53-34.36-.84C288.24005,278.18516,281.75006,269.23515,280.55,258.54515Z"/>
      <path class="cls-6" d="M280.55,258.54515c-1.01-9,3.68994-18.66,11.81994-22.85,1.72-.89,6.79-6.41,7.52-8.21a21.11126,21.11126,0,0,1,5.09-7.29c-2.53,4.33,1.93,8.65-9.28,19.2-10.43,9.8-1.93,31.88,16.41,37.69,11.39,3.61,28.43006-4.12,42.58-21.8a38.8734,38.8734,0,0,1-2.53,6.6c-3.42,7.04-6.26,8.35-9.74,12.16-3.49,3.8-4.56006,6.74-11.27,10.76-12.03,7.2-23.49,6.53-34.36-.84C288.24005,278.18516,281.75006,269.23515,280.55,258.54515Z"/>
      <path class="cls-2" d="M293.93,229.19514a10.27465,10.27465,0,0,1,1.41-10.58,10.94605,10.94605,0,0,0,2.13,7.11c.52-2.24,3.59-6.79,7.16-7.55-2.35,3.22-3.18006,5.43-2.78,8.92a7.10743,7.10743,0,0,1,3.63.69,17.71982,17.71982,0,0,1,2.77,2.7c-4.2-.54-6.84,4.95-9.7,2.7,0,0-3.21,5.21-1.71,9.71-4.34-3.38-3.26-5.99-3.26-5.99-3.06006.63-5.31006,5.01-6.52,7.57-.73-3.06.25-7.41,2.99-9.69a8.535,8.535,0,0,0-7.82,2.15c1.86988-4.29,6.15992-8.89,11.69983-7.74Z"/>
      <path class="cls-2" d="M281.37006,221.62516c6.03-.97,12.46,5.63,15.32995,9.02a1.2225,1.2225,0,0,1-.92.86c-1.98-1.79-5.17005-4.45-7.89-5.6-3.92-1.65-6.32995-.81-6.32995-.81A2.24514,2.24514,0,0,1,281.37006,221.62516Z"/>
      <path class="cls-6" d="M343.0401,259.18516a5.2173,5.2173,0,0,1-1.64-.27,5.15139,5.15139,0,0,1-3.24-6.53c5.72-17.02-11.49-23.82-12.23-24.1a5.14993,5.14993,0,0,1,3.68006-9.62,37.75354,37.75354,0,0,1,12.26,8.3c5.31994,5.5,10.68,14.95,6.06006,28.71A5.16411,5.16411,0,0,1,343.0401,259.18516Z"/>
      <path class="cls-6" d="M338.07,425.07517c-6.4-4.94-15.96-5.84-22.93006-1.58-1.48.9-8.05,2.21-9.76,1.94-8.06994-1.28-16.56,3.2-20.59,10.22-4.78,8.33-4.83,18.22-1.73,26.91,3.93994,11.05,11.85,17.59,24.31994,18.75,6.96.65,9.29-.9,13.81006-1.8s7.26-.35,13.45-3.61c11.08-5.84,15.89-14.9,15.31006-26.62C349.49005,440.06516,345.68,430.94517,338.07,425.07517Z"/>
      <path class="cls-6" d="M338.07,425.07517c-6.4-4.94-15.96-5.84-22.93006-1.58-1.48.9-8.05,2.21-9.76,1.94a18.62259,18.62259,0,0,0-7.93.51c4.48.08,5.71,5.49,18.97,1.82,12.31995-3.41,25.24,13.32,21.16,30.02-2.53,10.37-16.34,19.79-36.41,22.4a34.41965,34.41965,0,0,0,6.21,1.13c6.96.65,9.29-.9,13.81006-1.8s7.26-.35,13.45-3.61c11.08-5.84,15.89-14.9,15.31006-26.62C349.49005,440.06516,345.68,430.94517,338.07,425.07517Z"/>
      <path class="cls-2" d="M309.45,421.66514a9.15125,9.15125,0,0,0-8.73-3.83,9.74561,9.74561,0,0,1,4.43994,4.93c-1.96-.64-6.85-.41-9.07995,1.97,3.55-.3,5.62.09,8.1,2.02a6.33767,6.33767,0,0,0-1.15,3.09,15.13163,15.13163,0,0,0,.78,3.37c1.54-3.47,6.96-2.93,6.56006-6.15,0,0,5.47-.04,8.21,3.2-.57-4.88-3.06006-5.27-3.06006-5.27,1.9-2.04,6.29-1.73,8.8-1.47a9.24121,9.24121,0,0,0-8.79-2.21,7.62834,7.62834,0,0,1,5.27-4.97c-4.15991-.57995-9.65991.57-11.35,5.32Z"/>
      <path class="cls-2" d="M309.50006,408.56516c-3.54,4.15-1.48,12.13-.22,15.89a1.08136,1.08136,0,0,0,1.08-.3,29.19947,29.19947,0,0,1-.61-8.62c.55-3.76,2.31006-5.21,2.31006-5.21A2.00634,2.00634,0,0,0,309.50006,408.56516Z"/>
      <path class="cls-6" d="M305.62006,475.85514a4.92316,4.92316,0,0,1-1.14-.13c-12.93-2.92-17.75-11.59-19.52-18.35a33.68366,33.68366,0,0,1-.66-13.45,5.15193,5.15193,0,0,1,10.14,1.83c-.29,1.71-2.41,16.59,12.31006,19.91a5.15928,5.15928,0,0,1-1.13,10.19006Z"/>
      <path class="cls-7" d="M362.58,465.72514c-11.78-54.1-38.19995-64.21-38.46-64.3-12.82-4.94-24.56006-4.54-34.92005,1.18-27.4,15.15-36.93005,62.61-37.02,63.09l-2.89-.56a152.415,152.415,0,0,1,8.35-26.46c5.47-13.05,15.14-30.35,30.14-38.64,11.16-6.17,23.73-6.63,37.37-1.37,1.12.4,28.18994,10.75,40.31006,66.43Z"/>
      <path class="cls-7" d="M308.64008,420.04515l-2.53-1.5c.06994-.12,6.8-11.77.06994-21.19l2.4-1.71C316.43,406.64512,308.97,419.50517,308.64008,420.04515Z"/>
      <path class="cls-2" d="M246.65009,523.93516l-4.38-.61c.11-.8,11.14-80.97,11.6-179.47.42-90.76-8.3-216.08-52.22-297.7l3.89-2.09c44.37,82.45,53.17,208.58,52.75,299.87C257.83,442.71513,246.77008,523.12516,246.65009,523.93516Z"/>
      <path class="cls-6" d="M257.94,62.39515c-8.57995-4.2-19.84-2.96-26.88,3.62-1.49,1.39-8.78,4.46-10.82,4.56-9.64.44-18.39,7.63-21.38,16.7-3.55,10.77-1.26,22.21,4.39,31.52,7.18,11.84,17.87,17.52,32.57,15.91,8.2-.9,10.52-3.25,15.53-5.36s8.31006-2.13,14.68994-7.37c11.42-9.38,14.82995-21,11.38-34.41C274.71,77.01515,268.13007,67.38516,257.94,62.39515Z"/>
      <path class="cls-6" d="M257.94,62.39515c-8.57995-4.2-19.84-2.96-26.88,3.62-1.49,1.39-8.78,4.46-10.82,4.56a22.15409,22.15409,0,0,0-9.05,2.47c5.2-.97,7.9,4.99,22.36005-2.4,13.43005-6.87,32.34,9.41,31.59,29.68-.47,12.6-14.2,26.77-36.77,34.54a41.69084,41.69084,0,0,0,7.45-.16c8.2-.9,10.52-3.25,15.53-5.36s8.31006-2.13,14.68994-7.37c11.42-9.38,14.82995-21,11.38-34.41C274.71,77.01515,268.13007,67.38516,257.94,62.39515Z"/>
      <path class="cls-2" d="M224.0401,65.25515a10.81154,10.81154,0,0,0-11.01-2.36c2.51.97,4.43994,1.89,6.3,4.64-2.41-.28-8.01,1.15-10.04,4.43,4.03-1.19,6.53-1.23,9.85.41a7.42618,7.42618,0,0,0-.6,3.85,18.1052,18.1052,0,0,0,1.7,3.7c.96-4.37,7.35-5.04,6.12-8.67,0,0,6.31006-1.34,10.25,1.76-1.81006-5.51-4.79-5.37-4.79-5.37,1.72-2.81,6.86-3.49,9.83-3.79-2.78-1.81-7.45-2.38-10.69-.47a8.98689,8.98689,0,0,1,4.92005-7c-4.92017.33-11.01013,2.97-11.84009,8.87Z"/>
      <path class="cls-3" d="M173.97,1.52516s6.96-6.68,30.9,7.92,25.54,16.2,22.37,24.58l-9.67-3.66s-4.95,16.93-10.44,20.75c0,0-1.02-3.13-2.51-4.07s-19.02,19.23-24.03,21.75c0,0-1.6-4.7-1.23-5.67s-9.52,12.6-24.49,17.96c-1.29.46-1.28-.5-1.28-.5s1.24-19.8,5.38-27.81.67-1.77.67-1.77,2.13-4.63-.1-3.63c-2.22,1,3.87-11.2,10.46-14.96,0,0,.57-8.33-4.79-7.78s12.98-18.69,16.77-17.99C185.78,7.33515,173.97,1.52516,173.97,1.52516Z"/>
      <path class="cls-8" d="M244.55,15.39515s2.75-5.51,7.92-4.13-12.06006-13.78-35.48-5.17c0,0-15.85,6.55-24.11,12.4-8.27,5.85,9.65,3.1,12.06,4.13a45.05658,45.05658,0,0,0-3.45,21.36s6.2,3.44,9.65,0c0,0,9.3,18.26,12.06,23.77a8.04977,8.04977,0,0,0,2.41-3.79c.68994-2.41,0,7.92,17.23,27.56,0,0,15.85-14.13,7.24-53.74-8.61-39.62-.34-1.72-.34-1.72s5.52-3.79,8.27,0C257.98,36.06515,257.3,18.84515,244.55,15.39515Z"/>
      <path class="cls-5" d="M212.88007,7.04515c33.09,24.1,27.43994,70.27,27.43994,70.27.07995-.47,7.54-46.98-26.31006-71.64Z"/>
      <path class="cls-3" d="M217.39008,181.77516s7.27-6.34,30.48,9.39,24.74,17.41,21.16,25.63l-9.48-4.13s-5.75,16.68-11.43005,20.22c0,0-.87-3.18-2.31006-4.19s-19.92005,18.29-25.04,20.58c0,0-1.37-4.77-.96-5.72s-10.12,12.13-25.33,16.76c-1.31.4-1.26-.56-1.26-.56s2.19-19.71,6.71-27.52c4.52-7.8.76-1.74.76-1.74s2.35-4.52.08-3.63,4.41-11,11.16-14.45c0,0,.96-8.29-4.41-8-5.38.29,13.86005-18.05,17.62006-17.17C228.9101,188.13514,217.39008,181.77516,217.39008,181.77516Z"/>
      <path class="cls-4" d="M258.6601,194.85514c-39.95,8.9-53.19,53.49-53.19,53.49.11-.46,11.82-46.09,52.71-55.2Z"/>
      <path class="cls-3" d="M287.98,163.19514s-3.56006-5.03.09-8.93c3.65-3.91-17.84,4.13-21.3,28.85,0,0-1.7,17.06-.43994,27.11s7.29-7.04,9.32995-8.68a44.98088,44.98088,0,0,0,17.2,13.12s5.96-3.84,4.55-8.5c0,0,20.49.41,26.65.58a8.09644,8.09644,0,0,0-2.2-3.91c-1.8-1.75,6.98,3.74,32.42-2.19,0,0-4.98-20.64-43.97-31.74s-1.68-.51-1.68-.51-.74-6.65,3.9-7.29C312.5401,161.09516,297.03009,153.57514,287.98,163.19514Z"/>
      <path class="cls-5" d="M265.6701,187.17515c36.85-17.8,74.9,8.96,74.9,8.96-.37-.29-37.87-28.82-75.58-10.6Z"/>
      <path class="cls-8" d="M273.2,189.13514s2.75-5.51,7.92005-4.13-12.05-13.78-35.48-5.17c0,0-15.85,6.55-24.11,12.4-8.27,5.85,9.65,3.1,12.06006,4.13a45.05614,45.05614,0,0,0-3.45,21.36s6.2,3.44,9.65,0c0,0,9.3,18.26,12.06006,23.77a8.04977,8.04977,0,0,0,2.41-3.79c.68995-2.41,0,7.92,17.23,27.56,0,0,15.84-14.13,7.23-53.75s-.34-1.72-.34-1.72,5.52-3.79,8.27,0C286.64008,209.80516,285.95,192.57514,273.2,189.13514Z"/>
      <path class="cls-5" d="M241.5401,180.77516c33.09,24.1,27.43994,70.27,27.43994,70.27.08-.47,7.54-46.98-26.31006-71.64Z"/>
      <path class="cls-3" d="M280.1,290.09516s-3.5-5.07.2-8.93-17.89,3.9-21.66,28.57c0,0-1.92,17.04-.78,27.11,1.13,10.07,7.37-6.95,9.44-8.56a44.94057,44.94057,0,0,0,17.04,13.33s6.01-3.76,4.66-8.45c0,0,20.48.67,26.64.92a8.06184,8.06184,0,0,0-2.15-3.94c-1.78-1.77,6.93,3.82,32.45-1.78,0,0-4.72-20.7-43.57-32.29s-1.67-.53-1.67-.53-.65-6.66,3.99-7.24C304.69,288.31516,289.28009,280.59516,280.1,290.09516Z"/>
      <path class="cls-5" d="M257.49005,313.79515c37.08-17.34,74.78,9.91,74.78,9.91-.37-.29-37.5-29.29-75.44006-11.55Z"/>
      <path class="cls-3" d="M328.11005,362.67515s-5.34-3.07-3.66-8.15-14.46,11.22-7.24,35.12c0,0,5.61,16.2,10.96,24.8,5.36,8.6,3.66-9.45,4.83-11.8a45.04063,45.04063,0,0,0,21.12,4.7s3.8-5.99.57-9.63c0,0,18.77-8.21,24.43994-10.64a8.14584,8.14584,0,0,0-3.64-2.63c-2.37-.83,7.91.47,28.52-15.57,0,0-13.17005-16.65-53.23-10.38-40.05,6.27-1.74.24-1.74.24s-3.46-5.73.49-8.25C349.53009,350.48515,332.3,350.15513,328.11005,362.67515Z"/>
      <path class="cls-5" d="M317.9101,393.79515c26-31.61,71.76-23.26,71.76-23.26-.46-.11-46.46-10.29-73.06,22.06Z"/>
      <path class="cls-3" d="M269.35,479.95518s-3.5-5.07.21-8.93c3.7-3.86-17.89,3.9-21.66,28.57,0,0-1.92,17.04-.79,27.11s7.38-6.95,9.44-8.56a44.94119,44.94119,0,0,0,17.04,13.33s6.01-3.77,4.66-8.45c0,0,20.48.67,26.64.92a8.062,8.062,0,0,0-2.15-3.94c-1.78-1.77,6.93,3.82,32.45-1.78,0,0-4.72-20.7-43.57-32.29s-1.67-.53-1.67-.53-.65-6.66,3.99-7.24C293.94,478.17515,278.53009,470.45518,269.35,479.95518Z"/>
      <path class="cls-5" d="M246.75006,503.64512c37.08-17.34,74.78,9.91,74.78,9.91-.37-.29-37.5-29.29-75.44006-11.55Z"/>
      <path class="cls-3" d="M209.81006,499.61515s-2.55-5.61-7.76-4.42c-5.22,1.19,12.55-13.33,35.65-3.87,0,0,15.6,7.12,23.65,13.27s-9.75,2.75-12.19995,3.69a45.03969,45.03969,0,0,1,2.67,21.47s-6.32,3.21-9.64-.35c0,0-9.96,17.91-12.91,23.32a8.09209,8.09209,0,0,1-2.27-3.87c-.6-2.44-.29,7.92-18.22,26.92,0,0-15.32-14.7-5.28-53.97,10.05-39.28.41-1.71.41-1.71s-5.37-3.98-8.26-.3C195.64008,519.78514,196.95007,502.59513,209.81006,499.61515Z"/>
      <path class="cls-5" d="M241.76007,492.42515c-33.94,22.87-29.97,69.23-29.97,69.23-.06-.47-5.83-47.23,28.9-70.64Z"/>
      <path class="cls-8" d="M285.1,344.04515s1.38-6,6.73-5.88-14.96-10.56-35.69995,3.33c0,0-13.86,10.1-20.52,17.73-6.66,7.64,10.11.74,12.68994,1.18a44.93819,44.93819,0,0,0,1.68,21.57s6.83,1.89,9.37-2.27c0,0,13.34,15.55,17.31994,20.26a8.05618,8.05618,0,0,0,1.45-4.25c.1-2.51,1.86,7.7,23.23,22.73,0,0,12.08-17.46-5.62-53.94s-.74-1.59-.74-1.59,4.47-4.98,8.04-1.95C303.03009,360.96513,298.3,344.39515,285.1,344.04515Z"/>
      <path class="cls-5" d="M252.36005,343.37516c37.82995,15.63,43.21,61.83,43.21,61.83-.03-.47-3.73-47.43-42.43994-63.43Z"/>
      <path class="cls-8" d="M217.90009,409.00517s-.29-6.15-5.58-6.98c-5.28-.83,16.59-7.74,34.55,9.6,0,0,11.85,12.39,17.05,21.08,5.2,8.7-10.07995-1.06-12.7-1.09a44.92223,44.92223,0,0,1-5.47,20.93s-7.06006.65-8.81994-3.89c0,0-15.88,12.95-20.63,16.88a8.08935,8.08935,0,0,1-.68-4.44c.34-2.49-3.2,7.25-26.89,18.26,0,0-8.79-19.32,15.08-52.09,23.87994-32.77,1.01-1.43,1.01-1.43s-3.52-5.69-7.56-3.34C197.26007,422.48515,204.84,407.00517,217.90009,409.00517Z"/>
      <path class="cls-5" d="M250.24005,414.14512c-40,8.68-53.48,53.21-53.48,53.21.12-.46,12.07-46.03,53-54.92Z"/>
      <path class="cls-3" d="M241.37006,278.61515s5.2-3.3,3.31005-8.3,14.93006,10.6,8.73,34.78c0,0-4.92005,16.43-9.91,25.24-4.99,8.82-4.06006-9.28-5.33-11.58a45.00513,45.00513,0,0,1-20.9,5.59s-4.05-5.82-.97-9.6c0,0-19.1-7.41-24.87-9.59a8.05534,8.05534,0,0,1,3.52-2.78c2.33-.93-7.88.8-29.16-14.36,0,0,12.45-17.19,52.74005-12.63,40.29,4.57,1.75.17,1.75.17s3.21-5.87-.84-8.22C219.45,267.33515,236.65009,266.28514,241.37006,278.61515Z"/>
      <path class="cls-5" d="M252.88007,309.27516c-27.31006-30.48-72.68-20.2-72.68-20.2.46-.12,45.98-12.25,73.93,18.94Z"/>
      <path class="cls-6" d="M352.03009,477.75517a13.823,13.823,0,0,1,7.02-13.56,18.52843,18.52843,0,0,0,4.47-4.87,13.83447,13.83447,0,0,1,12.9-8.16,21.38794,21.38794,0,0,1,15.87,8.3c4.91,6.05,5.89,12.79,2.25,20.27-2.03,4.17-3.71,4.96-5.78,7.21s-2.7,4-6.68994,6.39c-7.14,4.27-13.93994,3.87-20.39-.5A21.30659,21.30659,0,0,1,352.03009,477.75517Z"/>
      <path class="cls-2" d="M360.86005,457.59513a6.09365,6.09365,0,0,1,.84-6.28,6.47807,6.47807,0,0,0,1.27,4.22c.31006-1.33,2.13-4.03,4.25-4.48-1.39,1.91-1.89,3.22-1.65,5.29a4.15948,4.15948,0,0,1,2.15.41,10.33149,10.33149,0,0,1,1.64,1.6c-2.5-.32-4.06006,2.94-5.75,1.6,0,0-1.91,3.09-1.01,5.76-2.57-2.01-1.93006-3.56-1.93006-3.56-1.81994.38-3.15,2.97-3.87,4.49a6.12509,6.12509,0,0,1,1.78-5.75,5.04482,5.04482,0,0,0-4.64,1.28c1.08008-2.52991,3.63-5.25989,6.92005-4.5799Z"/>
      <g>
        <path class="cls-10" d="M249.55,486.20518c-5.91-2.17-14.34-4.11-25.07-5.78-21.97-3.41-51.17-5.29-82.23-5.29-31.05,0-60.25,1.88-82.22,5.29-10.72,1.67-19.16,3.61-25.07,5.78-6.58,2.42-9.78,5.02-9.78,7.96,0,.19.04.59.04.58l23.28,152.82c.89,6.34,16.14,10.39,28.78,12.67,17.49,3.16,40.56,4.9,64.97,4.9s47.49-1.74,64.97-4.9c12.63-2.28,27.88-6.33,28.78-12.68,0,0,23.27-152.81,23.27-152.8,0,0,.05-.4.05-.59C259.33,491.22514,256.13007,488.61515,249.55,486.20518Z"/>
        <g>
          <path class="cls-11" d="M91.66,476.92515c.01-.26.02-.53.02-.79a13.1206,13.1206,0,0,0-14.87-13.28,16.74726,16.74726,0,0,0-14.65,16.24c0,.34.02.67.04,1.01C71.03,478.79515,80.97,477.72514,91.66,476.92515Z"/>
          <path class="cls-12" d="M89.63007,477.07517c.02-.32.04-.63.04-.95a11.23735,11.23735,0,0,0-3.67-8.52,11.429,11.429,0,0,0-8.97-2.76,14.69381,14.69381,0,0,0-12.86,14.24c0,.24.01.48.02.72C71.95007,478.71513,80.50006,477.80516,89.63007,477.07517Z"/>
          <path class="cls-11" d="M78.71,478.06516a2.07618,2.07618,0,0,0,.11-.66,1.67817,1.67817,0,0,0-1.9-1.7,2.17116,2.17116,0,0,0-1.9,2.11,1.81022,1.81022,0,0,0,.11.63C76.31006,478.31516,77.50006,478.18516,78.71,478.06516Z"/>
          <path class="cls-11" d="M71.18005,478.89512c.47-.06.95-.11,1.43-.17a5.39343,5.39343,0,0,1,1.35-3.83c1.65-1.83,4.6-2.35,6.28-1.03a4.517,4.517,0,0,1,1.76,3.08,4.11524,4.11524,0,0,0-1.17-3.73,5.002,5.002,0,0,0-3.9-1.53,6.29563,6.29563,0,0,0-4.27,2.04,6.21084,6.21084,0,0,0-1.58,4.46A5.283,5.283,0,0,0,71.18005,478.89512Z"/>
        </g>
        <path class="cls-13" d="M256.71,511.61515l-.56006,3.72c-.18005,1.17-1.61,3.53-9.17,6.29-5.88,2.14-14.15,4.07-24.59,5.72-.16.03-.32995.05-.49.07l2.09-19.44a15.5959,15.5959,0,0,0,.12-1.95,13.1828,13.1828,0,0,0-15-13.37,16.98854,16.98854,0,0,0-14.81,16.09l-1.56,21.99c-15.54,1.24-32.73,1.89-50.51,1.89-30.16,0-58.64-1.88-80.19-5.29-10.44-1.65-18.71-3.58-24.58-5.72-7.54-2.76-8.95-5.12-9.12-6.29h0l-.56-3.68a5.06,5.06,0,0,0-1.47,3.38,4.20429,4.20429,0,0,0,.04.6l3.97,26c.45,2.89,3.77,5.46,10.15,7.86,5.8,2.19,13.91,4.14,24.12,5.81,20.89,3.42,48.47,5.3,77.65,5.3s56.76-1.88,77.65-5.31c10.2-1.67,18.32-3.63,24.11-5.81,6.38-2.41,9.7-4.98,10.14-7.86l3.97-25.98a4.04586,4.04586,0,0,0,.05-.62A4.84239,4.84239,0,0,0,256.71,511.61515Z"/>
        <path class="cls-14" d="M247.6701,523.51518c-6,2.19-14.39,4.14-24.96,5.81-21.64,3.43-50.21,5.31-80.45,5.31-18.1,0-35.6-.68-51.38-1.95l1.7,23.93c15.24,1.28,32.17,1.97,49.68,1.97,29.08,0,56.54-1.88,77.33-5.28,10.07-1.65,18.06006-3.57,23.73-5.71,7.29-2.75,8.68994-5.12,8.86-6.28,0,0,2.43006-15.9,3.33-21.79A28.19425,28.19425,0,0,1,247.6701,523.51518Zm-25.66-15.77a14.03429,14.03429,0,0,0,.11-1.71,11.17306,11.17306,0,0,0-12.76-11.38,15.05142,15.05142,0,0,0-13.02,14.18v.05s-1.39,19.58-1.54,21.68c10.35-.83,19.82-2.09,25.06006-2.85C220.01007,526.28514,222.01007,507.74516,222.01007,507.74516Z"/>
        <path class="cls-15" d="M61.75006,529.32517c-10.57-1.67-18.96-3.63-24.95-5.82a27.95366,27.95366,0,0,1-7.79-3.98c.9,5.92,3.33,21.79,3.33,21.79.18,1.17,1.57,3.54,8.87,6.29,5.68,2.14,13.66,4.06,23.73,5.71,8.27,1.35,17.59,2.46,27.64,3.31l-1.7-23.93C80.28,531.82517,70.45007,530.70518,61.75006,529.32517Z"/>
        <path class="cls-11" d="M31.11005,543.55516a4.82643,4.82643,0,0,1-.76-1.94l-1.01-6.62c-4.53,12.7-5.31,24.6-2.21,34.75a36.45758,36.45758,0,0,0,6.9,12.88,10.6585,10.6585,0,0,1,2.75-3.28,32.32387,32.32387,0,0,1-5.66-10.82C28.86005,561.14512,28.88007,552.67515,31.11005,543.55516Z"/>
        <path class="cls-10" d="M87.06006,584.90513l-42.74-7.58a10.15445,10.15445,0,0,0-11.63,10.6,10.61635,10.61635,0,0,0,8.17,10.5l42.23,9.08h0a10.56647,10.56647,0,0,0,2.19.23,11.528,11.528,0,0,0,1.78-22.83Z"/>
        <ellipse class="cls-16" cx="85.29004" cy="596.24516" rx="9.07001" ry="9.46997"/>
        <path class="cls-17" d="M45.43005,579.30516c.01,0,.02.01.03.01a7.654,7.654,0,0,0-1.16-.09,8.45041,8.45041,0,0,0-8.16,8.7,8.59561,8.59561,0,0,0,6.58,8.53s27.05,5.81,36.03,7.75a11.72972,11.72972,0,0,1-3.1-7.96,11.54108,11.54108,0,0,1,6.46-10.43C73.03,584.20518,45.43005,579.30516,45.43005,579.30516Z"/>
        <path class="cls-10" d="M78.24005,596.24516a7.05126,7.05126,0,1,0,7.04-7.45A7.26185,7.26185,0,0,0,78.24005,596.24516Zm2.02,0a5.04548,5.04548,0,1,1,5.03,5.44A5.25513,5.25513,0,0,1,80.26007,596.24516Z"/>
        <path class="cls-11" d="M200.41,645.40513c.92.08,2.03-3.91,2.49-8.92.45-5.01.08-9.14-.84-9.22s-2.03,3.91-2.49,8.92C199.12006,641.19517,199.49005,645.32517,200.41,645.40513Z"/>
        <g>
          <g class="cls-18">
            <path class="cls-19" d="M101.61005,431.30516c-7.56,3.89-16.35,12.99-18.44,19.08a23.52675,23.52675,0,0,0,.77,18.24,30.91481,30.91481,0,0,0,5.4,7.83c8.84,9.57,18.94,13.86,29.21,12.4a29.89193,29.89193,0,0,0,22.64-15.51,36.84707,36.84707,0,0,0,2.04-29.21c-3.72-10-10.64-15.67-20.58-16.84A37.39787,37.39787,0,0,0,101.61005,431.30516Z"/>
          </g>
          <g class="cls-18">
            <path class="cls-20" d="M118.26007,486.86515c-9.59,1.36-19.08-2.71-27.45-11.78-6.77-7.33-8.7-15.42-5.74-24.05,1.95-5.7,10.28-14.25,17.46-17.95h0a35.3297,35.3297,0,0,1,19.89-3.8,22.41322,22.41322,0,0,1,10.51,3.85,24.26359,24.26359,0,0,1,8.42,11.7,34.73162,34.73162,0,0,1-1.91,27.53A27.99444,27.99444,0,0,1,118.26007,486.86515Z"/>
          </g>
          <g class="cls-18">
            <path class="cls-21" d="M133.59,477.54515s-.18.83-1.66,1.88a31.51367,31.51367,0,0,1-5.18,2.4s3.18-2.25,4.6-3.26A4.68468,4.68468,0,0,1,133.59,477.54515Z"/>
          </g>
          <g class="cls-18">
            <path class="cls-21" d="M137.74005,471.93516s-.37,1.19-2.68,3.09c-2.34,1.92-8.29,4.42-8.29,4.42s5.35-3.53,7.57-5.36A10.98773,10.98773,0,0,1,137.74005,471.93516Z"/>
          </g>
          <g class="cls-18">
            <path class="cls-21" d="M113.55005,485.41514a1.6716,1.6716,0,0,1,1.25-.47c.9-.04,2.97.05,2.97.05a12.69281,12.69281,0,0,1-2.92.83A1.52592,1.52592,0,0,1,113.55005,485.41514Z"/>
          </g>
          <g class="cls-18">
            <path class="cls-21" d="M107.78,484.43516a3.33086,3.33086,0,0,1,2.02-.56c1.47-.06,4.77-.15,4.77-.15a25.38011,25.38011,0,0,1-4.7,1.09A3.40415,3.40415,0,0,1,107.78,484.43516Z"/>
          </g>
          <g class="cls-18">
            <path class="cls-21" d="M103.32007,482.67515a4.785,4.785,0,0,1,2.58-.45c1.85.04,5.99-.05,5.99-.05a30.87853,30.87853,0,0,1-5.98,1.05A4.80667,4.80667,0,0,1,103.32007,482.67515Z"/>
          </g>
          <g class="cls-18">
            <path class="cls-21" d="M99.70007,480.57517a5.831,5.831,0,0,1,2.95-.32c2.1.16,6.8.1,6.8.1a32.3381,32.3381,0,0,1-6.84.95A5.725,5.725,0,0,1,99.70007,480.57517Z"/>
          </g>
          <g class="cls-18">
            <path class="cls-21" d="M96.31006,478.02513a7.41846,7.41846,0,0,1,3.29-.14c2.32.27,7.54.33,7.54.33s-5.16,1.05-7.62.78A6.26786,6.26786,0,0,1,96.31006,478.02513Z"/>
          </g>
          <g class="cls-18">
            <path class="cls-21" d="M93.11005,475.06516a8.544,8.544,0,0,1,3.6.07c2.53.43,8.23.62,8.23.62s-5.69.99-8.38.54C93.92,475.85514,93.11005,475.06516,93.11005,475.06516Z"/>
          </g>
          <g class="cls-18">
            <path class="cls-21" d="M90.41,472.03514a12.72,12.72,0,0,1,3.83.27c1.34.24,3.51.6,5.37.73s3.39.11,3.39.11a33.18369,33.18369,0,0,1-3.39.5,23.38966,23.38966,0,0,1-5.57-.14C91.21,473.00517,90.41,472.03514,90.41,472.03514Z"/>
          </g>
          <g class="cls-18">
            <path class="cls-21" d="M88.33,469.03514a13.4357,13.4357,0,0,1,3.93.37,49.13849,49.13849,0,0,0,5.51.84c1.91.15,3.5.13,3.5.13a30.15417,30.15417,0,0,1-3.5.51,22.94968,22.94968,0,0,1-5.74-.22C89.12006,470.08512,88.33,469.03514,88.33,469.03514Z"/>
          </g>
          <g class="cls-18">
            <path class="cls-21" d="M86.89008,466.18516a12.73287,12.73287,0,0,1,3.94.36,49.36682,49.36682,0,0,0,5.52.82c1.92.14,3.5.11,3.5.11a29.71278,29.71278,0,0,1-3.5.55,22.43082,22.43082,0,0,1-5.77-.18C87.67,467.27513,86.89008,466.18516,86.89008,466.18516Z"/>
          </g>
          <g class="cls-18">
            <path class="cls-21" d="M85.91,463.23515a13.82769,13.82769,0,0,1,3.92.44,44.27586,44.27586,0,0,0,5.5.85c1.91.14,3.5.11,3.5.11a31.42376,31.42376,0,0,1-3.49.52,21.6206,21.6206,0,0,1-5.75-.24C86.68005,464.30516,85.91,463.23515,85.91,463.23515Z"/>
          </g>
          <g class="cls-18">
            <path class="cls-22" d="M104.98,437.84513a9.05584,9.05584,0,0,0,4.2-1.48,4.24729,4.24729,0,0,0,1.72-3.38,10.98146,10.98146,0,0,1,1.7-4.67,5.36589,5.36589,0,0,1,3.9-2.28c2.59-.17,4.47.33,5.31-.75a3.47933,3.47933,0,0,0,.81-1.84,3.24032,3.24032,0,0,1-.43,2.11c-.78,1.58-3.37,1.5-5.41,1.93-2.21.47-3.22,2.78-3.39,5.81a8.70679,8.70679,0,0,1-.52,2.77,6.53813,6.53813,0,0,1-1.94,2.53,10.84175,10.84175,0,0,1-5.73,2.2Z"/>
          </g>
          <g class="cls-18">
            <path class="cls-22" d="M105.09,440.52513a16.37714,16.37714,0,0,0-4.54,1.11c-1.59.6-3.02,1.28-4.53,1.97a16.39185,16.39185,0,0,1-8.88,1.48,9.042,9.042,0,0,1-5.4-2.6,7.15139,7.15139,0,0,1-1.26-1.75s1.98,2.95,6.76,2.87a16.49092,16.49092,0,0,0,7.66-2.23,36.68235,36.68235,0,0,1,4.61-2.37,13.96253,13.96253,0,0,1,5.97-1.41Z"/>
          </g>
          <g class="cls-18">
            <path class="cls-22" d="M105.35,437.91514c1.5-1.56,2.09-4.04,2.23-6.24a30.49246,30.49246,0,0,0-.03-3.31,4.84846,4.84846,0,0,1,.97-3.39,4.20726,4.20726,0,0,1,4.5-1.21,3.45757,3.45757,0,0,1,1.48.69,4.34043,4.34043,0,0,0-1.54-.23,3.606,3.606,0,0,0-3.22,1.59,3.54209,3.54209,0,0,0-.17,2.34,21.751,21.751,0,0,1,.52,3.52,11.03778,11.03778,0,0,1-2.62,8.31Z"/>
          </g>
          <g class="cls-18">
            <path class="cls-22" d="M104.07007,438.96513a14.99645,14.99645,0,0,0,.54-5.62,22.90391,22.90391,0,0,0-1.49-4.74,7.0239,7.0239,0,0,1-.1-5.02,8.577,8.577,0,0,0,1.44,4.4,15.01366,15.01366,0,0,1,2.59,4.9,12.85812,12.85812,0,0,1-.23,7.11Z"/>
          </g>
          <g class="cls-18">
            <path class="cls-22" d="M101.05005,428.66514a.56639.56639,0,0,1,.02.29,1.93893,1.93893,0,0,0-.08,1.06c1.46,3.16,3.41,6.42,5.77,8.29-.17.55-2.38,2.48-3.59,2.51a28.07966,28.07966,0,0,1-5.36-9.52c-.14-.36-.52-.57-.81-.84a.82909.82909,0,0,1-.19-.27c-.23-.64.57-1.44,1.75-1.82C99.75006,427.98515,100.86005,428.13517,101.05005,428.66514Z"/>
          </g>
          <g class="cls-18">
            <path class="cls-22" d="M106.15,439.45518c-.72,1.73-1.4,3.68-3.63,4.92a3.801,3.801,0,0,1-3.63-.19,7.83424,7.83424,0,0,1-2.06-1.92c-2.01-2.7-2.84-5.52-3.7-7.54-.85-2-2.04-3.81-3.15-3.3a2.46409,2.46409,0,0,0-1.33,1.35s-.03-.83,1.12-1.76a2.18962,2.18962,0,0,1,2.55.46,11.637,11.637,0,0,1,2.12,2.55c1.3,2.07,2.43,4.52,4.3,6.63a5.175,5.175,0,0,0,1.45,1.19.98042.98042,0,0,0,1.07.01,3.49624,3.49624,0,0,0,1.02-1.11C103.19006,439.30516,106.15,439.45518,106.15,439.45518Z"/>
          </g>
          <g class="cls-18">
            <path class="cls-19" d="M146.77,442.86515a23.356,23.356,0,0,0-7.01,13.7c-.78,6.52-.95,14.38,3.7,23.27,5.22,9.98,14,15.15,26.1,15.37,8.37.15,17.95-.91,25.58-9.87a34.93137,34.93137,0,0,0,6.92-13.6,35.429,35.429,0,0,0-.03-18.06c-3.39-12.62-14.68-14.99-19.5-16.01l-.91-.19c-4.62-.99-10.36-2.22-15.47-2.07C158.30005,435.62516,151.6,438.20518,146.77,442.86515Z"/>
          </g>
          <g class="cls-18">
            <path class="cls-20" d="M169.6,493.19517c-11.47-.2-19.44-4.88-24.35-14.29a35.88529,35.88529,0,0,1-3.48-22.1,21.35559,21.35559,0,0,1,6.41-12.5c4.46-4.31,10.7-6.7,18.03-6.9,4.87-.13,10.49,1.07,15,2.03l.92.2c4.84,1.02,14.9,3.14,17.97,14.56a33.75815,33.75815,0,0,1-6.48,29.84C186.54,492.33512,177.89008,493.34513,169.6,493.19517Z"/>
          </g>
          <g class="cls-18">
            <path class="cls-21" d="M186.01007,488.24516s-.85,1.06-3.96,1.91c-3.78,1.02-10.09.83-10.09.83a77.23024,77.23024,0,0,0,9.82-1.83A19.79293,19.79293,0,0,1,186.01007,488.24516Z"/>
          </g>
          <g class="cls-18">
            <path class="cls-21" d="M191.55005,483.81516s-.97,1.52-5.07,3.12a33.21428,33.21428,0,0,1-8.34,1.72c-2.89.23-5.24.16-5.24.16s2.34-.22,5.16-.74a49.6845,49.6845,0,0,0,8.01-2.24C189.97,484.30516,191.55005,483.81516,191.55005,483.81516Z"/>
          </g>
          <g class="cls-18">
            <path class="cls-21" d="M194.54,479.92515s-.96,1.85-5.55,3.99a34.0257,34.0257,0,0,1-9.49,2.37,55.419,55.419,0,0,1-6,.29s2.68-.27,5.9-.94a45.84616,45.84616,0,0,0,9.05-2.93C192.80005,480.68516,194.54,479.92515,194.54,479.92515Z"/>
          </g>
          <g class="cls-18">
            <path class="cls-21" d="M155.55005,487.86515a3.75882,3.75882,0,0,1,2.16.41c1.43.6,4.65,1.86,4.65,1.86a26.85254,26.85254,0,0,1-4.97-1.03A3.86333,3.86333,0,0,1,155.55005,487.86515Z"/>
          </g>
          <g class="cls-18">
            <path class="cls-21" d="M151.22,484.42515a5.75032,5.75032,0,0,1,2.74.78c1.83.88,6.04,2.5,6.04,2.5a33.80261,33.80261,0,0,1-6.42-1.63A6.04632,6.04632,0,0,1,151.22,484.42515Z"/>
          </g>
          <g class="cls-18">
            <path class="cls-21" d="M148.59,481.20518a6.82413,6.82413,0,0,1,2.99,1.04c1.99,1.08,6.64,2.97,6.64,2.97s-4.98-.94-7.08-2.07A6.90429,6.90429,0,0,1,148.59,481.20518Z"/>
          </g>
          <g class="cls-18">
            <path class="cls-21" d="M146.70007,478.06516a7.81082,7.81082,0,0,1,3.1,1.22c2.06,1.18,6.92,3.28,6.92,3.28s-5.23-1.1-7.41-2.34A6.657,6.657,0,0,1,146.70007,478.06516Z"/>
          </g>
          <g class="cls-18">
            <path class="cls-21" d="M145.15,474.60514a8.3867,8.3867,0,0,1,3.18,1.42c2.1,1.33,7.13,3.63,7.13,3.63s-5.45-1.27-7.68-2.67C145.58,475.60514,145.15,474.60514,145.15,474.60514Z"/>
          </g>
          <g class="cls-18">
            <path class="cls-21" d="M144.01007,470.98515a8.58323,8.58323,0,0,1,3.2,1.59,79.15658,79.15658,0,0,0,7.2,3.94s-5.57-1.4-7.82-2.95C144.39008,472.04515,144.01007,470.98515,144.01007,470.98515Z"/>
          </g>
          <g class="cls-18">
            <path class="cls-22" d="M170.51007,443.24516c-1.64-1.14-2.59-3.95-3.95-6.21-1.44-2.38-4.05-3.9-6.19-3.81a10.78439,10.78439,0,0,0-4.5,1.28,12.3536,12.3536,0,0,0-1.46.79s.57-.15,1.61-.35a11.33842,11.33842,0,0,1,4.23-.24,6.07221,6.07221,0,0,1,4.13,3.56c1.03,2.03,1.41,5,4.48,7.44Z"/>
          </g>
          <g class="cls-18">
            <path class="cls-22" d="M170.94006,445.26518c2.91-4.75,6.71-8.1,10.18-9.32a15.30936,15.30936,0,0,1,5.94-.97,12.00613,12.00613,0,0,0-6.31-.46,15.30883,15.30883,0,0,0-6.51,2.79,23.27625,23.27625,0,0,0-5.8,6.38Z"/>
          </g>
          <g class="cls-18">
            <path class="cls-22" d="M170.22,445.80516c5.53-2.8,10.91-4.93,13.99-1.92,1.43,1.4,2.72,2.62,3.65,3.35a14.5145,14.5145,0,0,0,1.51,1.07s-.45-.48-1.18-1.39c-.74-.92-1.54-2.36-2.94-4.07a7.44294,7.44294,0,0,0-3.06-2.3,9.10752,9.10752,0,0,0-4.41-.42,28.77923,28.77923,0,0,0-8.89,3.04Z"/>
          </g>
          <g class="cls-18">
            <path class="cls-22" d="M167.75006,445.63517a6.48789,6.48789,0,0,0,3.73.53,2.63281,2.63281,0,0,1,.74-.08.84641.84641,0,0,1,.54.27,5.97332,5.97332,0,0,1,.69,1.96,8.35064,8.35064,0,0,0,.99,2.24,8.22947,8.22947,0,0,0,3.32,3.18,11.135,11.135,0,0,1-1.98-3.8,10.40591,10.40591,0,0,1-.34-2,8.475,8.475,0,0,0-.59-2.95,2.82088,2.82088,0,0,0-2.83-1.67,8.40432,8.40432,0,0,0-.88.05,4.20862,4.20862,0,0,1-2.18-.42Z"/>
          </g>
          <g class="cls-18">
            <path class="cls-22" d="M169.73,441.57517a12.6719,12.6719,0,0,1-4.25-.71c-1.29-.47-2.63-1.26-4.14-1.79a15.58681,15.58681,0,0,0-8.08-.41,30.89372,30.89372,0,0,0-6.9,1.91,52.69144,52.69144,0,0,1,7.03-.44,16.25981,16.25981,0,0,1,7.02,1.26c1.17.54,2.4,1.4,4.03,2.11a13.8188,13.8188,0,0,0,5.26,1.04Z"/>
          </g>
          <g class="cls-18">
            <path class="cls-22" d="M168.31006,430.61515a.58294.58294,0,0,0,.01.32,2.67848,2.67848,0,0,1,.2,1.13,43.77846,43.77846,0,0,0-1.24,11.49,4.46022,4.46022,0,0,0,2.18.47,4.29562,4.29562,0,0,0,2.16-.54c-.24-3.79-.46-7.17.25-10.68.08-.35.4-.58.66-.85a.6813.6813,0,0,0,.15-.26c.14-.57-.7-1.31-1.9-1.63C169.57007,429.75517,168.46,429.98515,168.31006,430.61515Z"/>
          </g>
          <g class="cls-18">
            <path class="cls-22" d="M166.46,443.38517a8.46247,8.46247,0,0,1-3.61-.04c-2.05-.28-4.5-.54-6.18.69a5.36826,5.36826,0,0,0-2.08,3.6,6.605,6.605,0,0,0-.17,1.43,11.73918,11.73918,0,0,1,.61-1.28,5.1683,5.1683,0,0,1,2.37-2.47c1.23-.5,2.89-.07,4.98.48a13.6741,13.6741,0,0,0,3.67.54,5.36969,5.36969,0,0,0,4.17-2.22A3.55579,3.55579,0,0,0,166.46,443.38517Z"/>
          </g>
          <g class="cls-18">
            <path class="cls-22" d="M54.46,463.85514a11.70127,11.70127,0,0,0,3.73-3.23,6.32255,6.32255,0,0,0,.94-5.01c-.84-2.96-2.28-4.63-3.16-6.21a6.98213,6.98213,0,0,1-.87-5.57,5.31269,5.31269,0,0,0-.84,1.47,7.908,7.908,0,0,0-.01,4.77c.51,1.92,1.62,4.1,1.8,6.06a3.069,3.069,0,0,1-.73,2.41,9.81173,9.81173,0,0,1-2.7,2.1Z"/>
          </g>
          <g class="cls-18">
            <path class="cls-22" d="M53.67,464.62516c3.03-.53,6.08-1.28,8.57-3.46a6.61668,6.61668,0,0,0,2.14-4.16,11.35247,11.35247,0,0,0-.21-3.45c-.78-3.74,1.38-5.3,1.38-5.3a5.56726,5.56726,0,0,0-1.57.79c-.99.67-1.85,2.53-2.03,4.52-.19,2.06-.56,3.8-2.08,4.7a21.62939,21.62939,0,0,1-6.89,1.98Z"/>
          </g>
          <g class="cls-18">
            <path class="cls-22" d="M55.13007,461.22514a73.736,73.736,0,0,0-8.82-3.22c-1.28-.36-2.88-1.24-4.81-.53-1.98.73-2.34,2.2-2.9,3.02a11.82307,11.82307,0,0,1-4.96,4.43,10.275,10.275,0,0,0,6.41-3.29c.76-.81,1.6-1.7,2.16-1.74a8.484,8.484,0,0,1,3.01,1.02c2.59,1.16,5.46,2.42,8.45,3.69Z"/>
          </g>
          <g class="cls-18">
            <path class="cls-22" d="M46.79,455.36515a.49533.49533,0,0,0,.26.13,1.93626,1.93626,0,0,1,1.01.34c2.35,2.58,4.59,5.63,5.41,8.54a5.7272,5.7272,0,0,0,2.22-.17,3.61158,3.61158,0,0,0,1.92-1.13c-1.63-4.16-4.32-6.97-7.13-9.66a2.71962,2.71962,0,0,1-.46-1.07.74994.74994,0,0,0-.18-.28c-.5-.46-1.55-.03-2.36.91C46.67,453.90513,46.37006,454.98515,46.79,455.36515Z"/>
          </g>
          <g class="cls-18">
            <path class="cls-23" d="M49.83,457.63517c-14.54,8.15-18.88,15.08-17.88,28.54.55,7.38,4.66,15.21,11.28,21.49a29.40508,29.40508,0,0,0,12.53,6.74,26.92186,26.92186,0,0,0,15.3-.14c10.27-3.35,17.91-6.54,22.54-17.14,4.07-9.3,2.77-21.64-3.3-31.43a27.4121,27.4121,0,0,0-12.65-10.88,24.85342,24.85342,0,0,0-11.03-2.08A40.48744,40.48744,0,0,0,49.83,457.63517Z"/>
          </g>
          <g class="cls-18">
            <path class="cls-20" d="M70.43005,512.35514c-9.34,3.05-20.28-.89-25.82-6.15-6.26-5.94-10.14-13.29-10.66-20.17-.49-6.52.3-10.93,2.63-14.78,2.47-4.08,6.86-7.73,14.22-11.86a38.53718,38.53718,0,0,1,15.97-4.66,23.02039,23.02039,0,0,1,10.08,1.93,25.05538,25.05538,0,0,1,11.72,10.09c5.74,9.24,6.98,20.85,3.16,29.57C87.44006,506.17515,80.51007,509.07517,70.43005,512.35514Z"/>
          </g>
          <g class="cls-18">
            <path class="cls-21" d="M50.99,508.61515a5.22953,5.22953,0,0,1,.82-2.81c.99-1.94,4.4-5.03,4.4-5.03s-2.52,3.77-3.44,5.58A5.11758,5.11758,0,0,1,50.99,508.61515Z"/>
          </g>
          <g class="cls-18">
            <path class="cls-21" d="M53.37006,509.71513a4.25879,4.25879,0,0,1,.7-2.62c.92-1.8,4.08-4.66,4.08-4.66s-2.32,3.51-3.16,5.17A5.23991,5.23991,0,0,1,53.37006,509.71513Z"/>
          </g>
          <g class="cls-18">
            <path class="cls-21" d="M55.72,510.55516a3.76606,3.76606,0,0,1,.6-2.44c.85-1.68,3.81-4.29,3.81-4.29s-2.17,3.23-2.93,4.77A4.90584,4.90584,0,0,1,55.72,510.55516Z"/>
          </g>
          <g class="cls-18">
            <path class="cls-21" d="M58.41,511.23515a3.41,3.41,0,0,1,.47-2.25c.73-1.57,3.43-3.96,3.43-3.96a50.78609,50.78609,0,0,0-2.59,4.39A4.288,4.288,0,0,1,58.41,511.23515Z"/>
          </g>
          <g class="cls-18">
            <path class="cls-21" d="M61.16,511.64512a3.07571,3.07571,0,0,1,.4-2.08,15.78976,15.78976,0,0,1,3.19-3.61,39.96235,39.96235,0,0,0-2.4,4.02A3.85443,3.85443,0,0,1,61.16,511.64512Z"/>
          </g>
          <g class="cls-18">
            <path class="cls-21" d="M73.39008,508.53514a1.375,1.375,0,1,0,.88-1.49A1.24129,1.24129,0,0,0,73.39008,508.53514Z"/>
          </g>
          <g class="cls-18">
            <path class="cls-22" d="M222.56,465.41514a11.6334,11.6334,0,0,0,4.71,1.47,6.2681,6.2681,0,0,0,4.75-1.84c2.07995-2.27,2.74-4.37,3.62-5.96a7.00112,7.00112,0,0,1,4.28-3.67,5.238,5.238,0,0,0-1.7.06,7.91492,7.91492,0,0,0-4.06006,2.5c-1.36,1.44-2.64,3.53-4.21,4.73a3.0585,3.0585,0,0,1-2.43994.65,9.71853,9.71853,0,0,1-3.21-1.19Z"/>
          </g>
          <g class="cls-18">
            <path class="cls-22" d="M221.89008,465.65513c2.35,1.98,4.88,3.86,8.14,4.37a6.68648,6.68648,0,0,0,4.57-1.02,11.17118,11.17118,0,0,0,2.51-2.38c2.38-2.99,4.95-2.33,4.95-2.33a5.59223,5.59223,0,0,0-1.61-.7c-1.15-.34-3.13.2-4.77,1.34-1.7,1.17-3.28,2.01-4.93994,1.41a21.78533,21.78533,0,0,1-5.93-4.02Z"/>
          </g>
          <g class="cls-18">
            <path class="cls-22" d="M227.7,467.93516c-2.98.74-6.07995,1.3-9.24.31a6.70124,6.70124,0,0,1-3.65-2.94,11.37053,11.37053,0,0,1-1.2-3.24c-.8-3.73-3.41-4.28-3.41-4.28a5.51926,5.51926,0,0,1,1.75.09c1.18.21,2.72,1.56,3.69,3.31,1,1.81,2.05,3.25,3.8,3.45a21.6042,21.6042,0,0,0,7.1-.98Z"/>
          </g>
          <g class="cls-18">
            <path class="cls-22" d="M221.00006,471.12516a72.74653,72.74653,0,0,0,.77-9.35c.01-1.33.43-3.11-.76-4.78-1.22-1.72-2.74-1.68-3.68005-2a11.97388,11.97388,0,0,1-5.59-3.61,10.66864,10.66864,0,0,0,.88,1.71,10.50975,10.50975,0,0,0,3.98,3.61c.98.52,2.06006,1.09,2.25,1.62a8.66415,8.66415,0,0,1-.18994,3.18c-.44,2.8-.89,5.9-1.33,9.12Z"/>
          </g>
          <g class="cls-18">
            <path class="cls-22" d="M224.37006,455.58512a.54549.54549,0,0,0,.06005.28,1.93289,1.93289,0,0,1,.38.99c-.48,3.45-1.39,7.13-3.09,9.62a5.601,5.601,0,0,0,1.55,1.59,3.59682,3.59682,0,0,0,2.1.75c2.15-3.91,2.59-7.78,2.86-11.66a2.63837,2.63837,0,0,1,.53-1.04.7068.7068,0,0,0,.1-.31c.03-.68-.97-1.21-2.21-1.23S224.40009,455.02513,224.37006,455.58512Z"/>
          </g>
          <g class="cls-18">
            <path class="cls-19" d="M224.97,460.49516c-16.38-3.1-24.16-.57-32.04,10.38-4.32,6.01-6.2,14.65-5.16,23.71a29.3,29.3,0,0,0,5.27,13.22,26.98239,26.98239,0,0,0,11.81,9.73c10.03,4.03,17.92,6.49,28.28,1.35,9.1-4.52,16.03-14.8,17.67-26.21a27.407,27.407,0,0,0-2.7-16.47,25.04066,25.04066,0,0,0-7.11-8.68A40.56551,40.56551,0,0,0,224.97,460.49516Z"/>
          </g>
          <g class="cls-18">
            <path class="cls-20" d="M205.6,515.66514c-9.12-3.67-14.96-13.71-15.83-21.3-.98-8.57.77-16.7,4.8-22.31,3.81-5.31,7.26-8.19,11.51-9.63,4.51-1.53,10.23-1.52,18.52.05a38.44327,38.44327,0,0,1,15.23,6.69,22.83458,22.83458,0,0,1,6.48,7.95,25.1049,25.1049,0,0,1,2.5,15.27c-1.54,10.77-8.05,20.46-16.57,24.69C222.6,521.85514,215.44,519.62516,205.6,515.66514Z"/>
          </g>
          <g class="cls-18">
            <path class="cls-21" d="M234.37006,513.86515s-1.22-1.49-4.62-4.8a34.03,34.03,0,0,0-7.85-5.33,53.64112,53.64112,0,0,0-5.54-2.31,44.95587,44.95587,0,0,1,5.82995,1.63,26.36807,26.36807,0,0,1,8.56006,4.92C234.47,511.60514,234.37006,513.86515,234.37006,513.86515Z"/>
          </g>
          <g class="cls-18">
            <path class="cls-21" d="M232.15009,515.22514a30.86292,30.86292,0,0,0-4.17005-4.66,29.68191,29.68191,0,0,0-7.49-4.88c-2.82995-1.29-5.27-2.09-5.27-2.09a49.48035,49.48035,0,0,1,5.52,1.47,23.64411,23.64411,0,0,1,8.15,4.52C232.4101,513.04515,232.15009,515.22514,232.15009,515.22514Z"/>
          </g>
          <g class="cls-18">
            <path class="cls-21" d="M229.5401,516.43516a20.18944,20.18944,0,0,0-3.65-4.48,25.06919,25.06919,0,0,0-6.99-4.46c-2.65-1.15-4.92005-1.86-4.92005-1.86a45.64379,45.64379,0,0,1,5.13,1.31,20.5994,20.5994,0,0,1,7.59,4.15C229.94,514.39512,229.5401,516.43516,229.5401,516.43516Z"/>
          </g>
          <g class="cls-18">
            <path class="cls-21" d="M226.87006,517.34513s-.53-1.53-3.24-4.18a22.726,22.726,0,0,0-6.54-3.92c-2.47-1-4.57-1.6-4.57-1.6a41.115,41.115,0,0,1,4.74005,1.11,19.571,19.571,0,0,1,7.06995,3.65,8.09952,8.09952,0,0,1,2.35,3.67A3.72734,3.72734,0,0,1,226.87006,517.34513Z"/>
          </g>
          <g class="cls-18">
            <path class="cls-21" d="M223.9101,517.92515a19.933,19.933,0,0,0-2.36-3.1c-1.88-2.16-7.98-4.5-7.98-4.5s6.48,1.26,8.71,3.76C224.44,516.50517,223.9101,517.92515,223.9101,517.92515Z"/>
          </g>
          <g class="cls-18">
            <path class="cls-21" d="M195.48,504.82517s.34-.76,2.03-1.49c1.73-.74,5.67-.84,5.67-.84s-3.73,1.08-5.31,1.77A4.80523,4.80523,0,0,1,195.48,504.82517Z"/>
          </g>
          <g class="cls-18">
            <path class="cls-21" d="M197.11005,507.07517s.28-.71,1.81-1.42a18.36419,18.36419,0,0,1,5.17-.83s-3.39,1.03-4.81,1.7A4.15792,4.15792,0,0,1,197.11005,507.07517Z"/>
          </g>
          <g class="cls-18">
            <path class="cls-21" d="M198.95007,509.15513s.24-.67,1.65-1.34a15.79848,15.79848,0,0,1,4.77-.72,42.1984,42.1984,0,0,0-4.42,1.53A3.87619,3.87619,0,0,1,198.95007,509.15513Z"/>
          </g>
          <g class="cls-18">
            <path class="cls-21" d="M210.31006,514.63517a1.37124,1.37124,0,1,0,1.63-.58A1.23929,1.23929,0,0,0,210.31006,514.63517Z"/>
          </g>
          <g class="cls-18">
            <path class="cls-19" d="M173.99005,470.85514a34.18,34.18,0,0,0-11.12-4.46,23.01849,23.01849,0,0,0-20,5.31c-5.5,5.07-9.49,14.24-9.71,22.28-.1,3.81.41,13.49,7.36,21.02,5.64,6.11,11.35,8.84,19.7,9.43a31.4657,31.4657,0,0,0,24.97-10.28c7.72-8.37,7.74-16.45,6.41-21.75-1.97-7.81-7.92-13.67-12.23-17.39h0A58.38988,58.38988,0,0,0,173.99005,470.85514Z"/>
          </g>
          <g class="cls-18">
            <path class="cls-20" d="M142.00006,513.64512c-6.45-6.99-6.93-16.04-6.83-19.6.2-7.55,3.93-16.12,9.07-20.86a20.91982,20.91982,0,0,1,18.22-4.82,32.84084,32.84084,0,0,1,10.38,4.14,57.864,57.864,0,0,1,5.23,4.04c6.52,5.64,10.2,10.84,11.59,16.36,1.55,6.15.1,12.28-4.21,17.85-.53.69-1.11,1.37-1.73,2.04a29.44462,29.44462,0,0,1-23.35,9.64C152.48,521.88517,147.33,519.41514,142.00006,513.64512Z"/>
          </g>
          <g class="cls-18">
            <path class="cls-21" d="M165.14008,520.63517s-1.57.59-5.47-.52a29.36147,29.36147,0,0,1-7.08-3.42,43.39586,43.39586,0,0,1-3.87-2.89s1.82,1.17,4.17,2.38a43.79824,43.79824,0,0,0,7.12,2.8C163.71,520.04515,165.14008,520.63517,165.14008,520.63517Z"/>
          </g>
          <g class="cls-18">
            <path class="cls-21" d="M171.09,519.23515s-1.82.93-6.69,0a30.50382,30.50382,0,0,1-8.86-3.65,43.92882,43.92882,0,0,1-4.81-3.39,50.951,50.951,0,0,0,5.12,2.81,40.71829,40.71829,0,0,0,8.82,2.93C169.27,518.81516,171.09,519.23515,171.09,519.23515Z"/>
          </g>
          <g class="cls-18">
            <path class="cls-21" d="M175.49005,517.20518s-1.95,1.2-7.41.46a31.09717,31.09717,0,0,1-9.98-3.69,43.33168,43.33168,0,0,1-5.39-3.69,51.31569,51.31569,0,0,0,5.72,3.03,39.74183,39.74183,0,0,0,9.88,2.88C173.44006,516.90513,175.49005,517.20518,175.49005,517.20518Z"/>
          </g>
          <g class="cls-18">
            <path class="cls-21" d="M178.83,514.98515s-2.01,1.39-7.83.78a31.44578,31.44578,0,0,1-10.64-3.72,44.79266,44.79266,0,0,1-5.73-3.87,49.82342,49.82342,0,0,0,6.09,3.14,40.21883,40.21883,0,0,0,10.49,2.83C176.65,514.73515,178.83,514.98515,178.83,514.98515Z"/>
          </g>
          <g class="cls-18">
            <path class="cls-21" d="M158.67,520.58512s-1.21.43-4.1-.53a22.70941,22.70941,0,0,1-5.21-2.77,34.38812,34.38812,0,0,1-2.84-2.26s1.36.89,3.11,1.82a36.66978,36.66978,0,0,0,5.29,2.23A22.81789,22.81789,0,0,1,158.67,520.58512Z"/>
          </g>
          <g class="cls-18">
            <path class="cls-21" d="M137.4,489.58512a5.73681,5.73681,0,0,1,1.41,2.64c.64,2.03,2.53,6.37,2.53,6.37s-2.83-3.86-3.52-6.01A5.96306,5.96306,0,0,1,137.4,489.58512Z"/>
          </g>
          <g class="cls-18">
            <path class="cls-21" d="M138.46,485.72514a6.79906,6.79906,0,0,1,1.38,2.88c.63,2.17,2.54,6.85,2.54,6.85s-2.92-4.19-3.59-6.5A5.87582,5.87582,0,0,1,138.46,485.72514Z"/>
          </g>
          <g class="cls-18">
            <path class="cls-21" d="M139.80005,482.40513a6.80052,6.80052,0,0,1,1.37,2.98c.6,2.25,2.52,7.08,2.52,7.08s-2.98-4.34-3.63-6.73A5.96554,5.96554,0,0,1,139.80005,482.40513Z"/>
          </g>
          <g class="cls-18">
            <path class="cls-21" d="M141.35,479.48515a6.78313,6.78313,0,0,1,1.37,3.02c.59,2.27,2.49,7.16,2.49,7.16s-3.01-4.37-3.65-6.8C140.93005,480.48515,141.35,479.48515,141.35,479.48515Z"/>
          </g>
          <g class="cls-18">
            <path class="cls-22" d="M174.96,479.12516a15.66245,15.66245,0,0,1-.47-7.36,10.90656,10.90656,0,0,1,2.12-5.73,8.47155,8.47155,0,0,1,5.1-2.94,8.72585,8.72585,0,0,0-1.7.07,8.59393,8.59393,0,0,0-4.43,1.81,11.70251,11.70251,0,0,0-3.54,6.32,15.24,15.24,0,0,0,.2,8.97Z"/>
          </g>
          <g class="cls-18">
            <path class="cls-22" d="M172.97,478.01518a8.80405,8.80405,0,0,0-1.6-4.98c-1.07-1.4-1.97-2.08-2.23-2.99-.62-2.2-.89-4.97-2.05-6.86a7.35532,7.35532,0,0,0-3.92-3.13,8.80759,8.80759,0,0,0-1.72-.45,11.35069,11.35069,0,0,1,1.51.87,7.011,7.011,0,0,1,2.8,3.37c.67,1.77.43,3.91.98,6.89.32,1.76,1.71,3,2.31,3.93a6.726,6.726,0,0,1,.97,3.47Z"/>
          </g>
          <g class="cls-18">
            <path class="cls-22" d="M174.43005,481.36515a8.51391,8.51391,0,0,0,4.61-1.73,26.07433,26.07433,0,0,0,2.95-2.75,20.67468,20.67468,0,0,1,5.12-3.57,12.33854,12.33854,0,0,0,4.67-4.09,15.19632,15.19632,0,0,1-5.27,2.74c-.88.28-1.89.63-2.94,1.06a13.35725,13.35725,0,0,0-3.23,1.99c-2.03,1.64-3.78,3.37-6.06,3.4Z"/>
          </g>
          <g class="cls-18">
            <path class="cls-22" d="M178.77,469.09513a.55873.55873,0,0,0-.13.28,2.354,2.354,0,0,1-.32,1.07c-2.53,2.77-5.01,5.51-7.44,8.49a4.07964,4.07964,0,0,0,1.45,1.69,4.88873,4.88873,0,0,0,2.04.88c2.03-2.96,4.31-5.93,6.56-8.85a2.27624,2.27624,0,0,1,1-.48.55858.55858,0,0,0,.25-.17c.4-.47-.04-1.5-.98-2.31C180.28,468.89512,179.18005,468.62516,178.77,469.09513Z"/>
          </g>
          <g class="cls-18">
            <path class="cls-22" d="M172.18005,480.53514c1.35,1.32,3.29,2.81,5.68,2.63,2.29-.17,3.59-1.18,4.71-1.18,2.27,0,4.52,2.35,6.5,3.62a10.81234,10.81234,0,0,0,5.5,1.85,10.2813,10.2813,0,0,0,2.08-.15,9.64974,9.64974,0,0,1-6.68-2.87c-.84-.77-1.72-1.7-2.79-2.68a7.37458,7.37458,0,0,0-4.58-2.27c-2.07-.09-3.71.86-4.85.85a3.88947,3.88947,0,0,1-1.9-.63C174.06006,478.59513,172.18005,480.53514,172.18005,480.53514Z"/>
          </g>
          <g class="cls-18">
            <path class="cls-22" d="M172.45007,477.47514a3.52924,3.52924,0,0,0-1.95-.63c-1.21-.1-1.21.04-1.51-.77-.75-2.02-1.84-4.21-3.29-5.3a5.08887,5.08887,0,0,0-4.08-1.07,4.04427,4.04427,0,0,0-1.38.58,4.07738,4.07738,0,0,1,4.44,1.57,10.646,10.646,0,0,1,1.91,4.94,3.32438,3.32438,0,0,0,1.36,2.14,5.13712,5.13712,0,0,0,2.3.73,4.27224,4.27224,0,0,1,1.93.87C172.18005,480.53514,174.6,479.45518,172.45007,477.47514Z"/>
          </g>
          <g class="cls-18">
            <path class="cls-19" d="M122.07007,460.54515h0c-5.12-1.81-12.88-3.99-21.18-2.04-9.74,2.29-15.98,8.7-18.55,19.06a36.88063,36.88063,0,0,0,5.33,28.8,29.89743,29.89743,0,0,0,24.25,12.85c10.85.3,19.59-4.75,27.5-15.9,6.29-8.86,7.4-17.71,3.31-26.32C139.6,470.41514,131.30005,463.81516,122.07007,460.54515Z"/>
          </g>
          <g class="cls-18">
            <path class="cls-20" d="M89.31006,505.19517a34.77429,34.77429,0,0,1-5.01-27.14,24.24044,24.24044,0,0,1,7.05-12.57,22.40509,22.40509,0,0,1,10.01-5.01c7.78-1.83,15.17.25,20.05,1.98h0c10.12,3.58,17.09,10.32,19.51,15.41,3.81,8.01,2.78,15.96-3.13,24.29-3.81,5.36-7.7,9.17-11.91,11.62a25.431,25.431,0,0,1-13.9,3.44A28.00419,28.00419,0,0,1,89.31006,505.19517Z"/>
          </g>
          <g class="cls-18">
            <path class="cls-21" d="M120.20007,514.44517s-1.2.64-4.51.4c-3.36-.24-9.98-2.92-9.98-2.92s6.93,1.52,10.11,1.74A14.45159,14.45159,0,0,1,120.20007,514.44517Z"/>
          </g>
          <g class="cls-18">
            <path class="cls-21" d="M125.21,512.20518s-1.4,1.03-5.54.95a33.2098,33.2098,0,0,1-7.91-1.43c-2.62-.8-4.65-1.66-4.65-1.66s2.15.55,4.8,1.02a56.19715,56.19715,0,0,0,7.8.75A37.37689,37.37689,0,0,1,125.21,512.20518Z"/>
          </g>
          <g class="cls-18">
            <path class="cls-21" d="M128.77,509.68516s-1.49,1.28-6.17,1.41a34.19556,34.19556,0,0,1-8.94-1.35,52.807,52.807,0,0,1-5.25-1.81s2.42.61,5.41,1.09a54.06929,54.06929,0,0,0,8.77.6A52.77266,52.77266,0,0,1,128.77,509.68516Z"/>
          </g>
          <g class="cls-18">
            <path class="cls-21" d="M131.86005,506.76518s-1.54,1.53-6.65,1.89a33.791,33.791,0,0,1-9.81-1.22,52.10139,52.10139,0,0,1-5.75-1.92s2.64.66,5.92,1.12a50.49365,50.49365,0,0,0,9.57.39C129.92,506.69517,131.86005,506.76518,131.86005,506.76518Z"/>
          </g>
          <g class="cls-18">
            <path class="cls-21" d="M92.45007,506.89512a2.02382,2.02382,0,0,1,1.32.61c.74.66,2.32,2.29,2.32,2.29a15.85321,15.85321,0,0,1-2.89-1.61C92.4,507.48515,92.45007,506.89512,92.45007,506.89512Z"/>
          </g>
          <g class="cls-18">
            <path class="cls-21" d="M111.92,515.57517a3.93535,3.93535,0,0,1-2.52.06,34.79886,34.79886,0,0,1-5.37-2.04s3.87.68,5.6,1.03A4.62016,4.62016,0,0,1,111.92,515.57517Z"/>
          </g>
          <g class="cls-18">
            <path class="cls-22" d="M118.27,466.00517a9.00735,9.00735,0,0,1-4.41-.65,4.30343,4.30343,0,0,1-2.34-2.99,11.05263,11.05263,0,0,0-2.56-4.26,5.34848,5.34848,0,0,0-4.27-1.49c-2.58.33-4.32,1.17-5.35.28a3.51083,3.51083,0,0,1-1.14-1.65,3.17309,3.17309,0,0,0,.83,1.98c1.07,1.4,3.59.83,5.68.86,2.25.04,3.69,2.11,4.44,5.05a8.48541,8.48541,0,0,0,1.04,2.62,6.60378,6.60378,0,0,0,2.38,2.11,10.80883,10.80883,0,0,0,6.04,1.06Z"/>
          </g>
          <g class="cls-18">
            <path class="cls-22" d="M118.67,468.66514a16.28338,16.28338,0,0,1,4.67.22c1.67.28,3.21.68,4.82,1.07a16.28416,16.28416,0,0,0,9-.25,9.06679,9.06679,0,0,0,4.8-3.58,7.08624,7.08624,0,0,0,.9-1.96s-1.37,3.28-6.08,4.11a16.45691,16.45691,0,0,1-7.94-.72,37.76346,37.76346,0,0,0-4.98-1.45,13.876,13.876,0,0,0-6.13-.25Z"/>
          </g>
          <g class="cls-18">
            <path class="cls-22" d="M117.91,466.15513c-1.77-1.24-2.82-3.56-3.38-5.7a29.09094,29.09094,0,0,1-.6-3.25,4.88022,4.88022,0,0,0-1.6-3.14,4.20242,4.20242,0,0,0-4.65-.33,3.48226,3.48226,0,0,0-1.32.96,4.293,4.293,0,0,1,1.47-.52,3.02182,3.02182,0,0,1,4.09,3.21,22.38834,22.38834,0,0,0,.16,3.55,11.04353,11.04353,0,0,0,4.15,7.65Z"/>
          </g>
          <g class="cls-18">
            <path class="cls-22" d="M119.37006,466.93516a15.25081,15.25081,0,0,1-1.61-5.41,23.37266,23.37266,0,0,1,.55-4.94,7.01548,7.01548,0,0,0-.86-4.94,8.47032,8.47032,0,0,1-.58,4.59,14.98234,14.98234,0,0,0-1.61,5.31,12.78375,12.78375,0,0,0,1.58,6.93Z"/>
          </g>
          <g class="cls-18">
            <path class="cls-22" d="M120.37006,456.25517a.57831.57831,0,0,0,.03.29,2.0482,2.0482,0,0,1,.28,1.03c-.83,3.39-2.12,6.95-4.08,9.24.27.51,2.81,1.98,4,1.78a28.14276,28.14276,0,0,0,3.44-10.37,2.73886,2.73886,0,0,1,.63-.98.67233.67233,0,0,0,.13-.3c.1-.67-.83-1.31-2.07-1.45C121.51007,455.34513,120.45007,455.69517,120.37006,456.25517Z"/>
          </g>
          <g class="cls-18">
            <path class="cls-22" d="M117.31006,468.36515c1.2,1.44,2.41,3.11,4.9,3.65a3.78885,3.78885,0,0,0,3.42-1.24,7.60482,7.60482,0,0,0,1.41-2.44c1.14-3.17,1.11-6.11,1.35-8.29.23-2.16.85-4.24,2.06-4.07a2.41519,2.41519,0,0,1,1.66.9s-.21-.81-1.58-1.36c-.76-.31-1.78.35-2.31,1.18a11.15726,11.15726,0,0,0-1.28,3.05c-.64,2.35-1.01,5.03-2.19,7.59a5.11619,5.11619,0,0,1-1.04,1.56.975.975,0,0,1-1.02.32,3.25925,3.25925,0,0,1-1.3-.77C120.1,467.35514,117.31006,468.36515,117.31006,468.36515Z"/>
          </g>
        </g>
        <path class="cls-6" d="M15.84,617.39512a34.43212,34.43212,0,0,0-9.2,7.67,22.96474,22.96474,0,0,0-4.8,20.13c1.86,7.25,8.04,15.11,15.02,19.12,3.31,1.9,12.07,6.04,22,3.48,8.06-2.07,13.17-5.8,17.64-12.88a31.48839,31.48839,0,0,0,2.79-26.86c-3.71-10.76-10.81-14.61-16.11-15.95-7.81-1.97-15.79.5-21.11,2.52h0A62.02589,62.02589,0,0,0,15.84,617.39512Z"/>
        <path class="cls-6" d="M38.36005,665.84513c-9.21,2.37-17.4-1.5-20.5-3.28-6.55-3.76-12.33-11.11-14.07-17.87a20.93633,20.93633,0,0,1,4.39-18.33,32.43173,32.43173,0,0,1,8.57-7.17,59.19734,59.19734,0,0,1,6.03-2.69c8.05-3.06,14.38-3.84,19.9-2.45,6.15,1.55,10.86,5.74,13.73,12.17.35.79.68,1.62.98,2.49a29.42921,29.42921,0,0,1-2.59,25.13C50.58,660.52513,45.97,663.89512,38.36005,665.84513Z"/>
        <g>
          <path class="cls-22" d="M23.58,620.46513a15.861,15.861,0,0,1-6.71-3.07,10.95178,10.95178,0,0,1-4.04-4.58,8.47935,8.47935,0,0,1-.17-5.89,8.69284,8.69284,0,0,0-.75,1.53,8.53292,8.53292,0,0,0-.5,4.76,11.63838,11.63838,0,0,0,3.89,6.11,15.29759,15.29759,0,0,0,7.99,4.08Z"/>
          <path class="cls-22" d="M21.67,621.69517a8.76959,8.76959,0,0,0-5.14-.95c-1.74.28-2.77.75-3.69.54-2.22-.5-4.8-1.57-7.02-1.45a7.35183,7.35183,0,0,0-4.61,1.97,8.88394,8.88394,0,0,0-1.21,1.3,11.62126,11.62126,0,0,1,1.48-.92,7.07009,7.07009,0,0,1,4.29-.87c1.87.25,3.65,1.48,6.53,2.41,1.7.55,3.45-.08,4.56-.17a6.80158,6.80158,0,0,1,3.52.79Z"/>
          <path class="cls-22" d="M25.30005,621.99516a8.48264,8.48264,0,0,0,.66-4.88,26.74569,26.74569,0,0,0-1.03-3.91,20.25055,20.25055,0,0,1-.71-6.2,12.3438,12.3438,0,0,0-1.39-6.05,15.2042,15.2042,0,0,1-.08,5.93c-.17.91-.34,1.96-.46,3.1a13.58239,13.58239,0,0,0,.22,3.79c.49,2.56,1.17,4.93.12,6.95Z"/>
          <path class="cls-22" d="M16.57007,612.34513a.64187.64187,0,0,0,.18.25c.29.25.66.44.79.79,1.24,3.54,2.48,7.02,3.95,10.57a4.07166,4.07166,0,0,0,2.18-.48,4.69787,4.69787,0,0,0,1.74-1.38c-1.65-3.19-3.18-6.61-4.68-9.97a2.2968,2.2968,0,0,1,.05-1.1.54362.54362,0,0,0-.03-.31c-.22-.57-1.34-.67-2.5-.23C17.1,610.93516,16.34,611.76518,16.57007,612.34513Z"/>
          <path class="cls-22" d="M23.51007,623.57517c1.8-.56,4.04-1.56,5.01-3.75.93-2.1.66-3.72,1.2-4.71,1.07-2,1.92-2.07,3.98-3.21a10.76246,10.76246,0,0,0,4.23-3.97,10.93816,10.93816,0,0,0,.86-1.9,9.655,9.655,0,0,1-5.69,4.52c-2.46.85-4.06.83-5.56,3.34-1.06,1.78-1,3.67-1.55,4.67a3.80946,3.80946,0,0,1-1.46,1.37C22.69006,621.00517,23.51007,623.57517,23.51007,623.57517Z"/>
          <path class="cls-22" d="M20.94006,621.89512a3.54106,3.54106,0,0,0-1.48,1.41c-.67,1.02-.54,1.09-1.39.97-2.13-.3-4.58-.37-6.23.39a5.04281,5.04281,0,0,0-2.87,3.09,4.12152,4.12152,0,0,0-.14,1.49,4.09655,4.09655,0,0,1,3.49-3.17,10.5994,10.5994,0,0,1,5.25.66,3.3506,3.3506,0,0,0,2.53-.18,5.10691,5.10691,0,0,0,1.74-1.68,4.48584,4.48584,0,0,1,1.68-1.29C23.51007,623.57517,23.71,620.93516,20.94006,621.89512Z"/>
        </g>
        <path class="cls-6" d="M218.51007,634.05516c-8.17-2.37-20.8-1.8-26.51,1.19a23.51,23.51,0,0,0-11.97,13.78,31.09094,31.09094,0,0,0-1.46,9.4c-.15,13.03,4.24,23.09,12.7,29.08a29.88129,29.88129,0,0,0,27.1,4.29,36.89406,36.89406,0,0,0,21.56005-19.82c4.17-9.82,3.03-18.7-3.38-26.38A37.42084,37.42084,0,0,0,218.51007,634.05516Z"/>
        <path class="cls-6" d="M192.43005,685.87516c-7.9-5.6-12-15.08-11.85-27.42.12-9.98,4.27-17.19,12.35-21.42,5.33-2.8,17.26-3.29,25.02-1.04h0a35.36439,35.36439,0,0,1,17.06006,10.9,22.29642,22.29642,0,0,1,4.99,10.02,24.18952,24.18952,0,0,1-1.92,14.28,34.7382,34.7382,0,0,1-20.31006,18.69A27.97234,27.97234,0,0,1,192.43005,685.87516Z"/>
        <g>
          <path class="cls-22" d="M216.6,641.23515a9.037,9.037,0,0,0,3.96,2.05,4.23753,4.23753,0,0,0,3.64-1.07,11.05459,11.05459,0,0,1,4.56006-1.97,5.37892,5.37892,0,0,1,4.34,1.28c1.9,1.77,2.82995,3.48,4.18994,3.35a3.52334,3.52334,0,0,0,1.89-.67,3.15883,3.15883,0,0,1-1.82995,1.13c-1.68006.51-3.4-1.42-5.12-2.61-1.85-1.28-4.23-.44-6.55,1.52a8.82507,8.82507,0,0,1-2.37,1.53,6.58839,6.58839,0,0,1-3.17005.32,10.88553,10.88553,0,0,1-5.53-2.66Z"/>
          <path class="cls-22" d="M214.71,643.15513a15.9076,15.9076,0,0,0-4.06-2.31c-1.56-.66-3.08-1.15-4.64-1.68a16.33706,16.33706,0,0,1-7.47-5.03,9.05728,9.05728,0,0,1-2.14-5.6,6.9707,6.9707,0,0,1,.29-2.14s-.6,3.5,2.93,6.73a16.51551,16.51551,0,0,0,7.09,3.64,36.75343,36.75343,0,0,1,4.98,1.44,13.91084,13.91084,0,0,1,5.3,3.07Z"/>
          <path class="cls-22" d="M216.69,641.43516c2.16-.1,4.29-1.5,5.91-3a30.67,30.67,0,0,0,2.25-2.43,4.93816,4.93816,0,0,1,3.03-1.8,4.21193,4.21193,0,0,1,4.1,2.21,3.53359,3.53359,0,0,1,.6,1.52,4.43852,4.43852,0,0,0-.96-1.23,3.61631,3.61631,0,0,0-3.43995-1.06,3.50088,3.50088,0,0,0-1.73,1.58,21.1247,21.1247,0,0,1-2.04,2.91,11.08026,11.08026,0,0,1-7.61,4.24Z"/>
          <path class="cls-22" d="M215.0401,641.31516a15.11282,15.11282,0,0,0,4.26-3.71,23.30206,23.30206,0,0,0,2.18005-4.46,7.00633,7.00633,0,0,1,3.37-3.71,8.46118,8.46118,0,0,0-1.97,4.19,14.99822,14.99822,0,0,1-1.48,5.34,12.92107,12.92107,0,0,1-5.05,5.01Z"/>
          <path class="cls-22" d="M219.9201,631.75517a.65608.65608,0,0,1-.18.23c-.29.21-.65.39-.78.72-1.11,3.3-1.93,7-1.51,9.99-.5.29-3.43.17-4.32995-.64a28.205,28.205,0,0,1,2.65-10.6,2.71891,2.71891,0,0,0-.01-1.17.6954.6954,0,0,1,.05-.32c.27-.62,1.41-.66,2.53-.12C219.44,630.37516,220.15009,631.24516,219.9201,631.75517Z"/>
          <path class="cls-22" d="M216.21,643.09513c-1.71.76-3.54,1.71-6.02,1.08a3.8129,3.8129,0,0,1-2.51-2.63,7.93133,7.93133,0,0,1-.18-2.82c.39-3.35,1.73-5.97,2.49-8.02.76-2.04,1.13-4.17-.03-4.56a2.40214,2.40214,0,0,0-1.89.07,2.41769,2.41769,0,0,1,2.02-.51c.82.07,1.44,1.1,1.54,2.09a11.4797,11.4797,0,0,1-.21,3.3c-.47,2.4-1.33,4.95-1.43,7.77a5.09313,5.09313,0,0,0,.24,1.86.97017.97017,0,0,0,.78.74,3.38,3.38,0,0,0,1.5-.11C214.1701,640.95518,216.21,643.09513,216.21,643.09513Z"/>
        </g>
        <circle class="cls-24" cx="84.41003" cy="595.70518" r="10.5"/>
        <path class="cls-11" d="M207.21,506.67515a2.105,2.105,0,0,0,1.68,2.42l-.08-.02a.97048.97048,0,0,1,.55.46c.17.3.48,1.22-.17,3.33-9.34,30.33-22.01,50.5-39.88,63.48-20,14.53-47.44,20.36-83.88,17.81a2.09,2.09,0,1,0-.29,4.17c37.46,2.62,65.79-3.47,86.62-18.6,18.64-13.54,31.8-34.39,41.42-65.63.86-2.8.76-5.08-.3-6.8a5.12677,5.12677,0,0,0-3.31-2.32A2.06182,2.06182,0,0,0,207.21,506.67515Z"/>
      </g>
      <path class="cls-3" d="M174.89008,220.17515s-5.34-3.07-3.66-8.15-14.46,11.22-7.24,35.12c0,0,5.61,16.2,10.96,24.8,5.36,8.6,3.66-9.45,4.83-11.8a45.04107,45.04107,0,0,0,21.12,4.7s3.8-5.99.57-9.63c0,0,18.77-8.21,24.44-10.64a8.14558,8.14558,0,0,0-3.64-2.63c-2.37-.83,7.91.47,28.52-15.57,0,0-13.17-16.65-53.23-10.38-40.05,6.27-1.74.24-1.74.24s-3.46-5.73.49-8.25C196.31006,207.98515,179.07007,207.65516,174.89008,220.17515Z"/>
      <path class="cls-5" d="M164.68005,251.30516c26-31.61,71.76-23.26,71.76-23.26-.46-.11-46.46-10.29-73.06,22.06Z"/>
    </g>
  </g>
</svg>
