<svg xmlns="http://www.w3.org/2000/svg" viewBox="0 0 158.78041 483.49001">
  <defs>
    <style>
      .cls-1 {
        fill: #354053;
      }

      .cls-1, .cls-10, .cls-11, .cls-12, .cls-14, .cls-15, .cls-2, .cls-4, .cls-5, .cls-6, .cls-7, .cls-8, .cls-9 {
        fill-rule: evenodd;
      }

      .cls-2 {
        fill: #130f22;
      }

      .cls-3, .cls-8 {
        fill: #3b70b7;
      }

      .cls-4 {
        fill: #ead7b9;
      }

      .cls-5 {
        fill: #b9d0ec;
      }

      .cls-6 {
        fill: #d3c2a9;
      }

      .cls-7 {
        fill: #1c1c1c;
      }

      .cls-10 {
        fill: #dae9f6;
      }

      .cls-11 {
        fill: #f7f9fd;
      }

      .cls-12 {
        fill: #d2dcea;
      }

      .cls-13 {
        fill: #375480;
      }

      .cls-14 {
        fill: #5bc0ee;
      }

      .cls-15 {
        fill: #6886ac;
      }
    </style>
  </defs>
  <title>Asset 1</title>
  <g id="Layer_2" data-name="Layer 2">
    <g id="Layer_1-2" data-name="Layer 1">
      <g>
        <path class="cls-1" d="M43.7304,396.34l9.48-202.44,49.36,3.94,22.31,198.5c-10.75-.08-20.15.31-29.07-.24-12.83-.8-24.69-3.29-38.26.03C53.2204,397.18,48.5804,396.24,43.7304,396.34Z"/>
        <path class="cls-2" d="M102.15039,477.13l-12.53-2.12s-1.34-61.87-2.02-82.48c-.83-25.58-5.76-104.27-5.76-104.27l25.92-9.34s-2.65,75.23-2.88,98.89C104.65039,402.43,102.15039,477.13,102.15039,477.13Z"/>
        <rect class="cls-3" x="62.95039" y="191.80999" width="37.75999" height="86.26999"/>
        <path class="cls-4" d="M58.3004,99.52c.44,2.28.02,5.45-2.11,5.84-2.13.4-5.17-2.14-5.61-4.41s.82-4.76,2.95-5.15C55.6604,95.4,57.8604,97.25,58.3004,99.52Z"/>
        <path class="cls-4" d="M93.76039,97.29c.5,2.26,1.33,4.74,3.45,4.29s3.92-3.94,3.43-6.2c-.5-2.26-2.63-4.08-4.75-3.63C93.76039,92.2,93.26039,95.03,93.76039,97.29Z"/>
        <path class="cls-1" d="M153.59039,149.88c1.35,10.57,2.75,25.78,1.96,27.79l-5.81-8.26-4.94-14.36Z"/>
        <path class="cls-1" d="M3.5804,107.68c-1.51,10.54-4.67,38.91-3.2,41.33,4.86-6.22,10.65-13,13.33-27.22Z"/>
        <path class="cls-5" d="M79.6604,175.6s15.36-33.54,14.02-33.79c-2.3-.43-9.67-5.51-16.15-4.95-6.58.57-14.57,6.87-14.57,6.87Z"/>
        <path class="cls-6" d="M68.5904,121.61s.44,14.18.8,18.91c2.8,3.59,6.33,6.26,9.01,6.08,4.7-.33,8.55-6.14,8.55-6.14l-1.18-22.81Z"/>
        <path class="cls-4" d="M97.6804,105.04c.28,10.74,0,9.36.08,13.18-1.93,6.3-9.04,16.21-14.11,16.51-7.03.42-15.69-6.36-19.52-8.43-4.1-4.5-3.32-5.08-7.9-21.15-3.27-11.48-4.07-20.52-1.27-27.82,3.2-8.35,10.92-8.55,18.83-9.49,6.96-.83,11.55-3.73,17.15,3.55C97.2704,79.63,97.4304,95.49,97.6804,105.04Z"/>
        <path class="cls-7" d="M53.13039,96.86s-2.29-9.2-3.9-15.05c-.78-2.83.01-4.23,2.13-6.93a62.78935,62.78935,0,0,1,8.4-7.27c4.66-3.44,16.68-6.61,25.78-2.68,2.08.9,5.65,2.45,7.19,4.29,1.9,2.28,1.85,1.94,2.47,3.98,1.23,4.06,1.77,19.13,1.77,19.13l-.82.7s-2.72-15.63-5.22-17.37c-4.04-2.81-9.28-2.02-14.84.46-4.66-.65-15.08-2.92-21.4,6.49-1.34,5.52,1.62,14.39,1.62,14.39Z"/>
        <polygon class="cls-2" points="58.95 475.86 47.29 476.28 48.73 391.4 50.74 278.07 74.5 289.53 65.29 392.39 58.95 475.86"/>
        <path class="cls-8" d="M28.2904,399.05c4.2,6.37,19.6,6.13,30.14,4.44,5.95-.95,16.25,1.62,19.44,2.96,1.01-40.22,3.72-94.1,5.15-132.98.56-15.23-.11-43.12-.97-64.38-.46-11.43-.91-27.83-2.1-35.77-5.63-10.92-11.25-19.71-15.59-31.66-4.08,1.13-17.21,2.48-25.18,3.84-.28.8,2.27,14.36,2.86,30.19-1.22,36.1-3.27,73.41-5.99,109.98-3.04,40.93-6.36,84.81-7.76,113.38Zm64.29,6.81c-2.68-27.78-3.8-62.35-9.3-125.73-1.88-21.74-.75-72.29-2.76-92.7l-.62-14.19c4.86-10.09,8.84-21.41,13-32.58,9.68.41,18.77,1.6,25.18,2.36-.06,10.51-3.05,22.54-3.16,35.39,2.01,26.6,3.54,54.16,5.66,81.7,3.57,46.22,7.56,92.77,11.68,137.39C122.2404,408.68,105.3204,403.8,92.5804,405.86Z"/>
        <path class="cls-9" d="M75.0704,164.97l2.33-10.66,2.8-.03,3.39,10.3c-1.86,4.57-2.26,5.23-3.93,9.07-2.11-4.07-2.37-4.26-4.59-8.68Zm3.31-18.41-4.02,3.56,2.44,4.31,4.02-.14,1.7-4.55Z"/>
        <path class="cls-10" d="M69.4604,140.32l9.05,6.1-8.71,7.94q-3.06-6.3-5.43-12.71l4.86-3.75.23,2.42Zm17.45-.45-8.76,6.59,9.62,7.32c1.91-4.8,3.17-7.82,4.89-13.05l-5.87-3.3Z"/>
        <path class="cls-1" d="M79.85039,171.34a216.04978,216.04978,0,0,0,13.06-30.68l12.68.93c-6.26,17.21-13.19,34.27-22.53,50.11l-2.37,4.03-2.63-3.87a259.14834,259.14834,0,0,1-26.19-48.46l6.48-1.11,6.02-.64C69.0204,153.77,73.1904,160.36,79.85039,171.34Z"/>
        <path class="cls-11" d="M102.3604,140.2c-2.49,6.84-3.85,10.37-6.89,17.79a246.36006,246.36006,0,0,1-14.96,31.17c-10.42-15.34-18.85-28.14-26.81-47.28l8.24-1.2c5.81,15.16,10.3,23.28,18.12,35.46,6.53-11.81,10.65-23.43,15.06-36.57Z"/>
        <path class="cls-4" d="M148.09039,101.24l-3.95-20.2,1.28-6.82-.69-8.48-5.61-3.23-1.63-2.48-6.43-2.38-2.23,1.89.69,1.39,1.33,1.89,1.73,2.45-.9,6.71a1.06422,1.06422,0,0,1-1.56.02,18.25272,18.25272,0,0,1-2.74-3.13,2.71079,2.71079,0,0,0-2.2-.1l2.63,8.08,1.41,2.31,4.52,3.77,2.91,17Z"/>
        <path class="cls-12" d="M135.6304,98.26l12.63-.31a325.41481,325.41481,0,0,1,10.52,48.6c-5.33,5.88-13.51,10.08-24.07,12.86l-3.51-13.01,8.2-8.39Z"/>
        <path class="cls-8" d="M137.6904,118.75c.03.87,1.02,2.59,1.64,5.67,2.93,14.56,12.62,51.01,16.45,52.84-3.26,11.14-5.73,2.08-8.93,3.48-3.47,1.51-4.78,1.17-10.56-.41-5.6-1.53-14.08-.77-22.32,1.01a310.71173,310.71173,0,0,1,.85-37.69c7.15-1.27,15.09-4,20.95-5.9C136.51039,131.74,136.6404,121.12,137.6904,118.75Z"/>
        <path class="cls-4" d="M26.6504,27.45l2.49,6.68-3.12-.62.65,2.46,4.14,8.38a363.974,363.974,0,0,0-16.57,33.41s1.77,1.86,7.26,3.39a26.10794,26.10794,0,0,0,5.14-2.07l13.42-33.11.43-15.71,1.3-4.93-3.31-2.03-3.91.75-2.24,2.64-.88-6.7-2.26-.48Z"/>
        <path class="cls-12" d="M31.3704,69.02l-11.67-4.89c-9.24,17.17-11.48,25.07-18.36,43.18,3.97,6.85,9.85,19.64,16.53,29.52l12.1-11-10.11-20.7Z"/>
        <path class="cls-8" d="M23.1604,94.28c-1.01,2.87-1.16,3.27-3.91,10.39-5.36,13.87-15.23,42.53-19.15,43.31a11.16524,11.16524,0,0,0,.47,1.95,4.6752,4.6752,0,0,0,4.21,3.26c2.55.03,2.67.16,5.57,2.84a3.29623,3.29623,0,0,0,1.59.8c3.06.65,3.38-.42,4.84-.07,5.62,1.35,21.18,20.52,25.95,26.06.36-6.23,1.93-20.89,4.41-36.42-4.89-3.77-19.46-27.28-23.61-35.21C23.6904,106.75,23.8204,97.37,23.1604,94.28Z"/>
        <path class="cls-13" d="M60.06039,4.74l-.16-1.2c.55-.07,1.09-.15,1.63-.22a42.57019,42.57019,0,0,1,14.82-.05l-.22,1.19a41.64555,41.64555,0,0,0-14.44.05C61.1504,4.59,60.6104,4.67,60.06039,4.74Z"/>
        <path class="cls-14" d="M59.6104,3.21l-.06,1.85c-4.2-.13-11.77,1.35-14.64.82-3.07-.56-7.56-1.68-9.43-3.11Z"/>
        <path class="cls-14" d="M62.9304,4.93c.74-1.65-.12-3.31-2.17-3.05a2.18953,2.18953,0,0,0-1.78,2.85,2.0979,2.0979,0,0,0,2.32,1.28A2.1508,2.1508,0,0,0,62.9304,4.93Z"/>
        <path class="cls-14" d="M60.0504,2.78l-.7,1.58a58.255,58.255,0,0,0-14.33.1q-4.785-.81-9.58-1.62l.7-.86,9.71-1.38Z"/>
        <path class="cls-14" d="M62.4604,4.67a1.984,1.984,0,0,0,.05-2.32,1.99739,1.99739,0,0,0-2.24-.6,1.91034,1.91034,0,0,0-1.07,2.51A2.01936,2.01936,0,0,0,62.4604,4.67Z"/>
        <polygon class="cls-15" points="73.27 0 72.4 1.56 97.94 31.3 143 45.13 143.89 43.58 114.57 3.9 73.27 0"/>
        <polygon class="cls-1" points="72.39 1.54 96.66 30.9 143 45.13 113.69 5.45 72.39 1.54"/>
        <path class="cls-15" d="M88.4604,13.02l-8.4,7.71a65.94071,65.94071,0,0,1,18.04,6.13c9.28,4.86,14.51,10.23,19.23,15.29l2.71-9.02C117.1004,20.83,101.0204,12.32,88.4604,13.02Z"/>
        <path class="cls-1" d="M98.34039,26.57c-4.01-2.11-11.46-5.08-16.54-5.78-1.24-.17-2.09.08-2.26,1.16-.42,2.69,5.44,8.17,9.33,10.87a80.3139,80.3139,0,0,0,7.67,4.74,56.49793,56.49793,0,0,0,16.48,6.18c1.96.32,4.76-.53,3.99-1.94C114.1104,36.56,104.2804,29.69,98.34039,26.57Z"/>
        <path d="M59.13039,475.06l-1.56,8.43h-4.12s-.46-1.2-1.17-1.2c-.6,0-1.36,1.2-2.17,1.2h-21.22s-.38-1.77.08-2.39a8.0103,8.0103,0,0,1,2.56-1.13c4.31-1.25,16.64-5.15,18.79-9.39C52.9304,465.43,59.13039,475.06,59.13039,475.06Z"/>
        <path d="M89.87039,475.06l1.56,8.43h4.12s.46-1.2,1.17-1.2c.6,0,1.36,1.2,2.17,1.2h21.22s.38-1.77-.08-2.39a8.01051,8.01051,0,0,0-2.56-1.13c-4.31-1.25-16.64-5.15-18.79-9.39C96.0704,465.43,89.87039,475.06,89.87039,475.06Z"/>
      </g>
    </g>
  </g>
</svg>
