<svg xmlns="http://www.w3.org/2000/svg" viewBox="0 0 146.8267 327.56519">
  <defs>
    <style>
      .cls-1, .cls-3 {
        fill: #ead7b9;
      }

      .cls-1, .cls-2, .cls-7 {
        fill-rule: evenodd;
      }

      .cls-2 {
        fill: #354053;
      }

      .cls-4 {
        fill: #231f20;
      }

      .cls-5 {
        fill: #8b8b8b;
      }

      .cls-6 {
        fill: #181b3b;
      }

      .cls-7 {
        fill: #f7f9fd;
      }
    </style>
  </defs>
  <title>Asset 3</title>
  <g id="Layer_2" data-name="Layer 2">
    <g id="Layer_1-2" data-name="Layer 1">
      <path class="cls-1" d="M84.34352,325.7652q24.105-1.11,24.11-1.1c1.06-.09,1.04-2.19.93-3.55a4.04659,4.04659,0,0,0-1.48-3.05,1.73214,1.73214,0,0,0-2.4.51q-1.71.165-13.11-6.63c-1.24-.71-1.45-1.68-1.26-4.18l3.2-47.41q2.865-5.265.48-18.02,1.17-10.365,2.33-29.34c-10.64-2.16-19.4-4.1-21.47-1.06.57,9.55,1.83,20.82,2.02,25.65.08,4.63.13,6.78-.55,8.74-5.58,10.35-2.23,16.45.29,33.5q3.36,21.33,4.36,27.01a11.6846,11.6846,0,0,1-.29,5.02c-2.01,1.68-2.97,5.42-2.26,8.85.69,3.42993,2.43,5.28991,5.1,5.05993"/>
      <path class="cls-1" d="M36.62352,324.7652c9.35.08,13.73-.23,13.73-.23,1.47-.16,1.36-2.98,1.3-4.81a7.40009,7.40009,0,0,0-1.59-4.6s-.43-3.2-1.3-9.61c0,0,3.14-8.32,8.94-26.39,3.17-10.31,1.87-19.64.96-27.47-.4-2.95-.28-2.94,1.08-9.38,0,0,1.42-6.81,4.7-33.02q-23.925-3.435-23.96-4.05,1.575,29.805,1.58,29.8c.3,4.38.65,5.69-.63,9.56-3.35,9.06-2.48,18.02-2.39,29.98-.14,19.65-.12,30.93-.12,30.93q-1.5,9.21-1.5,9.21c-1.71,2.27-3.4,10.28-.8,10.07995"/>
      <path class="cls-1" d="M136.63353,144.00519q3.825-12.225,3.82-12.22a2.06941,2.06941,0,0,1-1.27-2.3s.06-1.98.17-5.95a2.438,2.438,0,0,0-2.33-2.45,2.48774,2.48774,0,0,0-2.22,2.6s.19,1.75.58,5.26c.07,1.38-1.47,2.36-2.34,1.64a275.43776,275.43776,0,0,0-22.41-17.94,2.11584,2.11584,0,0,1-.93-2.6q1.77-7.29-3.53-17.52a6.88766,6.88766,0,0,1,.43-4.08c1.54-7.04-2.17-15.36-8.59-19.28s-13.49-2.18-16.37,4.05q10.725-3.285,14.16,21.1l-3.59,23.44a22.03481,22.03481,0,0,0,11.21,12.28c15.31,6.89,24.32,10.29,24.32,10.29,1.03.79,1.9,1.49,2.6,2.08a5.99576,5.99576,0,0,0,6.29,1.6"/>
      <path class="cls-2" d="M47.46351,143.37522c18.45,5.93,32.59,8.09,46.58,5.25,3.35,21.52,7.04,68.51,5.18,86.64-1.14,11.16-15.78,9.33-23.47,4.86,0,0-3.38-42.41-4.38-59.35-.23-4.06-.83-2.92-1.03.1,0,0-6.37,49.8-10.3,64.29-3.25,11.99-18.79,10.32-20.48-2.24-4.97-37.09,1.88-79.84,7.9-99.55"/>
      <path class="cls-1" d="M144.60353,131.0752h0a6.16119,6.16119,0,0,1,1.47,7.72l-2.91,5.3a4.4521,4.4521,0,0,1-6.65,1.71h0a6.15,6.15,0,0,1-1.47-7.71l2.91-5.3a4.45152,4.45152,0,0,1,6.65-1.72"/>
      <path class="cls-1" d="M48.48353,149.93522c15.15,6.05,31.65,8.59,43.64,2.28,3.45-2.07,1.89-10.47,1.29-24.06-.56-8.15,9.86-27.38,5.02-48.5-1.78-8.08-5.62-12.99-9.63-14.05-2.44-.58-13.04-3.04-16.55-6.59l-7.17-8.4s1.53-3.92-14.46-3.85c-3.43,7.97-7.04,16.31-7.04,16.31-1.01,1.67-2.94,3.19-6.35,5.68q-7.26,5.07-7.26,5.07c-8.7,6.39-9.16,15.24-.63,28.83q12.96,18.27,13.82,23.67c1.81,13.79,2.68,22.44,5.32,23.61"/>
      <path class="cls-1" d="M79.51353,105.45521c3.25,1.93,15.48,1.61,16.93-4.42,1.4-6.52,1.24-13.8-2.51-27.42-1.16-4.2-4.09-5.94-7.78-6.06-11.44-.21-21,2.94-16.2,12.74,6.59,15.36005,5.2,23.53,9.56,25.16"/>
      <path class="cls-1" d="M52.77351,115.1652l17.16-3.69c2.73-.59,5.38,1.53,5.89,4.7h0c.51,3.17-1.31,6.25-4.05,6.83l-17.16,3.69c-2.73.59-5.38-1.53-5.89-4.7h0c-.5-3.16,1.32-6.24,4.05-6.83"/>
      <path class="cls-1" d="M57.25352,128.43522l13.88-2.99c2.21-.48,4.35,1.23,4.76,3.8h0c.41,2.57-1.06,5.05-3.27,5.53l-13.88,2.99c-2.21.48-4.35-1.23-4.76-3.8h0c-.42-2.56,1.06-5.05,3.27-5.53"/>
      <path class="cls-1" d="M59.72352,139.77521l12.27-2.64a3.69777,3.69777,0,0,1,4.21,3.36,4.20041,4.20041,0,0,1-2.89,4.88l-12.27,2.64a3.69775,3.69775,0,0,1-4.21-3.36,4.20612,4.20612,0,0,1,2.89-4.88"/>
      <path class="cls-1" d="M89.12352,110.3552l-6.55-.03c-2.83-.01-5.14,2.66-5.15,5.94,0,3.28,2.31,5.98,5.13,5.99l6.55.03c2.83.01,5.14-2.66,5.15-5.94.01-3.29-2.3-5.98-5.13-5.99"/>
      <path class="cls-1" d="M88.08354,124.58521l-5.3-.02c-2.29-.01-4.16,2.15-4.16,4.81h0c0,2.65,1.87,4.83,4.15,4.84l5.3.02c2.29.01,4.16-2.15,4.16-4.81h0c.01-2.65-1.86-4.83-4.15-4.84"/>
      <path class="cls-1" d="M87.86354,136.45521l-4.68-.02c-2.02-.01-3.68,1.9-3.68,4.25h0c0,2.35,1.65,4.27,3.67,4.28l4.68.02c2.02.01,3.68-1.9,3.68-4.25h0c0-2.34-1.65-4.27-3.67-4.28"/>
      <path class="cls-1" d="M46.59352,112.48521c4.76,1.63,24.38-1.1,26-7.85,1.5-7.26-1.56-14.49-7.89-28.73-1.96-4.39-6.24-5.86-11.49-5.47-16.26,1.4-25.05,8.04-22.06,16.12,6.92,15.65,11.59,24.76,15.44,25.93"/>
      <path class="cls-1" d="M36.18351,156.43522a7.24947,7.24947,0,0,0,3.02,3.96c-1.9,3.49-3.56,4.9-4.98,4.25,0,0-1.17-.49-3.49-1.47a1.61225,1.61225,0,0,0-1.75,1.1,2.108,2.108,0,0,0,.29,2.28,19.74445,19.74445,0,0,0,3.3,2.68q6.825,4.08,15.28-8.5,1.68-2.475-3.34-9.19s-2.89-4.17-8.68-12.52q-2.82-9.735-9.46-13.39c-.89-.71-.81-1.11.25-1.19q8.4-.45,10.59-11.4c.64-4.74,1.37-4.43,5.65-8.47,5.36-4.97,4.87-14.53,1.63-20.98-3.23-6.46-10.26-9.84-16.31-8.31-6.04,1.54-10.81,7.53-12.04,15.13-.52,2.7-1.16,7.26-5.42,11.26-10.52,8.88-11.16,10.44-10.57,17.89,1.18,5.89,1.92,9.13,3.46,11.13,3.39,4.42,11.23,12.74,32.57,25.74"/>
      <path class="cls-3" d="M44.07353,51.1052l26.24,4.76a7.57507,7.57507,0,0,0,8.81-6.11l1.54-8.5,5.38.98c2.73-8.55-4.26-16.33-4.84-21.01-.89-7.12,4.65-8.58,4.65-8.58l-33.7-6.11Z"/>
      <path class="cls-4" d="M63.11354,32.84521c.63-2.36,2.17-8.35,3.6-10.33a12.51374,12.51374,0,0,1,6.51-4.75,6.37858,6.37858,0,0,1,3.77.08c1.82.62,2.56,1.55,4.68,1.18a10.34,10.34,0,0,0,5.58-3.38,5.92839,5.92839,0,0,0,1.69-3.41,5.17175,5.17175,0,0,0-2.15-4.21c-3.2-2.52-6.22-2.32-9.99-1.78-1.75.25-3.77,0-4.86-1.38a12.829,12.829,0,0,1-.96-1.7,6.66534,6.66534,0,0,0-9-2.26c-2.97,1.87-4.03,3.65-7.6,4.16-2.34.33-5.27.86-7,2.62-2.9,2.93-.46,5.2-.46,8.43,0,1.49-1.34,2.57-2.38,3.65-2.02,2.11-3.84,8.7-3.81,11.62a5.67011,5.67011,0,0,0,1.25,3.83c2.17,2.33,1.35,5.1.83,8.12-.44,2.5-2.81,3.25-3.32,5.45-1.07,4.68,5.94,5.76,8.11,2.31,2.78-4.41,2.23-10.3,3.21-15.22.58-2.89,4.22-5.92,6.86-3.33"/>
      <path class="cls-5" d="M38.18351,306.2252a34.70888,34.70888,0,0,1-7.92,16.74v3.85h23.2l.45-5.37s-3.41-8.6-3.75-12.65C50.15351,308.80521,48.97352,302.93522,38.18351,306.2252Z"/>
      <path d="M53.79353,322.80521s-19.35-1.17-23.53.16v3.85h23.2Z"/>
      <path class="cls-5" d="M80.35353,313.00519c-2.44.52-1.12,9.73-1.12,9.73a3.86156,3.86156,0,0,0,4.01,3.69h36.58v-3.06l-20.29-8.78-8.43-3.63S89.95353,310.95521,80.35353,313.00519Z"/>
      <path class="cls-6" d="M83.25352,324.30518a3.85527,3.85527,0,0,1-4.01-3.69v3.26a3.8616,3.8616,0,0,0,4.01,3.69h36.58v-3.06l-.47-.2Z"/>
      <path class="cls-7" d="M37.25352,68.74522s39.38,50.19,51.56-3.15c0,0,18.44,29.64,8.44,40.92,0,0-2.66,20.35-3.84,21.64l1.9,20.34a4.49886,4.49886,0,0,1-1.92,4.13c-6.44,4.45-26.38,15.25-47.43-3.91,0,0-1.96-25.8-8.77-34.54s16.37-43.56-7.2-40.36"/>
    </g>
  </g>
</svg>
