<svg xmlns="http://www.w3.org/2000/svg" xmlns:xlink="http://www.w3.org/1999/xlink" viewBox="0 0 158.92541 439.76897">
  <defs>
    <style>
      .cls-1 {
        fill: #ead7b9;
      }

      .cls-1, .cls-10, .cls-11, .cls-2, .cls-3, .cls-4, .cls-6, .cls-7, .cls-8, .cls-9 {
        fill-rule: evenodd;
      }

      .cls-2 {
        fill: #354053;
      }

      .cls-3 {
        fill: #d2dcea;
      }

      .cls-4 {
        fill: url(#linear-gradient);
      }

      .cls-5 {
        fill: #b18462;
      }

      .cls-6 {
        fill: #fdfeff;
      }

      .cls-8 {
        fill: #362a33;
      }

      .cls-9 {
        fill: #3b70b7;
      }

      .cls-10 {
        fill: #d3c2a9;
      }

      .cls-11 {
        fill: #8b8b8b;
      }
    </style>
    <linearGradient id="linear-gradient" x1="115.55177" y1="79.73725" x2="121.16347" y2="91.56592" gradientTransform="matrix(1, 0, 0, -1, 0, 342.77793)" gradientUnits="userSpaceOnUse">
      <stop offset="0" stop-color="#f5a56d"/>
      <stop offset="1" stop-color="#f5c377"/>
    </linearGradient>
  </defs>
  <title>Asset 4</title>
  <g id="Layer_2" data-name="Layer 2">
    <g id="Layer_1-2" data-name="Layer 1">
      <path class="cls-1" d="M18.73,240.989l2.51,5.67a30.91413,30.91413,0,0,1,7.17,2.44l5.04,3.34,4.79.73c.14,2.49-1.67,3.25-3.73,3.74L29,254.919l-.71,1.72,1.51,6.38,1.22,8.12-.39,3.73a2.53916,2.53916,0,0,1-2.17.88l-2.93-8.92-.71.15,2.88,11.1-1.84.45-3.03-.61-1.96-3.3-1.79-.18-6.03-9.79-2.8-6.88.15-3.72-2.87-7.62Z"/>
      <g>
        <polygon class="cls-2" points="83.4 264.209 146.97 295.229 140.12 362.669 78.66 319.569 83.4 264.209"/>
        <path class="cls-2" d="M158.62006,359.479c.43-16.59.28-63.84.28-63.84a44.96634,44.96634,0,0,0-13.5,2.06s-4.58,48.69-5.49,64.96C144.03,363.249,157.01,361.119,158.62006,359.479Z"/>
        <polygon class="cls-2" points="83.24 264.169 143.05 298.209 158.9 295.669 95.65 263.049 83.24 264.169"/>
        <path class="cls-2" d="M128.9,261.379l4.36-1.63c5.91,2.41,6.89,12.48,5.17,26.21l-8.36,1.64C133.85,268.169,131.13,266.039,128.9,261.379Z"/>
        <path class="cls-2" d="M111.61005,255.939c.07-.38-.15-.58-3,.9-5.41,2.82-6,7.77-6.63,16.15l7.03-2.29c.27-6.52.48-8.59,2.45-9.6v-1.25C111.51,258.729,111.48,256.599,111.61005,255.939Z"/>
      </g>
      <polygon class="cls-1" points="115.32 236.569 114.68 248.329 111.37 253.739 111.33 265.829 119 268.799 121.21 271.759 126.81 272.279 130.69 265.319 128.96 261.389 133.5 259.589 133.97 256.139 128.92 247.829 128.38 237.739 115.32 236.569"/>
      <polygon class="cls-3" points="130.94 240.159 130.82 244.169 115.37 244.209 115.41 240.079 130.94 240.159"/>
      <path class="cls-4" d="M115.41,267.409l.38-8.94a15.40914,15.40914,0,0,0-.85,4.52A15.5791,15.5791,0,0,0,115.41,267.409Z"/>
      <path class="cls-5" d="M115.15,267.469a15.54513,15.54513,0,0,1-.47-4.5,15.95132,15.95132,0,0,1,.86-4.6l.51.17a15.59161,15.59161,0,0,0-.83,4.45,14.83151,14.83151,0,0,0,.46,4.34Z"/>
      <path class="cls-6" d="M27.74005,99.849s2.26-10.99,6.09-13.39c2.68-1.68,15.85-3.99,20.5-5.81,4.37-1.72,6.33-2.55,12.15-5.1,14.95,3.66,31.2,8.51,38.17,13.44,11.26,64.29,17.41,102.75,11.16,154l-96.49-8.25C17.48,152.489,32.56,153.659,27.74005,99.849Z"/>
      <path class="cls-7" d="M115.85,274.319c.65-18.24,1.49-46.77,1.49-46.77l-39.1,5.06-59.26-8.36-.32,1.87c-.16,2.79,1.19,56.61,1.29,68.12.26,29.82-.17,89.29-1.24,135.34a130.01574,130.01574,0,0,0,16.76,1.55s16.19-70.81,24.83-130.07c0,0,6.86-32.44,11.32-33.6,4.25,39.29,8.8,121.17,9.84,163.13,7.85-.12,18.15-1.39,18.15-1.39S115.96,341.039,115.85,274.319Z"/>
      <path class="cls-7" d="M132.81,240.089l-20.04.83-2.2-105.4,2.96-40.4,2.91-2.03c3.1,5.25,3.87,8.17,5.1,16.42,3.34,22.56,6.22,44.96,7.95,65.44C131.25,195.909,132.04,218.999,132.81,240.089Z"/>
      <polygon class="cls-8" points="0 435.419 0.32 439.769 27.12 437.589 30.7 435.579 32.23 437.589 35.88 437.599 36.31 431.899 35.46 430.219 18.74 428.559 15.63 430.569 0 435.419"/>
      <path class="cls-9" d="M73.14,95.339l8.46,4.47-4.79,11.54-6.83.07-5.18-11.41,8.34-4.67Zm-6.78,113.14,4.74-95.92,4.73-.05,10.58,97.21c-1.87,3.74-6.47,12.65-9.73,17.85C73.43005,222.249,68.37006,213.009,66.36005,208.479Z"/>
      <path class="cls-7" d="M50.41,82.119s2,61.42,1.37,81.8c-1.09,35.21-2.17,90.45-2.17,90.45-5.18.57-18.05-2.22-25.27-2.78a76.03456,76.03456,0,0,1-15.55-2.85c.83-10.74,1.06-26.21,2.26-47.7,1.84-32.96,2.87-40.08,4.09-60.47,1.09-18.26,2.26-48.84,2.26-48.84,5.91-2.94,15.42-5.88,23.48-7.88Z"/>
      <path class="cls-7" d="M91.78,84.349s5.16,48.04,5.85,64.06c.69,15.94.29,102.42.29,102.42,4.03.38,20.27-1.34,24.56-2.81.88-25.26-3.42-103.1-5.95-154.98l-14.74-6.11Z"/>
      <path class="cls-10" d="M88.83,83.589s-7.05,11.37-15.13,11.64c-8.51.29-19.31-14.12-19.31-14.12l.83-20.41,30.82,2.16Z"/>
      <polygon class="cls-6" points="66.77 89.419 73.23 95.369 62.36 101.189 66.77 89.419"/>
      <polygon class="cls-6" points="78.7 89.819 73.05 95.419 83.77 100.829 78.7 89.819"/>
      <path class="cls-7" d="M36.49,89.139l1.23-7.38,10.93-4.6,6.01-1.04-.18,3.31-3.67,2.23-3.82,38.08s-16.44-4.73-16.3-5.19C30.83,114.099,36.49,89.139,36.49,89.139Z"/>
      <path class="cls-6" d="M54.34,80.909l14.4,9.96-9.8,18.16-9.46-6.5c-.98-5.67-1.69-13.85-2.17-21.02l7.18-2.98Z"/>
      <path class="cls-7" d="M104.4,88.599l-1.2-4.83-8.23-4.95-7.03-1.7.71,5.39,2.68-.61,4.18,37.61s13.73-6.69,13.61-7.12C109.01,111.949,104.4,88.599,104.4,88.599Z"/>
      <path class="cls-6" d="M88.68005,82.609l-11.52,8.51,10.62,17.9,8.49-7.53c-.27-7.57-.53-12.97-.73-19.39l-7.21-2.49Z"/>
      <path class="cls-7" d="M25.68005,170.109l2.71-37.88c-.71-13.96-7.59-27.73-8.29-41.69a76.67684,76.67684,0,0,0-8.88,4.11c-2.55,4.64-4.1,12.7-5.07,18.38-4.33,25.19-4.37,124.77,3.58,140.15a40.171,40.171,0,0,0,10.48,2.54Z"/>
      <path class="cls-1" d="M53.6,36.939a6.88368,6.88368,0,0,1-7.71,5.88,6.78919,6.78919,0,0,1-5.98-7.57,6.898,6.898,0,0,1,13.69,1.69Z"/>
      <path class="cls-1" d="M95.96,36.989a6.891,6.891,0,0,1-7.71,5.88,6.80727,6.80727,0,0,1-5.98-7.57,6.891,6.891,0,0,1,7.71-5.88A6.78927,6.78927,0,0,1,95.96,36.989Z"/>
      <path class="cls-1" d="M91.59,45.219c.96,14.99-3.64,18.64-2.99,25.42-3.14,1.03-10.86,4.79-18.66,4.48-7.8-.3-15.68-4.68-19.18-5.3-4.58-7.71-8.38-21.38-4.48-42.51,1.86-10.05,3.2-18.35,7.28-22.79,4.5-4.9,12.08-5.33,21.87-3.58C94.08,4.269,90.22,23.789,91.59,45.219Z"/>
      <path class="cls-7" d="M57.78,40.829c-2.64-.32-6.13-2.42-6.66-5.3l-.43-3.33,1.31-.17.43,3.3c.47,2.53,4.27,4.44,6.32,4.24l5.93-.73a5.50564,5.50564,0,0,0,4.61-5.54l-1.16-6.15,1.29-.24,1.17,6.28a6.803,6.803,0,0,1-5.77,6.94l-5.93.73A5.22093,5.22093,0,0,1,57.78,40.829Z"/>
      <path class="cls-7" d="M50.44,32.649h0a1.08177,1.08177,0,0,0,1.38-.18l2.54-2.77a1.04083,1.04083,0,0,1,.7-.34l13.51-1.2a1.05591,1.05591,0,0,0,.94-1.3l-.15-.57a1.05522,1.05522,0,0,0-1.1-.79l-14.78.79a1.06734,1.06734,0,0,0-.88.54l-2.52,4.43A1.06022,1.06022,0,0,0,50.44,32.649Z"/>
      <path class="cls-11" d="M47.41,19.639l2.42-2.96s-3.61,24.17-.99,27.41c2.61,3.25,26.46,17.29,40.28,1.85,1.71-6.73,1.16-19.37,1.16-19.37l2.05,1.23s4.77,17.05,3.77,29.09c-.73,8.73-3.96,15.35-5.18,16.28-5.87,4.47-15.81,9.75-20.49,8.3-6.49-2-18.07-3.95-21.87-8.35-4.64-5.37-5.78-23.7-5.73-27.59C42.87006,41.619,47.41,19.639,47.41,19.639Z"/>
      <path class="cls-7" d="M85.95,39.969l-3.7-.46c-1.53-.19-6.2-.77-6.64-4.81l-.54-6.93,1.31-.1.54,6.9c.23,2.04,1.98,3.21,5.51,3.65l3.54.44c2.76-.37,3.93-1.83,3.79-4.74v-.11l.48-3.73,1.3.16-.47,3.68c.15,3.57-1.53,5.6-5.02,6.03Z"/>
      <polygon class="cls-7" points="92.02 31.619 90.22 32.349 87.98 29.819 74.95 28.199 74.85 26.059 91.33 26.649 92.02 31.619"/>
      <polygon class="cls-7" points="51.28 29.179 44.52 30.289 43.98 31.849 51.61 31.809 51.28 29.179"/>
      <polygon class="cls-7" points="75.92 30.599 69.48 30.529 69.31 28.639 75.86 28.479 75.92 30.599"/>
      <polygon class="cls-8" points="117.34 435.419 117.01 439.769 90.22 437.589 86.64 435.579 85.11 437.589 81.46 437.599 81.03 431.899 81.88 430.219 98.6 428.559 101.7 430.569 117.34 435.419"/>
    </g>
  </g>
</svg>
