<svg xmlns="http://www.w3.org/2000/svg" viewBox="0 0 224.76001 267.3222">
  <defs>
    <style>
      .cls-1 {
        fill: #231f20;
      }

      .cls-2, .cls-8 {
        fill: none;
        stroke-miterlimit: 10;
      }

      .cls-2 {
        stroke: #231f20;
        stroke-width: 5px;
      }

      .cls-3 {
        fill: #ead7b9;
      }

      .cls-4 {
        fill: #5bc0ee;
      }

      .cls-5 {
        fill: #4e5068;
      }

      .cls-6 {
        fill: #354053;
      }

      .cls-7 {
        fill: #8b8b8b;
      }

      .cls-8 {
        stroke: #181b3b;
      }

      .cls-9 {
        fill: #d3c2a9;
      }
    </style>
  </defs>
  <title>Asset 2</title>
  <g id="Layer_2" data-name="Layer 2">
    <g id="Layer_1-2" data-name="Layer 1">
      <rect class="cls-1" x="208.43001" y="21.34222" width="7.7" height="59.92999"/>
      <rect class="cls-1" x="8.22" y="21.71221" width="7.7" height="59.92999"/>
      <line class="cls-2" y1="50.25219" x2="224.76001" y2="50.25219"/>
      <rect class="cls-3" x="41.79" y="222.25219" width="16.31" height="21.25"/>
      <rect class="cls-3" x="174.36" y="222.25219" width="16.31" height="21.25"/>
      <polygon class="cls-4" points="103.69 48.292 80.25 54.342 75.52 103.072 72.73 166.872 153.47 168.572 148.97 105.072 144.92 54.682 129.67 48.292 103.69 48.292"/>
      <path class="cls-5" d="M57.33,172.77221l13.45,12.06a21.31342,21.31342,0,0,0,14.21,5.44h51.74a21.31395,21.31395,0,0,0,13.15-4.54l20.45-16.04-2.53-35.57-43.5,18.41H95.07l-37.74-20.49-4.14,12.88Z"/>
      <path class="cls-6" d="M57.33,172.77221l13.45,12.06a21.31342,21.31342,0,0,0,14.21,5.44h51.74a21.31395,21.31395,0,0,0,13.15-4.54l20.45-16.04-2.53-35.57-43.5,18.41H95.07l-37.74-20.49-4.14,12.88Z"/>
      <path class="cls-7" d="M41.68,239.22219a47.33384,47.33384,0,0,1-10.82,22.85v5.25H62.52l.61-7.32s-4.66-11.74-5.12-17.26C58.02,242.7322,56.41,234.71221,41.68,239.22219Z"/>
      <path d="M62.99,261.84222s-26.41-1.59-32.12.22v5.25H62.53Z"/>
      <line class="cls-8" x1="41.79" y1="245.91219" x2="50.66" y2="245.91219"/>
      <line class="cls-8" x1="41.03" y1="249.18221" x2="49.89" y2="249.18221"/>
      <line class="cls-8" x1="39.3" y1="253.34222" x2="48.16" y2="253.34222"/>
      <path class="cls-7" d="M190.41,239.22219a47.33392,47.33392,0,0,0,10.82,22.85v5.25H169.57l-.61-7.32s4.66-11.74,5.12-17.26C174.07,242.7322,175.68,234.71221,190.41,239.22219Z"/>
      <path d="M169.11,261.84222s26.41-1.59,32.12.22v5.25H169.57Z"/>
      <line class="cls-8" x1="190.3" y1="245.91219" x2="181.44" y2="245.91219"/>
      <line class="cls-8" x1="191.07" y1="249.18221" x2="182.21" y2="249.18221"/>
      <line class="cls-8" x1="192.79001" y1="253.34222" x2="183.93001" y2="253.34222"/>
      <path class="cls-6" d="M41.91,237.21221H59.63s4.4-71.53,2.36-99.98a5.7337,5.7337,0,0,0-5.73-5.31H49.94c-11.56,0-19.6,9.59-20.41,21.12C27.41,182.8922,41.91,237.21221,41.91,237.21221Z"/>
      <path class="cls-6" d="M190.55,239.22219H172.83s-10.18-72.65-8.69-100.63a4.9176,4.9176,0,0,1,4.91-4.66h7.03a20.40539,20.40539,0,0,1,20.41,21.12C195.5,183.37221,190.55,239.22219,190.55,239.22219Z"/>
      <path class="cls-3" d="M131.8,80.0422l59.28,36.58a5.07151,5.07151,0,0,0,7.56-3.33l8.99-45.62,4.7-7.82-.67-9.35-2.44-8.85-7.04-2.39a1.65306,1.65306,0,0,0-2.14,1.19l-1.92,8.31-3.81,4.79.54-2.32,1.1-2.78a2.9614,2.9614,0,0,0-2.09-3.98h0l-4.37,4.89-1.52,5.56,5.08,8.36-6.2,29.01-47.38-30.84Z"/>
      <path class="cls-4" d="M131.13,91.63219l-4.91-43.35,24.74,4.6c6.05,1.13,10.93,4.35,13.02,8.6l16.74,24.56-22.88,2.71Z"/>
      <path class="cls-9" d="M113.52,74.34222h0a11.54859,11.54859,0,0,1-11.55-11.55v-20.03h23.09v20.03A11.53365,11.53365,0,0,1,113.52,74.34222Z"/>
      <path d="M133.78,23.21221c-.47,5.88-.72,12.78-6.47,16.11a4.54633,4.54633,0,0,1-1.42.59,4.92,4.92,0,0,1-1.27.05,12.62519,12.62519,0,0,1-4.96-1.4,6.42618,6.42618,0,0,0-1.66-.72c-1.93-.38-3.49,1.42-5.11,2.53-3.06,2.08-7.16,1.79-10.73.83-2.04-.55-4.34-1.65-4.66-3.73-.16-1.05.23-2.19-.19-3.17a5.43124,5.43124,0,0,0-1.77-1.8c-1.52-1.22-1.4-3.61-1.45-5.43-.03-1.46-.07-2.93-.1-4.39a12.14607,12.14607,0,0,0-.18-2.17c-.17-.86-.53-1.69-.62-2.56-.11-1.07.44-1.41.79-2.26.29-.72.16-1.54.57-2.27a27.24566,27.24566,0,0,1,1.79-2.37c.77-1.06,1.28-2.29,2-3.38a5.01106,5.01106,0,0,1,3.03-2.34c.48-.09.98-.07,1.47-.16,1.45-.27,2.51-1.47,3.64-2.43a13.09114,13.09114,0,0,1,3.7-2.2,6.49152,6.49152,0,0,1,2.97-.52c1.35.13,2.6.89,3.95.83.64-.03,1.27-.24,1.91-.27,1.56-.07,2.98.94,4.54,1.08,3.99.35,8.52,4.01,8.34,8.19a3.875,3.875,0,0,0,.1,1.52c.27.73,1.02,1.17,1.41,1.84.91,1.56-.39,3.52-.12,5.31.08.52.29,1.02.42,1.53A10.12688,10.12688,0,0,1,133.78,23.21221Z"/>
      <path class="cls-3" d="M103.02,43.22219a5.29612,5.29612,0,0,1-5.84-4.04s-3.54-9.54,0-10c0,0,7.45,4.87,7.45,7.04S103.02,43.22219,103.02,43.22219Z"/>
      <path class="cls-3" d="M126.68,43.22219a5.30027,5.30027,0,0,0,5.84-4.04s3.54-9.54,0-10c0,0-7.45,4.87-7.45,7.04S126.68,43.22219,126.68,43.22219Z"/>
      <path class="cls-3" d="M121.74,59.52221l-.41.24a14.11008,14.11008,0,0,1-7.01,1.86h0a14.12132,14.12132,0,0,1-7.3-2.03h0a17.11363,17.11363,0,0,1-8.27-14.65v-28.18h31.6v27.91A17.0886,17.0886,0,0,1,121.74,59.52221Z"/>
      <path d="M95.34,28.80221c1.04-.1,2.64-.06,3.52-.62a2.59908,2.59908,0,0,0,1.18-2.12,1.00367,1.00367,0,0,1,.15-.71c.21-.23.58-.15.89-.12a2.6587,2.6587,0,0,0,2.34-.97,2.61261,2.61261,0,0,0,.39-2.5,1.50832,1.50832,0,0,0,1.66-.42c1.02-1.07.37-3.1,1.42-4.05,1.68-1.52,2.88,1.31,4.25,2.15a3.6515,3.6515,0,0,0,4.18-.35,2.47174,2.47174,0,0,0,1.59,3.24,4.58453,4.58453,0,0,0,3.88-.8c.11.24.21.49.31.73,5.1,3.53,12.68,5.55,13.89-2.79.3-2.07-.76-6.97-2-8.72a7.75217,7.75217,0,0,0-2.66-2.15c-10.13-5.65-24.01-3.41-31.85,5.14a14.0154,14.0154,0,0,0-2.69,3.96c-1.45,3.43-.8,7.35.03,10.98"/>
      <path class="cls-3" d="M92.99,81.52221l-59.29,36.58a5.07152,5.07152,0,0,1-7.56-3.33l-8.99-45.62-4.7-7.82.67-9.35,2.44-8.85,7.04-2.39a1.65306,1.65306,0,0,1,2.14,1.19l1.92,8.31,3.81,4.79-.54-2.32-1.1-2.78a2.96139,2.96139,0,0,1,2.09-3.98h0l4.37,4.89,1.52,5.56-5.08,8.36,6.2,29.01,47.38-30.84Z"/>
      <path class="cls-4" d="M93.66,93.11221l4.91-43.35-24.74,4.6c-6.05,1.13-10.93,4.35-13.02,8.6l-16.74,24.56,22.88,2.71Z"/>
    </g>
  </g>
</svg>
