<svg xmlns="http://www.w3.org/2000/svg" viewBox="0 0 318.76007 696.8456">
  <defs>
    <style>
      .cls-1 {
        fill: #cc2628;
      }

      .cls-2 {
        fill: #d71f29;
      }

      .cls-3 {
        fill: #f2eed1;
      }

      .cls-4 {
        fill: #3b70b7;
      }

      .cls-5 {
        fill: #e1deb4;
      }

      .cls-6 {
        fill: #8b8b8b;
      }

      .cls-7 {
        fill: #010101;
        opacity: 0.2;
      }

      .cls-10, .cls-7 {
        isolation: isolate;
      }

      .cls-8 {
        fill: #c6c29c;
      }

      .cls-9 {
        fill: #f7f9fd;
      }

      .cls-10 {
        fill: #fff;
        opacity: 0.3;
      }

      .cls-11 {
        fill: #6f6a67;
        stroke: #121313;
        stroke-linecap: round;
        stroke-linejoin: round;
        stroke-width: 0.5px;
      }
    </style>
  </defs>
  <title>Asset 2</title>
  <g id="Layer_2" data-name="Layer 2">
    <g id="Layer_1-2" data-name="Layer 1">
      <g>
        <rect class="cls-1" x="17.00697" y="198.74057" width="234.48719" height="53.86936" transform="translate(-94.58173 354.47087) rotate(-88.62475)"/>
        <rect class="cls-2" x="70.87992" y="200.03696" width="234.48719" height="53.86935" transform="translate(-43.29776 409.59358) rotate(-88.62475)"/>
        <path class="cls-3" d="M178.51007,184.37555l-.33,13.77-23.56005-.57.32995-13.77,1.13-47.02C169.1,137.10555,179.14008,158.40555,178.51007,184.37555Z"/>
        <polygon class="cls-4" points="318.76 646.626 240.92 409.236 74.69 405.256 0 600.846 54.62 658.156 300.47 664.056 318.76 646.626"/>
        <path class="cls-1" d="M110.92,107.81555l53.05005,1.27,2.62-109.08C142.31-.57444,120.56,44.30555,110.92,107.81555Z"/>
        <path class="cls-3" d="M84.26007,125.96555l-.21,8.75,16.93.41.21-8.75.72-29.87C92.56,96.28555,84.66,109.47555,84.26007,125.96555Z"/>
        <path class="cls-3" d="M118.12006,126.77555l-.21,8.75-16.93006-.41.21-8.75.72-29.87C111.26007,96.73555,118.52008,110.28555,118.12006,126.77555Z"/>
        <rect class="cls-5" x="-74.84525" y="289.89074" width="343.46593" height="33.86959" transform="translate(-212.17478 396.32145) rotate(-88.62475)"/>
        <rect class="cls-6" x="97.27215" y="154.82005" width="5.70989" height="33.86959" transform="translate(-73.98135 267.73094) rotate(-88.62475)"/>
        <rect class="cls-6" x="96.45954" y="188.5878" width="5.70989" height="33.86959" transform="translate(-108.53249 299.87588) rotate(-88.62475)"/>
        <rect class="cls-6" x="98.0789" y="121.0529" width="5.70989" height="33.86959" transform="translate(-39.43654 235.58073) rotate(-88.62475)"/>
        <rect class="cls-6" x="95.64243" y="222.35483" width="5.70989" height="33.8696" transform="translate(-143.08729 332.01561) rotate(-88.62475)"/>
        <rect class="cls-6" x="94.83525" y="256.12222" width="5.70989" height="33.8696" transform="translate(-177.63276 364.16563) rotate(-88.62475)"/>
        <rect class="cls-6" x="94.02789" y="289.88974" width="5.70989" height="33.86959" transform="translate(-212.17853 396.31558) rotate(-88.62475)"/>
        <rect class="cls-6" x="93.21071" y="323.65689" width="5.70989" height="33.86959" transform="translate(-246.73353 428.45536) rotate(-88.62475)"/>
        <rect class="cls-7" x="90.77901" y="424.95894" width="5.70989" height="33.86959" transform="translate(-350.37973 524.89515) rotate(-88.62475)"/>
        <rect class="cls-7" x="89.97634" y="458.72828" width="5.70989" height="33.86959" transform="translate(-384.92276 557.05157) rotate(-88.62475)"/>
        <path class="cls-3" d="M145.00006,247.22555l.33-13.77,1.13-47.02c-13.01-.31-24.06006,20.49-24.68,46.46-2.71,112.88-67.33,119.51-78.04,143.15a172.80674,172.80674,0,0,0-8.39,23.06l90.16,33.98,23.68-14.78Z"/>
        <path class="cls-4" d="M35.34,399.10555l90.16,33.98,23.68005-14.78-.73-29.73-108.82-2.61C37.02,393.07555,35.34,399.10555,35.34,399.10555Z"/>
        <path class="cls-3" d="M138.88007,172.47555l-.33,13.77,23.55005.56.33-13.77,1.13-47.02C150.55,125.71555,139.50006,146.51555,138.88007,172.47555Z"/>
        <path class="cls-3" d="M119.52008,428.91555l-.3,12.51,36.75.88.3-12.51,1.02-42.72C140.25006,386.67556,120.09,405.32555,119.52008,428.91555Z"/>
        <path class="cls-2" d="M127.77008,474.17556c-.14,5.69,5.9,10.45,13.47,10.64,7.58.18,13.83-4.29,13.97-9.98Z"/>
        <rect class="cls-5" x="42.07404" y="280.47947" width="211.46751" height="23.55972" transform="translate(-147.91478 433.01023) rotate(-88.62475)"/>
        <rect class="cls-5" x="135.28855" y="425.78314" width="4.54999" height="36.75957" transform="translate(-309.77301 571.02681) rotate(-88.62475)"/>
        <rect class="cls-3" x="127.84139" y="446.82712" width="27.98966" height="27.42967" transform="translate(-321.97718 591.28418) rotate(-88.62475)"/>
        <path class="cls-5" d="M140.82,155.89555l22.01.53.73-30.39C153.49005,125.78555,144.61005,138.22555,140.82,155.89555Z"/>
        <rect x="146.401" y="168.16688" width="8.58986" height="7.39991" transform="translate(-24.73814 318.3945) rotate(-88.62475)"/>
        <path class="cls-4" d="M84.39008,387.03556l-44.75-1.07c-2.62,7.11-4.3,13.13-4.3,13.13l48.32,18.21Z"/>
        <polygon class="cls-4" points="65.32 501.846 92.17 502.496 92.75 478.496 75.82 478.086 65.32 501.846"/>
        <rect class="cls-3" x="76.03033" y="501.35532" width="15.02985" height="16.9398" transform="translate(-428.13823 581.11046) rotate(-88.62475)"/>
        <polygon class="cls-4" points="119.03 503.136 92.17 502.496 92.75 478.496 109.68 478.906 119.03 503.136"/>
        <rect class="cls-5" x="92.97452" y="501.76551" width="15.02985" height="16.9398" transform="translate(-412.01077 598.4501) rotate(-88.62475)"/>
        <path class="cls-2" d="M217.03,110.36555l-53.05-1.27,2.62-109.08C190.87006.59555,210.44,46.46556,217.03,110.36555Z"/>
        <path class="cls-3" d="M242.79,129.76555l-.21,8.75-16.93006-.41.21-8.75.72-29.87C235.92,99.72555,243.18,113.27555,242.79,129.76555Z"/>
        <path class="cls-3" d="M208.93,128.95555l-.21,8.75,16.93006.41.21-8.75.72-29.87C217.22,99.27555,209.32,112.46555,208.93,128.95555Z"/>
        <rect class="cls-5" x="49.81856" y="292.8843" width="343.46593" height="33.86959" transform="translate(-93.49563 523.87106) rotate(-88.62475)"/>
        <rect class="cls-6" x="221.93602" y="157.81385" width="5.70989" height="33.8696" transform="translate(44.69761 395.28084) rotate(-88.62475)"/>
        <rect class="cls-6" x="221.12896" y="191.58185" width="5.70989" height="33.86959" transform="translate(10.15165 427.43158) rotate(-88.62475)"/>
        <rect class="cls-6" x="222.74356" y="124.04658" width="5.70989" height="33.86959" transform="translate(79.24331 363.13131) rotate(-88.62475)"/>
        <rect class="cls-6" x="220.30568" y="225.34851" width="5.70989" height="33.86959" transform="translate(-24.40881 459.56478) rotate(-88.62475)"/>
        <rect class="cls-6" x="219.504" y="259.11651" width="5.70989" height="33.86959" transform="translate(-58.94953 491.72089) rotate(-88.62475)"/>
        <rect class="cls-6" x="218.69658" y="292.88439" width="5.70989" height="33.86959" transform="translate(-93.49572 523.87114) rotate(-88.62475)"/>
        <rect class="cls-6" x="217.87946" y="326.65154" width="5.70989" height="33.86959" transform="translate(-128.05065 556.01099) rotate(-88.62475)"/>
        <rect class="cls-7" x="215.44775" y="427.95421" width="5.70989" height="33.86959" transform="translate(-231.69748 652.45135) rotate(-88.62475)"/>
        <rect class="cls-7" x="214.64013" y="461.72196" width="5.70989" height="33.86959" transform="translate(-266.24375 684.60129) rotate(-88.62475)"/>
        <path class="cls-3" d="M176.31,247.98555l.32995-13.77,1.13-47.02c13.01.31,23.05005,21.62,22.43,47.59-2.71,112.88,61.52,122.6,71.09,146.73a172.756,172.756,0,0,1,7.27,23.43l-91.68994,29.62-22.93995-15.89Z"/>
        <path class="cls-4" d="M278.55,404.93555l-91.68994,29.62-22.94-15.89,2.15-29.66,108.82,2.61C277.17,398.83556,278.55,404.93555,278.55,404.93555Z"/>
        <path class="cls-3" d="M186.00006,173.60555l-.33,13.77-23.56-.57.32995-13.77,1.13-47.02C176.59,126.33555,186.63007,147.64555,186.00006,173.60555Z"/>
        <path class="cls-5" d="M193.04,430.68556l-.30005,12.51-36.75-.88.30005-12.51,1.02-42.72C174.36005,387.49555,193.61005,407.08556,193.04,430.68556Z"/>
        <path class="cls-2" d="M182.64008,475.49556c-.14,5.69-6.39,10.16-13.97,9.98s-13.61-4.94-13.47-10.64Z"/>
        <rect class="cls-5" x="65.65066" y="281.03608" width="211.46744" height="23.55972" transform="translate(-125.46048 457.12329) rotate(-88.62475)"/>
        <rect class="cls-8" x="172.05516" y="426.66356" width="4.54999" height="36.75957" transform="translate(-274.76897 608.64212) rotate(-88.62475)"/>
        <rect class="cls-5" x="155.28579" y="447.47717" width="27.98966" height="27.42967" transform="translate(-295.84132 619.35512) rotate(-88.62475)"/>
        <path class="cls-5" d="M184.86005,156.94555l-22.01-.53.73-30.39C173.65009,126.26555,181.92,139.11555,184.86005,156.94555Z"/>
        <rect x="169.97669" y="168.73328" width="8.58986" height="7.39991" transform="translate(-2.29451 342.51622) rotate(-88.62475)"/>
        <path class="cls-4" d="M230.15009,390.53556l44.75,1.07c2.27,7.22,3.66,13.33,3.66,13.33l-49.13,15.87Z"/>
        <polygon class="cls-4" points="243.69 506.126 216.83 505.486 217.41 481.486 234.34 481.896 243.69 506.126"/>
        <rect class="cls-5" x="217.62867" y="504.75577" width="15.02985" height="16.9398" transform="translate(-293.33775 725.98684) rotate(-88.62475)"/>
        <polygon class="cls-4" points="189.98 504.836 216.83 505.486 217.41 481.486 200.48 481.076 189.98 504.836"/>
        <rect class="cls-3" x="200.69418" y="504.34912" width="15.02985" height="16.9398" transform="translate(-309.45928 708.66035) rotate(-88.62475)"/>
        <rect x="158.18677" y="168.44776" width="8.58986" height="7.39991" transform="translate(-13.51604 330.45101) rotate(-88.62475)"/>
        <path class="cls-9" d="M152.17,62.14556a13.44381,13.44381,0,1,1-13.12-13.76A13.44719,13.44719,0,0,1,152.17,62.14556Z"/>
        <path class="cls-9" d="M161.32,27.81555a8.74251,8.74251,0,1,1-8.53-8.95A8.7385,8.7385,0,0,1,161.32,27.81555Z"/>
        <polygon class="cls-10" points="262.94 115.656 269.41 113.926 267.37 120.306 269.1 126.786 262.72 124.746 256.25 126.476 258.28 120.096 256.55 113.616 262.94 115.656"/>
        <rect class="cls-5" x="53.665" y="281.04057" width="211.46751" height="23.55972" transform="translate(-137.16295 445.14549) rotate(-88.62475)"/>
      </g>
      <circle class="cls-11" cx="143.29999" cy="690.56557" r="6.03003"/>
    </g>
  </g>
</svg>
