<svg xmlns="http://www.w3.org/2000/svg" viewBox="0 0 459.01374 350.00714">
  <defs>
    <style>
      .cls-1, .cls-5 {
        fill: #d2d2d2;
      }

      .cls-2 {
        fill: #353635;
      }

      .cls-3 {
        fill: none;
      }

      .cls-4 {
        fill: #4e4d4d;
      }

      .cls-5, .cls-6 {
        opacity: 0.3;
      }

      .cls-5 {
        isolation: isolate;
      }

      .cls-7 {
        fill: #777;
      }

      .cls-8 {
        fill: #5bc0ee;
      }

      .cls-9 {
        fill: #fff;
      }

      .cls-10 {
        fill: #ef9622;
      }

      .cls-11 {
        fill: #ed4847;
      }

      .cls-12 {
        fill: #354053;
      }

      .cls-13 {
        fill: #f8ec22;
      }

      .cls-14, .cls-15 {
        fill: #8b8b8b;
      }

      .cls-14 {
        fill-rule: evenodd;
      }
    </style>
  </defs>
  <title>Asset 3</title>
  <g id="Layer_2" data-name="Layer 2">
    <g id="Layer_1-2" data-name="Layer 1">
      <path class="cls-1" d="M442.96378,298.99717a29.9,29.9,0,1,1-29.9-29.9A29.89784,29.89784,0,0,1,442.96378,298.99717Z"/>
      <path class="cls-2" d="M421.60377,253.71715c-13.15.61-24.81,2.58-36.23,8.85a45.64,45.64,0,1,0,36.23-8.85Zm-8.24,73.12a27.84,27.84,0,1,1,27.84-27.84A27.84078,27.84078,0,0,1,413.36378,326.83716Z"/>
      <g>
        <line class="cls-3" x1="78.80377" y1="293.84716" x2="104.29377" y2="190.12717"/>
        <path class="cls-4" d="M89.09377,296.68715q12.75-51.855,25.49-103.72c3.29-13.37-17.3-19.04-20.58-5.67q-12.75,51.855-25.49,103.72c-3.28,13.36,17.3,19.03,20.58,5.67Z"/>
      </g>
      <g>
        <g>
          <path class="cls-2" d="M107.96377,285.41716a44.01136,44.01136,0,0,1-10.94,10.14,1.92117,1.92117,0,0,0,.03-.22c.01-.4-.01-.79-.01-1.19v-.07c.02-15.63-9.61-29.87-21.62-39-5.71-4.35-11.25,5.33-5.62,9.61a43.91648,43.91648,0,0,1,10.08,10.85c-.45.01-.9.01-1.35.03h-.04a18.69033,18.69033,0,0,0-3.99.44c-13.21,2.08-25,10.72-32.94,21.15-4.35,5.72,5.33,11.25,9.61,5.62a44.045,44.045,0,0,1,8.77-8.63,18.25389,18.25389,0,0,0,.28,3.07c1.32,14.2,10.38,26.96,21.46,35.38,5.72,4.35,11.25-5.33,5.62-9.61a44.216,44.216,0,0,1-9.74-10.33h.58c.12,0,.24.02.36.02.15,0,.29-.02.44-.02,15.49-.13,29.58-9.7,38.64-21.62C121.92378,285.31716,112.24377,279.77716,107.96377,285.41716Z"/>
          <path class="cls-5" d="M86.97376,293.84716a8.17,8.17,0,1,1-8.17-8.17A8.17277,8.17277,0,0,1,86.97376,293.84716Z"/>
        </g>
        <path class="cls-2" d="M79.57377,235.64716a57.18,57.18,0,1,0,57.18,57.18A57.17955,57.17955,0,0,0,79.57377,235.64716Zm0,88.1a30.92,30.92,0,1,1,30.92-30.92A30.92211,30.92211,0,0,1,79.57377,323.74717Z"/>
      </g>
      <g class="cls-6">
        <path class="cls-1" d="M117.30377,292.82715a38.27329,38.27329,0,0,1-37.73,37.74c-20.95.51-37.24-17.56-37.74-37.74-.51-20.95,17.56-37.24,37.74-37.73,20.94-.52,37.24,17.56,37.73,37.73.06,2.29,3.61,2.29,3.56,0a41.89877,41.89877,0,0,0-41.29-41.29c-22.9-.56-40.75,19.23-41.29,41.29-.56,22.9,19.24,40.75,41.29,41.29,22.9.56,40.75-19.24,41.29-41.29C120.91377,290.53716,117.36378,290.53716,117.30377,292.82715Z"/>
      </g>
      <path class="cls-4" d="M122.38377,309.55716c25.39,7.19,55.73.78,66.57-25.9,1.73-4.25-5.16-6.08-6.86-1.89.6-1.47-.19.36-.38.73-.59,1.18-1.26,2.32-1.95,3.45a44.80041,44.80041,0,0,1-9.25,10.51c-12.95,11.03-30.76,10.63-46.24,6.25-4.42-1.27-6.3,5.6-1.89,6.85Z"/>
      <g>
        <path class="cls-4" d="M34.33377,289.49717a9.01555,9.01555,0,0,0,7.3,10.45l31.56,5.59a9.01557,9.01557,0,0,0,10.45-7.3l1.69-9.53a9.01556,9.01556,0,0,0-7.3-10.45l-31.56-5.59a9.01557,9.01557,0,0,0-10.45,7.3Z"/>
        <path class="cls-4" d="M30.77377,289.49717c-1.25,16.65,22.46,16.1,33.7,18.09,6.01,1.06,11.57,2.74,17.25-.47,5.89-3.33,6-11.65,7.03-17.47,3.02-17.07-21.48-16.89-32.33-18.81-5.03-.89-12.19-3.31-16.99-.6-7.05,3.99-7.26,11.14-8.54,18.32-.79,4.48,6.06,6.4,6.86,1.89.67-3.79.66-9.5,3.17-12.66,2.59-3.26,9.16-.89,12.36-.32q8.01,1.425,16.01,2.83c4.42.79,11.86.73,12.6,6.57.42,3.34-1.04,10.84-3.18,13.53-2.72,3.42-10.29.69-13.61.1q-7.98-1.41-15.95-2.82c-5.12-.91-11.82-.95-11.27-8.18C38.23377,284.91716,31.12377,284.95716,30.77377,289.49717Z"/>
      </g>
      <g>
        <path class="cls-1" d="M122.06377,308.26715a17.0778,17.0778,0,0,1-19.79,13.84l-44.32-7.85a17.083,17.083,0,0,1-13.84-19.79l2.66-15.04a17.07263,17.07263,0,0,1,19.79-13.84l44.32,7.85a17.083,17.083,0,0,1,13.84,19.79Z"/>
        <path class="cls-7" d="M118.63377,307.31716c-2.84,11.99-12.77,11.82-22.34,10.12q-12.945-2.295-25.91-4.58c-6.84-1.21-14.67-1.45-19.78-6.68-6.14-6.29-1.72-18.34-.4-25.81,2.15-12.15,13.11-11.76,22.34-10.13q12.945,2.295,25.91,4.59c6.84,1.21,14.67,1.45,19.78,6.68,6.14,6.29,1.72,18.35.4,25.81-.79,4.48,6.06,6.4,6.86,1.89,1.49-8.4,5.19-19.09,1.28-27.26-4.7-9.82-13.32-11.66-22.93-13.36q-15.675-2.775-31.36-5.55c-9.49-1.68-19.8-1.69-25.76,7.5-4.7,7.25-6.38,19.26-6.4,27.86-.03,11.5,9.89,18.08,19.97,19.87q15.375,2.715,30.76,5.44c9,1.59,17.38,3.86,25.78-1.36,4.67-2.9,7.43-7.95,8.66-13.14C126.55377,304.74717,119.69376,302.85715,118.63377,307.31716Z"/>
      </g>
      <path class="cls-4" d="M33.91377,278.50716c1.31.23,2.63.46,3.94.7q-1.245-2.19-2.48-4.38-1.425,8.025-2.84,16.06l4.38-2.49c-1.31-.23-2.63-.46-3.94-.7-4.49-.79-6.4,6.06-1.89,6.86,1.31.23,2.63.46,3.94.7,1.76.31,4.02-.45,4.38-2.48q1.425-8.025,2.84-16.06c.31-1.76-.45-4.02-2.48-4.38-1.31-.23-2.63-.46-3.94-.7-4.51-.79-6.42,6.07-1.91,6.87Z"/>
      <path class="cls-2" d="M122.91377,270.90715a28.08,28.08,0,1,0,28.08-28.08A28.07765,28.07765,0,0,0,122.91377,270.90715Z"/>
      <path class="cls-2" d="M100.30377,233.98716a28.08,28.08,0,1,0,28.08-28.08A28.07764,28.07764,0,0,0,100.30377,233.98716Z"/>
      <path class="cls-8" d="M368.62376,219.00714a196.71628,196.71628,0,0,1-51.22-6.78c-2.56,12.31-8.57,24.53-18.04,28.87-4.36,2-7.04,2.8-18.97,2.79-6.93,0-14.05-.01-21.71-.01v4.49c-10.3,0-20.64-.01-28.98-.01-15.02,0-31.91-23.2-31.91-43.46,0-21.68,10.8-35.3,6-38.87-36.17-26.89-150.42-14.82-150.42-14.82l-14.58,7.67v25.16l7.87,13.04-6.53,9.4-36.51,48.08,16.84-1.66,21.37-23.99,7.62-2.44,16.17-12.1c51.49,17.93,81.36,35.35,106.77,52.74,0,13.47,6.12,34.13,11.65,34.14,0,0,137.3-4.41,143.24-4.41,23.24,0,28.61-14.29,52.02-56.92,5.79-10.55,10.45-17.46,13.78-22.44A200.29437,200.29437,0,0,1,368.62376,219.00714Z"/>
      <g>
        <path class="cls-9" d="M363.75376,141.06717v69.14a34.57,34.57,0,1,0,0-69.14Z"/>
        <path class="cls-4" d="M360.19376,141.06717v69.14a3.58742,3.58742,0,0,0,3.56,3.56,38.733,38.733,0,0,0,38.13-38.13c.59-21.18-17.83-37.56-38.13-38.13-4.59-.13-4.58,6.99,0,7.11a31.46649,31.46649,0,0,1,31.01,31.02c.48,17.26-14.48,30.55-31.01,31.01,1.19,1.18,2.37,2.37,3.56,3.56v-69.14C367.31376,136.47715,360.19376,136.47715,360.19376,141.06717Z"/>
      </g>
      <path class="cls-8" d="M401.94376,193.97715c0-5.69-7.16-7.17-11.21-7.33-12-19.36-6.57-40.42-6.57-40.42a7.97379,7.97379,0,0,0-11.84-6.97c-6.29-12.12-11.61-18-17.66-26.56-5.44-7.7-11.17-15.01-20.38-12.96l-15.97,3.56a17.063,17.063,0,0,0-13.18,19.07v63.83c0,.21.02.41.03.61-.01.2-.03.41-.03.61v7.06c0,10.43,13.53,12.96,13.53,12.96-.01.15-.03.3-.04.45a187.80871,187.80871,0,0,0,50,6.74,189.134,189.134,0,0,0,29.24-2.29C397.87376,212.35715,401.94376,211.64716,401.94376,193.97715Z"/>
      <g>
        <path class="cls-8" d="M438.68379,232.17716c-6.88-9.96-18.98-15.66-37.49-15.66-.67,0-1.34.03-1.99.06-1.1,1.85-2.4,3.81-3.85,5.97-3.23,4.84-7.66,11.47-13.08,21.34-2.88,5.26-5.36,9.86-7.53,13.89-4.73,8.78-8.07,14.99-11.14,19.53h0c24.66-24.98,48.09-25.26,78.39-25.26C444.67378,252.06716,441.88377,236.82715,438.68379,232.17716Z"/>
        <path class="cls-8" d="M441.75376,230.38716a40.03937,40.03937,0,0,0-19.01-14.18,57.95282,57.95282,0,0,0-14.63-2.95c-3.12-.32-9.92-1.8-11.98,1.54-6.08,9.86-12.56,19.34-18.14,29.53-5.71,10.43-10.91,21.26-17.46,31.21-1.51,2.29.48,5.35,3.07,5.35,3.45,0,7.12-5.46,9.54-7.53a74.29509,74.29509,0,0,1,16.81-10.61c10.38-4.89,22.11-6.27,33.43-6.84,5.48-.27,10.98-.27,16.46-.28,3.28-.01,5.49-.49,6.52-3.89,1.86-6.18-1.42993-16.11-4.61-21.35-2.37-3.92-8.53-.34-6.14,3.59,1.85,3.05,2.65,6.59,3.36,10.05a29.03758,29.03758,0,0,1,.54,4.74c-.12,1.56-.01,1.47.33-.26-1.41,0-2.83,0-4.24.01a181.05278,181.05278,0,0,0-26.64,1.59,87.935,87.935,0,0,0-24.37,7.32,75.073,75.073,0,0,0-12.27,7.56c-1.45,1.06-2.83,2.2-4.22,3.33-.53.43-6.65,5.45-4.51,5.45,1.02,1.78,2.05,3.57,3.07,5.35,6.1-9.27,11-19.33,16.29-29.07,5.93-10.92,12.79-21.11,19.3-31.66-1.02.59-2.05,1.17-3.07,1.76,13.4-.41,28.06,2.35,36.41,13.83C438.28376,237.64716,444.45377,234.09716,441.75376,230.38716Z"/>
      </g>
      <path class="cls-8" d="M317.47376,55.47715s-28.11,7.36-28.11,18.29c0,10.53,5.35,21.95,5.35,21.95a8.39056,8.39056,0,0,0,10.14,6.16l26.94-6.43-.11-5.59,23.63-8.56C355.31376,81.29715,347.13377,55.47715,317.47376,55.47715Z"/>
      <path class="cls-4" d="M310.86378,37.22715v7.9c.87-1.14,1.74-2.29,2.61-3.43-11.41,3.51-29.37,9.38-33.65,21.81-1.5,4.35,5.37,6.2,6.86,1.89,2.05-5.95,10.47-9.4,15.68-11.85a99.26448,99.26448,0,0,1,13-4.99,3.6062,3.6062,0,0,0,2.61-3.43v-7.9c.01-4.59-7.10995-4.59-7.10995,0Z"/>
      <path class="cls-8" d="M319.43379,87.01715a30.05134,30.05134,0,0,0-15.93-26.54c-7.06,3.21-14.14,7.79-14.14,13.28,0,10.53,5.35,21.95,5.35,21.95a8.39056,8.39056,0,0,0,10.14,6.16l12.09-2.89A29.97456,29.97456,0,0,0,319.43379,87.01715Z"/>
      <path class="cls-8" d="M316.52378,52.04715a76.61619,76.61619,0,0,0-22.44,9.56c-11.54,7.61-8.5,19.77-4.36,31.25,3.38,9.38,8.53,14.25,18.87,11.78q12.075-2.88,24.14-5.76a3.55548,3.55548,0,0,0,2.61-3.43c-.03-1.86-.07-3.72-.11-5.59-.87,1.14-1.74,2.29-2.61,3.43q11.82-4.275,23.63-8.56a3.60512,3.60512,0,0,0,2.48-4.38c-5.59-17.89-23.3-28.07-41.27-28.44-4.59-.09-4.58,7.02,0,7.12,14.72.3,29.78,8.4,34.41,23.21q1.245-2.19,2.48-4.38-11.82,4.275-23.63,8.56a3.637,3.637,0,0,0-2.61,3.43c.04,1.86.07,3.72.11,5.59.87-1.14,1.74-2.29,2.61-3.43q-8.07,1.935-16.15,3.86c-7.05,1.68-13.98,5.35-17.61-3.61a54.41006,54.41006,0,0,1-4.17-18.5c-.13-3.78,5.7-6.71,8.39-8.23a73.2008,73.2008,0,0,1,17.11-6.63C322.84376,57.72715,320.96378,50.86716,316.52378,52.04715Z"/>
      <path class="cls-4" d="M308.32377,87.01715a12.53,12.53,0,1,1-12.53-12.53A12.53014,12.53014,0,0,1,308.32377,87.01715Z"/>
      <path class="cls-4" d="M304.76377,87.01715c-.62,11.57-17.33,11.57-17.95,0-.62-11.58,17.33-11.52,17.95,0,.25,4.56,7.36,4.59,7.12,0a16.45738,16.45738,0,0,0-16.09-16.09c-9.08-.49-15.64,7.73-16.09,16.09-.49,9.08,7.73,15.64,16.09,16.09,9.08.49,15.64-7.73,16.09-16.09C312.12376,82.42716,305.01377,82.44715,304.76377,87.01715Z"/>
      <path class="cls-4" d="M307.82377,66.00714q-2.745-15.375-5.49-30.77c-.46-2.57-.36-6.74-2.54-8.57q-6.195-5.22-12.38-10.43c-3.49-2.94-8.55,2.07-5.03,5.03q5.595,4.71,11.2,9.44c2.67,2.25.54-1.1.88.79.4,2.25.8,4.49,1.2,6.74q2.64,14.835,5.3,29.66c.81,4.51,7.66,2.59,6.86-1.89Z"/>
      <path class="cls-4" d="M274.12376,3.57715v30.35c0,1.77,1.63,3.78,3.56,3.56,10.48-1.21,10.44-9.78,10.44-18.14,0-8.62.59-18.05-10.44-19.32-4.55-.52-4.5,6.6,0,7.11,4.75.55,3.32,8.26,3.32,11.02,0,2.84,1.6,11.64-3.32,12.21l3.56,3.56v-30.35C281.24378-1.01284,274.12376-1.01284,274.12376,3.57715Z"/>
      <path class="cls-10" d="M172.46377,265.25716c-.02-.57-.06-1.15-.06-1.7C172.41377,264.11716,172.43377,264.68715,172.46377,265.25716Z"/>
      <path class="cls-10" d="M337.36378,102.59717h0Z"/>
      <path class="cls-10" d="M335.71378,102.70716c.22-.02.43-.04.64-.06C336.14378,102.65717,335.93379,102.67716,335.71378,102.70716Z"/>
      <path class="cls-4" d="M335.38377,102.73716v.02c.11-.02.23-.04.34-.06C335.60377,102.71717,335.50376,102.71717,335.38377,102.73716Z"/>
      <path class="cls-4" d="M337.69376,102.59717a12.4923,12.4923,0,0,1,4.02.79A10.76271,10.76271,0,0,0,337.69376,102.59717Z"/>
      <path class="cls-4" d="M172.86378,270.34716c.03.01.05.01.08.02-.23-1.75-.39-3.46-.48-5.11C172.53378,266.90715,172.65377,268.58716,172.86378,270.34716Z"/>
      <path class="cls-4" d="M172.39378,263.18715c0,.12.01.25.01.37,0-.12,0-.25-.01-.37Z"/>
      <path class="cls-4" d="M336.35377,102.64716c.34-.03.68-.04,1.01-.04A8.78883,8.78883,0,0,0,336.35377,102.64716Z"/>
      <path class="cls-8" d="M405.50376,193.97715c-1.01-7.82-7.56-10.39-14.76-10.88,1.02.59,2.05,1.17,3.07,1.76a52.93571,52.93571,0,0,1-6.39-36.88c1.85-9.28-7.93-15.41-16.03-12.15,1.34.55,2.68,1.09,4.02,1.64a169.415,169.415,0,0,0-14.11-21.67c-4.8-6.45-8.97-13.5-15.95-17.85-7.83-4.88-19.69.08-27.83,1.89-21.15,4.71-15.93,32.82-15.93,48.84v31.41c0,5.44-.87,11.74.24,17.01,2.52,12.02,15.84,14.51,25.98,16.87,21.1,4.9,43.41,5.29,64.84,2.69,4.21-.51,7.31-.31,9.73-3.89,3.4-5.03,3.05-13.1,3.12-18.79.05-4.59-7.06-4.58-7.11,0-.05,4.09.71,11.74-2.15,15.23-.5.61.42-.19.72-.29-.46.17-7.62,1.03-6.93.94-5.31.65-10.65.96-15.98,1.15a178.63133,178.63133,0,0,1-55.76-6.9c-4.74-1.36-9.57-4.46-9.57-9.93v-59.65c0-6.22-1.28-15.3,1.41-20.93,3.89-8.13,17.38-8.71,25.13-10.43,9.3-2.07,15.43,10.14,19.92,16.21a175.30592,175.30592,0,0,1,14.11,21.67,3.52715,3.52715,0,0,0,4.02,1.64c7.76-3.13,7.12,3.32,6.6,7.67a65.71492,65.71492,0,0,0,.16,16.52,58.49364,58.49364,0,0,0,6.32,19.33c1.03,1.99,1.97,3.84,4.38,4,2.49.17,7.24.56,7.65,3.77C398.96378,198.46717,406.09376,198.51715,405.50376,193.97715Z"/>
      <path class="cls-8" d="M363.75376,218.92716a196.72817,196.72817,0,0,1-46.35-6.7c-2.56,12.31-8.57,24.53-18.04,28.87-4.36,2-7.04,2.79-18.97,2.79-14.88-.01-30.67-.03-50.69-.03-22.5,0-43.5-44.45-26.09-72.84-25.82,32.66.27,95.86,14.38,96.54,13.56,0,84.85.01,99.42.01,4.94,0,14.15.65,18.68-1.95,3.92-2.26,6.67-6.54,9.07-10.23a234.48515,234.48515,0,0,0,13.62-23.68A64.29979,64.29979,0,0,0,363.75376,218.92716Z"/>
      <path class="cls-8" d="M318.32377,103.30716a17.063,17.063,0,0,0-13.18,19.07v63.83c0,.21.02.41.03.61-.01.21-.03.4-.03.61v7.06c0,10.43,12.79,13.19,13.48,13.42a155.6625,155.6625,0,0,0,24.44,5.14c-1.35-44.33-34.75-79.19-16.1-111.67C328.07377,99.46717,318.32377,103.30716,318.32377,103.30716Z"/>
      <path class="cls-8" d="M299.36378,240.80716c-4.36,2-7.04,2.79-18.97,2.79-14.88-.01-30.67-.03-50.69-.03-7.63,0-21.08-7.47-33.41-34.32-.2,23.03,14.62,53.94,37.17,53.94h76.43c27.63,0,33.17-45.85,33.17-45.85-3.21-.69-22.49-4.55-25.66-5.41C314.84376,224.24717,308.83378,236.46715,299.36378,240.80716Z"/>
      <path class="cls-2" d="M424.80378,299.81716a11.74,11.74,0,1,1-11.74-11.74A11.74491,11.74491,0,0,1,424.80378,299.81716Z"/>
      <g>
        <path class="cls-11" d="M19.75377,160.93717c-5.54.05-3.4,12.89.78,16.52,2.77,2.41,12.22,1.75,12.22,1.75v-18.27S25.20377,160.88715,19.75377,160.93717Z"/>
        <path class="cls-11" d="M19.75377,157.38715c-9.3.85-7.21,12.74-4.57,18.63,3.08,6.87,10.99,7.19,17.58,6.75a3.62075,3.62075,0,0,0,3.56-3.56v-18.27a3.594,3.594,0,0,0-3.56-3.56c-4.34-.02-8.68-.03-13.01.01-4.59.04-4.59,7.15,0,7.11q6.51-.045,13.01,0l-3.56-3.56v18.27c1.19-1.18,2.37-2.37,3.56-3.56-2.67.18-8.07.86-10.13-1.11-1.44-1.38-1.99-3.84-2.4-5.7a12.9875,12.9875,0,0,1-.21-3.52c.06-1.15.68-.91-.26-.82C24.28377,164.08716,24.32377,156.96717,19.75377,157.38715Z"/>
      </g>
      <path class="cls-12" d="M40.13377,205.90717l-36.51,48.08,16.84-1.66,21.37-23.99,7.62-2.45,16.17-12.1s-12.31-8.56-18.95-17.28C45.06377,199.31717,40.13377,205.90717,40.13377,205.90717Z"/>
      <g>
        <line class="cls-3" x1="46.66377" y1="197.01715" x2="65.62377" y2="213.74717"/>
        <path class="cls-8" d="M44.15377,199.52716q9.48,8.37,18.95,16.73c3.43,3.02,8.48-1.99,5.03-5.03q-9.48-8.37-18.96-16.73c-3.42-3.02-8.47,1.99-5.02,5.03Z"/>
      </g>
      <path class="cls-8" d="M368.62376,215.44715a202.69361,202.69361,0,0,1-50.28-6.66,3.59154,3.59154,0,0,0-4.38,2.49c-2.54,11.31-7.42,24.01-19.42,27.9-4.45,1.45-9.56,1.13-14.16,1.15-7.23.04-14.47-.01-21.71-.01a3.594,3.594,0,0,0-3.56,3.56v4.49c1.19-1.18,2.37-2.37,3.56-3.56q-14.49,0-28.98-.01c-8.04,0-14.73-7.22-19.1-13.18-10.97-14.98-10.55-32.17-5.36-49.21,1.37-4.49,3.34-8.96,3.6-13.7.26-4.82-4.15-6.15-7.81-7.56-15.33-5.94-31.62-9.32-47.84-11.68-27.15-3.95-54.8-4.52-82.16-3.13-5.75.29-11.5.68-17.23,1.26-5.65.58-11.84,5.6-16.8,8.21a3.55161,3.55161,0,0,0-1.76,3.07v23.67c0,5.72,5.5,11.6,8.35,16.33v-3.59c-13.66,19.65-28.57,38.42-43.04,57.48-1.58,2.08.54,5.6,3.07,5.35q8.34-.825,16.69-1.64c4.19-.41,8.04-7.09,10.55-9.91q6.63-7.44,13.27-14.9c-.45.5-1.78.81.62.04,1.8-.57,3.59-1.15,5.39-1.72,1.87-.6,3.44-2.18,4.98-3.34q4.215-3.15,8.43-6.31c1.02-.76,2.03-1.52,3.05-2.28.47-.35,3.91,1.81,5.9,2.52q21.135,7.605,41.53,17.07a400.24691,400.24691,0,0,1,56.57,32.53c-.59-1.02-1.18-2.05-1.76-3.07.21,11.26,2.12,29.41,11.96,36.76,2.59,1.93,8.19.78,11.07.69q29.7-.945,59.39-1.88,31.74-1.005,63.5-1.95c14.24-.41,27.75.15,38.5-10.97,7.78-8.05,13.06-18.67,18.4-28.38,7.85-14.26,15.45-28.55,24.5-42.1,1.4-2.09-.41-5.67-3.07-5.35a224.43248,224.43248,0,0,1-24.46,1.52c-4.59.03-4.59,7.15,0,7.11a222.3,222.3,0,0,0,24.46-1.54c-1.02-1.78-2.05-3.57-3.07-5.35-10.21,15.3-18.59,31.56-27.54,47.6-5.6,10.04-11.65,22.13-22.34,27.59-5.51,2.81-11.99,2.37-18,2.53-7.64.2-15.28.44-22.92.67q-57.24,1.74-114.48,3.6c-5.23.17-8.27-22.46-8.65-26.9-.17-2,.4-4.59-1.18-6.17-2.01-2.01-5.03-3.48-7.4-5.05q-7.74-5.145-15.72-9.91c-26.82-16.12-55.74-28.36-85.21-38.69-2.38-.83-4.96,2.02-6.61,3.26q-5.445,4.065-10.89,8.15c-1.76,1.32-4.54,1.97-7.92,3.05-2.1.67-3.42,2.78-4.82,4.36q-8.565,9.615-17.13,19.23c-1.73,1.94-1.39.62,1.11.38-1.84.18-3.67.36-5.51.54q-5.595.555-11.18,1.1c1.02,1.78,2.05,3.57,3.07,5.35,14.47-19.05,29.39-37.83,43.05-57.48a3.52505,3.52505,0,0,0,0-3.59q-2.49-4.11-4.97-8.23c-.87-1.44-1.73-2.88-2.6-4.31-.84-1.39.18,2.21.18.9v-24.76c-.59,1.02-1.18,2.05-1.76,3.07q4.845-2.55,9.68-5.1c1.59-.84,3.18-1.67,4.77-2.51-1.63.86-2.09.45-.7.32,6.39-.64,12.8-1.03,19.21-1.34,27.97-1.35,56.25-.48,83.92,3.93,7.51,1.2,14.96,2.78,22.33,4.64,2.26.57,21.82,5.24,21.94,6.8.35,4.71-3.13,10.96-4.42,15.41a70.45216,70.45216,0,0,0-2.88,24.74c1.08,13.95,8.9,28.02,19.66,36.8,12.1,9.88,30.11,6.28,44.59,6.28a3.594,3.594,0,0,0,3.56-3.56v-4.49c-1.19,1.18-2.37,2.37-3.56,3.56,12.76.01,28.55,2.6,40.64-2.47,12.77-5.35,18.65-19.1,21.5-31.8q-2.19,1.245-4.38,2.48a210.708,210.708,0,0,0,52.17,6.91C373.21378,222.59716,373.21378,215.48716,368.62376,215.44715Z"/>
      <g>
        <polygon class="cls-13" points="61.314 181.487 48.324 181.377 48.324 163.677 61.314 170.087 61.314 181.487"/>
        <path class="cls-13" d="M61.31377,177.92716q-6.495-.06-12.98-.11c1.19,1.19,2.37,2.37,3.56,3.56v-17.69c-1.78,1.02-3.57,2.05-5.35,3.07q6.495,3.21,12.98,6.41c-.59-1.02-1.18-2.05-1.76-3.07v11.4c0,4.59,7.12,4.59,7.12,0v-11.4a3.51866,3.51866,0,0,0-1.76-3.07q-6.495-3.21-12.98-6.4a3.59618,3.59618,0,0,0-5.35,3.07v17.69a3.60063,3.60063,0,0,0,3.56,3.56q6.495.06,12.98.11C65.90377,185.08716,65.89377,177.96717,61.31377,177.92716Z"/>
      </g>
      <g>
        <path class="cls-14" d="M189.39378,129.20716a2.227,2.227,0,0,0-1.52.09c-25.9.78-49.43-6.06-53.23-8.1-14.04-7.5-61.24-10.85-72.48-3.78-8.44,5.31-8.21,47.23,7.78,42.67,46.5-13.26,90.28-3.44,101.57-.19,17.16,4.94,33.97,18.82,35.24,19.29,10.47,3.82,16.37-5.93,19.27-10.38C227.30378,166.83716,236.25376,129.74717,189.39378,129.20716Z"/>
        <path class="cls-15" d="M188.57377,125.62717a138.16177,138.16177,0,0,1-51.16-6.8c-10.49-3.56-20.09-6.44-31.25-7.74-12.89-1.5-26.51-2.07-39.3.54-9.25,1.88-12.58,7.83-13.96,16.75-1.48,9.55-1.04,20.97,3.99,29.49a11.94972,11.94972,0,0,0,8.54,5.98c2.57.33,4.89-.42,7.35-1.1a169.99323,169.99323,0,0,1,18.83-3.9c31.44-4.96,69.36-3.15,97.43,13.32,9.99,5.86,19.22,16.65,31.14,7.98,6.12-4.45,9.19-10.54,9.92-17.78.81-8.07-1.21-16.72-6.27-23.14-8.38-10.65006-22.41-13.29-35.26-13.6-4.59-.11-4.58,7,0,7.11,12.5.3,26.32,3.01,32.35,15.22,2.7,5.46,2.87,12.59,1.36,18.42-.49,1.88-4.06,6.44-6.91,8.51-6.08,4.42-11.49-1.53-16.24-4.75a104.47588,104.47588,0,0,0-37.67-16.14,211.79165,211.79165,0,0,0-47.86-4.16,197.33592,197.33592,0,0,0-29.19,3.02c-5.48.95-10.89,2.29-16.25,3.77-2.33.64-3.85-.49-5.13-2.36-5.44-7.97-4.6-21.9-1.74-30.61,2.91-8.85,22.06-6.69,29.1-6.54,14.42.3,29.36,1.89,42.68,7.62,16.52,7.11,37.78,9.01,55.49,8.01C193.13377,132.47715,193.16377,125.36716,188.57377,125.62717Z"/>
        <path class="cls-15" d="M193.35377,138.80716c-22.89,4.23-49.62-9.02-67.65-22.84-3.64-2.79-7.18,3.39-3.59,6.14,19.65,15.06,47.51,28.29,73.13,23.56,4.51-.83,2.59-7.69-1.89-6.86Z"/>
      </g>
      <g>
        <path class="cls-13" d="M356.73377,163.86716l8.49,23.61a12.545,12.545,0,1,0-8.49-23.61Z"/>
        <path class="cls-13" d="M353.30378,164.80716q4.245,11.805,8.49,23.61c.59,1.64,2.49,3.27,4.38,2.48,8.29-3.47,12.72-11.61,10.04-20.43-2.61-8.59-12.27-12.52-20.43-10.05-4.38,1.33-2.51,8.2,1.89,6.86,10.95-3.32,17.44,12.22,6.6,16.75,1.46.83,2.92,1.65,4.38,2.48q-4.245-11.805-8.49-23.61C358.62376,158.63715,351.74378,160.47715,353.30378,164.80716Z"/>
      </g>
    </g>
  </g>
</svg>
