<svg xmlns="http://www.w3.org/2000/svg" viewBox="0 0 299.79958 509.14999">
  <defs>
    <style>
      .cls-1 {
        fill: #f04c24;
      }

      .cls-2 {
        fill: #26773b;
      }

      .cls-3 {
        fill: #046937;
      }

      .cls-4 {
        fill: #3b70b7;
      }

      .cls-5 {
        fill: #33612f;
      }

      .cls-6 {
        fill: #8dc641;
      }

      .cls-7 {
        fill: #c3da54;
      }

      .cls-8 {
        fill: #dc8727;
      }

      .cls-9 {
        fill: #fdc110;
      }

      .cls-10 {
        fill: #6b8163;
      }

      .cls-11 {
        fill: #37964a;
      }

      .cls-12 {
        fill: #628b3c;
      }
    </style>
  </defs>
  <title>Asset 2</title>
  <g id="Layer_2" data-name="Layer 2">
    <g id="Layer_1-2" data-name="Layer 1">
      <g>
        <path class="cls-1" d="M146.53955,311.19a12.83068,12.83068,0,0,0-14.04,1.89,17.08714,17.08714,0,0,1-5.65,2.38,12.81694,12.81694,0,0,0-11.16,8.72,19.82558,19.82558,0,0,0,2.29,16.46c3.75,6.18,9.33,9.15,17,8.31,4.28-.47,5.49-1.7,8.11-2.8s4.34-1.11,7.67-3.85c5.96-4.9,7.74-10.96,5.94-17.97A19.78423,19.78423,0,0,0,146.53955,311.19Z"/>
        <path class="cls-2" d="M128.47955,312.09a9.15757,9.15757,0,0,0-9.32-2,9.8022,9.8022,0,0,1,5.34,3.93c-2.04-.23-6.78.97-8.49,3.75,3.41-1.01,5.52-1.04,8.33.34a6.34354,6.34354,0,0,0-.51,3.26,15.34416,15.34416,0,0,0,1.44,3.14c.81-3.7,6.22-4.26,5.18-7.34,0,0,5.34-1.14,8.67,1.49-1.54-4.66-4.05-4.54-4.05-4.54,1.45-2.38,5.8-2.96,8.32-3.2a9.25911,9.25911,0,0,0-9.05-.4,7.61746,7.61746,0,0,1,4.16-5.93c-4.16.27-9.32,2.5-10.02,7.5Z"/>
        <path class="cls-2" d="M125.89955,299.26c-2.63,4.77.98,12.16,2.97,15.59a1.08131,1.08131,0,0,0,1-.51,29.10611,29.10611,0,0,1-2.33-8.31c-.21-3.79,1.22-5.56,1.22-5.56A2.00291,2.00291,0,0,0,125.89955,299.26Z"/>
        <path class="cls-3" d="M258.02956,178.46c-9.97-45.79-32.33-54.34-32.56-54.43-10.85-4.18-20.78-3.85-29.55,1-23.19,12.82-31.26,52.99-31.34,53.4l-2.45-.48a129.19722,129.19722,0,0,1,7.07-22.4c4.63-11.05,12.82-25.68,25.51-32.7,9.44-5.22,20.08-5.61,31.63-1.16.94.34,23.86,9.1,34.12,56.23Z"/>
        <path class="cls-3" d="M46.50955,228.46l-2.44-.53c10.26-47.13,33.18-55.89,34.15-56.24,18.9-7.29,35.57-1.37,48.2,17.14l-2.06,1.4c-12.07-17.69-27.3-23.14-45.27-16.21C78.84955,174.11,56.44955,182.83,46.50955,228.46Z"/>
        <polygon class="cls-4" points="199.26 509.15 113.55 509.15 85.41 379.52 224.23 379.52 199.26 509.15"/>
        <rect class="cls-4" x="71.62955" y="362.24002" width="165.63999" height="17.28003"/>
        <path class="cls-5" d="M130.24956,28.78s-23.25-4.1-31.49,15.64c0,0,8.37,2.17,10.47.55,0,0-14.64,10.8-14.59,27.02,0,0,7.76-3.59,10.56-4.31,0,0-9.21,8.53-2.49,19.14,0,0,3.79-6.26,5.59-7.65,0,0-1.75,5.18,6.92,13.33a5.60509,5.60509,0,0,1,2.15-4.04s8.9,8.45,14.05,8.31c0,0-7.54-14.76-3.04-18.23,1.8-1.39,4.18,1.08,6.03,3.48s.5-14.26-1.79-15.36c-2.29-1.11,5.06-1.51,6.82-.47s-3.41-11.26-2.28-14.76c1.14-3.5,2.04,2.03,8.65,3.15C152.41955,55.71,138.92955,28.96,130.24956,28.78Z"/>
        <path class="cls-6" d="M130.56955,19.66c-23.24,25.69-10.57,62.97-10.57,62.97-.15-.37-14.38-37.62,9.4-63.91Z"/>
        <path class="cls-7" d="M130.77956,210.7a12.37983,12.37983,0,0,0-10.5-8.76,16.453,16.453,0,0,1-5.38-2.47,12.3891,12.3891,0,0,0-13.48-2.26,19.16386,19.16386,0,0,0-10.22,12.36c-1.95,6.7-.43,12.61,5.17,17.52,3.13,2.74,4.79,2.8,7.28,3.95,2.49,1.14,3.62,2.36,7.74,2.95,7.37,1.05,12.85-1.64,16.66-7.49A19.106,19.106,0,0,0,130.77956,210.7Z"/>
        <path class="cls-7" d="M130.77956,210.7a12.37983,12.37983,0,0,0-10.5-8.76,16.453,16.453,0,0,1-5.38-2.47,11.04254,11.04254,0,0,0-4-2.52c2.13,1.6.84,4.64,8.5,7.49,7.12,2.65,7.51,15.22-.28,21.85-4.84,4.11-14.78,3.84-25.35-1.91a19.94508,19.94508,0,0,0,2.6,2.71c3.13,2.74,4.79,2.8,7.28,3.95,2.49,1.14,3.62,2.36,7.74,2.95,7.37,1.05,12.85-1.64,16.66-7.49A19.106,19.106,0,0,0,130.77956,210.7Z"/>
        <path class="cls-2" d="M118.17955,199.07a5.4433,5.4433,0,0,0-2.87-4.89,5.764,5.764,0,0,1,.42,3.92c-.72-.99-3.15-2.59-5.06-2.22a5.98166,5.98166,0,0,1,3.2,3.8,3.69171,3.69171,0,0,0-1.63,1.09,8.84768,8.84768,0,0,0-.8,1.89c1.95-1.13,4.37,1.02,5.31-.67,0,0,2.65,1.89,2.84,4.4,1.43-2.55.36-3.61.36-3.61,1.63-.32,3.63,1.36,4.75,2.36a5.48,5.48,0,0,0-3.46-4.13,4.53744,4.53744,0,0,1,4.28-.56c-1.81-1.72009-4.87-3.08007-7.34-1.38006Z"/>
        <path class="cls-2" d="M126.58955,188.44c-5.3,1.29-8.31,8.94-9.49,12.72a1.07476,1.07476,0,0,0,1.05.39,29.51871,29.51871,0,0,1,4.56-7.34c2.65-2.71,4.92-2.86,4.92-2.86A1.99136,1.99136,0,0,0,126.58955,188.44Z"/>
        <path class="cls-1" d="M189.69955,133.27a11.35245,11.35245,0,0,1,5.77-11.14,15.20761,15.20761,0,0,0,3.67-4,11.35889,11.35889,0,0,1,10.6-6.71,17.56018,17.56018,0,0,1,13.04,6.82c4.04,4.97,4.84,10.51,1.85,16.66-1.67,3.43-3.05,4.07-4.75,5.93-1.7,1.85-2.22,3.29-5.5,5.25-5.87,3.51-11.45,3.18-16.76-.41A17.6259,17.6259,0,0,1,189.69955,133.27Z"/>
        <path class="cls-1" d="M189.69955,133.27a11.35245,11.35245,0,0,1,5.77-11.14,15.20761,15.20761,0,0,0,3.67-4,10.16968,10.16968,0,0,1,2.48-3.55c-1.23,2.11.94,4.22-4.53,9.36-5.08,4.78-.94,15.55,8,18.38,5.56,1.76,13.86-2.01,20.77-10.63a18.57894,18.57894,0,0,1-1.23,3.22c-1.67,3.43-3.05,4.07-4.75,5.93-1.7,1.85-2.22,3.29-5.5,5.25-5.87,3.51-11.45,3.18-16.76-.41A17.6654,17.6654,0,0,1,189.69955,133.27Z"/>
        <path class="cls-2" d="M196.22955,118.95a4.98061,4.98061,0,0,1,.69-5.16,5.3178,5.3178,0,0,0,1.04,3.47c.26-1.09,1.75-3.31,3.49-3.68a5.52836,5.52836,0,0,0-1.36,4.35,3.41609,3.41609,0,0,1,1.77.34,8.37935,8.37935,0,0,1,1.35,1.32c-2.05-.26-3.34,2.42-4.73,1.32,0,0-1.57,2.54-.83,4.74-2.11-1.65-1.59-2.92-1.59-2.92-1.49.31-2.59,2.44-3.18,3.69a5.02774,5.02774,0,0,1,1.46-4.73,4.15992,4.15992,0,0,0-3.82,1.05c.91-2.11,3.01-4.35,5.71-3.79Z"/>
        <path class="cls-2" d="M184.51955,112.16c5.1-.82,10.55,4.76,12.97,7.64a1.03631,1.03631,0,0,1-.78.73,27.6472,27.6472,0,0,0-6.68-4.74c-3.31-1.4-5.36-.69-5.36-.69A1.90466,1.90466,0,0,1,184.51955,112.16Z"/>
        <path class="cls-1" d="M220.17955,133.58a2.48111,2.48111,0,0,1-.8-.13,2.50887,2.50887,0,0,1-1.58-3.18c2.79-8.3-5.6-11.62-5.96-11.76a2.51,2.51,0,0,1,1.79-4.69,18.41835,18.41835,0,0,1,5.98,4.05c2.59,2.68,5.21,7.29,2.95,14A2.51946,2.51946,0,0,1,220.17955,133.58Z"/>
        <path class="cls-1" d="M226.30955,287.26a13.84014,13.84014,0,0,0-15.22-1.05,18.42539,18.42539,0,0,1-6.48,1.29,13.816,13.816,0,0,0-13.67,6.78,21.37752,21.37752,0,0,0-1.15,17.86c2.62,7.34,7.87,11.68,16.14,12.45,4.62.43,6.16-.6,9.16-1.19,3-.6,4.82-.23,8.93-2.4,7.35-3.88,10.54-9.89,10.16-17.67A21.30823,21.30823,0,0,0,226.30955,287.26Z"/>
        <path class="cls-1" d="M226.30955,287.26a13.84014,13.84014,0,0,0-15.22-1.05,18.42539,18.42539,0,0,1-6.48,1.29,12.29086,12.29086,0,0,0-5.26.34c2.97.05,3.79,3.64,12.59,1.21,8.18-2.26,16.76,8.84,14.05,19.93-1.68,6.89-10.85,13.14-24.17,14.87a23.37294,23.37294,0,0,0,4.12.75c4.62.43,6.16-.6,9.16-1.19,3-.6,4.82-.23,8.93-2.4,7.35-3.88,10.54-9.89,10.16-17.67A21.35562,21.35562,0,0,0,226.30955,287.26Z"/>
        <path class="cls-2" d="M207.30955,285a6.10207,6.10207,0,0,0-5.8-2.55,6.48188,6.48188,0,0,1,2.95,3.27c-1.3-.42-4.54-.27-6.03,1.3,2.35-.2,3.73.06,5.38,1.34a4.26534,4.26534,0,0,0-.77,2.05,10.31676,10.31676,0,0,0,.52,2.23c1.02-2.3,4.62-1.95,4.35-4.08,0,0,3.63-.03,5.45,2.12-.38-3.24-2.03-3.5-2.03-3.5,1.26-1.35,4.17-1.15,5.84-.97a6.16512,6.16512,0,0,0-5.84-1.47,5.04839,5.04839,0,0,1,3.5-3.3c-2.74-.3601-6.39.39991-7.52,3.55994Z"/>
        <path class="cls-2" d="M207.34955,276.3c-2.35,2.75-.99,8.05-.15,10.55a.72991.72991,0,0,0,.72-.2,19.64858,19.64858,0,0,1-.41-5.72,5.65367,5.65367,0,0,1,1.54-3.46A1.33294,1.33294,0,0,0,207.34955,276.3Z"/>
        <path class="cls-1" d="M204.76955,320.96a3.3527,3.3527,0,0,1-.76-.09c-8.58-1.94-11.78-7.69-12.96-12.18a22.11057,22.11057,0,0,1-.43-8.93,3.41984,3.41984,0,0,1,6.73,1.22c-.19,1.13-1.6,11.01,8.17,13.22a3.42264,3.42264,0,0,1-.75,6.76007Z"/>
        <path class="cls-7" d="M268.78957,329.11a11.96057,11.96057,0,0,0-12.93-2.62,16.07757,16.07757,0,0,1-5.7.37,11.94816,11.94816,0,0,0-12.48,4.27,18.46563,18.46563,0,0,0-3,15.18c1.42,6.58,5.42,10.9,12.43,12.49,3.91.89,5.35.18,7.99.01s4.16.35,7.92-1.05c6.74-2.49,10.15-7.29,10.7-14A18.41393,18.41393,0,0,0,268.78957,329.11Z"/>
        <path class="cls-2" d="M260.97954,314.63a5.58315,5.58315,0,0,1,4.95-3,5.88056,5.88056,0,0,0-2.28,3.31c1.12-.54,4.08-.79,5.62.46a6.09665,6.09665,0,0,0-4.71,1.85,3.81443,3.81443,0,0,1,.94,1.77,9.18968,9.18968,0,0,1-.2,2.08c-1.2-1.96-4.42-1.21-4.43-3.18,0,0-3.29.41-4.68,2.57-.05-2.98,1.42-3.41,1.42-3.41-1.3-1.08-3.91-.54-5.41-.18a5.59334,5.59334,0,0,1,5.11-2.03,4.62575,4.62575,0,0,0-3.56-2.57c2.44-.65009,5.83-.39008,7.23,2.33Z"/>
        <path class="cls-2" d="M259.22954,304.44c3.62,3.27,2.73,10.58,2.05,14.06a.95136.95136,0,0,1-.99-.14,26.26949,26.26949,0,0,0-.46-7.71c-.93-3.27-2.66-4.35-2.66-4.35A1.78964,1.78964,0,0,1,259.22954,304.44Z"/>
        <path class="cls-3" d="M253.25954,318.77c-9.97-45.79-32.33-54.34-32.56-54.42-10.85-4.18-20.78-3.85-29.55,1-23.19,12.82-31.26,52.99-31.34,53.4l-2.45-.48a129.1985,129.1985,0,0,1,7.07-22.4c4.63-11.05,12.82-25.68,25.51-32.7,9.44-5.22,20.08-5.61,31.63-1.16.94.34,23.86,9.1,34.12,56.23Z"/>
        <path class="cls-3" d="M256.34956,271.72c-.18-.14-17.85-14.23-34.75-7.39l-.93-2.31c7.59-3.07,16.45-2.69,25.62,1.09a50.99838,50.99838,0,0,1,11.63,6.67Z"/>
        <path class="cls-3" d="M207.60956,280.11l-2.14-1.27c.06-.1,5.75-9.96.06-17.93l2.03-1.45C214.19955,268.76,207.87955,279.65,207.60956,280.11Z"/>
        <path class="cls-8" d="M262.56956,267.9s5.99,12.31,8.1,17.92,4.21-15.47,3.41-17.47,4.86,4.88,23.27,5.28l-13.59-13.82s10.83-2.75,16.04-8.77h-15.21S262.15956,262.42,262.56956,267.9Z"/>
        <path class="cls-9" d="M265.33955,266.5s17.25,12.41,18.45,15.62c0,0-4.01-25.22-5.61-24.82a34.33873,34.33873,0,0,0,16.82-11.17s-16.02-1.2-27.23,10.19C256.55955,267.7,265.33955,266.5,265.33955,266.5Z"/>
        <path class="cls-2" d="M275.77956,247.19s-20.02,5.29-12.81,26.51c0,0,2.8-7.61,3.2-10.81s4.41,2,7.21,3.6-.8-2.89-1.6-6.05,5.61-5.65,8.01-8.21-3.58,1.65-7.21,0C268.94954,250.59,273.76955,248.71,275.77956,247.19Z"/>
        <path class="cls-7" d="M55.40955,97.08a11.7887,11.7887,0,0,1,12.76-2.58,15.65143,15.65143,0,0,0,5.62.37,11.80131,11.80131,0,0,1,12.32,4.21,18.23341,18.23341,0,0,1,2.96,14.98c-1.4,6.5-5.35,10.75-12.27,12.33-3.86.88-5.28.18-7.89.01-2.6-.17-4.1.34-7.82-1.03-6.65-2.46-10.02-7.19-10.57-13.82A18.24217,18.24217,0,0,1,55.40955,97.08Z"/>
        <path class="cls-2" d="M68.76955,93.05a5.19285,5.19285,0,0,0-4.62-2.8,5.5442,5.5442,0,0,1,2.13,3.1c-1.05-.5-3.81-.74-5.25.43a5.69733,5.69733,0,0,1,4.4,1.73,3.68184,3.68184,0,0,0-.88,1.65,8.84091,8.84091,0,0,0,.19,1.95c1.12-1.83,4.12-1.13,4.14-2.97,0,0,3.07.38,4.37,2.4.04-2.78-1.33-3.19-1.33-3.19,1.22-1.01,3.66-.51,5.05-.17a5.21814,5.21814,0,0,0-4.77-1.89,4.29652,4.29652,0,0,1,3.33-2.4c-2.28-.63-5.46-.39-6.76,2.16Z"/>
        <path class="cls-2" d="M69.64955,83.44c-3.43,3.09-2.59,10.01-1.94,13.31a.92555.92555,0,0,0,.94-.13,24.83919,24.83919,0,0,1,.44-7.3,7.19475,7.19475,0,0,1,2.52-4.12A1.70621,1.70621,0,0,0,69.64955,83.44Z"/>
        <path class="cls-3" d="M69.98955,86.83l-2.44-.53c10.26-47.13,33.18-55.89,34.15-56.24,18.9-7.29,35.57-1.37,48.2,17.14l-2.06,1.4c-12.07-17.69-27.3-23.14-45.27-16.21C102.31955,32.48,79.92955,41.2,69.98955,86.83Z"/>
        <path class="cls-3" d="M66.89955,39.77l-1.57-1.93a50.57156,50.57156,0,0,1,11.63-6.67c9.17-3.79,18.03-4.16,25.62-1.09l-.94,2.31C84.74955,25.55,67.07955,39.63,66.89955,39.77Z"/>
        <path class="cls-8" d="M66.49955,49.19s-5.67,11.48-7.67,16.79-3.99-14.72-3.23-16.62c.76-1.89-4.59,4.58-22.03,4.96l12.86-12.76s-10.26-3.17-15.18-7.98h14.4C45.64955,33.57,66.87955,44,66.49955,49.19Z"/>
        <path class="cls-9" d="M63.86955,47.52s-16.32,11.75-17.46,14.78c0,0,3.79-23.88,5.31-23.5a32.52463,32.52463,0,0,1-15.92-10.57s15.16-1.14,25.77,9.65C72.17955,48.66,63.86955,47.52,63.86955,47.52Z"/>
        <path class="cls-2" d="M53.98955,29.25s18.95,5.01,12.13,25.1c0,0-2.65-7.2-3.03-10.23s-4.17,1.89-6.82,3.41.76-2.74,1.52-5.73-5.31-5.35-7.58-7.77,3.39,1.56,6.82,0C60.44955,32.46,55.88955,30.68,53.98955,29.25Z"/>
        <path class="cls-2" d="M155.13956,368.03l-3.7-.43a902.13608,902.13608,0,0,0,9.82-127.21c.36-64.33-7.02-153.17-44.2-211.02l3.29-1.48c37.55,58.44007,45,147.84006,44.64,212.55008A904.73746,904.73746,0,0,1,155.13956,368.03Z"/>
        <path class="cls-9" d="M128.73955,0s-12.13,14.2-9.1,24.31c0,0-21.22,2.17-24.26,4.12-3.03,1.95,9.1,8.34,16.67,7.67,0,0-4.01,17.92-.24,20.75,0,0,9.84-7.27,12.87-14.85,0,0,13.72,8.59,19.49,9.6,0,0-4.73-18.77-10.4-20.97-1.77-.69,15.16-4.3,21.22-6.32s-15.16-7.07-21.22-4.04C127.72955,23.3,135.81955,19.15,128.73955,0Z"/>
        <path class="cls-9" d="M125.85956,16.68s-5.82,5.87-4.4,10.59c0,0-9.75,1.76-11.16,2.67s4.24,3.89,7.78,3.58c0,0-1.87,8.36-.11,9.69,0,0,4.59-3.39,6.01-6.93,0,0,6.4,4.01,9.1,4.48,0,0-3.5-11.28-4.38-10.81-2.23,1.19,8.85-4.06,11.68-5s-9.32-.22-12.15,1.19C125.38956,27.55,129.15955,25.62,125.85956,16.68Z"/>
        <path class="cls-10" d="M124.14955,22.74s-2.87,3.36-2.15,5.76c0,0-5.03.51-5.74.97-.72.46,2.15,1.98,3.95,1.82,0,0-.95,4.25-.06,4.92a10.54478,10.54478,0,0,0,3.05-3.52s3.25,2.04,4.61,2.27c0,0-1.11-4.92-2.3-4.46,0,0,3.69-2.8,5.12-3.28,1.44-.48-3.85-.39-5.28.32C123.90955,28.26,125.82954,27.28,124.14955,22.74Z"/>
        <path class="cls-5" d="M130.36955,78.44s6.15-5.37,25.8,7.95,20.94,14.74,17.91,21.69l-8.02-3.49s-4.87,14.12-9.67,17.12c0,0-.73-2.69-1.95-3.54s-16.86,15.48-21.2,17.41c0,0-1.16-4.04-.81-4.84s-8.56,10.26-21.43,14.19c-1.11.34-1.06-.47-1.06-.47s1.85-16.68,5.68-23.29c3.83-6.6.64-1.47.64-1.47s1.99-3.83.07-3.07,3.73-9.31,9.45-12.23c0,0,.82-7.02-3.73-6.77s11.73-15.28,14.91-14.53C140.11955,83.82,130.36955,78.44,130.36955,78.44Z"/>
        <path class="cls-11" d="M165.29954,89.51c-33.82,7.53-45.02,45.28-45.02,45.28.1-.39,10.01-39.01,44.61-46.72Z"/>
        <path class="cls-5" d="M190.10956,62.7s-3.01-4.25.08-7.56-15.1,3.49-18.03,24.42c0,0-1.44,14.44-.37,22.95s6.17-5.96,7.9-7.35a38.0611,38.0611,0,0,0,14.56,11.1s5.04-3.25,3.85-7.2c0,0,17.34.35,22.55.49a6.86889,6.86889,0,0,0-1.86-3.31c-1.53-1.48,5.91,3.16,27.44-1.85,0,0-4.21-17.47-37.22-26.86-33-9.39-1.42-.43-1.42-.43s-.62-5.63,3.3-6.17C210.90955,60.93,197.77956,54.57,190.10956,62.7Z"/>
        <path class="cls-6" d="M171.23955,83c31.19-15.07,63.4,7.59,63.4,7.59-.32-.25-32.05-24.39-63.97-8.97Z"/>
        <path class="cls-12" d="M177.60956,84.66s2.33-4.67,6.7-3.5-10.2-11.66-30.03-4.37c0,0-13.41,5.54-20.41,10.5-7,4.95,8.17,2.63,10.21,3.5a38.15828,38.15828,0,0,0-2.92,18.08s5.24,2.92,8.16,0c0,0,7.87,15.45,10.21,20.12a6.784,6.784,0,0,0,2.04-3.2c.58-2.04,0,6.7,14.58,23.33,0,0,13.41-11.96,6.12-45.49s-.29-1.46-.29-1.46,4.67-3.2,7,0C188.97955,102.15,188.39955,87.58,177.60956,84.66Z"/>
        <path class="cls-6" d="M150.80955,77.59c28,20.39,23.23,59.48,23.23,59.48.07-.39,6.38-39.77-22.27-60.64Z"/>
        <path class="cls-5" d="M183.44955,170.12s-2.96-4.29.17-7.56-15.14,3.3-18.33,24.18c0,0-1.62,14.42-.66,22.94s6.24-5.88,7.99-7.25a38.15577,38.15577,0,0,0,14.42,11.29s5.09-3.19,3.94-7.15c0,0,17.33.57,22.55.78a6.75377,6.75377,0,0,0-1.82-3.33c-1.51-1.5,5.87,3.24,27.47-1.5,0,0-3.99-17.52-36.88-27.33-32.88-9.81-1.42-.45-1.42-.45s-.55-5.64,3.38-6.13C204.25955,168.61,191.20955,162.08,183.44955,170.12Z"/>
        <path class="cls-6" d="M164.30955,190.17c31.38-14.67,63.3,8.39,63.3,8.39-.31-.25-31.74-24.79-63.85-9.78Z"/>
        <path class="cls-5" d="M224.07954,231.55s-4.52-2.6-3.1-6.9-12.24,9.5-6.13,29.72c0,0,4.74,13.71,9.28,20.99,4.53,7.28,3.1-8,4.09-9.99a38.10818,38.10818,0,0,0,17.88,3.98s3.22-5.07.48-8.15c0,0,15.89-6.95,20.69-9.01a6.91578,6.91578,0,0,0-3.08-2.23c-2.01-.7,6.69.4,24.14-13.18,0,0-11.15-14.09-45.05-8.79-33.9,5.31-1.47.2-1.47.2s-2.93-4.85.41-6.98C242.21956,221.22,227.62955,220.95,224.07954,231.55Z"/>
        <path class="cls-6" d="M215.44955,257.89c22-26.76,60.74-19.69,60.74-19.69-.39-.09-39.32-8.71-61.84,18.67Z"/>
        <path class="cls-5" d="M174.34955,330.81s-2.96-4.29.17-7.56-15.14,3.3-18.33,24.19c0,0-1.62,14.42-.66,22.94s6.24-5.88,7.99-7.25a38.15572,38.15572,0,0,0,14.42,11.29s5.09-3.19,3.94-7.15c0,0,17.33.57,22.55.78a6.89554,6.89554,0,0,0-1.82-3.33c-1.51-1.5,5.87,3.24,27.47-1.5,0,0-3.99-17.52-36.88-27.33-32.88-9.81-1.42-.45-1.42-.45s-.55-5.63,3.38-6.13C195.15955,329.3,182.11955,322.77,174.34955,330.81Z"/>
        <path class="cls-6" d="M155.21956,350.87c31.38-14.67,63.3,8.39,63.3,8.39-.31-.25-31.74-24.79-63.85-9.78Z"/>
        <path class="cls-5" d="M123.95955,347.45s-2.16-4.75-6.57-3.74,10.62-11.28,30.17-3.28c0,0,13.2,6.03,20.01,11.23,6.82,5.21-8.25,2.33-10.33,3.12a38.18618,38.18618,0,0,1,2.26,18.17s-5.35,2.72-8.16-.3c0,0-8.43,15.16-10.93,19.74a6.8791,6.8791,0,0,1-1.92-3.28c-.51-2.06-.24,6.7-15.42,22.78,0,0-12.97-12.44-4.47-45.68,8.5-33.25.34-1.44.34-1.44s-4.55-3.37-6.99-.25C111.95955,364.52,113.06955,349.98,123.95955,347.45Z"/>
        <path class="cls-6" d="M150.99956,341.36c-28.73,19.36-25.37,58.59-25.37,58.59-.05-.4-4.93-39.97,24.46-59.79Z"/>
        <path class="cls-12" d="M187.67955,215.78s1.17-5.08,5.69-4.98c4.53.1-12.66-8.93-30.22,2.82,0,0-11.73,8.55-17.37,15.01s8.55.63,10.74,1a38.013,38.013,0,0,0,1.42,18.26s5.78,1.6,7.93-1.92c0,0,11.29,13.16,14.66,17.15a6.85106,6.85106,0,0,0,1.23-3.6c.09-2.12,1.58,6.52,19.66,19.24,0,0,10.22-14.78-4.76-45.65-14.98-30.88-.62-1.35-.62-1.35s3.78-4.21,6.8-1.65C202.84955,230.1,198.85956,216.07,187.67955,215.78Z"/>
        <path class="cls-6" d="M159.96956,215.21c32.02,13.23,36.57,52.34,36.57,52.34-.03-.4-3.15-40.15-35.92-53.69Z"/>
        <path class="cls-12" d="M130.79954,270.76s-.25-5.21-4.72-5.91,14.04-6.55,29.24,8.12c0,0,10.03,10.49,14.43,17.84,4.4,7.36-8.53-.9-10.75-.92a38.148,38.148,0,0,1-4.63,17.72s-5.97.55-7.47-3.29c0,0-13.44,10.96-17.46,14.29a6.8537,6.8537,0,0,1-.57-3.76c.29-2.11-2.71,6.14-22.76,15.45,0,0-7.44-16.35,12.76-44.09,20.21-27.73.85-1.21.85-1.21s-2.98-4.82-6.4-2.83C113.32954,282.17,119.74956,269.07,130.79954,270.76Z"/>
        <path class="cls-6" d="M158.17955,275.11c-33.85,7.35-45.27,45.03-45.27,45.03.1-.39,10.22-38.96,44.86-46.48Z"/>
        <path class="cls-5" d="M150.66955,160.4s4.41-2.79,2.8-7.02c-1.6-4.23,12.63,8.97,7.39,29.44,0,0-4.16,13.9-8.38,21.37s-3.44-7.86-4.51-9.8a38.09838,38.09838,0,0,1-17.69,4.73s-3.43-4.93-.82-8.12c0,0-16.17-6.27-21.05-8.12a6.78885,6.78885,0,0,1,2.98-2.35c1.97-.79-6.67.68-24.68-12.15,0,0,10.54-14.55,44.64-10.69,34.1,3.87,1.48.14,1.48.14s2.72-4.97-.71-6.96C132.10956,150.85,146.66955,149.96,150.66955,160.4Z"/>
        <path class="cls-6" d="M160.40955,186.35c-23.12-25.8-61.52-17.1-61.52-17.1.39-.11,38.92-10.37,62.58,16.03Z"/>
        <path class="cls-3" d="M94.53955,88.38c-.12-.14-12.28-14.23-23.9-7.39l-.64-2.31c5.22-3.07,11.32-2.69,17.62,1.09a35.423,35.423,0,0,1,8,6.67Z"/>
        <path class="cls-3" d="M40.38955,182.65l-1.57-1.93a50.573,50.573,0,0,1,11.63-6.67c9.17-3.79,18.03-4.16,25.62-1.09l-.94,2.31C58.22955,168.43,40.55955,182.51,40.38955,182.65Z"/>
        <path class="cls-3" d="M85.62955,196.67c-.12-.14-12.28-14.23-23.9-7.39l-.64-2.31c5.22-3.07,11.32-2.69,17.62,1.09a35.42594,35.42594,0,0,1,8,6.67Z"/>
        <path class="cls-3" d="M20.90955,207.53l-1.57-1.93a50.57086,50.57086,0,0,1,11.63-6.67c9.17-3.79,18.03-4.16,25.62-1.09l-.94,2.31C38.75955,193.31,21.08955,207.38,20.90955,207.53Z"/>
        <path class="cls-3" d="M72.81955,225.04c-.12-.14-12.28-14.23-23.9-7.39l-.64-2.31c5.22-3.07,11.32-2.69,17.62,1.09a35.42555,35.42555,0,0,1,8,6.67Z"/>
        <path class="cls-1" d="M43.53955,187.7a6.39572,6.39572,0,0,0-3.17-6.3,8.54933,8.54933,0,0,1-2.04-2.28,6.4078,6.4078,0,0,0-5.92-3.84,9.887,9.887,0,0,0-7.38,3.76,8.16377,8.16377,0,0,0-1.15,9.36,10.74579,10.74579,0,0,0,2.64,3.37,10.75288,10.75288,0,0,0,3.06,2.99,8.17127,8.17127,0,0,0,9.43-.12A9.94113,9.94113,0,0,0,43.53955,187.7Z"/>
        <path class="cls-1" d="M43.53955,187.7a6.39572,6.39572,0,0,0-3.17-6.3,8.54933,8.54933,0,0,1-2.04-2.28,5.72889,5.72889,0,0,0-1.38-2.02c.68,1.2-.56,2.37,2.49,5.3,2.83,2.72.43,8.75-4.62,10.29-3.14.95-7.79-1.22-11.62-6.11a10.90975,10.90975,0,0,0,.67,1.82,10.74579,10.74579,0,0,0,2.64,3.37,10.75288,10.75288,0,0,0,3.06,2.99,8.17127,8.17127,0,0,0,9.43-.12A9.92253,9.92253,0,0,0,43.53955,187.7Z"/>
        <path class="cls-2" d="M39.95955,179.6a2.82471,2.82471,0,0,0-.35-2.91,2.9549,2.9549,0,0,1-.61,1.94,3.205,3.205,0,0,0-1.94-2.09,3.11251,3.11251,0,0,1,.74,2.46,1.90367,1.90367,0,0,0-1,.18,5.15391,5.15391,0,0,0-.77.73c1.16-.14,1.86,1.38,2.65.77a3.65925,3.65925,0,0,1,.44,2.67c1.2-.91.91-1.63.91-1.63.84.18,1.44,1.39,1.76,2.1a2.85093,2.85093,0,0,0-.79-2.67,2.35663,2.35663,0,0,1,2.14.61c-.49-1.18-1.66-2.45-3.18-2.16Z"/>
        <path class="cls-1" d="M53.54955,231.67a7.95747,7.95747,0,0,0-6.75-5.63,10.42762,10.42762,0,0,1-3.45-1.59,7.96841,7.96841,0,0,0-8.67-1.45,12.28117,12.28117,0,0,0-6.56,7.94,10.1537,10.1537,0,0,0,3.33,11.26c2.01,1.76,3.08,1.8,4.68,2.54,1.6.73,2.33,1.52,4.97,1.9a10.14367,10.14367,0,0,0,10.71-4.81A12.32319,12.32319,0,0,0,53.54955,231.67Z"/>
        <path class="cls-2" d="M45.44955,224.2a3.49248,3.49248,0,0,0-1.84-3.14,3.7164,3.7164,0,0,1,.27,2.52,4.00061,4.00061,0,0,0-3.25-1.43,3.84323,3.84323,0,0,1,2.06,2.44,2.3946,2.3946,0,0,0-1.05.7,5.89627,5.89627,0,0,0-.51,1.22c1.25-.73,2.81.65,3.41-.43a4.55151,4.55151,0,0,1,1.82,2.83c.92-1.64.23-2.32.23-2.32,1.05-.21,2.33.87,3.05,1.52a3.54878,3.54878,0,0,0-2.23-2.66,2.90308,2.90308,0,0,1,2.75-.36c-1.16-1.11005-3.12-1.98-4.71-.89008Z"/>
        <path class="cls-1" d="M18.48955,194.4a5.66989,5.66989,0,0,0-4.81-4.01,7.64653,7.64653,0,0,1-2.46-1.13,5.65412,5.65412,0,0,0-6.17-1.03,8.79936,8.79936,0,0,0-4.68,5.66,7.23,7.23,0,0,0,2.37,8.02,9.48227,9.48227,0,0,0,3.33,1.81,9.58,9.58,0,0,0,3.54,1.35,7.23432,7.23432,0,0,0,7.63-3.43A8.78187,8.78187,0,0,0,18.48955,194.4Z"/>
        <path class="cls-1" d="M18.48955,194.4a5.66989,5.66989,0,0,0-4.81-4.01,7.64653,7.64653,0,0,1-2.46-1.13,5.02173,5.02173,0,0,0-1.83-1.15c.97.73.38,2.12,3.89,3.43,3.26,1.21,3.44,6.97-.13,10-2.22,1.88-6.76,1.76-11.6-.87a9.18248,9.18248,0,0,0,1.19,1.24,9.48227,9.48227,0,0,0,3.33,1.81,9.58,9.58,0,0,0,3.54,1.35,7.23432,7.23432,0,0,0,7.63-3.43A8.78187,8.78187,0,0,0,18.48955,194.4Z"/>
        <path class="cls-2" d="M12.71955,189.08a2.50457,2.50457,0,0,0-1.31-2.24,2.63916,2.63916,0,0,1,.19,1.8,2.87749,2.87749,0,0,0-2.32-1.02,2.7045,2.7045,0,0,1,1.46,1.74,1.75283,1.75283,0,0,0-.75.5,4.28023,4.28023,0,0,0-.37.87c.89-.52,2,.47,2.43-.31a3.254,3.254,0,0,1,1.3,2.02c.65-1.17.17-1.65.17-1.65.75-.15,1.66.62,2.17,1.08a2.51142,2.51142,0,0,0-1.59-1.89,2.07758,2.07758,0,0,1,1.96-.26,2.69136,2.69136,0,0,0-3.34-.63995Z"/>
        <path class="cls-1" d="M92.15955,195.36a5.37058,5.37058,0,0,0-5.91-.39,7.19416,7.19416,0,0,1-2.51.5,5.3571,5.3571,0,0,0-5.3,2.65,8.29273,8.29273,0,0,0-.43,6.93,6.8548,6.8548,0,0,0,6.28,4.82,9.15178,9.15178,0,0,0,3.56-.47,8.7896,8.7896,0,0,0,3.46-.94,6.85328,6.85328,0,0,0,3.93-6.87A8.34276,8.34276,0,0,0,92.15955,195.36Z"/>
        <path class="cls-1" d="M92.15955,195.36a5.37058,5.37058,0,0,0-5.91-.39,7.19416,7.19416,0,0,1-2.51.5,4.692,4.692,0,0,0-2.04.14c1.15.02,1.47,1.41,4.89.46,3.17-.89,6.51,3.42,5.47,7.72-.65,2.67-4.2,5.11-9.37,5.79a8.73412,8.73412,0,0,0,1.6.29,9.1518,9.1518,0,0,0,3.56-.47,8.7896,8.7896,0,0,0,3.46-.94,6.85328,6.85328,0,0,0,3.93-6.87A8.34274,8.34274,0,0,0,92.15955,195.36Z"/>
        <path class="cls-2" d="M84.77955,194.5a2.353,2.353,0,0,0-2.25-.98,2.52745,2.52745,0,0,1,1.15,1.27,2.72472,2.72472,0,0,0-2.34.51,2.60862,2.60862,0,0,1,2.09.51,1.62567,1.62567,0,0,0-.3.8,4.02449,4.02449,0,0,0,.2.87c.39-.89,1.79-.76,1.69-1.59a3.1083,3.1083,0,0,1,2.12.82c-.15-1.26-.79-1.36-.79-1.36.49-.53,1.62-.45,2.27-.38a2.37606,2.37606,0,0,0-2.27-.56,1.96007,1.96007,0,0,1,1.36-1.29,2.60207,2.60207,0,0,0-2.93,1.37994Z"/>
        <path class="cls-1" d="M78.96955,221.55a6.00491,6.00491,0,0,0-6.63-.44,8.29,8.29,0,0,1-2.82.57,6.03037,6.03037,0,0,0-5.95,2.97,9.30356,9.30356,0,0,0-.48,7.78,7.69074,7.69074,0,0,0,7.04,5.41,10.17952,10.17952,0,0,0,3.99-.53,10.141,10.141,0,0,0,3.89-1.05,7.69,7.69,0,0,0,4.41-7.71A9.344,9.344,0,0,0,78.96955,221.55Z"/>
        <path class="cls-1" d="M78.96955,221.55a6.00491,6.00491,0,0,0-6.63-.44,8.29,8.29,0,0,1-2.82.57,5.36157,5.36157,0,0,0-2.29.15c1.3.02,1.65,1.58,5.49.51,3.56-.99,7.31,3.84,6.14,8.67-.73,3-4.71,5.73-10.51,6.5a9.12849,9.12849,0,0,0,1.8.32,10.17955,10.17955,0,0,0,3.99-.53,10.141,10.141,0,0,0,3.89-1.05,7.69,7.69,0,0,0,4.41-7.71A9.42843,9.42843,0,0,0,78.96955,221.55Z"/>
        <path class="cls-2" d="M70.68955,220.59a2.65073,2.65073,0,0,0-2.53-1.1,2.82345,2.82345,0,0,1,1.29,1.42,3.07174,3.07174,0,0,0-2.63.57,2.86364,2.86364,0,0,1,2.34.58,1.8395,1.8395,0,0,0-.33.89,4.40761,4.40761,0,0,0,.23.97c.44-1,2.01-.85,1.89-1.78a3.41552,3.41552,0,0,1,2.37.92c-.17-1.41-.89-1.52-.89-1.52.55-.59,1.82-.5,2.54-.43a2.66752,2.66752,0,0,0-2.54-.63,2.2,2.2,0,0,1,1.52-1.44c-1.18-.16992-2.77.17-3.26,1.55Z"/>
        <path class="cls-12" d="M46.21955,196.37s-.07-1.5-1.36-1.7c-1.28-.2,4.03-1.88,8.4,2.33a38.77954,38.77954,0,0,1,4.15,5.13c1.26,2.11-2.45-.26-3.09-.26a11.0008,11.0008,0,0,1-1.33,5.09s-1.72.16-2.15-.95c0,0-3.86,3.15-5.02,4.1a1.90713,1.90713,0,0,1-.16-1.08c.08-.6-.78,1.76-6.54,4.44,0,0-2.14-4.7,3.67-12.66,5.8-7.97.25-.35.25-.35s-.85-1.38-1.84-.81C41.19955,199.65,43.03955,195.89,46.21955,196.37Z"/>
        <path class="cls-6" d="M54.07955,197.63c-9.72,2.11-13,12.94-13,12.94.03-.11,2.93-11.19,12.89-13.35Z"/>
        <path class="cls-12" d="M70.85955,162.15s2.48-1.39,1.74-3.75c-.75-2.36,6.62,5.27,3.15,16.27,0,0-2.68,7.46-5.21,11.4s-1.64-4.39-2.17-5.48a20.8012,20.8012,0,0,1-9.79,2.05s-1.72-2.79-.21-4.45c0,0-8.63-3.9-11.23-5.06a3.75569,3.75569,0,0,1,1.7-1.19c1.1-.37-3.66.17-13.09-7.36,0,0,6.18-7.62,24.66-4.49s.8.12.8.12,1.63-2.63-.18-3.82C61.02955,156.39,68.98955,156.34,70.85955,162.15Z"/>
        <path class="cls-6" d="M75.38955,176.6c-11.83-14.76-33.03-11.16-33.03-11.16.21-.05,21.53-4.49,33.64,10.61Z"/>
        <path class="cls-9" d="M59.64955,184.3s-5.26,6.16-3.94,10.54c0,0-9.2.94-10.52,1.79-1.31.84,3.94,3.62,7.23,3.33,0,0-1.74,7.77-.1,9,0,0,4.27-3.15,5.58-6.44,0,0,5.95,3.73,8.45,4.16,0,0-2.05-8.14-4.51-9.09-.77-.3,6.57-1.86,9.2-2.74s-6.57-3.07-9.2-1.75C59.20955,194.41,62.70955,192.61,59.64955,184.3Z"/>
        <path class="cls-9" d="M58.39955,191.53s-2.52,2.55-1.91,4.59a34.50846,34.50846,0,0,0-4.84,1.16c-.61.39,1.84,1.69,3.38,1.55,0,0-.81,3.63-.05,4.2a8.95445,8.95445,0,0,0,2.6-3.01,18.65692,18.65692,0,0,0,3.94,1.94s-1.52-4.89-1.9-4.69c-.97.52,3.84-1.76,5.06-2.17,1.23-.41-4.04-.1-5.27.52C58.18955,196.25,59.82955,195.41,58.39955,191.53Z"/>
        <path class="cls-10" d="M57.64955,194.16s-1.25,1.46-.93,2.5a14.47074,14.47074,0,0,0-2.49.42c-.31.2.93.86,1.71.79,0,0-.41,1.84-.02,2.13a4.58479,4.58479,0,0,0,1.32-1.53,9.82349,9.82349,0,0,0,2,.99s-.48-2.13-1-1.93a13.56407,13.56407,0,0,1,2.22-1.42c.62-.21-1.67-.17-2.29.14S58.37955,196.13,57.64955,194.16Z"/>
        <path class="cls-9" d="M158.98955,257.47s-6.6,7.72-4.95,13.22c0,0-11.54,1.18-13.19,2.24s4.95,4.53,9.07,4.17c0,0-2.18,9.75-.13,11.29,0,0,5.35-3.96,7-8.08,0,0,7.46,4.67,10.6,5.22,0,0-2.57-10.21-5.65-11.4-.96-.37,8.25-2.34,11.54-3.44,3.3-1.1-8.25-3.85-11.54-2.2C158.43954,270.14,162.83955,267.89,158.98955,257.47Z"/>
        <path class="cls-9" d="M157.41955,266.54s-3.16,3.2-2.4,5.76c0,0-5.3.96-6.07,1.45s2.31,2.12,4.23,1.95c0,0-1.02,4.55-.06,5.27a11.36486,11.36486,0,0,0,3.27-3.77s3.48,2.18,4.95,2.44c0,0-1.9-6.14-2.38-5.88-1.21.65,4.81-2.21,6.35-2.72s-5.07-.12-6.61.65C157.16955,272.46,159.21956,271.4,157.41955,266.54Z"/>
        <path class="cls-10" d="M156.48955,269.84s-1.56,1.83-1.17,3.13a18.27559,18.27559,0,0,0-3.12.53c-.39.25,1.17,1.07,2.15.99,0,0-.52,2.31-.03,2.67a5.78338,5.78338,0,0,0,1.66-1.91,11.951,11.951,0,0,0,2.51,1.24s-.6-2.68-1.25-2.43a17.54838,17.54838,0,0,1,2.79-1.79c.78-.26-2.09-.21-2.87.18C156.35956,272.84,157.40955,272.31,156.48955,269.84Z"/>
        <path class="cls-9" d="M166.48955,285.57s-6.6,7.72-4.95,13.22c0,0-11.54,1.18-13.19,2.24s4.95,4.53,9.07,4.17c0,0-2.18,9.75-.13,11.29,0,0,5.35-3.96,7-8.08,0,0,7.46,4.67,10.6,5.22,0,0-2.57-10.21-5.65-11.4-.96-.37,8.25-2.34,11.54-3.44,3.3-1.1-8.25-3.85-11.54-2.2C165.93954,298.25,170.33955,295.99,166.48955,285.57Z"/>
        <path class="cls-9" d="M164.91955,294.64s-3.16,3.2-2.4,5.76c0,0-5.3.96-6.07,1.45s2.31,2.12,4.23,1.95c0,0-1.02,4.55-.06,5.27a11.365,11.365,0,0,0,3.27-3.77s3.48,2.18,4.95,2.44c0,0-1.9-6.14-2.38-5.88-1.21.65,4.81-2.21,6.35-2.72s-5.07-.12-6.61.65C164.66955,300.56,166.71956,299.5,164.91955,294.64Z"/>
        <path class="cls-10" d="M163.98955,297.94s-1.56,1.83-1.17,3.13a18.27559,18.27559,0,0,0-3.12.53c-.39.25,1.17,1.07,2.15.99,0,0-.52,2.31-.03,2.67a5.78338,5.78338,0,0,0,1.66-1.91,11.95153,11.95153,0,0,0,2.51,1.24s-.6-2.68-1.25-2.43a17.5485,17.5485,0,0,1,2.79-1.79c.78-.26-2.09-.21-2.87.18C163.85956,300.94,164.89955,300.41,163.98955,297.94Z"/>
        <path class="cls-8" d="M252.74956,176.03s.29,13.69-.15,19.66c-.43,5.97,10.3-12.28,10.41-14.43s2.36,6.47,18.92,14.54l-6.55-18.24s10.99,2.04,18.24-1.25l-13.82-6.37C279.80955,169.94,254.67955,170.88,252.74956,176.03Z"/>
        <path class="cls-9" d="M255.84956,175.92s10.46,18.49,10.21,21.91c0,0,6.93-24.58,5.31-24.89a34.37392,34.37392,0,0,0,19.95-3.1s-14.04-7.8-28.99-2.15C247.37956,173.33,255.84956,175.92,255.84956,175.92Z"/>
        <path class="cls-2" d="M273.41954,162.76s-20.4-3.58-22.74,18.71c0,0,5.73-5.73,7.44-8.47s3.16,3.66,5.04,6.29c1.87,2.63.48-2.96,1.08-6.16s7.46-2.78,10.71-4.1-3.94,0-6.54-3.02C265.79954,162.98,270.96956,163.29,273.41954,162.76Z"/>
        <path class="cls-3" d="M255.92955,129.27c-.14-.12-14.32-12.16-24.76-3.62l-.99-2.18c4.69-3.84,10.76-4.4,17.58-1.64a35.29175,35.29175,0,0,1,8.93,5.36Z"/>
        <path class="cls-3" d="M275.94954,143.24c-.19-.06-18.94-5.95-25.58,6.65l-1.86-1.72c2.98-5.66,8.67-8.71,16.44-8.82a37.75272,37.75272,0,0,1,10.9,1.54Z"/>
        <path class="cls-1" d="M264.28957,126.39a5.66259,5.66259,0,0,0-6.23.55,7.4954,7.4954,0,0,1-2.54.94,5.66847,5.66847,0,0,0-5.1,3.63,8.78867,8.78867,0,0,0,.68,7.31,7.24435,7.24435,0,0,0,7.34,4.01,9.54779,9.54779,0,0,0,3.64-1.07,9.33316,9.33316,0,0,0,3.46-1.54,7.21553,7.21553,0,0,0,2.98-7.81A8.74581,8.74581,0,0,0,264.28957,126.39Z"/>
        <path class="cls-1" d="M264.28957,126.39a5.66259,5.66259,0,0,0-6.23.55,7.4954,7.4954,0,0,1-2.54.94,5.11435,5.11435,0,0,0-2.11.47c1.21-.17,1.77,1.23,5.18-.32,3.17-1.44,7.35,2.51,6.97,7.17-.24,2.9-3.55,6.02-8.83,7.57a9.72373,9.72373,0,0,0,1.72.04,9.54779,9.54779,0,0,0,3.64-1.07,9.33327,9.33327,0,0,0,3.46-1.54,7.21554,7.21554,0,0,0,2.98-7.81A8.79489,8.79489,0,0,0,264.28957,126.39Z"/>
        <path class="cls-2" d="M256.44954,126.69a2.49493,2.49493,0,0,0-2.51-.66,2.6279,2.6279,0,0,1,1.4,1.14,2.85686,2.85686,0,0,0-2.36.91,2.73661,2.73661,0,0,1,2.26.2,1.7728,1.7728,0,0,0-.18.88,3.92365,3.92365,0,0,0,.35.87c.27-1,1.75-1.08,1.5-1.93a3.2674,3.2674,0,0,1,2.34.51c-.36-1.29-1.05-1.29-1.05-1.29.42-.63,1.62-.73,2.3-.77a2.49938,2.49938,0,0,0-2.46-.22,2.0597,2.0597,0,0,1,1.21-1.56,2.71586,2.71586,0,0,0-2.8,1.92Z"/>
        <path class="cls-1" d="M279.53957,136.69a6.35423,6.35423,0,0,0-6.2,3.29,8.6209,8.6209,0,0,1-2.22,2.08,6.348,6.348,0,0,0-3.69,5.97,9.83665,9.83665,0,0,0,3.9,7.26,8.10688,8.10688,0,0,0,9.33.94,10.48943,10.48943,0,0,0,3.29-2.7,10.39541,10.39541,0,0,0,2.9-3.11,8.12285,8.12285,0,0,0-.33-9.38A9.86144,9.86144,0,0,0,279.53957,136.69Z"/>
        <path class="cls-1" d="M279.53957,136.69a6.35423,6.35423,0,0,0-6.2,3.29,8.6209,8.6209,0,0,1-2.22,2.08,5.65631,5.65631,0,0,0-1.97,1.41c1.17-.7,2.37.5,5.21-2.59,2.64-2.87,8.7-.62,10.34,4.37,1.02,3.1-1.04,7.77-5.83,11.69a9.79443,9.79443,0,0,0,1.79-.71,10.48943,10.48943,0,0,0,3.29-2.7,10.39541,10.39541,0,0,0,2.9-3.11,8.12285,8.12285,0,0,0-.33-9.38A9.86156,9.86156,0,0,0,279.53957,136.69Z"/>
        <path class="cls-2" d="M271.55955,140.43a2.7817,2.7817,0,0,0-2.88.42,2.99477,2.99477,0,0,1,1.95.56,3.2073,3.2073,0,0,0-2.04,1.98,3.06179,3.06179,0,0,1,2.43-.78,1.96866,1.96866,0,0,0,.2.99,4.65617,4.65617,0,0,0,.74.75c-.16-1.15,1.33-1.88.71-2.65a3.65517,3.65517,0,0,1,2.65-.49c-.94-1.17-1.64-.87-1.64-.87.16-.84,1.35-1.46,2.05-1.8a2.8198,2.8198,0,0,0-2.64.85,2.337,2.337,0,0,1,.56-2.14c-1.17.49-2.40994,1.67-2.08994,3.18Z"/>
        <path class="cls-3" d="M224.58955,150.23l-1.01-1.25a32.81107,32.81107,0,0,1,7.49-4.3c5.9-2.44,11.61-2.68,16.49-.7l-.6,1.49C236.07954,141.07,224.70955,150.13,224.58955,150.23Z"/>
        <path class="cls-1" d="M227.68954,152.61a3.44459,3.44459,0,0,0-2.93-2.44,4.55512,4.55512,0,0,1-1.5-.69,3.44931,3.44931,0,0,0-3.76-.63,5.34614,5.34614,0,0,0-2.85,3.45,4.38591,4.38591,0,0,0,1.44,4.88,5.87545,5.87545,0,0,0,2.03,1.1,5.66446,5.66446,0,0,0,2.16.82,4.41975,4.41975,0,0,0,4.65-2.09A5.305,5.305,0,0,0,227.68954,152.61Z"/>
        <path class="cls-1" d="M227.68954,152.61a3.44459,3.44459,0,0,0-2.93-2.44,4.55512,4.55512,0,0,1-1.5-.69,3.1656,3.1656,0,0,0-1.11-.7c.59.45.23,1.29,2.37,2.09,1.99.74,2.1,4.24-.08,6.09-1.35,1.15-4.12,1.07-7.07-.53a7.24691,7.24691,0,0,0,.72.76,5.87527,5.87527,0,0,0,2.03,1.1,5.6644,5.6644,0,0,0,2.16.82,4.41977,4.41977,0,0,0,4.65-2.09A5.33359,5.33359,0,0,0,227.68954,152.61Z"/>
        <path class="cls-2" d="M224.17955,149.36a1.5057,1.5057,0,0,0-.8-1.36,1.59013,1.59013,0,0,1,.12,1.09,1.72757,1.72757,0,0,0-1.41-.62,1.62433,1.62433,0,0,1,.89,1.06,1.0737,1.0737,0,0,0-.46.3,2.70873,2.70873,0,0,0-.22.53c.54-.32,1.22.28,1.48-.19a1.98355,1.98355,0,0,1,.79,1.23c.4-.71.1-1.01.1-1.01.45-.09,1.01.38,1.33.66a1.526,1.526,0,0,0-.97-1.15,1.2641,1.2641,0,0,1,1.19-.16,1.67657,1.67657,0,0,0-2.04-.38Z"/>
      </g>
    </g>
  </g>
</svg>
