<svg xmlns="http://www.w3.org/2000/svg" viewBox="0 0 183.90585 348.98578">
  <defs>
    <style>
      .cls-1, .cls-6 {
        fill: #ead7b9;
      }

      .cls-1, .cls-2, .cls-3, .cls-4, .cls-5 {
        fill-rule: evenodd;
      }

      .cls-2 {
        fill: #d3c2a9;
      }

      .cls-3 {
        fill: #262525;
      }

      .cls-4 {
        fill: #130f22;
      }

      .cls-5 {
        fill: #f7f9fd;
      }

      .cls-7 {
        fill: #181b3b;
      }
    </style>
  </defs>
  <title>Asset 4</title>
  <g id="Layer_2" data-name="Layer 2">
    <g id="Layer_1-2" data-name="Layer 1">
      <path class="cls-1" d="M2.45587,310.79542q23.265,27.375,23.26,27.38c1.05,1.17,2.34-.31,3.09-1.38a4.43236,4.43236,0,0,0,.52-3.84,3.47319,3.47319,0,0,0-2.57-2.45q-1.71-1.89-8.13-19.91c-.72-1.94-.3-2.86,1.43-4.37l35.05-26.19q5.985-.3,11.73-11.94c2.73-2.1,10.58-10.47,19.25-17.54,7.69-6.28,10.01-3.72,13.1-22.52-8.61-13.92-26.79-3.73-30.63-4.04-5.44,7.29-11.91,17.24-14.76,20.82-2.82,3.3-4.12,4.85-5.98,5.42-11.7.67-14.78,5.82-23.08,20.61q-10.215,18.735-12.82,23.84a6.69355,6.69355,0,0,1-3.41,3.14c-2.94-1.18-6.17.3-7.66,3.5-1.49994,3.2-1.02994,6.52,1.61,9.47"/>
      <path class="cls-2" d="M36.52585,267.5254c1.74-5.17,5.56-9.26,10.53-10.54a12.52468,12.52468,0,0,1,8.04.59,18.62031,18.62031,0,0,1,4.59-11.6c5.5-6.1,13.94-6.24,19.58-.63.16.04.31.07.47.12.94-1.15,8.17-11.95,9.34-12.76-5.59-8.8-14.82-7.65-17.63-7.88-5.44,7.29-12.75,18.98-15.59,22.55-2.82,3.3-4.12,4.85-5.98,5.42-11.7.67-14.78,5.82-23.08,20.61q-1.605,2.94-3.01,5.53Z"/>
      <path class="cls-1" d="M144.0159,177.23543q-8.085-11.58-8.08-11.58s-.86,1.61-2.57,4.83a2.36258,2.36258,0,0,1-2.45.25,3.08528,3.08528,0,0,1-1.59-2.2c-1.44-4.56-7.45-3.77-10.95-1.34-3.51,2.42-3.83,5.12-4.33,11.91-.14,3.6,1.24,5.84,4.15,6.74l11.79.99c4.29.21,6.59009-.66,14.03009-9.6m-7.87-14.79,5.17-11.37q1.62-13.755,9.54-20.55c1.02-1.21.82-1.71-.59-1.51q-11.1,1.86-16.31-12.07c-1.86-6.11-2.74-5.49-9.22-9.61-8.09-5.04-9.48-17.88-6.62-27.4s11.35-16.07,19.6-15.79,15.79,6.86,19.02,16.59c1.26,3.43,3.07,9.3,9.5,13.39,15.69,8.73,16.86,10.62,17.67,20.69-.29,8.17-.56,12.69-2.17,15.79-3.31,6.54-11.14,18.89-33.47,40.2l-6.17-4.83a8.47245,8.47245,0,0,0-2.16-1.23,9.54975,9.54975,0,0,0-1.01-.51,7.697,7.697,0,0,0-1.63-.91C136.92587,163.04542,136.53586,162.72542,136.1459,162.44542Z"/>
      <path class="cls-2" d="M145.43588,124.7754q-5.94-1.755-9.29-10.77c-1.67-5.51-2.44-4.96-8.15-8.73-6.39-4.14-8.11-13.86-6.64-21.98a26.141,26.141,0,0,0,.92,4.56c2.83,9.61,10.53,15.61,18.73,15.5a26.876,26.876,0,0,0,.42,13.48,24.23158,24.23158,0,0,0,4.01007,7.94"/>
      <path class="cls-2" d="M152.56589,161.8054q-3.975,3.975-8.78,8.47l-.37-.06a14.108,14.108,0,0,0-.37-3.13,27.62784,27.62784,0,0,0,9.52-5.28m11.42-19.7c10.74-8.13,15.98-23.82,12.29-38.71,3.15,3.02,3.7,5.92,4.13,11.33-.27,7.67-.53,11.9-2.03,14.81-2.57,5.08-8.05,13.89-21.75,28.13A36.628,36.628,0,0,0,163.98587,142.10542Z"/>
      <path class="cls-3" d="M154.03586,161.76542q-2.7-2.31-5.41-4.62-2.7-2.31-5.41-4.62a1.78218,1.78218,0,0,0-2.87.4c-1.16,2.18-2.31,4.36-3.47,6.54q-1.725,3.27-3.47,6.54a2.80294,2.80294,0,0,0,.55,3.31c1.56,1.33,3.12,2.67,4.69,4,1.56,1.33,3.12,2.67,4.68,4a1.91823,1.91823,0,0,0,2.85-.42c1.4-1.97,2.81-3.93,4.21-5.9s2.81-3.93,4.21-5.9a2.547,2.547,0,0,0-.56012-3.33"/>
      <path class="cls-1" d="M113.86588,348.96541q32.895-1.11,32.9-1.12c1.45-.09,1.42-2.22,1.26-3.59a3.84119,3.84119,0,0,0-2.02-3.08,2.92535,2.92535,0,0,0-3.28.51q-2.34.165-17.89-6.71c-1.69-.72-1.98-1.7-1.72-4.23l7.85-47.96q3.915-5.325.66-18.23,1.59-10.485,3.18-29.68c-14.52-2.18-26.47-4.15-29.3-1.08.78,9.66,2.5,21.06,2.75,25.95.11,4.68.17,6.85-.75,8.84-7.61,10.47-6.54,16.64-3.09,33.89q4.575,21.585,5.95,27.33a8.9195,8.9195,0,0,1-.4,5.08c-2.74,1.7-4.05,5.48-3.09,8.95.98011,3.48,3.3501,5.37,6.99012,5.13"/>
      <path class="cls-2" d="M110.47586,290.12541a19.999,19.999,0,0,1,.7-16.24,15.83734,15.83734,0,0,1,5.88-6.48,18.98059,18.98059,0,0,1-4.03-11.88c0-8.89,5.71-16.21,13.04-17.18.13-.11.26-.22.39-.32a20.43118,20.43118,0,0,1,.34-4.75c-9.28-1.26-16.23-1.71-18.31.54.78,9.66,2.5,21.06,2.76,25.95.11,4.68.17,6.85-.75,8.84-7.61,10.47-6.54,16.64-3.09,33.89.48,2.25.93,4.38,1.36,6.37Z"/>
      <path class="cls-4" d="M74.80588,170.72542q32.01,9,56.29,4.68,5.82,32.655,4.51,59.01c-8.52,5.43-21.96,5.78-30.85,1.26,0,0-1.12-9.97-2.28-27.1-.26-4.11-.96-2.95-1.19.1,0,0-.82,11.33-3.24,26.65-10.41,4.11-25.21,2.2-34.66-4.36a200.8437,200.8437,0,0,1,11.42-60.24"/>
      <path class="cls-5" d="M68.8959,232.15541a3.74408,3.74408,0,0,0,2.23.66q5.865-44.1,9.8-58.18s-.8-.41-2.4-1.24q-5.595,20.655-9.63,58.76"/>
      <path class="cls-5" d="M74.58585,233.68541a3.74407,3.74407,0,0,0,2.23.66q5.865-44.1,9.8-58.18s-.8-.41-2.4-1.24q-5.59488,20.64-9.62994,58.76"/>
      <path class="cls-1" d="M77.3959,175.18541c18,7.28,37.59,10.34,51.84,2.74,4.1-2.49,2.25-12.6,1.53-28.97-.67-9.81,11.72-32.96,5.97-58.4-2.11-9.73-6.68-15.64-11.44-16.92q-4.35-1.035-10.59-7.46s-2.84-3.37-8.52-10.11c0,0-8.88-3.94-27.87-3.85-4.08,9.59-6.74,18.37-6.74,18.37-1.2,2.01-3.49,3.84-7.54,6.84q-8.625,6.105-8.62,6.1c-10.33,7.69-10.89,18.35-.75,34.71q15.405,22.005,16.42,28.5c2.15,16.62006,3.18,27.04,6.31,28.45005"/>
      <path class="cls-2" d="M84.21585,170.1154c14.64,6.06,30.58,8.6,42.17,2.28a3.15879,3.15879,0,0,0,.98-.98c-7.05-8.08-9.97-20.4-6.63-32.06a30.39733,30.39733,0,0,1,12.14-17.2,60.693,60.693,0,0,0-.39-22.42,31.03956,31.03956,0,0,0-2.27-6.92c-4.79,8.42-12.99,13.97-22.32,13.99-13.16,2.37-25.95-6.95-29.75-21.95a45.04326,45.04326,0,0,1-4.79,3.97l-7.01,5.07c-8.41,6.4-8.86,15.26-.61,28.87q12.525,18.3,13.35,23.7c1.74011,13.82007,2.58007,22.48008,5.13006,23.65006"/>
      <path class="cls-1" d="M114.25589,121.63542c3.86,2.32,18.38,1.94,20.12-5.32,1.66-7.85,1.47-16.61-2.98-33.02-1.38-5.06-4.85-7.16-9.24-7.29-13.59-.25-24.94,3.54-19.24,15.34,7.80994,18.49,6.16,28.32,11.34,30.29"/>
      <path class="cls-1" d="M82.49588,133.32542l20.39-4.44c3.25-.71,6.39,1.84,7,5.66h0c.6,3.82-1.56,7.52-4.81,8.23l-20.39,4.44c-3.25.71-6.39-1.84-7-5.66h0c-.6-3.82,1.56-7.52,4.81-8.23"/>
      <path class="cls-1" d="M87.81589,149.3054l16.49-3.59c2.63-.57,5.17,1.49,5.66,4.57h0c.49,3.09-1.26,6.08-3.89,6.66l-16.49,3.59c-2.63.57-5.17-1.49-5.66-4.57h0c-.49-3.1,1.26-6.09,3.89-6.66"/>
      <path class="cls-1" d="M90.75589,162.94542l14.57-3.18c2.32-.51,4.57,1.31,5,4.04s-1.12,5.38-3.44,5.88l-14.57,3.18c-2.32.51-4.57-1.31-5-4.04-.43-2.72,1.12-5.37,3.44-5.88"/>
      <path class="cls-1" d="M125.67587,127.5254l-7.78-.03c-3.36-.01-6.11,3.21-6.12,7.16,0,3.95,2.74,7.19,6.1,7.21l7.78.03c3.36.01,6.11-3.21,6.12-7.16,0-3.95-2.74-7.19-6.1-7.21"/>
      <path class="cls-1" d="M124.44589,144.66542l-6.3-.03c-2.72-.01-4.94,2.59-4.95,5.79h0c0,3.2,2.22,5.82,4.93,5.83l6.3.03c2.72.01,4.94-2.59,4.95-5.79h0c0-3.2-2.22-5.82-4.93-5.83"/>
      <path class="cls-1" d="M124.18588,158.95543l-5.57-.02c-2.4-.01-4.37,2.29-4.37,5.11h0c0,2.82,1.96,5.14,4.36,5.15l5.56.02c2.4.01,4.37-2.29,4.37-5.11h0c.01-2.82-1.95-5.14-4.35-5.15"/>
      <path class="cls-1" d="M75.15585,130.09541c5.65,1.96,28.97-1.32,30.89-9.45,1.79-8.75-1.85-17.44-9.38-34.59-2.32-5.29-7.42-7.06-13.65-6.58-19.32,1.69-29.76,9.68-26.2,19.4,8.21,18.84,13.76007,29.81,18.34,31.22"/>
      <path class="cls-1" d="M42.8959,198.31541q8.34-11.325,8.34-11.32s.82,1.64,2.46,4.91a2.31582,2.31582,0,0,0,2.44.32,3.01915,3.01915,0,0,0,1.64-2.15c1.54-4.52,7.53-3.54,10.98-1,3.45,2.53,3.71,5.24,4.06,12.04q.09,5.4-4.31,6.6s-3.94.21-11.81.62c-4.2901.09-6.57006-.86-13.80005-10.02m8.2-14.54-4.91-11.52q-1.305-13.8-9.07-20.84c-.99-1.24-.78-1.74.62-1.49q11.055,2.205,16.58-11.55c1.99-6.05,2.87-5.4,9.43-9.32,8.2-4.79,9.88-17.58,7.24-27.18-2.65-9.61-10.99-16.42-19.24-16.39s-15.93,6.36-19.39,15.99c-1.34,3.39-3.28,9.21-9.8,13.09-15.88,8.24-17.1,10.09-18.13,20.13.1,8.18.28,12.71,1.81,15.86,3.17,6.64,10.71,19.23,32.55,41.24l6.28-4.63a8.49086,8.49086,0,0,1,2.18-1.16,9.48737,9.48737,0,0,1,1.02-.48,8.095,8.095,0,0,1,1.65-.86A12.15869,12.15869,0,0,1,51.09586,183.7754Z"/>
      <path class="cls-2" d="M42.65585,145.82542q5.985-1.56,9.53-10.47c1.8-5.46,2.56-4.88,8.34-8.48,6.48-3.94,8.42-13.61,7.13-21.76a26.5561,26.5561,0,0,1-1.02,4.52c-3.05,9.52-10.88,15.27-19.08,14.91a26.77638,26.77638,0,0,1-.73,13.46,23.60367,23.60367,0,0,1-4.17,7.82"/>
      <path class="cls-2" d="M34.68588,182.6154q3.885,4.095,8.59,8.74l.37-.05a13.97722,13.97722,0,0,1,.44-3.12,27.95176,27.95176,0,0,1-9.4-5.57m-10.96-20.04c-10.55-8.46-15.44-24.31-11.42-39.08-3.22,2.92-3.83,5.8-4.39,11.19.09,7.67.26,11.92,1.7,14.87,2.46,5.16,7.73,14.14,21.1,28.8A37.14468,37.14468,0,0,1,23.72586,162.57542Z"/>
      <path class="cls-3" d="M33.22586,182.5254c1.84-1.48,3.67-2.96,5.51-4.45,1.84-1.48,3.67-2.96,5.51-4.45a1.78575,1.78575,0,0,1,2.86.49c1.11,2.22,2.21,4.43,3.32,6.65,1.11,2.21,2.21,4.43,3.32,6.64a2.78954,2.78954,0,0,1-.62,3.29q-2.385,1.935-4.77,3.85c-1.59,1.28-3.18,2.57-4.77,3.85a1.932,1.932,0,0,1-2.84-.5q-2.04-3.015-4.08-6.03t-4.08-6.03a2.53478,2.53478,0,0,1,.64007-3.31"/>
      <path class="cls-6" d="M78.61588,62.11541l30.03-4.13a10.8744,10.8744,0,0,0,6.4-13.41l-3.05-8.7,3.03-1.48a2.17093,2.17093,0,0,0,.71-3.35l-13.62-10.82-2.31-5.33c-.38-.87-4.52-4.25-5.39-3.88l-30.36,17.49Z"/>
      <path class="cls-7" d="M86.31589.73541c-.03.01-.06.03-.09.04a10.92581,10.92581,0,0,1-2.93,1.09,15.85615,15.85615,0,0,1-2.57-.12,25.93947,25.93947,0,0,0-4.6.72c-2.04.3-3.54.53-5.23,1.91-1.72,1.41-3.06,3.23-4.76,4.65-2.99,2.48-7.2,3.88-8.75,7.43-1.13,2.57-.49,5.54.17,8.27,1.32,5.52,2.66,11.09,4.99,16.28,2.92,6.49,9.67,10.36,12.34,17.05a7.07021,7.07021,0,0,0,.66,1.42,5.5016,5.5016,0,0,0,.75.85c1.1,1.1,2.21,2.2,3.31,3.3a4.01153,4.01153,0,0,1-1.05-2.79c.34-2.19,1.22-2.55.35-4.67-.74-1.82-.82-3.84-1.56-5.66a8.79961,8.79961,0,0,1-1.04-3.66c.06-1.43,1.28-2.32,1.47-3.6.18-1.2-.81-2.18-1.13-3.32a11.07359,11.07359,0,0,1-.06-4.96c.28-1.47.85-3.08,2.21-3.71a3.8104,3.8104,0,0,1,4.07,1.08,19.32685,19.32685,0,0,1,2.49,3.72,31.22528,31.22528,0,0,0,7.05,7.42,14.08284,14.08284,0,0,1-2.5-4.39c1.01.25,2.03.5,3.04.76a33.065,33.065,0,0,1-3.37-7.66c-.73-2.78-.08-6.08.31-8.87.24-1.73.49-3.47.73-5.2a4.99784,4.99784,0,0,1,1.04-2.88,4.12139,4.12139,0,0,1,3.77-.78c2.75.53,7.14.7,9.08-1.82.98-1.27.5-1.72-.33-2.85-1.03-1.41-1.38-1.97-1.14-3.75a2.2683,2.2683,0,0,0-.16-1.18,1.1352,1.1352,0,0,1-.14-.53,1.46876,1.46876,0,0,1,.23-.47,1.53441,1.53441,0,0,0-.65-1.89,4.58119,4.58119,0,0,0-2.1-.54C95.74588,1.06541,90.67587-1.11458,86.31589.73541Z"/>
    </g>
  </g>
</svg>
