<svg xmlns="http://www.w3.org/2000/svg" viewBox="0 0 296.69802 654.37519">
  <defs>
    <style>
      .cls-1 {
        fill: #26773b;
      }

      .cls-2 {
        fill: #3b70b7;
      }

      .cls-3 {
        fill: #33612f;
      }

      .cls-4 {
        fill: #8dc641;
      }

      .cls-5 {
        fill: #f04c24;
      }

      .cls-6 {
        fill: #c3da54;
      }

      .cls-7 {
        fill: #046937;
      }

      .cls-8 {
        fill: #37964a;
      }

      .cls-9 {
        fill: #628b3c;
      }
    </style>
  </defs>
  <title>Asset 3</title>
  <g id="Layer_2" data-name="Layer 2">
    <g id="Layer_1-2" data-name="Layer 1">
      <g>
        <path class="cls-1" d="M253.91293,461.72517c4.05,3.65,3.05,11.83,2.3,15.72a1.08427,1.08427,0,0,1-1.11-.16,29.50147,29.50147,0,0,0-.52-8.63c-1.04-3.66-2.98-4.86-2.98-4.86A2.0069,2.0069,0,0,1,253.91293,461.72517Z"/>
        <g>
          <polygon class="cls-2" points="178.653 654.375 98.553 654.375 72.263 533.235 201.983 533.235 178.653 654.375"/>
          <rect class="cls-2" x="59.38293" y="517.08515" width="154.79001" height="16.15002"/>
          <path class="cls-3" d="M108.183,123.11515s-27.47-4.84-37.2,18.48c0,0,9.89,2.56,12.37.65,0,0-17.3,12.76-17.23,31.93,0,0,9.17-4.24,12.47-5.09,0,0-10.89,10.08-2.94,22.61,0,0,4.47-7.4,6.6-9.04,0,0-2.07,6.12,8.17,15.75a6.6554,6.6554,0,0,1,2.54-4.78s10.52,9.99,16.61,9.82c0,0-8.91-17.44-3.59-21.54,2.13-1.64,4.94,1.28,7.13,4.12s.59-16.84-2.11-18.15,5.98-1.78,8.05-.55c2.08,1.23-4.03-13.31-2.69-17.44s2.41,2.39,10.22,3.73C134.3829,154.92515,118.433,123.32517,108.183,123.11515Z"/>
          <path class="cls-4" d="M108.55294,112.33515c-27.46,30.35-12.49,74.4-12.49,74.4-.17-.44-16.99-44.45,11.11-75.51Z"/>
          <path class="cls-5" d="M119.74294,347.29518c-2.7-9.16-11.22-16.63-20.83-17.37-2.04-.16-9.22-3.46-10.67-4.91-6.83-6.81-18.05-8.4-26.76-4.48-10.34,4.66-17.22,14.07-20.27,24.53-3.88,13.29-.85,25.01,10.27,34.76,6.21,5.44,9.5,5.56,14.44,7.83s7.18,4.69,15.35,5.85c14.63,2.09,25.5-3.25,33.06-14.85C120.28292,369.53517,122.95291,358.17518,119.74294,347.29518Z"/>
          <path class="cls-5" d="M119.74294,347.29518c-2.7-9.16-11.22-16.63-20.83-17.37-2.04-.16-9.22-3.46-10.67-4.91a22.15072,22.15072,0,0,0-7.93-5c4.23,3.18,1.66,9.2,16.87,14.87,14.14,5.26,14.91,30.2-.55,43.35-9.6,8.16-29.32,7.61-50.31-3.79a41.04612,41.04612,0,0,0,5.15,5.38c6.21,5.44,9.5,5.56,14.44,7.83s7.18,4.69,15.35,5.85c14.63,2.09,25.5-3.25,33.06-14.85C120.28292,369.53517,122.95291,358.17518,119.74294,347.29518Z"/>
          <path class="cls-1" d="M94.74291,324.23518a10.80287,10.80287,0,0,0-5.7-9.71c.98,2.51,1.6,4.55.84,7.78-1.43-1.97-6.26-5.13-10.04-4.41,3.6,2.17,5.31,3.98,6.35,7.53a7.48089,7.48089,0,0,0-3.24,2.15,18.59422,18.59422,0,0,0-1.59,3.75c3.87-2.25,8.68,2.02,10.53-1.34,0,0,5.25,3.75,5.63,8.74,2.83-5.06.72-7.16.72-7.16,3.23-.64,7.21,2.7,9.43,4.69-.54-3.27-3.28-7.1-6.87-8.2a9.00055,9.00055,0,0,1,8.48-1.11c-3.57995-3.38013-9.62994-6.09009-14.54-2.71008Z"/>
          <path class="cls-1" d="M103.85293,311.73518c-6.26,1.52-9.81,10.57-11.21,15.03a1.27283,1.27283,0,0,0,1.24.46c1.19-2.55,3.21-6.44,5.38-8.67,3.13-3.21,5.82-3.38,5.82-3.38A2.35753,2.35753,0,0,0,103.85293,311.73518Z"/>
          <path class="cls-5" d="M57.14291,373.60517a5.13352,5.13352,0,0,1-3.87-1.75c-10.03-11.39-8.69-22.66-5.8-30.1a39.2258,39.2258,0,0,1,8.46-12.97,5.14883,5.14883,0,0,1,7.13,7.43,29.197,29.197,0,0,0-6.09,9.55c-2.6,6.95-1.28,13.26,4.03,19.29a5.14438,5.14438,0,0,1-3.86,8.55Z"/>
          <path class="cls-5" d="M171.48293,258.54518c-1.01-9,3.69-18.66,11.82-22.85,1.72-.89,6.79-6.41,7.52-8.21,3.47-8.46,12.69-13.98,21.74-13.75,10.75.27,20.23,5.97,26.74,13.99,8.28,10.2,9.93,21.56,3.8,34.16-3.42,7.04-6.26,8.35-9.74,12.16-3.49,3.8-4.56,6.74-11.27,10.76-12.03,7.2-23.49,6.53-34.36-.84C179.183,278.18516,172.683,269.23518,171.48293,258.54518Z"/>
          <path class="cls-5" d="M171.48293,258.54518c-1.01-9,3.69-18.66,11.82-22.85,1.72-.89,6.79-6.41,7.52-8.21a21.10968,21.10968,0,0,1,5.09-7.29c-2.53,4.33,1.93,8.65-9.28,19.2-10.43,9.8-1.93,31.88,16.41,37.69,11.39,3.61,28.43-4.12,42.58-21.8a38.87846,38.87846,0,0,1-2.53,6.6c-3.42,7.04-6.26,8.35-9.74,12.16-3.49,3.8-4.56,6.74-11.27,10.76-12.03,7.2-23.49,6.53-34.36-.84C179.183,278.18516,172.683,269.23518,171.48293,258.54518Z"/>
          <path class="cls-1" d="M184.86294,229.19517a10.2749,10.2749,0,0,1,1.41-10.58,10.94566,10.94566,0,0,0,2.13,7.11c.52-2.24,3.59-6.79,7.16-7.55-2.35,3.22-3.18,5.43-2.78,8.92a7.1074,7.1074,0,0,1,3.63.69,17.71982,17.71982,0,0,1,2.77,2.7c-4.2-.54-6.84,4.95-9.7,2.7,0,0-3.22,5.21-1.71,9.71-4.34-3.38-3.26-5.99-3.26-5.99-3.06.63-5.31,5.01-6.52,7.57-.73-3.06.25-7.41,2.99-9.69a8.5351,8.5351,0,0,0-7.82,2.15c1.87011-4.3,6.1701-8.89,11.70013-7.74Z"/>
          <path class="cls-1" d="M172.30294,221.62516c6.03-.97,12.46,5.63,15.33,9.02a1.22254,1.22254,0,0,1-.92.86c-1.98-1.79-5.17-4.45-7.89-5.6-3.92-1.65-6.33-.81-6.33-.81A2.24512,2.24512,0,0,1,172.30294,221.62516Z"/>
          <path class="cls-5" d="M233.97292,259.18516a5.21767,5.21767,0,0,1-1.64-.27,5.15135,5.15135,0,0,1-3.24-6.53c5.72-17.02-11.49-23.82-12.23-24.1a5.14993,5.14993,0,0,1,3.68-9.62,37.7542,37.7542,0,0,1,12.26,8.3c5.32,5.5,10.68,14.95,6.06,28.71A5.15443,5.15443,0,0,1,233.97292,259.18516Z"/>
          <path class="cls-5" d="M229.00289,425.07514c-6.4-4.94-15.96-5.84-22.93-1.58-1.48.9-8.05,2.21-9.76,1.94-8.07-1.28-16.56,3.2-20.59,10.22-4.78,8.33-4.83,18.22-1.73,26.91,3.94,11.05,11.85,17.59,24.32,18.75,6.96.65,9.29-.9,13.81-1.8s7.26-.35,13.45-3.61c11.08-5.84,15.89-14.9,15.31-26.62C240.42294,440.06513,236.61294,430.94514,229.00289,425.07514Z"/>
          <path class="cls-5" d="M229.00289,425.07514c-6.4-4.94-15.96-5.84-22.93-1.58-1.48.9-8.05,2.21-9.76,1.94a18.62232,18.62232,0,0,0-7.93.51c4.48.08,5.71,5.49,18.97,1.82,12.32-3.41,25.24,13.32,21.16,30.02-2.53,10.37-16.34,19.79-36.41,22.4a34.4184,34.4184,0,0,0,6.21,1.13c6.96.65,9.29-.9,13.81-1.8s7.26-.35,13.45-3.61c11.08-5.84,15.89-14.9,15.31-26.62C240.42294,440.06513,236.61294,430.94514,229.00289,425.07514Z"/>
          <path class="cls-1" d="M200.3829,421.66517a9.15132,9.15132,0,0,0-8.73-3.83,9.74632,9.74632,0,0,1,4.44,4.93c-1.96-.64-6.85-.41-9.08,1.97,3.55-.3,5.62.09,8.1,2.02a6.33764,6.33764,0,0,0-1.15,3.09,15.13163,15.13163,0,0,0,.78,3.37c1.54-3.47,6.96-2.93,6.56-6.15,0,0,5.47-.04,8.21,3.2-.57-4.88-3.06-5.27-3.06-5.27,1.9-2.04,6.29-1.73,8.8-1.47a9.24113,9.24113,0,0,0-8.79-2.21,7.62819,7.62819,0,0,1,5.27-4.97c-4.16-.59-9.66.57-11.35,5.32Z"/>
          <path class="cls-1" d="M200.433,408.56513c-3.54,4.15-1.48,12.13-.22,15.89a1.08141,1.08141,0,0,0,1.08-.3,29.19712,29.19712,0,0,1-.61-8.62c.55-3.76,2.31-5.21,2.31-5.21A1.99915,1.99915,0,0,0,200.433,408.56513Z"/>
          <path class="cls-5" d="M196.55294,475.84516a4.92253,4.92253,0,0,1-1.14-.13c-12.93-2.92-17.75-11.59-19.52-18.35a33.68215,33.68215,0,0,1-.66-13.45,5.15687,5.15687,0,0,1,10.15,1.83c-.29,1.71-2.41,16.59,12.31,19.91a5.15927,5.15927,0,0,1-1.14,10.19006Z"/>
          <path class="cls-6" d="M279.27291,481.82514c-5.7-5.74-15.06-7.87-22.53-4.56-1.59.7-8.27,1.14-9.93.65-7.84-2.32-16.84,1.01-21.75,7.44-5.83,7.64-7.17,17.43-5.23,26.45,2.47,11.47,9.45,18.99,21.66,21.77,6.82,1.56,9.33.32,13.92.02,4.6-.3,7.24.6,13.8-1.83,11.75-4.35,17.7-12.7,18.65-24.4C288.6329,498.18519,286.04293,488.64515,279.27291,481.82514Z"/>
          <path class="cls-1" d="M255.67294,474.71516a9.17677,9.17677,0,0,1,8.16-4.94,9.764,9.764,0,0,0-3.76,5.47c1.85-.89,6.73-1.3,9.26.76-3.56.17-5.56.83-7.77,3.06a6.32564,6.32564,0,0,1,1.55,2.91,15.74979,15.74979,0,0,1-.33,3.44c-1.98-3.23-7.28-1.99-7.31-5.24,0,0-5.43.68-7.72,4.25-.07-4.91,2.34-5.63,2.34-5.63-2.15-1.78-6.46-.89-8.92-.3a9.23931,9.23931,0,0,1,8.43-3.34,7.59434,7.59434,0,0,0-5.88-4.24c4.05-1.11993,9.65-.7,11.95,3.8Z"/>
          <path class="cls-7" d="M253.5129,465.72517c-11.78-54.1-38.2-64.21-38.46-64.3-12.82-4.94-24.56-4.54-34.92,1.18-27.4,15.15-36.93,62.61-37.02,63.09l-2.89-.56a152.4218,152.4218,0,0,1,8.35-26.46c5.47-13.05,15.14-30.35,30.14-38.64,11.16-6.17,23.73-6.63,37.37-1.37,1.12.4,28.19,10.75,40.31,66.43Z"/>
          <path class="cls-7" d="M257.16293,410.13514c-.21-.17-21.09-16.81-41.06-8.73l-1.1-2.73c8.97-3.63,19.44-3.18,30.27,1.29a60.13684,60.13684,0,0,1,13.74,7.88Z"/>
          <path class="cls-7" d="M199.58291,420.04518l-2.53-1.5c.07-.12,6.8-11.77.07-21.19l2.4-1.71C207.36294,406.64515,199.90292,419.50514,199.58291,420.04518Z"/>
          <path class="cls-6" d="M11.23293,207.79518c5.7-5.74,15.06-7.87,22.53-4.56,1.58.7,8.27,1.14,9.93.65,7.84-2.32,16.84,1.01,21.75,7.44,5.83,7.64,7.17,17.43,5.22,26.45-2.47,11.47-9.45,18.99-21.66,21.77-6.82,1.56-9.32.32-13.92.02s-7.24.6-13.8-1.82c-11.75-4.34-17.7-12.7-18.66-24.4C1.86291,224.14515,4.46292,214.60517,11.23293,207.79518Z"/>
          <path class="cls-1" d="M34.82293,200.67515a9.15813,9.15813,0,0,0-8.16-4.94,9.83378,9.83378,0,0,1,3.76,5.47c-1.85-.89-6.73-1.3-9.26.76,3.56.17,5.56.83,7.77,3.06a6.32546,6.32546,0,0,0-1.55,2.91,15.7497,15.7497,0,0,0,.33,3.44c1.98-3.23,7.28-2,7.31-5.24,0,0,5.43.67,7.72,4.25.07-4.91-2.35-5.63-2.35-5.63,2.15-1.78,6.46-.89,8.92-.3a9.23912,9.23912,0,0,0-8.43-3.34,7.5943,7.5943,0,0,1,5.88-4.24c-4.03-1.12-9.64-.69-11.94,3.8Z"/>
          <path class="cls-1" d="M36.58291,187.68516c-4.05,3.65-3.06,11.83-2.3,15.72a1.08417,1.08417,0,0,0,1.11-.16,29.50218,29.50218,0,0,1,.52-8.63c1.04-3.66,2.98-4.86,2.98-4.86A2.00392,2.00392,0,0,0,36.58291,187.68516Z"/>
          <path class="cls-7" d="M36.98293,191.68516l-2.88-.63c12.12-55.68,39.2-66.03,40.34-66.45,22.33-8.62,42.03-1.62,56.95,20.25l-2.43,1.66c-14.26-20.9-32.26-27.34-53.49-19.15C75.19293,127.48518,48.72292,137.77516,36.98293,191.68516Z"/>
          <path class="cls-7" d="M33.34292,136.09516l-1.86-2.29a60.22759,60.22759,0,0,1,13.74-7.89c10.84-4.47,21.31-4.92,30.27-1.29l-1.1,2.73C54.42294,119.29518,33.55291,135.92515,33.34292,136.09516Z"/>
          <path class="cls-1" d="M137.59292,523.92518l-4.37-.61c.11-.8,11.14-80.97,11.6-179.47.42-90.76-8.3-216.08-52.22-297.7l3.89-2.09c44.37,82.45,53.17,208.58,52.75,299.87C148.7629,442.71516,137.70291,523.12519,137.59292,523.92518Z"/>
          <path class="cls-5" d="M148.873,62.39515c-8.58-4.2-19.84-2.96-26.88,3.62-1.49,1.39-8.78,4.46-10.82,4.56-9.64.44-18.39,7.63-21.38,16.7-3.55,10.77-1.26,22.21,4.39,31.52,7.18,11.84,17.87,17.52,32.57,15.91,8.2-.9,10.52-3.25,15.53-5.36s8.31-2.13,14.69-7.37c11.42-9.38,14.83-21,11.38-34.41C165.64291,77.01518,159.063,67.38517,148.873,62.39515Z"/>
          <path class="cls-5" d="M148.873,62.39515c-8.58-4.2-19.84-2.96-26.88,3.62-1.49,1.39-8.78,4.46-10.82,4.56a22.1543,22.1543,0,0,0-9.05,2.47c5.2-.97,7.9,4.99,22.36-2.4,13.43-6.87,32.34,9.41,31.59,29.68-.47,12.6-14.2,26.77-36.77,34.54a41.69147,41.69147,0,0,0,7.45-.16c8.2-.9,10.52-3.25,15.53-5.36s8.31-2.13,14.69-7.37c11.42-9.38,14.83-21,11.38-34.41C165.64291,77.01518,159.063,67.38517,148.873,62.39515Z"/>
          <path class="cls-1" d="M114.98293,65.25517a10.81149,10.81149,0,0,0-11.01-2.36c2.51.97,4.44,1.89,6.3,4.64-2.41-.28-8.01,1.15-10.04,4.43,4.03-1.19,6.53-1.23,9.85.41a7.42551,7.42551,0,0,0-.6,3.85,18.105,18.105,0,0,0,1.7,3.7c.96-4.37,7.35-5.04,6.12-8.67,0,0,6.31-1.34,10.25,1.76-1.81-5.51-4.79-5.37-4.79-5.37,1.72-2.81,6.86-3.49,9.83-3.79-2.78-1.81-7.45-2.38-10.69-.47a8.98726,8.98726,0,0,1,4.92-7c-4.93.33-11.02,2.97-11.84,8.87Z"/>
          <path class="cls-1" d="M111.92294,50.09516c-3.11,5.64,1.16,14.37,3.51,18.42a1.28284,1.28284,0,0,0,1.18-.6c-1.08-2.6-2.58-6.72-2.76-9.82-.25-4.48,1.44-6.57,1.44-6.57A2.35219,2.35219,0,0,0,111.92294,50.09516Z"/>
          <path class="cls-3" d="M64.90292,1.52516s6.96-6.68,30.9,7.92,25.54,16.2,22.37,24.58l-9.67-3.66s-4.95,16.93-10.44,20.75c0,0-1.02-3.13-2.51-4.07s-19.02,19.23-24.03,21.75c0,0-1.6-4.7-1.23-5.67s-9.52,12.6-24.49,17.96c-1.29.46-1.28-.5-1.28-.5s1.24-19.8,5.38-27.81.67-1.77.67-1.77,2.13-4.63-.1-3.63c-2.22,1,3.87-11.2,10.46-14.96,0,0,.57-8.33-4.79-7.78s12.98-18.69,16.77-17.99C76.71292,7.32516,64.90292,1.52516,64.90292,1.52516Z"/>
          <path class="cls-8" d="M106.75289,12.61517c-39.48,10.8-50.56,55.98-50.56,55.98.09-.46,9.6-46.61,50-57.66Z"/>
          <path class="cls-9" d="M135.48293,15.39517s2.75-5.51,7.92-4.13-12.06-13.78-35.48-5.17c0,0-15.85,6.55-24.12,12.4s9.65,3.1,12.06,4.13a45.05618,45.05618,0,0,0-3.45,21.36s6.2,3.44,9.65,0c0,0,9.3,18.26,12.06,23.77a8.04941,8.04941,0,0,0,2.41-3.79c.69-2.41,0,7.92,17.23,27.56,0,0,15.85-14.13,7.24-53.74-8.61-39.62-.34-1.72-.34-1.72s5.52-3.79,8.27,0C148.91293,36.06516,148.23293,18.84516,135.48293,15.39517Z"/>
          <path class="cls-4" d="M103.813,7.04516c33.09,24.1,27.44,70.27,27.44,70.27.08-.47,7.54-46.98-26.31-71.64Z"/>
          <path class="cls-3" d="M108.33291,181.77516s7.27-6.34,30.48,9.39,24.74,17.41,21.16,25.63l-9.48-4.13s-5.75,16.68-11.43,20.22c0,0-.87-3.18-2.31-4.19s-19.92,18.29-25.04,20.58c0,0-1.37-4.77-.96-5.72s-10.12,12.13-25.32,16.76c-1.31.4-1.26-.56-1.26-.56s2.19-19.71,6.71-27.52c4.52-7.8.76-1.74.76-1.74s2.35-4.52.08-3.63,4.41-11,11.16-14.45c0,0,.96-8.29-4.41-8-5.38.29,13.86-18.05,17.62-17.17C119.84292,188.13517,108.33291,181.77516,108.33291,181.77516Z"/>
          <path class="cls-8" d="M149.60293,194.85517c-39.95,8.9-53.19,53.49-53.19,53.49.11-.46,11.82-46.09,52.7-55.2Z"/>
          <path class="cls-3" d="M178.91293,163.18516s-3.56-5.03.09-8.93c3.65-3.91-17.84,4.13-21.3,28.85,0,0-1.7,17.06-.44,27.11s7.29-7.04,9.33-8.68a44.98139,44.98139,0,0,0,17.2,13.12s5.96-3.84,4.55-8.5c0,0,20.49.41,26.65.58a8.09622,8.09622,0,0,0-2.2-3.91c-1.8-1.75,6.98,3.74,32.42-2.19,0,0-4.98-20.64-43.97-31.74s-1.68-.51-1.68-.51-.74-6.65,3.9-7.29C203.47292,161.09516,187.96292,153.57517,178.91293,163.18516Z"/>
          <path class="cls-4" d="M156.60293,187.16517c36.85-17.8,74.9,8.96,74.9,8.96-.37-.29-37.87-28.82-75.58-10.6Z"/>
          <path class="cls-9" d="M164.14291,189.13517s2.75-5.51,7.92-4.13-12.05-13.78-35.48-5.17c0,0-15.85,6.55-24.11,12.4-8.27,5.85,9.65,3.1,12.06,4.13a45.05659,45.05659,0,0,0-3.45,21.36s6.2,3.44,9.65,0c0,0,9.3,18.26,12.06,23.77a8.04947,8.04947,0,0,0,2.41-3.79c.69-2.41,0,7.92,17.23,27.56,0,0,15.84-14.13,7.23-53.75s-.34-1.72-.34-1.72,5.52-3.79,8.27,0C177.5729,209.79518,176.89291,192.57517,164.14291,189.13517Z"/>
          <path class="cls-4" d="M132.47292,180.77516c33.09,24.1,27.44,70.27,27.44,70.27.08-.47,7.54-46.98-26.31-71.64Z"/>
          <path class="cls-3" d="M171.03292,290.09516s-3.5-5.07.2-8.93-17.89,3.9-21.66,28.57c0,0-1.92,17.04-.78,27.11,1.13,10.07,7.37-6.95,9.44-8.56a44.9413,44.9413,0,0,0,17.04,13.33s6.01-3.76,4.66-8.45c0,0,20.48.67,26.64.92a8.062,8.062,0,0,0-2.15-3.94c-1.78-1.77,6.93,3.82,32.45-1.78,0,0-4.72-20.7-43.57-32.29s-1.67-.53-1.67-.53-.65-6.66,3.99-7.24C195.623,288.31516,180.21292,280.59516,171.03292,290.09516Z"/>
          <path class="cls-4" d="M148.433,313.79518c37.08-17.34,74.78,9.91,74.78,9.91-.37-.29-37.5-29.29-75.44-11.55Z"/>
          <path class="cls-3" d="M219.04293,362.67518s-5.34-3.07-3.66-8.15-14.46,11.22-7.24,35.12c0,0,5.61,16.2,10.96,24.8,5.36,8.6,3.66-9.45,4.83-11.8a45.04063,45.04063,0,0,0,21.12,4.7s3.8-5.99.57-9.63c0,0,18.77-8.21,24.44-10.64a8.14584,8.14584,0,0,0-3.64-2.63c-2.37-.83,7.91.47,28.52-15.57,0,0-13.17-16.65-53.23-10.38-40.05,6.27-1.74.24-1.74.24s-3.46-5.73.49-8.25C240.46292,350.47517,223.23293,350.15516,219.04293,362.67518Z"/>
          <path class="cls-4" d="M208.84292,393.79518c26-31.61,71.76-23.26,71.76-23.26-.46-.11-46.46-10.29-73.06,22.06Z"/>
          <path class="cls-3" d="M160.29293,479.95515s-3.5-5.07.21-8.93c3.7-3.86-17.89,3.9-21.66,28.57,0,0-1.92,17.04-.79,27.11s7.38-6.95,9.44-8.56a44.94129,44.94129,0,0,0,17.04,13.33s6.01-3.77,4.66-8.45c0,0,20.48.67,26.64.92a8.062,8.062,0,0,0-2.15-3.94c-1.78-1.77,6.93,3.82,32.45-1.78,0,0-4.72-20.7-43.57-32.29s-1.67-.53-1.67-.53-.65-6.66,3.99-7.24C184.873,478.17518,169.46292,470.45515,160.29293,479.95515Z"/>
          <path class="cls-4" d="M137.683,503.64515c37.08-17.34,74.78,9.91,74.78,9.91-.37-.29-37.5-29.29-75.44-11.55Z"/>
          <path class="cls-3" d="M100.74294,499.61518s-2.55-5.61-7.76-4.42,12.55-13.33,35.65-3.87c0,0,15.6,7.12,23.65,13.27s-9.75,2.75-12.2,3.69a45.03911,45.03911,0,0,1,2.67,21.47s-6.32,3.21-9.64-.35c0,0-9.96,17.91-12.91,23.32a8.09253,8.09253,0,0,1-2.27-3.87c-.6-2.44-.29,7.92-18.22,26.92,0,0-15.32-14.7-5.28-53.97,10.05-39.28.41-1.71.41-1.71s-5.37-3.98-8.26-.3C86.57293,519.78517,87.88293,502.59516,100.74294,499.61518Z"/>
          <path class="cls-4" d="M132.6929,492.41517c-33.94,22.87-29.97,69.23-29.97,69.23-.06-.47-5.83-47.23,28.9-70.64Z"/>
          <path class="cls-9" d="M176.03292,344.04518s1.38-6,6.73-5.88-14.96-10.56-35.7,3.33c0,0-13.86,10.1-20.52,17.73-6.66,7.64,10.11.74,12.69,1.18a44.93956,44.93956,0,0,0,1.68,21.57s6.83,1.89,9.37-2.27c0,0,13.34,15.55,17.32,20.26a8.05663,8.05663,0,0,0,1.45-4.25c.1-2.51,1.86,7.7,23.23,22.73,0,0,12.08-17.46-5.62-53.94s-.74-1.59-.74-1.59,4.47-4.98,8.04-1.95C193.96292,360.96516,189.24294,344.39515,176.03292,344.04518Z"/>
          <path class="cls-4" d="M143.29293,343.37519c37.83,15.63,43.21,61.83,43.21,61.83-.03-.47-3.73-47.43-42.44-63.43Z"/>
          <path class="cls-9" d="M108.83291,408.99519s-.29-6.15-5.58-6.98c-5.28-.83,16.59-7.74,34.55,9.6,0,0,11.85,12.39,17.05,21.08,5.2,8.7-10.08-1.06-12.7-1.09a44.92237,44.92237,0,0,1-5.47,20.93s-7.06.65-8.82-3.89c0,0-15.88,12.95-20.63,16.88a8.089,8.089,0,0,1-.68-4.44c.34-2.49-3.2,7.25-26.89,18.26,0,0-8.79-19.32,15.08-52.09,23.88-32.77,1.01-1.43,1.01-1.43s-3.52-5.69-7.56-3.34C88.19293,422.48518,95.77291,407.00514,108.83291,408.99519Z"/>
          <path class="cls-4" d="M141.17294,414.14515c-40,8.68-53.48,53.21-53.48,53.21.12-.46,12.07-46.03,53-54.92Z"/>
          <path class="cls-3" d="M132.30294,278.61515s5.2-3.3,3.31-8.3,14.93,10.6,8.73,34.78c0,0-4.92,16.43-9.91,25.24-4.99,8.82-4.06-9.28-5.33-11.58a45.00468,45.00468,0,0,1-20.9,5.59s-4.05-5.82-.97-9.6c0,0-19.1-7.41-24.87-9.59a8.05529,8.05529,0,0,1,3.52-2.78c2.33-.93-7.88.8-29.16-14.36,0,0,12.45-17.19,52.74-12.63,40.29,4.57,1.75.17,1.75.17s3.21-5.87-.84-8.22C110.3829,267.33515,127.58291,266.27516,132.30294,278.61515Z"/>
          <path class="cls-4" d="M143.813,309.27516c-27.31-30.48-72.68-20.2-72.68-20.2.46-.12,45.98-12.25,73.93,18.94Z"/>
          <path class="cls-5" d="M47.51293,149.19517a14.55894,14.55894,0,0,0-12.35-10.3,19.49285,19.49285,0,0,1-6.33-2.91,14.56313,14.56313,0,0,0-15.86-2.66c-6.13,2.76-10.21,8.34-12.02,14.54-2.3,7.88-.5,14.83,6.09,20.61,3.68,3.23,5.63,3.3,8.56,4.65s4.26,2.78,9.1,3.47c8.68,1.24,15.12-1.93,19.6-8.81A22.44817,22.44817,0,0,0,47.51293,149.19517Z"/>
          <path class="cls-5" d="M47.51293,149.19517a14.55894,14.55894,0,0,0-12.35-10.3,19.49285,19.49285,0,0,1-6.33-2.91,13.0421,13.0421,0,0,0-4.7-2.97c2.51,1.88.98,5.45,10,8.82,8.38,3.12,8.84,17.91-.33,25.7-5.69,4.84-17.39,4.51-29.83-2.25a23.89563,23.89563,0,0,0,3.05,3.19c3.68,3.23,5.63,3.3,8.56,4.65s4.26,2.78,9.1,3.47c8.68,1.24,15.12-1.93,19.6-8.81A22.38337,22.38337,0,0,0,47.51293,149.19517Z"/>
          <path class="cls-1" d="M32.69293,135.52516a6.40787,6.40787,0,0,0-3.38-5.76,6.8879,6.8879,0,0,1,.5,4.61c-.85-1.17-3.71-3.04-5.96-2.62,2.13,1.29,3.15,2.36,3.76,4.47a4.409,4.409,0,0,0-1.92,1.28,10.77535,10.77535,0,0,0-.94,2.22c2.29-1.33,5.15,1.2,6.24-.79,0,0,3.12,2.22,3.34,5.18,1.68-3,.43-4.24.43-4.24,1.92-.38,4.27,1.6,5.59,2.78a6.45125,6.45125,0,0,0-4.08-4.86,5.33883,5.33883,0,0,1,5.03-.66c-2.11-2.01-5.7-3.61-8.61-1.61Z"/>
          <path class="cls-5" d="M10.40292,164.79518a3.01848,3.01848,0,0,1-2.29-1.04c-5.95-6.75-5.15-13.43-3.44-17.85a23.34085,23.34085,0,0,1,5.01-7.69,3.05538,3.05538,0,0,1,4.23,4.41,17.35281,17.35281,0,0,0-3.61,5.66c-1.54,4.12-.76,7.86,2.39,11.43a3.06065,3.06065,0,0,1-2.29,5.08Z"/>
        </g>
        <path class="cls-5" d="M251.99294,427.69514a13.82317,13.82317,0,0,1,7.02-13.56,18.52855,18.52855,0,0,0,4.47-4.87,13.83441,13.83441,0,0,1,12.9-8.16,21.388,21.388,0,0,1,15.87,8.3c4.91,6.05,5.89,12.79,2.25,20.27-2.03,4.17-3.71,4.96-5.78,7.21s-2.7,4-6.69,6.39c-7.14,4.27-13.94,3.87-20.39-.5A21.33766,21.33766,0,0,1,251.99294,427.69514Z"/>
        <path class="cls-5" d="M251.99294,427.69514a13.82317,13.82317,0,0,1,7.02-13.56,18.52855,18.52855,0,0,0,4.47-4.87,12.58717,12.58717,0,0,1,3.02-4.33c-1.5,2.57,1.15,5.13-5.51,11.39-6.19,5.81-1.15,18.92,9.74,22.36,6.76,2.14,16.87-2.45,25.27-12.94a23.236,23.236,0,0,1-1.5,3.92c-2.03,4.17-3.71,4.96-5.78,7.21s-2.7,4-6.69,6.39c-7.14,4.27-13.94,3.87-20.39-.5A21.29824,21.29824,0,0,1,251.99294,427.69514Z"/>
        <path class="cls-1" d="M259.933,410.27516a6.09353,6.09353,0,0,1,.84-6.28,6.4774,6.4774,0,0,0,1.27,4.22c.31-1.33,2.13-4.03,4.25-4.48-1.39,1.91-1.89,3.22-1.65,5.29a4.1595,4.1595,0,0,1,2.15.41,10.33149,10.33149,0,0,1,1.64,1.6c-2.5-.32-4.06,2.94-5.75,1.6,0,0-1.91,3.09-1.01,5.76-2.57-2.01-1.93-3.56-1.93-3.56-1.82.38-3.15,2.97-3.87,4.49a6.12527,6.12527,0,0,1,1.78-5.75,5.04474,5.04474,0,0,0-4.64,1.28c1.07989-2.52991,3.62988-5.25989,6.91992-4.57989Z"/>
        <path class="cls-1" d="M252.47292,405.78517c3.58-.58,7.4,3.34,9.09,5.35a.7357.7357,0,0,1-.54.51,19.54059,19.54059,0,0,0-4.68-3.32,5.63561,5.63561,0,0,0-3.76-.48A1.336,1.336,0,0,1,252.47292,405.78517Z"/>
        <path class="cls-5" d="M289.0729,428.07514a2.988,2.988,0,0,1-.97-.16,3.05274,3.05274,0,0,1-1.92-3.87c3.39-10.1-6.82-14.14-7.26-14.3a3.05779,3.05779,0,0,1,2.19-5.71,22.34768,22.34768,0,0,1,7.27,4.92c3.15,3.26,6.34,8.87,3.59,17.04A3.0658,3.0658,0,0,1,289.0729,428.07514Z"/>
      </g>
    </g>
  </g>
</svg>
