<svg xmlns="http://www.w3.org/2000/svg" viewBox="0 0 146.14766 456.73004">
  <defs>
    <style>
      .cls-1 {
        fill-rule: evenodd;
      }

      .cls-2 {
        fill: #ead7b9;
      }

      .cls-3 {
        fill: #fbd0cf;
      }

      .cls-4 {
        fill: #354053;
      }

      .cls-5 {
        fill: #d3c2a9;
      }

      .cls-6 {
        fill: #3b70b7;
      }

      .cls-7 {
        fill: #d2dcea;
      }

      .cls-8 {
        fill: #f7f9fd;
      }
    </style>
  </defs>
  <title>Asset 2</title>
  <g id="Layer_2" data-name="Layer 2">
    <g id="Layer_1-2" data-name="Layer 1">
      <g>
        <g>
          <polygon class="cls-1" points="82.935 255.49 135.965 282.95 130.255 342.64 78.985 304.49 82.935 255.49"/>
          <path class="cls-1" d="M145.69508,339.82c.36-14.68.23-56.5.23-56.5a35.64674,35.64674,0,0,0-11.26,1.83s-3.82,43.09-4.58,57.49C133.52509,343.16,144.3451,341.27,145.69508,339.82Z"/>
          <polygon class="cls-1" points="82.805 255.46 132.695 285.58 145.925 283.34 93.155 254.47 82.805 255.46"/>
          <path class="cls-1" d="M120.89509,252.99l3.63-1.44c4.93,2.14,5.74,11.04,4.31,23.2l-6.97,1.46C125.02509,259,122.75507,257.11,120.89509,252.99Z"/>
          <path class="cls-1" d="M106.46509,248.17c.06-.34-.13-.51-2.5.8-4.52,2.49-5.01,6.88-5.53,14.29l5.86-2.03c.23-5.77.4-7.6,2.04-8.5v-1.11C106.38508,250.64,106.36509,248.76,106.46509,248.17Z"/>
        </g>
        <polygon class="cls-2" points="25.435 160.78 40.685 225.28 26.185 231.79 10.455 200.19 4.265 167.67 17.495 158.18 25.435 160.78"/>
        <path class="cls-3" d="M25.03507,229.53l4.85,12.1-4.37,7.8s-2.18,9-1.97,10.93c.08.72,1.87,1.68,3.25,4.75a3.9154,3.9154,0,0,0,3.46,2.08c1.09.18,1.8.78,4.13,1.66.39.15,4.02-1.43,4.56-1.96.36-.35,3.37-3.4,3.49-4.79a7.11278,7.11278,0,0,0-.8-3.53c-.5-1.25-1.1-1.36-1.73-1.16-.8.26-1.15,1.49-.75,4.02,0,0-1.33,1.57-1.77,1.04-.92-1.13,1.52-4.75,2.6-6.26,1.79-2.49,3.44-2.82,5.23-8.49.34-1.07-.28-7.56-.4-8.12-1.02-4.73-4.72-17.5-4.72-17.5Z"/>
        <polygon class="cls-2" points="123.155 153.03 109.745 217.96 124.425 224.03 139.245 191.96 144.515 159.26 131.015 150.18 123.155 153.03"/>
        <path class="cls-2" d="M125.51508,221.73l-4.5,12.25,4.59,7.66s2.43,8.93,2.28,10.87c-.06.72-1.82,1.74-3.12,4.85a3.93472,3.93472,0,0,1-3.4,2.19c-1.09.21-1.78.84-4.08,1.79-.39.16-4.06-1.31-4.61-1.82-.37-.34-3.46-3.29-3.63-4.68a7.0618,7.0618,0,0,1,.7-3.55c.47-1.26,1.06-1.4,1.69-1.21.8.23,1.19,1.46.86,3.99,0,0,1.38,1.53,1.8.99.89-1.15-1.65-4.7-2.77-6.17-1.86-2.44-3.52-2.71-5.47-8.33-.37-1.06.07-7.57.17-8.13.88-4.76,4.22-17.64,4.22-17.64Z"/>
        <path class="cls-2" d="M80.94508,30.78a3.22572,3.22572,0,0,1,4.5-1.28,3.53415,3.53415,0,0,1,1.19,4.71,3.22572,3.22572,0,0,1-4.5,1.28A3.53667,3.53667,0,0,1,80.94508,30.78Z"/>
        <path class="cls-2" d="M55.19508,32.84a3.3431,3.3431,0,0,1-3.6,3.1,3.40738,3.40738,0,0,1-2.94-3.78,3.3431,3.3431,0,0,1,3.6-3.1A3.40159,3.40159,0,0,1,55.19508,32.84Z"/>
        <path class="cls-4" d="M84.3451,426.88c-.45,1.7-2.03,7.32-2.35,9.76-.28,2.11.3,11.06.3,11.06l6.04.96v-2.8s2.29,4.06,3.26,4.68c1.09.68,14.07,3.5,14.07,3.5l10.45-1.27a8.13876,8.13876,0,0,0,.02-3.54c-1.14-3.29-10.12-10.04-12.25-12.68-1.6-1.99-2.88-12.51-2.88-12.51s-14.42-4.99-15.5-4.93C84.0951,419.18,84.91508,424.71,84.3451,426.88Z"/>
        <polygon class="cls-5" points="79.945 82.75 55.845 84.42 53.615 54.03 80.955 53.95 79.945 82.75"/>
        <path class="cls-2" d="M82.58509,13.64h-29.92l-1.7,40.15a2.87329,2.87329,0,0,0,1.79,2.87l8.91,3.5a2.723,2.723,0,0,1,1.53,1.47h0c.44.99,2.57,1.62,3.59,1.62h2.28c1.02,0,3.15-.63,3.59-1.62h0a2.72141,2.72141,0,0,1,1.53-1.47l8.88-3.48a2.87368,2.87368,0,0,0,1.79-2.92Z"/>
        <path d="M80.60508,17.91c-6.09,3.17-27.81.45-27.81.45s-.87-15.22,8.32-14.4c20.93,1.85,17.92-3.96,17.92-3.96S89.69508,13.19,80.60508,17.91Z"/>
        <path d="M53.21509,28.09l-1.29,2.12-2.7-8.32c-1.23-5.96-.81-10.5,4-13.68l1.99-1.61V21.79A10.92257,10.92257,0,0,1,53.21509,28.09Z"/>
        <path d="M82.51508,8.87s4.8.59,5.78,1.96c3.31,4.62-4.69,20.72-4.69,20.72s-.89-2.3-1.89-4.24C79.6251,23.29,82.51508,8.87,82.51508,8.87Z"/>
        <path class="cls-4" d="M40.70508,435.43c-.47,2.07-2.71,8.03-2.71,8.03s-6.5,5.85-7.5,8.51c-.52,1.39.03,4.76.03,4.76h13.06c3.97,0,7.46-1.65,8.88-3.47a33.58748,33.58748,0,0,0,2.45-5.37l3.67-.94a1.404,1.404,0,0,0,1.01-1.59l-3.09-20.52h-14.53C41.98508,424.84,41.29508,432.84,40.70508,435.43Z"/>
        <path class="cls-6" d="M29.70508,191.88l-8.71,34.5s.8,18.24,1.45,24.28c1.74,16.11,6.99,91.07,6.99,91.07l9.77,90.4,4.36,1.27,16.87-1.61,2.09-82.27-2.03-21.62,7.87-66.63s4.79,32.02,8.4,57.81c.48,3.47,2.32,12.79,2.32,12.79l-.33,17.95,2.54,78.28,15.61,3.29,5.81-2.19,6.85-87.93s2.49-6.28,2.58-7.96c1.48-25.73,1.48-101.7,1.48-101.7l-11.17-29.04-37.9,2.62Z"/>
        <polygon class="cls-7" points="47.815 73.84 68.095 84.16 89.405 72.86 68.365 125.15 47.815 73.84"/>
        <path class="cls-7" d="M116.0951,72.43c3.23-.59,5.87,6.92,8.31,10.1,10.04,13.1,14.26,51.5,21.45,70.1.96,2.49-.75,9.27-.75,9.27s-10.5-4.11-15.55-3.05c-2.02.42-9.74,4.4-9.74,4.4-16.93-43.95-20.48-33.76-18.29-57.12C102.36509,97.05,107.17509,74.07,116.0951,72.43Z"/>
        <path class="cls-7" d="M19.75507,71.43c-3.24.49-7.64,13.15-9,16.97-5.6,15.72-9.51,49.16-10.75,69.17-.17,2.68,3.99,16.39,3.99,16.39s8.73-10.6,13.18-10.15c2.06.21,11.24,3.17,11.24,3.17s6.6-49.64,4.01-63.8C30.79508,94.22,28.72507,70.07,19.75507,71.43Z"/>
        <path class="cls-4" d="M27.88508,198.65c-.66-7.16-1.74-42.94-2.17-47.39-.42-4.33-1.76-23.87-.98-31.7,1.11-11.21-4.97-48.12-4.97-48.12l30.06-.04,18.28,46.77,18.87-48.41,29.54,2.65s-13.67,54.26-6.23,68.31c1.19,2.25-3.11,23.78-3.03,31.32.08,7.34-2.35,24.79-3.15,28.08-.43,1.75.76,8.75.76,8.75s-30.95,3.51-41.23,2.72"/>
        <polygon class="cls-8" points="44.775 72.85 52.815 62.48 68.095 84.16 64.275 91.41 44.775 72.85"/>
        <polygon class="cls-8" points="68.095 84.16 82.185 63.9 91.375 70.6 72.345 92.88 68.095 84.16"/>
      </g>
    </g>
  </g>
</svg>
